# Blender 3.6.2
# www.blender.org
mtllib aotubo.mtl
o d_aotubo00
v -28.453125 19.367188 28.453125 1.0000 1.0000 1.0000
v 0.000000 19.367188 40.238281 1.0000 1.0000 1.0000
v 0.000000 0.468750 25.667969 1.0000 1.0000 1.0000
v -18.148438 0.468750 18.148438 1.0000 1.0000 1.0000
v 28.453125 19.367188 28.453125 1.0000 1.0000 1.0000
v 18.148438 0.468750 18.148438 1.0000 1.0000 1.0000
v 40.238281 19.367188 0.000000 1.0000 1.0000 1.0000
v 25.667969 0.468750 0.000000 1.0000 1.0000 1.0000
v 28.453125 19.367188 -28.453125 1.0000 1.0000 1.0000
v 18.148438 0.468750 -18.148438 1.0000 1.0000 1.0000
v 35.074219 38.054688 -35.074219 1.0000 1.0000 1.0000
v 0.000000 38.054688 -49.601562 1.0000 1.0000 1.0000
v 0.000000 19.367188 -40.238281 1.0000 1.0000 1.0000
v -35.074219 38.054688 -35.074219 1.0000 1.0000 1.0000
v -28.453125 19.367188 -28.453125 1.0000 1.0000 1.0000
v -49.601562 38.054688 0.000000 1.0000 1.0000 1.0000
v -40.238281 19.367188 0.000000 1.0000 1.0000 1.0000
v -35.074219 38.054688 35.074219 1.0000 1.0000 1.0000
v 0.000000 38.054688 49.601562 1.0000 1.0000 1.0000
v 35.074219 38.054688 35.074219 1.0000 1.0000 1.0000
v 49.601562 38.054688 0.000000 1.0000 1.0000 1.0000
v 35.992188 60.589844 -35.992188 1.0000 1.0000 1.0000
v 0.000000 60.589844 -50.902344 1.0000 1.0000 1.0000
v -35.992188 60.589844 -35.992188 1.0000 1.0000 1.0000
v -50.902344 60.589844 0.000000 1.0000 1.0000 1.0000
v -35.992188 60.589844 35.992188 1.0000 1.0000 1.0000
v 0.000000 60.589844 50.902344 1.0000 1.0000 1.0000
v 35.992188 60.589844 35.992188 1.0000 1.0000 1.0000
v 50.902344 60.589844 0.000000 1.0000 1.0000 1.0000
v 0.000000 86.714844 -27.457031 1.0000 1.0000 1.0000
v -19.414062 86.714844 -19.414062 1.0000 1.0000 1.0000
v -31.457031 76.550781 -31.457031 1.0000 1.0000 1.0000
v 0.000000 76.550781 -44.484375 1.0000 1.0000 1.0000
v 19.414062 86.714844 -19.414062 1.0000 1.0000 1.0000
v 31.457031 76.550781 -31.457031 1.0000 1.0000 1.0000
v 44.484375 76.550781 0.000000 1.0000 1.0000 1.0000
v 31.457031 76.550781 31.457031 1.0000 1.0000 1.0000
v 0.000000 76.550781 44.484375 1.0000 1.0000 1.0000
v -31.457031 76.550781 31.457031 1.0000 1.0000 1.0000
v -44.484375 76.550781 0.000000 1.0000 1.0000 1.0000
v -27.457031 86.714844 0.000000 1.0000 1.0000 1.0000
v -19.414062 86.714844 19.414062 1.0000 1.0000 1.0000
v 0.000000 86.714844 27.457031 1.0000 1.0000 1.0000
v 19.414062 86.714844 19.414062 1.0000 1.0000 1.0000
v 27.457031 86.714844 0.000000 1.0000 1.0000 1.0000
v 20.855469 104.187500 -20.855469 1.0000 1.0000 1.0000
v 0.000000 104.187500 -29.492188 1.0000 1.0000 1.0000
v 0.000000 96.226562 -32.753906 1.0000 1.0000 1.0000
v 23.160156 96.226562 -23.160156 1.0000 1.0000 1.0000
v -20.855469 104.187500 -20.855469 1.0000 1.0000 1.0000
v -23.160156 96.226562 -23.160156 1.0000 1.0000 1.0000
v 0.000000 0.468750 -25.667969 1.0000 1.0000 1.0000
v -18.148438 0.468750 -18.148438 1.0000 1.0000 1.0000
v -25.667969 0.468750 0.000000 1.0000 1.0000 1.0000
v 0.000000 9.128906 23.769531 1.0000 1.0000 1.0000
v 16.808594 9.128906 16.808594 1.0000 1.0000 1.0000
v 15.656250 104.187500 15.656250 1.0000 1.0000 1.0000
v 0.000000 104.187500 22.144531 1.0000 1.0000 1.0000
v -29.492188 104.187500 0.000000 1.0000 1.0000 1.0000
v -32.753906 96.226562 0.000000 1.0000 1.0000 1.0000
v -20.855469 104.187500 20.855469 1.0000 1.0000 1.0000
v -23.160156 96.226562 23.160156 1.0000 1.0000 1.0000
v 0.000000 104.187500 29.492188 1.0000 1.0000 1.0000
v 0.000000 96.226562 32.753906 1.0000 1.0000 1.0000
v 20.855469 104.187500 20.855469 1.0000 1.0000 1.0000
v 23.160156 96.226562 23.160156 1.0000 1.0000 1.0000
v 29.492188 104.187500 0.000000 1.0000 1.0000 1.0000
v 32.753906 96.226562 0.000000 1.0000 1.0000 1.0000
v 23.910156 92.164062 0.000000 1.0000 1.0000 1.0000
v 16.906250 92.164062 -16.906250 1.0000 1.0000 1.0000
v 0.000000 92.164062 -23.910156 1.0000 1.0000 1.0000
v -16.906250 92.164062 -16.906250 1.0000 1.0000 1.0000
v -23.910156 92.164062 0.000000 1.0000 1.0000 1.0000
v -16.906250 92.164062 16.906250 1.0000 1.0000 1.0000
v 0.000000 92.164062 23.910156 1.0000 1.0000 1.0000
v 16.906250 92.164062 16.906250 1.0000 1.0000 1.0000
v 15.656250 104.187500 -15.656250 1.0000 1.0000 1.0000
v 0.000000 104.187500 -22.144531 1.0000 1.0000 1.0000
v -15.656250 104.187500 -15.656250 1.0000 1.0000 1.0000
v -22.144531 104.187500 0.000000 1.0000 1.0000 1.0000
v -15.656250 104.187500 15.656250 1.0000 1.0000 1.0000
v 22.144531 104.187500 0.000000 1.0000 1.0000 1.0000
v -16.808594 9.128906 16.808594 1.0000 1.0000 1.0000
v -23.769531 9.128906 0.000000 1.0000 1.0000 1.0000
v -16.808594 9.128906 -16.808594 1.0000 1.0000 1.0000
v 0.000000 9.128906 -23.769531 1.0000 1.0000 1.0000
v 16.808594 9.128906 -16.808594 1.0000 1.0000 1.0000
v 23.769531 9.128906 0.000000 1.0000 1.0000 1.0000
v 0.000000 9.183594 0.000000 1.0000 1.0000 1.0000
vn -0.0000 -0.5214 -0.8533
vn 0.3685 -0.8535 -0.3685
vn -0.0000 -0.8534 -0.5212
vn 0.6034 -0.5214 -0.6034
vn -0.0000 -0.2466 -0.9691
vn 0.6853 -0.2466 -0.6853
vn -0.0000 0.1537 -0.9881
vn 0.6987 0.1537 -0.6987
vn -0.0000 0.6136 -0.7896
vn 0.5584 0.6135 -0.5584
vn -0.0000 0.7496 -0.6619
vn 0.4681 0.7496 -0.4680
vn -0.0000 -0.3439 -0.9390
vn 0.6640 -0.3439 -0.6640
vn -0.0000 -0.3196 -0.9476
vn 0.6700 -0.3197 -0.6700
vn -0.0000 0.7693 -0.6389
vn 0.4518 0.7692 -0.4519
vn -0.6034 -0.5214 -0.6034
vn -0.3685 -0.8535 -0.3685
vn -0.6853 -0.2466 -0.6853
vn -0.6987 0.1537 -0.6987
vn -0.5584 0.6135 -0.5584
vn -0.4680 0.7496 -0.4681
vn -0.6640 -0.3439 -0.6640
vn -0.6700 -0.3197 -0.6700
vn -0.4519 0.7692 -0.4518
vn -0.8533 -0.5214 -0.0000
vn -0.5212 -0.8534 -0.0000
vn -0.9691 -0.2466 -0.0000
vn -0.9881 0.1537 -0.0000
vn -0.7896 0.6136 -0.0000
vn -0.6619 0.7496 -0.0000
vn -0.9390 -0.3439 -0.0000
vn -0.9476 -0.3196 -0.0000
vn -0.6389 0.7693 -0.0000
vn 0.6700 -0.3197 0.6700
vn 0.6389 0.7693 -0.0000
vn 0.4519 0.7692 0.4518
vn 0.9476 -0.3196 -0.0000
vn 0.6640 -0.3439 0.6640
vn 0.9390 -0.3439 -0.0000
vn 0.4680 0.7496 0.4681
vn 0.6619 0.7496 -0.0000
vn 0.5584 0.6135 0.5584
vn 0.7896 0.6136 -0.0000
vn 0.6987 0.1537 0.6987
vn 0.9881 0.1537 -0.0000
vn 0.6853 -0.2466 0.6853
vn 0.9691 -0.2466 -0.0000
vn 0.6034 -0.5214 0.6034
vn 0.8533 -0.5214 -0.0000
vn 0.3685 -0.8535 0.3685
vn 0.5212 -0.8534 -0.0000
vn -0.0000 -0.3196 0.9476
vn -0.0000 0.7693 0.6389
vn -0.0000 -0.3439 0.9390
vn -0.0000 0.7496 0.6619
vn -0.0000 0.6136 0.7896
vn -0.0000 0.1537 0.9881
vn -0.0000 -0.2466 0.9691
vn -0.0000 -0.5214 0.8533
vn -0.0000 -0.8534 0.5212
vn -0.6700 -0.3197 0.6700
vn -0.4518 0.7692 0.4519
vn -0.6640 -0.3439 0.6640
vn -0.4681 0.7496 0.4680
vn -0.5584 0.6135 0.5584
vn -0.6987 0.1537 0.6987
vn -0.6853 -0.2466 0.6853
vn -0.6034 -0.5214 0.6034
vn -0.3685 -0.8535 0.3685
vn -0.0000 1.0000 -0.0000
vn 0.5522 0.6245 -0.5523
vn -0.0000 0.6246 -0.7810
vn 0.7810 0.6246 -0.0000
vn 0.5523 0.6245 0.5522
vn -0.7810 0.6246 -0.0000
vn -0.5522 0.6245 0.5523
vn -0.5523 0.6245 -0.5522
vn -0.0000 0.6246 0.7810
vn -0.0000 0.7994 -0.6008
vn -0.4249 0.7993 -0.4249
vn -0.0000 0.7994 0.6008
vn -0.4249 0.7993 0.4249
vn 0.4249 0.7993 0.4249
vn 0.6008 0.7994 -0.0000
vn 0.4249 0.7993 -0.4249
vn -0.6008 0.7994 -0.0000
vt 0.500000 1.151733
vt 0.630310 1.008728
vt 0.500000 1.008728
vt 0.702637 1.151733
vt 0.500000 1.296021
vt 0.749084 1.296021
vt 0.500000 1.501831
vt 0.755554 1.501831
vt 0.500000 1.626221
vt 0.723755 1.626221
vt 0.500000 1.705200
vt 0.639221 1.705200
vt 0.500000 1.747742
vt 0.621582 1.747742
vt 0.500000 1.778748
vt 0.665527 1.778748
vt 0.500000 1.839294
vt 0.649292 1.839294
vt 0.303162 1.151733
vt 0.375488 1.008728
vt 0.256714 1.296021
vt 0.250244 1.501831
vt 0.282104 1.626221
vt 0.366638 1.705200
vt 0.384216 1.747742
vt 0.340332 1.778748
vt 0.356506 1.839294
vt 0.123413 1.151733
vt 0.247864 1.008728
vt 0.012756 1.296021
vt 0.000000 1.501831
vt 0.077393 1.626221
vt 0.230286 1.705200
vt 0.265076 1.747742
vt 0.178223 1.778748
vt 0.210266 1.839294
vt 0.664734 1.778320
vt 0.771118 1.839722
vt 0.648560 1.839722
vt 0.827026 1.778320
vt 0.620911 1.747070
vt 0.739380 1.747070
vt 0.638489 1.705078
vt 0.774475 1.705078
vt 0.722961 1.626709
vt 0.920776 1.626709
vt 0.754761 1.503662
vt 0.998779 1.503662
vt 0.748291 1.297241
vt 0.988586 1.297607
vt 0.701843 1.153198
vt 0.878357 1.153198
vt 0.629639 1.007568
vt 0.756775 1.007568
vt 0.502319 1.778320
vt 0.502319 1.839722
vt 0.502319 1.747070
vt 0.502319 1.705078
vt 0.502319 1.626709
vt 0.502319 1.503662
vt 0.502319 1.297241
vt 0.502319 1.153198
vt 0.502319 1.007568
vt 0.339844 1.778320
vt 0.356018 1.839722
vt 0.383728 1.747070
vt 0.366150 1.705078
vt 0.281677 1.626709
vt 0.249878 1.503662
vt 0.256287 1.297241
vt 0.302734 1.153198
vt 0.375000 1.007568
vt 0.177551 1.778320
vt 0.209900 1.839722
vt 0.265259 1.747070
vt 0.230103 1.705078
vt 0.075745 1.626709
vt -0.002258 1.503662
vt 0.010559 1.297241
vt 0.122131 1.153198
vt 0.247864 1.007568
vt 0.827332 1.778748
vt 0.771667 1.839294
vt 0.734863 1.747742
vt 0.769653 1.705200
vt 0.922485 1.626221
vt 1.000000 1.501831
vt 0.987183 1.296021
vt 0.876526 1.151733
vt 0.752075 1.008728
vt 0.462158 0.930176
vt 0.385742 0.887512
vt 0.462158 0.869873
vt 0.354065 0.930176
vt 0.385742 0.972778
vt 0.570251 0.930176
vt 0.538574 0.972778
vt 0.538574 0.887512
vt 0.462158 0.990479
vt 0.974609 0.853699
vt 0.006470 0.985779
vt 0.005981 0.855652
vt 0.974915 0.993103
vt 0.620178 0.769043
vt 0.364136 0.847412
vt 0.620056 0.848267
vt 0.363586 0.768433
vt 0.363220 0.769043
vt 0.620056 0.847412
vt 0.363342 0.848267
vt 0.620544 0.768433
vt 0.661987 0.757202
vt 0.275513 0.682251
vt 0.352783 0.757019
vt 0.739807 0.682312
vt 0.740662 0.767578
vt 0.275696 0.680725
vt 0.275146 0.767456
vt 0.739685 0.680847
vt 0.661987 0.689209
vt 0.275513 0.768311
vt 0.352783 0.688965
vt 0.739807 0.768372
s 1
usemtl aa_D_aotubo00_v
f 13/1/1 10/2/2 52/3/3
f 10/2/2 13/1/1 9/4/4
f 12/5/5 9/4/4 13/1/1
f 9/4/4 12/5/5 11/6/6
f 23/7/7 11/6/6 12/5/5
f 11/6/6 23/7/7 22/8/8
f 33/9/9 22/8/8 23/7/7
f 22/8/8 33/9/9 35/10/10
f 30/11/11 35/10/10 33/9/9
f 35/10/10 30/11/11 34/12/12
f 71/13/13 34/12/12 30/11/11
f 34/12/12 71/13/13 70/14/14
f 48/15/15 70/14/14 71/13/13
f 70/14/14 48/15/15 49/16/16
f 47/17/17 49/16/16 48/15/15
f 49/16/16 47/17/17 46/18/18
f 15/19/19 52/3/3 53/20/20
f 52/3/3 15/19/19 13/1/1
f 14/21/21 13/1/1 15/19/19
f 13/1/1 14/21/21 12/5/5
f 24/22/22 12/5/5 14/21/21
f 12/5/5 24/22/22 23/7/7
f 32/23/23 23/7/7 24/22/22
f 23/7/7 32/23/23 33/9/9
f 31/24/24 33/9/9 32/23/23
f 33/9/9 31/24/24 30/11/11
f 72/25/25 30/11/11 31/24/24
f 30/11/11 72/25/25 71/13/13
f 51/26/26 71/13/13 72/25/25
f 71/13/13 51/26/26 48/15/15
f 50/27/27 48/15/15 51/26/26
f 48/15/15 50/27/27 47/17/17
f 17/28/28 53/20/20 54/29/29
f 53/20/20 17/28/28 15/19/19
f 16/30/30 15/19/19 17/28/28
f 15/19/19 16/30/30 14/21/21
f 25/31/31 14/21/21 16/30/30
f 14/21/21 25/31/31 24/22/22
f 40/32/32 24/22/22 25/31/31
f 24/22/22 40/32/32 32/23/23
f 41/33/33 32/23/23 40/32/32
f 32/23/23 41/33/33 31/24/24
f 73/34/34 31/24/24 41/33/33
f 31/24/24 73/34/34 72/25/25
f 60/35/35 72/25/25 73/34/34
f 72/25/25 60/35/35 51/26/26
f 59/36/36 51/26/26 60/35/35
f 51/26/26 59/36/36 50/27/27
f 66/37/37 67/38/38 65/39/39
f 67/38/38 66/37/37 68/40/40
f 76/41/41 68/40/40 66/37/37
f 68/40/40 76/41/41 69/42/42
f 44/43/43 69/42/42 76/41/41
f 69/42/42 44/43/43 45/44/44
f 37/45/45 45/44/44 44/43/43
f 45/44/44 37/45/45 36/46/46
f 28/47/47 36/46/46 37/45/45
f 36/46/46 28/47/47 29/48/48
f 20/49/49 29/48/48 28/47/47
f 29/48/48 20/49/49 21/50/50
f 5/51/51 21/50/50 20/49/49
f 21/50/50 5/51/51 7/52/52
f 6/53/53 7/52/52 5/51/51
f 7/52/52 6/53/53 8/54/54
f 64/55/55 65/39/39 63/56/56
f 65/39/39 64/55/55 66/37/37
f 75/57/57 66/37/37 64/55/55
f 66/37/37 75/57/57 76/41/41
f 43/58/58 76/41/41 75/57/57
f 76/41/41 43/58/58 44/43/43
f 38/59/59 44/43/43 43/58/58
f 44/43/43 38/59/59 37/45/45
f 27/60/60 37/45/45 38/59/59
f 37/45/45 27/60/60 28/47/47
f 19/61/61 28/47/47 27/60/60
f 28/47/47 19/61/61 20/49/49
f 2/62/62 20/49/49 19/61/61
f 20/49/49 2/62/62 5/51/51
f 3/63/63 5/51/51 2/62/62
f 5/51/51 3/63/63 6/53/53
f 62/64/64 63/56/56 61/65/65
f 63/56/56 62/64/64 64/55/55
f 74/66/66 64/55/55 62/64/64
f 64/55/55 74/66/66 75/57/57
f 42/67/67 75/57/57 74/66/66
f 75/57/57 42/67/67 43/58/58
f 39/68/68 43/58/58 42/67/67
f 43/58/58 39/68/68 38/59/59
f 26/69/69 38/59/59 39/68/68
f 38/59/59 26/69/69 27/60/60
f 18/70/70 27/60/60 26/69/69
f 27/60/60 18/70/70 19/61/61
f 1/71/71 19/61/61 18/70/70
f 19/61/61 1/71/71 2/62/62
f 4/72/72 2/62/62 1/71/71
f 2/62/62 4/72/72 3/63/63
f 60/73/35 61/65/65 59/74/36
f 61/65/65 60/73/35 62/64/64
f 73/75/34 62/64/64 60/73/35
f 62/64/64 73/75/34 74/66/66
f 41/76/33 74/66/66 73/75/34
f 74/66/66 41/76/33 42/67/67
f 40/77/32 42/67/67 41/76/33
f 42/67/67 40/77/32 39/68/68
f 25/78/31 39/68/68 40/77/32
f 39/68/68 25/78/31 26/69/69
f 16/79/30 26/69/69 25/78/31
f 26/69/69 16/79/30 18/70/70
f 17/80/28 18/70/70 16/79/30
f 18/70/70 17/80/28 1/71/71
f 54/81/29 1/71/71 17/80/28
f 1/71/71 54/81/29 4/72/72
f 68/82/40 46/18/18 67/83/38
f 46/18/18 68/82/40 49/16/16
f 69/84/42 49/16/16 68/82/40
f 49/16/16 69/84/42 70/14/14
f 45/85/44 70/14/14 69/84/42
f 70/14/14 45/85/44 34/12/12
f 36/86/46 34/12/12 45/85/44
f 34/12/12 36/86/46 35/10/10
f 29/87/48 35/10/10 36/86/46
f 35/10/10 29/87/48 22/8/8
f 21/88/50 22/8/8 29/87/48
f 22/8/8 21/88/50 11/6/6
f 7/89/52 11/6/6 21/88/50
f 11/6/6 7/89/52 9/4/4
f 8/90/54 9/4/4 7/89/52
f 9/4/4 8/90/54 10/2/2
f 89/91/73 83/92/74 55/93/75
f 83/92/74 89/91/73 84/94/76
f 85/95/77 84/94/76 89/91/73
f 89/91/73 88/96/78 87/97/79
f 88/96/78 89/91/73 56/98/80
f 55/93/75 56/98/80 89/91/73
f 86/99/81 89/91/73 87/97/79
f 89/91/73 86/99/81 85/95/77
f 56/100/80 58/101/82 57/102/83
f 58/101/82 56/100/80 55/103/75
f 78/104/84 46/105/18 47/106/17
f 46/105/18 78/104/84 77/107/85
f 79/108/86 47/109/17 50/110/27
f 47/109/17 79/108/86 78/111/84
f 80/104/87 50/105/27 59/106/36
f 50/105/27 80/104/87 79/107/86
f 81/108/88 59/109/36 61/110/65
f 59/109/36 81/108/88 80/111/87
f 58/104/82 61/105/65 63/106/56
f 61/105/65 58/104/82 81/107/88
f 57/108/83 63/109/56 65/110/39
f 63/109/56 57/108/83 58/111/82
f 82/104/89 65/105/39 67/106/38
f 65/105/39 82/104/89 57/107/83
f 77/108/85 67/109/38 46/110/18
f 67/109/38 77/108/85 82/111/89
f 10/112/2 53/113/20 52/114/3
f 53/113/20 10/112/2 8/115/54
f 8/116/54 54/117/29 53/118/20
f 54/117/29 8/116/54 6/119/53
f 4/120/72 6/121/53 3/122/63
f 6/121/53 4/120/72 54/123/29
f 88/100/78 57/101/83 82/102/89
f 57/101/83 88/100/78 56/103/80
f 87/100/79 82/101/89 77/102/85
f 82/101/89 87/100/79 88/103/78
f 86/100/81 77/101/85 78/102/84
f 77/101/85 86/100/81 87/103/79
f 85/100/77 78/101/84 79/102/86
f 78/101/84 85/100/77 86/103/81
f 84/100/76 79/101/86 80/102/87
f 79/101/86 84/100/76 85/103/77
f 83/100/74 80/101/87 81/102/88
f 80/101/87 83/100/74 84/103/76
f 55/100/75 81/101/88 58/102/82
f 81/101/88 55/100/75 83/103/74
