v 2.048001 -0.000000 -0.512000
v 2.048001 0.768000 -0.512000
v 2.048001 0.768001 0.512000
v 2.048001 0.000000 0.512000
v 2.048001 1.536001 0.512000
v 2.048001 1.536001 -0.512000
v 2.048001 2.304001 0.512000
v 2.048001 2.304001 -0.512001
v 2.048001 3.328002 0.512000
v 2.048001 3.328002 -0.512001
v 1.408001 4.480003 0.512000
v 1.408001 4.480003 -0.512001
v 0.000000 4.864003 0.512000
v 0.000000 4.864003 -0.512001
v -1.408001 4.480003 0.512000
v -1.408001 4.480003 -0.512001
v -2.048001 3.328002 0.512000
v -2.048001 3.328002 -0.512001
v -2.048001 2.304001 0.512000
v -2.048001 2.304001 -0.512001
v -2.048001 1.536001 0.512000
v -2.048001 1.536001 -0.512000
v -2.048001 0.768001 0.512000
v -2.048001 0.768000 -0.512000
v -2.048001 0.000000 0.512000
v -2.048001 -0.000000 -0.512000
v 1.536001 0.000000 0.512000
v 1.536001 0.768001 0.512000
v 1.536001 0.768000 -0.512000
v 1.536001 -0.000000 -0.512000
v 1.536001 1.536001 -0.512000
v 1.536001 1.536001 0.512000
v 1.536001 2.304001 -0.512001
v 1.536001 2.304001 0.512000
v 1.536001 3.072002 -0.512001
v 1.536001 3.072002 0.512000
v 1.024001 4.096003 -0.512001
v 1.024001 4.096003 0.512000
v 0.000000 4.352003 -0.512001
v 0.000000 4.352003 0.512000
v -1.024001 4.096003 -0.512001
v -1.024001 4.096003 0.512000
v -1.536001 3.072002 -0.512001
v -1.536001 3.072002 0.512000
v -1.536001 2.304001 -0.512001
v -1.536001 2.304001 0.512000
v -1.536001 1.536001 -0.512000
v -1.536001 1.536001 0.512000
v -1.536001 0.768000 -0.512000
v -1.536001 0.768001 0.512000
v -1.536001 -0.000000 -0.512000
v -1.536001 0.000000 0.512000
v -0.512000 0.640000 -0.512000
v -1.024001 0.640000 -0.512000
v -0.256000 1.280001 -0.512000
v -0.512000 1.280001 -0.512000
v 0.000000 0.640000 -0.512000
v 0.000000 1.280001 -0.512000
v 0.512000 0.640000 -0.512000
v 0.256000 1.280001 -0.512000
v 1.024001 0.640000 -0.512000
v 0.512000 1.280001 -0.512000
v 1.024001 1.152001 -0.512000
v 0.512000 1.536001 -0.512000
v 1.024001 1.664001 -0.512000
v 0.512000 1.792001 -0.512000
v 1.024001 2.176001 -0.512001
v 0.512000 2.048001 -0.512001
v 1.024001 2.688002 -0.512001
v 0.512000 2.304001 -0.512001
v 0.683000 3.371002 -0.512001
v 0.341000 2.645002 -0.512001
v 0.000000 3.541002 -0.512001
v 0.000000 2.731002 -0.512001
v -0.683000 3.371002 -0.512001
v -0.341000 2.645002 -0.512001
v -1.024001 2.688002 -0.512001
v -0.512000 2.304001 -0.512001
v -1.024001 2.176001 -0.512001
v -0.512000 2.048001 -0.512001
v -1.024001 1.664001 -0.512000
v -0.512000 1.792001 -0.512000
v -1.024001 1.152001 -0.512000
v -0.512000 1.536001 -0.512000
v -0.768000 -0.000000 -0.512000
v 0.000000 -0.000000 -0.512000
v 0.768000 -0.000000 -0.512000
v 0.000000 1.920001 -0.512000
vn 1.0000 -0.0000 -0.0000
vn 0.8742 0.4856 -0.0000
vn 0.2631 0.9648 -0.0000
vn -0.2631 0.9648 -0.0000
vn -0.8742 0.4856 -0.0000
vn -1.0000 -0.0000 -0.0000
vn -0.8944 -0.4472 -0.0000
vn -0.2425 -0.9701 -0.0000
vn 0.2425 -0.9701 -0.0000
vn 0.8944 -0.4472 -0.0000
vn -0.0000 -0.0000 -1.0000
vn -0.0000 -0.0000 1.0000
vt 0.968750 0.031250
vt 0.968750 0.531250
vt 0.000000 0.531250
vt 0.000000 0.031250
vt 0.000000 1.000000
vt 0.968750 1.000000
vt 0.000000 0.437500
vt 0.000000 0.015625
vt 0.968750 0.015625
vt 0.968750 0.437500
vt 0.000000 0.484375
vt 0.968750 0.484375
vt 0.968750 0.515625
vt 0.000000 0.515625
vt 0.000000 0.500000
vt 0.968750 0.500000
vt 0.000000 0.546875
vt 0.968750 0.546875
vt 0.500000 0.531250
vt 0.500000 0.031250
vt 0.500000 1.000000
vt 0.968750 0.453125
vt 0.500000 0.453125
vt 0.500000 0.875000
vt 0.968750 0.203125
vt 0.375000 1.000000
vt 0.000000 0.734375
vt 0.000000 0.375000
vt 0.703125 0.046875
vt 0.265625 0.046875
vt 0.968750 0.375000
vt 0.593750 1.000000
vt 0.000000 0.203125
vt 0.484375 0.031250
vt 0.968750 0.734375
vt 0.000000 0.453125
vt 0.359375 1.000000
vt 0.937500 -0.406250
vt 0.281250 -0.312500
vt 0.906250 -0.687500
vt 0.593750 -0.656250
vt 0.937500 -0.312500
vt 0.312500 -0.312500
vt 0.937500 -0.625000
vt 0.625000 -0.625000
vt 0.625000 -0.312500
vt 0.000000 -0.312500
vt 0.312500 -0.625000
vt 0.000000 -0.625000
vt 0.000000 -0.375000
vt 0.343750 -0.656250
vt 0.000000 -0.687500
vt 0.625000 -0.468750
vt 0.312500 -0.718750
vt 0.000000 -0.656250
vt 0.937500 -0.375000
vt 0.937500 -0.687500
vt 0.625000 -0.656250
vt 0.781250 -0.312500
vt 0.125000 -0.312500
vt 0.281250 -0.625000
vt 0.187500 -0.312500
vt 0.093750 -0.625000
vt 0.656250 -0.312500
vt 0.062500 -0.625000
vt 0.093750 -0.312500
vt 0.250000 -0.656250
vt 0.812500 -0.312500
vt 0.656250 -0.656250
vt 0.375000 -0.656250
vt 0.875000 -0.656250
vt 0.750000 -0.312500
vt 0.843750 -0.625000
vt 0.156250 -0.312500
vt 0.312500 -0.656250
vt 0.937500 -0.093750
vt 0.000000 -0.000000
vt 0.937500 -0.000000
vt 0.000000 -0.093750
vt 0.937500 -0.218750
vt 0.968750 -0.000000
vt 0.312500 -0.000000
vt 0.218750 -0.000000
vt 0.750000 -0.000000
vt 0.625000 -0.000000
vt 0.312500 -0.468750
vt 0.625000 -0.718750
vt 0.937500 -0.656250
vt 0.000000 -0.218750
vt 0.000000 -0.968750
vt 0.937500 -0.968750
vt 0.906250 -0.968750
vt 0.437500 -0.968750
vt 0.406250 -0.968750
vt 0.531250 -0.968750
vt 0.968750 -0.968750
vt 0.468750 -0.968750
vt 0.000000 -0.406250
vt 0.906250 -0.406250
vt 0.875000 -0.312500
vt 0.281250 -0.468750
vt 0.593750 -0.718750
vt 0.656250 -0.625000
vt 0.875000 -0.625000
vt 0.062500 -0.656250
vt 0.343750 -0.718750
vt 0.875000 -0.093750
vt 0.875000 -0.000000
vt 0.718750 -0.000000
vt 0.187500 -0.000000
vt 0.375000 -0.718750
vt 0.687500 -0.468750
vt 0.062500 -0.312500
vt 0.875000 -0.968750
vt 0.500000 -0.968750
vt 0.031250 -0.968750
vt 0.125000 -0.968750
vt 0.468750 0.531250
vt 0.468750 0.031250
vt 0.468750 1.000000
vt 0.468750 0.453125
vt 0.468750 0.875000
vt 0.968750 0.187500
vt 0.000000 0.187500
f 53/38/11 54/39/11 55/40/11
f 54/39/11 56/41/11 55/40/11
f 57/42/11 53/43/11 58/44/11
f 53/43/11 55/45/11 58/44/11
f 59/46/11 57/47/11 60/48/11
f 57/47/11 58/49/11 60/48/11
f 61/46/11 59/50/11 62/51/11
f 59/50/11 60/52/11 62/51/11
f 63/53/11 61/47/11 64/54/11
f 61/47/11 62/55/11 64/54/11
f 65/56/11 63/39/11 66/57/11
f 63/39/11 64/58/11 66/57/11
f 67/59/11 65/60/11 68/45/11
f 65/60/11 66/61/11 68/45/11
f 69/46/11 67/62/11 70/48/11
f 67/62/11 68/63/11 70/48/11
f 71/64/11 69/60/11 72/48/11
f 69/60/11 70/65/11 72/48/11
f 73/59/11 71/66/11 74/41/11
f 71/66/11 72/67/11 74/41/11
f 75/68/11 73/62/11 76/69/11
f 73/62/11 74/70/11 76/69/11
f 77/68/11 75/43/11 78/71/11
f 75/43/11 76/58/11 78/71/11
f 79/72/11 77/43/11 80/73/11
f 77/43/11 78/45/11 80/73/11
f 81/59/11 79/74/11 82/45/11
f 79/74/11 80/48/11 82/45/11
f 83/64/11 81/50/11 84/75/11
f 81/50/11 82/52/11 84/75/11
f 85/76/11 51/77/11 53/38/11
f 51/77/11 54/39/11 53/38/11
f 86/78/11 85/77/11 57/42/11
f 85/77/11 53/43/11 57/42/11
f 87/78/11 86/77/11 59/46/11
f 86/77/11 57/47/11 59/46/11
f 30/78/11 87/79/11 61/46/11
f 87/79/11 59/50/11 61/46/11
f 29/80/11 30/77/11 63/53/11
f 30/77/11 61/47/11 63/53/11
f 31/76/11 29/77/11 65/56/11
f 29/77/11 63/39/11 65/56/11
f 33/78/11 31/77/11 67/59/11
f 31/77/11 65/60/11 67/59/11
f 35/81/11 33/82/11 69/46/11
f 33/82/11 67/62/11 69/46/11
f 37/81/11 35/83/11 71/64/11
f 35/83/11 69/60/11 71/64/11
f 39/81/11 37/77/11 73/59/11
f 37/77/11 71/66/11 73/59/11
f 41/81/11 39/77/11 75/68/11
f 39/77/11 73/62/11 75/68/11
f 43/84/11 41/77/11 77/68/11
f 41/77/11 75/43/11 77/68/11
f 45/85/11 43/77/11 79/72/11
f 43/77/11 77/43/11 79/72/11
f 47/78/11 45/77/11 81/59/11
f 45/77/11 79/74/11 81/59/11
f 49/78/11 47/79/11 83/64/11
f 47/79/11 81/50/11 83/64/11
f 83/86/11 84/87/11 54/42/11
f 84/87/11 56/88/11 54/42/11
f 49/89/11 83/86/11 51/78/11
f 83/86/11 54/42/11 51/78/11
f 88/90/11 62/51/11 60/52/11
f 88/90/11 60/48/11 58/49/11
f 88/91/11 58/44/11 55/45/11
f 88/92/11 55/40/11 56/41/11
f 64/54/11 62/55/11 88/90/11
f 64/58/11 88/91/11 66/57/11
f 68/45/11 66/61/11 88/93/11
f 68/63/11 88/90/11 70/48/11
f 72/48/11 70/65/11 88/90/11
f 72/67/11 88/94/11 74/41/11
f 76/69/11 74/70/11 88/95/11
f 76/58/11 88/96/11 78/71/11
f 80/73/11 78/45/11 88/96/11
f 80/48/11 88/97/11 82/45/11
f 84/75/11 82/52/11 88/90/11
f 84/87/11 88/91/11 56/88/11
f 54/46/12 53/98/12 55/52/12
f 56/75/12 54/46/12 55/52/12
f 53/46/12 57/47/12 58/49/12
f 55/48/12 53/46/12 58/49/12
f 57/42/12 59/39/12 60/45/12
f 58/44/12 57/42/12 60/45/12
f 59/99/12 61/43/12 62/58/12
f 60/57/12 59/99/12 62/58/12
f 61/100/12 63/101/12 64/87/12
f 62/71/12 61/100/12 64/87/12
f 63/42/12 65/101/12 66/102/12
f 64/88/12 63/42/12 66/102/12
f 65/59/12 67/74/12 68/48/12
f 66/45/12 65/59/12 68/48/12
f 67/72/12 69/43/12 70/45/12
f 68/73/12 67/72/12 70/45/12
f 69/68/12 71/43/12 72/103/12
f 70/104/12 69/68/12 72/103/12
f 71/68/12 73/74/12 74/51/12
f 72/69/12 71/68/12 74/51/12
f 73/59/12 75/60/12 76/67/12
f 74/41/12 73/59/12 76/67/12
f 75/46/12 77/60/12 78/105/12
f 76/48/12 75/46/12 78/105/12
f 77/46/12 79/62/12 80/63/12
f 78/48/12 77/46/12 80/63/12
f 79/59/12 81/60/12 82/61/12
f 80/45/12 79/59/12 82/61/12
f 81/53/12 83/47/12 84/55/12
f 82/106/12 81/53/12 84/55/12
f 51/78/12 85/79/12 53/98/12
f 54/46/12 51/78/12 53/98/12
f 85/78/12 86/77/12 57/47/12
f 53/46/12 85/78/12 57/47/12
f 86/78/12 87/77/12 59/39/12
f 57/42/12 86/78/12 59/39/12
f 87/107/12 30/77/12 61/43/12
f 59/99/12 87/107/12 61/43/12
f 30/108/12 29/89/12 63/101/12
f 61/100/12 30/108/12 63/101/12
f 29/78/12 31/89/12 65/101/12
f 63/42/12 29/78/12 65/101/12
f 31/78/12 33/77/12 67/74/12
f 65/59/12 31/78/12 67/74/12
f 33/85/12 35/77/12 69/43/12
f 67/72/12 33/85/12 69/43/12
f 35/109/12 37/77/12 71/43/12
f 69/68/12 35/109/12 71/43/12
f 37/81/12 39/77/12 73/74/12
f 71/68/12 37/81/12 73/74/12
f 39/81/12 41/77/12 75/60/12
f 73/59/12 39/81/12 75/60/12
f 41/81/12 43/110/12 77/60/12
f 75/46/12 41/81/12 77/60/12
f 43/81/12 45/82/12 79/62/12
f 77/46/12 43/81/12 79/62/12
f 45/78/12 47/77/12 81/60/12
f 79/59/12 45/78/12 81/60/12
f 47/80/12 49/77/12 83/47/12
f 81/53/12 47/80/12 83/47/12
f 84/111/12 83/112/12 54/113/12
f 56/105/12 84/111/12 54/113/12
f 83/112/12 49/80/12 51/77/12
f 54/113/12 83/112/12 51/77/12
f 62/58/12 88/91/12 60/57/12
f 60/45/12 88/91/12 58/44/12
f 58/49/12 88/90/12 55/48/12
f 55/52/12 88/90/12 56/75/12
f 62/71/12 64/87/12 88/91/12
f 88/114/12 64/88/12 66/102/12
f 66/45/12 68/48/12 88/97/12
f 88/96/12 68/73/12 70/45/12
f 70/104/12 72/103/12 88/96/12
f 88/115/12 72/69/12 74/51/12
f 74/41/12 76/67/12 88/94/12
f 88/90/12 76/48/12 78/105/12
f 78/48/12 80/63/12 88/90/12
f 88/93/12 80/45/12 82/61/12
f 82/106/12 84/55/12 88/116/12
f 88/117/12 84/111/12 56/105/12
