# Blender v2.82 (sub 7) OBJ File: 'RENDER.blend'
# www.blender.org
mtllib PotLight.fbx.mtl
o vsn_mesh_0_pCylinder1Mesh
v 0.000000 -0.022686 -0.379813
v -0.189907 -0.022686 -0.328928
v 0.000000 0.095080 -0.432323
v -0.216161 0.095080 -0.374403
v -0.328928 -0.022686 -0.189907
v 0.000000 0.281039 -0.458023
v -0.374403 0.095080 -0.216161
v -0.229012 0.281039 -0.396660
v -0.379813 -0.022686 -0.000000
v 0.000000 0.469397 -0.400629
v -0.432323 0.095080 0.000000
v -0.396660 0.281039 -0.229012
v -0.200315 0.469397 -0.346955
v -0.328928 -0.022686 0.189907
v 0.000000 0.571758 -0.305367
v -0.458023 0.281039 0.000000
v -0.374403 0.095080 0.216161
v -0.346955 0.469397 -0.200315
v -0.152684 0.571758 -0.264456
v -0.189907 -0.022686 0.328928
v -0.396660 0.281039 0.229012
v 0.000000 0.632591 -0.336002
v -0.400629 0.469397 0.000000
v -0.216161 0.095080 0.374403
v -0.264456 0.571758 -0.152684
v -0.168001 0.632591 -0.290987
v 0.000000 -0.022686 0.379813
v -0.229012 0.281039 0.396660
v -0.346955 0.469397 0.200315
v 0.000000 0.692406 -0.295949
v -0.305367 0.571758 0.000000
v 0.000000 0.095080 0.432323
v -0.290987 0.632591 -0.168001
v -0.147974 0.692406 -0.256299
v 0.000000 0.682592 -0.222077
v -0.200315 0.469397 0.346955
v 0.189907 -0.022686 0.328928
v -0.264456 0.571758 0.152684
v -0.111039 0.682592 -0.192325
v -0.336002 0.632591 0.000000
v 0.000000 0.281039 0.458023
v 0.216161 0.095080 0.374403
v 0.000000 0.432460 0.000000
v -0.256299 0.692406 -0.147974
v -0.152684 0.571758 0.264456
v 0.328928 -0.022686 0.189907
v 0.229012 0.281039 0.396660
v -0.192325 0.682592 -0.111039
v -0.290987 0.632591 0.168001
v 0.000000 0.469397 0.400629
v 0.374403 0.095080 0.216161
v -0.222077 0.682592 0.000000
v -0.295949 0.692406 0.000000
v 0.200315 0.469397 0.346955
v 0.000000 0.571758 0.305367
v 0.379813 -0.022686 -0.000000
v -0.168001 0.632591 0.290987
v -0.256299 0.692406 0.147974
v 0.396660 0.281039 0.229012
v 0.432323 0.095080 0.000000
v 0.328928 -0.022686 -0.189907
v 0.152684 0.571758 0.264456
v -0.192325 0.682592 0.111039
v 0.000000 0.632591 0.336002
v 0.374403 0.095080 -0.216161
v 0.458023 0.281039 0.000000
v 0.346955 0.469397 0.200315
v 0.000000 0.432460 0.000000
v -0.147974 0.692406 0.256299
v 0.189907 -0.022686 -0.328928
v 0.396660 0.281039 -0.229012
v 0.400629 0.469397 0.000000
v 0.264456 0.571758 0.152684
v -0.111039 0.682592 0.192325
v 0.168001 0.632591 0.290987
v 0.216161 0.095080 -0.374403
v 0.346955 0.469397 -0.200315
v 0.000000 0.682592 0.222077
v 0.000000 0.692406 0.295949
v 0.305367 0.571758 0.000000
v 0.000000 -0.022686 -0.379813
v 0.229012 0.281039 -0.396660
v 0.290987 0.632591 0.168001
v 0.147974 0.692406 0.256299
v 0.000000 0.095080 -0.432323
v 0.200315 0.469397 -0.346955
v 0.264456 0.571758 -0.152684
v 0.111039 0.682592 0.192325
v 0.336002 0.632591 0.000000
v 0.000000 0.281039 -0.458023
v 0.000000 0.432460 0.000000
v 0.256299 0.692406 0.147974
v 0.152684 0.571758 -0.264456
v 0.000000 0.469397 -0.400629
v 0.192325 0.682592 0.111039
v 0.290987 0.632591 -0.168001
v 0.000000 0.571758 -0.305367
v 0.222077 0.682592 0.000000
v 0.295949 0.692406 0.000000
v 0.168001 0.632591 -0.290987
v 0.256299 0.692406 -0.147974
v 0.000000 0.632591 -0.336002
v 0.147974 0.692406 -0.256299
v 0.192325 0.682592 -0.111039
v 0.111039 0.682592 -0.192325
v 0.000000 0.432460 0.000000
v 0.000000 0.692406 -0.295949
v 0.000000 0.682592 -0.222077
vt 0.500000 2.000000
vt 0.750000 2.000000
vt 0.500000 2.156250
vt 0.750000 2.156250
vt 1.000000 2.000000
vt 0.500000 2.406250
vt 1.000000 2.156250
vt 0.750000 2.406250
vt 1.250000 2.000000
vt 0.500000 2.593750
vt 1.250000 2.156250
vt 1.000000 2.406250
vt 0.750000 2.593750
vt 1.500000 2.000000
vt 0.500000 2.806860
vt 1.250000 2.406250
vt 1.500000 2.156250
vt 1.000000 2.593750
vt 0.750000 2.806860
vt 1.750000 2.000000
vt 1.500000 2.406250
vt 0.500000 2.860830
vt 1.250000 2.593750
vt 1.750000 2.156250
vt 1.000000 2.806860
vt 0.750000 2.860830
vt 2.000000 2.000000
vt 1.750000 2.406250
vt 1.500000 2.593750
vt 0.500000 2.898720
vt 1.250000 2.806860
vt 2.000000 2.156250
vt 1.000000 2.860830
vt 0.750000 2.898720
vt 0.500000 2.917270
vt 1.750000 2.593750
vt 2.250000 2.000000
vt 1.500000 2.806860
vt 0.750000 2.917270
vt 1.250000 2.860830
vt 2.000000 2.406250
vt 2.250000 2.156250
vt 0.875000 3.031250
vt 1.000000 2.898720
vt 1.750000 2.806860
vt 2.500000 2.000000
vt 2.250000 2.406250
vt 1.000000 2.917270
vt 1.500000 2.860830
vt 2.000000 2.593750
vt 2.500000 2.156250
vt 1.250000 2.917270
vt 1.250000 2.898720
vt 2.250000 2.593750
vt 2.000000 2.806860
vt 2.718750 2.000000
vt 1.750000 2.860830
vt 1.500000 2.898720
vt 2.500000 2.406250
vt 2.718750 2.156250
vt 2.968750 2.000000
vt 2.250000 2.806860
vt 1.500000 2.917270
vt 2.000000 2.860830
vt 2.968750 2.156250
vt 2.718750 2.406250
vt 2.500000 2.593750
vt 1.656250 3.031250
vt 1.750000 2.898720
vt 3.250000 2.000000
vt 2.968750 2.406250
vt 2.718750 2.593750
vt 2.500000 2.806860
vt 1.750000 2.917270
vt 2.250000 2.860830
vt 3.250000 2.156250
vt 2.968750 2.593750
vt 2.000000 2.917270
vt 2.000000 2.898720
vt 2.718750 2.806860
vt 3.500000 2.000000
vt 3.250000 2.406250
vt 2.500000 2.860830
vt 2.250000 2.898720
vt 3.500000 2.156250
vt 3.250000 2.593750
vt 2.968750 2.806860
vt 2.250000 2.917270
vt 2.718750 2.860830
vt 3.500000 2.406250
vt 2.375000 3.031250
vt 2.500000 2.898720
vt 3.250000 2.806860
vt 3.500000 2.593750
vt 2.500000 2.917270
vt 2.968750 2.860830
vt 3.500000 2.806860
vt 2.718750 2.917270
vt 2.718750 2.898720
vt 3.250000 2.860830
vt 2.968750 2.898720
vt 3.500000 2.860830
vt 3.250000 2.898720
vt 2.968750 2.917270
vt 3.250000 2.917270
vt 3.093750 3.031250
vt 3.500000 2.898720
vt 3.500000 2.917270
vn -0.2377 -0.3956 -0.8871
vn -0.4566 -0.4072 -0.7909
vn -0.2499 -0.2603 -0.9326
vn -0.4816 -0.2688 -0.8341
vn -0.7909 -0.4072 -0.4566
vn -0.2581 0.0739 -0.9633
vn -0.8341 -0.2688 -0.4816
vn -0.4985 0.0764 -0.8635
vn -0.9133 -0.4072 0.0000
vn -0.2283 0.4710 -0.8521
vn -0.9632 -0.2688 0.0000
vn -0.8635 0.0764 -0.4985
vn -0.4376 0.4837 -0.7579
vn -0.7909 -0.4072 0.4566
vn -0.2558 0.1510 -0.9548
vn -0.9971 0.0765 0.0000
vn -0.8341 -0.2688 0.4816
vn -0.7579 0.4837 -0.4376
vn -0.4939 0.1562 -0.8554
vn -0.4566 -0.4072 0.7909
vn -0.8635 0.0764 0.4985
vn -0.2584 0.0552 -0.9644
vn -0.8752 0.4837 0.0000
vn -0.4816 -0.2688 0.8341
vn -0.8554 0.1562 -0.4939
vn -0.4992 0.0572 -0.8646
vn 0.0000 -0.4072 0.9133
vn -0.4985 0.0764 0.8635
vn -0.7579 0.4837 0.4376
vn -0.1274 0.8704 -0.4755
vn -0.9877 0.1562 0.0000
vn 0.0000 -0.2688 0.9632
vn -0.8646 0.0572 -0.4992
vn -0.2397 0.8776 -0.4152
vn 0.1122 0.9011 0.4189
vn -0.4376 0.4837 0.7579
vn 0.4566 -0.4072 0.7909
vn -0.8554 0.1562 0.4939
vn 0.2108 0.9068 0.3651
vn -0.9984 0.0571 0.0000
vn 0.0000 0.0765 0.9971
vn 0.4816 -0.2688 0.8341
vn 0.5148 0.6855 0.5148
vn -0.4152 0.8776 -0.2397
vn -0.4939 0.1562 0.8554
vn 0.7909 -0.4072 0.4566
vn 0.4985 0.0764 0.8635
vn 0.3651 0.9068 0.2108
vn -0.8646 0.0572 0.4992
vn 0.0000 0.4837 0.8752
vn 0.8341 -0.2688 0.4816
vn 0.4215 0.9068 0.0000
vn -0.4794 0.8776 0.0000
vn 0.4376 0.4837 0.7579
vn 0.0000 0.1562 0.9877
vn 0.9133 -0.4072 0.0000
vn -0.4992 0.0572 0.8646
vn -0.4152 0.8776 0.2397
vn 0.8635 0.0764 0.4985
vn 0.9632 -0.2688 0.0000
vn 0.7909 -0.4072 -0.4566
vn 0.4939 0.1562 0.8554
vn 0.3651 0.9068 -0.2108
vn 0.0000 0.0571 0.9984
vn 0.8341 -0.2688 -0.4816
vn 0.9971 0.0765 0.0000
vn 0.7579 0.4837 0.4376
vn 0.5148 0.6855 -0.5148
vn -0.2397 0.8776 0.4152
vn 0.4566 -0.4072 -0.7909
vn 0.8635 0.0764 -0.4985
vn 0.8752 0.4837 0.0000
vn 0.8554 0.1562 0.4939
vn 0.2108 0.9068 -0.3651
vn 0.4992 0.0572 0.8646
vn 0.4816 -0.2688 -0.8341
vn 0.7579 0.4837 -0.4376
vn 0.0000 0.9068 -0.4215
vn 0.0000 0.8776 0.4794
vn 0.9877 0.1562 0.0000
vn 0.2377 -0.3956 -0.8871
vn 0.4985 0.0764 -0.8635
vn 0.8646 0.0572 0.4992
vn 0.2397 0.8776 0.4152
vn 0.2499 -0.2603 -0.9326
vn 0.4376 0.4837 -0.7579
vn 0.8554 0.1562 -0.4939
vn -0.2108 0.9068 -0.3651
vn 0.9984 0.0571 0.0000
vn 0.2581 0.0739 -0.9633
vn -0.5148 0.6855 -0.5148
vn 0.4152 0.8776 0.2397
vn 0.4939 0.1562 -0.8554
vn 0.2283 0.4710 -0.8521
vn -0.3651 0.9068 -0.2108
vn 0.8646 0.0572 -0.4992
vn 0.2558 0.1510 -0.9548
vn -0.4215 0.9068 0.0000
vn 0.4794 0.8776 0.0000
vn 0.4992 0.0572 -0.8646
vn 0.4152 0.8776 -0.2397
vn 0.2584 0.0552 -0.9644
vn 0.2397 0.8776 -0.4152
vn -0.3651 0.9068 0.2108
vn -0.2108 0.9068 0.3651
vn -0.5148 0.6855 0.5148
vn 0.1274 0.8704 -0.4755
vn -0.1122 0.9011 0.4189
usemtl mtPotLight_mat
s 1
f 1/1/1 2/2/2 3/3/3
f 2/2/2 4/4/4 3/3/3
f 2/2/2 5/5/5 4/4/4
f 3/3/3 4/4/4 6/6/6
f 5/5/5 7/7/7 4/4/4
f 6/6/6 4/4/4 8/8/8
f 4/4/4 7/7/7 8/8/8
f 5/5/5 9/9/9 7/7/7
f 6/6/6 8/8/8 10/10/10
f 9/9/9 11/11/11 7/7/7
f 8/8/8 7/7/7 12/12/12
f 7/7/7 11/11/11 12/12/12
f 8/8/8 12/12/12 13/13/13
f 10/10/10 8/8/8 13/13/13
f 9/9/9 14/14/14 11/11/11
f 10/10/10 13/13/13 15/15/15
f 12/12/12 11/11/11 16/16/16
f 11/11/11 17/17/17 16/16/16
f 14/14/14 17/17/17 11/11/11
f 12/12/12 16/16/16 18/18/18
f 13/13/13 12/12/12 18/18/18
f 15/15/15 13/13/13 19/19/19
f 13/13/13 18/18/18 19/19/19
f 14/14/14 20/20/20 17/17/17
f 16/16/16 17/17/17 21/21/21
f 15/15/15 19/19/19 22/22/22
f 18/18/18 16/16/16 23/23/23
f 16/16/16 21/21/21 23/23/23
f 17/17/17 24/24/24 21/21/21
f 20/20/20 24/24/24 17/17/17
f 18/18/18 23/23/23 25/25/25
f 19/19/19 18/18/18 25/25/25
f 22/22/22 19/19/19 26/26/26
f 19/19/19 25/25/25 26/26/26
f 20/20/20 27/27/27 24/24/24
f 21/21/21 24/24/24 28/28/28
f 21/21/21 28/28/28 29/29/29
f 23/23/23 21/21/21 29/29/29
f 22/22/22 26/26/26 30/30/30
f 23/23/23 29/29/29 31/31/31
f 25/25/25 23/23/23 31/31/31
f 24/24/24 32/32/32 28/28/28
f 27/27/27 32/32/32 24/24/24
f 26/26/26 25/25/25 33/33/33
f 25/25/25 31/31/31 33/33/33
f 26/26/26 34/34/34 30/30/30
f 26/26/26 33/33/33 34/34/34
f 30/30/30 34/34/34 35/35/35
f 29/29/29 28/28/28 36/36/36
f 27/27/27 37/37/37 32/32/32
f 31/31/31 29/29/29 38/38/38
f 29/29/29 36/36/36 38/38/38
f 35/35/35 34/34/34 39/39/39
f 31/31/31 38/38/38 40/40/40
f 33/33/33 31/31/31 40/40/40
f 28/28/28 32/32/32 41/41/41
f 28/28/28 41/41/41 36/36/36
f 32/32/32 42/42/42 41/41/41
f 37/37/37 42/42/42 32/32/32
f 35/35/35 39/39/39 43/43/43
f 34/34/34 44/44/44 39/39/39
f 33/33/33 44/44/44 34/34/34
f 33/33/33 40/40/40 44/44/44
f 38/38/38 36/36/36 45/45/45
f 37/37/37 46/46/46 42/42/42
f 41/41/41 42/42/42 47/47/47
f 43/43/43 39/39/39 48/48/48
f 39/39/39 44/44/44 48/48/48
f 38/38/38 45/45/45 49/49/49
f 40/40/40 38/38/38 49/49/49
f 41/41/41 47/47/47 50/50/50
f 36/36/36 50/50/50 45/45/45
f 36/36/36 41/41/41 50/50/50
f 42/42/42 51/51/51 47/47/47
f 46/46/46 51/51/51 42/42/42
f 43/43/43 48/48/48 52/52/52
f 44/44/44 53/53/53 48/48/48
f 40/40/40 53/53/53 44/44/44
f 40/40/40 49/49/49 53/53/53
f 48/48/48 53/53/53 52/52/52
f 50/50/50 47/47/47 54/54/54
f 50/50/50 54/54/54 55/55/55
f 45/45/45 50/50/50 55/55/55
f 46/46/46 56/56/56 51/51/51
f 49/49/49 45/45/45 57/57/57
f 45/45/45 55/55/55 57/57/57
f 49/49/49 58/58/58 53/53/53
f 49/49/49 57/57/57 58/58/58
f 53/53/53 58/58/58 52/52/52
f 47/47/47 51/51/51 59/59/59
f 47/47/47 59/59/59 54/54/54
f 51/51/51 60/60/60 59/59/59
f 51/51/51 56/56/56 60/60/60
f 56/56/56 61/61/61 60/60/60
f 55/55/55 54/54/54 62/62/62
f 52/52/52 58/58/58 63/63/63
f 57/57/57 55/55/55 64/64/64
f 55/55/55 62/62/62 64/64/64
f 61/61/61 65/65/65 60/60/60
f 60/60/60 65/65/65 66/66/66
f 59/59/59 60/60/60 66/66/66
f 54/54/54 59/59/59 67/67/67
f 59/59/59 66/66/66 67/67/67
f 54/54/54 67/67/67 62/62/62
f 52/52/52 63/63/63 68/68/68
f 57/57/57 69/69/69 58/58/58
f 57/57/57 64/64/64 69/69/69
f 58/58/58 69/69/69 63/63/63
f 61/61/61 70/70/70 65/65/65
f 66/66/66 65/65/65 71/71/71
f 66/66/66 72/72/72 67/67/67
f 66/66/66 71/71/71 72/72/72
f 62/62/62 67/67/67 73/73/73
f 67/67/67 72/72/72 73/73/73
f 63/63/63 69/69/69 74/74/74
f 68/68/68 63/63/63 74/74/74
f 62/62/62 73/73/73 75/75/75
f 64/64/64 62/62/62 75/75/75
f 65/65/65 76/76/76 71/71/71
f 70/70/70 76/76/76 65/65/65
f 72/72/72 71/71/71 77/77/77
f 68/68/68 74/74/74 78/78/78
f 69/69/69 79/79/79 74/74/74
f 64/64/64 79/79/79 69/69/69
f 64/64/64 75/75/75 79/79/79
f 74/74/74 79/79/79 78/78/78
f 72/72/72 77/77/77 80/80/80
f 73/73/73 72/72/72 80/80/80
f 70/70/70 81/81/81 76/76/76
f 71/71/71 82/82/82 77/77/77
f 71/71/71 76/76/76 82/82/82
f 73/73/73 80/80/80 83/83/83
f 75/75/75 73/73/73 83/83/83
f 79/79/79 84/84/84 78/78/78
f 75/75/75 84/84/84 79/79/79
f 75/75/75 83/83/83 84/84/84
f 76/76/76 85/85/85 82/82/82
f 81/81/81 85/85/85 76/76/76
f 77/77/77 82/82/82 86/86/86
f 77/77/77 86/86/86 87/87/87
f 80/80/80 77/77/77 87/87/87
f 78/78/78 84/84/84 88/88/88
f 80/80/80 87/87/87 89/89/89
f 83/83/83 80/80/80 89/89/89
f 82/82/82 90/90/90 86/86/86
f 85/85/85 90/90/90 82/82/82
f 78/78/78 88/88/88 91/91/91
f 84/84/84 92/92/92 88/88/88
f 83/83/83 92/92/92 84/84/84
f 83/83/83 89/89/89 92/92/92
f 87/87/87 86/86/86 93/93/93
f 86/86/86 94/94/94 93/93/93
f 90/90/90 94/94/94 86/86/86
f 88/88/88 92/92/92 95/95/95
f 91/91/91 88/88/88 95/95/95
f 87/87/87 93/93/93 96/96/96
f 89/89/89 87/87/87 96/96/96
f 94/94/94 97/97/97 93/93/93
f 91/91/91 95/95/95 98/98/98
f 89/89/89 96/96/96 99/99/99
f 89/89/89 99/99/99 92/92/92
f 95/95/95 99/99/99 98/98/98
f 92/92/92 99/99/99 95/95/95
f 93/93/93 100/100/100 96/96/96
f 97/97/97 100/100/100 93/93/93
f 99/99/99 96/96/96 101/101/101
f 96/96/96 100/100/100 101/101/101
f 99/99/99 101/101/101 98/98/98
f 97/97/97 102/102/102 100/100/100
f 100/100/100 102/102/102 103/103/103
f 100/100/100 103/103/103 101/101/101
f 101/101/101 104/104/104 98/98/98
f 101/101/101 103/103/103 104/104/104
f 104/104/104 103/103/103 105/105/105
f 104/104/104 105/105/105 106/106/106
f 98/98/98 104/104/104 106/106/106
f 103/103/103 107/107/107 105/105/105
f 102/102/102 107/107/107 103/103/103
f 108/108/108 105/105/105 107/107/107
f 106/106/106 105/105/105 108/108/108
