# Wavefront OBJ file
# Exported by Misfit Model 3D 1.2.4
# Tue Oct 04 23:23:04 2016

mtllib Coin.mtl

# 428 Vertices
v -0.0 0.002208 0.038485
v -0.085392 0.025089 -0.038485
v -0.085392 0.025089 0.038485
v -0.0 0.002208 -0.038485
v -0.147904 0.087601 -0.038485
v -0.147904 0.087601 0.038485
v -0.170785 0.172993 -0.038485
v -0.170785 0.172993 0.038485
v -0.147904 0.258385 -0.038485
v -0.147904 0.258385 0.038485
v -0.085392 0.320897 -0.038485
v -0.085392 0.320897 0.038485
v -0.0 0.343778 -0.038485
v -0.0 0.343778 0.038485
v -0.085392 0.025089 0.038485
v -0.0 0.043916 0.038485
v -0.0 0.002208 0.038485
v -0.064538 0.061209 0.038485
v -0.147904 0.087601 0.038485
v -0.111784 0.108455 0.038485
v -0.170785 0.172993 0.038485
v -0.129077 0.172993 0.038485
v -0.147904 0.258385 0.038485
v -0.111784 0.237531 0.038485
v -0.085392 0.320897 0.038485
v -0.064538 0.284777 0.038485
v -0.0 0.343778 0.038485
v -0.0 0.30207 0.038485
v -0.0 0.002208 -0.038485
v -0.064538 0.061209 -0.038485
v -0.085392 0.025089 -0.038485
v -0.0 0.043916 -0.038485
v -0.111784 0.108455 -0.038485
v -0.147904 0.087601 -0.038485
v -0.129077 0.172993 -0.038485
v -0.170785 0.172993 -0.038485
v -0.111784 0.237531 -0.038485
v -0.147904 0.258385 -0.038485
v -0.064538 0.284777 -0.038485
v -0.085392 0.320897 -0.038485
v -0.0 0.30207 -0.038485
v -0.0 0.343778 -0.038485
v -0.064538 0.061209 0.038485
v -0.0 0.043916 0.014081
v -0.0 0.043916 0.038485
v -0.064538 0.061209 0.038485
v -0.064538 0.061209 0.014081
v -0.111784 0.108455 0.038485
v -0.111784 0.108455 0.014081
v -0.129077 0.172993 0.038485
v -0.129077 0.172993 0.014081
v -0.111784 0.237531 0.038485
v -0.111784 0.237531 0.014081
v -0.064538 0.284777 0.038485
v -0.064538 0.284777 0.014081
v -0.0 0.30207 0.038485
v -0.0 0.30207 0.014081
v -0.064538 0.284777 0.014081
v -0.0 0.043916 -0.038485
v -0.064538 0.061209 -0.014346
v -0.064538 0.061209 -0.038485
v -0.111784 0.108455 -0.014346
v -0.111784 0.108455 -0.038485
v -0.129077 0.172993 -0.014346
v -0.129077 0.172993 -0.038485
v -0.111784 0.237531 -0.014346
v -0.111784 0.237531 -0.038485
v -0.064538 0.284777 -0.014346
v -0.064538 0.284777 -0.038485
v -0.0 0.30207 -0.014346
v -0.0 0.043916 -0.014346
v -0.064538 0.061209 -0.014346
v -0.064538 0.284777 -0.038485
v -0.0 0.30207 -0.038485
v -0.064538 0.061209 0.014081
v -0.0 0.172993 0.014081
v -0.0 0.043916 0.014081
v -0.111784 0.108455 0.014081
v -0.129077 0.172993 0.014081
v -0.111784 0.237531 0.014081
v -0.064538 0.284777 0.014081
v -0.0 0.30207 0.014081
v -0.0 0.043916 -0.014346
v -0.0 0.172993 -0.014346
v -0.064538 0.061209 -0.014346
v -0.111784 0.108455 -0.014346
v -0.129077 0.172993 -0.014346
v -0.111784 0.237531 -0.014346
v -0.064538 0.284777 -0.014346
v -0.0 0.30207 -0.014346
v -0.079798 0.109888 0.038485
v -0.090034 0.159005 0.009949
v -0.090034 0.159005 0.038485
v -0.079798 0.109888 0.009949
v -0.088288 0.200498 0.009949
v -0.088288 0.200498 0.038485
v -0.080038 0.233324 0.009949
v -0.080038 0.233324 0.038485
v -0.070396 0.247404 0.009949
v -0.070396 0.247404 0.038485
v -0.056343 0.249843 0.038485
v -0.056343 0.249843 0.009949
v -0.045124 0.238988 0.009949
v -0.045124 0.238988 0.038485
v -0.042038 0.226028 0.009949
v -0.042038 0.226028 0.038485
v -0.0 0.229229 0.038485
v -0.042038 0.226028 0.009949
v -0.0 0.229229 0.009949
v -0.042038 0.226028 0.038485
v -0.0 0.096151 0.038485
v -0.039899 0.099009 0.009949
v -0.039899 0.099009 0.038485
v -0.0 0.096151 0.009949
v -0.079798 0.109888 0.009949
v -0.079798 0.109888 0.038485
v -0.0 0.229229 0.038485
v -0.039899 0.099009 0.038485
v -0.042038 0.226028 0.038485
v -0.0 0.096151 0.038485
v -0.090034 0.159005 0.038485
v -0.079798 0.109888 0.038485
v -0.088288 0.200498 0.038485
v -0.080038 0.233324 0.038485
v -0.045124 0.238988 0.038485
v -0.070396 0.247404 0.038485
v -0.056343 0.249843 0.038485
v -0.05689 0.142677 -0.00904
v -0.072656 0.17194 -0.038485
v -0.072656 0.17194 -0.00904
v -0.05689 0.142677 -0.038485
v -0.024807 0.122203 -0.00904
v -0.024807 0.122203 -0.038485
v -0.0 0.250816 -0.00904
v -0.027318 0.246594 -0.038485
v -0.0 0.250816 -0.038485
v -0.027318 0.246594 -0.00904
v -0.054467 0.231296 -0.038485
v -0.054467 0.231296 -0.00904
v -0.067363 0.210539 -0.00904
v -0.067363 0.210539 -0.038485
v -0.0 0.08101 -0.00904
v -0.019418 0.085054 -0.038485
v -0.019418 0.085054 -0.00904
v -0.0 0.08101 -0.038485
v -0.024807 0.122203 -0.038485
v -0.0 0.250816 -0.038485
v -0.027318 0.246594 -0.038485
v -0.0 0.08101 -0.038485
v -0.072656 0.17194 -0.038485
v -0.067363 0.210539 -0.038485
v -0.05689 0.142677 -0.038485
v -0.019418 0.085054 -0.038485
v -0.054467 0.231296 -0.038485
v -0.092186 0.209247 -0.038485
v -0.105466 0.185319 -0.038485
v -0.108338 0.225131 -0.038485
v -0.024807 0.122203 -0.038485
v -0.019418 0.085054 -0.00904
v -0.019418 0.085054 -0.038485
v -0.024807 0.122203 -0.00904
v -0.072656 0.17194 -0.00904
v -0.105466 0.185319 -0.038485
v -0.105466 0.185319 -0.00904
v -0.072656 0.17194 -0.038485
v -0.067363 0.210539 -0.038485
v -0.092186 0.209247 -0.00904
v -0.092186 0.209247 -0.038485
v -0.067363 0.210539 -0.00904
v -0.105466 0.185319 -0.00904
v -0.108338 0.225131 -0.038485
v -0.108338 0.225131 -0.00904
v -0.105466 0.185319 -0.038485
v -0.092186 0.209247 -0.038485
v -0.108338 0.225131 -0.00904
v -0.108338 0.225131 -0.038485
v -0.092186 0.209247 -0.00904
v -0.0 0.002208 0.038485
v 0.085392 0.025089 -0.038485
v -0.0 0.002208 -0.038485
v 0.085392 0.025089 0.038485
v 0.147904 0.087601 -0.038485
v 0.147904 0.087601 0.038485
v 0.170785 0.172993 -0.038485
v 0.170785 0.172993 0.038485
v 0.147904 0.258385 -0.038485
v 0.147904 0.258385 0.038485
v 0.085392 0.320897 -0.038485
v 0.085392 0.320897 0.038485
v -0.0 0.343778 -0.038485
v -0.0 0.343778 0.038485
v 0.085392 0.025089 0.038485
v -0.0 0.043916 0.038485
v 0.064538 0.061209 0.038485
v -0.0 0.002208 0.038485
v 0.147904 0.087601 0.038485
v 0.111784 0.108455 0.038485
v 0.170785 0.172993 0.038485
v 0.129077 0.172993 0.038485
v 0.147904 0.258385 0.038485
v 0.111784 0.237531 0.038485
v 0.085392 0.320897 0.038485
v 0.064538 0.284777 0.038485
v -0.0 0.343778 0.038485
v -0.0 0.30207 0.038485
v -0.0 0.002208 -0.038485
v 0.064538 0.061209 -0.038485
v -0.0 0.043916 -0.038485
v 0.085392 0.025089 -0.038485
v 0.111784 0.108455 -0.038485
v 0.147904 0.087601 -0.038485
v 0.129077 0.172993 -0.038485
v 0.170785 0.172993 -0.038485
v 0.111784 0.237531 -0.038485
v 0.147904 0.258385 -0.038485
v 0.064538 0.284777 -0.038485
v 0.085392 0.320897 -0.038485
v -0.0 0.30207 -0.038485
v -0.0 0.343778 -0.038485
v 0.064538 0.061209 0.038485
v -0.0 0.043916 0.014081
v 0.064538 0.061209 0.014081
v 0.111784 0.108455 0.038485
v 0.111784 0.108455 0.014081
v 0.129077 0.172993 0.038485
v 0.129077 0.172993 0.014081
v 0.111784 0.237531 0.038485
v 0.111784 0.237531 0.014081
v 0.064538 0.284777 0.038485
v 0.064538 0.284777 0.014081
v -0.0 0.30207 0.038485
v 0.064538 0.061209 0.038485
v -0.0 0.043916 0.038485
v 0.064538 0.284777 0.014081
v -0.0 0.30207 0.014081
v -0.0 0.043916 -0.038485
v 0.064538 0.061209 -0.014346
v -0.0 0.043916 -0.014346
v 0.064538 0.061209 -0.038485
v 0.064538 0.061209 -0.014346
v 0.111784 0.108455 -0.014346
v 0.111784 0.108455 -0.038485
v 0.129077 0.172993 -0.014346
v 0.129077 0.172993 -0.038485
v 0.111784 0.237531 -0.014346
v 0.111784 0.237531 -0.038485
v 0.064538 0.284777 -0.014346
v 0.064538 0.284777 -0.038485
v -0.0 0.30207 -0.014346
v 0.064538 0.284777 -0.038485
v -0.0 0.30207 -0.038485
v 0.064538 0.061209 0.014081
v -0.0 0.043916 0.014081
v -0.0 0.172993 0.014081
v 0.111784 0.108455 0.014081
v 0.129077 0.172993 0.014081
v 0.111784 0.237531 0.014081
v 0.064538 0.284777 0.014081
v -0.0 0.30207 0.014081
v -0.0 0.043916 -0.014346
v 0.064538 0.061209 -0.014346
v -0.0 0.172993 -0.014346
v 0.111784 0.108455 -0.014346
v 0.129077 0.172993 -0.014346
v 0.111784 0.237531 -0.014346
v 0.064538 0.284777 -0.014346
v -0.0 0.30207 -0.014346
v 0.079798 0.109888 0.038485
v 0.090034 0.159005 0.009949
v 0.079798 0.109888 0.009949
v 0.090034 0.159005 0.038485
v 0.088288 0.200498 0.009949
v 0.088288 0.200498 0.038485
v 0.080038 0.233324 0.009949
v 0.080038 0.233324 0.038485
v 0.070396 0.247404 0.009949
v 0.070396 0.247404 0.038485
v 0.056343 0.249843 0.038485
v 0.056343 0.249843 0.009949
v 0.045124 0.238988 0.009949
v 0.045124 0.238988 0.038485
v 0.042038 0.226028 0.009949
v 0.042038 0.226028 0.038485
v -0.0 0.229229 0.038485
v 0.042038 0.226028 0.009949
v 0.042038 0.226028 0.038485
v -0.0 0.229229 0.009949
v -0.0 0.096151 0.038485
v 0.039899 0.099009 0.009949
v -0.0 0.096151 0.009949
v 0.039899 0.099009 0.038485
v 0.079798 0.109888 0.009949
v 0.079798 0.109888 0.038485
v -0.0 0.229229 0.038485
v 0.039899 0.099009 0.038485
v -0.0 0.096151 0.038485
v 0.042038 0.226028 0.038485
v 0.090034 0.159005 0.038485
v 0.079798 0.109888 0.038485
v 0.088288 0.200498 0.038485
v 0.080038 0.233324 0.038485
v 0.045124 0.238988 0.038485
v 0.070396 0.247404 0.038485
v 0.056343 0.249843 0.038485
v 0.05689 0.142677 -0.00904
v 0.072656 0.17194 -0.038485
v 0.05689 0.142677 -0.038485
v 0.072656 0.17194 -0.00904
v 0.024807 0.122203 -0.00904
v 0.024807 0.122203 -0.038485
v -0.0 0.250816 -0.00904
v 0.027318 0.246594 -0.038485
v 0.027318 0.246594 -0.00904
v -0.0 0.250816 -0.038485
v 0.054467 0.231296 -0.038485
v 0.054467 0.231296 -0.00904
v 0.067363 0.210539 -0.00904
v 0.067363 0.210539 -0.038485
v -0.0 0.08101 -0.00904
v 0.019418 0.085054 -0.038485
v -0.0 0.08101 -0.038485
v 0.019418 0.085054 -0.00904
v 0.024807 0.122203 -0.038485
v -0.0 0.250816 -0.038485
v -0.0 0.08101 -0.038485
v 0.027318 0.246594 -0.038485
v 0.072656 0.17194 -0.038485
v 0.067363 0.210539 -0.038485
v 0.05689 0.142677 -0.038485
v 0.019418 0.085054 -0.038485
v 0.054467 0.231296 -0.038485
v 0.092186 0.209247 -0.038485
v 0.105466 0.185319 -0.038485
v 0.108338 0.225131 -0.038485
v 0.024807 0.122203 -0.038485
v 0.019418 0.085054 -0.00904
v 0.024807 0.122203 -0.00904
v 0.019418 0.085054 -0.038485
v 0.072656 0.17194 -0.00904
v 0.105466 0.185319 -0.038485
v 0.072656 0.17194 -0.038485
v 0.105466 0.185319 -0.00904
v 0.067363 0.210539 -0.038485
v 0.092186 0.209247 -0.00904
v 0.067363 0.210539 -0.00904
v 0.092186 0.209247 -0.038485
v 0.105466 0.185319 -0.00904
v 0.108338 0.225131 -0.038485
v 0.105466 0.185319 -0.038485
v 0.108338 0.225131 -0.00904
v 0.092186 0.209247 -0.038485
v 0.108338 0.225131 -0.00904
v 0.092186 0.209247 -0.00904
v 0.108338 0.225131 -0.038485
v 0.079798 0.109888 0.009949
v 0.090034 0.159005 0.009949
v 0.088288 0.200498 0.009949
v 0.080038 0.233324 0.009949
v 0.070396 0.247404 0.009949
v 0.039899 0.099009 0.009949
v 0.079798 0.109888 0.009949
v 0.070396 0.247404 0.009949
v 0.056343 0.249843 0.009949
v 0.045124 0.238988 0.009949
v 0.042038 0.226028 0.009949
v 0.039899 0.099009 0.009949
v -0.0 0.229229 0.009949
v -0.0 0.096151 0.009949
v -0.0 0.229229 0.009949
v -0.039899 0.099009 0.009949
v -0.0 0.096151 0.009949
v -0.042038 0.226028 0.009949
v -0.042038 0.226028 0.009949
v -0.079798 0.109888 0.009949
v -0.045124 0.238988 0.009949
v -0.056343 0.249843 0.009949
v -0.070396 0.247404 0.009949
v -0.042038 0.226028 0.009949
v -0.079798 0.109888 0.009949
v -0.070396 0.247404 0.009949
v -0.080038 0.233324 0.009949
v -0.090034 0.159005 0.009949
v -0.080038 0.233324 0.009949
v -0.088288 0.200498 0.009949
v 0.092186 0.209247 -0.00904
v 0.108338 0.225131 -0.00904
v 0.105466 0.185319 -0.00904
v 0.105466 0.185319 -0.00904
v 0.072656 0.17194 -0.00904
v 0.092186 0.209247 -0.00904
v 0.067363 0.210539 -0.00904
v 0.05689 0.142677 -0.00904
v 0.054467 0.231296 -0.00904
v 0.05689 0.142677 -0.00904
v 0.024807 0.122203 -0.00904
v 0.024807 0.122203 -0.00904
v 0.027318 0.246594 -0.00904
v -0.0 0.250816 -0.00904
v 0.072656 0.17194 -0.00904
v 0.05689 0.142677 -0.00904
v 0.067363 0.210539 -0.00904
v 0.024807 0.122203 -0.00904
v 0.019418 0.085054 -0.00904
v -0.0 0.250816 -0.00904
v -0.0 0.08101 -0.00904
v -0.0 0.08101 -0.00904
v -0.027318 0.246594 -0.00904
v -0.0 0.250816 -0.00904
v -0.024807 0.122203 -0.00904
v -0.05689 0.142677 -0.00904
v -0.054467 0.231296 -0.00904
v -0.05689 0.142677 -0.00904
v -0.067363 0.210539 -0.00904
v -0.072656 0.17194 -0.00904
v -0.092186 0.209247 -0.00904
v -0.105466 0.185319 -0.00904
v -0.0 0.08101 -0.00904
v -0.019418 0.085054 -0.00904
v -0.027318 0.246594 -0.00904
v -0.019418 0.085054 -0.00904
v -0.024807 0.122203 -0.00904
v -0.027318 0.246594 -0.00904
v -0.05689 0.142677 -0.00904
v -0.072656 0.17194 -0.00904
v -0.067363 0.210539 -0.00904
v -0.105466 0.185319 -0.00904
v -0.108338 0.225131 -0.00904
v -0.092186 0.209247 -0.00904

# 912 Texture Coordinates
vt 0.017948 0.14095
vt 0.176039 0.140951
vt 0.176034 0.014178
vt 0.017948 0.14095
vt 0.176034 0.014178
vt 0.01795 0.014179
vt 0.176039 0.140951
vt 0.334136 0.01418
vt 0.176034 0.014178
vt 0.176039 0.140951
vt 0.334137 0.140951
vt 0.334136 0.01418
vt 0.334137 0.140951
vt 0.492233 0.014185
vt 0.334136 0.01418
vt 0.334137 0.140951
vt 0.492233 0.140944
vt 0.492233 0.014185
vt 0.492233 0.140944
vt 0.650339 0.014184
vt 0.492233 0.014185
vt 0.492233 0.140944
vt 0.65033 0.140947
vt 0.650339 0.014184
vt 0.65033 0.140947
vt 0.808428 0.014184
vt 0.650339 0.014184
vt 0.65033 0.140947
vt 0.808425 0.140943
vt 0.808428 0.014184
vt 0.808425 0.140943
vt 0.966523 0.014178
vt 0.808428 0.014184
vt 0.808425 0.140943
vt 0.966522 0.14095
vt 0.966523 0.014178
vt 0.061072 0.835774
vt 0.019405 0.991415
vt 0.091749 0.991415
vt 0.061072 0.835774
vt 0.091749 0.991415
vt 0.123778 0.87185
vt 0.174901 0.72195
vt 0.061072 0.835774
vt 0.123778 0.87185
vt 0.174901 0.72195
vt 0.123778 0.87185
vt 0.211167 0.784546
vt 0.330391 0.680291
vt 0.174901 0.72195
vt 0.211167 0.784546
vt 0.330391 0.680291
vt 0.211167 0.784546
vt 0.330501 0.752633
vt 0.485879 0.721957
vt 0.330391 0.680291
vt 0.330501 0.752633
vt 0.485879 0.721957
vt 0.330501 0.752633
vt 0.449803 0.784663
vt 0.599703 0.835786
vt 0.485879 0.721957
vt 0.449803 0.784663
vt 0.599703 0.835786
vt 0.449803 0.784663
vt 0.537107 0.872052
vt 0.641363 0.991415
vt 0.599703 0.835786
vt 0.537107 0.872052
vt 0.641363 0.991415
vt 0.537107 0.872052
vt 0.56902 0.991415
vt 0.01903 0.991415
vt 0.06069 0.834731
vt 0.123288 0.870999
vt 0.01903 0.991415
vt 0.123288 0.870999
vt 0.091375 0.991415
vt 0.06069 0.834731
vt 0.210591 0.783609
vt 0.123288 0.870999
vt 0.06069 0.834731
vt 0.174514 0.720902
vt 0.210591 0.783609
vt 0.174514 0.720902
vt 0.329893 0.75158
vt 0.210591 0.783609
vt 0.174514 0.720902
vt 0.330003 0.679235
vt 0.329893 0.75158
vt 0.330003 0.679235
vt 0.449226 0.783493
vt 0.329893 0.75158
vt 0.330003 0.679235
vt 0.485494 0.720895
vt 0.449226 0.783493
vt 0.485494 0.720895
vt 0.536616 0.870797
vt 0.449226 0.783493
vt 0.485494 0.720895
vt 0.599323 0.834719
vt 0.536616 0.870797
vt 0.599323 0.834719
vt 0.568645 0.991415
vt 0.536616 0.870797
vt 0.599323 0.834719
vt 0.64099 0.991415
vt 0.568645 0.991415
vt 0.123778 0.87185
vt 0.091749 0.991415
vt 0.127485 0.991415
vt 0.123778 0.87185
vt 0.127485 0.991415
vt 0.154595 0.889946
vt 0.211167 0.784546
vt 0.123778 0.87185
vt 0.154595 0.889946
vt 0.211167 0.784546
vt 0.154595 0.889946
vt 0.228808 0.815626
vt 0.330501 0.752633
vt 0.211167 0.784546
vt 0.228808 0.815626
vt 0.330501 0.752633
vt 0.228808 0.815626
vt 0.330238 0.78837
vt 0.449803 0.784663
vt 0.330501 0.752633
vt 0.330238 0.78837
vt 0.449803 0.784663
vt 0.330238 0.78837
vt 0.431707 0.81548
vt 0.537107 0.872052
vt 0.449803 0.784663
vt 0.431707 0.81548
vt 0.537107 0.872052
vt 0.431707 0.81548
vt 0.506027 0.889693
vt 0.56902 0.991415
vt 0.537107 0.872052
vt 0.506027 0.889693
vt 0.56902 0.991415
vt 0.506027 0.889693
vt 0.533283 0.991415
vt 0.091375 0.991415
vt 0.123288 0.870999
vt 0.154368 0.888639
vt 0.123288 0.870999
vt 0.228687 0.814426
vt 0.154368 0.888639
vt 0.123288 0.870999
vt 0.210591 0.783609
vt 0.228687 0.814426
vt 0.210591 0.783609
vt 0.330156 0.787316
vt 0.228687 0.814426
vt 0.210591 0.783609
vt 0.329893 0.75158
vt 0.330156 0.787316
vt 0.329893 0.75158
vt 0.431586 0.814573
vt 0.330156 0.787316
vt 0.329893 0.75158
vt 0.449226 0.783493
vt 0.431586 0.814573
vt 0.449226 0.783493
vt 0.505799 0.888892
vt 0.431586 0.814573
vt 0.449226 0.783493
vt 0.536616 0.870797
vt 0.505799 0.888892
vt 0.536616 0.870797
vt 0.532909 0.991415
vt 0.505799 0.888892
vt 0.091375 0.991415
vt 0.154368 0.888639
vt 0.127111 0.991415
vt 0.536616 0.870797
vt 0.568645 0.991415
vt 0.532909 0.991415
vt 0.154595 0.889946
vt 0.127485 0.991415
vt 0.330384 0.991415
vt 0.228808 0.815626
vt 0.154595 0.889946
vt 0.330384 0.991415
vt 0.330238 0.78837
vt 0.228808 0.815626
vt 0.330384 0.991415
vt 0.431707 0.81548
vt 0.330238 0.78837
vt 0.330384 0.991415
vt 0.506027 0.889693
vt 0.431707 0.81548
vt 0.330384 0.991415
vt 0.533283 0.991415
vt 0.506027 0.889693
vt 0.330384 0.991415
vt 0.127111 0.991415
vt 0.154368 0.888639
vt 0.33001 0.991415
vt 0.154368 0.888639
vt 0.228687 0.814426
vt 0.33001 0.991415
vt 0.228687 0.814426
vt 0.330156 0.787316
vt 0.33001 0.991415
vt 0.330156 0.787316
vt 0.431586 0.814573
vt 0.33001 0.991415
vt 0.431586 0.814573
vt 0.505799 0.888892
vt 0.33001 0.991415
vt 0.505799 0.888892
vt 0.532909 0.991415
vt 0.33001 0.991415
vt 0.809239 0.221966
vt 0.711097 0.22199
vt 0.71108 0.16005
vt 0.809239 0.221966
vt 0.71108 0.16005
vt 0.809224 0.160026
vt 0.711097 0.22199
vt 0.629843 0.160072
vt 0.71108 0.16005
vt 0.711097 0.22199
vt 0.629861 0.222012
vt 0.629843 0.160072
vt 0.629861 0.222012
vt 0.563635 0.160093
vt 0.629843 0.160072
vt 0.629861 0.222012
vt 0.563655 0.222033
vt 0.563635 0.160093
vt 0.563655 0.222033
vt 0.530253 0.160103
vt 0.563635 0.160093
vt 0.563655 0.222033
vt 0.530273 0.222043
vt 0.530253 0.160103
vt 0.502372 0.222053
vt 0.530253 0.160103
vt 0.530273 0.222043
vt 0.502372 0.222053
vt 0.502352 0.160113
vt 0.530253 0.160103
vt 0.471816 0.160123
vt 0.502352 0.160113
vt 0.502372 0.222053
vt 0.471816 0.160123
vt 0.502372 0.222053
vt 0.471837 0.222063
vt 0.445754 0.160132
vt 0.471816 0.160123
vt 0.471837 0.222063
vt 0.445754 0.160132
vt 0.471837 0.222063
vt 0.445776 0.222072
vt 0.363307 0.2221
vt 0.363285 0.16016
vt 0.445754 0.160132
vt 0.363307 0.2221
vt 0.445754 0.160132
vt 0.445776 0.222072
vt 0.968381 0.221934
vt 0.890134 0.221949
vt 0.890121 0.160009
vt 0.968381 0.221934
vt 0.890121 0.160009
vt 0.968368 0.159994
vt 0.890134 0.221949
vt 0.809224 0.160026
vt 0.890121 0.160009
vt 0.890134 0.221949
vt 0.809239 0.221966
vt 0.809224 0.160026
vt 0.991759 0.508304
vt 0.839215 0.519921
vt 0.846976 0.980838
vt 0.991759 0.508304
vt 0.846976 0.980838
vt 0.991759 0.99121
vt 0.839215 0.519921
vt 0.665048 0.763128
vt 0.846976 0.980838
vt 0.846976 0.980838
vt 0.665048 0.763128
vt 0.702193 0.941361
vt 0.839215 0.519921
vt 0.671385 0.612561
vt 0.665048 0.763128
vt 0.839215 0.519921
vt 0.701321 0.493446
vt 0.671385 0.612561
vt 0.839215 0.519921
vt 0.828015 0.47289
vt 0.701321 0.493446
vt 0.828015 0.47289
vt 0.73631 0.442351
vt 0.701321 0.493446
vt 0.828015 0.47289
vt 0.787306 0.433501
vt 0.73631 0.442351
vt 0.79653 0.159653
vt 0.73638 0.159653
vt 0.736379 0.220971
vt 0.79653 0.159653
vt 0.736379 0.220971
vt 0.79653 0.220972
vt 0.865402 0.159653
vt 0.79653 0.159653
vt 0.79653 0.220972
vt 0.865402 0.159653
vt 0.79653 0.220972
vt 0.865402 0.220972
vt 0.363422 0.159652
vt 0.363422 0.22097
vt 0.413444 0.22097
vt 0.363422 0.159652
vt 0.413444 0.22097
vt 0.413444 0.159651
vt 0.413444 0.159651
vt 0.413444 0.22097
vt 0.469835 0.22097
vt 0.413444 0.159651
vt 0.469835 0.22097
vt 0.469835 0.159652
vt 0.514056 0.159652
vt 0.469835 0.159652
vt 0.469835 0.22097
vt 0.514056 0.159652
vt 0.469835 0.22097
vt 0.514056 0.22097
vt 0.969223 0.159654
vt 0.93333 0.159654
vt 0.93333 0.220972
vt 0.969223 0.159654
vt 0.93333 0.220972
vt 0.969222 0.220972
vt 0.783708 0.336262
vt 0.309098 0.345842
vt 0.292988 0.241611
vt 0.783708 0.336262
vt 0.292988 0.241611
vt 0.940878 0.241611
vt 0.593938 0.518829
vt 0.309098 0.345842
vt 0.783708 0.336262
vt 0.593938 0.518829
vt 0.446664 0.498634
vt 0.309098 0.345842
vt 0.783708 0.336262
vt 0.705589 0.458674
vt 0.593938 0.518829
vt 0.940878 0.241611
vt 0.925447 0.315701
vt 0.783708 0.336262
vt 0.446664 0.498634
vt 0.367466 0.449429
vt 0.309098 0.345842
vt 0.593938 0.518829
vt 0.451593 0.593342
vt 0.446664 0.498634
vt 0.593938 0.518829
vt 0.542893 0.644012
vt 0.451593 0.593342
vt 0.542893 0.644012
vt 0.390988 0.654972
vt 0.451593 0.593342
vt 0.865402 0.220972
vt 0.93333 0.220972
vt 0.93333 0.159654
vt 0.865402 0.220972
vt 0.93333 0.159654
vt 0.865402 0.159653
vt 0.73638 0.159653
vt 0.672262 0.159652
vt 0.672261 0.220971
vt 0.73638 0.159653
vt 0.672261 0.220971
vt 0.736379 0.220971
vt 0.514056 0.22097
vt 0.559035 0.22097
vt 0.559035 0.159652
vt 0.514056 0.22097
vt 0.559035 0.159652
vt 0.514056 0.159652
vt 0.672262 0.159652
vt 0.60003 0.159652
vt 0.600029 0.22097
vt 0.672262 0.159652
vt 0.600029 0.22097
vt 0.672261 0.220971
vt 0.559035 0.22097
vt 0.600029 0.22097
vt 0.60003 0.159652
vt 0.559035 0.22097
vt 0.60003 0.159652
vt 0.559035 0.159652
vt 0.017948 0.14095
vt 0.01795 0.014179
vt 0.176034 0.014178
vt 0.017948 0.14095
vt 0.176034 0.014178
vt 0.176039 0.140951
vt 0.176039 0.140951
vt 0.176034 0.014178
vt 0.334136 0.01418
vt 0.176039 0.140951
vt 0.334136 0.01418
vt 0.334137 0.140951
vt 0.334137 0.140951
vt 0.334136 0.01418
vt 0.492233 0.014185
vt 0.334137 0.140951
vt 0.492233 0.014185
vt 0.492233 0.140944
vt 0.492233 0.140944
vt 0.492233 0.014185
vt 0.650339 0.014184
vt 0.492233 0.140944
vt 0.650339 0.014184
vt 0.65033 0.140947
vt 0.65033 0.140947
vt 0.650339 0.014184
vt 0.808428 0.014184
vt 0.65033 0.140947
vt 0.808428 0.014184
vt 0.808425 0.140943
vt 0.808425 0.140943
vt 0.808428 0.014184
vt 0.966523 0.014178
vt 0.808425 0.140943
vt 0.966523 0.014178
vt 0.966522 0.14095
vt 0.061072 0.835774
vt 0.123778 0.87185
vt 0.091749 0.991415
vt 0.061072 0.835774
vt 0.091749 0.991415
vt 0.019405 0.991415
vt 0.174901 0.72195
vt 0.123778 0.87185
vt 0.061072 0.835774
vt 0.174901 0.72195
vt 0.211167 0.784546
vt 0.123778 0.87185
vt 0.330391 0.680291
vt 0.211167 0.784546
vt 0.174901 0.72195
vt 0.330391 0.680291
vt 0.330501 0.752633
vt 0.211167 0.784546
vt 0.485879 0.721957
vt 0.330501 0.752633
vt 0.330391 0.680291
vt 0.485879 0.721957
vt 0.449803 0.784663
vt 0.330501 0.752633
vt 0.599703 0.835786
vt 0.449803 0.784663
vt 0.485879 0.721957
vt 0.599703 0.835786
vt 0.537107 0.872052
vt 0.449803 0.784663
vt 0.641363 0.991415
vt 0.537107 0.872052
vt 0.599703 0.835786
vt 0.641363 0.991415
vt 0.56902 0.991415
vt 0.537107 0.872052
vt 0.01903 0.991415
vt 0.091375 0.991415
vt 0.123288 0.870999
vt 0.01903 0.991415
vt 0.123288 0.870999
vt 0.06069 0.834731
vt 0.06069 0.834731
vt 0.123288 0.870999
vt 0.210591 0.783609
vt 0.06069 0.834731
vt 0.210591 0.783609
vt 0.174514 0.720902
vt 0.174514 0.720902
vt 0.210591 0.783609
vt 0.329893 0.75158
vt 0.174514 0.720902
vt 0.329893 0.75158
vt 0.330003 0.679235
vt 0.330003 0.679235
vt 0.329893 0.75158
vt 0.449226 0.783493
vt 0.330003 0.679235
vt 0.449226 0.783493
vt 0.485494 0.720895
vt 0.485494 0.720895
vt 0.449226 0.783493
vt 0.536616 0.870797
vt 0.485494 0.720895
vt 0.536616 0.870797
vt 0.599323 0.834719
vt 0.599323 0.834719
vt 0.536616 0.870797
vt 0.568645 0.991415
vt 0.599323 0.834719
vt 0.568645 0.991415
vt 0.64099 0.991415
vt 0.123778 0.87185
vt 0.154595 0.889946
vt 0.127485 0.991415
vt 0.211167 0.784546
vt 0.154595 0.889946
vt 0.123778 0.87185
vt 0.211167 0.784546
vt 0.228808 0.815626
vt 0.154595 0.889946
vt 0.330501 0.752633
vt 0.228808 0.815626
vt 0.211167 0.784546
vt 0.330501 0.752633
vt 0.330238 0.78837
vt 0.228808 0.815626
vt 0.449803 0.784663
vt 0.330238 0.78837
vt 0.330501 0.752633
vt 0.449803 0.784663
vt 0.431707 0.81548
vt 0.330238 0.78837
vt 0.537107 0.872052
vt 0.431707 0.81548
vt 0.449803 0.784663
vt 0.537107 0.872052
vt 0.506027 0.889693
vt 0.431707 0.81548
vt 0.56902 0.991415
vt 0.506027 0.889693
vt 0.537107 0.872052
vt 0.123778 0.87185
vt 0.127485 0.991415
vt 0.091749 0.991415
vt 0.56902 0.991415
vt 0.533283 0.991415
vt 0.506027 0.889693
vt 0.091375 0.991415
vt 0.127111 0.991415
vt 0.154368 0.888639
vt 0.091375 0.991415
vt 0.154368 0.888639
vt 0.123288 0.870999
vt 0.123288 0.870999
vt 0.154368 0.888639
vt 0.228687 0.814426
vt 0.123288 0.870999
vt 0.228687 0.814426
vt 0.210591 0.783609
vt 0.210591 0.783609
vt 0.228687 0.814426
vt 0.330156 0.787316
vt 0.210591 0.783609
vt 0.330156 0.787316
vt 0.329893 0.75158
vt 0.329893 0.75158
vt 0.330156 0.787316
vt 0.431586 0.814573
vt 0.329893 0.75158
vt 0.431586 0.814573
vt 0.449226 0.783493
vt 0.449226 0.783493
vt 0.431586 0.814573
vt 0.505799 0.888892
vt 0.449226 0.783493
vt 0.505799 0.888892
vt 0.536616 0.870797
vt 0.536616 0.870797
vt 0.505799 0.888892
vt 0.532909 0.991415
vt 0.536616 0.870797
vt 0.532909 0.991415
vt 0.568645 0.991415
vt 0.154595 0.889946
vt 0.330384 0.991415
vt 0.127485 0.991415
vt 0.228808 0.815626
vt 0.330384 0.991415
vt 0.154595 0.889946
vt 0.330238 0.78837
vt 0.330384 0.991415
vt 0.228808 0.815626
vt 0.431707 0.81548
vt 0.330384 0.991415
vt 0.330238 0.78837
vt 0.506027 0.889693
vt 0.330384 0.991415
vt 0.431707 0.81548
vt 0.533283 0.991415
vt 0.330384 0.991415
vt 0.506027 0.889693
vt 0.127111 0.991415
vt 0.33001 0.991415
vt 0.154368 0.888639
vt 0.154368 0.888639
vt 0.33001 0.991415
vt 0.228687 0.814426
vt 0.228687 0.814426
vt 0.33001 0.991415
vt 0.330156 0.787316
vt 0.330156 0.787316
vt 0.33001 0.991415
vt 0.431586 0.814573
vt 0.431586 0.814573
vt 0.33001 0.991415
vt 0.505799 0.888892
vt 0.505799 0.888892
vt 0.33001 0.991415
vt 0.532909 0.991415
vt 0.809239 0.221966
vt 0.809224 0.160026
vt 0.71108 0.16005
vt 0.809239 0.221966
vt 0.71108 0.16005
vt 0.711097 0.22199
vt 0.711097 0.22199
vt 0.71108 0.16005
vt 0.629843 0.160072
vt 0.711097 0.22199
vt 0.629843 0.160072
vt 0.629861 0.222012
vt 0.629861 0.222012
vt 0.629843 0.160072
vt 0.563635 0.160093
vt 0.629861 0.222012
vt 0.563635 0.160093
vt 0.563655 0.222033
vt 0.563655 0.222033
vt 0.563635 0.160093
vt 0.530253 0.160103
vt 0.563655 0.222033
vt 0.530253 0.160103
vt 0.530273 0.222043
vt 0.502372 0.222053
vt 0.530273 0.222043
vt 0.530253 0.160103
vt 0.502372 0.222053
vt 0.530253 0.160103
vt 0.502352 0.160113
vt 0.471816 0.160123
vt 0.502372 0.222053
vt 0.502352 0.160113
vt 0.471816 0.160123
vt 0.471837 0.222063
vt 0.502372 0.222053
vt 0.445754 0.160132
vt 0.471837 0.222063
vt 0.471816 0.160123
vt 0.445754 0.160132
vt 0.445776 0.222072
vt 0.471837 0.222063
vt 0.363307 0.2221
vt 0.445776 0.222072
vt 0.445754 0.160132
vt 0.363307 0.2221
vt 0.445754 0.160132
vt 0.363285 0.16016
vt 0.968381 0.221934
vt 0.968368 0.159994
vt 0.890121 0.160009
vt 0.968381 0.221934
vt 0.890121 0.160009
vt 0.890134 0.221949
vt 0.890134 0.221949
vt 0.890121 0.160009
vt 0.809224 0.160026
vt 0.890134 0.221949
vt 0.809224 0.160026
vt 0.809239 0.221966
vt 0.991759 0.508304
vt 0.991759 0.99121
vt 0.846976 0.980838
vt 0.991759 0.508304
vt 0.846976 0.980838
vt 0.839215 0.519921
vt 0.839215 0.519921
vt 0.846976 0.980838
vt 0.665048 0.763128
vt 0.846976 0.980838
vt 0.702193 0.941361
vt 0.665048 0.763128
vt 0.839215 0.519921
vt 0.665048 0.763128
vt 0.671385 0.612561
vt 0.839215 0.519921
vt 0.671385 0.612561
vt 0.701321 0.493446
vt 0.839215 0.519921
vt 0.701321 0.493446
vt 0.828015 0.47289
vt 0.828015 0.47289
vt 0.701321 0.493446
vt 0.73631 0.442351
vt 0.828015 0.47289
vt 0.73631 0.442351
vt 0.787306 0.433501
vt 0.79653 0.159653
vt 0.79653 0.220972
vt 0.736379 0.220971
vt 0.79653 0.159653
vt 0.736379 0.220971
vt 0.73638 0.159653
vt 0.865402 0.159653
vt 0.79653 0.220972
vt 0.79653 0.159653
vt 0.865402 0.159653
vt 0.865402 0.220972
vt 0.79653 0.220972
vt 0.363422 0.159652
vt 0.413444 0.159651
vt 0.413444 0.22097
vt 0.363422 0.159652
vt 0.413444 0.22097
vt 0.363422 0.22097
vt 0.413444 0.159651
vt 0.469835 0.22097
vt 0.413444 0.22097
vt 0.413444 0.159651
vt 0.469835 0.159652
vt 0.469835 0.22097
vt 0.514056 0.159652
vt 0.469835 0.22097
vt 0.469835 0.159652
vt 0.514056 0.159652
vt 0.514056 0.22097
vt 0.469835 0.22097
vt 0.969223 0.159654
vt 0.969222 0.220972
vt 0.93333 0.220972
vt 0.969223 0.159654
vt 0.93333 0.220972
vt 0.93333 0.159654
vt 0.783708 0.336262
vt 0.940878 0.241611
vt 0.292988 0.241611
vt 0.783708 0.336262
vt 0.292988 0.241611
vt 0.309098 0.345842
vt 0.593938 0.518829
vt 0.783708 0.336262
vt 0.309098 0.345842
vt 0.593938 0.518829
vt 0.309098 0.345842
vt 0.446664 0.498634
vt 0.783708 0.336262
vt 0.593938 0.518829
vt 0.705589 0.458674
vt 0.940878 0.241611
vt 0.783708 0.336262
vt 0.925447 0.315701
vt 0.446664 0.498634
vt 0.309098 0.345842
vt 0.367466 0.449429
vt 0.593938 0.518829
vt 0.446664 0.498634
vt 0.451593 0.593342
vt 0.593938 0.518829
vt 0.451593 0.593342
vt 0.542893 0.644012
vt 0.542893 0.644012
vt 0.451593 0.593342
vt 0.390988 0.654972
vt 0.865402 0.220972
vt 0.865402 0.159653
vt 0.93333 0.159654
vt 0.865402 0.220972
vt 0.93333 0.159654
vt 0.93333 0.220972
vt 0.73638 0.159653
vt 0.736379 0.220971
vt 0.672261 0.220971
vt 0.73638 0.159653
vt 0.672261 0.220971
vt 0.672262 0.159652
vt 0.514056 0.22097
vt 0.514056 0.159652
vt 0.559035 0.159652
vt 0.514056 0.22097
vt 0.559035 0.159652
vt 0.559035 0.22097
vt 0.672262 0.159652
vt 0.672261 0.220971
vt 0.600029 0.22097
vt 0.672262 0.159652
vt 0.600029 0.22097
vt 0.60003 0.159652
vt 0.559035 0.22097
vt 0.559035 0.159652
vt 0.60003 0.159652
vt 0.559035 0.22097
vt 0.60003 0.159652
vt 0.600029 0.22097
vt 0.809224 0.160026
vt 0.629843 0.160072
vt 0.71108 0.16005
vt 0.629843 0.160072
vt 0.809224 0.160026
vt 0.563635 0.160093
vt 0.563635 0.160093
vt 0.809224 0.160026
vt 0.530253 0.160103
vt 0.530253 0.160103
vt 0.809224 0.160026
vt 0.890121 0.160009
vt 0.530253 0.160103
vt 0.890121 0.160009
vt 0.502352 0.160113
vt 0.502352 0.160113
vt 0.890121 0.160009
vt 0.471816 0.160123
vt 0.471816 0.160123
vt 0.890121 0.160009
vt 0.445754 0.160132
vt 0.445754 0.160132
vt 0.890121 0.160009
vt 0.363285 0.16016
vt 0.363285 0.16016
vt 0.890121 0.160009
vt 0.968368 0.159994
vt 0.363285 0.16016
vt 0.968368 0.159994
vt 0.890121 0.160009
vt 0.363285 0.16016
vt 0.890121 0.160009
vt 0.445754 0.160132
vt 0.445754 0.160132
vt 0.890121 0.160009
vt 0.809224 0.160026
vt 0.471816 0.160123
vt 0.809224 0.160026
vt 0.502352 0.160113
vt 0.502352 0.160113
vt 0.809224 0.160026
vt 0.530253 0.160103
vt 0.445754 0.160132
vt 0.809224 0.160026
vt 0.471816 0.160123
vt 0.530253 0.160103
vt 0.809224 0.160026
vt 0.563635 0.160093
vt 0.563635 0.160093
vt 0.809224 0.160026
vt 0.71108 0.16005
vt 0.563635 0.160093
vt 0.71108 0.16005
vt 0.629843 0.160072
vt 0.559035 0.159652
vt 0.672262 0.159652
vt 0.60003 0.159652
vt 0.672262 0.159652
vt 0.559035 0.159652
vt 0.73638 0.159653
vt 0.73638 0.159653
vt 0.559035 0.159652
vt 0.514056 0.159652
vt 0.79653 0.159653
vt 0.514056 0.159652
vt 0.469835 0.159652
vt 0.79653 0.159653
vt 0.469835 0.159652
vt 0.865402 0.159653
vt 0.865402 0.159653
vt 0.469835 0.159652
vt 0.413444 0.159651
vt 0.865402 0.159653
vt 0.413444 0.159651
vt 0.363422 0.159652
vt 0.73638 0.159653
vt 0.514056 0.159652
vt 0.79653 0.159653
vt 0.865402 0.159653
vt 0.363422 0.159652
vt 0.93333 0.159654
vt 0.93333 0.159654
vt 0.363422 0.159652
vt 0.969223 0.159654
vt 0.969223 0.159654
vt 0.363422 0.159652
vt 0.413444 0.159651
vt 0.865402 0.159653
vt 0.413444 0.159651
vt 0.79653 0.159653
vt 0.79653 0.159653
vt 0.413444 0.159651
vt 0.469835 0.159652
vt 0.79653 0.159653
vt 0.469835 0.159652
vt 0.514056 0.159652
vt 0.73638 0.159653
vt 0.514056 0.159652
vt 0.559035 0.159652
vt 0.73638 0.159653
vt 0.559035 0.159652
vt 0.672262 0.159652
vt 0.969223 0.159654
vt 0.413444 0.159651
vt 0.93333 0.159654
vt 0.93333 0.159654
vt 0.413444 0.159651
vt 0.865402 0.159653
vt 0.79653 0.159653
vt 0.514056 0.159652
vt 0.73638 0.159653
vt 0.672262 0.159652
vt 0.559035 0.159652
vt 0.60003 0.159652

# 912 Vertex Normals
vn -0.258822 -0.965925 -0.0
vn -0.575062 -0.81811 0.0
vn -0.420976 -0.907072 -0.0
vn -0.258822 -0.965925 -0.0
vn -0.420976 -0.907072 -0.0
vn -0.258822 -0.965925 0.0
vn -0.575062 -0.81811 0.0
vn -0.81811 -0.575062 0.0
vn -0.420976 -0.907072 -0.0
vn -0.575062 -0.81811 0.0
vn -0.907072 -0.420976 0.0
vn -0.81811 -0.575062 0.0
vn -0.907072 -0.420976 0.0
vn -0.996035 -0.088963 0.0
vn -0.81811 -0.575062 0.0
vn -0.907072 -0.420976 0.0
vn -0.996035 0.088963 0.0
vn -0.996035 -0.088963 0.0
vn -0.996035 0.088963 0.0
vn -0.907072 0.420976 0.0
vn -0.996035 -0.088963 0.0
vn -0.996035 0.088963 0.0
vn -0.81811 0.575062 0.0
vn -0.907072 0.420976 0.0
vn -0.81811 0.575062 0.0
vn -0.575062 0.81811 -0.0
vn -0.907072 0.420976 0.0
vn -0.81811 0.575062 0.0
vn -0.420976 0.907072 0.0
vn -0.575062 0.81811 -0.0
vn -0.420976 0.907072 0.0
vn -0.258822 0.965925 0.0
vn -0.575062 0.81811 -0.0
vn -0.420976 0.907072 0.0
vn -0.258822 0.965925 -0.0
vn -0.258822 0.965925 0.0
vn 0.0 -0.0 1.0
vn 0.0 -0.0 1.0
vn 0.0 -0.0 1.0
vn 0.0 -0.0 1.0
vn 0.0 -0.0 1.0
vn 0.0 0.0 1.0
vn 0.0 0.0 1.0
vn 0.0 -0.0 1.0
vn 0.0 0.0 1.0
vn 0.0 0.0 1.0
vn 0.0 0.0 1.0
vn 0.0 0.0 1.0
vn 0.0 -0.0 1.0
vn 0.0 0.0 1.0
vn 0.0 0.0 1.0
vn 0.0 -0.0 1.0
vn 0.0 0.0 1.0
vn 0.0 -0.0 1.0
vn 0.0 -0.0 1.0
vn 0.0 -0.0 1.0
vn 0.0 -0.0 1.0
vn 0.0 -0.0 1.0
vn 0.0 -0.0 1.0
vn 0.0 -0.0 1.0
vn 0.0 0.0 1.0
vn 0.0 -0.0 1.0
vn 0.0 -0.0 1.0
vn 0.0 0.0 1.0
vn 0.0 -0.0 1.0
vn 0.0 0.0 1.0
vn 0.0 0.0 1.0
vn 0.0 0.0 1.0
vn 0.0 0.0 1.0
vn 0.0 0.0 1.0
vn 0.0 0.0 1.0
vn 0.0 0.0 1.0
vn 0.0 -0.0 -1.0
vn 0.0 -0.0 -1.0
vn 0.0 -0.0 -1.0
vn 0.0 -0.0 -1.0
vn 0.0 -0.0 -1.0
vn 0.0 -0.0 -1.0
vn 0.0 -0.0 -1.0
vn 0.0 0.0 -1.0
vn 0.0 -0.0 -1.0
vn 0.0 -0.0 -1.0
vn 0.0 0.0 -1.0
vn 0.0 0.0 -1.0
vn 0.0 0.0 -1.0
vn 0.0 0.0 -1.0
vn 0.0 0.0 -1.0
vn 0.0 0.0 -1.0
vn 0.0 0.0 -1.0
vn 0.0 0.0 -1.0
vn 0.0 0.0 -1.0
vn 0.0 -0.0 -1.0
vn 0.0 0.0 -1.0
vn 0.0 0.0 -1.0
vn 0.0 -0.0 -1.0
vn 0.0 -0.0 -1.0
vn 0.0 -0.0 -1.0
vn 0.0 -0.0 -1.0
vn 0.0 -0.0 -1.0
vn 0.0 -0.0 -1.0
vn 0.0 0.0 -1.0
vn 0.0 -0.0 -1.0
vn 0.0 0.0 -1.0
vn 0.0 0.0 -1.0
vn 0.0 -0.0 -1.0
vn 0.0 0.0 -1.0
vn 0.0 0.0 -1.0
vn 0.0 0.0 -1.0
vn 0.25882 0.965925 -0.0
vn 0.25882 0.965925 -0.0
vn 0.25882 0.965925 -0.0
vn 0.500001 0.866025 0.0
vn 0.25882 0.965925 -0.0
vn 0.575061 0.81811 0.0
vn 0.81811 0.575061 -0.0
vn 0.500001 0.866025 0.0
vn 0.575061 0.81811 0.0
vn 0.81811 0.575061 -0.0
vn 0.575061 0.81811 0.0
vn 0.907072 0.420975 0.0
vn 0.996035 0.088963 0.0
vn 0.81811 0.575061 -0.0
vn 0.907072 0.420975 0.0
vn 0.996035 0.088963 0.0
vn 0.907072 0.420975 0.0
vn 0.996035 -0.088963 0.0
vn 0.907072 -0.420975 0.0
vn 0.996035 0.088963 0.0
vn 0.996035 -0.088963 0.0
vn 0.907072 -0.420975 0.0
vn 0.996035 -0.088963 0.0
vn 0.81811 -0.575061 -0.0
vn 0.575061 -0.81811 0.0
vn 0.907072 -0.420975 0.0
vn 0.81811 -0.575061 -0.0
vn 0.575061 -0.81811 0.0
vn 0.81811 -0.575061 -0.0
vn 0.5 -0.866025 -0.0
vn 0.25882 -0.965925 -0.0
vn 0.575061 -0.81811 0.0
vn 0.5 -0.866025 -0.0
vn 0.25882 -0.965925 -0.0
vn 0.258821 -0.965925 -0.0
vn 0.258821 -0.965925 -0.0
vn 0.25882 0.965925 0.0
vn 0.575061 0.81811 -0.0
vn 0.500001 0.866025 -0.0
vn 0.575061 0.81811 -0.0
vn 0.81811 0.575061 0.0
vn 0.500001 0.866025 -0.0
vn 0.575061 0.81811 -0.0
vn 0.907072 0.420975 -0.0
vn 0.81811 0.575061 0.0
vn 0.907072 0.420975 -0.0
vn 0.996035 0.088963 -0.0
vn 0.81811 0.575061 0.0
vn 0.907072 0.420975 -0.0
vn 0.996035 -0.088963 -0.0
vn 0.996035 0.088963 -0.0
vn 0.996035 -0.088963 -0.0
vn 0.907072 -0.420975 -0.0
vn 0.996035 0.088963 -0.0
vn 0.996035 -0.088963 -0.0
vn 0.81811 -0.575061 0.0
vn 0.907072 -0.420975 -0.0
vn 0.81811 -0.575061 0.0
vn 0.575061 -0.81811 -0.0
vn 0.907072 -0.420975 -0.0
vn 0.81811 -0.575061 0.0
vn 0.500001 -0.866025 0.0
vn 0.575061 -0.81811 -0.0
vn 0.500001 -0.866025 0.0
vn 0.258821 -0.965925 0.0
vn 0.575061 -0.81811 -0.0
vn 0.25882 0.965925 0.0
vn 0.25882 0.965925 0.0
vn 0.25882 0.965925 0.0
vn 0.258821 -0.965925 0.0
vn 0.258821 -0.965925 0.0
vn 0.258821 -0.965925 0.0
vn 0.0 0.0 1.0
vn 0.0 0.0 1.0
vn 0.0 -0.0 1.0
vn 0.0 -0.0 1.0
vn 0.0 0.0 1.0
vn 0.0 -0.0 1.0
vn 0.0 0.0 1.0
vn 0.0 -0.0 1.0
vn 0.0 -0.0 1.0
vn 0.0 0.0 1.0
vn 0.0 0.0 1.0
vn 0.0 -0.0 1.0
vn 0.0 -0.0 1.0
vn 0.0 0.0 1.0
vn 0.0 -0.0 1.0
vn 0.0 -0.0 1.0
vn 0.0 -0.0 1.0
vn 0.0 -0.0 1.0
vn 0.0 -0.0 -1.0
vn 0.0 -0.0 -1.0
vn 0.0 -0.0 -1.0
vn 0.0 -0.0 -1.0
vn 0.0 -0.0 -1.0
vn 0.0 -0.0 -1.0
vn 0.0 -0.0 -1.0
vn 0.0 0.0 -1.0
vn 0.0 -0.0 -1.0
vn 0.0 0.0 -1.0
vn 0.0 0.0 -1.0
vn 0.0 -0.0 -1.0
vn 0.0 0.0 -1.0
vn 0.0 0.0 -1.0
vn 0.0 -0.0 -1.0
vn 0.0 0.0 -1.0
vn 0.0 0.0 -1.0
vn 0.0 -0.0 -1.0
vn -0.978967 -0.204017 0.0
vn -0.99919 -0.040251 0.0
vn -0.992427 -0.122832 0.0
vn -0.978967 -0.204017 0.0
vn -0.992427 -0.122832 0.0
vn -0.978967 -0.204017 0.0
vn -0.99919 -0.040251 0.0
vn -0.993955 0.109784 -0.0
vn -0.992427 -0.122832 0.0
vn -0.99919 -0.040251 0.0
vn -0.984151 0.177331 -0.0
vn -0.993955 0.109784 -0.0
vn -0.984151 0.177331 -0.0
vn -0.93457 0.355778 -0.0
vn -0.993955 0.109784 -0.0
vn -0.984151 0.177331 -0.0
vn -0.885637 0.464377 0.0
vn -0.93457 0.355778 -0.0
vn -0.885637 0.464377 0.0
vn -0.540553 0.84131 0.0
vn -0.93457 0.355778 -0.0
vn -0.885637 0.464377 0.0
vn -0.540553 0.84131 0.0
vn -0.540553 0.84131 0.0
vn 0.294118 0.955769 -0.0
vn -0.540553 0.84131 0.0
vn -0.540553 0.84131 0.0
vn 0.294118 0.955769 -0.0
vn 0.294118 0.955769 -0.0
vn -0.540553 0.84131 0.0
vn 0.816866 0.576827 -0.0
vn 0.294118 0.955769 -0.0
vn 0.294118 0.955769 -0.0
vn 0.816866 0.576827 -0.0
vn 0.294118 0.955769 -0.0
vn 0.912757 0.408502 -0.0
vn 0.972801 0.231641 -0.0
vn 0.816866 0.576827 -0.0
vn 0.912757 0.408502 -0.0
vn 0.972801 0.231641 -0.0
vn 0.912757 0.408502 -0.0
vn 0.972801 0.231641 -0.0
vn -0.075925 0.997114 0.0
vn -0.075925 0.997114 -0.0
vn -0.075925 0.997114 0.0
vn -0.075925 0.997114 0.0
vn -0.075925 0.997114 0.0
vn -0.075925 0.997114 0.0
vn -0.071448 -0.997444 -0.0
vn -0.200031 -0.97979 -0.0
vn -0.13589 -0.990724 -0.0
vn -0.071448 -0.997444 -0.0
vn -0.13589 -0.990724 -0.0
vn -0.071448 -0.997444 0.0
vn -0.200031 -0.97979 -0.0
vn -0.26306 -0.964779 -0.0
vn -0.13589 -0.990724 -0.0
vn -0.200031 -0.97979 -0.0
vn -0.26306 -0.964779 -0.0
vn -0.26306 -0.964779 -0.0
vn 0.0 -0.0 1.0
vn 0.0 0.0 1.0
vn 0.0 -0.0 1.0
vn 0.0 -0.0 1.0
vn 0.0 -0.0 1.0
vn 0.0 -0.0 1.0
vn 0.0 0.0 1.0
vn 0.0 -0.0 1.0
vn 0.0 -0.0 1.0
vn 0.0 -0.0 1.0
vn 0.0 -0.0 1.0
vn 0.0 -0.0 1.0
vn 0.0 0.0 1.0
vn 0.0 0.0 1.0
vn 0.0 -0.0 1.0
vn 0.0 0.0 1.0
vn 0.0 0.0 1.0
vn 0.0 0.0 1.0
vn 0.0 0.0 1.0
vn 0.0 -0.0 1.0
vn 0.0 0.0 1.0
vn 0.0 -0.0 1.0
vn 0.0 -0.0 1.0
vn 0.0 0.0 1.0
vn 0.0 -0.0 1.0
vn 0.0 -0.0 1.0
vn 0.0 -0.0 1.0
vn -0.788729 -0.61474 -0.0
vn -0.880358 -0.47431 -0.0
vn -0.880358 -0.47431 -0.0
vn -0.788729 -0.61474 -0.0
vn -0.880358 -0.47431 -0.0
vn -0.671241 -0.741239 -0.0
vn -0.537951 -0.842976 -0.0
vn -0.788729 -0.61474 -0.0
vn -0.671241 -0.741239 -0.0
vn -0.537951 -0.842976 -0.0
vn -0.671241 -0.741239 -0.0
vn -0.537951 -0.842976 0.0
vn -0.152737 0.988267 -0.0
vn -0.152737 0.988267 -0.0
vn -0.269322 0.96305 -0.0
vn -0.152737 0.988267 -0.0
vn -0.269322 0.96305 -0.0
vn -0.383686 0.923464 -0.0
vn -0.383686 0.923464 -0.0
vn -0.269322 0.96305 -0.0
vn -0.691819 0.722071 -0.0
vn -0.383686 0.923464 -0.0
vn -0.691819 0.722071 -0.0
vn -0.691819 0.722071 0.0
vn -0.849414 0.527728 -0.0
vn -0.691819 0.722071 0.0
vn -0.691819 0.722071 -0.0
vn -0.849414 0.527728 -0.0
vn -0.691819 0.722071 -0.0
vn -0.849414 0.527728 -0.0
vn -0.203886 -0.978995 -0.0
vn -0.203886 -0.978995 -0.0
vn -0.203886 -0.978995 -0.0
vn -0.203886 -0.978995 -0.0
vn -0.203886 -0.978995 -0.0
vn -0.203886 -0.978995 -0.0
vn 0.0 0.0 -1.0
vn 0.0 0.0 -1.0
vn 0.0 -0.0 -1.0
vn 0.0 0.0 -1.0
vn 0.0 -0.0 -1.0
vn 0.0 0.0 -1.0
vn 0.0 -0.0 -1.0
vn 0.0 0.0 -1.0
vn 0.0 0.0 -1.0
vn 0.0 -0.0 -1.0
vn 0.0 0.0 -1.0
vn 0.0 0.0 -1.0
vn 0.0 0.0 -1.0
vn 0.0 0.0 -1.0
vn 0.0 -0.0 -1.0
vn 0.0 0.0 -1.0
vn 0.0 0.0 -1.0
vn 0.0 0.0 -1.0
vn 0.0 0.0 -1.0
vn 0.0 0.0 -1.0
vn 0.0 0.0 -1.0
vn 0.0 -0.0 -1.0
vn 0.0 -0.0 -1.0
vn 0.0 0.0 -1.0
vn 0.0 -0.0 -1.0
vn 0.0 -0.0 -1.0
vn 0.0 -0.0 -1.0
vn 0.0 -0.0 -1.0
vn 0.0 -0.0 -1.0
vn 0.0 -0.0 -1.0
vn -0.989641 -0.143562 0.0
vn -0.989641 -0.143562 0.0
vn -0.989641 -0.143562 0.0
vn -0.989641 -0.143562 0.0
vn -0.989641 -0.143562 0.0
vn -0.989641 -0.143562 0.0
vn -0.377586 -0.925974 -0.0
vn -0.377586 -0.925974 -0.0
vn -0.377586 -0.925974 -0.0
vn -0.377586 -0.925974 -0.0
vn -0.377586 -0.925974 -0.0
vn -0.377586 -0.925974 0.0
vn -0.051978 0.998648 0.0
vn -0.051978 0.998648 0.0
vn -0.051978 0.998648 0.0
vn -0.051978 0.998648 0.0
vn -0.051978 0.998648 0.0
vn -0.051979 0.998648 0.0
vn -0.997408 -0.071952 -0.0
vn -0.997408 -0.071952 0.0
vn -0.997408 -0.071952 -0.0
vn -0.997408 -0.071952 -0.0
vn -0.997408 -0.071952 -0.0
vn -0.997408 -0.071952 -0.0
vn 0.701167 0.712997 -0.0
vn 0.701167 0.712997 -0.0
vn 0.701167 0.712997 -0.0
vn 0.701167 0.712997 -0.0
vn 0.701167 0.712997 -0.0
vn 0.701167 0.712997 -0.0
vn 0.258822 -0.965925 -0.0
vn 0.258822 -0.965925 -0.0
vn 0.420976 -0.907072 -0.0
vn 0.258822 -0.965925 -0.0
vn 0.420976 -0.907072 -0.0
vn 0.575062 -0.81811 -0.0
vn 0.575062 -0.81811 -0.0
vn 0.420976 -0.907072 -0.0
vn 0.81811 -0.575062 -0.0
vn 0.575062 -0.81811 -0.0
vn 0.81811 -0.575062 -0.0
vn 0.907072 -0.420976 -0.0
vn 0.907072 -0.420976 -0.0
vn 0.81811 -0.575062 -0.0
vn 0.996035 -0.088963 -0.0
vn 0.907072 -0.420976 -0.0
vn 0.996035 -0.088963 -0.0
vn 0.996035 0.088963 -0.0
vn 0.996035 0.088963 -0.0
vn 0.996035 -0.088963 -0.0
vn 0.907072 0.420976 -0.0
vn 0.996035 0.088963 -0.0
vn 0.907072 0.420976 -0.0
vn 0.81811 0.575062 -0.0
vn 0.81811 0.575062 -0.0
vn 0.907072 0.420976 -0.0
vn 0.575062 0.81811 -0.0
vn 0.81811 0.575062 -0.0
vn 0.575062 0.81811 -0.0
vn 0.420976 0.907072 0.0
vn 0.420976 0.907072 0.0
vn 0.575062 0.81811 -0.0
vn 0.258822 0.965925 0.0
vn 0.420976 0.907072 0.0
vn 0.258822 0.965925 0.0
vn 0.258822 0.965925 -0.0
vn 0.0 0.0 1.0
vn 0.0 -0.0 1.0
vn 0.0 0.0 1.0
vn 0.0 0.0 1.0
vn 0.0 0.0 1.0
vn 0.0 0.0 1.0
vn 0.0 -0.0 1.0
vn 0.0 -0.0 1.0
vn 0.0 0.0 1.0
vn 0.0 -0.0 1.0
vn 0.0 -0.0 1.0
vn 0.0 -0.0 1.0
vn 0.0 -0.0 1.0
vn 0.0 -0.0 1.0
vn 0.0 -0.0 1.0
vn 0.0 -0.0 1.0
vn 0.0 -0.0 1.0
vn 0.0 -0.0 1.0
vn 0.0 -0.0 1.0
vn 0.0 -0.0 1.0
vn 0.0 -0.0 1.0
vn 0.0 -0.0 1.0
vn 0.0 -0.0 1.0
vn 0.0 -0.0 1.0
vn 0.0 -0.0 1.0
vn 0.0 -0.0 1.0
vn 0.0 -0.0 1.0
vn 0.0 -0.0 1.0
vn 0.0 0.0 1.0
vn 0.0 -0.0 1.0
vn 0.0 0.0 1.0
vn 0.0 0.0 1.0
vn 0.0 -0.0 1.0
vn 0.0 0.0 1.0
vn 0.0 0.0 1.0
vn 0.0 0.0 1.0
vn 0.0 -0.0 -1.0
vn 0.0 0.0 -1.0
vn 0.0 -0.0 -1.0
vn 0.0 -0.0 -1.0
vn 0.0 -0.0 -1.0
vn 0.0 0.0 -1.0
vn 0.0 0.0 -1.0
vn 0.0 -0.0 -1.0
vn 0.0 0.0 -1.0
vn 0.0 0.0 -1.0
vn 0.0 0.0 -1.0
vn 0.0 0.0 -1.0
vn 0.0 0.0 -1.0
vn 0.0 0.0 -1.0
vn 0.0 0.0 -1.0
vn 0.0 0.0 -1.0
vn 0.0 0.0 -1.0
vn 0.0 0.0 -1.0
vn 0.0 0.0 -1.0
vn 0.0 0.0 -1.0
vn 0.0 0.0 -1.0
vn 0.0 0.0 -1.0
vn 0.0 0.0 -1.0
vn 0.0 0.0 -1.0
vn 0.0 0.0 -1.0
vn 0.0 0.0 -1.0
vn 0.0 0.0 -1.0
vn 0.0 0.0 -1.0
vn 0.0 0.0 -1.0
vn 0.0 -0.0 -1.0
vn 0.0 -0.0 -1.0
vn 0.0 0.0 -1.0
vn 0.0 -0.0 -1.0
vn 0.0 -0.0 -1.0
vn 0.0 -0.0 -1.0
vn 0.0 -0.0 -1.0
vn -0.500001 0.866025 -0.0
vn -0.575061 0.81811 -0.0
vn -0.25882 0.965925 0.0
vn -0.81811 0.575062 -0.0
vn -0.575061 0.81811 -0.0
vn -0.500001 0.866025 -0.0
vn -0.81811 0.575062 -0.0
vn -0.907072 0.420975 0.0
vn -0.575061 0.81811 -0.0
vn -0.996035 0.088963 0.0
vn -0.907072 0.420975 0.0
vn -0.81811 0.575062 -0.0
vn -0.996035 0.088963 0.0
vn -0.996035 -0.088963 -0.0
vn -0.907072 0.420975 0.0
vn -0.907072 -0.420975 -0.0
vn -0.996035 -0.088963 -0.0
vn -0.996035 0.088963 0.0
vn -0.907072 -0.420975 -0.0
vn -0.81811 -0.575062 0.0
vn -0.996035 -0.088963 -0.0
vn -0.575061 -0.81811 0.0
vn -0.81811 -0.575062 0.0
vn -0.907072 -0.420975 -0.0
vn -0.575061 -0.81811 0.0
vn -0.500001 -0.866025 0.0
vn -0.81811 -0.575062 0.0
vn -0.25882 -0.965925 0.0
vn -0.500001 -0.866025 0.0
vn -0.575061 -0.81811 0.0
vn -0.25882 0.965925 -0.0
vn -0.25882 0.965925 0.0
vn -0.25882 0.965925 -0.0
vn -0.25882 -0.965925 0.0
vn -0.25882 -0.965925 0.0
vn -0.25882 -0.965925 0.0
vn -0.25882 0.965925 0.0
vn -0.25882 0.965925 -0.0
vn -0.25882 0.965925 -0.0
vn -0.25882 0.965925 0.0
vn -0.500001 0.866025 -0.0
vn -0.575061 0.81811 -0.0
vn -0.575061 0.81811 -0.0
vn -0.500001 0.866025 -0.0
vn -0.81811 0.575062 -0.0
vn -0.575061 0.81811 -0.0
vn -0.81811 0.575062 -0.0
vn -0.907072 0.420975 0.0
vn -0.907072 0.420975 0.0
vn -0.81811 0.575062 -0.0
vn -0.996035 0.088963 0.0
vn -0.907072 0.420975 0.0
vn -0.996035 0.088963 0.0
vn -0.996035 -0.088963 -0.0
vn -0.996035 -0.088963 -0.0
vn -0.996035 0.088963 0.0
vn -0.907072 -0.420975 -0.0
vn -0.996035 -0.088963 -0.0
vn -0.907072 -0.420975 -0.0
vn -0.81811 -0.575062 0.0
vn -0.81811 -0.575062 0.0
vn -0.907072 -0.420975 -0.0
vn -0.575061 -0.81811 0.0
vn -0.81811 -0.575062 0.0
vn -0.575061 -0.81811 0.0
vn -0.500001 -0.866025 0.0
vn -0.500001 -0.866025 0.0
vn -0.575061 -0.81811 0.0
vn -0.25882 -0.965925 0.0
vn -0.258821 -0.965925 0.0
vn -0.25882 -0.965925 0.0
vn -0.258821 -0.965925 0.0
vn 0.0 -0.0 1.0
vn 0.0 -0.0 1.0
vn 0.0 0.0 1.0
vn 0.0 -0.0 1.0
vn 0.0 -0.0 1.0
vn 0.0 -0.0 1.0
vn 0.0 -0.0 1.0
vn 0.0 -0.0 1.0
vn 0.0 -0.0 1.0
vn 0.0 -0.0 1.0
vn 0.0 -0.0 1.0
vn 0.0 -0.0 1.0
vn 0.0 0.0 1.0
vn 0.0 -0.0 1.0
vn 0.0 -0.0 1.0
vn 0.0 0.0 1.0
vn 0.0 -0.0 1.0
vn 0.0 0.0 1.0
vn 0.0 0.0 -1.0
vn 0.0 0.0 -1.0
vn 0.0 0.0 -1.0
vn 0.0 0.0 -1.0
vn 0.0 0.0 -1.0
vn 0.0 0.0 -1.0
vn 0.0 0.0 -1.0
vn 0.0 0.0 -1.0
vn 0.0 0.0 -1.0
vn 0.0 0.0 -1.0
vn 0.0 0.0 -1.0
vn 0.0 0.0 -1.0
vn 0.0 0.0 -1.0
vn 0.0 0.0 -1.0
vn 0.0 0.0 -1.0
vn 0.0 0.0 -1.0
vn 0.0 0.0 -1.0
vn 0.0 0.0 -1.0
vn 0.978967 -0.204017 0.0
vn 0.978967 -0.204017 0.0
vn 0.992427 -0.122832 0.0
vn 0.978967 -0.204017 0.0
vn 0.992427 -0.122832 0.0
vn 0.99919 -0.040251 0.0
vn 0.99919 -0.040251 0.0
vn 0.992427 -0.122832 0.0
vn 0.993955 0.109784 0.0
vn 0.99919 -0.040251 0.0
vn 0.993955 0.109784 0.0
vn 0.984151 0.177331 0.0
vn 0.984151 0.177331 0.0
vn 0.993955 0.109784 0.0
vn 0.93457 0.355778 0.0
vn 0.984151 0.177331 0.0
vn 0.93457 0.355778 0.0
vn 0.885638 0.464377 0.0
vn 0.885638 0.464377 0.0
vn 0.93457 0.355778 0.0
vn 0.540553 0.84131 -0.0
vn 0.885638 0.464377 0.0
vn 0.540553 0.84131 -0.0
vn 0.540553 0.84131 -0.0
vn -0.294118 0.955769 0.0
vn 0.540553 0.84131 -0.0
vn 0.540553 0.84131 -0.0
vn -0.294118 0.955769 0.0
vn 0.540553 0.84131 -0.0
vn -0.294117 0.955769 0.0
vn -0.816866 0.576827 0.0
vn -0.294118 0.955769 0.0
vn -0.294117 0.955769 0.0
vn -0.816866 0.576827 0.0
vn -0.912758 0.408502 0.0
vn -0.294118 0.955769 0.0
vn -0.972801 0.231641 0.0
vn -0.912758 0.408502 0.0
vn -0.816866 0.576827 0.0
vn -0.972801 0.231641 0.0
vn -0.972801 0.231641 0.0
vn -0.912758 0.408502 0.0
vn 0.075925 0.997113 0.0
vn 0.075925 0.997114 0.0
vn 0.075925 0.997113 0.0
vn 0.075925 0.997113 0.0
vn 0.075925 0.997113 0.0
vn 0.075926 0.997113 0.0
vn 0.071448 -0.997444 -0.0
vn 0.071448 -0.997444 -0.0
vn 0.13589 -0.990724 -0.0
vn 0.071448 -0.997444 -0.0
vn 0.13589 -0.990724 -0.0
vn 0.200031 -0.97979 0.0
vn 0.200031 -0.97979 0.0
vn 0.13589 -0.990724 -0.0
vn 0.26306 -0.964779 0.0
vn 0.200031 -0.97979 0.0
vn 0.26306 -0.964779 0.0
vn 0.26306 -0.964779 0.0
vn 0.0 -0.0 1.0
vn 0.0 0.0 1.0
vn 0.0 0.0 1.0
vn 0.0 -0.0 1.0
vn 0.0 0.0 1.0
vn 0.0 -0.0 1.0
vn 0.0 -0.0 1.0
vn 0.0 0.0 1.0
vn 0.0 0.0 1.0
vn 0.0 0.0 1.0
vn 0.0 0.0 1.0
vn 0.0 0.0 1.0
vn 0.0 -0.0 1.0
vn 0.0 0.0 1.0
vn 0.0 0.0 1.0
vn 0.0 -0.0 1.0
vn 0.0 0.0 1.0
vn 0.0 -0.0 1.0
vn 0.0 -0.0 1.0
vn 0.0 -0.0 1.0
vn 0.0 -0.0 1.0
vn 0.0 -0.0 1.0
vn 0.0 -0.0 1.0
vn 0.0 0.0 1.0
vn 0.0 -0.0 1.0
vn 0.0 0.0 1.0
vn 0.0 0.0 1.0
vn 0.78873 -0.61474 -0.0
vn 0.671241 -0.741239 0.0
vn 0.880358 -0.47431 -0.0
vn 0.78873 -0.61474 -0.0
vn 0.880358 -0.47431 -0.0
vn 0.880358 -0.47431 -0.0
vn 0.537951 -0.842976 0.0
vn 0.671241 -0.741239 0.0
vn 0.78873 -0.61474 -0.0
vn 0.537951 -0.842976 0.0
vn 0.537951 -0.842976 -0.0
vn 0.671241 -0.741239 0.0
vn 0.152737 0.988267 -0.0
vn 0.383686 0.923464 -0.0
vn 0.269322 0.96305 -0.0
vn 0.152737 0.988267 -0.0
vn 0.269322 0.96305 -0.0
vn 0.152736 0.988267 0.0
vn 0.383686 0.923464 -0.0
vn 0.691819 0.722071 0.0
vn 0.269322 0.96305 -0.0
vn 0.383686 0.923464 -0.0
vn 0.691819 0.722071 0.0
vn 0.691819 0.722071 0.0
vn 0.849414 0.527728 0.0
vn 0.691819 0.722071 0.0
vn 0.691819 0.722071 0.0
vn 0.849414 0.527728 0.0
vn 0.849414 0.527728 0.0
vn 0.691819 0.722071 0.0
vn 0.203886 -0.978995 -0.0
vn 0.203886 -0.978995 0.0
vn 0.203886 -0.978995 -0.0
vn 0.203886 -0.978995 -0.0
vn 0.203886 -0.978995 -0.0
vn 0.203886 -0.978995 -0.0
vn 0.0 0.0 -1.0
vn 0.0 -0.0 -1.0
vn 0.0 0.0 -1.0
vn 0.0 0.0 -1.0
vn 0.0 0.0 -1.0
vn 0.0 -0.0 -1.0
vn 0.0 0.0 -1.0
vn 0.0 0.0 -1.0
vn 0.0 -0.0 -1.0
vn 0.0 0.0 -1.0
vn 0.0 -0.0 -1.0
vn 0.0 -0.0 -1.0
vn 0.0 0.0 -1.0
vn 0.0 0.0 -1.0
vn 0.0 0.0 -1.0
vn 0.0 -0.0 -1.0
vn 0.0 0.0 -1.0
vn 0.0 -0.0 -1.0
vn 0.0 -0.0 -1.0
vn 0.0 -0.0 -1.0
vn 0.0 -0.0 -1.0
vn 0.0 0.0 -1.0
vn 0.0 -0.0 -1.0
vn 0.0 0.0 -1.0
vn 0.0 0.0 -1.0
vn 0.0 0.0 -1.0
vn 0.0 0.0 -1.0
vn 0.0 0.0 -1.0
vn 0.0 0.0 -1.0
vn 0.0 0.0 -1.0
vn 0.989641 -0.143562 0.0
vn 0.989641 -0.143562 -0.0
vn 0.989641 -0.143562 0.0
vn 0.989641 -0.143562 0.0
vn 0.989641 -0.143562 0.0
vn 0.989641 -0.143562 0.0
vn 0.377586 -0.925974 -0.0
vn 0.377586 -0.925974 -0.0
vn 0.377586 -0.925974 -0.0
vn 0.377586 -0.925974 -0.0
vn 0.377586 -0.925974 -0.0
vn 0.377586 -0.925974 -0.0
vn 0.051978 0.998648 -0.0
vn 0.051978 0.998648 -0.0
vn 0.051978 0.998648 -0.0
vn 0.051978 0.998648 -0.0
vn 0.051978 0.998648 -0.0
vn 0.051978 0.998648 0.0
vn 0.997408 -0.071952 -0.0
vn 0.997408 -0.071952 -0.0
vn 0.997408 -0.071952 -0.0
vn 0.997408 -0.071952 -0.0
vn 0.997408 -0.071952 -0.0
vn 0.997408 -0.071952 0.0
vn -0.701167 0.712997 0.0
vn -0.701167 0.712997 0.0
vn -0.701167 0.712997 0.0
vn -0.701167 0.712997 0.0
vn -0.701167 0.712997 0.0
vn -0.701167 0.712997 0.0
vn 0.0 0.0 -1.0
vn 0.0 0.0 -1.0
vn 0.0 0.0 -1.0
vn 0.0 0.0 -1.0
vn 0.0 0.0 -1.0
vn 0.0 0.0 -1.0
vn 0.0 0.0 -1.0
vn 0.0 0.0 -1.0
vn 0.0 0.0 -1.0
vn 0.0 0.0 -1.0
vn 0.0 0.0 -1.0
vn 0.0 -0.0 -1.0
vn 0.0 -0.0 -1.0
vn 0.0 -0.0 -1.0
vn 0.0 -0.0 -1.0
vn 0.0 -0.0 -1.0
vn 0.0 -0.0 -1.0
vn 0.0 -0.0 -1.0
vn 0.0 -0.0 -1.0
vn 0.0 -0.0 -1.0
vn 0.0 -0.0 -1.0
vn 0.0 -0.0 -1.0
vn 0.0 -0.0 -1.0
vn 0.0 -0.0 -1.0
vn 0.0 -0.0 -1.0
vn 0.0 -0.0 -1.0
vn 0.0 -0.0 -1.0
vn 0.0 -0.0 -1.0
vn 0.0 0.0 -1.0
vn 0.0 -0.0 -1.0
vn 0.0 -0.0 -1.0
vn 0.0 -0.0 -1.0
vn 0.0 -0.0 -1.0
vn 0.0 0.0 -1.0
vn 0.0 -0.0 -1.0
vn 0.0 0.0 -1.0
vn 0.0 0.0 -1.0
vn 0.0 0.0 -1.0
vn 0.0 0.0 -1.0
vn 0.0 0.0 -1.0
vn 0.0 0.0 -1.0
vn 0.0 0.0 -1.0
vn 0.0 0.0 -1.0
vn 0.0 0.0 -1.0
vn 0.0 0.0 -1.0
vn 0.0 -0.0 -1.0
vn 0.0 0.0 -1.0
vn 0.0 -0.0 -1.0
vn 0.0 -0.0 -1.0
vn 0.0 0.0 -1.0
vn 0.0 0.0 -1.0
vn 0.0 0.0 -1.0
vn 0.0 0.0 -1.0
vn 0.0 0.0 -1.0
vn 0.0 0.0 1.0
vn 0.0 0.0 1.0
vn 0.0 0.0 1.0
vn 0.0 -0.0 1.0
vn 0.0 -0.0 1.0
vn 0.0 -0.0 1.0
vn 0.0 -0.0 1.0
vn 0.0 -0.0 1.0
vn 0.0 0.0 1.0
vn 0.0 0.0 1.0
vn 0.0 0.0 1.0
vn 0.0 0.0 1.0
vn 0.0 -0.0 1.0
vn 0.0 0.0 1.0
vn 0.0 -0.0 1.0
vn 0.0 -0.0 1.0
vn 0.0 0.0 1.0
vn 0.0 -0.0 1.0
vn 0.0 -0.0 1.0
vn 0.0 -0.0 1.0
vn 0.0 0.0 1.0
vn 0.0 0.0 1.0
vn 0.0 0.0 1.0
vn 0.0 0.0 1.0
vn 0.0 -0.0 1.0
vn 0.0 -0.0 1.0
vn 0.0 -0.0 1.0
vn 0.0 -0.0 1.0
vn 0.0 -0.0 1.0
vn 0.0 0.0 1.0
vn 0.0 0.0 1.0
vn 0.0 0.0 1.0
vn 0.0 -0.0 1.0
vn 0.0 -0.0 1.0
vn 0.0 -0.0 1.0
vn 0.0 -0.0 1.0
vn 0.0 -0.0 1.0
vn 0.0 -0.0 1.0
vn 0.0 -0.0 1.0
vn 0.0 0.0 1.0
vn 0.0 -0.0 1.0
vn 0.0 -0.0 1.0
vn 0.0 0.0 1.0
vn 0.0 -0.0 1.0
vn 0.0 0.0 1.0
vn 0.0 0.0 1.0
vn 0.0 0.0 1.0
vn 0.0 0.0 1.0
vn 0.0 0.0 1.0
vn 0.0 0.0 1.0
vn 0.0 0.0 1.0
vn 0.0 -0.0 1.0
vn 0.0 -0.0 1.0
vn 0.0 -0.0 1.0
vn 0.0 -0.0 1.0
vn 0.0 -0.0 1.0
vn 0.0 -0.0 1.0
vn 0.0 0.0 1.0
vn 0.0 0.0 1.0
vn 0.0 0.0 1.0

# default, 304 grouped triangles

usemtl Item_Coin_Texture
o default
g default

f 1/1/1 3/2/2 2/3/3
f 1/4/4 2/5/5 4/6/6
f 3/7/7 5/8/8 2/9/9
f 3/10/10 6/11/11 5/12/12
f 6/13/13 7/14/14 5/15/15
f 6/16/16 8/17/17 7/18/18
f 8/19/19 9/20/20 7/21/21
f 8/22/22 10/23/23 9/24/24
f 10/25/25 11/26/26 9/27/27
f 10/28/28 12/29/29 11/30/30
f 12/31/31 13/32/32 11/33/33
f 12/34/34 14/35/35 13/36/36
f 15/37/37 17/38/38 16/39/39
f 15/40/40 16/41/41 18/42/42
f 19/43/43 15/44/44 18/45/45
f 19/46/46 18/47/47 20/48/48
f 21/49/49 19/50/50 20/51/51
f 21/52/52 20/53/53 22/54/54
f 23/55/55 21/56/56 22/57/57
f 23/58/58 22/59/59 24/60/60
f 25/61/61 23/62/62 24/63/63
f 25/64/64 24/65/65 26/66/66
f 27/67/67 25/68/68 26/69/69
f 27/70/70 26/71/71 28/72/72
f 29/73/73 31/74/74 30/75/75
f 29/76/76 30/77/77 32/78/78
f 31/79/79 33/80/80 30/81/81
f 31/82/82 34/83/83 33/84/84
f 34/85/85 35/86/86 33/87/87
f 34/88/88 36/89/89 35/90/90
f 36/91/91 37/92/92 35/93/93
f 36/94/94 38/95/95 37/96/96
f 38/97/97 39/98/98 37/99/99
f 38/100/100 40/101/101 39/102/102
f 40/103/103 41/104/104 39/105/105
f 40/106/106 42/107/107 41/108/108
f 43/109/109 45/110/110 44/111/111
f 46/112/112 44/113/113 47/114/114
f 48/115/115 46/116/116 47/117/117
f 48/118/118 47/119/119 49/120/120
f 50/121/121 48/122/122 49/123/123
f 50/124/124 49/125/125 51/126/126
f 52/127/127 50/128/128 51/129/129
f 52/130/130 51/131/131 53/132/132
f 54/133/133 52/134/134 53/135/135
f 54/136/136 53/137/137 55/138/138
f 56/139/139 54/140/140 55/141/141
f 56/142/142 58/143/143 57/144/144
f 59/145/145 61/146/146 60/147/147
f 61/148/148 62/149/149 60/150/150
f 61/151/151 63/152/152 62/153/153
f 63/154/154 64/155/155 62/156/156
f 63/157/157 65/158/158 64/159/159
f 65/160/160 66/161/161 64/162/162
f 65/163/163 67/164/164 66/165/165
f 67/166/166 68/167/167 66/168/168
f 67/169/169 69/170/170 68/171/171
f 69/172/172 70/173/173 68/174/174
f 59/175/175 72/176/176 71/177/177
f 73/178/178 74/179/179 70/180/180
f 75/181/181 77/182/182 76/183/183
f 78/184/184 75/185/185 76/186/186
f 79/187/187 78/188/188 76/189/189
f 80/190/190 79/191/191 76/192/192
f 81/193/193 80/194/194 76/195/195
f 82/196/196 81/197/197 76/198/198
f 83/199/199 85/200/200 84/201/201
f 85/202/202 86/203/203 84/204/204
f 86/205/205 87/206/206 84/207/207
f 87/208/208 88/209/209 84/210/210
f 88/211/211 89/212/212 84/213/213
f 89/214/214 90/215/215 84/216/216
f 91/217/217 93/218/218 92/219/219
f 91/220/220 92/221/221 94/222/222
f 93/223/223 95/224/224 92/225/225
f 93/226/226 96/227/227 95/228/228
f 96/229/229 97/230/230 95/231/231
f 96/232/232 98/233/233 97/234/234
f 98/235/235 99/236/236 97/237/237
f 98/238/238 100/239/239 99/240/240
f 101/241/241 99/242/242 100/243/243
f 101/244/244 102/245/245 99/246/246
f 103/247/247 102/248/248 101/249/249
f 103/250/250 101/251/251 104/252/252
f 105/253/253 103/254/254 104/255/255
f 105/256/256 104/257/257 106/258/258
f 107/259/259 109/260/260 108/261/261
f 107/262/262 108/263/263 110/264/264
f 111/265/265 113/266/266 112/267/267
f 111/268/268 112/269/269 114/270/270
f 113/271/271 115/272/272 112/273/273
f 113/274/274 116/275/275 115/276/276
f 117/277/277 119/278/278 118/279/279
f 117/280/280 118/281/281 120/282/282
f 119/283/283 121/284/284 118/285/285
f 118/286/286 121/287/287 122/288/288
f 119/289/289 123/290/290 121/291/291
f 119/292/292 124/293/293 123/294/294
f 119/295/295 125/296/296 124/297/297
f 125/298/298 126/299/299 124/300/300
f 125/301/301 127/302/302 126/303/303
f 128/304/304 130/305/305 129/306/306
f 128/307/307 129/308/308 131/309/309
f 132/310/310 128/311/311 131/312/312
f 132/313/313 131/314/314 133/315/315
f 134/316/316 136/317/317 135/318/318
f 134/319/319 135/320/320 137/321/321
f 137/322/322 135/323/323 138/324/324
f 137/325/325 138/326/326 139/327/327
f 140/328/328 139/329/329 138/330/330
f 140/331/331 138/332/332 141/333/333
f 142/334/334 144/335/335 143/336/336
f 142/337/337 143/338/338 145/339/339
f 146/340/340 148/341/341 147/342/342
f 146/343/343 147/344/344 149/345/345
f 150/346/346 148/347/347 146/348/348
f 150/349/349 151/350/350 148/351/351
f 146/352/352 152/353/353 150/354/354
f 149/355/355 153/356/356 146/357/357
f 151/358/358 154/359/359 148/360/360
f 150/361/361 155/362/362 151/363/363
f 150/364/364 156/365/365 155/366/366
f 156/367/367 157/368/368 155/369/369
f 158/370/370 160/371/371 159/372/372
f 158/373/373 159/374/374 161/375/375
f 162/376/376 164/377/377 163/378/378
f 162/379/379 163/380/380 165/381/381
f 166/382/382 168/383/383 167/384/384
f 166/385/385 167/386/386 169/387/387
f 170/388/388 172/389/389 171/390/390
f 170/391/391 171/392/392 173/393/393
f 174/394/394 176/395/395 175/396/396
f 174/397/397 175/398/398 177/399/399
f 178/400/400 180/401/401 179/402/402
f 178/403/403 179/404/404 181/405/405
f 181/406/406 179/407/407 182/408/408
f 181/409/409 182/410/410 183/411/411
f 183/412/412 182/413/413 184/414/414
f 183/415/415 184/416/416 185/417/417
f 185/418/418 184/419/419 186/420/420
f 185/421/421 186/422/422 187/423/423
f 187/424/424 186/425/425 188/426/426
f 187/427/427 188/428/428 189/429/429
f 189/430/430 188/431/431 190/432/432
f 189/433/433 190/434/434 191/435/435
f 192/436/436 194/437/437 193/438/438
f 192/439/439 193/440/440 195/441/441
f 196/442/442 194/443/443 192/444/444
f 196/445/445 197/446/446 194/447/447
f 198/448/448 197/449/449 196/450/450
f 198/451/451 199/452/452 197/453/453
f 200/454/454 199/455/455 198/456/456
f 200/457/457 201/458/458 199/459/459
f 202/460/460 201/461/461 200/462/462
f 202/463/463 203/464/464 201/465/465
f 204/466/466 203/467/467 202/468/468
f 204/469/469 205/470/470 203/471/471
f 206/472/472 208/473/473 207/474/474
f 206/475/475 207/476/476 209/477/477
f 209/478/478 207/479/479 210/480/480
f 209/481/481 210/482/482 211/483/483
f 211/484/484 210/485/485 212/486/486
f 211/487/487 212/488/488 213/489/489
f 213/490/490 212/491/491 214/492/492
f 213/493/493 214/494/494 215/495/495
f 215/496/496 214/497/497 216/498/498
f 215/499/499 216/500/500 217/501/501
f 217/502/502 216/503/503 218/504/504
f 217/505/505 218/506/506 219/507/507
f 220/508/508 222/509/509 221/510/510
f 223/511/511 222/512/512 220/513/513
f 223/514/514 224/515/515 222/516/516
f 225/517/517 224/518/518 223/519/519
f 225/520/520 226/521/521 224/522/522
f 227/523/523 226/524/524 225/525/525
f 227/526/526 228/527/527 226/528/528
f 229/529/529 228/530/530 227/531/531
f 229/532/532 230/533/533 228/534/534
f 231/535/535 230/536/536 229/537/537
f 232/538/538 221/539/539 233/540/540
f 231/541/541 235/542/542 234/543/543
f 236/544/544 238/545/545 237/546/546
f 236/547/547 240/548/548 239/549/549
f 239/550/550 240/551/551 241/552/552
f 239/553/553 241/554/554 242/555/555
f 242/556/556 241/557/557 243/558/558
f 242/559/559 243/560/560 244/561/561
f 244/562/562 243/563/563 245/564/564
f 244/565/565 245/566/566 246/567/567
f 246/568/568 245/569/569 247/570/570
f 246/571/571 247/572/572 248/573/573
f 248/574/574 247/575/575 249/576/576
f 250/577/577 249/578/578 251/579/579
f 252/580/580 254/581/581 253/582/582
f 255/583/583 254/584/584 252/585/585
f 256/586/586 254/587/587 255/588/588
f 257/589/589 254/590/590 256/591/591
f 258/592/592 254/593/593 257/594/594
f 259/595/595 254/596/596 258/597/597
f 260/598/598 262/599/599 261/600/600
f 261/601/601 262/602/602 263/603/603
f 263/604/604 262/605/605 264/606/606
f 264/607/607 262/608/608 265/609/609
f 265/610/610 262/611/611 266/612/612
f 266/613/613 262/614/614 267/615/615
f 268/616/616 270/617/617 269/618/618
f 268/619/619 269/620/620 271/621/621
f 271/622/622 269/623/623 272/624/624
f 271/625/625 272/626/626 273/627/627
f 273/628/628 272/629/629 274/630/630
f 273/631/631 274/632/632 275/633/633
f 275/634/634 274/635/635 276/636/636
f 275/637/637 276/638/638 277/639/639
f 278/640/640 277/641/641 276/642/642
f 278/643/643 276/644/644 279/645/645
f 280/646/646 278/647/647 279/648/648
f 280/649/649 281/650/650 278/651/651
f 282/652/652 281/653/653 280/654/654
f 282/655/655 283/656/656 281/657/657
f 284/658/658 286/659/659 285/660/660
f 284/661/661 285/662/662 287/663/663
f 288/664/664 290/665/665 289/666/666
f 288/667/667 289/668/668 291/669/669
f 291/670/670 289/671/671 292/672/672
f 291/673/673 292/674/674 293/675/675
f 294/676/676 296/677/677 295/678/678
f 294/679/679 295/680/680 297/681/681
f 297/682/682 295/683/683 298/684/684
f 295/685/685 299/686/686 298/687/687
f 297/688/688 298/689/689 300/690/690
f 297/691/691 300/692/692 301/693/693
f 297/694/694 301/695/695 302/696/696
f 302/697/697 301/698/698 303/699/699
f 302/700/700 303/701/701 304/702/702
f 305/703/703 307/704/704 306/705/705
f 305/706/706 306/707/707 308/708/708
f 309/709/709 307/710/710 305/711/711
f 309/712/712 310/713/713 307/714/714
f 311/715/715 313/716/716 312/717/717
f 311/718/718 312/719/719 314/720/720
f 313/721/721 315/722/722 312/723/723
f 313/724/724 316/725/725 315/726/726
f 317/727/727 315/728/728 316/729/729
f 317/730/730 318/731/731 315/732/732
f 319/733/733 321/734/734 320/735/735
f 319/736/736 320/737/737 322/738/738
f 323/739/739 325/740/740 324/741/741
f 323/742/742 324/743/743 326/744/744
f 327/745/745 323/746/746 326/747/747
f 327/748/748 326/749/749 328/750/750
f 323/751/751 327/752/752 329/753/753
f 325/754/754 323/755/755 330/756/756
f 328/757/757 326/758/758 331/759/759
f 327/760/760 328/761/761 332/762/762
f 327/763/763 332/764/764 333/765/765
f 333/766/766 332/767/767 334/768/768
f 335/769/769 337/770/770 336/771/771
f 335/772/772 336/773/773 338/774/774
f 339/775/775 341/776/776 340/777/777
f 339/778/778 340/779/779 342/780/780
f 343/781/781 345/782/782 344/783/783
f 343/784/784 344/785/785 346/786/786
f 347/787/787 349/788/788 348/789/789
f 347/790/790 348/791/791 350/792/792
f 351/793/793 353/794/794 352/795/795
f 351/796/796 352/797/797 354/798/798
f 355/799/799 357/800/800 356/801/801
f 357/802/802 355/803/803 358/804/804
f 358/805/805 355/806/806 359/807/807
f 359/808/808 361/809/809 360/810/810
f 362/811/811 360/812/812 363/813/813
f 363/814/814 360/815/815 364/816/816
f 364/817/817 366/818/818 365/819/819
f 365/820/820 360/821/821 367/822/822
f 367/823/823 360/824/824 368/825/825
f 369/826/826 371/827/827 370/828/828
f 369/829/829 370/830/830 372/831/831
f 373/832/832 370/833/833 374/834/834
f 375/835/835 374/836/836 376/837/837
f 376/838/838 374/839/839 377/840/840
f 378/841/841 379/842/842 375/843/843
f 380/844/844 374/845/845 381/846/846
f 381/847/847 374/848/848 382/849/849
f 383/850/850 382/851/851 384/852/852
f 385/853/853 387/854/854 386/855/855
f 388/856/856 390/857/857 389/858/858
f 389/859/859 390/860/860 391/861/861
f 392/862/862 391/863/863 393/864/864
f 394/865/865 393/866/866 395/867/867
f 396/868/868 393/869/869 397/870/870
f 396/871/871 397/872/872 398/873/873
f 399/874/874 401/875/875 400/876/876
f 402/877/877 404/878/878 403/879/879
f 403/880/880 404/881/881 405/882/882
f 406/883/883 408/884/884 407/885/885
f 409/886/886 407/887/887 410/888/888
f 410/889/889 407/890/890 411/891/891
f 412/892/892 411/893/893 413/894/894
f 414/895/895 413/896/896 415/897/897
f 414/898/898 415/899/899 416/900/900
f 417/901/901 419/902/902 418/903/903
f 420/904/904 422/905/905 421/906/906
f 423/907/907 425/908/908 424/909/909
f 426/910/910 428/911/911 427/912/912
