<?xml version="1.0" encoding="utf-8"?>
<COLLADA xmlns="http://www.collada.org/2005/11/COLLADASchema" version="1.4.1" xmlns:xsi="http://www.w3.org/2001/XMLSchema-instance">
  <asset>
    <contributor>
      <author>Blender User</author>
      <authoring_tool>Blender 3.1.2 commit date:2022-03-31, commit time:17:40, hash:cc66d1020c3b</authoring_tool>
    </contributor>
    <created>2023-06-01T13:53:11</created>
    <modified>2023-06-01T13:53:11</modified>
    <unit name="meter" meter="1"/>
    <up_axis>Z_UP</up_axis>
  </asset>
  <library_effects>
    <effect id="Mt_CmnTex_Etc_GerudoArticles_Vase_I-effect">
      <profile_COMMON>
        <newparam sid="CmnTex_Etc_GerudoArticles_Vase_I_Alb_png-surface">
          <surface type="2D">
            <init_from>CmnTex_Etc_GerudoArticles_Vase_I_Alb_png</init_from>
          </surface>
        </newparam>
        <newparam sid="CmnTex_Etc_GerudoArticles_Vase_I_Alb_png-sampler">
          <sampler2D>
            <source>CmnTex_Etc_GerudoArticles_Vase_I_Alb_png-surface</source>
          </sampler2D>
        </newparam>
        <technique sid="common">
          <lambert>
            <emission>
              <color sid="emission">0 0 0 1</color>
            </emission>
            <diffuse>
              <texture texture="CmnTex_Etc_GerudoArticles_Vase_I_Alb_png-sampler" texcoord="Vase_S_01__Mt_CmnTex_Etc_GerudoArticles_Vase_I-texcoord"/>
            </diffuse>
            <index_of_refraction>
              <float sid="ior">1.45</float>
            </index_of_refraction>
          </lambert>
        </technique>
      </profile_COMMON>
    </effect>
  </library_effects>
  <library_images>
    <image id="CmnTex_Etc_GerudoArticles_Vase_I_Alb_png" name="CmnTex_Etc_GerudoArticles_Vase_I_Alb_png">
      <init_from>CmnTex_Etc_GerudoArticles_Vase_I_Alb.png</init_from>
    </image>
  </library_images>
  <library_materials>
    <material id="Mt_CmnTex_Etc_GerudoArticles_Vase_I-material" name="Mt_CmnTex_Etc_GerudoArticles_Vase_I">
      <instance_effect url="#Mt_CmnTex_Etc_GerudoArticles_Vase_I-effect"/>
    </material>
  </library_materials>
  <library_geometries>
    <geometry id="Vase_S_01__Mt_CmnTex_Etc_GerudoArticles_Vase_I-mesh" name="Vase_S_01__Mt_CmnTex_Etc_GerudoArticles_Vase_I">
      <mesh>
        <source id="Vase_S_01__Mt_CmnTex_Etc_GerudoArticles_Vase_I-mesh-positions">
          <float_array id="Vase_S_01__Mt_CmnTex_Etc_GerudoArticles_Vase_I-mesh-positions-array" count="168">0.007194519 -0.005218505 0.1158447 0.0127182 -0.03010559 0.1069946 0.0770874 -0.007408142 0.09912109 0.069458 -0.03167724 0.09008789 -0.07611083 -0.0245819 -0.06365966 -0.08874511 -0.003223419 -0.07611083 0.0326538 -0.01296997 -0.1030273 0.03372192 0.01174926 -0.116272 -0.1043701 -0.0397644 -0.04257202 -0.1229858 -0.01985168 -0.0475769 -0.07611083 -0.0245819 -0.06365966 -0.08874511 -0.003223419 -0.07611083 0.03372192 0.01174926 -0.116272 0.1117554 0.01542663 -0.05349731 0.0326538 -0.01296997 -0.1030273 0.1026611 -0.01010894 -0.04751586 0.0770874 -0.007408142 0.09912109 0.069458 -0.03167724 0.09008789 0.09686279 -0.008834838 0.003072738 0.1052856 0.01673889 0.00793457 0.1026611 -0.01010894 -0.04751586 0.1117554 0.01542663 -0.05349731 0.0127182 -0.03010559 0.1069946 0.007194519 -0.005218505 0.1158447 -0.05010986 -0.03268432 0.0772705 -0.06130981 -0.009338378 0.08691406 -0.09082031 -0.03100585 0.006637573 -0.1080322 -0.01055145 0.01221466 -0.1043701 -0.0397644 -0.04257202 -0.1229858 -0.01985168 -0.0475769 0.069458 -0.03167724 0.09008789 0.0127182 -0.03010559 0.1069946 0.03274536 0.01301574 7.78675e-4 0.09686279 -0.008834838 0.003072738 -0.05010986 -0.03268432 0.0772705 0.03320312 0.0139389 -0.04965209 0.1026611 -0.01010894 -0.04751586 0.0326538 -0.01296997 -0.1030273 -0.06842041 -0.01103973 0.002426147 -0.09082031 -0.03100585 0.006637573 -0.07330322 -0.01198577 -0.04776 -0.07611083 -0.0245819 -0.06365966 -0.1043701 -0.0397644 -0.04257202 0.007194519 -0.005218505 0.1158447 0.0770874 -0.007408142 0.09912109 0.03399658 0.04104614 0.005046844 -0.06130981 -0.009338378 0.08691406 0.1052856 0.01673889 0.00793457 -0.08087158 0.01367187 0.007465362 -0.1080322 -0.01055145 0.01221466 0.03460693 0.04211425 -0.05685424 0.1117554 0.01542663 -0.05349731 0.03372192 0.01174926 -0.116272 -0.08874511 -0.003223419 -0.07611083 -0.08642578 0.01268005 -0.05395507 -0.1229858 -0.01985168 -0.0475769</float_array>
          <technique_common>
            <accessor source="#Vase_S_01__Mt_CmnTex_Etc_GerudoArticles_Vase_I-mesh-positions-array" count="56" stride="3">
              <param name="X" type="float"/>
              <param name="Y" type="float"/>
              <param name="Z" type="float"/>
            </accessor>
          </technique_common>
        </source>
        <source id="Vase_S_01__Mt_CmnTex_Etc_GerudoArticles_Vase_I-mesh-normals">
          <float_array id="Vase_S_01__Mt_CmnTex_Etc_GerudoArticles_Vase_I-mesh-normals-array" count="144">0.2146393 -0.2846096 0.9343058 0.250633 -0.4059153 0.8788719 -0.2200309 -0.5851563 -0.7804989 -0.2275164 -0.4522415 -0.8623885 -0.3252618 -0.5050167 -0.7994766 -0.3116378 -0.6093682 -0.7290764 0.5852468 -0.402457 -0.7039281 0.5849738 -0.3765926 -0.7183201 0.914372 -0.3556197 0.1935423 0.9130933 -0.3590049 0.1933293 0.9286429 -0.3370514 0.1549804 0.9304598 -0.3325268 0.1538529 0.9424454 -0.31626 0.1085196 0.9443179 -0.3114569 0.1061055 -0.3819962 -0.3837534 0.8407214 -0.3666417 -0.4087932 0.8357404 -0.5530396 -0.5181204 0.6524557 -0.5483278 -0.544842 0.6344162 -0.673626 -0.6455966 0.359768 -0.6719474 -0.649883 0.3551604 -0.7233141 -0.6282212 0.2866271 -0.7353876 -0.6171354 0.2799089 -0.191317 -0.9069728 -0.3752309 0.04174715 -0.9284655 -0.3690651 -0.0456286 -0.982742 -0.1792659 -0.3147376 -0.9353324 -0.1615356 0.2631907 -0.9042288 -0.3363053 -0.04731869 -0.9748039 0.2179871 -0.3278664 -0.9349336 0.1356576 0.003850758 -0.8873621 0.4610571 0.4410965 -0.8794237 -0.1790192 0.635034 -0.7503212 -0.1837121 0.4609556 -0.8545176 0.2394155 0.4681041 -0.7310208 0.4964746 0.6715337 -0.7373438 0.07325762 -0.05485135 0.9260438 0.3734093 0.1833112 0.9055989 0.3824757 0.04542833 0.9825138 0.1805627 -0.2713046 0.9014695 0.3372636 0.3138266 0.9353964 0.1629313 -0.4422854 0.8786754 0.1797588 -0.6366299 0.749684 0.1807662 0.04255974 0.9731346 -0.2262693 0.3291648 0.9345324 -0.1352768 -0.01994544 0.8904028 -0.4547365 -0.4235701 0.7683279 -0.479855 -0.4487295 0.8586343 -0.2477683 -0.670454 0.7374176 -0.08189576</float_array>
          <technique_common>
            <accessor source="#Vase_S_01__Mt_CmnTex_Etc_GerudoArticles_Vase_I-mesh-normals-array" count="48" stride="3">
              <param name="X" type="float"/>
              <param name="Y" type="float"/>
              <param name="Z" type="float"/>
            </accessor>
          </technique_common>
        </source>
        <source id="Vase_S_01__Mt_CmnTex_Etc_GerudoArticles_Vase_I-mesh-map">
          <float_array id="Vase_S_01__Mt_CmnTex_Etc_GerudoArticles_Vase_I-mesh-map-array" count="288">0.3413596 0.881117 0.3467765 0.8691996 0.401709 0.8624247 0.401709 0.8624247 0.3467765 0.8691996 0.3862211 0.8555581 0.3163043 0.7559472 0.2988785 0.7473412 0.3589075 0.7334096 0.3589075 0.7334096 0.2988785 0.7473412 0.3612421 0.7201648 0.3026474 0.7668421 0.2886854 0.7636225 0.3163043 0.7559472 0.3163043 0.7559472 0.2886854 0.7636225 0.2988785 0.7473412 0.3612421 0.7201648 0.4007172 0.7628595 0.3589075 0.7334096 0.3589075 0.7334096 0.4007172 0.7628595 0.3878386 0.7667811 0.401709 0.8624247 0.3862211 0.8555581 0.3920043 0.7975585 0.401709 0.8624247 0.3920043 0.7975585 0.3996185 0.7955596 0.3996185 0.7955596 0.3920043 0.7975585 0.3878386 0.7667811 0.3996185 0.7955596 0.3878386 0.7667811 0.4007172 0.7628595 0.3467765 0.8691996 0.3413596 0.881117 0.3154956 0.8475624 0.3154956 0.8475624 0.3413596 0.881117 0.3015793 0.8564889 0.3154956 0.8475624 0.3015793 0.8564889 0.3020676 0.7976501 0.3020676 0.7976501 0.3015793 0.8564889 0.2925002 0.793286 0.3020676 0.7976501 0.2925002 0.793286 0.3026474 0.7668421 0.3026474 0.7668421 0.2925002 0.793286 0.2886854 0.7636225 0.3862211 0.8555581 0.3467765 0.8691996 0.3579614 0.7973297 0.3862211 0.8555581 0.3579614 0.7973297 0.3920043 0.7975585 0.3579614 0.7973297 0.3467765 0.8691996 0.3154956 0.8475624 0.3920043 0.7975585 0.3579614 0.7973297 0.3585718 0.7665675 0.3920043 0.7975585 0.3585718 0.7665675 0.3878386 0.7667811 0.3878386 0.7667811 0.3585718 0.7665675 0.3589075 0.7334096 0.3579614 0.7973297 0.3154956 0.8475624 0.3178912 0.7962921 0.3579614 0.7973297 0.3178912 0.7962921 0.3585718 0.7665675 0.3178912 0.7962921 0.3154956 0.8475624 0.3020676 0.7976501 0.3589075 0.7334096 0.3585718 0.7665675 0.3192187 0.7658045 0.3192187 0.7658045 0.3585718 0.7665675 0.3178912 0.7962921 0.3192187 0.7658045 0.3178912 0.7962921 0.3020676 0.7976501 0.3589075 0.7334096 0.3192187 0.7658045 0.3163043 0.7559472 0.3192187 0.7658045 0.3020676 0.7976501 0.3026474 0.7668421 0.3192187 0.7658045 0.3026474 0.7668421 0.3163043 0.7559472 0.1723964 0.5736172 0.07696646 0.5620508 0.1283284 0.5026321 0.1723964 0.5736172 0.1283284 0.5026321 0.1691157 0.5585107 0.1283284 0.5026321 0.07696646 0.5620508 0.1010605 0.5024796 0.1691157 0.5585107 0.1283284 0.5026321 0.168246 0.5048295 0.1691157 0.5585107 0.168246 0.5048295 0.1783475 0.5025101 0.1283284 0.5026321 0.1010605 0.5024796 0.1275349 0.475166 0.1283284 0.5026321 0.1275349 0.475166 0.168246 0.5048295 0.1275349 0.475166 0.1010605 0.5024796 0.1010452 0.4751507 0.1275349 0.475166 0.1010452 0.4751507 0.1288472 0.4439002 0.1275349 0.475166 0.1288472 0.4439002 0.1688258 0.462913 0.1783475 0.5025101 0.168246 0.5048295 0.1669795 0.4750439 0.1669795 0.4750439 0.168246 0.5048295 0.1275349 0.475166 0.1669795 0.4750439 0.1275349 0.475166 0.1688258 0.462913 0.1783475 0.5025101 0.1669795 0.4750439 0.1814603 0.4750592 0.1814603 0.4750592 0.1669795 0.4750439 0.1688258 0.462913</float_array>
          <technique_common>
            <accessor source="#Vase_S_01__Mt_CmnTex_Etc_GerudoArticles_Vase_I-mesh-map-array" count="144" stride="2">
              <param name="S" type="float"/>
              <param name="T" type="float"/>
            </accessor>
          </technique_common>
        </source>
        <vertices id="Vase_S_01__Mt_CmnTex_Etc_GerudoArticles_Vase_I-mesh-vertices">
          <input semantic="POSITION" source="#Vase_S_01__Mt_CmnTex_Etc_GerudoArticles_Vase_I-mesh-positions"/>
        </vertices>
        <triangles material="Mt_CmnTex_Etc_GerudoArticles_Vase_I-material" count="48">
          <input semantic="VERTEX" source="#Vase_S_01__Mt_CmnTex_Etc_GerudoArticles_Vase_I-mesh-vertices" offset="0"/>
          <input semantic="NORMAL" source="#Vase_S_01__Mt_CmnTex_Etc_GerudoArticles_Vase_I-mesh-normals" offset="1"/>
          <input semantic="TEXCOORD" source="#Vase_S_01__Mt_CmnTex_Etc_GerudoArticles_Vase_I-mesh-map" offset="2" set="0"/>
          <p>0 0 0 1 0 1 2 0 2 2 1 3 1 1 4 3 1 5 4 2 6 5 2 7 6 2 8 6 3 9 5 3 10 7 3 11 8 4 12 9 4 13 10 4 14 10 5 15 9 5 16 11 5 17 12 6 18 13 6 19 14 6 20 14 7 21 13 7 22 15 7 23 16 8 24 17 9 25 18 10 26 16 8 27 18 10 28 19 11 29 19 11 30 18 10 31 20 12 32 19 11 33 20 12 34 21 13 35 22 14 36 23 15 37 24 16 38 24 16 39 23 15 40 25 17 41 24 16 42 25 17 43 26 18 44 26 18 45 25 17 46 27 19 47 26 18 48 27 19 49 28 20 50 28 20 51 27 19 52 29 21 53 30 22 54 31 23 55 32 24 56 30 22 57 32 24 58 33 25 59 32 24 60 31 23 61 34 26 62 33 25 63 32 24 64 35 27 65 33 25 66 35 27 67 36 28 68 36 28 69 35 27 70 37 29 71 32 24 72 34 26 73 38 30 74 32 24 75 38 30 76 35 27 77 38 30 78 34 26 79 39 31 80 37 29 81 35 27 82 40 32 83 40 32 84 35 27 85 38 30 86 40 32 87 38 30 88 39 31 89 37 29 90 40 32 91 41 33 92 40 32 93 39 31 94 42 34 95 40 32 96 42 34 97 41 33 98 43 35 99 44 36 100 45 37 101 43 35 102 45 37 103 46 38 104 45 37 105 44 36 106 47 39 107 46 38 108 45 37 109 48 40 110 46 38 111 48 40 112 49 41 113 45 37 114 47 39 115 50 42 116 45 37 117 50 42 118 48 40 119 50 42 120 47 39 121 51 43 122 50 42 123 51 43 124 52 44 125 50 42 126 52 44 127 53 45 128 49 41 129 48 40 130 54 46 131 54 46 132 48 40 133 50 42 134 54 46 135 50 42 136 53 45 137 49 41 138 54 46 139 55 47 140 55 47 141 54 46 142 53 45 143</p>
        </triangles>
      </mesh>
    </geometry>
  </library_geometries>
  <library_controllers>
    <controller id="Armature_Vase_S_01__Mt_CmnTex_Etc_GerudoArticles_Vase_I-skin" name="Armature">
      <skin source="#Vase_S_01__Mt_CmnTex_Etc_GerudoArticles_Vase_I-mesh">
        <bind_shape_matrix>1 0 0 0 0 1 0 0 0 0 1 0 0 0 0 1</bind_shape_matrix>
        <source id="Armature_Vase_S_01__Mt_CmnTex_Etc_GerudoArticles_Vase_I-skin-joints">
          <Name_array id="Armature_Vase_S_01__Mt_CmnTex_Etc_GerudoArticles_Vase_I-skin-joints-array" count="1">Vase_S_01</Name_array>
          <technique_common>
            <accessor source="#Armature_Vase_S_01__Mt_CmnTex_Etc_GerudoArticles_Vase_I-skin-joints-array" count="1" stride="1">
              <param name="JOINT" type="name"/>
            </accessor>
          </technique_common>
        </source>
        <source id="Armature_Vase_S_01__Mt_CmnTex_Etc_GerudoArticles_Vase_I-skin-bind_poses">
          <float_array id="Armature_Vase_S_01__Mt_CmnTex_Etc_GerudoArticles_Vase_I-skin-bind_poses-array" count="16">1 0 0 0 0 -1.62921e-7 1 0 0 -1 -1.62921e-7 0 0 0 0 1</float_array>
          <technique_common>
            <accessor source="#Armature_Vase_S_01__Mt_CmnTex_Etc_GerudoArticles_Vase_I-skin-bind_poses-array" count="1" stride="16">
              <param name="TRANSFORM" type="float4x4"/>
            </accessor>
          </technique_common>
        </source>
        <source id="Armature_Vase_S_01__Mt_CmnTex_Etc_GerudoArticles_Vase_I-skin-weights">
          <float_array id="Armature_Vase_S_01__Mt_CmnTex_Etc_GerudoArticles_Vase_I-skin-weights-array" count="56">1 1 1 1 1 1 1 1 1 1 1 1 1 1 1 1 1 1 1 1 1 1 1 1 1 1 1 1 1 1 1 1 1 1 1 1 1 1 1 1 1 1 1 1 1 1 1 1 1 1 1 1 1 1 1 1</float_array>
          <technique_common>
            <accessor source="#Armature_Vase_S_01__Mt_CmnTex_Etc_GerudoArticles_Vase_I-skin-weights-array" count="56" stride="1">
              <param name="WEIGHT" type="float"/>
            </accessor>
          </technique_common>
        </source>
        <joints>
          <input semantic="JOINT" source="#Armature_Vase_S_01__Mt_CmnTex_Etc_GerudoArticles_Vase_I-skin-joints"/>
          <input semantic="INV_BIND_MATRIX" source="#Armature_Vase_S_01__Mt_CmnTex_Etc_GerudoArticles_Vase_I-skin-bind_poses"/>
        </joints>
        <vertex_weights count="56">
          <input semantic="JOINT" source="#Armature_Vase_S_01__Mt_CmnTex_Etc_GerudoArticles_Vase_I-skin-joints" offset="0"/>
          <input semantic="WEIGHT" source="#Armature_Vase_S_01__Mt_CmnTex_Etc_GerudoArticles_Vase_I-skin-weights" offset="1"/>
          <vcount>1 1 1 1 1 1 1 1 1 1 1 1 1 1 1 1 1 1 1 1 1 1 1 1 1 1 1 1 1 1 1 1 1 1 1 1 1 1 1 1 1 1 1 1 1 1 1 1 1 1 1 1 1 1 1 1 </vcount>
          <v>0 0 0 1 0 2 0 3 0 4 0 5 0 6 0 7 0 8 0 9 0 10 0 11 0 12 0 13 0 14 0 15 0 16 0 17 0 18 0 19 0 20 0 21 0 22 0 23 0 24 0 25 0 26 0 27 0 28 0 29 0 30 0 31 0 32 0 33 0 34 0 35 0 36 0 37 0 38 0 39 0 40 0 41 0 42 0 43 0 44 0 45 0 46 0 47 0 48 0 49 0 50 0 51 0 52 0 53 0 54 0 55</v>
        </vertex_weights>
      </skin>
    </controller>
  </library_controllers>
  <library_visual_scenes>
    <visual_scene id="Scene" name="Scene">
      <node id="Armature" name="Armature" type="NODE">
        <matrix sid="transform">1 0 0 0 0 -1.62921e-7 -1 0 0 1 -1.62921e-7 0 0 0 0 1</matrix>
        <node id="Armature_Root" name="Root" sid="Root" type="JOINT">
          <matrix sid="transform">1 0 0 0 0 1 0 0 0 0 1 0 0 0 0 1</matrix>
          <node id="Armature_Vase_S_01" name="Vase_S_01" sid="Vase_S_01" type="JOINT">
            <matrix sid="transform">1 0 0 0 0 1 0 0 0 0 1 0 0 0 0 1</matrix>
            <extra>
              <technique profile="blender">
                <layer sid="layer" type="string">0</layer>
                <tip_x sid="tip_x" type="float">0</tip_x>
                <tip_y sid="tip_y" type="float">1</tip_y>
                <tip_z sid="tip_z" type="float">0</tip_z>
              </technique>
            </extra>
          </node>
          <extra>
            <technique profile="blender">
              <layer sid="layer" type="string">0</layer>
              <tip_x sid="tip_x" type="float">0</tip_x>
              <tip_y sid="tip_y" type="float">1</tip_y>
              <tip_z sid="tip_z" type="float">0</tip_z>
            </technique>
          </extra>
        </node>
        <node id="Vase_S_01__Mt_CmnTex_Etc_GerudoArticles_Vase_I" name="Vase_S_01__Mt_CmnTex_Etc_GerudoArticles_Vase_I" type="NODE">
          <matrix sid="transform">1 0 0 0 0 1 0 0 0 0 1 0 0 0 0 1</matrix>
          <instance_controller url="#Armature_Vase_S_01__Mt_CmnTex_Etc_GerudoArticles_Vase_I-skin">
            <skeleton>#Armature_Root</skeleton>
            <bind_material>
              <technique_common>
                <instance_material symbol="Mt_CmnTex_Etc_GerudoArticles_Vase_I-material" target="#Mt_CmnTex_Etc_GerudoArticles_Vase_I-material">
                  <bind_vertex_input semantic="Vase_S_01__Mt_CmnTex_Etc_GerudoArticles_Vase_I-texcoord" input_semantic="TEXCOORD" input_set="0"/>
                </instance_material>
              </technique_common>
            </bind_material>
          </instance_controller>
        </node>
      </node>
    </visual_scene>
  </library_visual_scenes>
  <scene>
    <instance_visual_scene url="#Scene"/>
  </scene>
</COLLADA>