<?xml version="1.0" encoding="utf-8"?>
<COLLADA xmlns="http://www.collada.org/2005/11/COLLADASchema" version="1.4.1" xmlns:xsi="http://www.w3.org/2001/XMLSchema-instance">
  <asset>
    <contributor>
      <author>Blender User</author>
      <authoring_tool>Blender 3.1.2 commit date:2022-03-31, commit time:17:40, hash:cc66d1020c3b</authoring_tool>
    </contributor>
    <created>2023-06-01T13:52:03</created>
    <modified>2023-06-01T13:52:03</modified>
    <unit name="meter" meter="1"/>
    <up_axis>Z_UP</up_axis>
  </asset>
  <library_effects>
    <effect id="Mt_CmnTex_Etc_GerudoArticles_Vase_I-effect">
      <profile_COMMON>
        <newparam sid="CmnTex_Etc_GerudoArticles_Vase_I_Alb_png-surface">
          <surface type="2D">
            <init_from>CmnTex_Etc_GerudoArticles_Vase_I_Alb_png</init_from>
          </surface>
        </newparam>
        <newparam sid="CmnTex_Etc_GerudoArticles_Vase_I_Alb_png-sampler">
          <sampler2D>
            <source>CmnTex_Etc_GerudoArticles_Vase_I_Alb_png-surface</source>
          </sampler2D>
        </newparam>
        <technique sid="common">
          <lambert>
            <emission>
              <color sid="emission">0 0 0 1</color>
            </emission>
            <diffuse>
              <texture texture="CmnTex_Etc_GerudoArticles_Vase_I_Alb_png-sampler" texcoord="Root__Mt_CmnTex_Etc_GerudoArticles_Vase_I-texcoord"/>
            </diffuse>
            <index_of_refraction>
              <float sid="ior">1.45</float>
            </index_of_refraction>
          </lambert>
        </technique>
      </profile_COMMON>
    </effect>
  </library_effects>
  <library_images>
    <image id="CmnTex_Etc_GerudoArticles_Vase_I_Alb_png" name="CmnTex_Etc_GerudoArticles_Vase_I_Alb_png">
      <init_from>CmnTex_Etc_GerudoArticles_Vase_I_Alb.png</init_from>
    </image>
  </library_images>
  <library_materials>
    <material id="Mt_CmnTex_Etc_GerudoArticles_Vase_I-material" name="Mt_CmnTex_Etc_GerudoArticles_Vase_I">
      <instance_effect url="#Mt_CmnTex_Etc_GerudoArticles_Vase_I-effect"/>
    </material>
  </library_materials>
  <library_geometries>
    <geometry id="Root__Mt_CmnTex_Etc_GerudoArticles_Vase_I-mesh" name="Root__Mt_CmnTex_Etc_GerudoArticles_Vase_I">
      <mesh>
        <source id="Root__Mt_CmnTex_Etc_GerudoArticles_Vase_I-mesh-positions">
          <float_array id="Root__Mt_CmnTex_Etc_GerudoArticles_Vase_I-mesh-positions-array" count="1209">-0.05563354 0.6015625 -0.0974121 0.001220703 0.08990478 0.001327514 0.001220703 0.6015625 -0.1126708 0.09973144 0.6015625 -0.05581665 0.05807495 0.6015625 -0.0974121 0.09973144 0.6015625 0.05792236 0.1149291 0.6015625 0.001052856 0.001220703 0.6015625 0.1147461 0.05807495 0.6015625 0.09954833 -0.097229 0.6015625 0.05792236 -0.05563354 0.6015625 0.09954833 -0.097229 0.6015625 -0.05581665 -0.1124878 0.6015625 0.001052856 0.001220703 0.6015625 -0.1126708 0.001220703 0.08990478 0.001327514 0.05807495 0.6015625 -0.0974121 0.1149291 0.6015625 0.001052856 0.09973144 0.6015625 -0.05581665 0.05807495 0.6015625 0.09954833 0.09973144 0.6015625 0.05792236 -0.05563354 0.6015625 0.09954833 0.001220703 0.6015625 0.1147461 -0.1124878 0.6015625 0.001052856 -0.097229 0.6015625 0.05792236 -0.05563354 0.6015625 -0.0974121 -0.097229 0.6015625 -0.05581665 -0.1448975 0.001215934 0.08544921 0.001220703 4.85659e-4 0.1702881 -0.08349609 2.91824e-4 0.1478271 0.0859375 2.91824e-4 0.1478271 0.1707764 0 0.001105308 0.1479492 2.91824e-4 0.08581542 0.1485596 -7.47204e-4 -0.08392333 -0.08404541 -0.001317024 -0.1466064 -0.1687012 -4.31776e-4 0.001117706 -0.1462402 -0.001029014 -0.08404541 0.001220703 -0.001076698 -0.1693115 0.08648681 -0.001317024 -0.1466064 -0.1398926 0.6015625 0.001052856 -0.1124878 0.6015625 0.001052856 -0.097229 0.6015625 -0.05581665 -0.1209717 0.6015625 -0.06951904 -0.1567383 0.5737305 0.001052856 -0.05563354 0.6015625 -0.0974121 -0.1356201 0.5737305 -0.07794189 -0.1254883 0.503418 0.001099586 -0.06933593 0.6015625 -0.1211548 0.001220703 0.6015625 -0.1126708 0.001220703 0.6015625 -0.1400146 -0.07775878 0.5737305 -0.1357422 0.001220703 0.5737305 -0.1569824 0.001220703 0.503418 -0.1256104 -0.08477783 0.5043945 -0.0848999 -0.07617187 0.3837891 -0.1329346 0.001220703 0.3835449 -0.1536865 0.001220703 0.2624512 -0.2279053 -0.1328125 0.3837891 -0.07623291 -0.1536865 0.3835449 0.001183509 -0.2280273 0.2624512 0.001327514 -0.1121826 0.2595215 -0.1950684 0.001220703 0.2020264 -0.2409667 -0.1951904 0.2595215 -0.1120605 -0.2386475 0.2022705 0.001264572 -0.1182861 0.1992188 -0.2056885 0.001220703 0.03546142 -0.1932373 -0.2058105 0.1992188 -0.1181641 -0.1925049 0.03607177 0.001140594 -0.1298828 0.03518676 -0.1300049 -0.1462402 -0.001029014 -0.08404541 -0.1687012 -4.31776e-4 0.001117706 -0.08404541 -0.001317024 -0.1466064 0.001220703 -0.001076698 -0.1693115 0.001220703 0.6015625 0.1420898 0.001220703 0.6015625 0.1147461 -0.05563354 0.6015625 0.09954833 -0.06933593 0.6015625 0.123291 0.001220703 0.5737305 0.1590576 -0.097229 0.6015625 0.05792236 -0.07775878 0.5737305 0.1378174 0.001220703 0.5029297 0.1278076 -0.1209717 0.6015625 0.07159423 -0.1124878 0.6015625 0.001052856 -0.1398926 0.6015625 0.001052856 -0.1356201 0.5737305 0.08007812 -0.1567383 0.5737305 0.001052856 -0.1254883 0.503418 0.001099586 -0.08477783 0.5039063 0.08709716 -0.1328125 0.3835449 0.07861328 -0.1536865 0.3835449 0.001183509 -0.2280273 0.2624512 0.001327514 -0.07617187 0.3835449 0.1352539 0.001220703 0.3835449 0.1560059 0.001220703 0.2624512 0.2305908 -0.1951904 0.2595215 0.1147461 -0.2386475 0.2022705 0.001264572 -0.1121826 0.2595215 0.1977539 0.001220703 0.2022705 0.2412109 -0.2037354 0.1994629 0.1196289 -0.1171265 0.1994629 0.2062988 0.001220703 0.03671264 0.1942139 -0.1925049 0.03607177 0.001140594 -0.08349609 2.91824e-4 0.1478271 0.001220703 4.85659e-4 0.1702881 -0.1291504 0.0364685 0.1314697 -0.1448975 0.001215934 0.08544921 -0.1687012 -4.31776e-4 0.001117706 0.142334 0.6015625 0.001052856 0.1149291 0.6015625 0.001052856 0.09973144 0.6015625 0.05792236 0.1234131 0.6015625 0.07159423 0.1591797 0.5737305 0.001052856 0.05807495 0.6015625 0.09954833 0.1380615 0.5737305 0.08007812 0.1279297 0.503418 0.001099586 0.07177734 0.6015625 0.123291 0.001220703 0.6015625 0.1147461 0.001220703 0.6015625 0.1420898 0.08020019 0.5737305 0.1378174 0.001220703 0.5737305 0.1590576 0.001220703 0.5029297 0.1278076 0.08721923 0.5039063 0.08709716 0.07861328 0.3835449 0.1352539 0.001220703 0.3835449 0.1560059 0.1352539 0.3835449 0.07861328 0.1561279 0.3835449 0.001183509 0.001220703 0.2624512 0.2305908 0.2304688 0.2624512 0.001327514 0.114624 0.2595215 0.1977539 0.001220703 0.2022705 0.2412109 0.1976318 0.2595215 0.1147461 0.2410889 0.2022705 0.001264572 0.1195679 0.1994629 0.2062988 0.001220703 0.03671264 0.1942139 0.2061768 0.1994629 0.1196289 0.1943359 0.03671264 0.001119613 0.1315917 0.0364685 0.1314697 0.1479492 2.91824e-4 0.08581542 0.1707764 0 0.001105308 0.0859375 2.91824e-4 0.1478271 0.001220703 4.85659e-4 0.1702881 0.001220703 0.6015625 -0.1400146 0.001220703 0.6015625 -0.1126708 0.05807495 0.6015625 -0.0974121 0.07177734 0.6015625 -0.1211548 0.001220703 0.5737305 -0.1569824 0.09973144 0.6015625 -0.05581665 0.08020019 0.5737305 -0.1357422 0.001220703 0.503418 -0.1256104 0.1234131 0.6015625 -0.06951904 0.1149291 0.6015625 0.001052856 0.142334 0.6015625 0.001052856 0.1380615 0.5737305 -0.07794189 0.1591797 0.5737305 0.001052856 0.1279297 0.503418 0.001099586 0.08721923 0.5043945 -0.0848999 0.1352539 0.3837891 -0.07623291 0.1561279 0.3835449 0.001183509 0.07861328 0.3837891 -0.1329346 0.001220703 0.3835449 -0.1536865 0.2304688 0.2624512 0.001327514 0.001220703 0.2624512 -0.2279053 0.1976318 0.2595215 -0.1120605 0.2410889 0.2022705 0.001264572 0.114624 0.2595215 -0.1950684 0.001220703 0.2020264 -0.2409667 0.2061768 0.1994629 -0.1170654 0.1943359 0.03671264 0.001119613 0.1207275 0.1992188 -0.2056885 0.001220703 0.03546142 -0.1932373 0.1323242 0.03518676 -0.1300049 0.08648681 -0.001317024 -0.1466064 0.001220703 -0.001076698 -0.1693115 0.1485596 -7.47204e-4 -0.08392333 0.1707764 0 0.001105308 0.112854 0.5546875 -0.028656 0.1568604 0.5336914 -0.03085327 0.1011353 0.5200195 -0.01797485 0.1442871 0.4990234 -0.01892089 0.1011353 0.5200195 0.01797485 0.1885986 0.4865723 -0.02429199 0.2137451 0.5209961 -0.03747558 0.229126 0.4633789 -0.03527832 0.1442871 0.4990234 0.01892089 0.1568604 0.5336914 0.03085327 0.112854 0.5546875 0.028656 0.1885986 0.4865723 0.02429199 0.1905518 0.4743652 -0.02243041 0.1503906 0.3649902 -0.02906799 0.1323242 0.3947754 -0.01856994 0.1323242 0.3947754 0.01856994 0.1905518 0.4743652 0.02243041 0.1503906 0.3649902 0.02906799 0.229126 0.4633789 0.0352478 0.2137451 0.5209961 0.03747558 0.1663818 0.5537109 0 0.1223755 0.5742188 0 0.112854 0.5546875 -0.028656 0.1568604 0.5336914 -0.03085327 0.2137451 0.5209961 -0.03747558 0.2282715 0.5405273 0 0.2553711 0.5 0 0.229126 0.4633789 -0.03527832 0.2524414 0.4538574 0 0.1503906 0.3649902 -0.02906799 0.157959 0.3481445 0.0206604 0.157959 0.3481445 -0.0206604 0.163208 0.3408203 0 -0.112854 0.5546875 0.028656 -0.1568604 0.5336914 0.03085327 -0.1010742 0.5200195 0.01797485 -0.1442871 0.4990234 0.01892089 -0.1010742 0.5200195 -0.01797485 -0.1885986 0.4865723 0.02429199 -0.2137451 0.5209961 0.03747558 -0.229126 0.4628906 0.0352478 -0.1442871 0.4990234 -0.01892089 -0.1568604 0.5336914 -0.03085327 -0.112854 0.5546875 -0.028656 -0.1885986 0.4865723 -0.02429199 -0.1905518 0.473877 0.02243041 -0.1503906 0.3647461 0.02906799 -0.1323242 0.3945313 0.01856994 -0.1323242 0.3945313 -0.01856994 -0.1905518 0.473877 -0.02243041 -0.1503906 0.3647461 -0.02906799 -0.229126 0.4628906 -0.0352478 -0.2137451 0.5209961 -0.03747558 -0.1663818 0.5537109 0 -0.1223755 0.5742188 0 -0.112854 0.5546875 0.028656 -0.1568604 0.5336914 0.03085327 -0.2137451 0.5209961 0.03747558 -0.2282715 0.5405273 0 -0.2553711 0.5 0 -0.229126 0.4628906 0.0352478 -0.2524414 0.4538574 0 -0.1503906 0.3647461 0.02906799 -0.157959 0.3479004 -0.0206604 -0.157959 0.3479004 0.0206604 -0.163208 0.3405762 0 -0.1502686 0.3635254 0.0283966 -0.2407227 0.4736328 -0.02680969 -0.2315674 0.4667969 0.03631591 -0.1502686 0.3635254 0.0283966 -0.1348876 0.388916 -0.02282714 -0.2407227 0.4736328 -0.02680969 -0.2407227 0.4736328 -0.02680969 -0.1348876 0.388916 -0.02282714 -0.2315674 0.4667969 0.03631591 -0.1502686 0.3635254 0.0283966 -0.2315674 0.4667969 0.03631591 -0.1348876 0.388916 -0.02282714 -0.1101685 0.5537109 -0.02905273 -0.1188965 0.559082 0.03674316 -0.2407227 0.4736328 -0.02680969 -0.1101685 0.5537109 -0.02905273 -0.2407227 0.4736328 -0.02680969 -0.1188965 0.559082 0.03674316 -0.09887695 0.6025391 -0.05627441 -0.1124878 0.6015625 0.001052856 0.001220703 0.08990478 0.001327514 -0.1124878 0.6015625 0.001052856 -0.1058959 0.6049805 0.06591796 0.001220703 0.08990478 0.001327514 -0.1058959 0.6049805 0.06591796 -0.05758666 0.6040039 0.1044312 0.001220703 0.08990478 0.001327514 -0.05758666 0.6040039 0.1044312 0.002271652 0.6035156 0.1207275 0.001220703 0.08990478 0.001327514 0.002271652 0.6035156 0.1207275 0.06076049 0.6035156 0.1035156 0.001220703 0.08990478 0.001327514 0.06076049 0.6035156 0.1035156 0.1098633 0.6054688 0.06744384 0.001220703 0.08990478 0.001327514 0.1098633 0.6054688 0.06744384 0.1149291 0.6015625 0.001052856 0.001220703 0.08990478 0.001327514 0.1149291 0.6015625 0.001052856 0.1013184 0.6030273 -0.05636596 0.001220703 0.08990478 0.001327514 0.08496093 0.5761719 -0.1418457 0.003667831 0.5058594 -0.1491699 -0.08398437 0.5761719 -0.142334 -0.002592086 0.5078125 0.1362305 0.1346436 0.5708008 0.004631042 0.1098633 0.6054688 0.06744384 -0.1216431 0.5732422 0.005619049 -0.002592086 0.5078125 0.1362305 -0.1058959 0.6049805 0.06591796 0.08496093 0.5761719 -0.1418457 -0.08398437 0.5761719 -0.142334 0.001230239 0.6020508 -0.1132202 -0.002592086 0.5078125 0.1362305 0.142334 0.2607422 0.2220458 0.1346436 0.5708008 0.004631042 0.1098633 0.6054688 0.06744384 0.1013184 0.6030273 -0.05636596 0.1149291 0.6015625 0.001052856 -0.09887695 0.6025391 -0.05627441 -0.1058959 0.6049805 0.06591796 -0.1124878 0.6015625 0.001052856 -0.145752 -0.001327514 0.08605957 0.08630371 -0.002119064 0.1485596 0.001172065 0.02748107 0.2144775 0.1505126 0.3640137 -0.02857971 0.2307129 0.4689941 0.03308105 0.2322998 0.4675293 -0.03683471 0.1505126 0.3640137 -0.02857971 0.1350098 0.3891602 0.02279663 0.2307129 0.4689941 0.03308105 0.1505126 0.3640137 -0.02857971 0.2322998 0.4675293 -0.03683471 0.1350098 0.3891602 0.02279663 0.1350098 0.3891602 0.02279663 0.2322998 0.4675293 -0.03683471 0.2307129 0.4689941 0.03308105 -0.05581665 0.6025391 -0.09777832 -0.09887695 0.6025391 -0.05627441 0.001220703 0.08990478 0.001327514 0.05825805 0.6025391 -0.09771728 0.001230239 0.6020508 -0.1132202 0.1013184 0.6030273 -0.05636596 0.05825805 0.6025391 -0.09771728 0.001220703 0.08990478 0.001327514 0.001230239 0.6020508 -0.1132202 -0.05581665 0.6025391 -0.09777832 0.1346436 0.5708008 0.004631042 0.003667831 0.5058594 -0.1491699 0.08496093 0.5761719 -0.1418457 0.1346436 0.5708008 0.004631042 0.1013184 0.6030273 -0.05636596 0.1098633 0.6054688 0.06744384 0.003667831 0.5058594 -0.1491699 -0.1216431 0.5732422 0.005619049 -0.08398437 0.5761719 -0.142334 -0.1216431 0.5732422 0.005619049 -0.09887695 0.6025391 -0.05627441 -0.1058959 0.6049805 0.06591796 0.08630371 -0.002119064 0.1485596 0.1494141 -0.003421783 -0.08319091 0.2176514 0.02607727 0.00868988 -0.08435058 -0.003913879 -0.1466064 0.005306243 0.03079223 -0.2430419 -0.145752 -0.001327514 0.08605957 -0.2213135 0.02603149 6.31332e-4 0.1494141 -0.003421783 -0.08319091 0.08630371 -0.002119064 0.1485596 -0.08435058 -0.003913879 -0.1466064 -0.145752 -0.001327514 0.08605957 0.142334 0.2607422 0.2220458 0.2176514 0.02607727 0.00868988 0.237915 0.2001953 -0.1243896 0.1346436 0.5708008 0.004631042 0.1013184 0.6030273 -0.05636596 0.08496093 0.5761719 -0.1418457 0.05825805 0.6025391 -0.09771728 0.001230239 0.6020508 -0.1132202 -0.08398437 0.5761719 -0.142334 -0.05581665 0.6025391 -0.09777832 -0.09887695 0.6025391 -0.05627441 0.06076049 0.6035156 0.1035156 -0.002592086 0.5078125 0.1362305 0.1098633 0.6054688 0.06744384 0.002271652 0.6035156 0.1207275 -0.05758666 0.6040039 0.1044312 -0.002592086 0.5078125 0.1362305 0.002271652 0.6035156 0.1207275 -0.1058959 0.6049805 0.06591796 -0.1312256 0.2032471 0.2227783 0.142334 0.2607422 0.2220458 -0.002592086 0.5078125 0.1362305 0.001172065 0.02748107 0.2144775 0.237915 0.2001953 -0.1243896 0.2176514 0.02607727 0.00868988 0.005306243 0.03079223 -0.2430419 0.1494141 -0.003421783 -0.08319091 0.142334 0.2607422 0.2220458 0.001172065 0.02748107 0.2144775 0.2176514 0.02607727 0.00868988 0.08630371 -0.002119064 0.1485596 -0.1312256 0.2032471 0.2227783 -0.2213135 0.02603149 6.31332e-4 0.001172065 0.02748107 0.2144775 -0.145752 -0.001327514 0.08605957 0.1346436 0.5708008 0.004631042 0.237915 0.2001953 -0.1243896 0.003667831 0.5058594 -0.1491699 0.005306243 0.03079223 -0.2430419 -0.1269531 0.2619629 -0.2089844 -0.2213135 0.02603149 6.31332e-4 -0.1312256 0.2032471 0.2227783 -0.2355957 0.2634277 3.43323e-4 -0.1216431 0.5732422 0.005619049 -0.002592086 0.5078125 0.1362305 -0.08435058 -0.003913879 -0.1466064 -0.2213135 0.02603149 6.31332e-4 0.005306243 0.03079223 -0.2430419 -0.1269531 0.2619629 -0.2089844 -0.2355957 0.2634277 3.43323e-4 -0.1216431 0.5732422 0.005619049 0.003667831 0.5058594 -0.1491699</float_array>
          <technique_common>
            <accessor source="#Root__Mt_CmnTex_Etc_GerudoArticles_Vase_I-mesh-positions-array" count="403" stride="3">
              <param name="X" type="float"/>
              <param name="Y" type="float"/>
              <param name="Z" type="float"/>
            </accessor>
          </technique_common>
        </source>
        <source id="Root__Mt_CmnTex_Etc_GerudoArticles_Vase_I-mesh-normals">
          <float_array id="Root__Mt_CmnTex_Etc_GerudoArticles_Vase_I-mesh-normals-array" count="702">0.2534105 0.2103713 0.9442071 0.001219272 0.9999988 0.001099288 0.2534105 0.2103713 0.9442071 -0.6907922 0.2102639 0.6918058 -0.6907922 0.2102639 0.6918058 -0.9445986 0.2097878 -0.2524335 -0.9445985 0.2097878 -0.2524335 -0.2525183 0.209402 -0.9446615 -0.2525184 0.209402 -0.9446616 0.6916635 0.2095345 -0.6911563 0.6916635 0.2095345 -0.6911563 0.9443026 0.2099936 0.2533683 0.9443026 0.2099936 0.2533683 -0.2534104 0.2103713 0.9442072 -0.001187205 0.9999971 -0.002114415 -0.2534104 0.2103713 0.9442071 -0.9445449 0.2100468 0.2524192 -0.9445449 0.2100468 0.2524192 -0.6911506 0.2095736 -0.6916573 -0.6911506 0.2095737 -0.6916573 0.2525184 0.2094021 -0.9446615 0.2525184 0.209402 -0.9446615 0.9443565 0.2097334 -0.2533828 0.9443564 0.2097335 -0.2533828 0.6913053 0.2102242 0.6913052 0.6913053 0.2102242 0.6913052 0.008408367 -0.9996982 -0.02308702 -0.003137469 -0.99999 -0.003203988 0.004715621 -0.9999778 0.004715621 0.008097887 -0.9999451 0.006671309 -0.006492435 -0.9999366 0.009212076 0.001157224 -0.9999879 0.004796028 0.01583325 -0.9997612 0.01506465 0.003298342 -0.9999636 0.007882475 0.00263518 -0.9999963 -6.88369e-4 -0.00711435 -0.9998446 0.0161342 -0.5423493 0.8274742 -0.1454085 0 1 0 0 1 1.19611e-6 -0.4742522 0.8367393 -0.2737743 -0.9644559 0.05668133 -0.2580933 0 1 1.11285e-6 -0.8657793 0.03299891 -0.499337 -0.9294141 -0.1043123 -0.3539893 -0.2738148 0.8363702 -0.4748795 0 1 9.95664e-7 -0.1453173 0.8283019 -0.5411088 -0.4993265 0.03256356 -0.8658019 -0.2592771 0.05742418 -0.9640944 -0.3540968 -0.1047902 -0.9293195 -0.7017315 -0.1228935 -0.7017621 -0.4634885 0.3906636 -0.7953367 -0.2385816 0.3787297 -0.8942274 -0.2643839 0.3465679 -0.8999955 -0.7952059 0.3908349 -0.4635685 -0.8936591 0.3793244 -0.2397633 -0.9059771 0.3294223 -0.2658694 -0.481536 0.3457176 -0.8053587 -0.2807748 -0.02858424 -0.959348 -0.8080307 0.343413 -0.4787002 -0.9624866 -0.03737264 -0.2687432 -0.5089502 -0.05054861 -0.8593105 -0.3212785 -0.3749269 -0.8696035 -0.8635407 -0.05002051 -0.5017922 -0.8725119 -0.3740868 -0.3142964 -0.6633241 -0.3528128 -0.6599426 -0.8460164 -0.2789401 -0.4543665 -0.8186329 -0.5336916 -0.2121643 -0.4591115 -0.2774772 -0.8439331 -0.216007 -0.5348854 -0.8168467 -0.1440703 0.8287649 0.5407334 0 1 -7.63279e-7 -0.2745442 0.8359968 0.4751158 -0.2584779 0.05872094 0.9642308 0 1 3.81646e-7 -0.4996604 0.03386187 0.8655593 -0.3544023 -0.1018044 0.9295348 -0.4738436 0.8369551 0.2738222 -0.5422098 0.8276337 0.1450207 -0.8656839 0.03436988 0.4994097 -0.9645349 0.05687308 0.2577558 -0.9293955 -0.1047873 0.3538978 -0.702064 -0.1197726 0.7019692 -0.7944537 0.3921151 0.463777 -0.8934273 0.3791785 0.2408557 -0.9058654 0.3296048 0.2660238 -0.4632321 0.392659 0.7945029 -0.239536 0.3802486 0.8933272 -0.2658417 0.3300713 0.9057489 -0.8109079 0.3283345 0.4843809 -0.9590023 -0.04314774 0.2800946 -0.4842832 0.3286405 0.8108423 -0.2800513 -0.0453974 0.958911 -0.858446 -0.06622248 0.5086109 -0.5082285 -0.0672065 0.858596 -0.320775 -0.3752808 0.8696366 -0.8663672 -0.3748342 0.3300109 -0.4587559 -0.2831274 0.8422481 -0.214838 -0.5382303 0.8149558 -0.6611304 -0.3574896 0.659627 -0.8375513 -0.2994995 0.4569552 -0.8131166 -0.5303784 0.2398757 0.542365 0.8274522 0.1454759 0 1 1.19515e-6 0 1 -2.57766e-7 0.4740812 0.8370046 0.2732588 0.9644405 0.05707949 0.258063 0 1 -3.81358e-7 0.8658905 0.03428483 0.4990575 0.9293955 -0.1047874 0.3538978 0.2737653 0.8359489 0.4756492 0.1452135 0.8283092 0.5411258 0.4991108 0.03394138 0.8658732 0.2592496 0.05923974 0.9639919 0.3544023 -0.1018044 0.9295347 0.7020641 -0.1197727 0.701969 0.4632321 0.392659 0.794503 0.239536 0.3802486 0.8933272 0.7944535 0.3921152 0.4637772 0.8934271 0.379179 0.2408558 0.2658418 0.3300712 0.905749 0.9058653 0.3296043 0.2660245 0.4842831 0.3286405 0.8108425 0.2800514 -0.0453974 0.958911 0.810908 0.3283341 0.4843811 0.9589298 -0.04516923 0.2800241 0.5082284 -0.0672065 0.858596 0.320775 -0.3752808 0.8696366 0.8587148 -0.06711137 0.5080406 0.8707144 -0.3707717 0.3230866 0.6621022 -0.3513543 0.6619448 0.8439858 -0.2790307 0.4580721 0.8203993 -0.5265595 0.2228904 0.4574456 -0.2805039 0.8438372 0.214838 -0.5382304 0.8149557 0.1445698 0.8285999 -0.5408529 0 1 3.81512e-7 0.2741819 0.8364388 -0.4745466 0.2587718 0.05708473 -0.9642503 0 1 2.17483e-7 0.4996111 0.0324465 -0.865642 0.3540968 -0.1047902 -0.9293195 0.4740875 0.8367524 -0.2740191 0 1 2.48978e-7 0.5422281 0.8276159 -0.1450541 0.865681 0.03297626 -0.4995087 0.9645293 0.05652105 -0.2578539 0.9294142 -0.1043122 -0.3539892 0.7017316 -0.1228935 -0.701762 0.7952058 0.3908349 -0.4635686 0.8936591 0.3793246 -0.2397632 0.4634885 0.3906635 -0.7953367 0.2385816 0.3787297 -0.8942274 0.9059771 0.3294218 -0.2658701 0.264384 0.3465679 -0.8999955 0.8110871 0.3279973 -0.4843094 0.9589374 -0.04439288 -0.2801224 0.4849745 0.3432133 -0.8043659 0.2807748 -0.02858424 -0.959348 0.8619961 -0.06230795 -0.5030712 0.874262 -0.3686274 -0.3158797 0.5158746 -0.04963225 -0.8552252 0.3212785 -0.3749268 -0.8696034 0.6670609 -0.3507851 -0.6572516 0.4594464 -0.2781605 -0.8435259 0.216007 -0.5348854 -0.8168469 0.8480671 -0.2788145 -0.4506049 0.8228177 -0.5279427 -0.2103514 -0.1623052 -0.2400192 -0.957104 -0.1675074 -0.2550764 -0.9523011 -0.3647641 -0.7036417 -0.6097832 -0.3277822 -0.7612214 -0.5595543 -0.3647641 -0.7036417 0.6097832 -0.5265775 -0.4432944 -0.7254008 -0.2373595 -0.1913544 -0.9523886 -0.3041598 0.01592499 -0.952488 -0.3277822 -0.7612213 0.5595543 0.02160733 0.2940468 0.9555468 0.1166823 0.3256452 0.9382647 -0.5263656 -0.4433912 0.7254953 -0.7534063 0.1008437 -0.6497766 -0.2800639 0.1602762 -0.9465072 -0.6392024 0.4369418 -0.6328525 -0.6392024 0.4369418 0.6328525 -0.7531416 0.1008147 0.6500878 0.2120069 -0.1255091 0.9691753 0.3976922 -0.1572349 0.9039459 0.2548714 0.3620558 0.8966361 0.2839198 0.9588481 0 0.422406 0.9064068 0 0.3321136 0.731543 -0.5954372 0.2224836 0.7850749 -0.5780645 0.4908967 0.6076626 -0.624313 0.5650128 0.8250823 0 0.9688078 0.2478137 9.88955e-5 0.7401881 -0.2259975 -0.6332826 0.9299259 -0.367747 1.68384e-4 0.4818092 -0.281897 -0.8296952 0.6325755 -0.4409307 0.6367326 0.6325755 -0.4409306 -0.6367327 0.7849044 -0.6196169 0 0.1622006 -0.239792 0.9571785 0.1674339 -0.255052 0.9523206 0.3645046 -0.7040153 0.6095071 0.3275604 -0.7612797 0.5596048 0.3645048 -0.7040153 -0.6095072 0.5276743 -0.4404906 0.7263112 0.2375007 -0.1912462 0.9523752 0.3038557 0.0165171 0.952575 0.3275604 -0.7612797 -0.5596048 -0.0216546 0.2940576 -0.9555425 -0.1165801 0.3254492 -0.9383453 0.5276743 -0.4404904 -0.7263113 0.7518129 0.1060592 0.650791 0.2796122 0.1604745 0.9466071 0.6386674 0.4378994 0.6327307 0.6386675 0.4378994 -0.6327307 0.7518128 0.1060596 -0.6507911 -0.2123358 -0.12534 -0.9691251 -0.3983308 -0.1597594 -0.9032217 -0.2550302 0.3620173 -0.8966065 -0.2839198 0.9588481 0 -0.422406 0.9064068 0 -0.3321136 0.731543 0.5954372 -0.2224836 0.7850749 0.5780645 -0.4910374 0.6071164 0.6247335 -0.5650128 0.8250823 0 -0.9688202 0.2477653 0 -0.7410001 -0.2298544 0.6309405 -0.9305078 -0.3662721 0 -0.4824147 -0.2819384 0.8293291 -0.6331694 -0.440502 -0.6364389 -0.6331694 -0.4405021 0.636439 -0.7855539 -0.6187933 0</float_array>
          <technique_common>
            <accessor source="#Root__Mt_CmnTex_Etc_GerudoArticles_Vase_I-mesh-normals-array" count="234" stride="3">
              <param name="X" type="float"/>
              <param name="Y" type="float"/>
              <param name="Z" type="float"/>
            </accessor>
          </technique_common>
        </source>
        <source id="Root__Mt_CmnTex_Etc_GerudoArticles_Vase_I-mesh-map">
          <float_array id="Root__Mt_CmnTex_Etc_GerudoArticles_Vase_I-mesh-map-array" count="1716">-0.3689993 0.5874203 -0.06271553 0.5657521 -0.3688162 0.5467391 -0.3688162 0.5467391 -0.3688162 0.5875118 -0.06271553 0.5657521 -0.3686331 0.5466475 -0.3689993 0.5874203 -0.06271553 0.5657521 -0.3688162 0.5467391 -0.3686331 0.5874203 -0.06271553 0.5657521 -0.3688162 0.546556 -0.3688162 0.5873287 -0.06271553 0.5657521 -0.3689993 0.5466475 -0.3689993 0.5874203 -0.06271553 0.5657521 -0.3688162 0.5467391 -0.06271553 0.5657521 -0.3688162 0.5875118 -0.3689993 0.5874203 -0.3688162 0.5467391 -0.06271553 0.5657521 -0.3686331 0.5874203 -0.3686331 0.5466475 -0.06271553 0.5657521 -0.3688162 0.5873287 -0.3688162 0.5467391 -0.06271553 0.5657521 -0.3689993 0.5874203 -0.3688162 0.546556 -0.06271553 0.5657521 -0.3689993 0.5874203 -0.3689993 0.5466475 -0.06271553 0.5657521 0.1008332 0.2363659 0.132023 0.1645863 0.1236914 0.2060304 0.132023 0.1645863 0.1008332 0.2363659 0.1236914 0.1231422 0.06964319 0.08169806 0.1008332 0.09280681 0.1236914 0.1231422 0.06964319 0.08169806 0.1236914 0.1231422 0.03842276 0.09280681 0.1236914 0.1231422 0.1008332 0.2363659 0.01559495 0.2060304 0.1236914 0.1231422 0.01559495 0.2060304 0.03842276 0.09280681 0.01559495 0.2060304 0.1008332 0.2363659 0.06964319 0.2474441 0.01559495 0.2060304 0.06964319 0.2474441 0.03842276 0.2363659 0.03842276 0.09280681 0.01559495 0.2060304 0.007232844 0.1645863 0.03842276 0.09280681 0.007232844 0.1645863 0.01559495 0.1231422 0.2439955 0.7190771 0.2439955 0.7340617 0.1957762 0.7340617 0.2439955 0.7190771 0.1957762 0.7340617 0.1965697 0.7190771 0.2439955 0.7190771 0.1965697 0.7190771 0.2439955 0.7000946 0.1965697 0.7190771 0.1957762 0.7340617 0.1746269 0.7340617 0.2439955 0.7000946 0.1965697 0.7190771 0.1970275 0.700003 0.2439955 0.7000946 0.1970275 0.700003 0.2439955 0.6534928 0.1965697 0.7190771 0.1746269 0.7340617 0.173925 0.7190771 0.1965697 0.7190771 0.173925 0.7190771 0.1970275 0.700003 0.173925 0.7190771 0.1746269 0.7340617 0.1276589 0.7340617 0.173925 0.7190771 0.1276589 0.7340617 0.1276284 0.7190771 0.173925 0.7190771 0.1276284 0.7190771 0.1734672 0.700003 0.173925 0.7190771 0.1734672 0.700003 0.1970275 0.700003 0.1734672 0.700003 0.1276284 0.7190771 0.1276284 0.7000641 0.1734672 0.700003 0.1276284 0.7000641 0.1275979 0.6534928 0.1970275 0.700003 0.1734672 0.700003 0.1853389 0.6534623 0.1853389 0.6534623 0.1734672 0.700003 0.1275979 0.6534928 0.1970275 0.700003 0.1853389 0.6534623 0.2439955 0.6534928 0.1853389 0.6534623 0.1275979 0.6534928 0.1716666 0.5789056 0.1716666 0.5789056 0.1275979 0.6534928 0.127842 0.5788751 0.1716666 0.5789056 0.127842 0.5788751 0.1279336 0.4951017 0.2439955 0.6534928 0.1853389 0.6534623 0.1991943 0.5789056 0.1991943 0.5789056 0.1853389 0.6534623 0.1716666 0.5789056 0.2439955 0.6534928 0.1991943 0.5789056 0.2439955 0.5788751 0.2439955 0.5788751 0.1991943 0.5789056 0.2439955 0.4950712 0.1716666 0.5789056 0.1279336 0.4951017 0.1669057 0.4949186 0.1716666 0.5789056 0.1669057 0.4949186 0.1991943 0.5789056 0.1669057 0.4949186 0.1279336 0.4951017 0.1276284 0.4656209 0.2439955 0.4950712 0.1991943 0.5789056 0.2038637 0.4949186 0.2038637 0.4949186 0.1991943 0.5789056 0.1669057 0.4949186 0.2439955 0.4950712 0.2038637 0.4949186 0.2439955 0.4655904 0.1669057 0.4949186 0.1276284 0.4656209 0.1663564 0.4655293 0.1669057 0.4949186 0.1663564 0.4655293 0.2038637 0.4949186 0.1663564 0.4655293 0.1276284 0.4656209 0.1276895 0.3858455 0.2439955 0.4655904 0.2038637 0.4949186 0.2042909 0.4654988 0.2042909 0.4654988 0.2038637 0.4949186 0.1663564 0.4655293 0.2439955 0.4655904 0.2042909 0.4654988 0.2439955 0.3858455 0.2042909 0.4654988 0.1663564 0.4655293 0.1852168 0.3860897 0.2042909 0.4654988 0.1852168 0.3860897 0.2439955 0.3858455 0.1852168 0.3860897 0.1663564 0.4655293 0.1276895 0.3858455 0.2003844 0.3619495 0.2439955 0.3619495 0.2439955 0.3858455 0.2003844 0.3619495 0.2439955 0.3858455 0.1852168 0.3860897 0.2003844 0.3619495 0.1852168 0.3860897 0.1700186 0.3619495 0.1700186 0.3619495 0.1852168 0.3860897 0.1276895 0.3858455 0.1700186 0.3619495 0.1276895 0.3858455 0.1277199 0.3619495 0.1275368 0.7188025 0.1275368 0.7337871 0.07889032 0.7337565 0.1275368 0.7188025 0.07889032 0.7337565 0.07968384 0.7188025 0.1275368 0.7188025 0.07968384 0.7188025 0.1275368 0.6998504 0.07968384 0.7188025 0.07889032 0.7337565 0.05792409 0.7337565 0.1275368 0.6998504 0.07968384 0.7188025 0.0801416 0.6997589 0.1275368 0.6998504 0.0801416 0.6997589 0.1275979 0.6533097 0.07968384 0.7188025 0.05792409 0.7337565 0.05722218 0.7188025 0.07968384 0.7188025 0.05722218 0.7188025 0.0801416 0.6997589 0.05722218 0.7188025 0.05792409 0.7337565 0.00943017 0.7337871 0.05722218 0.7188025 0.00943017 0.7337871 0.00943017 0.7188025 0.05722218 0.7188025 0.00943017 0.7188025 0.0567339 0.6997589 0.05722218 0.7188025 0.0567339 0.6997589 0.0801416 0.6997589 0.0567339 0.6997589 0.00943017 0.7188025 0.00943017 0.6998199 0.0567339 0.6997589 0.00943017 0.6998199 0.00943017 0.6533097 0.0801416 0.6997589 0.0567339 0.6997589 0.06854456 0.6532792 0.06854456 0.6532792 0.0567339 0.6997589 0.00943017 0.6533097 0.0801416 0.6997589 0.06854456 0.6532792 0.1275979 0.6533097 0.06854456 0.6532792 0.00943017 0.6533097 0.05496382 0.5788445 0.05496382 0.5788445 0.00943017 0.6533097 0.00943017 0.578814 0.05496382 0.5788445 0.00943017 0.578814 0.00943017 0.4951628 0.1275979 0.6533097 0.06854456 0.6532792 0.08230841 0.5788445 0.08230841 0.5788445 0.06854456 0.6532792 0.05496382 0.5788445 0.1275979 0.6533097 0.08230841 0.5788445 0.1279031 0.578814 0.1279031 0.578814 0.08230841 0.5788445 0.1278726 0.4951323 0.05496382 0.5788445 0.00943017 0.4951628 0.05023342 0.4949797 0.05496382 0.5788445 0.05023342 0.4949797 0.08230841 0.5788445 0.05023342 0.4949797 0.00943017 0.4951628 0.01004058 0.4657124 0.1278726 0.4951323 0.08230841 0.5788445 0.0869472 0.4949797 0.0869472 0.4949797 0.08230841 0.5788445 0.05023342 0.4949797 0.1278726 0.4951323 0.0869472 0.4949797 0.1276284 0.4657124 0.05023342 0.4949797 0.01004058 0.4657124 0.0496841 0.4656209 0.1276284 0.4657124 0.0869472 0.4949797 0.08734393 0.4656209 0.08734393 0.4656209 0.0869472 0.4949797 0.05023342 0.4949797 0.08734393 0.4656209 0.05023342 0.4949797 0.0496841 0.4656209 0.1276284 0.4657124 0.08734393 0.4656209 0.1275674 0.3860897 0.0496841 0.4656209 0.01004058 0.4657124 0.00943017 0.3860897 0.08346807 0.3622547 0.1275368 0.3622547 0.1275674 0.3860897 0.08734393 0.4656209 0.0496841 0.4656209 0.06842249 0.3863643 0.08734393 0.4656209 0.06842249 0.3863643 0.1275674 0.3860897 0.1275674 0.3860897 0.06842249 0.3863643 0.08346807 0.3622547 0.06842249 0.3863643 0.0496841 0.4656209 0.00943017 0.3860897 0.08346807 0.3622547 0.06842249 0.3863643 0.05334633 0.3622547 0.05334633 0.3622547 0.06842249 0.3863643 0.00943017 0.3860897 0.05334633 0.3622547 0.00943017 0.3860897 0.00943017 0.3622547 0.2439955 0.7190771 0.2439955 0.7340617 0.1968139 0.7340617 0.2439955 0.7190771 0.1968139 0.7340617 0.1976073 0.7190771 0.2439955 0.7190771 0.1976073 0.7190771 0.2439955 0.7000946 0.1976073 0.7190771 0.1968139 0.7340617 0.1760613 0.7340617 0.2439955 0.7000946 0.1976073 0.7190771 0.1980651 0.700003 0.2439955 0.7000946 0.1980651 0.700003 0.2439955 0.6534928 0.1976073 0.7190771 0.1760613 0.7340617 0.1753899 0.7190771 0.1976073 0.7190771 0.1753899 0.7190771 0.1980651 0.700003 0.1753899 0.7190771 0.1760613 0.7340617 0.1276589 0.7340617 0.1753899 0.7190771 0.1276589 0.7340617 0.1276284 0.7190771 0.1753899 0.7190771 0.1276284 0.7190771 0.1749016 0.700003 0.1753899 0.7190771 0.1749016 0.700003 0.1980651 0.700003 0.1749016 0.700003 0.1276284 0.7190771 0.1276284 0.7000641 0.1749016 0.700003 0.1276284 0.7000641 0.1275979 0.6534928 0.1980651 0.700003 0.1749016 0.700003 0.1865902 0.6534623 0.1865902 0.6534623 0.1749016 0.700003 0.1275979 0.6534928 0.1980651 0.700003 0.1865902 0.6534623 0.2439955 0.6534928 0.1865902 0.6534623 0.1275979 0.6534928 0.173162 0.5789056 0.173162 0.5789056 0.1275979 0.6534928 0.127842 0.5788751 0.2439955 0.6534928 0.1865902 0.6534623 0.2001709 0.5789056 0.2001709 0.5789056 0.1865902 0.6534623 0.173162 0.5789056 0.2439955 0.6534928 0.2001709 0.5789056 0.2439955 0.5788751 0.173162 0.5789056 0.127842 0.5788751 0.1279641 0.4951017 0.2439955 0.5788751 0.2001709 0.5789056 0.2439955 0.4950712 0.173162 0.5789056 0.1279641 0.4951017 0.1684622 0.4949186 0.1684622 0.4949186 0.1279641 0.4951017 0.1276284 0.4656209 0.2001709 0.5789056 0.173162 0.5789056 0.2047792 0.4949186 0.2001709 0.5789056 0.2047792 0.4949186 0.2439955 0.4950712 0.2047792 0.4949186 0.173162 0.5789056 0.1684622 0.4949186 0.2439955 0.4950712 0.2047792 0.4949186 0.2442091 0.4655904 0.1684622 0.4949186 0.1276284 0.4656209 0.1679128 0.4655293 0.1684622 0.4949186 0.1679128 0.4655293 0.2047792 0.4949186 0.1679128 0.4655293 0.1276284 0.4656209 0.1276895 0.3858455 0.2442091 0.4655904 0.2047792 0.4949186 0.2052065 0.4654988 0.2052065 0.4654988 0.2047792 0.4949186 0.1679128 0.4655293 0.2442091 0.4655904 0.2052065 0.4654988 0.2439955 0.3858455 0.2052065 0.4654988 0.1679128 0.4655293 0.1864681 0.3860897 0.2052065 0.4654988 0.1864681 0.3860897 0.2439955 0.3858455 0.1864681 0.3860897 0.1679128 0.4655293 0.1276895 0.3858455 0.2013611 0.3619495 0.2439955 0.3619495 0.2439955 0.3858455 0.2013611 0.3619495 0.2439955 0.3858455 0.1864681 0.3860897 0.2013611 0.3619495 0.1864681 0.3860897 0.1715445 0.3619495 0.1715445 0.3619495 0.1864681 0.3860897 0.1276895 0.3858455 0.1715445 0.3619495 0.1276895 0.3858455 0.1277199 0.3619495 0.1275368 0.7188025 0.1275368 0.7337871 0.07904291 0.7337565 0.1275368 0.7188025 0.07904291 0.7337565 0.07983642 0.7188025 0.1275368 0.7188025 0.07983642 0.7188025 0.1275368 0.6998504 0.07983642 0.7188025 0.07904291 0.7337565 0.0577715 0.7337565 0.1275368 0.6998504 0.07983642 0.7188025 0.0803247 0.6997589 0.1275368 0.6998504 0.0803247 0.6997589 0.1275979 0.6533097 0.07983642 0.7188025 0.0577715 0.7337565 0.05706959 0.7188025 0.07983642 0.7188025 0.05706959 0.7188025 0.0803247 0.6997589 0.05706959 0.7188025 0.0577715 0.7337565 0.00943017 0.7337871 0.05706959 0.7188025 0.00943017 0.7337871 0.00943017 0.7188025 0.05706959 0.7188025 0.00943017 0.7188025 0.05658131 0.6997589 0.05706959 0.7188025 0.05658131 0.6997589 0.0803247 0.6997589 0.05658131 0.6997589 0.00943017 0.7188025 0.00943017 0.6998199 0.05658131 0.6997589 0.00943017 0.6998199 0.00943017 0.6533097 0.0803247 0.6997589 0.05658131 0.6997589 0.06854456 0.6532792 0.06854456 0.6532792 0.05658131 0.6997589 0.00943017 0.6533097 0.0803247 0.6997589 0.06854456 0.6532792 0.1275979 0.6533097 0.06854456 0.6532792 0.00943017 0.6533097 0.05478072 0.5788445 0.05478072 0.5788445 0.00943017 0.6533097 0.00943017 0.578814 0.1275979 0.6533097 0.06854456 0.6532792 0.08249151 0.5788445 0.08249151 0.5788445 0.06854456 0.6532792 0.05478072 0.5788445 0.1275979 0.6533097 0.08249151 0.5788445 0.1279031 0.578814 0.05478072 0.5788445 0.00943017 0.578814 0.00943017 0.4951628 0.1279031 0.578814 0.08249151 0.5788445 0.1278726 0.4951323 0.05478072 0.5788445 0.00943017 0.4951628 0.04998928 0.4949797 0.04998928 0.4949797 0.00943017 0.4951628 0.009247064 0.4657124 0.08249151 0.5788445 0.05478072 0.5788445 0.08719134 0.4949797 0.08249151 0.5788445 0.08719134 0.4949797 0.1278726 0.4951323 0.08719134 0.4949797 0.05478072 0.5788445 0.04998928 0.4949797 0.1278726 0.4951323 0.08719134 0.4949797 0.1276284 0.4657124 0.04998928 0.4949797 0.009247064 0.4657124 0.04943996 0.4656209 0.04998928 0.4949797 0.04943996 0.4656209 0.08719134 0.4949797 0.04943996 0.4656209 0.009247064 0.4657124 0.00943017 0.3860897 0.1276284 0.4657124 0.08719134 0.4949797 0.08761864 0.4656209 0.08761864 0.4656209 0.08719134 0.4949797 0.04943996 0.4656209 0.1276284 0.4657124 0.08761864 0.4656209 0.1275674 0.3860897 0.08761864 0.4656209 0.04943996 0.4656209 0.06842249 0.3863643 0.08761864 0.4656209 0.06842249 0.3863643 0.1275674 0.3860897 0.06842249 0.3863643 0.04943996 0.4656209 0.00943017 0.3860897 0.0836817 0.3622547 0.1275368 0.3622547 0.1275674 0.3860897 0.0836817 0.3622547 0.1275674 0.3860897 0.06842249 0.3863643 0.0836817 0.3622547 0.06842249 0.3863643 0.05313271 0.3622547 0.05313271 0.3622547 0.06842249 0.3863643 0.00943017 0.3860897 0.05313271 0.3622547 0.00943017 0.3860897 0.00943017 0.3622547 -0.548143 0.9608448 -0.548143 0.9302957 -0.5312357 0.9608448 -0.5312357 0.9608448 -0.548143 0.9302957 -0.5312357 0.9302957 -0.5312357 0.9608448 -0.5312357 0.9302957 -0.5142979 0.9608448 -0.5312357 0.9302957 -0.548143 0.9302957 -0.5312357 0.893521 -0.5312357 0.893521 -0.548143 0.9302957 -0.548143 0.893521 -0.5312357 0.893521 -0.548143 0.893521 -0.548143 0.8411817 -0.5142979 0.9608448 -0.5312357 0.9302957 -0.5142979 0.9302957 -0.5142979 0.9302957 -0.5312357 0.9302957 -0.5312357 0.893521 -0.5142979 0.9608448 -0.5142979 0.9302957 -0.4973907 0.9302957 -0.5142979 0.9608448 -0.4973907 0.9302957 -0.4973907 0.9608448 -0.5142979 0.9302957 -0.5312357 0.893521 -0.5142979 0.893521 -0.5142979 0.9302957 -0.5142979 0.893521 -0.4973907 0.9302957 -0.5312357 0.893521 -0.548143 0.8411817 -0.5312357 0.8411817 -0.5312357 0.8411817 -0.548143 0.8411817 -0.548143 0.7449263 -0.5312357 0.8411817 -0.548143 0.7449263 -0.5312357 0.7449263 -0.5312357 0.8411817 -0.5312357 0.7449263 -0.5142979 0.7449263 -0.5312357 0.893521 -0.5312357 0.8411817 -0.5142979 0.8411817 -0.5142979 0.8411817 -0.5312357 0.8411817 -0.5142979 0.7449263 -0.5312357 0.893521 -0.5142979 0.8411817 -0.5142979 0.893521 -0.5142979 0.8411817 -0.5142979 0.7449263 -0.4973907 0.7449263 -0.5142979 0.893521 -0.5142979 0.8411817 -0.4973907 0.8411817 -0.4973907 0.8411817 -0.5142979 0.8411817 -0.4973907 0.7449263 -0.4973907 0.893521 -0.4973907 0.9302957 -0.5142979 0.893521 -0.4973907 0.893521 -0.5142979 0.893521 -0.4973907 0.8411817 -0.4804834 0.9302957 -0.4973907 0.9608448 -0.4973907 0.9302957 -0.4804834 0.9302957 -0.4973907 0.9302957 -0.4973907 0.893521 -0.4973907 0.9608448 -0.4804834 0.9302957 -0.4804834 0.9608448 -0.4804834 0.9608448 -0.4804834 0.9302957 -0.4635457 0.9608448 -0.4635457 0.9608448 -0.4804834 0.9302957 -0.4635457 0.9302957 -0.4635457 0.9302957 -0.4804834 0.9302957 -0.4635457 0.893521 -0.4804834 0.9302957 -0.4973907 0.893521 -0.4804834 0.893521 -0.4804834 0.9302957 -0.4804834 0.893521 -0.4635457 0.893521 -0.4804834 0.893521 -0.4973907 0.893521 -0.4804834 0.8673666 -0.4804834 0.893521 -0.4804834 0.8673666 -0.4635457 0.893521 -0.4804834 0.8673666 -0.4973907 0.893521 -0.4973907 0.8411817 -0.4635457 0.893521 -0.4804834 0.8673666 -0.4635457 0.8411817 -0.4804834 0.8673666 -0.4973907 0.8411817 -0.4804834 0.8411817 -0.4804834 0.8673666 -0.4804834 0.8411817 -0.4635457 0.8411817 -0.4804834 0.8411817 -0.4973907 0.8411817 -0.4973907 0.7449263 -0.4635457 0.8411817 -0.4804834 0.8411817 -0.4635457 0.7449263 -0.4804834 0.8411817 -0.4973907 0.7449263 -0.4917448 0.7449263 -0.4635457 0.7449263 -0.4804834 0.8411817 -0.4691916 0.7449263 -0.4804834 0.8411817 -0.4917448 0.7449263 -0.4804834 0.7449263 -0.4804834 0.8411817 -0.4804834 0.7449263 -0.4691916 0.7449263 -0.548143 0.9608448 -0.548143 0.9302957 -0.5312357 0.9608448 -0.5312357 0.9608448 -0.548143 0.9302957 -0.5312357 0.9302957 -0.5312357 0.9608448 -0.5312357 0.9302957 -0.5142979 0.9608448 -0.5312357 0.9302957 -0.548143 0.9302957 -0.5312357 0.893521 -0.5312357 0.893521 -0.548143 0.9302957 -0.548143 0.893521 -0.5312357 0.893521 -0.548143 0.893521 -0.548143 0.8411817 -0.5142979 0.9608448 -0.5312357 0.9302957 -0.5142979 0.9302957 -0.5142979 0.9302957 -0.5312357 0.9302957 -0.5312357 0.893521 -0.5142979 0.9608448 -0.5142979 0.9302957 -0.4973907 0.9302957 -0.5142979 0.9608448 -0.4973907 0.9302957 -0.4973907 0.9608448 -0.5142979 0.9302957 -0.5312357 0.893521 -0.5142979 0.893521 -0.5142979 0.9302957 -0.5142979 0.893521 -0.4973907 0.9302957 -0.5312357 0.893521 -0.548143 0.8411817 -0.5312357 0.8411817 -0.5312357 0.8411817 -0.548143 0.8411817 -0.548143 0.7449263 -0.5312357 0.8411817 -0.548143 0.7449263 -0.5312357 0.7449263 -0.5312357 0.8411817 -0.5312357 0.7449263 -0.5142979 0.7449263 -0.5312357 0.893521 -0.5312357 0.8411817 -0.5142979 0.8411817 -0.5142979 0.8411817 -0.5312357 0.8411817 -0.5142979 0.7449263 -0.5312357 0.893521 -0.5142979 0.8411817 -0.5142979 0.893521 -0.5142979 0.8411817 -0.5142979 0.7449263 -0.4973907 0.7449263 -0.5142979 0.893521 -0.5142979 0.8411817 -0.4973907 0.8411817 -0.4973907 0.8411817 -0.5142979 0.8411817 -0.4973907 0.7449263 -0.4973907 0.893521 -0.4973907 0.9302957 -0.5142979 0.893521 -0.4973907 0.893521 -0.5142979 0.893521 -0.4973907 0.8411817 -0.4804834 0.9302957 -0.4973907 0.9608448 -0.4973907 0.9302957 -0.4804834 0.9302957 -0.4973907 0.9302957 -0.4973907 0.893521 -0.4973907 0.9608448 -0.4804834 0.9302957 -0.4804834 0.9608448 -0.4804834 0.9608448 -0.4804834 0.9302957 -0.4635457 0.9608448 -0.4635457 0.9608448 -0.4804834 0.9302957 -0.4635457 0.9302957 -0.4635457 0.9302957 -0.4804834 0.9302957 -0.4635457 0.893521 -0.4804834 0.9302957 -0.4973907 0.893521 -0.4804834 0.893521 -0.4804834 0.9302957 -0.4804834 0.893521 -0.4635457 0.893521 -0.4804834 0.893521 -0.4973907 0.893521 -0.4804834 0.8673666 -0.4804834 0.893521 -0.4804834 0.8673666 -0.4635457 0.893521 -0.4804834 0.8673666 -0.4973907 0.893521 -0.4973907 0.8411817 -0.4635457 0.893521 -0.4804834 0.8673666 -0.4635457 0.8411817 -0.4804834 0.8673666 -0.4973907 0.8411817 -0.4804834 0.8411817 -0.4804834 0.8673666 -0.4804834 0.8411817 -0.4635457 0.8411817 -0.4804834 0.8411817 -0.4973907 0.8411817 -0.4973907 0.7449263 -0.4635457 0.8411817 -0.4804834 0.8411817 -0.4635457 0.7449263 -0.4804834 0.8411817 -0.4973907 0.7449263 -0.4917448 0.7449263 -0.4635457 0.7449263 -0.4804834 0.8411817 -0.4691916 0.7449263 -0.4804834 0.8411817 -0.4917448 0.7449263 -0.4804834 0.7449263 -0.4804834 0.8411817 -0.4804834 0.7449263 -0.4691916 0.7449263</float_array>
          <technique_common>
            <accessor source="#Root__Mt_CmnTex_Etc_GerudoArticles_Vase_I-mesh-map-array" count="858" stride="2">
              <param name="S" type="float"/>
              <param name="T" type="float"/>
            </accessor>
          </technique_common>
        </source>
        <vertices id="Root__Mt_CmnTex_Etc_GerudoArticles_Vase_I-mesh-vertices">
          <input semantic="POSITION" source="#Root__Mt_CmnTex_Etc_GerudoArticles_Vase_I-mesh-positions"/>
        </vertices>
        <triangles material="Mt_CmnTex_Etc_GerudoArticles_Vase_I-material" count="286">
          <input semantic="VERTEX" source="#Root__Mt_CmnTex_Etc_GerudoArticles_Vase_I-mesh-vertices" offset="0"/>
          <input semantic="NORMAL" source="#Root__Mt_CmnTex_Etc_GerudoArticles_Vase_I-mesh-normals" offset="1"/>
          <input semantic="TEXCOORD" source="#Root__Mt_CmnTex_Etc_GerudoArticles_Vase_I-mesh-map" offset="2" set="0"/>
          <p>0 0 0 1 1 1 2 2 2 3 3 3 4 4 4 1 1 5 5 5 6 6 6 7 1 1 8 7 7 9 8 8 10 1 1 11 9 9 12 10 10 13 1 1 14 11 11 15 12 12 16 1 1 17 13 13 18 14 14 19 15 15 20 16 16 21 17 17 22 14 14 23 18 18 24 19 19 25 14 14 26 20 20 27 21 21 28 14 14 29 22 22 30 23 23 31 14 14 32 24 24 33 25 25 34 14 14 35 26 26 36 27 26 37 28 26 38 27 27 39 26 27 40 29 27 41 30 28 42 31 28 43 29 28 44 30 29 45 29 29 46 32 29 47 29 30 48 26 30 49 33 30 50 29 31 51 33 31 52 32 31 53 33 32 54 26 32 55 34 32 56 33 33 57 34 33 58 35 33 59 32 34 60 33 34 61 36 34 62 32 35 63 36 35 64 37 35 65 38 36 66 39 37 67 40 38 68 38 36 69 40 38 70 41 39 71 38 36 72 41 39 73 42 40 74 41 39 75 40 38 76 43 41 77 42 40 78 41 39 79 44 42 80 42 40 81 44 42 82 45 43 83 41 39 84 43 41 85 46 44 86 41 39 87 46 44 88 44 42 89 46 44 90 43 41 91 47 45 92 46 44 93 47 45 94 48 46 95 46 44 96 48 46 97 49 47 98 46 44 99 49 47 100 44 42 101 49 47 102 48 46 103 50 48 104 49 47 105 50 48 106 51 49 107 44 42 108 49 47 109 52 50 110 52 50 111 49 47 112 51 49 113 44 42 114 52 50 115 45 43 116 52 50 117 51 49 118 53 51 119 53 51 120 51 49 121 54 52 122 53 51 123 54 52 124 55 53 125 45 43 126 52 50 127 56 54 128 56 54 129 52 50 130 53 51 131 45 43 132 56 54 133 57 55 134 57 55 135 56 54 136 58 56 137 53 51 138 55 53 139 59 57 140 53 51 141 59 57 142 56 54 143 59 57 144 55 53 145 60 58 146 58 56 147 56 54 148 61 59 149 61 59 150 56 54 151 59 57 152 58 56 153 61 59 154 62 60 155 59 57 156 60 58 157 63 61 158 59 57 159 63 61 160 61 59 161 63 61 162 60 58 163 64 62 164 62 60 165 61 59 166 65 63 167 65 63 168 61 59 169 63 61 170 62 60 171 65 63 172 66 64 173 65 63 174 63 61 175 67 65 176 65 63 177 67 65 178 66 64 179 67 65 180 63 61 181 64 62 182 68 66 183 69 67 184 66 64 185 68 66 186 66 64 187 67 65 188 68 66 189 67 65 190 70 68 191 70 68 192 67 65 193 64 62 194 70 68 195 64 62 196 71 69 197 72 70 198 73 37 199 74 71 200 72 70 201 74 71 202 75 72 203 72 70 204 75 72 205 76 73 206 75 72 207 74 71 208 77 74 209 76 73 210 75 72 211 78 75 212 76 73 213 78 75 214 79 76 215 75 72 216 77 74 217 80 77 218 75 72 219 80 77 220 78 75 221 80 77 222 77 74 223 81 37 224 80 77 225 81 37 226 82 78 227 80 77 228 82 78 229 83 79 230 80 77 231 83 79 232 78 75 233 83 79 234 82 78 235 84 80 236 83 79 237 84 80 238 85 81 239 78 75 240 83 79 241 86 82 242 86 82 243 83 79 244 85 81 245 78 75 246 86 82 247 79 76 248 86 82 249 85 81 250 87 83 251 87 83 252 85 81 253 88 84 254 87 83 255 88 84 256 89 85 257 79 76 258 86 82 259 90 86 260 90 86 261 86 82 262 87 83 263 79 76 264 90 86 265 91 87 266 91 87 267 90 86 268 92 88 269 87 83 270 89 85 271 93 89 272 87 83 273 93 89 274 90 86 275 93 89 276 89 85 277 94 90 278 92 88 279 90 86 280 95 91 281 95 91 282 90 86 283 93 89 284 92 88 285 95 91 286 96 92 287 93 89 288 94 90 289 97 93 290 96 92 291 95 91 292 98 94 293 98 94 294 95 91 295 93 89 296 98 94 297 93 89 298 97 93 299 96 92 300 98 94 301 99 95 302 97 93 303 94 90 304 100 96 305 101 97 306 102 98 307 99 95 308 98 94 309 97 93 310 103 99 311 98 94 312 103 99 313 99 95 314 99 95 315 103 99 316 101 97 317 103 99 318 97 93 319 100 96 320 101 97 321 103 99 322 104 100 323 104 100 324 103 99 325 100 96 326 104 100 327 100 96 328 105 101 329 106 102 330 107 103 331 108 104 332 106 102 333 108 104 334 109 105 335 106 102 336 109 105 337 110 106 338 109 105 339 108 104 340 111 107 341 110 106 342 109 105 343 112 108 344 110 106 345 112 108 346 113 109 347 109 105 348 111 107 349 114 110 350 109 105 351 114 110 352 112 108 353 114 110 354 111 107 355 115 37 356 114 110 357 115 37 358 116 111 359 114 110 360 116 111 361 117 112 362 114 110 363 117 112 364 112 108 365 117 112 366 116 111 367 118 113 368 117 112 369 118 113 370 119 114 371 112 108 372 117 112 373 120 115 374 120 115 375 117 112 376 119 114 377 112 108 378 120 115 379 113 109 380 120 115 381 119 114 382 121 116 383 121 116 384 119 114 385 122 117 386 113 109 387 120 115 388 123 118 389 123 118 390 120 115 391 121 116 392 113 109 393 123 118 394 124 119 395 121 116 396 122 117 397 125 120 398 124 119 399 123 118 400 126 121 401 121 116 402 125 120 403 127 122 404 127 122 405 125 120 406 128 123 407 123 118 408 121 116 409 129 124 410 123 118 411 129 124 412 126 121 413 129 124 414 121 116 415 127 122 416 126 121 417 129 124 418 130 125 419 127 122 420 128 123 421 131 126 422 127 122 423 131 126 424 129 124 425 131 126 426 128 123 427 132 127 428 130 125 429 129 124 430 133 128 431 133 128 432 129 124 433 131 126 434 130 125 435 133 128 436 134 129 437 133 128 438 131 126 439 135 130 440 133 128 441 135 130 442 134 129 443 135 130 444 131 126 445 132 127 446 136 131 447 137 132 448 134 129 449 136 131 450 134 129 451 135 130 452 136 131 453 135 130 454 138 133 455 138 133 456 135 130 457 132 127 458 138 133 459 132 127 460 139 134 461 140 135 462 141 37 463 142 136 464 140 135 465 142 136 466 143 137 467 140 135 468 143 137 469 144 138 470 143 137 471 142 136 472 145 139 473 144 138 474 143 137 475 146 140 476 144 138 477 146 140 478 147 141 479 143 137 480 145 139 481 148 142 482 143 137 483 148 142 484 146 140 485 148 142 486 145 139 487 149 143 488 148 142 489 149 143 490 150 144 491 148 142 492 150 144 493 151 145 494 148 142 495 151 145 496 146 140 497 151 145 498 150 144 499 152 146 500 151 145 501 152 146 502 153 147 503 146 140 504 151 145 505 154 148 506 154 148 507 151 145 508 153 147 509 146 140 510 154 148 511 147 141 512 154 148 513 153 147 514 155 149 515 155 149 516 153 147 517 156 150 518 147 141 519 154 148 520 157 151 521 157 151 522 154 148 523 155 149 524 147 141 525 157 151 526 158 152 527 155 149 528 156 150 529 159 153 530 158 152 531 157 151 532 160 154 533 155 149 534 159 153 535 161 155 536 161 155 537 159 153 538 162 156 539 157 151 540 155 149 541 163 157 542 157 151 543 163 157 544 160 154 545 163 157 546 155 149 547 161 155 548 160 154 549 163 157 550 164 158 551 161 155 552 162 156 553 165 159 554 161 155 555 165 159 556 163 157 557 165 159 558 162 156 559 166 160 560 164 158 561 163 157 562 167 161 563 167 161 564 163 157 565 165 159 566 164 158 567 167 161 568 168 162 569 167 161 570 165 159 571 169 163 572 167 161 573 169 163 574 168 162 575 169 163 576 165 159 577 166 160 578 170 164 579 171 165 580 168 162 581 170 164 582 168 162 583 169 163 584 170 164 585 169 163 586 172 166 587 172 166 588 169 163 589 166 160 590 172 166 591 166 160 592 173 167 593 174 168 594 175 169 595 176 170 596 176 170 597 175 169 598 177 171 599 176 170 600 177 171 601 178 172 602 177 171 603 175 169 604 179 173 605 179 173 606 175 169 607 180 174 608 179 173 609 180 174 610 181 175 611 178 172 612 177 171 613 182 176 614 182 176 615 177 171 616 179 173 617 178 172 618 182 176 619 183 177 620 178 172 621 183 177 622 184 178 623 182 176 624 179 173 625 185 179 626 182 176 627 185 179 628 183 177 629 179 173 630 181 175 631 186 180 632 186 180 633 181 175 634 187 181 635 186 180 636 187 181 637 188 182 638 186 180 639 188 182 640 189 183 641 179 173 642 186 180 643 190 184 644 190 184 645 186 180 646 189 183 647 179 173 648 190 184 649 185 179 650 190 184 651 189 183 652 191 185 653 185 179 654 190 184 655 192 186 656 192 186 657 190 184 658 191 185 659 193 187 660 183 177 661 185 179 662 193 187 663 185 179 664 192 186 665 194 188 666 184 178 667 183 177 668 194 188 669 183 177 670 193 187 671 184 178 672 194 188 673 195 189 674 195 189 675 194 188 676 196 190 677 196 190 678 194 188 679 197 191 680 197 191 681 194 188 682 198 192 683 194 188 684 193 187 685 199 193 686 194 188 687 199 193 688 198 192 689 199 193 690 193 187 691 200 194 692 199 193 693 200 194 694 198 192 695 200 194 696 193 187 697 192 186 698 198 192 699 200 194 700 201 195 701 200 194 702 192 186 703 202 196 704 200 194 705 202 196 706 201 195 707 202 196 708 192 186 709 191 185 710 201 195 711 202 196 712 203 197 713 202 196 714 191 185 715 204 198 716 203 197 717 202 196 718 205 199 719 202 196 720 204 198 721 206 200 722 202 196 723 206 200 724 205 199 725 207 201 726 208 202 727 209 203 728 209 203 729 208 202 730 210 204 731 209 203 732 210 204 733 211 205 734 210 204 735 208 202 736 212 206 737 212 206 738 208 202 739 213 207 740 212 206 741 213 207 742 214 208 743 211 205 744 210 204 745 215 209 746 215 209 747 210 204 748 212 206 749 211 205 750 215 209 751 216 210 752 211 205 753 216 210 754 217 211 755 215 209 756 212 206 757 218 212 758 215 209 759 218 212 760 216 210 761 212 206 762 214 208 763 219 213 764 219 213 765 214 208 766 220 214 767 219 213 768 220 214 769 221 215 770 219 213 771 221 215 772 222 216 773 212 206 774 219 213 775 223 217 776 223 217 777 219 213 778 222 216 779 212 206 780 223 217 781 218 212 782 223 217 783 222 216 784 224 218 785 218 212 786 223 217 787 225 219 788 225 219 789 223 217 790 224 218 791 226 220 792 216 210 793 218 212 794 226 220 795 218 212 796 225 219 797 227 221 798 217 211 799 216 210 800 227 221 801 216 210 802 226 220 803 217 211 804 227 221 805 228 222 806 228 222 807 227 221 808 229 223 809 229 223 810 227 221 811 230 224 812 230 224 813 227 221 814 231 225 815 227 221 816 226 220 817 232 226 818 227 221 819 232 226 820 231 225 821 232 226 822 226 220 823 233 227 824 232 226 825 233 227 826 231 225 827 233 227 828 226 220 829 225 219 830 231 225 831 233 227 832 234 228 833 233 227 834 225 219 835 235 229 836 233 227 837 235 229 838 234 228 839 235 229 840 225 219 841 224 218 842 234 228 843 235 229 844 236 230 845 235 229 846 224 218 847 237 231 848 236 230 849 235 229 850 238 232 851 235 229 852 237 231 853 239 233 854 235 229 855 239 233 856 238 232 857</p>
        </triangles>
      </mesh>
    </geometry>
  </library_geometries>
  <library_controllers>
    <controller id="Armature_Root__Mt_CmnTex_Etc_GerudoArticles_Vase_I-skin" name="Armature">
      <skin source="#Root__Mt_CmnTex_Etc_GerudoArticles_Vase_I-mesh">
        <bind_shape_matrix>1 0 0 0 0 1 0 0 0 0 1 0 0 0 0 1</bind_shape_matrix>
        <source id="Armature_Root__Mt_CmnTex_Etc_GerudoArticles_Vase_I-skin-joints">
          <Name_array id="Armature_Root__Mt_CmnTex_Etc_GerudoArticles_Vase_I-skin-joints-array" count="1">Root</Name_array>
          <technique_common>
            <accessor source="#Armature_Root__Mt_CmnTex_Etc_GerudoArticles_Vase_I-skin-joints-array" count="1" stride="1">
              <param name="JOINT" type="name"/>
            </accessor>
          </technique_common>
        </source>
        <source id="Armature_Root__Mt_CmnTex_Etc_GerudoArticles_Vase_I-skin-bind_poses">
          <float_array id="Armature_Root__Mt_CmnTex_Etc_GerudoArticles_Vase_I-skin-bind_poses-array" count="16">1 0 0 0 0 -1.62921e-7 1 0 0 -1 -1.62921e-7 0 0 0 0 1</float_array>
          <technique_common>
            <accessor source="#Armature_Root__Mt_CmnTex_Etc_GerudoArticles_Vase_I-skin-bind_poses-array" count="1" stride="16">
              <param name="TRANSFORM" type="float4x4"/>
            </accessor>
          </technique_common>
        </source>
        <source id="Armature_Root__Mt_CmnTex_Etc_GerudoArticles_Vase_I-skin-weights">
          <float_array id="Armature_Root__Mt_CmnTex_Etc_GerudoArticles_Vase_I-skin-weights-array" count="403">1 1 1 1 1 1 1 1 1 1 1 1 1 1 1 1 1 1 1 1 1 1 1 1 1 1 1 1 1 1 1 1 1 1 1 1 1 1 1 1 1 1 1 1 1 1 1 1 1 1 1 1 1 1 1 1 1 1 1 1 1 1 1 1 1 1 1 1 1 1 1 1 1 1 1 1 1 1 1 1 1 1 1 1 1 1 1 1 1 1 1 1 1 1 1 1 1 1 1 1 1 1 1 1 1 1 1 1 1 1 1 1 1 1 1 1 1 1 1 1 1 1 1 1 1 1 1 1 1 1 1 1 1 1 1 1 1 1 1 1 1 1 1 1 1 1 1 1 1 1 1 1 1 1 1 1 1 1 1 1 1 1 1 1 1 1 1 1 1 1 1 1 1 1 1 1 1 1 1 1 1 1 1 1 1 1 1 1 1 1 1 1 1 1 1 1 1 1 1 1 1 1 1 1 1 1 1 1 1 1 1 1 1 1 1 1 1 1 1 1 1 1 1 1 1 1 1 1 1 1 1 1 1 1 1 1 1 1 1 1 1 1 1 1 1 1 1 1 1 1 1 1 1 1 1 1 1 1 1 1 1 1 1 1 1 1 1 1 1 1 1 1 1 1 1 1 1 1 1 1 1 1 1 1 1 1 1 1 1 1 1 1 1 1 1 1 1 1 1 1 1 1 1 1 1 1 1 1 1 1 1 1 1 1 1 1 1 1 1 1 1 1 1 1 1 1 1 1 1 1 1 1 1 1 1 1 1 1 1 1 1 1 1 1 1 1 1 1 1 1 1 1 1 1 1 1 1 1 1 1 1 1 1 1 1 1 1 1 1 1 1 1 1 1 1 1 1 1 1 1 1 1 1 1 1 1 1 1 1 1 1 1 1 1 1 1 1 1 1 1 1 1 1</float_array>
          <technique_common>
            <accessor source="#Armature_Root__Mt_CmnTex_Etc_GerudoArticles_Vase_I-skin-weights-array" count="403" stride="1">
              <param name="WEIGHT" type="float"/>
            </accessor>
          </technique_common>
        </source>
        <joints>
          <input semantic="JOINT" source="#Armature_Root__Mt_CmnTex_Etc_GerudoArticles_Vase_I-skin-joints"/>
          <input semantic="INV_BIND_MATRIX" source="#Armature_Root__Mt_CmnTex_Etc_GerudoArticles_Vase_I-skin-bind_poses"/>
        </joints>
        <vertex_weights count="403">
          <input semantic="JOINT" source="#Armature_Root__Mt_CmnTex_Etc_GerudoArticles_Vase_I-skin-joints" offset="0"/>
          <input semantic="WEIGHT" source="#Armature_Root__Mt_CmnTex_Etc_GerudoArticles_Vase_I-skin-weights" offset="1"/>
          <vcount>1 1 1 1 1 1 1 1 1 1 1 1 1 1 1 1 1 1 1 1 1 1 1 1 1 1 1 1 1 1 1 1 1 1 1 1 1 1 1 1 1 1 1 1 1 1 1 1 1 1 1 1 1 1 1 1 1 1 1 1 1 1 1 1 1 1 1 1 1 1 1 1 1 1 1 1 1 1 1 1 1 1 1 1 1 1 1 1 1 1 1 1 1 1 1 1 1 1 1 1 1 1 1 1 1 1 1 1 1 1 1 1 1 1 1 1 1 1 1 1 1 1 1 1 1 1 1 1 1 1 1 1 1 1 1 1 1 1 1 1 1 1 1 1 1 1 1 1 1 1 1 1 1 1 1 1 1 1 1 1 1 1 1 1 1 1 1 1 1 1 1 1 1 1 1 1 1 1 1 1 1 1 1 1 1 1 1 1 1 1 1 1 1 1 1 1 1 1 1 1 1 1 1 1 1 1 1 1 1 1 1 1 1 1 1 1 1 1 1 1 1 1 1 1 1 1 1 1 1 1 1 1 1 1 1 1 1 1 1 1 1 1 1 1 1 1 1 1 1 1 1 1 1 1 1 1 1 1 1 1 1 1 1 1 1 1 1 1 1 1 1 1 1 1 1 1 1 1 1 1 1 1 1 1 1 1 1 1 1 1 1 1 1 1 1 1 1 1 1 1 1 1 1 1 1 1 1 1 1 1 1 1 1 1 1 1 1 1 1 1 1 1 1 1 1 1 1 1 1 1 1 1 1 1 1 1 1 1 1 1 1 1 1 1 1 1 1 1 1 1 1 1 1 1 1 1 1 1 1 1 1 1 1 1 1 1 1 1 1 1 1 1 1 1 1 1 1 1 1 1 1 1 1 1 1 1 1 1 1 1 1 1 1 1 1 1 1 1 1 1 1 1 1 </vcount>
          <v>0 0 0 1 0 2 0 3 0 4 0 5 0 6 0 7 0 8 0 9 0 10 0 11 0 12 0 13 0 14 0 15 0 16 0 17 0 18 0 19 0 20 0 21 0 22 0 23 0 24 0 25 0 26 0 27 0 28 0 29 0 30 0 31 0 32 0 33 0 34 0 35 0 36 0 37 0 38 0 39 0 40 0 41 0 42 0 43 0 44 0 45 0 46 0 47 0 48 0 49 0 50 0 51 0 52 0 53 0 54 0 55 0 56 0 57 0 58 0 59 0 60 0 61 0 62 0 63 0 64 0 65 0 66 0 67 0 68 0 69 0 70 0 71 0 72 0 73 0 74 0 75 0 76 0 77 0 78 0 79 0 80 0 81 0 82 0 83 0 84 0 85 0 86 0 87 0 88 0 89 0 90 0 91 0 92 0 93 0 94 0 95 0 96 0 97 0 98 0 99 0 100 0 101 0 102 0 103 0 104 0 105 0 106 0 107 0 108 0 109 0 110 0 111 0 112 0 113 0 114 0 115 0 116 0 117 0 118 0 119 0 120 0 121 0 122 0 123 0 124 0 125 0 126 0 127 0 128 0 129 0 130 0 131 0 132 0 133 0 134 0 135 0 136 0 137 0 138 0 139 0 140 0 141 0 142 0 143 0 144 0 145 0 146 0 147 0 148 0 149 0 150 0 151 0 152 0 153 0 154 0 155 0 156 0 157 0 158 0 159 0 160 0 161 0 162 0 163 0 164 0 165 0 166 0 167 0 168 0 169 0 170 0 171 0 172 0 173 0 174 0 175 0 176 0 177 0 178 0 179 0 180 0 181 0 182 0 183 0 184 0 185 0 186 0 187 0 188 0 189 0 190 0 191 0 192 0 193 0 194 0 195 0 196 0 197 0 198 0 199 0 200 0 201 0 202 0 203 0 204 0 205 0 206 0 207 0 208 0 209 0 210 0 211 0 212 0 213 0 214 0 215 0 216 0 217 0 218 0 219 0 220 0 221 0 222 0 223 0 224 0 225 0 226 0 227 0 228 0 229 0 230 0 231 0 232 0 233 0 234 0 235 0 236 0 237 0 238 0 239 0 240 0 241 0 242 0 243 0 244 0 245 0 246 0 247 0 248 0 249 0 250 0 251 0 252 0 253 0 254 0 255 0 256 0 257 0 258 0 259 0 260 0 261 0 262 0 263 0 264 0 265 0 266 0 267 0 268 0 269 0 270 0 271 0 272 0 273 0 274 0 275 0 276 0 277 0 278 0 279 0 280 0 281 0 282 0 283 0 284 0 285 0 286 0 287 0 288 0 289 0 290 0 291 0 292 0 293 0 294 0 295 0 296 0 297 0 298 0 299 0 300 0 301 0 302 0 303 0 304 0 305 0 306 0 307 0 308 0 309 0 310 0 311 0 312 0 313 0 314 0 315 0 316 0 317 0 318 0 319 0 320 0 321 0 322 0 323 0 324 0 325 0 326 0 327 0 328 0 329 0 330 0 331 0 332 0 333 0 334 0 335 0 336 0 337 0 338 0 339 0 340 0 341 0 342 0 343 0 344 0 345 0 346 0 347 0 348 0 349 0 350 0 351 0 352 0 353 0 354 0 355 0 356 0 357 0 358 0 359 0 360 0 361 0 362 0 363 0 364 0 365 0 366 0 367 0 368 0 369 0 370 0 371 0 372 0 373 0 374 0 375 0 376 0 377 0 378 0 379 0 380 0 381 0 382 0 383 0 384 0 385 0 386 0 387 0 388 0 389 0 390 0 391 0 392 0 393 0 394 0 395 0 396 0 397 0 398 0 399 0 400 0 401 0 402</v>
        </vertex_weights>
      </skin>
    </controller>
  </library_controllers>
  <library_visual_scenes>
    <visual_scene id="Scene" name="Scene">
      <node id="Armature" name="Armature" type="NODE">
        <matrix sid="transform">1 0 0 0 0 -1.62921e-7 -1 0 0 1 -1.62921e-7 0 0 0 0 1</matrix>
        <node id="Armature_Root" name="Root" sid="Root" type="JOINT">
          <matrix sid="transform">1 0 0 0 0 1 0 0 0 0 1 0 0 0 0 1</matrix>
          <extra>
            <technique profile="blender">
              <layer sid="layer" type="string">0</layer>
              <tip_x sid="tip_x" type="float">0</tip_x>
              <tip_y sid="tip_y" type="float">1</tip_y>
              <tip_z sid="tip_z" type="float">0</tip_z>
            </technique>
          </extra>
        </node>
        <node id="Root__Mt_CmnTex_Etc_GerudoArticles_Vase_I" name="Root__Mt_CmnTex_Etc_GerudoArticles_Vase_I" type="NODE">
          <matrix sid="transform">1 0 0 0 0 1 0 0 0 0 1 0 0 0 0 1</matrix>
          <instance_controller url="#Armature_Root__Mt_CmnTex_Etc_GerudoArticles_Vase_I-skin">
            <skeleton>#Armature_Root</skeleton>
            <bind_material>
              <technique_common>
                <instance_material symbol="Mt_CmnTex_Etc_GerudoArticles_Vase_I-material" target="#Mt_CmnTex_Etc_GerudoArticles_Vase_I-material">
                  <bind_vertex_input semantic="Root__Mt_CmnTex_Etc_GerudoArticles_Vase_I-texcoord" input_semantic="TEXCOORD" input_set="0"/>
                </instance_material>
              </technique_common>
            </bind_material>
          </instance_controller>
        </node>
      </node>
    </visual_scene>
  </library_visual_scenes>
  <scene>
    <instance_visual_scene url="#Scene"/>
  </scene>
</COLLADA>