<?xml version="1.0" encoding="utf-8"?>
<COLLADA xmlns="http://www.collada.org/2005/11/COLLADASchema" version="1.4.1" xmlns:xsi="http://www.w3.org/2001/XMLSchema-instance">
  <asset>
    <contributor>
      <author>Blender User</author>
      <authoring_tool>Blender 3.1.2 commit date:2022-03-31, commit time:17:40, hash:cc66d1020c3b</authoring_tool>
    </contributor>
    <created>2023-06-01T13:49:57</created>
    <modified>2023-06-01T13:49:57</modified>
    <unit name="meter" meter="1"/>
    <up_axis>Z_UP</up_axis>
  </asset>
  <library_effects>
    <effect id="Mt_CmnTex_Etc_GerudoArticles_Vase_I-effect">
      <profile_COMMON>
        <newparam sid="CmnTex_Etc_GerudoArticles_Vase_I_Alb_png-surface">
          <surface type="2D">
            <init_from>CmnTex_Etc_GerudoArticles_Vase_I_Alb_png</init_from>
          </surface>
        </newparam>
        <newparam sid="CmnTex_Etc_GerudoArticles_Vase_I_Alb_png-sampler">
          <sampler2D>
            <source>CmnTex_Etc_GerudoArticles_Vase_I_Alb_png-surface</source>
          </sampler2D>
        </newparam>
        <technique sid="common">
          <lambert>
            <emission>
              <color sid="emission">0 0 0 1</color>
            </emission>
            <diffuse>
              <texture texture="CmnTex_Etc_GerudoArticles_Vase_I_Alb_png-sampler" texcoord="Root__Mt_CmnTex_Etc_GerudoArticles_Vase_I-texcoord"/>
            </diffuse>
            <index_of_refraction>
              <float sid="ior">1.45</float>
            </index_of_refraction>
          </lambert>
        </technique>
      </profile_COMMON>
    </effect>
  </library_effects>
  <library_images>
    <image id="CmnTex_Etc_GerudoArticles_Vase_I_Alb_png" name="CmnTex_Etc_GerudoArticles_Vase_I_Alb_png">
      <init_from>CmnTex_Etc_GerudoArticles_Vase_I_Alb.png</init_from>
    </image>
  </library_images>
  <library_materials>
    <material id="Mt_CmnTex_Etc_GerudoArticles_Vase_I-material" name="Mt_CmnTex_Etc_GerudoArticles_Vase_I">
      <instance_effect url="#Mt_CmnTex_Etc_GerudoArticles_Vase_I-effect"/>
    </material>
  </library_materials>
  <library_geometries>
    <geometry id="Root__Mt_CmnTex_Etc_GerudoArticles_Vase_I-mesh" name="Root__Mt_CmnTex_Etc_GerudoArticles_Vase_I">
      <mesh>
        <source id="Root__Mt_CmnTex_Etc_GerudoArticles_Vase_I-mesh-positions">
          <float_array id="Root__Mt_CmnTex_Etc_GerudoArticles_Vase_I-mesh-positions-array" count="1575">0.1295166 0.9956055 -0.07476806 0 0.2731934 0 0.1495361 0.9956055 0 0.07476806 0.9956055 -0.1295166 0 0.9956055 -0.1495361 -0.07476806 0.9956055 -0.1295166 -0.1295166 0.9956055 -0.07476806 -0.1495361 0.9956055 0 -0.1295166 0.9956055 0.07476806 -0.07476806 0.9956055 0.1295166 0 0.9956055 0.1495361 0.07476806 0.9956055 0.1295166 0.1295166 0.9956055 0.07476806 0.1495361 0.9956055 0 0 0.2731934 0 0.1295166 0.9956055 0.07476806 0.1295166 0.9956055 -0.07476806 0.07476806 0.9956055 -0.1295166 0 0.9956055 -0.1495361 -0.07476806 0.9956055 -0.1295166 -0.1295166 0.9956055 -0.07476806 -0.1495361 0.9956055 0 -0.1295166 0.9956055 0.07476806 -0.07476806 0.9956055 0.1295166 0 0.9956055 0.1495361 0.07476806 0.9956055 0.1295166 0.1628417 0 0.09399414 0.1628417 0 -0.09399414 0.1879883 0 0 0.09399414 0 -0.1628417 0 0 -0.1879883 0.09399414 0 0.1628417 0 0 0.1879883 -0.09399414 0 -0.1628417 -0.09399414 0 0.1628417 -0.1628417 0 0.09399414 -0.1879883 0 0 -0.1628417 0 -0.09399414 0 0.9956055 0.1495361 -0.07476806 0.9956055 0.1295166 0 0.9956055 0.1856689 -0.09283447 0.9956055 0.1607666 -0.1295166 0.9956055 0.07476806 0 0.9550781 0.197876 -0.1607666 0.9956055 0.09283447 -0.1495361 0.9956055 0 -0.1856689 0.9956055 0 -0.09893798 0.9550781 0.1713867 0 0.9155273 0.171875 -0.1173706 0.9155273 0.1173706 -0.1713867 0.9550781 0.09893798 -0.197876 0.9550781 0 -0.171875 0.9155273 0 -0.1495361 0.9956055 0 -0.1295166 0.9956055 -0.07476806 -0.1856689 0.9956055 0 -0.1607666 0.9956055 -0.09283447 -0.07476806 0.9956055 -0.1295166 -0.197876 0.9550781 0 -0.09283447 0.9956055 -0.1607666 0 0.9956055 -0.1495361 0 0.9956055 -0.1856689 -0.1713867 0.9550781 -0.09893798 -0.171875 0.9155273 0 -0.1173706 0.9155273 -0.1173706 -0.09893798 0.9550781 -0.1713867 0 0.9550781 -0.197876 0 0.9155273 -0.171875 0 0.9956055 -0.1495361 0.07476806 0.9956055 -0.1295166 0 0.9956055 -0.1856689 0.09283447 0.9956055 -0.1607666 0.1295166 0.9956055 -0.07476806 0 0.9550781 -0.197876 0.1607666 0.9956055 -0.09283447 0.1495361 0.9956055 0 0.1856689 0.9956055 0 0.09893798 0.9550781 -0.1713867 0 0.9155273 -0.171875 0.1173706 0.9155273 -0.1173706 0.1713867 0.9550781 -0.09893798 0.197876 0.9550781 0 0.171875 0.9155273 0 0.1495361 0.9956055 0 0.1295166 0.9956055 0.07476806 0.1856689 0.9956055 0 0.1607666 0.9956055 0.09283447 0.07476806 0.9956055 0.1295166 0.197876 0.9550781 0 0.09283447 0.9956055 0.1607666 0 0.9956055 0.1495361 0 0.9956055 0.1856689 0.1713867 0.9550781 0.09893798 0.171875 0.9155273 0 0.1173706 0.9155273 0.1173706 0.09893798 0.9550781 0.1713867 0 0.9550781 0.197876 0 0.9155273 0.171875 -0.1628417 0 0.09399414 -0.2242432 0.03375244 0 -0.1879883 0 0 -0.1942139 0.03375244 0.1121216 -0.09399414 0 0.1628417 -0.2736816 0.2856445 0.157959 -0.315918 0.2856445 0 -0.1121216 0.03375244 0.1942139 0 0 0.1879883 0 0.03375244 0.2242432 0 0.2856445 0.315918 -0.157959 0.2856445 0.2736816 0 0.5107422 0.3417969 -0.1708984 0.5107422 0.2958984 0 0.668457 0.3005371 -0.2958984 0.5107422 0.1708984 -0.3417969 0.5107422 0 -0.1502686 0.668457 0.2602539 0 0.7607422 0.2202148 -0.2602539 0.668457 0.1502686 -0.3005371 0.668457 0 -0.1101074 0.7607422 0.1906738 0 0.8457031 0.185791 -0.1906738 0.7607422 0.1101074 -0.2202148 0.7607422 0 -0.185791 0.8457031 0 -0.1268311 0.8457031 0.1268311 0 0.9155273 0.171875 -0.171875 0.9155273 0 -0.1173706 0.9155273 0.1173706 0 0.03375244 0.2242432 0 0 0.1879883 0.09399414 0 0.1628417 0.1121216 0.03375244 0.1942139 0.1628417 0 0.09399414 0.157959 0.2856445 0.2736816 0 0.2856445 0.315918 0.1942139 0.03375244 0.1121216 0.1879883 0 0 0.2242432 0.03375244 0 0.315918 0.2856445 0 0.2736816 0.2856445 0.157959 0.3417969 0.5107422 0 0.2958984 0.5107422 0.1708984 0.3005371 0.668457 0 0.1708984 0.5107422 0.2958984 0 0.5107422 0.3417969 0.2602539 0.668457 0.1502686 0.2202148 0.7607422 0 0.1502686 0.668457 0.2602539 0 0.668457 0.3005371 0.1906738 0.7607422 0.1101074 0.185791 0.8457031 0 0.1101074 0.7607422 0.1906738 0 0.7607422 0.2202148 0 0.8457031 0.185791 0.1268311 0.8457031 0.1268311 0.171875 0.9155273 0 0 0.9155273 0.171875 0.1173706 0.9155273 0.1173706 0.2242432 0.03375244 0 0.1879883 0 0 0.1628417 0 -0.09399414 0.1942139 0.03375244 -0.1121216 0.09399414 0 -0.1628417 0.2736816 0.2856445 -0.157959 0.315918 0.2856445 0 0.1121216 0.03375244 -0.1942139 0 0 -0.1879883 0 0.03375244 -0.2242432 0 0.2856445 -0.315918 0.157959 0.2856445 -0.2736816 0.1708984 0.5107422 -0.2958984 0 0.5151367 -0.3417969 0.2958984 0.5107422 -0.1708984 0.3417969 0.5107422 0 0.1502686 0.668457 -0.2602539 0 0.668457 -0.3005371 0 0.7607422 -0.2202148 0.2602539 0.668457 -0.1502686 0.3005371 0.668457 0 0.1101074 0.7607422 -0.1906738 0 0.8457031 -0.185791 0.1906738 0.7607422 -0.1101074 0.2202148 0.7607422 0 0.185791 0.8457031 0 0.1268311 0.8457031 -0.1268311 0 0.9155273 -0.171875 0.171875 0.9155273 0 0.1173706 0.9155273 -0.1173706 0 0.03375244 -0.2242432 0 0 -0.1879883 -0.09399414 0 -0.1628417 -0.1121216 0.03375244 -0.1942139 -0.1628417 0 -0.09399414 -0.157959 0.2856445 -0.2736816 0 0.2856445 -0.315918 -0.1942139 0.03375244 -0.1121216 -0.1879883 0 0 -0.2242432 0.03375244 0 -0.315918 0.2856445 0 -0.2736816 0.2856445 -0.157959 -0.3417969 0.5107422 0 -0.2958984 0.5107422 -0.1708984 -0.3005371 0.668457 0 -0.1708984 0.5107422 -0.2958984 0 0.5151367 -0.3417969 -0.2602539 0.668457 -0.1502686 -0.2202148 0.7607422 0 -0.1502686 0.668457 -0.2602539 0 0.668457 -0.3005371 -0.1906738 0.7607422 -0.1101074 -0.185791 0.8457031 0 -0.1101074 0.7607422 -0.1906738 0 0.7607422 -0.2202148 0 0.8457031 -0.185791 -0.1268311 0.8457031 -0.1268311 -0.171875 0.9155273 0 0 0.9155273 -0.171875 -0.1173706 0.9155273 -0.1173706 -0.3244629 0.7241211 0.04513549 -0.2697754 0.6733398 0 -0.2998047 0.7314453 0 -0.2875977 0.6494141 0.04995727 -0.3120117 0.7939453 0 -0.371582 0.7128906 0.02029418 -0.3034668 0.6142578 0.03897094 -0.3181152 0.597168 0 -0.3422852 0.7993164 0.06500244 -0.3007813 0.8564453 0.06500244 -0.2856445 0.8310547 0 -0.40625 0.809082 0.02923583 -0.371582 0.7128906 -0.02029418 -0.3034668 0.6142578 -0.03897094 -0.2875977 0.6494141 -0.04995727 -0.3845215 0.8676758 0.03863525 -0.40625 0.809082 -0.02923583 -0.3273926 0.9052734 0.02923583 -0.3845215 0.8676758 -0.03863525 -0.3422852 0.7993164 -0.06500244 -0.3244629 0.7241211 -0.04513549 -0.2697754 0.6733398 0 -0.2998047 0.7314453 0 -0.3120117 0.7939453 0 -0.3007813 0.8564453 -0.06500244 -0.2856445 0.8310547 0 -0.3273926 0.9052734 -0.02923583 -0.229248 0.8779297 -0.0463562 -0.2294922 0.8432617 0 -0.1765137 0.8349609 0 -0.1567383 0.878418 -0.0531311 -0.151001 0.9145508 -0.04278564 -0.229126 0.909668 -0.0208435 -0.1783447 0.9360352 -0.02389526 -0.229126 0.909668 0.0208435 -0.1783447 0.9360352 0.02389526 -0.151001 0.9145508 0.04278564 -0.229248 0.8779297 0.0463562 -0.1567383 0.878418 0.0531311 -0.1765137 0.8349609 0 -0.2294922 0.8432617 0 0.3244629 0.7241211 -0.04513549 0.2697754 0.6733398 0 0.2998047 0.7314453 0 0.2875977 0.6494141 -0.04995727 0.3120117 0.7939453 0 0.371582 0.7128906 -0.02029418 0.3034668 0.6142578 -0.03897094 0.3181152 0.597168 0 0.3422852 0.7993164 -0.06500244 0.3007813 0.8564453 -0.06500244 0.2856445 0.8310547 0 0.40625 0.809082 -0.02923583 0.371582 0.7128906 0.02029418 0.3034668 0.6142578 0.03897094 0.2875977 0.6494141 0.04995727 0.3845215 0.8676758 -0.03863525 0.40625 0.809082 0.02923583 0.3273926 0.9052734 -0.02923583 0.3845215 0.8676758 0.03863525 0.3422852 0.7993164 0.06500244 0.3244629 0.7241211 0.04513549 0.2697754 0.6733398 0 0.2998047 0.7314453 0 0.3120117 0.7939453 0 0.3007813 0.8564453 0.06500244 0.2856445 0.8310547 0 0.3273926 0.9052734 0.02923583 0.229248 0.8779297 0.0463562 0.2294922 0.8432617 0 0.1765137 0.8349609 0 0.1567383 0.878418 0.0531311 0.151001 0.9145508 0.04278564 0.229126 0.909668 0.0208435 0.1783447 0.9360352 0.02389526 0.229126 0.909668 -0.0208435 0.1783447 0.9360352 -0.02389526 0.151001 0.9145508 -0.04278564 0.229248 0.8779297 -0.0463562 0.1567383 0.878418 -0.0531311 0.1765137 0.8349609 0 0.2294922 0.8432617 0 0.1369629 0.996582 -0.07922363 0.09033203 1.020508 -0.1507568 0 0.2734375 0 0.09033203 1.020508 -0.1507568 -2.43068e-4 0.9975586 -0.1531982 0 0.2734375 0 -2.43068e-4 0.9975586 -0.1531982 -0.1547852 0.9980469 -3.85284e-4 0 0.2734375 0 -0.1547852 0.9980469 -3.85284e-4 -0.1329346 0.9970703 0.07733154 0 0.2734375 0 -0.1329346 0.9970703 0.07733154 -0.08752441 1.023438 0.147583 0 0.2734375 0 -0.08752441 1.023438 0.147583 3.32355e-4 0.9980469 0.1525879 0 0.2734375 0 3.32355e-4 0.9980469 0.1525879 0.0772705 0.996582 0.1314697 0 0.2734375 0 0.0772705 0.996582 0.1314697 0.1369629 0.996582 -0.07922363 0 0.2734375 0 0.003744125 0.9082031 0.1834717 0.1853027 0.9072266 7.41482e-4 0.1865234 0.9980469 0.1052246 0.1865234 0.9980469 0.1052246 0.1853027 0.9072266 7.41482e-4 0.1369629 0.996582 -0.07922363 0.0772705 0.996582 0.1314697 0.003744125 0.9082031 0.1834717 0.1865234 0.9980469 0.1052246 3.32355e-4 0.9980469 0.1525879 0.003744125 0.9082031 0.1834717 0.0772705 0.996582 0.1314697 -0.08752441 1.023438 0.147583 0.003744125 0.9082031 0.1834717 3.32355e-4 0.9980469 0.1525879 -0.001358985 0.9082031 -0.1807861 -0.1882324 0.9086914 -0.00294876 -0.1149902 0.9975586 -0.178833 0.2854004 0.6796875 0.1646729 0.1853027 0.9072266 7.41482e-4 0.003744125 0.9082031 0.1834717 -0.1719971 0.6782227 0.2966309 0.003744125 0.9082031 0.1834717 -0.1882324 0.9086914 -0.00294876 -0.2854004 0.6796875 -0.1651611 -0.1882324 0.9086914 -0.00294876 -0.001358985 0.9082031 -0.1807861 0.1708984 0.6782227 -0.2958984 -0.001358985 0.9082031 -0.1807861 0.1853027 0.9072266 7.41482e-4 0.0772705 0.996582 0.1314697 0.1865234 0.9980469 0.1052246 0.1369629 0.996582 -0.07922363 -2.43068e-4 0.9975586 -0.1531982 -0.1149902 0.9975586 -0.178833 -0.1547852 0.9980469 -3.85284e-4 -0.1149902 0.9975586 -0.178833 -0.1882324 0.9086914 -0.00294876 -0.1547852 0.9980469 -3.85284e-4 -0.1882324 0.9086914 -0.00294876 -0.1329346 0.9970703 0.07733154 -0.1547852 0.9980469 -3.85284e-4 -0.3820801 0.5102539 0.004894256 -0.2175292 0.01599121 -0.1254883 -0.2105713 0.02546691 0.1213379 0.3828125 0.5102539 -0.005115509 0.2167969 0.01522064 0.125 0.2109375 0.0261383 -0.1212158 0.3427734 0.7993164 -0.07464599 0.3442383 0.8071289 0.07208251 0.173584 0.8417969 0.005435943 0.1538086 0.8833008 -0.05560302 0.3427734 0.7993164 -0.07464599 0.173584 0.8417969 0.005435943 0.1538086 0.8833008 -0.05560302 0.1763916 0.9389648 0.03402709 0.3383789 0.9179688 -0.0274353 0.2888184 0.6474609 0.04852294 0.3442383 0.8071289 0.07208251 0.265625 0.6694336 -0.003097534 0.265625 0.6694336 -0.003097534 0.3442383 0.8071289 0.07208251 0.3427734 0.7993164 -0.07464599 0.4228516 0.8139648 0.0268402 0.3173828 0.5888672 -0.008216857 0.3427734 0.7993164 -0.07464599 0.3442383 0.8071289 0.07208251 0.1763916 0.9389648 0.03402709 0.173584 0.8417969 0.005435943 0.3173828 0.5888672 -0.008216857 0.265625 0.6694336 -0.003097534 0.3427734 0.7993164 -0.07464599 0.3383789 0.9179688 -0.0274353 0.3427734 0.7993164 -0.07464599 0.1538086 0.8833008 -0.05560302 0.3383789 0.9179688 -0.0274353 0.4228516 0.8139648 0.0268402 0.3427734 0.7993164 -0.07464599 -0.265625 0.6694336 0.003097534 -0.3442383 0.8071289 -0.07208251 -0.3427734 0.7993164 0.07464599 -0.3427734 0.7993164 0.07464599 -0.3442383 0.8071289 -0.07208251 -0.173584 0.8417969 -0.005435943 -0.1538086 0.8833008 0.05560302 -0.3427734 0.7993164 0.07464599 -0.173584 0.8417969 -0.005435943 -0.2888184 0.6474609 -0.04852294 -0.3442383 0.8071289 -0.07208251 -0.265625 0.6694336 0.003097534 -0.4228516 0.8139648 -0.0268402 -0.3173828 0.5888672 0.008216857 -0.3427734 0.7993164 0.07464599 -0.3442383 0.8071289 -0.07208251 -0.1763916 0.9389648 -0.03402709 -0.173584 0.8417969 -0.005435943 -0.3173828 0.5888672 0.008216857 -0.265625 0.6694336 0.003097534 -0.3427734 0.7993164 0.07464599 -0.3383789 0.9179688 0.0274353 -0.3427734 0.7993164 0.07464599 -0.1538086 0.8833008 0.05560302 -0.3383789 0.9179688 0.0274353 -0.4228516 0.8139648 -0.0268402 -0.3427734 0.7993164 0.07464599 -0.1763916 0.9389648 -0.03402709 -0.3383789 0.9179688 0.0274353 -0.1538086 0.8833008 0.05560302 -2.43068e-4 0.9975586 -0.1531982 -0.001358985 0.9082031 -0.1807861 -0.1149902 0.9975586 -0.178833 0.09033203 1.020508 -0.1507568 -0.001358985 0.9082031 -0.1807861 -1.88947e-4 0.02360534 0.2451172 -0.09576416 -0.01154327 0.1641846 0.2167969 0.01522064 0.125 -0.2175292 0.01599121 -0.1254883 -0.2105713 0.02546691 0.1213379 4.1008e-4 0.02296447 -0.2449951 0.09588623 -0.01367187 -0.1645508 -0.2175292 0.01599121 -0.1254883 0.2167969 0.01522064 0.125 0.2109375 0.0261383 -0.1212158 -0.1882324 0.9086914 -0.00294876 0.003744125 0.9082031 0.1834717 -0.08752441 1.023438 0.147583 -0.1329346 0.9970703 0.07733154 0.1853027 0.9072266 7.41482e-4 -0.001358985 0.9082031 -0.1807861 0.09033203 1.020508 -0.1507568 0.1369629 0.996582 -0.07922363 -0.2105713 0.02546691 0.1213379 -0.09576416 -0.01154327 0.1641846 -1.88947e-4 0.02360534 0.2451172 -0.1699219 0.2849121 0.2941895 0.2109375 0.0261383 -0.1212158 0.09588623 -0.01367187 -0.1645508 4.1008e-4 0.02296447 -0.2449951 0.1708984 0.2849121 -0.2961426 -0.1719971 0.6782227 0.2966309 0.2854004 0.6796875 0.1646729 0.003744125 0.9082031 0.1834717 0.1870117 0.5102539 0.3342285 -0.2854004 0.6796875 -0.1651611 -0.1719971 0.6782227 0.2966309 -0.1882324 0.9086914 -0.00294876 -0.3820801 0.5102539 0.004894256 0.1708984 0.6782227 -0.2958984 -0.2854004 0.6796875 -0.1651611 -0.001358985 0.9082031 -0.1807861 -0.1871338 0.5107422 -0.3342285 0.2854004 0.6796875 0.1646729 0.1708984 0.6782227 -0.2958984 0.1853027 0.9072266 7.41482e-4 0.3828125 0.5102539 -0.005115509 0.09588623 -0.01367187 -0.1645508 0.2167969 0.01522064 0.125 -0.09576416 -0.01154327 0.1641846 -0.2175292 0.01599121 -0.1254883 0.1870117 0.5102539 0.3342285 0.2167969 0.01522064 0.125 0.3828125 0.5102539 -0.005115509 0.2854004 0.6796875 0.1646729 -0.3820801 0.5102539 0.004894256 -0.2105713 0.02546691 0.1213379 -0.1699219 0.2849121 0.2941895 -0.1719971 0.6782227 0.2966309 -0.1871338 0.5107422 -0.3342285 -0.2175292 0.01599121 -0.1254883 -0.3820801 0.5102539 0.004894256 -0.2854004 0.6796875 -0.1651611 0.3828125 0.5102539 -0.005115509 0.2109375 0.0261383 -0.1212158 0.1708984 0.2849121 -0.2961426 0.1708984 0.6782227 -0.2958984 0.3383789 0.9179688 -0.0274353 0.1763916 0.9389648 0.03402709 0.3442383 0.8071289 0.07208251 0.4228516 0.8139648 0.0268402 0.2888184 0.6474609 0.04852294 0.4228516 0.8139648 0.0268402 0.3442383 0.8071289 0.07208251 0.3173828 0.5888672 -0.008216857 -0.3383789 0.9179688 0.0274353 -0.1763916 0.9389648 -0.03402709 -0.3442383 0.8071289 -0.07208251 -0.4228516 0.8139648 -0.0268402 -0.2888184 0.6474609 -0.04852294 -0.4228516 0.8139648 -0.0268402 -0.3442383 0.8071289 -0.07208251 -0.3173828 0.5888672 0.008216857 -0.1719971 0.6782227 0.2966309 -0.1699219 0.2849121 0.2941895 0.1870117 0.5102539 0.3342285 -1.88947e-4 0.02360534 0.2451172 0.2167969 0.01522064 0.125 -0.1871338 0.5107422 -0.3342285 4.1008e-4 0.02296447 -0.2449951 -0.2175292 0.01599121 -0.1254883 0.1708984 0.2849121 -0.2961426 0.1708984 0.6782227 -0.2958984</float_array>
          <technique_common>
            <accessor source="#Root__Mt_CmnTex_Etc_GerudoArticles_Vase_I-mesh-positions-array" count="525" stride="3">
              <param name="X" type="float"/>
              <param name="Y" type="float"/>
              <param name="Z" type="float"/>
            </accessor>
          </technique_common>
        </source>
        <source id="Root__Mt_CmnTex_Etc_GerudoArticles_Vase_I-mesh-normals">
          <float_array id="Root__Mt_CmnTex_Etc_GerudoArticles_Vase_I-mesh-normals-array" count="834">-0.9472231 0.196071 0.2536233 0 1 0 -0.2536234 0.1960709 0.9472231 -0.2536234 0.1960709 0.9472231 0.693381 0.1960752 0.693381 0.9472231 0.196071 -0.2536233 0.2536234 0.1960709 -0.9472231 0.2536234 0.1960709 -0.9472231 -0.693381 0.1960752 -0.693381 -0.9472231 0.196071 -0.2536233 0 1 0 -0.693381 0.1960752 0.693381 0.2536234 0.1960709 0.9472231 0.2536234 0.1960709 0.9472231 0.9472231 0.196071 0.2536233 0.693381 0.1960752 -0.693381 -0.2536234 0.1960709 -0.9472231 -0.2536234 0.1960709 -0.9472231 0 -1 0 0 1 0 0 1 -9.39198e-7 -0.1726244 0.7456961 0.6435357 -0.3265028 0.7574068 0.5654477 0 1 0 -0.2566018 -0.130329 0.9576899 -0.5653442 0.7574476 0.3265873 0 1 2.8783e-7 -0.6434718 0.7458122 0.1723605 -0.4839246 -0.1947771 0.8531581 -0.2430084 -0.5984704 0.7634004 -0.5360534 -0.6521452 0.5360535 -0.8531021 -0.1948392 0.4839987 -0.957722 -0.1304573 0.2564169 -0.7634007 -0.5984699 0.2430086 0 1 -2.75786e-6 0 1 1.09141e-6 -0.643535 0.7456964 -0.1726256 -0.5654473 0.7574068 -0.3265032 0 1 7.27581e-7 -0.95769 -0.1303282 -0.2566016 -0.3265869 0.7574477 -0.5653442 -0.1723608 0.7458124 -0.6434716 -0.8531577 -0.1947775 -0.4839253 -0.7634007 -0.5984699 -0.2430084 -0.5360534 -0.6521452 -0.5360535 -0.4839987 -0.1948391 -0.853102 -0.2564175 -0.1304578 -0.9577217 -0.2430084 -0.5984704 -0.7634004 0 1 9.39198e-7 0.1726244 0.7456961 -0.6435357 0.3265028 0.7574068 -0.5654477 0 1 0 0.2566018 -0.130329 -0.9576899 0.5653442 0.7574476 -0.3265873 0 1 -2.8783e-7 0.6434718 0.7458122 -0.1723605 0.4839246 -0.1947771 -0.8531581 0.2430084 -0.5984704 -0.7634004 0.5360534 -0.6521452 -0.5360535 0.8531021 -0.1948392 -0.4839987 0.957722 -0.1304573 -0.2564169 0.7634007 -0.5984699 -0.2430086 0 1 2.75786e-6 0 1 -1.09141e-6 0.643535 0.7456964 0.1726256 0.5654473 0.7574068 0.3265032 0 1 -7.27581e-7 0.95769 -0.1303282 0.2566016 0.3265869 0.7574477 0.5653442 0.1723608 0.7458124 0.6434716 0.8531577 -0.1947775 0.4839253 0.7634007 -0.5984699 0.2430084 0.5360534 -0.6521452 0.5360535 0.4839987 -0.1948391 0.853102 0.2564175 -0.1304578 0.9577217 0.2430084 -0.5984704 0.7634004 -0.5903155 -0.7317453 0.3406999 -0.8239282 -0.522024 0.22053 -0.6703476 -0.7200495 0.1793398 -0.7315924 -0.5351502 0.4223586 -0.3406471 -0.7317078 0.5903925 -0.8439196 -0.2251907 0.4869179 -0.9427739 -0.2179529 0.2523368 -0.4223043 -0.5351371 0.7316334 -0.1795057 -0.7199527 0.6704072 -0.2206683 -0.5219814 0.8239181 -0.2521334 -0.218265 0.9427562 -0.4869884 -0.2253458 0.8438375 -0.2585884 0.06649166 0.9636965 -0.4990625 0.06880187 0.8638305 -0.2326843 0.4397042 0.8674781 -0.8638696 0.0686292 0.4990184 -0.9636881 0.06615591 0.258706 -0.4460293 0.4520482 0.7724704 -0.2208914 0.5225238 0.8235144 -0.7724128 0.4521173 0.4460589 -0.8674337 0.4398505 0.2325733 -0.4116595 0.5605803 0.7185306 -0.3555004 0.3193829 0.8784158 -0.7185569 0.5605606 0.4116407 -0.8235289 0.5224777 0.2209466 -0.8784158 0.3193829 0.3555004 -0.6620149 0.3513869 0.6620147 -0.4147371 0.1776286 0.8924356 -0.8924356 0.1776286 0.4147371 -0.6944729 0.1881891 0.6944727 0.2205299 -0.5220239 0.8239282 0.1793398 -0.720049 0.6703481 0.3406999 -0.7317455 0.5903153 0.4223587 -0.5351502 0.7315924 0.5903924 -0.731708 0.340647 0.4869178 -0.2251906 0.8439196 0.2523367 -0.2179529 0.9427741 0.7316334 -0.5351372 0.4223043 0.6704074 -0.7199525 0.1795058 0.8239182 -0.5219813 0.2206684 0.9427561 -0.218265 0.2521336 0.8438374 -0.2253458 0.4869884 0.9636964 0.0664916 0.2585886 0.8638303 0.06880205 0.4990625 0.8674781 0.4397042 0.2326846 0.4990184 0.0686292 0.8638697 0.2587059 0.06615579 0.9636881 0.7724703 0.4520483 0.4460294 0.8235144 0.5225239 0.2208912 0.4460591 0.4521173 0.7724127 0.2325736 0.4398506 0.8674336 0.7185307 0.5605802 0.4116594 0.8784157 0.3193829 0.3555005 0.4116409 0.5605605 0.7185567 0.2209467 0.5224778 0.8235287 0.3555004 0.3193829 0.8784158 0.6620149 0.3513868 0.6620149 0.8924354 0.1776286 0.4147374 0.4147371 0.1776286 0.8924356 0.6944729 0.1881891 0.6944727 0.8239282 -0.522024 -0.22053 0.6703476 -0.7200495 -0.1793398 0.5903155 -0.7317453 -0.3406999 0.7315924 -0.5351502 -0.4223586 0.3406471 -0.7317078 -0.5903925 0.8439196 -0.2251907 -0.4869179 0.9427739 -0.2179529 -0.2523368 0.4223043 -0.5351371 -0.7316334 0.1795057 -0.7199527 -0.6704072 0.2206683 -0.5219814 -0.8239181 0.2518336 -0.2175942 -0.9429913 0.4868951 -0.2252197 -0.8439249 0.499939 0.06754249 -0.8634229 0.2588294 0.07166564 -0.9632608 0.8638696 0.0686292 -0.4990184 0.9636881 0.06615591 -0.258706 0.4467164 0.4528357 -0.7716115 0.2321365 0.4430149 -0.8659391 0.2208914 0.5225238 -0.8235144 0.7724128 0.4521173 -0.4460589 0.8674337 0.4398505 -0.2325733 0.4116595 0.5605803 -0.7185306 0.3555004 0.3193829 -0.8784158 0.7185569 0.5605606 -0.4116407 0.8235289 0.5224777 -0.2209466 0.8784158 0.3193829 -0.3555004 0.6620149 0.3513869 -0.6620147 0.4147371 0.1776286 -0.8924356 0.8924356 0.1776286 -0.4147371 0.6944729 0.1881891 -0.6944727 -0.2205299 -0.5220239 -0.8239282 -0.1793398 -0.720049 -0.6703481 -0.3406999 -0.7317455 -0.5903153 -0.4223587 -0.5351502 -0.7315924 -0.5903924 -0.731708 -0.340647 -0.4869178 -0.2251906 -0.8439196 -0.2517885 -0.2175405 -0.9430158 -0.7316334 -0.5351372 -0.4223043 -0.6704074 -0.7199525 -0.1795058 -0.8239182 -0.5219813 -0.2206684 -0.9427561 -0.218265 -0.2521336 -0.8438374 -0.2253458 -0.4869884 -0.9636964 0.0664916 -0.2585886 -0.8638303 0.06880205 -0.4990625 -0.8674781 0.4397042 -0.2326846 -0.4999389 0.06754261 -0.8634229 -0.2588294 0.07166558 -0.9632609 -0.7724703 0.4520483 -0.4460294 -0.8235144 0.5225239 -0.2208912 -0.4466997 0.4528511 -0.7716122 -0.2321671 0.4430412 -0.8659175 -0.7185307 0.5605802 -0.4116594 -0.8784157 0.3193829 -0.3555005 -0.4116409 0.5605605 -0.7185567 -0.2209467 0.5224778 -0.8235287 -0.3555004 0.3193829 -0.8784158 -0.6620149 0.3513868 -0.6620149 -0.8924354 0.1776286 -0.4147374 -0.4147371 0.1776286 -0.8924356 -0.6944729 0.1881891 -0.6944727 0.2775018 0.009553015 0.9606777 0.7760474 0.4091808 0.4799184 0.8201356 0.2874848 0.4947021 0.0372852 0.105067 0.993766 0.8692973 -0.2202861 0.4424889 -0.7986069 -0.360673 0.4818112 -0.6469897 -0.3153494 0.6942328 -0.8735183 -0.4867915 0 0.1230782 -0.1897941 0.974079 0.2519062 -0.04071742 0.9668947 0.5415952 -0.7068999 0.4549364 -0.892596 -0.03353077 0.4496091 -0.7986069 -0.360673 -0.4818112 -0.6469897 -0.3153494 -0.6942328 0.03728544 0.1050673 -0.993766 -0.6706296 0.5184319 0.5305511 -0.8925959 -0.03353071 -0.4496092 -0.2462021 0.8679211 0.4313903 -0.6706294 0.518432 -0.5305511 0.1230782 -0.1897941 -0.974079 0.2775019 0.009552955 -0.9606777 0.7760475 0.4091808 -0.479918 0.8201356 0.2874848 -0.4947021 0.8692973 -0.2202861 -0.4424888 0.2519061 -0.04071742 -0.9668948 0.5415952 -0.7068999 -0.4549366 -0.2462021 0.8679211 -0.4313903 0.006355404 -0.1133539 -0.9935344 0.02575725 -0.8006214 -0.5986167 -0.08586072 -0.7774923 -0.6230038 -0.09035623 -0.17795 -0.9798824 -0.1870406 0.4073122 -0.893931 -0.2131149 0.8668745 -0.4506783 -0.4068339 0.7181929 -0.5645222 -0.2131149 0.8668744 0.4506782 -0.4068339 0.7181928 0.5645222 -0.1870406 0.4073122 0.893931 0.006355404 -0.1133542 0.9935344 -0.09035629 -0.1779503 0.9798824 -0.08586072 -0.7774927 0.6230033 0.02575731 -0.8006215 0.5986166 -0.2775018 0.009553015 -0.9606777 -0.7760474 0.4091808 -0.4799184 -0.8201356 0.2874848 -0.4947021 -0.0372852 0.105067 -0.993766 -0.8692973 -0.2202861 -0.4424889 0.7986069 -0.360673 -0.4818112 0.6469897 -0.3153494 -0.6942328 0.8735183 -0.4867915 0 -0.1230782 -0.1897941 -0.974079 -0.2519062 -0.04071742 -0.9668947 -0.5415952 -0.7068999 -0.4549364 0.892596 -0.03353077 -0.4496091 0.7986069 -0.360673 0.4818112 0.6469897 -0.3153494 0.6942328 -0.03728544 0.1050673 0.993766 0.6706296 0.5184319 -0.5305511 0.8925959 -0.03353071 0.4496092 0.2462021 0.8679211 -0.4313903 0.6706294 0.518432 0.5305511 -0.1230782 -0.1897941 0.974079 -0.2775019 0.009552955 0.9606777 -0.7760475 0.4091808 0.479918 -0.8201356 0.2874848 0.4947021 -0.8692973 -0.2202861 0.4424888 -0.2519061 -0.04071742 0.9668948 -0.5415952 -0.7068999 0.4549366 0.2462021 0.8679211 0.4313903 -0.006355404 -0.1133539 0.9935344 -0.02575725 -0.8006214 0.5986167 0.08586072 -0.7774923 0.6230038 0.09035623 -0.17795 0.9798824 0.1870406 0.4073122 0.893931 0.2131149 0.8668745 0.4506783 0.4068339 0.7181929 0.5645222 0.2131149 0.8668744 -0.4506782 0.4068339 0.7181928 -0.5645222 0.1870406 0.4073122 -0.893931 -0.006355404 -0.1133542 -0.9935344 0.09035629 -0.1779503 -0.9798824 0.08586072 -0.7774927 -0.6230033 -0.02575731 -0.8006215 -0.5986166</float_array>
          <technique_common>
            <accessor source="#Root__Mt_CmnTex_Etc_GerudoArticles_Vase_I-mesh-normals-array" count="278" stride="3">
              <param name="X" type="float"/>
              <param name="Y" type="float"/>
              <param name="Z" type="float"/>
            </accessor>
          </technique_common>
        </source>
        <source id="Root__Mt_CmnTex_Etc_GerudoArticles_Vase_I-mesh-map">
          <float_array id="Root__Mt_CmnTex_Etc_GerudoArticles_Vase_I-mesh-map-array" count="2160">-0.5544603 0.799646 -0.04739522 0.8272653 -0.5544298 0.8612629 -0.5544603 0.8624531 -0.5544603 0.7997376 -0.04739522 0.8272653 -0.5544603 0.8625752 -0.5544603 0.7997376 -0.04739522 0.8272653 -0.5544298 0.8612629 -0.5544298 0.7985473 -0.04739522 0.8272653 -0.5544298 0.8613544 -0.5544603 0.7997376 -0.04739522 0.8272653 -0.5544298 0.8612629 -0.5544298 0.7984253 -0.04739522 0.8272653 -0.5544298 0.8612629 -0.04739522 0.8272653 -0.5544298 0.7984253 -0.5544603 0.799646 -0.5544603 0.8624531 -0.04739522 0.8272653 -0.5544603 0.7997376 -0.5544603 0.8625752 -0.04739522 0.8272653 -0.5544603 0.7997376 -0.5544298 0.8612629 -0.04739522 0.8272653 -0.5544298 0.7985473 -0.5544298 0.8613544 -0.04739522 0.8272653 -0.5544603 0.7997376 -0.5544298 0.8612629 -0.04739522 0.8272653 0.4619282 0.03283792 0.3996704 0.03295999 0.4307993 0.02182072 0.3996704 0.03295999 0.4619282 0.03283792 0.3769036 0.06326484 0.3769036 0.06326484 0.4619282 0.03283792 0.3686025 0.104648 0.3686025 0.104648 0.4619282 0.03283792 0.484756 0.06305122 0.3686025 0.104648 0.484756 0.06305122 0.4931486 0.1043733 0.3686025 0.104648 0.4931486 0.1043733 0.3770257 0.14597 0.3770257 0.14597 0.4931486 0.1043733 0.4848475 0.1457564 0.3770257 0.14597 0.4848475 0.1457564 0.4620502 0.1760613 0.3770257 0.14597 0.4620502 0.1760613 0.4309213 0.1872005 0.3770257 0.14597 0.4309213 0.1872005 0.3997314 0.1761528 0.791467 0.4670553 0.8422803 0.4672078 0.791406 0.485519 0.791406 0.485519 0.8422803 0.4672078 0.8411512 0.48558 0.8411512 0.48558 0.8422803 0.4672078 0.887814 0.4671773 0.791406 0.485519 0.8411512 0.48558 0.7913755 0.5083468 0.8411512 0.48558 0.887814 0.4671773 0.8891262 0.48558 0.8891262 0.48558 0.887814 0.4671773 0.9394818 0.4669942 0.8891262 0.48558 0.9394818 0.4669942 0.9396039 0.4854885 0.7913755 0.5083468 0.8411512 0.48558 0.8411207 0.5084078 0.8411207 0.5084078 0.8411512 0.48558 0.8891262 0.48558 0.7913755 0.5083468 0.8411207 0.5084078 0.791406 0.5354472 0.791406 0.5354472 0.8411207 0.5084078 0.8651692 0.5356303 0.8891262 0.48558 0.9396039 0.4854885 0.889523 0.5084078 0.8891262 0.48558 0.889523 0.5084078 0.8411207 0.5084078 0.8411207 0.5084078 0.889523 0.5084078 0.8651692 0.5356303 0.889523 0.5084078 0.9396039 0.4854885 0.9396649 0.5083163 0.8651692 0.5356303 0.889523 0.5084078 0.9396039 0.5354167 0.9396039 0.5354167 0.889523 0.5084078 0.9396649 0.5083163 0.6456496 0.4670553 0.6956694 0.4672078 0.6455275 0.485519 0.6455275 0.485519 0.6956694 0.4672078 0.6945097 0.48558 0.6945097 0.48558 0.6956694 0.4672078 0.7411725 0.4671773 0.6455275 0.485519 0.6945097 0.48558 0.645497 0.5083468 0.6945097 0.48558 0.7411725 0.4671773 0.7424848 0.48558 0.7424848 0.48558 0.7411725 0.4671773 0.7920774 0.4669942 0.7424848 0.48558 0.7920774 0.4669942 0.7921079 0.4854885 0.645497 0.5083468 0.6945097 0.48558 0.6944792 0.5084078 0.6944792 0.5084078 0.6945097 0.48558 0.7424848 0.48558 0.645497 0.5083468 0.6944792 0.5084078 0.6455581 0.5354472 0.6455581 0.5354472 0.6944792 0.5084078 0.7185888 0.5356303 0.7424848 0.48558 0.7921079 0.4854885 0.7428815 0.5084078 0.7424848 0.48558 0.7428815 0.5084078 0.6944792 0.5084078 0.6944792 0.5084078 0.7428815 0.5084078 0.7185888 0.5356303 0.7428815 0.5084078 0.7921079 0.4854885 0.7921079 0.5083163 0.7185888 0.5356303 0.7428815 0.5084078 0.7921079 0.5354167 0.7921079 0.5354167 0.7428815 0.5084078 0.7921079 0.5083163 0.7921079 0.4670553 0.8429823 0.4672078 0.7921079 0.485519 0.7921079 0.485519 0.8429823 0.4672078 0.8418531 0.48558 0.8418531 0.48558 0.8429823 0.4672078 0.8885159 0.4671773 0.7921079 0.485519 0.8418531 0.48558 0.7920774 0.5083468 0.8418531 0.48558 0.8885159 0.4671773 0.8898282 0.48558 0.8898282 0.48558 0.8885159 0.4671773 0.940672 0.4669942 0.8898282 0.48558 0.940672 0.4669942 0.9407026 0.4854885 0.7920774 0.5083468 0.8418531 0.48558 0.8418226 0.5084078 0.8418226 0.5084078 0.8418531 0.48558 0.8898282 0.48558 0.7920774 0.5083468 0.8418226 0.5084078 0.7921079 0.5354472 0.7921079 0.5354472 0.8418226 0.5084078 0.8658406 0.5356303 0.8898282 0.48558 0.9407026 0.4854885 0.8902249 0.5084078 0.8898282 0.48558 0.8902249 0.5084078 0.8418226 0.5084078 0.8418226 0.5084078 0.8902249 0.5084078 0.8658406 0.5356303 0.8902249 0.5084078 0.9407026 0.4854885 0.9407026 0.5083163 0.8658406 0.5356303 0.8902249 0.5084078 0.9407026 0.5354167 0.9407026 0.5354167 0.8902249 0.5084078 0.9407026 0.5083163 0.6445814 0.4670553 0.6949675 0.4672078 0.6445509 0.485519 0.6445509 0.485519 0.6949675 0.4672078 0.6938078 0.48558 0.6938078 0.48558 0.6949675 0.4672078 0.7404706 0.4671773 0.6445509 0.485519 0.6938078 0.48558 0.6445509 0.5083468 0.6938078 0.48558 0.7404706 0.4671773 0.7417829 0.48558 0.7417829 0.48558 0.7404706 0.4671773 0.7913144 0.4669942 0.7417829 0.48558 0.7913144 0.4669942 0.791406 0.4854885 0.6445509 0.5083468 0.6938078 0.48558 0.6937773 0.5084078 0.6937773 0.5084078 0.6938078 0.48558 0.7417829 0.48558 0.6445509 0.5083468 0.6937773 0.5084078 0.6445509 0.5354472 0.6445509 0.5354472 0.6937773 0.5084078 0.7178259 0.5356303 0.7417829 0.48558 0.791406 0.4854885 0.7421796 0.5084078 0.7417829 0.48558 0.7421796 0.5084078 0.6937773 0.5084078 0.6937773 0.5084078 0.7421796 0.5084078 0.7178259 0.5356303 0.7421796 0.5084078 0.791406 0.4854885 0.7914365 0.5083163 0.7178259 0.5356303 0.7421796 0.5084078 0.791406 0.5354167 0.791406 0.5354167 0.7421796 0.5084078 0.7914365 0.5083163 0.311594 0.2570879 0.2540056 0.2825709 0.2540056 0.2569048 0.2540056 0.2825709 0.311594 0.2570879 0.3101596 0.2825709 0.3101596 0.2825709 0.311594 0.2570879 0.3413801 0.2570574 0.2540056 0.2825709 0.3101596 0.2825709 0.3043916 0.4044008 0.2540056 0.2825709 0.3043916 0.4044008 0.2540056 0.4042482 0.3101596 0.2825709 0.3413801 0.2570574 0.3430586 0.2825709 0.3430586 0.2825709 0.3413801 0.2570574 0.4010437 0.2568743 0.3430586 0.2825709 0.4010437 0.2568743 0.4010437 0.2825709 0.3430586 0.2825709 0.4010437 0.2825709 0.4010437 0.4041871 0.3101596 0.2825709 0.3430586 0.2825709 0.3500778 0.4044008 0.3500778 0.4044008 0.3430586 0.2825709 0.4010437 0.4041871 0.3101596 0.2825709 0.3500778 0.4044008 0.3043916 0.4044008 0.3500778 0.4044008 0.4010437 0.4041871 0.4016846 0.5106968 0.3500778 0.4044008 0.4016846 0.5106968 0.3516648 0.5104526 0.3500778 0.4044008 0.3516648 0.5104526 0.3043916 0.4044008 0.3516648 0.5104526 0.4016846 0.5106968 0.4020814 0.5983459 0.3039033 0.5104831 0.2540056 0.4042482 0.3043916 0.4044008 0.3039033 0.5104831 0.3043916 0.4044008 0.3516648 0.5104526 0.2540056 0.4042482 0.3039033 0.5104831 0.253914 0.5106968 0.3516648 0.5104526 0.4020814 0.5983459 0.3493149 0.5978271 0.3516648 0.5104526 0.3493149 0.5978271 0.3039033 0.5104831 0.3493149 0.5978271 0.4020814 0.5983459 0.4020814 0.6616107 0.253914 0.5106968 0.3039033 0.5104831 0.3070162 0.5978576 0.3070162 0.5978576 0.3039033 0.5104831 0.3493149 0.5978271 0.253914 0.5106968 0.3070162 0.5978576 0.2540056 0.5984069 0.3493149 0.5978271 0.4020814 0.6616107 0.3451948 0.6611224 0.3493149 0.5978271 0.3451948 0.6611224 0.3070162 0.5978576 0.3451948 0.6611224 0.4020814 0.6616107 0.4020814 0.7097385 0.2540056 0.5984069 0.3070162 0.5978576 0.3115635 0.661153 0.3115635 0.661153 0.3070162 0.5978576 0.3451948 0.6611224 0.2540056 0.5984069 0.3115635 0.661153 0.2538835 0.6616413 0.2538835 0.6616413 0.3115635 0.661153 0.2538835 0.709769 0.3451948 0.6611224 0.4020814 0.7097385 0.3285317 0.7094638 0.3451948 0.6611224 0.3285317 0.7094638 0.3115635 0.661153 0.3115635 0.661153 0.3285317 0.7094638 0.2538835 0.709769 0.3285317 0.7094638 0.4020814 0.7097385 0.4020509 0.7476425 0.2538835 0.709769 0.3285317 0.7094638 0.2538835 0.747673 0.3285317 0.7094638 0.4020509 0.7476425 0.3283181 0.7474593 0.3285317 0.7094638 0.3283181 0.7474593 0.2538835 0.747673 0.4010437 0.2825709 0.4010437 0.2569048 0.4589373 0.2570879 0.4010437 0.2825709 0.4589373 0.2570879 0.457503 0.2825709 0.457503 0.2825709 0.4589373 0.2570879 0.4887234 0.2570574 0.4010437 0.2825709 0.457503 0.2825709 0.451735 0.4044008 0.4010437 0.2825709 0.451735 0.4044008 0.4010437 0.4042482 0.457503 0.2825709 0.4887234 0.2570574 0.4904019 0.2825709 0.4904019 0.2825709 0.4887234 0.2570574 0.5475326 0.2568743 0.4904019 0.2825709 0.5475326 0.2568743 0.5475326 0.2825404 0.4904019 0.2825709 0.5475326 0.2825404 0.5475326 0.4041871 0.457503 0.2825709 0.4904019 0.2825709 0.4974212 0.4044008 0.4974212 0.4044008 0.4904019 0.2825709 0.5475326 0.4041871 0.457503 0.2825709 0.4974212 0.4044008 0.451735 0.4044008 0.4974212 0.4044008 0.5475326 0.4041871 0.549028 0.5106968 0.4974212 0.4044008 0.549028 0.5106968 0.4990387 0.5104526 0.4974212 0.4044008 0.4990387 0.5104526 0.451735 0.4044008 0.4990387 0.5104526 0.549028 0.5106968 0.5486618 0.5983459 0.4512467 0.5104831 0.4010437 0.4042482 0.451735 0.4044008 0.4512467 0.5104831 0.451735 0.4044008 0.4990387 0.5104526 0.4010437 0.4042482 0.4512467 0.5104831 0.4012574 0.5106968 0.4990387 0.5104526 0.5486618 0.5983459 0.4966582 0.5978271 0.4990387 0.5104526 0.4966582 0.5978271 0.4512467 0.5104831 0.4966582 0.5978271 0.5486618 0.5983459 0.5486618 0.6616107 0.4012574 0.5106968 0.4512467 0.5104831 0.4543596 0.5978576 0.4543596 0.5978576 0.4512467 0.5104831 0.4966582 0.5978271 0.4012574 0.5106968 0.4543596 0.5978576 0.4020814 0.5984069 0.4966582 0.5978271 0.5486618 0.6616107 0.4925382 0.6611224 0.4966582 0.5978271 0.4925382 0.6611224 0.4543596 0.5978576 0.4925382 0.6611224 0.5486618 0.6616107 0.5489059 0.7097385 0.4020814 0.5984069 0.4543596 0.5978576 0.4589068 0.661153 0.4589068 0.661153 0.4543596 0.5978576 0.4925382 0.6611224 0.4020814 0.5984069 0.4589068 0.661153 0.4020814 0.6616413 0.4020814 0.6616413 0.4589068 0.661153 0.4020814 0.709769 0.4925382 0.6611224 0.5489059 0.7097385 0.4758751 0.7094638 0.4925382 0.6611224 0.4758751 0.7094638 0.4589068 0.661153 0.4589068 0.661153 0.4758751 0.7094638 0.4020814 0.709769 0.4758751 0.7094638 0.5489059 0.7097385 0.5489059 0.7476425 0.4020814 0.709769 0.4758751 0.7094638 0.4020814 0.747673 0.4758751 0.7094638 0.5489059 0.7476425 0.4756615 0.7474593 0.4758751 0.7094638 0.4756615 0.7474593 0.4020814 0.747673 0.2528459 0.2825709 0.2528459 0.2569048 0.3109531 0.2570879 0.2528459 0.2825709 0.3109531 0.2570879 0.3095187 0.2825709 0.3095187 0.2825709 0.3109531 0.2570879 0.3407086 0.2570574 0.2528459 0.2825709 0.3095187 0.2825709 0.3037507 0.4044008 0.2528459 0.2825709 0.3037507 0.4044008 0.2528459 0.4042482 0.3095187 0.2825709 0.3407086 0.2570574 0.3424177 0.2825709 0.3424177 0.2825709 0.3407086 0.2570574 0.4013184 0.2568743 0.3424177 0.2825709 0.4013184 0.2568743 0.4013184 0.2825709 0.3424177 0.2825709 0.4013184 0.2825709 0.4013184 0.4041871 0.3095187 0.2825709 0.3424177 0.2825709 0.3494369 0.4044008 0.3494369 0.4044008 0.3424177 0.2825709 0.4013184 0.4041871 0.3095187 0.2825709 0.3494369 0.4044008 0.3037507 0.4044008 0.3494369 0.4044008 0.4013184 0.4041871 0.3510239 0.5104526 0.3494369 0.4044008 0.3510239 0.5104526 0.3037507 0.4044008 0.3510239 0.5104526 0.4013184 0.4041871 0.4010437 0.5106968 0.3032624 0.5104831 0.2528459 0.4042482 0.3037507 0.4044008 0.3032624 0.5104831 0.3037507 0.4044008 0.3510239 0.5104526 0.2528459 0.4042482 0.3032624 0.5104831 0.2532731 0.5106968 0.3510239 0.5104526 0.4010437 0.5106968 0.348674 0.5978271 0.3510239 0.5104526 0.348674 0.5978271 0.3032624 0.5104831 0.348674 0.5978271 0.4010437 0.5106968 0.4004639 0.5983459 0.348674 0.5978271 0.4004639 0.5983459 0.4004639 0.6616107 0.2532731 0.5106968 0.3032624 0.5104831 0.3063753 0.5978576 0.3063753 0.5978576 0.3032624 0.5104831 0.348674 0.5978271 0.2532731 0.5106968 0.3063753 0.5978576 0.25309 0.5984069 0.348674 0.5978271 0.4004639 0.6616107 0.344554 0.6611224 0.348674 0.5978271 0.344554 0.6611224 0.3063753 0.5978576 0.344554 0.6611224 0.4004639 0.6616107 0.4013794 0.7097385 0.25309 0.5984069 0.3063753 0.5978576 0.3109226 0.661153 0.3109226 0.661153 0.3063753 0.5978576 0.344554 0.6611224 0.25309 0.5984069 0.3109226 0.661153 0.2527848 0.6616413 0.2527848 0.6616413 0.3109226 0.661153 0.2527848 0.709769 0.344554 0.6611224 0.4013794 0.7097385 0.3278604 0.7094638 0.344554 0.6611224 0.3278604 0.7094638 0.3109226 0.661153 0.3109226 0.661153 0.3278604 0.7094638 0.2527848 0.709769 0.3278604 0.7094638 0.4013794 0.7097385 0.4013794 0.7476425 0.2527848 0.709769 0.3278604 0.7094638 0.2527848 0.747673 0.3278604 0.7094638 0.4013794 0.7476425 0.3276467 0.7474593 0.3278604 0.7094638 0.3276467 0.7474593 0.2527848 0.747673 0.4013184 0.2825709 0.4013184 0.2569048 0.4581133 0.2570879 0.4013184 0.2825709 0.4581133 0.2570879 0.456679 0.2825709 0.456679 0.2825709 0.4581133 0.2570879 0.4878994 0.2570574 0.4013184 0.2825709 0.456679 0.2825709 0.4509415 0.4044008 0.4013184 0.2825709 0.4509415 0.4044008 0.4013184 0.4042482 0.456679 0.2825709 0.4878994 0.2570574 0.4895779 0.2825709 0.4895779 0.2825709 0.4878994 0.2570574 0.5480819 0.2568743 0.4895779 0.2825709 0.5480819 0.2568743 0.5480819 0.2825404 0.4895779 0.2825709 0.5480819 0.2825404 0.5480819 0.4041871 0.456679 0.2825709 0.4895779 0.2825709 0.4965972 0.4044008 0.4965972 0.4044008 0.4895779 0.2825709 0.5480819 0.4041871 0.456679 0.2825709 0.4965972 0.4044008 0.4509415 0.4044008 0.4965972 0.4044008 0.5480819 0.4041871 0.548204 0.5106968 0.4965972 0.4044008 0.548204 0.5106968 0.4982147 0.5104526 0.4965972 0.4044008 0.4982147 0.5104526 0.4509415 0.4044008 0.4982147 0.5104526 0.548204 0.5106968 0.5480819 0.5983459 0.4504227 0.5104831 0.4013184 0.4042482 0.4509415 0.4044008 0.4504227 0.5104831 0.4509415 0.4044008 0.4982147 0.5104526 0.4013184 0.4042482 0.4504227 0.5104831 0.4004334 0.5106968 0.4982147 0.5104526 0.5480819 0.5983459 0.4958342 0.5978271 0.4982147 0.5104526 0.4958342 0.5978271 0.4504227 0.5104831 0.4958342 0.5978271 0.5480819 0.5983459 0.5479293 0.6616107 0.4004334 0.5106968 0.4504227 0.5104831 0.4535356 0.5978576 0.4535356 0.5978576 0.4504227 0.5104831 0.4958342 0.5978271 0.4004334 0.5106968 0.4535356 0.5978576 0.4004639 0.5984069 0.4958342 0.5978271 0.5479293 0.6616107 0.4917142 0.6611224 0.4958342 0.5978271 0.4917142 0.6611224 0.4535356 0.5978576 0.4917142 0.6611224 0.5479293 0.6616107 0.5479293 0.7097385 0.4004639 0.5984069 0.4535356 0.5978576 0.4580828 0.661153 0.4580828 0.661153 0.4535356 0.5978576 0.4917142 0.6611224 0.4004639 0.5984069 0.4580828 0.661153 0.4004639 0.6616413 0.4004639 0.6616413 0.4580828 0.661153 0.4013794 0.709769 0.4917142 0.6611224 0.5479293 0.7097385 0.4750511 0.7094638 0.4917142 0.6611224 0.4750511 0.7094638 0.4580828 0.661153 0.4580828 0.661153 0.4750511 0.7094638 0.4013794 0.709769 0.4750511 0.7094638 0.5479293 0.7097385 0.5479293 0.7476425 0.4013794 0.709769 0.4750511 0.7094638 0.4013794 0.747673 0.4750511 0.7094638 0.5479293 0.7476425 0.4748985 0.7474593 0.4750511 0.7094638 0.4748985 0.7474593 0.4013794 0.747673 -0.6010926 0.7563097 -0.5733513 0.7339091 -0.574694 0.7639393 -0.5733513 0.7339091 -0.6010926 0.7563097 -0.5999939 0.7012238 -0.6010926 0.7563097 -0.574694 0.7639393 -0.5641957 0.8225959 -0.5999939 0.7012238 -0.6010926 0.7563097 -0.6326487 0.7463301 -0.5999939 0.7012238 -0.6326487 0.7463301 -0.617481 0.6869106 -0.617481 0.6869106 -0.6326487 0.7463301 -0.6441237 0.679281 -0.6010926 0.7563097 -0.5641957 0.8225959 -0.593646 0.8163701 -0.6010926 0.7563097 -0.593646 0.8163701 -0.6326487 0.7463301 -0.593646 0.8163701 -0.5641957 0.8225959 -0.59682 0.8751793 -0.59682 0.8751793 -0.5641957 0.8225959 -0.5653248 0.866451 -0.6326487 0.7463301 -0.593646 0.8163701 -0.6305429 0.8042848 -0.6441237 0.679281 -0.6326487 0.7463301 -0.6573077 0.7452315 -0.6573077 0.7452315 -0.6326487 0.7463301 -0.6305429 0.8042848 -0.6441237 0.679281 -0.6573077 0.7452315 -0.6710715 0.6851406 -0.6710715 0.6851406 -0.6573077 0.7452315 -0.6890164 0.6984466 -0.6305429 0.8042848 -0.593646 0.8163701 -0.6262704 0.8427076 -0.6262704 0.8427076 -0.593646 0.8163701 -0.59682 0.8751793 -0.6573077 0.7452315 -0.6305429 0.8042848 -0.6614887 0.803766 -0.6262704 0.8427076 -0.59682 0.8751793 -0.631489 0.8817713 -0.6305429 0.8042848 -0.6262704 0.8427076 -0.666036 0.8427687 -0.6305429 0.8042848 -0.666036 0.8427687 -0.6614887 0.803766 -0.666036 0.8427687 -0.6262704 0.8427076 -0.631489 0.8817713 -0.6573077 0.7452315 -0.6614887 0.803766 -0.6982329 0.81283 -0.6982329 0.81283 -0.6614887 0.803766 -0.666036 0.8427687 -0.6891995 0.7534715 -0.6890164 0.6984466 -0.6573077 0.7452315 -0.6891995 0.7534715 -0.6573077 0.7452315 -0.6982329 0.81283 -0.6890164 0.6984466 -0.6891995 0.7534715 -0.7166051 0.7297891 -0.7166051 0.7297891 -0.6891995 0.7534715 -0.7158116 0.7598804 -0.7158116 0.7598804 -0.6891995 0.7534715 -0.7277749 0.8180181 -0.7277749 0.8180181 -0.6891995 0.7534715 -0.6982329 0.81283 -0.7277749 0.8180181 -0.6982329 0.81283 -0.6959441 0.8712424 -0.6959441 0.8712424 -0.6982329 0.81283 -0.666036 0.8427687 -0.7277749 0.8180181 -0.6959441 0.8712424 -0.7274697 0.8618427 -0.6959441 0.8712424 -0.666036 0.8427687 -0.6613361 0.8834193 -0.6613361 0.8834193 -0.666036 0.8427687 -0.631489 0.8817713 -0.7274697 0.8618427 -0.6959441 0.8712424 -0.6861781 0.9238563 -0.6861781 0.9238563 -0.6959441 0.8712424 -0.6613361 0.8834193 -0.7274697 0.8618427 -0.6861781 0.9238563 -0.7181616 0.9070711 -0.7181616 0.9070711 -0.6861781 0.9238563 -0.7264931 0.9426863 -0.7264931 0.9426863 -0.6861781 0.9238563 -0.6918851 0.9724113 -0.6918851 0.9724113 -0.6861781 0.9238563 -0.6772668 0.9781183 -0.6772668 0.9781183 -0.6861781 0.9238563 -0.6609088 0.9363994 -0.6609088 0.9363994 -0.6861781 0.9238563 -0.6613361 0.8834193 -0.6772668 0.9781183 -0.6609088 0.9363994 -0.6626484 0.9838252 -0.6609088 0.9363994 -0.6613361 0.8834193 -0.6343883 0.9369793 -0.6609088 0.9363994 -0.6343883 0.9369793 -0.6626484 0.9838252 -0.6343883 0.9369793 -0.6613361 0.8834193 -0.631489 0.8817713 -0.6626484 0.9838252 -0.6343883 0.9369793 -0.6353343 0.9856868 -0.6353343 0.9856868 -0.6343883 0.9369793 -0.6210517 0.9785455 -0.6343883 0.9369793 -0.631489 0.8817713 -0.6078677 0.9271523 -0.6343883 0.9369793 -0.6078677 0.9271523 -0.6210517 0.9785455 -0.6078677 0.9271523 -0.631489 0.8817713 -0.59682 0.8751793 -0.6210517 0.9785455 -0.6078677 0.9271523 -0.606769 0.9714041 -0.6078677 0.9271523 -0.59682 0.8751793 -0.5653248 0.866451 -0.606769 0.9714041 -0.6078677 0.9271523 -0.5684072 0.9475997 -0.6078677 0.9271523 -0.5653248 0.866451 -0.5755486 0.9113132 -0.6078677 0.9271523 -0.5755486 0.9113132 -0.5684072 0.9475997 -0.6010926 0.7563097 -0.5733513 0.7339091 -0.574694 0.7639393 -0.5733513 0.7339091 -0.6010926 0.7563097 -0.5999939 0.7012238 -0.6010926 0.7563097 -0.574694 0.7639393 -0.5641957 0.8225959 -0.5999939 0.7012238 -0.6010926 0.7563097 -0.6326487 0.7463301 -0.5999939 0.7012238 -0.6326487 0.7463301 -0.617481 0.6869106 -0.617481 0.6869106 -0.6326487 0.7463301 -0.6441237 0.679281 -0.6010926 0.7563097 -0.5641957 0.8225959 -0.593646 0.8163701 -0.6010926 0.7563097 -0.593646 0.8163701 -0.6326487 0.7463301 -0.593646 0.8163701 -0.5641957 0.8225959 -0.59682 0.8751793 -0.59682 0.8751793 -0.5641957 0.8225959 -0.5653248 0.866451 -0.6326487 0.7463301 -0.593646 0.8163701 -0.6305429 0.8042848 -0.6441237 0.679281 -0.6326487 0.7463301 -0.6573077 0.7452315 -0.6573077 0.7452315 -0.6326487 0.7463301 -0.6305429 0.8042848 -0.6441237 0.679281 -0.6573077 0.7452315 -0.6710715 0.6851406 -0.6710715 0.6851406 -0.6573077 0.7452315 -0.6890164 0.6984466 -0.6305429 0.8042848 -0.593646 0.8163701 -0.6262704 0.8427076 -0.6262704 0.8427076 -0.593646 0.8163701 -0.59682 0.8751793 -0.6573077 0.7452315 -0.6305429 0.8042848 -0.6614887 0.803766 -0.6262704 0.8427076 -0.59682 0.8751793 -0.631489 0.8817713 -0.6305429 0.8042848 -0.6262704 0.8427076 -0.666036 0.8427687 -0.6305429 0.8042848 -0.666036 0.8427687 -0.6614887 0.803766 -0.666036 0.8427687 -0.6262704 0.8427076 -0.631489 0.8817713 -0.6573077 0.7452315 -0.6614887 0.803766 -0.6982329 0.81283 -0.6982329 0.81283 -0.6614887 0.803766 -0.666036 0.8427687 -0.6891995 0.7534715 -0.6890164 0.6984466 -0.6573077 0.7452315 -0.6891995 0.7534715 -0.6573077 0.7452315 -0.6982329 0.81283 -0.6890164 0.6984466 -0.6891995 0.7534715 -0.7166051 0.7297891 -0.7166051 0.7297891 -0.6891995 0.7534715 -0.7158116 0.7598804 -0.7158116 0.7598804 -0.6891995 0.7534715 -0.7277749 0.8180181 -0.7277749 0.8180181 -0.6891995 0.7534715 -0.6982329 0.81283 -0.7277749 0.8180181 -0.6982329 0.81283 -0.6959441 0.8712424 -0.6959441 0.8712424 -0.6982329 0.81283 -0.666036 0.8427687 -0.7277749 0.8180181 -0.6959441 0.8712424 -0.7274697 0.8618427 -0.6959441 0.8712424 -0.666036 0.8427687 -0.6613361 0.8834193 -0.6613361 0.8834193 -0.666036 0.8427687 -0.631489 0.8817713 -0.7274697 0.8618427 -0.6959441 0.8712424 -0.6861781 0.9238563 -0.6861781 0.9238563 -0.6959441 0.8712424 -0.6613361 0.8834193 -0.7274697 0.8618427 -0.6861781 0.9238563 -0.7181616 0.9070711 -0.7181616 0.9070711 -0.6861781 0.9238563 -0.7264931 0.9426863 -0.7264931 0.9426863 -0.6861781 0.9238563 -0.6918851 0.9724113 -0.6918851 0.9724113 -0.6861781 0.9238563 -0.6772668 0.9781183 -0.6772668 0.9781183 -0.6861781 0.9238563 -0.6609088 0.9363994 -0.6609088 0.9363994 -0.6861781 0.9238563 -0.6613361 0.8834193 -0.6772668 0.9781183 -0.6609088 0.9363994 -0.6626484 0.9838252 -0.6609088 0.9363994 -0.6613361 0.8834193 -0.6343883 0.9369793 -0.6609088 0.9363994 -0.6343883 0.9369793 -0.6626484 0.9838252 -0.6343883 0.9369793 -0.6613361 0.8834193 -0.631489 0.8817713 -0.6626484 0.9838252 -0.6343883 0.9369793 -0.6353343 0.9856868 -0.6353343 0.9856868 -0.6343883 0.9369793 -0.6210517 0.9785455 -0.6343883 0.9369793 -0.631489 0.8817713 -0.6078677 0.9271523 -0.6343883 0.9369793 -0.6078677 0.9271523 -0.6210517 0.9785455 -0.6078677 0.9271523 -0.631489 0.8817713 -0.59682 0.8751793 -0.6210517 0.9785455 -0.6078677 0.9271523 -0.606769 0.9714041 -0.6078677 0.9271523 -0.59682 0.8751793 -0.5653248 0.866451 -0.606769 0.9714041 -0.6078677 0.9271523 -0.5684072 0.9475997 -0.6078677 0.9271523 -0.5653248 0.866451 -0.5755486 0.9113132 -0.6078677 0.9271523 -0.5755486 0.9113132 -0.5684072 0.9475997</float_array>
          <technique_common>
            <accessor source="#Root__Mt_CmnTex_Etc_GerudoArticles_Vase_I-mesh-map-array" count="1080" stride="2">
              <param name="S" type="float"/>
              <param name="T" type="float"/>
            </accessor>
          </technique_common>
        </source>
        <vertices id="Root__Mt_CmnTex_Etc_GerudoArticles_Vase_I-mesh-vertices">
          <input semantic="POSITION" source="#Root__Mt_CmnTex_Etc_GerudoArticles_Vase_I-mesh-positions"/>
        </vertices>
        <triangles material="Mt_CmnTex_Etc_GerudoArticles_Vase_I-material" count="360">
          <input semantic="VERTEX" source="#Root__Mt_CmnTex_Etc_GerudoArticles_Vase_I-mesh-vertices" offset="0"/>
          <input semantic="NORMAL" source="#Root__Mt_CmnTex_Etc_GerudoArticles_Vase_I-mesh-normals" offset="1"/>
          <input semantic="TEXCOORD" source="#Root__Mt_CmnTex_Etc_GerudoArticles_Vase_I-mesh-map" offset="2" set="0"/>
          <p>0 0 0 1 1 1 2 0 2 3 2 3 4 3 4 1 1 5 5 4 6 6 4 7 1 1 8 7 5 9 8 5 10 1 1 11 9 6 12 10 7 13 1 1 14 11 8 15 12 8 16 1 1 17 13 9 18 14 10 19 15 9 20 16 11 21 17 11 22 14 10 23 18 12 24 19 13 25 14 10 26 20 14 27 21 14 28 14 10 29 22 15 30 23 15 31 14 10 32 24 16 33 25 17 34 14 10 35 26 18 36 27 18 37 28 18 38 27 18 39 26 18 40 29 18 41 29 18 42 26 18 43 30 18 44 30 18 45 26 18 46 31 18 47 30 18 48 31 18 49 32 18 50 30 18 51 32 18 52 33 18 53 33 18 54 32 18 55 34 18 56 33 18 57 34 18 58 35 18 59 33 18 60 35 18 61 36 18 62 33 18 63 36 18 64 37 18 65 38 19 66 39 20 67 40 21 68 40 21 69 39 20 70 41 22 71 41 22 72 39 20 73 42 23 74 40 21 75 41 22 76 43 24 77 41 22 78 42 23 79 44 25 80 44 25 81 42 23 82 45 26 83 44 25 84 45 26 85 46 27 86 43 24 87 41 22 88 47 28 89 47 28 90 41 22 91 44 25 92 43 24 93 47 28 94 48 29 95 48 29 96 47 28 97 49 30 98 44 25 99 46 27 100 50 31 101 44 25 102 50 31 103 47 28 104 47 28 105 50 31 106 49 30 107 50 31 108 46 27 109 51 32 110 49 30 111 50 31 112 52 33 113 52 33 114 50 31 115 51 32 116 53 34 117 54 35 118 55 36 119 55 36 120 54 35 121 56 37 122 56 37 123 54 35 124 57 38 125 55 36 126 56 37 127 58 39 128 56 37 129 57 38 130 59 40 131 59 40 132 57 38 133 60 19 134 59 40 135 60 19 136 61 41 137 58 39 138 56 37 139 62 42 140 62 42 141 56 37 142 59 40 143 58 39 144 62 42 145 63 43 146 63 43 147 62 42 148 64 44 149 59 40 150 61 41 151 65 45 152 59 40 153 65 45 154 62 42 155 62 42 156 65 45 157 64 44 158 65 45 159 61 41 160 66 46 161 64 44 162 65 45 163 67 47 164 67 47 165 65 45 166 66 46 167 68 19 168 69 48 169 70 49 170 70 49 171 69 48 172 71 50 173 71 50 174 69 48 175 72 51 176 70 49 177 71 50 178 73 52 179 71 50 180 72 51 181 74 53 182 74 53 183 72 51 184 75 54 185 74 53 186 75 54 187 76 55 188 73 52 189 71 50 190 77 56 191 77 56 192 71 50 193 74 53 194 73 52 195 77 56 196 78 57 197 78 57 198 77 56 199 79 58 200 74 53 201 76 55 202 80 59 203 74 53 204 80 59 205 77 56 206 77 56 207 80 59 208 79 58 209 80 59 210 76 55 211 81 60 212 79 58 213 80 59 214 82 61 215 82 61 216 80 59 217 81 60 218 83 62 219 84 63 220 85 64 221 85 64 222 84 63 223 86 65 224 86 65 225 84 63 226 87 66 227 85 64 228 86 65 229 88 67 230 86 65 231 87 66 232 89 68 233 89 68 234 87 66 235 90 19 236 89 68 237 90 19 238 91 69 239 88 67 240 86 65 241 92 70 242 92 70 243 86 65 244 89 68 245 88 67 246 92 70 247 93 71 248 93 71 249 92 70 250 94 72 251 89 68 252 91 69 253 95 73 254 89 68 255 95 73 256 92 70 257 92 70 258 95 73 259 94 72 260 95 73 261 91 69 262 96 74 263 94 72 264 95 73 265 97 75 266 97 75 267 95 73 268 96 74 269 98 76 270 99 77 271 100 78 272 99 77 273 98 76 274 101 79 275 101 79 276 98 76 277 102 80 278 99 77 279 101 79 280 103 81 281 99 77 282 103 81 283 104 82 284 101 79 285 102 80 286 105 83 287 105 83 288 102 80 289 106 84 290 105 83 291 106 84 292 107 85 293 105 83 294 107 85 295 108 86 296 101 79 297 105 83 298 109 87 299 109 87 300 105 83 301 108 86 302 101 79 303 109 87 304 103 81 305 109 87 306 108 86 307 110 88 308 109 87 309 110 88 310 111 89 311 109 87 312 111 89 313 103 81 314 111 89 315 110 88 316 112 90 317 113 91 318 104 82 319 103 81 320 113 91 321 103 81 322 111 89 323 104 82 324 113 91 325 114 92 326 111 89 327 112 90 328 115 93 329 111 89 330 115 93 331 113 91 332 115 93 333 112 90 334 116 94 335 114 92 336 113 91 337 117 95 338 117 95 339 113 91 340 115 93 341 114 92 342 117 95 343 118 96 344 115 93 345 116 94 346 119 97 347 115 93 348 119 97 349 117 95 350 119 97 351 116 94 352 120 98 353 118 96 354 117 95 355 121 99 356 121 99 357 117 95 358 119 97 359 118 96 360 121 99 361 122 100 362 122 100 363 121 99 364 123 101 365 119 97 366 120 98 367 124 102 368 119 97 369 124 102 370 121 99 371 121 99 372 124 102 373 123 101 374 124 102 375 120 98 376 125 103 377 123 101 378 124 102 379 126 104 380 124 102 381 125 103 382 127 105 383 124 102 384 127 105 385 126 104 386 128 106 387 129 107 388 130 108 389 128 106 390 130 108 391 131 109 392 131 109 393 130 108 394 132 110 395 128 106 396 131 109 397 133 111 398 128 106 399 133 111 400 134 112 401 131 109 402 132 110 403 135 113 404 135 113 405 132 110 406 136 114 407 135 113 408 136 114 409 137 115 410 135 113 411 137 115 412 138 116 413 131 109 414 135 113 415 139 117 416 139 117 417 135 113 418 138 116 419 131 109 420 139 117 421 133 111 422 139 117 423 138 116 424 140 118 425 139 117 426 140 118 427 141 119 428 139 117 429 141 119 430 133 111 431 141 119 432 140 118 433 142 120 434 143 121 435 134 112 436 133 111 437 143 121 438 133 111 439 141 119 440 134 112 441 143 121 442 144 122 443 141 119 444 142 120 445 145 123 446 141 119 447 145 123 448 143 121 449 145 123 450 142 120 451 146 124 452 144 122 453 143 121 454 147 125 455 147 125 456 143 121 457 145 123 458 144 122 459 147 125 460 148 126 461 145 123 462 146 124 463 149 127 464 145 123 465 149 127 466 147 125 467 149 127 468 146 124 469 150 128 470 148 126 471 147 125 472 151 129 473 151 129 474 147 125 475 149 127 476 148 126 477 151 129 478 152 130 479 152 130 480 151 129 481 153 131 482 149 127 483 150 128 484 154 132 485 149 127 486 154 132 487 151 129 488 151 129 489 154 132 490 153 131 491 154 132 492 150 128 493 155 133 494 153 131 495 154 132 496 156 134 497 154 132 498 155 133 499 157 135 500 154 132 501 157 135 502 156 134 503 158 136 504 159 137 505 160 138 506 158 136 507 160 138 508 161 139 509 161 139 510 160 138 511 162 140 512 158 136 513 161 139 514 163 141 515 158 136 516 163 141 517 164 142 518 161 139 519 162 140 520 165 143 521 165 143 522 162 140 523 166 144 524 165 143 525 166 144 526 167 145 527 165 143 528 167 145 529 168 146 530 161 139 531 165 143 532 169 147 533 169 147 534 165 143 535 168 146 536 161 139 537 169 147 538 163 141 539 169 147 540 168 146 541 170 148 542 169 147 543 170 148 544 163 141 545 170 148 546 168 146 547 171 149 548 172 150 549 164 142 550 163 141 551 172 150 552 163 141 553 170 148 554 164 142 555 172 150 556 173 151 557 170 148 558 171 149 559 174 152 560 170 148 561 174 152 562 172 150 563 174 152 564 171 149 565 175 153 566 174 152 567 175 153 568 176 154 569 173 151 570 172 150 571 177 155 572 177 155 573 172 150 574 174 152 575 173 151 576 177 155 577 178 156 578 174 152 579 176 154 580 179 157 581 174 152 582 179 157 583 177 155 584 179 157 585 176 154 586 180 158 587 178 156 588 177 155 589 181 159 590 181 159 591 177 155 592 179 157 593 178 156 594 181 159 595 182 160 596 182 160 597 181 159 598 183 161 599 179 157 600 180 158 601 184 162 602 179 157 603 184 162 604 181 159 605 181 159 606 184 162 607 183 161 608 184 162 609 180 158 610 185 163 611 183 161 612 184 162 613 186 164 614 184 162 615 185 163 616 187 165 617 184 162 618 187 165 619 186 164 620 188 166 621 189 167 622 190 168 623 188 166 624 190 168 625 191 169 626 191 169 627 190 168 628 192 170 629 188 166 630 191 169 631 193 171 632 188 166 633 193 171 634 194 172 635 191 169 636 192 170 637 195 173 638 195 173 639 192 170 640 196 174 641 195 173 642 196 174 643 197 175 644 195 173 645 197 175 646 198 176 647 191 169 648 195 173 649 199 177 650 199 177 651 195 173 652 198 176 653 191 169 654 199 177 655 193 171 656 199 177 657 198 176 658 200 178 659 199 177 660 200 178 661 201 179 662 199 177 663 201 179 664 193 171 665 201 179 666 200 178 667 202 180 668 203 181 669 194 172 670 193 171 671 203 181 672 193 171 673 201 179 674 194 172 675 203 181 676 204 182 677 201 179 678 202 180 679 205 183 680 201 179 681 205 183 682 203 181 683 205 183 684 202 180 685 206 184 686 204 182 687 203 181 688 207 185 689 207 185 690 203 181 691 205 183 692 204 182 693 207 185 694 208 186 695 205 183 696 206 184 697 209 187 698 205 183 699 209 187 700 207 185 701 209 187 702 206 184 703 210 188 704 208 186 705 207 185 706 211 189 707 211 189 708 207 185 709 209 187 710 208 186 711 211 189 712 212 190 713 212 190 714 211 189 715 213 191 716 209 187 717 210 188 718 214 192 719 209 187 720 214 192 721 211 189 722 211 189 723 214 192 724 213 191 725 214 192 726 210 188 727 215 193 728 213 191 729 214 192 730 216 194 731 214 192 732 215 193 733 217 195 734 214 192 735 217 195 736 216 194 737 218 196 738 219 197 739 220 198 740 219 197 741 218 196 742 221 199 743 218 196 744 220 198 745 222 200 746 221 199 747 218 196 748 223 201 749 221 199 750 223 201 751 224 202 752 224 202 753 223 201 754 225 203 755 218 196 756 222 200 757 226 204 758 218 196 759 226 204 760 223 201 761 226 204 762 222 200 763 227 205 764 227 205 765 222 200 766 228 206 767 223 201 768 226 204 769 229 207 770 225 203 771 223 201 772 230 208 773 230 208 774 223 201 775 229 207 776 225 203 777 230 208 778 231 209 779 231 209 780 230 208 781 232 210 782 229 207 783 226 204 784 233 211 785 233 211 786 226 204 787 227 205 788 230 208 789 229 207 790 234 212 791 233 211 792 227 205 793 235 213 794 229 207 795 233 211 796 236 214 797 229 207 798 236 214 799 234 212 800 236 214 801 233 211 802 235 213 803 230 208 804 234 212 805 237 215 806 237 215 807 234 212 808 236 214 809 238 216 810 232 210 811 230 208 812 238 216 813 230 208 814 237 215 815 232 210 816 238 216 817 239 217 818 239 217 819 238 216 820 240 218 821 240 218 822 238 216 823 241 219 824 241 219 825 238 216 826 237 215 827 241 219 828 237 215 829 242 220 830 242 220 831 237 215 832 236 214 833 241 219 834 242 220 835 243 221 836 242 220 837 236 214 838 244 222 839 244 222 840 236 214 841 235 213 842 243 221 843 242 220 844 245 223 845 245 223 846 242 220 847 244 222 848 243 221 849 245 223 850 246 224 851 246 224 852 245 223 853 247 225 854 247 225 855 245 223 856 248 226 857 248 226 858 245 223 859 249 227 860 249 227 861 245 223 862 250 228 863 250 228 864 245 223 865 244 222 866 249 227 867 250 228 868 251 229 869 250 228 870 244 222 871 252 230 872 250 228 873 252 230 874 251 229 875 252 230 876 244 222 877 235 213 878 251 229 879 252 230 880 253 231 881 253 231 882 252 230 883 254 232 884 252 230 885 235 213 886 255 233 887 252 230 888 255 233 889 254 232 890 255 233 891 235 213 892 227 205 893 254 232 894 255 233 895 256 234 896 255 233 897 227 205 898 228 206 899 256 234 900 255 233 901 257 235 902 255 233 903 228 206 904 258 236 905 255 233 906 258 236 907 257 235 908 259 237 909 260 238 910 261 239 911 260 238 912 259 237 913 262 240 914 259 237 915 261 239 916 263 241 917 262 240 918 259 237 919 264 242 920 262 240 921 264 242 922 265 243 923 265 243 924 264 242 925 266 244 926 259 237 927 263 241 928 267 245 929 259 237 930 267 245 931 264 242 932 267 245 933 263 241 934 268 246 935 268 246 936 263 241 937 269 247 938 264 242 939 267 245 940 270 248 941 266 244 942 264 242 943 271 249 944 271 249 945 264 242 946 270 248 947 266 244 948 271 249 949 272 250 950 272 250 951 271 249 952 273 251 953 270 248 954 267 245 955 274 252 956 274 252 957 267 245 958 268 246 959 271 249 960 270 248 961 275 253 962 274 252 963 268 246 964 276 254 965 270 248 966 274 252 967 277 255 968 270 248 969 277 255 970 275 253 971 277 255 972 274 252 973 276 254 974 271 249 975 275 253 976 278 256 977 278 256 978 275 253 979 277 255 980 279 257 981 273 251 982 271 249 983 279 257 984 271 249 985 278 256 986 273 251 987 279 257 988 280 258 989 280 258 990 279 257 991 281 259 992 281 259 993 279 257 994 282 260 995 282 260 996 279 257 997 278 256 998 282 260 999 278 256 1000 283 261 1001 283 261 1002 278 256 1003 277 255 1004 282 260 1005 283 261 1006 284 262 1007 283 261 1008 277 255 1009 285 263 1010 285 263 1011 277 255 1012 276 254 1013 284 262 1014 283 261 1015 286 264 1016 286 264 1017 283 261 1018 285 263 1019 284 262 1020 286 264 1021 287 265 1022 287 265 1023 286 264 1024 288 266 1025 288 266 1026 286 264 1027 289 267 1028 289 267 1029 286 264 1030 290 268 1031 290 268 1032 286 264 1033 291 269 1034 291 269 1035 286 264 1036 285 263 1037 290 268 1038 291 269 1039 292 270 1040 291 269 1041 285 263 1042 293 271 1043 291 269 1044 293 271 1045 292 270 1046 293 271 1047 285 263 1048 276 254 1049 292 270 1050 293 271 1051 294 272 1052 294 272 1053 293 271 1054 295 273 1055 293 271 1056 276 254 1057 296 274 1058 293 271 1059 296 274 1060 295 273 1061 296 274 1062 276 254 1063 268 246 1064 295 273 1065 296 274 1066 297 275 1067 296 274 1068 268 246 1069 269 247 1070 297 275 1071 296 274 1072 298 276 1073 296 274 1074 269 247 1075 299 277 1076 296 274 1077 299 277 1078 298 276 1079</p>
        </triangles>
      </mesh>
    </geometry>
  </library_geometries>
  <library_controllers>
    <controller id="Armature_Root__Mt_CmnTex_Etc_GerudoArticles_Vase_I-skin" name="Armature">
      <skin source="#Root__Mt_CmnTex_Etc_GerudoArticles_Vase_I-mesh">
        <bind_shape_matrix>1 0 0 0 0 1 0 0 0 0 1 0 0 0 0 1</bind_shape_matrix>
        <source id="Armature_Root__Mt_CmnTex_Etc_GerudoArticles_Vase_I-skin-joints">
          <Name_array id="Armature_Root__Mt_CmnTex_Etc_GerudoArticles_Vase_I-skin-joints-array" count="1">Root</Name_array>
          <technique_common>
            <accessor source="#Armature_Root__Mt_CmnTex_Etc_GerudoArticles_Vase_I-skin-joints-array" count="1" stride="1">
              <param name="JOINT" type="name"/>
            </accessor>
          </technique_common>
        </source>
        <source id="Armature_Root__Mt_CmnTex_Etc_GerudoArticles_Vase_I-skin-bind_poses">
          <float_array id="Armature_Root__Mt_CmnTex_Etc_GerudoArticles_Vase_I-skin-bind_poses-array" count="16">1 0 0 0 0 -1.62921e-7 1 0 0 -1 -1.62921e-7 0 0 0 0 1</float_array>
          <technique_common>
            <accessor source="#Armature_Root__Mt_CmnTex_Etc_GerudoArticles_Vase_I-skin-bind_poses-array" count="1" stride="16">
              <param name="TRANSFORM" type="float4x4"/>
            </accessor>
          </technique_common>
        </source>
        <source id="Armature_Root__Mt_CmnTex_Etc_GerudoArticles_Vase_I-skin-weights">
          <float_array id="Armature_Root__Mt_CmnTex_Etc_GerudoArticles_Vase_I-skin-weights-array" count="525">1 1 1 1 1 1 1 1 1 1 1 1 1 1 1 1 1 1 1 1 1 1 1 1 1 1 1 1 1 1 1 1 1 1 1 1 1 1 1 1 1 1 1 1 1 1 1 1 1 1 1 1 1 1 1 1 1 1 1 1 1 1 1 1 1 1 1 1 1 1 1 1 1 1 1 1 1 1 1 1 1 1 1 1 1 1 1 1 1 1 1 1 1 1 1 1 1 1 1 1 1 1 1 1 1 1 1 1 1 1 1 1 1 1 1 1 1 1 1 1 1 1 1 1 1 1 1 1 1 1 1 1 1 1 1 1 1 1 1 1 1 1 1 1 1 1 1 1 1 1 1 1 1 1 1 1 1 1 1 1 1 1 1 1 1 1 1 1 1 1 1 1 1 1 1 1 1 1 1 1 1 1 1 1 1 1 1 1 1 1 1 1 1 1 1 1 1 1 1 1 1 1 1 1 1 1 1 1 1 1 1 1 1 1 1 1 1 1 1 1 1 1 1 1 1 1 1 1 1 1 1 1 1 1 1 1 1 1 1 1 1 1 1 1 1 1 1 1 1 1 1 1 1 1 1 1 1 1 1 1 1 1 1 1 1 1 1 1 1 1 1 1 1 1 1 1 1 1 1 1 1 1 1 1 1 1 1 1 1 1 1 1 1 1 1 1 1 1 1 1 1 1 1 1 1 1 1 1 1 1 1 1 1 1 1 1 1 1 1 1 1 1 1 1 1 1 1 1 1 1 1 1 1 1 1 1 1 1 1 1 1 1 1 1 1 1 1 1 1 1 1 1 1 1 1 1 1 1 1 1 1 1 1 1 1 1 1 1 1 1 1 1 1 1 1 1 1 1 1 1 1 1 1 1 1 1 1 1 1 1 1 1 1 1 1 1 1 1 1 1 1 1 1 1 1 1 1 1 1 1 1 1 1 1 1 1 1 1 1 1 1 1 1 1 1 1 1 1 1 1 1 1 1 1 1 1 1 1 1 1 1 1 1 1 1 1 1 1 1 1 1 1 1 1 1 1 1 1 1 1 1 1 1 1 1 1 1 1 1 1 1 1 1 1 1 1 1 1 1 1 1 1 1 1 1 1 1 1 1 1 1 1 1 1 1 1 1 1 1 1 1 1 1 1 1 1 1 1 1 1 1 1 1 1 1 1 1 1 1 1 1 1 1 1 1</float_array>
          <technique_common>
            <accessor source="#Armature_Root__Mt_CmnTex_Etc_GerudoArticles_Vase_I-skin-weights-array" count="525" stride="1">
              <param name="WEIGHT" type="float"/>
            </accessor>
          </technique_common>
        </source>
        <joints>
          <input semantic="JOINT" source="#Armature_Root__Mt_CmnTex_Etc_GerudoArticles_Vase_I-skin-joints"/>
          <input semantic="INV_BIND_MATRIX" source="#Armature_Root__Mt_CmnTex_Etc_GerudoArticles_Vase_I-skin-bind_poses"/>
        </joints>
        <vertex_weights count="525">
          <input semantic="JOINT" source="#Armature_Root__Mt_CmnTex_Etc_GerudoArticles_Vase_I-skin-joints" offset="0"/>
          <input semantic="WEIGHT" source="#Armature_Root__Mt_CmnTex_Etc_GerudoArticles_Vase_I-skin-weights" offset="1"/>
          <vcount>1 1 1 1 1 1 1 1 1 1 1 1 1 1 1 1 1 1 1 1 1 1 1 1 1 1 1 1 1 1 1 1 1 1 1 1 1 1 1 1 1 1 1 1 1 1 1 1 1 1 1 1 1 1 1 1 1 1 1 1 1 1 1 1 1 1 1 1 1 1 1 1 1 1 1 1 1 1 1 1 1 1 1 1 1 1 1 1 1 1 1 1 1 1 1 1 1 1 1 1 1 1 1 1 1 1 1 1 1 1 1 1 1 1 1 1 1 1 1 1 1 1 1 1 1 1 1 1 1 1 1 1 1 1 1 1 1 1 1 1 1 1 1 1 1 1 1 1 1 1 1 1 1 1 1 1 1 1 1 1 1 1 1 1 1 1 1 1 1 1 1 1 1 1 1 1 1 1 1 1 1 1 1 1 1 1 1 1 1 1 1 1 1 1 1 1 1 1 1 1 1 1 1 1 1 1 1 1 1 1 1 1 1 1 1 1 1 1 1 1 1 1 1 1 1 1 1 1 1 1 1 1 1 1 1 1 1 1 1 1 1 1 1 1 1 1 1 1 1 1 1 1 1 1 1 1 1 1 1 1 1 1 1 1 1 1 1 1 1 1 1 1 1 1 1 1 1 1 1 1 1 1 1 1 1 1 1 1 1 1 1 1 1 1 1 1 1 1 1 1 1 1 1 1 1 1 1 1 1 1 1 1 1 1 1 1 1 1 1 1 1 1 1 1 1 1 1 1 1 1 1 1 1 1 1 1 1 1 1 1 1 1 1 1 1 1 1 1 1 1 1 1 1 1 1 1 1 1 1 1 1 1 1 1 1 1 1 1 1 1 1 1 1 1 1 1 1 1 1 1 1 1 1 1 1 1 1 1 1 1 1 1 1 1 1 1 1 1 1 1 1 1 1 1 1 1 1 1 1 1 1 1 1 1 1 1 1 1 1 1 1 1 1 1 1 1 1 1 1 1 1 1 1 1 1 1 1 1 1 1 1 1 1 1 1 1 1 1 1 1 1 1 1 1 1 1 1 1 1 1 1 1 1 1 1 1 1 1 1 1 1 1 1 1 1 1 1 1 1 1 1 1 1 1 1 1 1 1 1 1 1 1 1 1 1 1 1 1 1 1 1 1 1 1 1 1 1 1 1 1 1 1 1 1 1 1 1 1 1 1 1 1 1 1 1 </vcount>
          <v>0 0 0 1 0 2 0 3 0 4 0 5 0 6 0 7 0 8 0 9 0 10 0 11 0 12 0 13 0 14 0 15 0 16 0 17 0 18 0 19 0 20 0 21 0 22 0 23 0 24 0 25 0 26 0 27 0 28 0 29 0 30 0 31 0 32 0 33 0 34 0 35 0 36 0 37 0 38 0 39 0 40 0 41 0 42 0 43 0 44 0 45 0 46 0 47 0 48 0 49 0 50 0 51 0 52 0 53 0 54 0 55 0 56 0 57 0 58 0 59 0 60 0 61 0 62 0 63 0 64 0 65 0 66 0 67 0 68 0 69 0 70 0 71 0 72 0 73 0 74 0 75 0 76 0 77 0 78 0 79 0 80 0 81 0 82 0 83 0 84 0 85 0 86 0 87 0 88 0 89 0 90 0 91 0 92 0 93 0 94 0 95 0 96 0 97 0 98 0 99 0 100 0 101 0 102 0 103 0 104 0 105 0 106 0 107 0 108 0 109 0 110 0 111 0 112 0 113 0 114 0 115 0 116 0 117 0 118 0 119 0 120 0 121 0 122 0 123 0 124 0 125 0 126 0 127 0 128 0 129 0 130 0 131 0 132 0 133 0 134 0 135 0 136 0 137 0 138 0 139 0 140 0 141 0 142 0 143 0 144 0 145 0 146 0 147 0 148 0 149 0 150 0 151 0 152 0 153 0 154 0 155 0 156 0 157 0 158 0 159 0 160 0 161 0 162 0 163 0 164 0 165 0 166 0 167 0 168 0 169 0 170 0 171 0 172 0 173 0 174 0 175 0 176 0 177 0 178 0 179 0 180 0 181 0 182 0 183 0 184 0 185 0 186 0 187 0 188 0 189 0 190 0 191 0 192 0 193 0 194 0 195 0 196 0 197 0 198 0 199 0 200 0 201 0 202 0 203 0 204 0 205 0 206 0 207 0 208 0 209 0 210 0 211 0 212 0 213 0 214 0 215 0 216 0 217 0 218 0 219 0 220 0 221 0 222 0 223 0 224 0 225 0 226 0 227 0 228 0 229 0 230 0 231 0 232 0 233 0 234 0 235 0 236 0 237 0 238 0 239 0 240 0 241 0 242 0 243 0 244 0 245 0 246 0 247 0 248 0 249 0 250 0 251 0 252 0 253 0 254 0 255 0 256 0 257 0 258 0 259 0 260 0 261 0 262 0 263 0 264 0 265 0 266 0 267 0 268 0 269 0 270 0 271 0 272 0 273 0 274 0 275 0 276 0 277 0 278 0 279 0 280 0 281 0 282 0 283 0 284 0 285 0 286 0 287 0 288 0 289 0 290 0 291 0 292 0 293 0 294 0 295 0 296 0 297 0 298 0 299 0 300 0 301 0 302 0 303 0 304 0 305 0 306 0 307 0 308 0 309 0 310 0 311 0 312 0 313 0 314 0 315 0 316 0 317 0 318 0 319 0 320 0 321 0 322 0 323 0 324 0 325 0 326 0 327 0 328 0 329 0 330 0 331 0 332 0 333 0 334 0 335 0 336 0 337 0 338 0 339 0 340 0 341 0 342 0 343 0 344 0 345 0 346 0 347 0 348 0 349 0 350 0 351 0 352 0 353 0 354 0 355 0 356 0 357 0 358 0 359 0 360 0 361 0 362 0 363 0 364 0 365 0 366 0 367 0 368 0 369 0 370 0 371 0 372 0 373 0 374 0 375 0 376 0 377 0 378 0 379 0 380 0 381 0 382 0 383 0 384 0 385 0 386 0 387 0 388 0 389 0 390 0 391 0 392 0 393 0 394 0 395 0 396 0 397 0 398 0 399 0 400 0 401 0 402 0 403 0 404 0 405 0 406 0 407 0 408 0 409 0 410 0 411 0 412 0 413 0 414 0 415 0 416 0 417 0 418 0 419 0 420 0 421 0 422 0 423 0 424 0 425 0 426 0 427 0 428 0 429 0 430 0 431 0 432 0 433 0 434 0 435 0 436 0 437 0 438 0 439 0 440 0 441 0 442 0 443 0 444 0 445 0 446 0 447 0 448 0 449 0 450 0 451 0 452 0 453 0 454 0 455 0 456 0 457 0 458 0 459 0 460 0 461 0 462 0 463 0 464 0 465 0 466 0 467 0 468 0 469 0 470 0 471 0 472 0 473 0 474 0 475 0 476 0 477 0 478 0 479 0 480 0 481 0 482 0 483 0 484 0 485 0 486 0 487 0 488 0 489 0 490 0 491 0 492 0 493 0 494 0 495 0 496 0 497 0 498 0 499 0 500 0 501 0 502 0 503 0 504 0 505 0 506 0 507 0 508 0 509 0 510 0 511 0 512 0 513 0 514 0 515 0 516 0 517 0 518 0 519 0 520 0 521 0 522 0 523 0 524</v>
        </vertex_weights>
      </skin>
    </controller>
  </library_controllers>
  <library_visual_scenes>
    <visual_scene id="Scene" name="Scene">
      <node id="Armature" name="Armature" type="NODE">
        <matrix sid="transform">1 0 0 0 0 -1.62921e-7 -1 0 0 1 -1.62921e-7 0 0 0 0 1</matrix>
        <node id="Armature_Root" name="Root" sid="Root" type="JOINT">
          <matrix sid="transform">1 0 0 0 0 1 0 0 0 0 1 0 0 0 0 1</matrix>
          <extra>
            <technique profile="blender">
              <layer sid="layer" type="string">0</layer>
              <tip_x sid="tip_x" type="float">0</tip_x>
              <tip_y sid="tip_y" type="float">1</tip_y>
              <tip_z sid="tip_z" type="float">0</tip_z>
            </technique>
          </extra>
        </node>
        <node id="Root__Mt_CmnTex_Etc_GerudoArticles_Vase_I" name="Root__Mt_CmnTex_Etc_GerudoArticles_Vase_I" type="NODE">
          <matrix sid="transform">1 0 0 0 0 1 0 0 0 0 1 0 0 0 0 1</matrix>
          <instance_controller url="#Armature_Root__Mt_CmnTex_Etc_GerudoArticles_Vase_I-skin">
            <skeleton>#Armature_Root</skeleton>
            <bind_material>
              <technique_common>
                <instance_material symbol="Mt_CmnTex_Etc_GerudoArticles_Vase_I-material" target="#Mt_CmnTex_Etc_GerudoArticles_Vase_I-material">
                  <bind_vertex_input semantic="Root__Mt_CmnTex_Etc_GerudoArticles_Vase_I-texcoord" input_semantic="TEXCOORD" input_set="0"/>
                </instance_material>
              </technique_common>
            </bind_material>
          </instance_controller>
        </node>
      </node>
    </visual_scene>
  </library_visual_scenes>
  <scene>
    <instance_visual_scene url="#Scene"/>
  </scene>
</COLLADA>