<?xml version="1.0" encoding="utf-8"?>
<COLLADA xmlns="http://www.collada.org/2005/11/COLLADASchema" version="1.4.1" xmlns:xsi="http://www.w3.org/2001/XMLSchema-instance">
  <asset>
    <contributor>
      <author>Blender User</author>
      <authoring_tool>Blender 3.1.2 commit date:2022-03-31, commit time:17:40, hash:cc66d1020c3b</authoring_tool>
    </contributor>
    <created>2023-06-01T13:48:51</created>
    <modified>2023-06-01T13:48:51</modified>
    <unit name="meter" meter="1"/>
    <up_axis>Z_UP</up_axis>
  </asset>
  <library_effects>
    <effect id="Mt_CmnTex_Etc_GerudoArticles_Vase_I-effect">
      <profile_COMMON>
        <newparam sid="CmnTex_Etc_GerudoArticles_Vase_I_Alb_png-surface">
          <surface type="2D">
            <init_from>CmnTex_Etc_GerudoArticles_Vase_I_Alb_png</init_from>
          </surface>
        </newparam>
        <newparam sid="CmnTex_Etc_GerudoArticles_Vase_I_Alb_png-sampler">
          <sampler2D>
            <source>CmnTex_Etc_GerudoArticles_Vase_I_Alb_png-surface</source>
          </sampler2D>
        </newparam>
        <technique sid="common">
          <lambert>
            <emission>
              <color sid="emission">0 0 0 1</color>
            </emission>
            <diffuse>
              <texture texture="CmnTex_Etc_GerudoArticles_Vase_I_Alb_png-sampler" texcoord="Root__Mt_CmnTex_Etc_GerudoArticles_Vase_I-texcoord"/>
            </diffuse>
            <index_of_refraction>
              <float sid="ior">1.45</float>
            </index_of_refraction>
          </lambert>
        </technique>
      </profile_COMMON>
    </effect>
  </library_effects>
  <library_images>
    <image id="CmnTex_Etc_GerudoArticles_Vase_I_Alb_png" name="CmnTex_Etc_GerudoArticles_Vase_I_Alb_png">
      <init_from>CmnTex_Etc_GerudoArticles_Vase_I_Alb.png</init_from>
    </image>
  </library_images>
  <library_materials>
    <material id="Mt_CmnTex_Etc_GerudoArticles_Vase_I-material" name="Mt_CmnTex_Etc_GerudoArticles_Vase_I">
      <instance_effect url="#Mt_CmnTex_Etc_GerudoArticles_Vase_I-effect"/>
    </material>
  </library_materials>
  <library_geometries>
    <geometry id="Root__Mt_CmnTex_Etc_GerudoArticles_Vase_I-mesh" name="Root__Mt_CmnTex_Etc_GerudoArticles_Vase_I">
      <mesh>
        <source id="Root__Mt_CmnTex_Etc_GerudoArticles_Vase_I-mesh-positions">
          <float_array id="Root__Mt_CmnTex_Etc_GerudoArticles_Vase_I-mesh-positions-array" count="1440">0.1923828 1.673828 -0.111084 0 0.4343262 0 0.222168 1.673828 0 0.111084 1.673828 0.1923828 0.1923828 1.673828 0.111084 -0.111084 1.673828 0.1923828 0 1.673828 0.222168 -0.222168 1.673828 0 -0.1923828 1.673828 0.111084 -0.111084 1.673828 -0.1923828 -0.1923828 1.673828 -0.111084 0.111084 1.673828 -0.1923828 0 1.673828 -0.222168 0.222168 1.673828 0 0 0.4343262 0 0.1923828 1.673828 0.111084 0 1.673828 0.222168 0.111084 1.673828 0.1923828 -0.1923828 1.673828 0.111084 -0.111084 1.673828 0.1923828 -0.1923828 1.673828 -0.111084 -0.222168 1.673828 0 0 1.673828 -0.222168 -0.111084 1.673828 -0.1923828 0.1923828 1.673828 -0.111084 0.111084 1.673828 -0.1923828 0.2418213 0 0.1396484 0.2418213 0 -0.1396484 0.2792969 0 0 0.1396484 0 -0.2418213 0 0 -0.2792969 0.1396484 0 0.2418213 0 0 0.2792969 -0.1396484 0 -0.2418213 -0.1396484 0 0.2418213 -0.2418213 0 0.1396484 -0.2792969 0 0 -0.2418213 0 -0.1396484 0 1.673828 -0.2756348 0 1.673828 -0.222168 0.111084 1.673828 -0.1923828 0.1378174 1.673828 -0.2387695 0 1.605469 -0.2939453 0.1923828 1.673828 -0.111084 0.1469727 1.605469 -0.2543945 0 1.539063 -0.255127 0.2387695 1.673828 -0.1378174 0.222168 1.673828 0 0.2756348 1.673828 0 0.2543945 1.605469 -0.1469727 0.2939453 1.605469 0 0.255127 1.539063 0 0.1743164 1.539063 -0.1743164 0.1884766 1.420898 -0.1884766 0.2758789 1.420898 0 0 1.420898 -0.2758789 0.2744141 1.27832 -0.1584473 0.3168945 1.27832 0 0.4594727 1.066406 0 0.1584473 1.27832 -0.2744141 0 1.27832 -0.3168945 0 1.068359 -0.4594727 0.3979492 1.066406 -0.2297363 0.4934082 0.7504883 0 0.2297363 1.066406 -0.3979492 0 0.7558594 -0.4934082 0.4272461 0.7504883 -0.2467041 0.4367676 0.3791504 0 0.2467041 0.7504883 -0.4272461 0 0.3791504 -0.4367676 0.378418 0.3791504 -0.2183838 0.2183838 0.3791504 -0.378418 0.2885742 0.05673217 -0.1665039 0.3330078 0.05673217 0 0.1665039 0.05673217 -0.2885742 0 0.05673217 -0.3330078 0 0 -0.2792969 0.1396484 0 -0.2418213 0.2418213 0 -0.1396484 0.2792969 0 0 -0.2756348 1.673828 0 -0.222168 1.673828 0 -0.1923828 1.673828 -0.111084 -0.2387695 1.673828 -0.1378174 -0.2939453 1.605469 0 -0.111084 1.673828 -0.1923828 -0.2543945 1.605469 -0.1469727 -0.2553711 1.539063 0 -0.1378174 1.673828 -0.2387695 0 1.673828 -0.222168 0 1.673828 -0.2756348 -0.1469727 1.605469 -0.2543945 0 1.605469 -0.2939453 0 1.539063 -0.255127 -0.1743164 1.539063 -0.1743164 -0.1884766 1.420898 -0.1884766 0 1.420898 -0.2758789 -0.2758789 1.420898 0 -0.1584473 1.27832 -0.2744141 0 1.27832 -0.3168945 0 1.068359 -0.4594727 -0.2744141 1.27832 -0.1584473 -0.3168945 1.27832 0 -0.2297363 1.066406 -0.3979492 0 0.7558594 -0.4934082 -0.3979492 1.066406 -0.2297363 -0.4594727 1.066406 0 -0.2467041 0.7504883 -0.4272461 0 0.3791504 -0.4367676 -0.4272461 0.7504883 -0.2467041 -0.4934082 0.7504883 0 -0.2183838 0.3791504 -0.378418 0 0.05673217 -0.3330078 -0.378418 0.3791504 -0.2183838 -0.4367676 0.3791504 0 -0.1665039 0.05673217 -0.2885742 0 0 -0.2792969 -0.1396484 0 -0.2418213 -0.2418213 0 -0.1396484 -0.2885742 0.05673217 -0.1665039 -0.3330078 0.05673217 0 -0.2792969 0 0 0 1.673828 0.2756348 0 1.673828 0.222168 -0.111084 1.673828 0.1923828 -0.1378174 1.673828 0.2387695 0 1.605469 0.2939453 -0.1923828 1.673828 0.111084 -0.1469727 1.605469 0.2543945 0 1.539063 0.2553711 -0.2387695 1.673828 0.1378174 -0.222168 1.673828 0 -0.2756348 1.673828 0 -0.2543945 1.605469 0.1469727 -0.2939453 1.605469 0 -0.2553711 1.539063 0 -0.1743164 1.539063 0.1743164 -0.1884766 1.420898 0.1884766 -0.2758789 1.420898 0 0 1.420898 0.2758789 -0.2744141 1.27832 0.1584473 -0.3168945 1.27832 0 -0.4594727 1.066406 0 -0.1584473 1.27832 0.2744141 0 1.27832 0.3168945 -0.3979492 1.066406 0.2297363 -0.4934082 0.7504883 0 -0.2297363 1.066406 0.3979492 0 1.066406 0.4594727 -0.4272461 0.7504883 0.2467041 -0.4367676 0.3791504 0 -0.2467041 0.7504883 0.4272461 0 0.7504883 0.4934082 -0.378418 0.3791504 0.2183838 -0.3330078 0.05673217 0 -0.2183838 0.3791504 0.378418 0 0.3791504 0.4367676 -0.2885742 0.05673217 0.1665039 -0.2792969 0 0 -0.2418213 0 0.1396484 -0.1396484 0 0.2418213 -0.1665039 0.05673217 0.2885742 0 0.05673217 0.3330078 0 0 0.2792969 0.2756348 1.673828 0 0.222168 1.673828 0 0.1923828 1.673828 0.111084 0.2387695 1.673828 0.1378174 0.2939453 1.605469 0 0.111084 1.673828 0.1923828 0.2543945 1.605469 0.1469727 0.255127 1.539063 0 0.1378174 1.673828 0.2387695 0 1.673828 0.222168 0 1.673828 0.2756348 0.1469727 1.605469 0.2543945 0 1.605469 0.2939453 0 1.539063 0.2553711 0.1743164 1.539063 0.1743164 0.1884766 1.420898 0.1884766 0 1.420898 0.2758789 0.2758789 1.420898 0 0.1584473 1.27832 0.2744141 0 1.27832 0.3168945 0 1.066406 0.4594727 0.2744141 1.27832 0.1584473 0.3168945 1.27832 0 0.2297363 1.066406 0.3979492 0 0.7504883 0.4934082 0.3979492 1.066406 0.2297363 0.4594727 1.066406 0 0.2467041 0.7504883 0.4272461 0 0.3791504 0.4367676 0.4272461 0.7504883 0.2467041 0.4934082 0.7504883 0 0.2183838 0.3791504 0.378418 0 0.05673217 0.3330078 0.378418 0.3791504 0.2183838 0.4367676 0.3791504 0 0.1665039 0.05673217 0.2885742 0 0 0.2792969 0.1396484 0 0.2418213 0.2418213 0 0.1396484 0.2885742 0.05673217 0.1665039 0.3330078 0.05673217 0 0.2792969 0 0 -0.4819336 1.216797 0.0670166 -0.4008789 1.131836 0 -0.4453125 1.229492 0 -0.4633789 1.333984 0 -0.4082031 1.068359 0.07415771 -0.5083008 1.34375 0.09655761 -0.5517578 1.198242 0.03015136 -0.4191895 0.9501953 0.0614624 -0.4245605 1.396484 0 -0.4414063 0.9301758 0 -0.4467773 1.439453 0.09655761 -0.5517578 1.198242 -0.03016662 -0.4191895 0.9501953 -0.0614624 -0.4082031 1.068359 -0.07421875 -0.6035156 1.360352 0.04342651 -0.5708008 1.458984 0.05737304 -0.4819336 1.216797 -0.0670166 -0.4008789 1.131836 0 -0.4453125 1.229492 0 -0.4633789 1.333984 0 -0.5083008 1.34375 -0.09655761 -0.4245605 1.396484 0 -0.6035156 1.360352 -0.04342651 -0.5708008 1.458984 -0.05737304 -0.4467773 1.439453 -0.09655761 -0.4863281 1.521484 0.04342651 -0.4863281 1.521484 -0.04342651 -0.3405762 1.475586 -0.06884765 -0.3408203 1.416992 0 -0.262207 1.40332 0 -0.2327881 1.476563 -0.07891845 -0.2243652 1.537109 -0.06353759 -0.340332 1.529297 -0.03096008 -0.2648926 1.573242 -0.03549194 -0.340332 1.529297 0.03096008 -0.2648926 1.573242 0.03549194 -0.2243652 1.537109 0.06353759 -0.3405762 1.475586 0.06884765 -0.2327881 1.476563 0.07891845 -0.262207 1.40332 0 -0.3408203 1.416992 0 0.4819336 1.216797 -0.0670166 0.4008789 1.131836 0 0.4453125 1.229492 0 0.4633789 1.333984 0 0.4082031 1.068359 -0.07421875 0.5083008 1.34375 -0.09655761 0.5517578 1.198242 -0.03016662 0.4191895 0.9501953 -0.0614624 0.4245605 1.396484 0 0.4414063 0.9301758 0 0.4467773 1.439453 -0.09655761 0.5517578 1.198242 0.03015136 0.4191895 0.9501953 0.0614624 0.4082031 1.068359 0.07415771 0.6035156 1.360352 -0.04342651 0.5708008 1.458984 -0.05737304 0.4819336 1.216797 0.0670166 0.4008789 1.131836 0 0.4453125 1.229492 0 0.4633789 1.333984 0 0.5083008 1.34375 0.09655761 0.4245605 1.396484 0 0.6035156 1.360352 0.04342651 0.5708008 1.458984 0.05737304 0.4467773 1.439453 0.09655761 0.4863281 1.521484 -0.04342651 0.4863281 1.521484 0.04342651 0.3405762 1.475586 0.06884765 0.3408203 1.416992 0 0.262207 1.40332 0 0.2327881 1.476563 0.07891845 0.2243652 1.537109 0.06353759 0.340332 1.529297 0.03096008 0.2648926 1.573242 0.03549194 0.340332 1.529297 -0.03096008 0.2648926 1.573242 -0.03549194 0.2243652 1.537109 -0.06353759 0.3405762 1.475586 -0.06884765 0.2327881 1.476563 -0.07891845 0.262207 1.40332 0 0.3408203 1.416992 0 0.2116699 1.69043 -0.1192017 0.121582 1.711914 -0.2105713 2.30312e-4 0.4350586 7.39098e-5 0.121582 1.711914 -0.2105713 -0.01808166 1.678711 -0.2443848 2.30312e-4 0.4350586 7.39098e-5 -0.01808166 1.678711 -0.2443848 -0.2526855 1.706055 -0.005859375 2.30312e-4 0.4350586 7.39098e-5 -0.1965332 1.675781 0.1140747 -0.1130371 1.675781 0.1968994 2.30312e-4 0.4350586 7.39098e-5 -4.81844e-4 1.708984 0.2406006 0.1260986 1.675781 0.2037354 2.30312e-4 0.4350586 7.39098e-5 0.1260986 1.675781 0.2037354 0.2116699 1.69043 -0.1192017 2.30312e-4 0.4350586 7.39098e-5 -0.1965332 1.675781 0.1140747 -0.2001953 1.542969 0.1955566 -0.1130371 1.675781 0.1968994 -0.01808166 1.678711 -0.2443848 -0.1746826 1.535156 -0.1844482 -0.2526855 1.706055 -0.005859375 0.2116699 1.69043 -0.1192017 0.008651733 1.53125 -0.2432861 0.121582 1.711914 -0.2105713 0.121582 1.711914 -0.2105713 0.008651733 1.53125 -0.2432861 -0.01808166 1.678711 -0.2443848 0.01152801 0.03521728 0.3852539 0.1384277 -0.01316833 0.2420654 0.3293457 0.03555297 0.1964111 0.009651184 1.080078 -0.482666 0.008651733 1.53125 -0.2432861 0.2116699 1.69043 -0.1192017 0.1260986 1.675781 0.2037354 0.269043 1.665039 0.01035308 0.2116699 1.69043 -0.1192017 -0.2915039 0.7607422 0.4753418 -0.3178711 0.034729 0.1827393 0.01152801 0.03521728 0.3852539 0.5375977 0.7490234 0.004032135 0.3293457 0.03555297 0.1964111 0.3151855 0.04144287 -0.1851807 0.2607422 1.410156 0.00427246 0.5180664 1.353516 0.1054077 0.2648926 1.577148 0.04345703 0.5043945 1.34668 -0.09692382 0.2607422 1.410156 0.00427246 0.2315674 1.480469 -0.08111572 0.4223633 0.9462891 0.06280517 0.5180664 1.353516 0.1054077 0.3977051 1.130859 -1.63078e-4 0.4191895 0.9482422 -0.06225585 0.3977051 1.130859 -1.63078e-4 0.5043945 1.34668 -0.09692382 0.6201172 1.360352 -0.04016113 0.4223633 0.9462891 0.06280517 0.4191895 0.9482422 -0.06225585 -0.2607422 1.410156 -0.00427246 -0.5180664 1.353516 -0.1054077 -0.2648926 1.577148 -0.04345703 -0.2315674 1.480469 0.08111572 -0.2648926 1.577148 -0.04345703 -0.4973145 1.533203 0.04016113 -0.4223633 0.9462891 -0.06280517 -0.5180664 1.353516 -0.1054077 -0.3977051 1.130859 1.62125e-4 -0.4191895 0.9482422 0.06225585 -0.3977051 1.130859 1.62125e-4 -0.5043945 1.34668 0.09692382 -0.5043945 1.34668 0.09692382 -0.2607422 1.410156 -0.00427246 -0.2315674 1.480469 0.08111572 -0.6201172 1.360352 0.04016113 -0.4223633 0.9462891 -0.06280517 -0.4191895 0.9482422 0.06225585 0.2648926 1.577148 0.04345703 0.4973145 1.533203 -0.04016113 0.2315674 1.480469 -0.08111572 0.004508972 1.28418 0.340332 0.2758789 1.070313 0.4719238 0.376709 1.31543 -0.01708984 -0.2526855 1.706055 -0.005859375 -0.1965332 1.675781 0.1140747 2.30312e-4 0.4350586 7.39098e-5 -0.1130371 1.675781 0.1968994 -4.81844e-4 1.708984 0.2406006 0.3151855 0.04144287 -0.1851807 0.1408691 -0.01922607 -0.2480469 -0.001123428 0.0387268 -0.3696289 -0.001123428 0.0387268 -0.3696289 0.279541 0.7529297 -0.473877 0.5043945 1.34668 -0.09692382 0.5180664 1.353516 0.1054077 0.2607422 1.410156 0.00427246 0.3977051 1.130859 -1.63078e-4 0.5043945 1.34668 -0.09692382 0.4223633 0.9462891 0.06280517 0.6201172 1.360352 -0.04016113 0.5180664 1.353516 0.1054077 0.4973145 1.533203 -0.04016113 0.5180664 1.353516 0.1054077 0.2648926 1.577148 0.04345703 -0.3977051 1.130859 1.62125e-4 -0.5180664 1.353516 -0.1054077 -0.5043945 1.34668 0.09692382 -0.5043945 1.34668 0.09692382 -0.2607422 1.410156 -0.00427246 -0.4223633 0.9462891 -0.06280517 -0.6201172 1.360352 0.04016113 -0.5180664 1.353516 -0.1054077 -0.4973145 1.533203 0.04016113 -0.5180664 1.353516 -0.1054077 -0.2648926 1.577148 -0.04345703 -0.01808166 1.678711 -0.2443848 0.008651733 1.53125 -0.2432861 -0.1746826 1.535156 -0.1844482 -0.4460449 1.077148 -0.2237549 -0.2526855 1.706055 -0.005859375 0.008651733 1.53125 -0.2432861 0.009651184 1.080078 -0.482666 -0.2687988 0.746582 -0.4606934 0.3293457 0.03555297 0.1964111 0.1408691 -0.01922607 -0.2480469 0.3151855 0.04144287 -0.1851807 -0.001123428 0.0387268 -0.3696289 -0.3208008 0.03497314 -0.1882324 -0.279541 -0.00465393 8.41141e-4 -0.3178711 0.034729 0.1827393 0.1384277 -0.01316833 0.2420654 0.01152801 0.03521728 0.3852539 -0.279541 -0.00465393 8.41141e-4 0.1408691 -0.01922607 -0.2480469 0.3293457 0.03555297 0.1964111 0.1384277 -0.01316833 0.2420654 -0.279541 -0.00465393 8.41141e-4 -0.2687988 0.746582 -0.4606934 -0.3208008 0.03497314 -0.1882324 -0.5283203 0.7460938 -0.001917839 -0.4460449 1.077148 -0.2237549 -0.3208008 0.03497314 -0.1882324 -0.279541 -0.00465393 8.41141e-4 -0.3178711 0.034729 0.1827393 -0.5283203 0.7460938 -0.001917839 -0.2915039 0.7607422 0.4753418 0.6201172 1.360352 -0.04016113 0.4191895 0.9482422 -0.06225585 0.5043945 1.34668 -0.09692382 0.4973145 1.533203 -0.04016113 0.2315674 1.480469 -0.08111572 -0.6201172 1.360352 0.04016113 -0.4191895 0.9482422 0.06225585 -0.5043945 1.34668 0.09692382 -0.4973145 1.533203 0.04016113 -0.2315674 1.480469 0.08111572 0.279541 0.7529297 -0.473877 0.5375977 0.7490234 0.004032135 0.3151855 0.04144287 -0.1851807 0.376709 1.31543 -0.01708984 0.009651184 1.080078 -0.482666 0.2116699 1.69043 -0.1192017 0.269043 1.665039 0.01035308 -0.2687988 0.746582 -0.4606934 -0.001123428 0.0387268 -0.3696289 -0.3208008 0.03497314 -0.1882324 0.279541 0.7529297 -0.473877 0.009651184 1.080078 -0.482666 -0.4460449 1.077148 -0.2237549 -0.5283203 0.7460938 -0.001917839 -0.2915039 0.7607422 0.4753418 -0.2001953 1.542969 0.1955566 -0.2526855 1.706055 -0.005859375 -0.1965332 1.675781 0.1140747 -4.81844e-4 1.708984 0.2406006 -0.1130371 1.675781 0.1968994 0.004508972 1.28418 0.340332 -0.2915039 0.7607422 0.4753418 0.004508972 1.28418 0.340332 0.2758789 1.070313 0.4719238 0.01152801 0.03521728 0.3852539 0.3293457 0.03555297 0.1964111 0.5375977 0.7490234 0.004032135 0.376709 1.31543 -0.01708984 0.1260986 1.675781 0.2037354 -4.81844e-4 1.708984 0.2406006 0.1879883 1.541992 0.1929932 0.004508972 1.28418 0.340332 0.376709 1.31543 -0.01708984 0.269043 1.665039 0.01035308 0.1260986 1.675781 0.2037354</float_array>
          <technique_common>
            <accessor source="#Root__Mt_CmnTex_Etc_GerudoArticles_Vase_I-mesh-positions-array" count="480" stride="3">
              <param name="X" type="float"/>
              <param name="Y" type="float"/>
              <param name="Z" type="float"/>
            </accessor>
          </technique_common>
        </source>
        <source id="Root__Mt_CmnTex_Etc_GerudoArticles_Vase_I-mesh-normals">
          <float_array id="Root__Mt_CmnTex_Etc_GerudoArticles_Vase_I-mesh-normals-array" count="807">-0.9517244 0.1705868 0.2551881 1.19526e-7 1 0 -0.9517244 0.1705868 0.2551881 -0.6967428 0.1705833 -0.696743 0.2551879 0.1705868 -0.9517244 0.2551879 0.1705868 -0.9517244 0.9517244 0.1705868 -0.2551881 0.9517244 0.1705868 -0.2551881 0.6967428 0.1705833 0.696743 -0.2551879 0.1705868 0.9517244 -0.2551879 0.1705868 0.9517244 -0.9517244 0.1705868 -0.2551881 0 1 0 -0.9517244 0.1705868 -0.2551881 -0.2551879 0.1705868 -0.9517244 -0.2551879 0.1705868 -0.9517244 0.696743 0.1705833 -0.6967428 0.9517244 0.1705868 0.2551881 0.9517244 0.1705868 0.2551881 0.2551879 0.1705868 0.9517244 0.2551879 0.1705868 0.9517244 -0.696743 0.1705833 0.6967428 0 -1 0 0.1751585 0.735211 -0.6548162 0 1 3.9963e-7 0.3330979 0.7458462 -0.5768529 0.2573834 -0.1216942 -0.958616 0 1 6.25902e-7 0.4860541 -0.1822298 -0.8547185 0.3574624 -0.2315328 -0.9047725 0.5771744 0.7457134 -0.3328385 0 1 2.60933e-7 0.6550109 0.7348419 -0.1759777 0.8548868 -0.1820319 -0.4858322 0.9585182 -0.1212851 -0.2579396 0.9047725 -0.2315328 -0.3574624 0.6811729 -0.2683414 -0.6811729 0.6775239 0.2862214 -0.6775239 0.894979 0.2567859 -0.3647927 0.3647928 0.256786 -0.8949789 0.7716158 0.4571565 -0.4422861 0.8763343 0.42052 -0.2349492 0.9150295 0.3203938 -0.2450895 0.4427272 0.4577087 -0.7710353 0.2346972 0.4226126 -0.8753948 0.2466498 0.3228604 -0.9137423 0.8174068 0.3304135 -0.4718825 0.9656741 -0.02105534 -0.258902 0.4731498 0.3300271 -0.8168301 0.2582752 -0.01818877 -0.9659002 0.8657889 -0.02168381 -0.4999396 0.9426489 -0.2188717 -0.2520082 0.4999614 -0.02221471 -0.8657627 0.2514533 -0.2185127 -0.9428805 0.8437752 -0.2261369 -0.4867294 0.4867295 -0.2261369 -0.8437753 0.752776 -0.4948945 -0.4340596 0.8466538 -0.481639 -0.2262772 0.4342151 -0.4947747 -0.7527652 0.2259905 -0.4814384 -0.8468444 0.1904115 -0.6753531 -0.7124898 0.3627561 -0.6888924 -0.627563 0.62796 -0.6886772 -0.3624777 0.7127707 -0.6748119 -0.1912768 -0.6548159 0.7352113 -0.1751589 0 1 -1.25445e-6 0 1 6.68791e-7 -0.5768528 0.7458464 -0.3330976 -0.9587593 -0.1204758 -0.2574225 0 1 -3.99831e-7 -0.854653 -0.1819103 -0.4862891 -0.9047663 -0.2310939 -0.3577618 -0.3328385 0.7457133 -0.5771744 -0.1759778 0.7348419 -0.6550109 -0.4858324 -0.1820323 -0.8548866 -0.2579403 -0.1212849 -0.958518 -0.3574624 -0.2315328 -0.9047725 -0.6808928 -0.2681614 -0.6815237 -0.6774426 0.2860596 -0.6776736 -0.3647928 0.256786 -0.8949789 -0.8951821 0.2559297 -0.3648959 -0.4427273 0.4577087 -0.7710352 -0.2346972 0.4226126 -0.8753948 -0.2466499 0.3228604 -0.9137423 -0.7715849 0.4571859 -0.4423096 -0.8763211 0.4205849 -0.2348822 -0.47315 0.3300272 -0.81683 -0.2582752 -0.01818877 -0.9659002 -0.8174373 0.330353 -0.471872 -0.9150587 0.3202721 -0.2451394 -0.4999614 -0.02221471 -0.8657627 -0.2514919 -0.2185578 -0.9428597 -0.8657709 -0.02155375 -0.4999763 -0.9657015 -0.02080452 -0.2588201 -0.4867098 -0.2261614 -0.84378 -0.2263438 -0.4815766 -0.8466714 -0.8437079 -0.2262367 -0.4867998 -0.9426515 -0.2190755 -0.2518214 -0.4340393 -0.4948663 -0.7528063 -0.1912767 -0.674812 -0.7127707 -0.3624778 -0.6886769 -0.6279602 -0.627563 -0.6888925 -0.362756 -0.7527651 -0.4947748 -0.4342151 -0.8468443 -0.4814384 -0.2259908 -0.7124897 -0.6753532 -0.1904116 -0.1751585 0.735211 0.6548162 0 1 -3.9963e-7 -0.3330979 0.7458462 0.5768529 -0.2574222 -0.1204761 0.9587593 0 1 -6.25902e-7 -0.486289 -0.1819104 0.8546529 -0.3577616 -0.231094 0.9047664 -0.5771744 0.7457134 0.3328385 0 1 -2.60933e-7 -0.6550109 0.7348419 0.1759777 -0.8548212 -0.1817126 0.4860671 -0.9586612 -0.1200668 0.2579782 -0.9047664 -0.2310938 0.3577616 -0.6812438 -0.2679812 0.6812437 -0.6775922 0.2858977 0.6775923 -0.8951822 0.2559297 0.3648957 -0.3648957 0.2559298 0.8951821 -0.7716158 0.4571565 0.4422861 -0.8763343 0.42052 0.2349492 -0.9150295 0.3203938 0.2450895 -0.4423097 0.4571858 0.771585 -0.2348825 0.4205849 0.8763211 -0.8174068 0.3304135 0.4718825 -0.9656741 -0.02105534 0.258902 -0.4718718 0.3303529 0.8174375 -0.2451393 0.320272 0.9150588 -0.8657889 -0.02168381 0.4999396 -0.9426282 -0.2189169 0.2520468 -0.4999763 -0.02155375 0.8657709 -0.25882 -0.02080452 0.9657015 -0.84378 -0.2261614 0.4867098 -0.8466714 -0.4815765 0.2263439 -0.4867998 -0.2262366 0.8437079 -0.2518213 -0.2190756 0.9426515 -0.7528063 -0.4948663 0.4340393 -0.7127707 -0.6748119 0.1912768 -0.62796 -0.6886771 0.3624777 -0.3627561 -0.6888924 0.627563 -0.4342151 -0.4947747 0.7527652 -0.2259905 -0.4814384 0.8468444 -0.1904115 -0.6753531 0.7124898 0.6548159 0.7352113 0.1751589 0 1 1.25445e-6 0 1 -6.68791e-7 0.5768528 0.7458464 0.3330976 0.9586159 -0.1216942 0.2573834 0 1 3.99831e-7 0.8547186 -0.1822296 0.4860541 0.9047725 -0.2315329 0.3574624 0.3328385 0.7457133 0.5771744 0.1759778 0.7348419 0.6550109 0.4860674 -0.1817129 0.854821 0.2579786 -0.1200668 0.958661 0.3577616 -0.231094 0.9047664 0.6815238 -0.2681612 0.6808927 0.6776733 0.2860596 0.6774429 0.3648957 0.2559298 0.8951821 0.894979 0.2567859 0.364793 0.4422864 0.4571565 0.7716157 0.2349492 0.4205201 0.8763343 0.2450894 0.3203938 0.9150295 0.7715849 0.4571859 0.4423096 0.8763211 0.4205849 0.2348822 0.4718825 0.3304135 0.8174069 0.258902 -0.02105534 0.9656742 0.8174373 0.330353 0.471872 0.9150587 0.3202721 0.2451394 0.4999396 -0.02168381 0.8657889 0.2520467 -0.2189169 0.9426282 0.8657709 -0.02155375 0.4999763 0.9657015 -0.02080452 0.2588201 0.4867098 -0.2261614 0.84378 0.2263438 -0.4815766 0.8466714 0.8437079 -0.2262367 0.4867998 0.9426515 -0.2190755 0.2518214 0.4340393 -0.4948663 0.7528063 0.1912767 -0.674812 0.7127707 0.3624778 -0.6886769 0.6279602 0.627563 -0.6888925 0.362756 0.7527651 -0.4947748 0.4342151 0.8468443 -0.4814384 0.2259908 0.7124897 -0.6753532 0.1904116 0.2737882 0.002369165 0.9617871 0.7956848 0.4010576 0.4539148 0.8277311 0.2538811 0.5004056 0.8738459 -0.1922375 0.4465849 -0.05978697 0.06424987 0.9961414 0.1408013 -0.179587 0.9736137 -0.8075454 -0.3253381 0.4919611 -0.7318955 -0.3148798 0.604301 0.5709818 -0.6610651 0.4867984 -0.9068115 -0.4215365 6.26377e-6 0.2448284 -0.05001842 0.9682754 -0.8075463 -0.3252838 -0.4919955 -0.7319567 -0.3149646 -0.6041827 -0.06021231 0.06408655 -0.9961262 -0.8901115 -0.02927142 0.4548019 -0.6860685 0.492715 0.5352962 0.2738695 0.002566993 -0.9617635 0.7957014 0.4011855 -0.4537726 0.8277311 0.2538811 -0.5004056 0.8738459 -0.1922375 -0.4465851 0.1408149 -0.1795612 -0.9736164 0.570982 -0.6610653 -0.4867981 -0.8901156 -0.02925539 -0.4547949 -0.6860685 0.4927151 -0.5352961 0.2448286 -0.05001854 -0.9682754 -0.2680897 0.8516277 0.4503981 -0.2680896 0.8516277 -0.4503981 0.01021379 -0.1095554 -0.9939282 0.02869153 -0.7612763 -0.6477927 -0.0915929 -0.7371517 -0.669491 -0.08991724 -0.1789296 -0.9797444 -0.1954209 0.3733022 -0.9068937 -0.234701 0.8439069 -0.482428 -0.4390822 0.6950535 -0.5693043 -0.2347009 0.8439068 0.4824281 -0.4390819 0.6950533 0.5693049 -0.1954205 0.3733014 0.9068942 0.01021385 -0.1095556 0.9939282 -0.08991694 -0.1789306 0.9797443 -0.09159296 -0.7371519 0.6694907 0.02869153 -0.7612761 0.6477929 -0.2738695 0.002566933 -0.9617635 -0.7957014 0.4011855 -0.4537726 -0.8277311 0.2538811 -0.5004056 -0.8738459 -0.1922375 -0.4465849 0.06021231 0.06408661 -0.9961262 -0.1408149 -0.1795611 -0.9736164 0.8075463 -0.3252838 -0.4919955 0.7319567 -0.3149645 -0.6041827 -0.5709818 -0.6610651 -0.4867984 0.9068115 -0.4215365 6.26377e-6 -0.2448284 -0.05001842 -0.9682754 0.8075453 -0.3253381 0.4919611 0.7318955 -0.3148797 0.604301 0.05978691 0.06424993 0.9961414 0.8901156 -0.02925544 -0.4547948 0.6860685 0.492715 -0.5352962 -0.2737883 0.002369225 0.9617871 -0.7956848 0.4010575 0.4539148 -0.8277311 0.2538811 0.5004056 -0.8738459 -0.1922375 0.4465851 -0.1408013 -0.1795871 0.9736137 -0.570982 -0.6610653 0.4867981 0.8901115 -0.02927136 0.454802 0.6860685 0.4927151 0.5352961 -0.2448286 -0.05001854 0.9682754 0.2680897 0.8516277 -0.4503981 0.2680896 0.8516277 0.4503981 -0.01021379 -0.1095554 0.9939282 -0.02869153 -0.7612763 0.6477927 0.0915929 -0.7371517 0.669491 0.08991724 -0.1789296 0.9797444 0.1954209 0.3733022 0.9068937 0.234701 0.8439069 0.482428 0.4390822 0.6950535 0.5693043 0.2347009 0.8439068 -0.4824281 0.4390819 0.6950533 -0.5693049 0.1954205 0.3733014 -0.9068942 -0.01021385 -0.1095556 -0.9939282 0.08991694 -0.1789306 -0.9797443 0.09159296 -0.7371519 -0.6694907 -0.02869153 -0.7612761 -0.6477929</float_array>
          <technique_common>
            <accessor source="#Root__Mt_CmnTex_Etc_GerudoArticles_Vase_I-mesh-normals-array" count="269" stride="3">
              <param name="X" type="float"/>
              <param name="Y" type="float"/>
              <param name="Z" type="float"/>
            </accessor>
          </technique_common>
        </source>
        <source id="Root__Mt_CmnTex_Etc_GerudoArticles_Vase_I-mesh-map">
          <float_array id="Root__Mt_CmnTex_Etc_GerudoArticles_Vase_I-mesh-map-array" count="2160">-0.84375 0.7585449 0.03631591 0.7896729 -0.84375 0.8277588 -0.84375 0.8277588 -0.84375 0.7572021 0.03631591 0.7896729 -0.84375 0.8278809 -0.84375 0.758667 0.03631591 0.7896729 -0.84375 0.8277588 -0.84375 0.7573242 0.03631591 0.7896729 -0.84375 0.8293457 -0.84375 0.758667 0.03631591 0.7896729 -0.84375 0.8292236 -0.84375 0.758667 0.03631591 0.7896729 -0.84375 0.8277588 0.03631591 0.7896729 -0.84375 0.7572021 -0.84375 0.758667 -0.84375 0.8277588 0.03631591 0.7896729 -0.84375 0.7573242 -0.84375 0.8278809 0.03631591 0.7896729 -0.84375 0.758667 -0.84375 0.8277588 0.03631591 0.7896729 -0.84375 0.758667 -0.84375 0.8293457 0.03631591 0.7896729 -0.84375 0.7585449 -0.84375 0.8292236 0.03631591 0.7896729 0.5249023 0.02880859 0.4301758 0.02880859 0.4775391 0.01220703 0.4301758 0.02880859 0.5249023 0.02880859 0.395752 0.07519531 0.395752 0.07519531 0.5249023 0.02880859 0.3830566 0.1381836 0.3830566 0.1381836 0.5249023 0.02880859 0.5595703 0.07470703 0.3830566 0.1381836 0.5595703 0.07470703 0.5722656 0.1376953 0.3830566 0.1381836 0.5722656 0.1376953 0.395752 0.2006836 0.395752 0.2006836 0.5722656 0.1376953 0.5595703 0.2001953 0.395752 0.2006836 0.5595703 0.2001953 0.5249023 0.246582 0.395752 0.2006836 0.5249023 0.246582 0.4777832 0.2631836 0.395752 0.2006836 0.4777832 0.2631836 0.4304199 0.246582 0.7729492 0.9645996 0.7729492 0.9925575 0.6992188 0.9926033 0.7729492 0.9645996 0.6992188 0.9926033 0.7011719 0.964386 0.7729492 0.9645996 0.7011719 0.964386 0.7729492 0.9260254 0.7011719 0.964386 0.6992188 0.9926033 0.6367188 0.9925995 0.7729492 0.9260254 0.7011719 0.964386 0.7016602 0.9259033 0.7729492 0.9260254 0.7016602 0.9259033 0.7729492 0.8812866 0.7011719 0.964386 0.6367188 0.9925995 0.6347656 0.9644165 0.7011719 0.964386 0.6347656 0.9644165 0.7016602 0.9259033 0.6347656 0.9644165 0.6367188 0.9925995 0.5571289 0.9925462 0.6347656 0.9644165 0.5571289 0.9925462 0.5566406 0.9646301 0.6347656 0.9644165 0.5566406 0.9646301 0.6337891 0.9259033 0.6347656 0.9644165 0.6337891 0.9259033 0.7016602 0.9259033 0.6337891 0.9259033 0.5566406 0.9646301 0.5566406 0.9260864 0.6337891 0.9259033 0.5566406 0.9260864 0.5566406 0.8813477 0.7016602 0.9259033 0.6337891 0.9259033 0.6674805 0.8811646 0.6674805 0.8811646 0.6337891 0.9259033 0.5566406 0.8813477 0.7016602 0.9259033 0.6674805 0.8811646 0.7729492 0.8812866 0.6674805 0.8811646 0.5566406 0.8813477 0.6674805 0.8155518 0.6674805 0.8811646 0.6674805 0.8155518 0.7729492 0.8812866 0.6674805 0.8155518 0.5566406 0.8813477 0.5566406 0.81604 0.7729492 0.8812866 0.6674805 0.8155518 0.7729492 0.815918 0.6674805 0.8155518 0.5566406 0.81604 0.6308594 0.7353516 0.6308594 0.7353516 0.5566406 0.81604 0.5566406 0.7353516 0.6308594 0.7353516 0.5566406 0.7353516 0.5566406 0.6000977 0.7729492 0.815918 0.6674805 0.8155518 0.703125 0.7353516 0.703125 0.7353516 0.6674805 0.8155518 0.6308594 0.7353516 0.7729492 0.815918 0.703125 0.7353516 0.7729492 0.7353516 0.7729492 0.7353516 0.703125 0.7353516 0.7729492 0.6000977 0.6308594 0.7353516 0.5566406 0.6000977 0.6313477 0.6000977 0.6308594 0.7353516 0.6313477 0.6000977 0.703125 0.7353516 0.6313477 0.6000977 0.5566406 0.6000977 0.5576172 0.4301758 0.7729492 0.6000977 0.703125 0.7353516 0.7011719 0.5998535 0.7011719 0.5998535 0.703125 0.7353516 0.6313477 0.6000977 0.7729492 0.6000977 0.7011719 0.5998535 0.7734375 0.4301758 0.6313477 0.6000977 0.5576172 0.4301758 0.6303711 0.4301758 0.6313477 0.6000977 0.6303711 0.4301758 0.7011719 0.5998535 0.6303711 0.4301758 0.5576172 0.4301758 0.5571289 0.2509766 0.7734375 0.4301758 0.7011719 0.5998535 0.7006836 0.4301758 0.7006836 0.4301758 0.7011719 0.5998535 0.6303711 0.4301758 0.7734375 0.4301758 0.7006836 0.4301758 0.7739258 0.2509766 0.6303711 0.4301758 0.5571289 0.2509766 0.6303711 0.2509766 0.6303711 0.4301758 0.6303711 0.2509766 0.7006836 0.4301758 0.7739258 0.2509766 0.7006836 0.4301758 0.7006836 0.2509766 0.7006836 0.2509766 0.7006836 0.4301758 0.6303711 0.2509766 0.6303711 0.2509766 0.5571289 0.2509766 0.6303711 0.04638671 0.6303711 0.2509766 0.6303711 0.04638671 0.7006836 0.2509766 0.6303711 0.04638671 0.5571289 0.2509766 0.5571289 0.04638671 0.7739258 0.2509766 0.7006836 0.2509766 0.7006836 0.04638671 0.7006836 0.04638671 0.7006836 0.2509766 0.6303711 0.04638671 0.7739258 0.2509766 0.7006836 0.04638671 0.7739258 0.04638671 0.7739258 0.04638671 0.7006836 0.04638671 0.7739258 0.005371093 0.7739258 0.005371093 0.7006836 0.04638671 0.7006836 0.005371093 0.7006836 0.005371093 0.7006836 0.04638671 0.6303711 0.04638671 0.7006836 0.005371093 0.6303711 0.04638671 0.6303711 0.005371093 0.6303711 0.005371093 0.6303711 0.04638671 0.5571289 0.04638671 0.6303711 0.005371093 0.5571289 0.04638671 0.5571289 0.005371093 0.9892578 0.9645996 0.9892578 0.9925575 0.9145508 0.9926033 0.9892578 0.9645996 0.9145508 0.9926033 0.9160156 0.964386 0.9892578 0.9645996 0.9160156 0.964386 0.9892578 0.9260254 0.9160156 0.964386 0.9145508 0.9926033 0.8520508 0.9925995 0.9892578 0.9260254 0.9160156 0.964386 0.9169922 0.9259033 0.9892578 0.9260254 0.9169922 0.9259033 0.9892578 0.8812866 0.9160156 0.964386 0.8520508 0.9925995 0.8500977 0.9644165 0.9160156 0.964386 0.8500977 0.9644165 0.9169922 0.9259033 0.8500977 0.9644165 0.8520508 0.9925995 0.7729492 0.9925462 0.8500977 0.9644165 0.7729492 0.9925462 0.7729492 0.9646301 0.8500977 0.9644165 0.7729492 0.9646301 0.8491211 0.9259033 0.8500977 0.9644165 0.8491211 0.9259033 0.9169922 0.9259033 0.8491211 0.9259033 0.7729492 0.9646301 0.7729492 0.9260864 0.8491211 0.9259033 0.7729492 0.9260864 0.7729492 0.8813477 0.9169922 0.9259033 0.8491211 0.9259033 0.8828125 0.8811646 0.8828125 0.8811646 0.8491211 0.9259033 0.7729492 0.8813477 0.9169922 0.9259033 0.8828125 0.8811646 0.9892578 0.8812866 0.8828125 0.8811646 0.7729492 0.8813477 0.8828125 0.8155518 0.8828125 0.8811646 0.8828125 0.8155518 0.9892578 0.8812866 0.8828125 0.8155518 0.7729492 0.8813477 0.7729492 0.81604 0.9892578 0.8812866 0.8828125 0.8155518 0.9892578 0.815918 0.8828125 0.8155518 0.7729492 0.81604 0.8461914 0.7353516 0.8461914 0.7353516 0.7729492 0.81604 0.7729492 0.7353516 0.8461914 0.7353516 0.7729492 0.7353516 0.7729492 0.6000977 0.9892578 0.815918 0.8828125 0.8155518 0.9189453 0.7353516 0.9189453 0.7353516 0.8828125 0.8155518 0.8461914 0.7353516 0.9892578 0.815918 0.9189453 0.7353516 0.9892578 0.7353516 0.8461914 0.7353516 0.7729492 0.6000977 0.847168 0.6000977 0.8461914 0.7353516 0.847168 0.6000977 0.9189453 0.7353516 0.847168 0.6000977 0.7729492 0.6000977 0.7734375 0.4301758 0.9892578 0.7353516 0.9189453 0.7353516 0.9169922 0.5998535 0.9169922 0.5998535 0.9189453 0.7353516 0.847168 0.6000977 0.9892578 0.7353516 0.9169922 0.5998535 0.9892578 0.6000977 0.847168 0.6000977 0.7734375 0.4301758 0.8461914 0.4301758 0.847168 0.6000977 0.8461914 0.4301758 0.9169922 0.5998535 0.8461914 0.4301758 0.7734375 0.4301758 0.7734375 0.2509766 0.9892578 0.6000977 0.9169922 0.5998535 0.9165039 0.4301758 0.9165039 0.4301758 0.9169922 0.5998535 0.8461914 0.4301758 0.9892578 0.6000977 0.9165039 0.4301758 0.9892578 0.4301758 0.8461914 0.4301758 0.7734375 0.2509766 0.8466797 0.2509766 0.8461914 0.4301758 0.8466797 0.2509766 0.9165039 0.4301758 0.8466797 0.2509766 0.7734375 0.2509766 0.7734375 0.04638671 0.9892578 0.4301758 0.9165039 0.4301758 0.9169922 0.2509766 0.9169922 0.2509766 0.9165039 0.4301758 0.8466797 0.2509766 0.9892578 0.4301758 0.9169922 0.2509766 0.9897461 0.2509766 0.8466797 0.2509766 0.7734375 0.04638671 0.8466797 0.04638671 0.8466797 0.2509766 0.8466797 0.04638671 0.9169922 0.2509766 0.7734375 0.005371093 0.8466797 0.005371093 0.7734375 0.04638671 0.7734375 0.04638671 0.8466797 0.005371093 0.8466797 0.04638671 0.8466797 0.04638671 0.8466797 0.005371093 0.9169922 0.005371093 0.9897461 0.2509766 0.9169922 0.2509766 0.9169922 0.04638671 0.9169922 0.04638671 0.9169922 0.2509766 0.8466797 0.04638671 0.9169922 0.04638671 0.8466797 0.04638671 0.9169922 0.005371093 0.9897461 0.2509766 0.9169922 0.04638671 0.9897461 0.04638671 0.9169922 0.04638671 0.9169922 0.005371093 0.9897461 0.005371093 0.9169922 0.04638671 0.9897461 0.005371093 0.9897461 0.04638671 0.7734375 0.9645996 0.7734375 0.9925575 0.699707 0.9926033 0.7734375 0.9645996 0.699707 0.9926033 0.7016602 0.964386 0.7734375 0.9645996 0.7016602 0.964386 0.7734375 0.9260254 0.7016602 0.964386 0.699707 0.9926033 0.637207 0.9925995 0.7734375 0.9260254 0.7016602 0.964386 0.7021484 0.9259033 0.7734375 0.9260254 0.7021484 0.9259033 0.7734375 0.8812866 0.7016602 0.964386 0.637207 0.9925995 0.6352539 0.9644165 0.7016602 0.964386 0.6352539 0.9644165 0.7021484 0.9259033 0.6352539 0.9644165 0.637207 0.9925995 0.5576172 0.9925462 0.6352539 0.9644165 0.5576172 0.9925462 0.5571289 0.9646301 0.6352539 0.9644165 0.5571289 0.9646301 0.6342773 0.9259033 0.6352539 0.9644165 0.6342773 0.9259033 0.7021484 0.9259033 0.6342773 0.9259033 0.5571289 0.9646301 0.5571289 0.9260864 0.6342773 0.9259033 0.5571289 0.9260864 0.5576172 0.8813477 0.7021484 0.9259033 0.6342773 0.9259033 0.6679688 0.8811646 0.6679688 0.8811646 0.6342773 0.9259033 0.5576172 0.8813477 0.7021484 0.9259033 0.6679688 0.8811646 0.7734375 0.8812866 0.6679688 0.8811646 0.5576172 0.8813477 0.6679688 0.8155518 0.6679688 0.8811646 0.6679688 0.8155518 0.7734375 0.8812866 0.6679688 0.8155518 0.5576172 0.8813477 0.5571289 0.81604 0.7734375 0.8812866 0.6679688 0.8155518 0.7734375 0.815918 0.6679688 0.8155518 0.5571289 0.81604 0.6313477 0.7353516 0.6313477 0.7353516 0.5571289 0.81604 0.5571289 0.7353516 0.6313477 0.7353516 0.5571289 0.7353516 0.5571289 0.6000977 0.7734375 0.815918 0.6679688 0.8155518 0.7036133 0.7353516 0.7036133 0.7353516 0.6679688 0.8155518 0.6313477 0.7353516 0.7734375 0.815918 0.7036133 0.7353516 0.7734375 0.7353516 0.6313477 0.7353516 0.5571289 0.6000977 0.6318359 0.6000977 0.6313477 0.7353516 0.6318359 0.6000977 0.7036133 0.7353516 0.6318359 0.6000977 0.5571289 0.6000977 0.5581055 0.4301758 0.7734375 0.7353516 0.7036133 0.7353516 0.7016602 0.5998535 0.7016602 0.5998535 0.7036133 0.7353516 0.6318359 0.6000977 0.7734375 0.7353516 0.7016602 0.5998535 0.7734375 0.6000977 0.6318359 0.6000977 0.5581055 0.4301758 0.6308594 0.4301758 0.6318359 0.6000977 0.6308594 0.4301758 0.7016602 0.5998535 0.6308594 0.4301758 0.5581055 0.4301758 0.5576172 0.2509766 0.7734375 0.6000977 0.7016602 0.5998535 0.7011719 0.4301758 0.7011719 0.4301758 0.7016602 0.5998535 0.6308594 0.4301758 0.7734375 0.6000977 0.7011719 0.4301758 0.7739258 0.4301758 0.6308594 0.4301758 0.5576172 0.2509766 0.6308594 0.2509766 0.6308594 0.4301758 0.6308594 0.2509766 0.7011719 0.4301758 0.6308594 0.2509766 0.5576172 0.2509766 0.5576172 0.04638671 0.7739258 0.4301758 0.7011719 0.4301758 0.7011719 0.2509766 0.7011719 0.2509766 0.7011719 0.4301758 0.6308594 0.2509766 0.7739258 0.4301758 0.7011719 0.2509766 0.7744141 0.2509766 0.6308594 0.2509766 0.5576172 0.04638671 0.6308594 0.04638671 0.6308594 0.2509766 0.6308594 0.04638671 0.7011719 0.2509766 0.5576172 0.005371093 0.6308594 0.005371093 0.5576172 0.04638671 0.5576172 0.04638671 0.6308594 0.005371093 0.6308594 0.04638671 0.6308594 0.04638671 0.6308594 0.005371093 0.7011719 0.005371093 0.7744141 0.2509766 0.7011719 0.2509766 0.7011719 0.04638671 0.7011719 0.04638671 0.7011719 0.2509766 0.6308594 0.04638671 0.7011719 0.04638671 0.6308594 0.04638671 0.7011719 0.005371093 0.7744141 0.2509766 0.7011719 0.04638671 0.7744141 0.04638671 0.7011719 0.04638671 0.7011719 0.005371093 0.7744141 0.005371093 0.7011719 0.04638671 0.7744141 0.005371093 0.7744141 0.04638671 0.9897461 0.9645996 0.9897461 0.9925575 0.9150391 0.9926033 0.9897461 0.9645996 0.9150391 0.9926033 0.9165039 0.964386 0.9897461 0.9645996 0.9165039 0.964386 0.9897461 0.9260254 0.9165039 0.964386 0.9150391 0.9926033 0.8525391 0.9925995 0.9897461 0.9260254 0.9165039 0.964386 0.9174805 0.9259033 0.9897461 0.9260254 0.9174805 0.9259033 0.9897461 0.8812866 0.9165039 0.964386 0.8525391 0.9925995 0.8505859 0.9644165 0.9165039 0.964386 0.8505859 0.9644165 0.9174805 0.9259033 0.8505859 0.9644165 0.8525391 0.9925995 0.7734375 0.9925462 0.8505859 0.9644165 0.7734375 0.9925462 0.7734375 0.9646301 0.8505859 0.9644165 0.7734375 0.9646301 0.8496094 0.9259033 0.8505859 0.9644165 0.8496094 0.9259033 0.9174805 0.9259033 0.8496094 0.9259033 0.7734375 0.9646301 0.7734375 0.9260864 0.8496094 0.9259033 0.7734375 0.9260864 0.7734375 0.8813477 0.9174805 0.9259033 0.8496094 0.9259033 0.8833008 0.8811646 0.8833008 0.8811646 0.8496094 0.9259033 0.7734375 0.8813477 0.9174805 0.9259033 0.8833008 0.8811646 0.9897461 0.8812866 0.8833008 0.8811646 0.7734375 0.8813477 0.8833008 0.8155518 0.8833008 0.8811646 0.8833008 0.8155518 0.9897461 0.8812866 0.8833008 0.8155518 0.7734375 0.8813477 0.7734375 0.81604 0.9897461 0.8812866 0.8833008 0.8155518 0.9897461 0.815918 0.8833008 0.8155518 0.7734375 0.81604 0.8466797 0.7353516 0.8466797 0.7353516 0.7734375 0.81604 0.7734375 0.7353516 0.8466797 0.7353516 0.7734375 0.7353516 0.7734375 0.6000977 0.9897461 0.815918 0.8833008 0.8155518 0.9194336 0.7353516 0.9194336 0.7353516 0.8833008 0.8155518 0.8466797 0.7353516 0.9897461 0.815918 0.9194336 0.7353516 0.9897461 0.7353516 0.8466797 0.7353516 0.7734375 0.6000977 0.8476563 0.6000977 0.8466797 0.7353516 0.8476563 0.6000977 0.9194336 0.7353516 0.8476563 0.6000977 0.7734375 0.6000977 0.7739258 0.4301758 0.9897461 0.7353516 0.9194336 0.7353516 0.9174805 0.5998535 0.9174805 0.5998535 0.9194336 0.7353516 0.8476563 0.6000977 0.9897461 0.7353516 0.9174805 0.5998535 0.9897461 0.6000977 0.8476563 0.6000977 0.7739258 0.4301758 0.8466797 0.4301758 0.8476563 0.6000977 0.8466797 0.4301758 0.9174805 0.5998535 0.8466797 0.4301758 0.7739258 0.4301758 0.7739258 0.2509766 0.9897461 0.6000977 0.9174805 0.5998535 0.9169922 0.4301758 0.9169922 0.4301758 0.9174805 0.5998535 0.8466797 0.4301758 0.9897461 0.6000977 0.9169922 0.4301758 0.9897461 0.4301758 0.8466797 0.4301758 0.7739258 0.2509766 0.847168 0.2509766 0.8466797 0.4301758 0.847168 0.2509766 0.9169922 0.4301758 0.847168 0.2509766 0.7739258 0.2509766 0.7739258 0.04638671 0.9897461 0.4301758 0.9169922 0.4301758 0.9174805 0.2509766 0.9174805 0.2509766 0.9169922 0.4301758 0.847168 0.2509766 0.9897461 0.4301758 0.9174805 0.2509766 0.9902344 0.2509766 0.847168 0.2509766 0.7739258 0.04638671 0.847168 0.04638671 0.847168 0.2509766 0.847168 0.04638671 0.9174805 0.2509766 0.7739258 0.005371093 0.847168 0.005371093 0.7739258 0.04638671 0.7739258 0.04638671 0.847168 0.005371093 0.847168 0.04638671 0.847168 0.04638671 0.847168 0.005371093 0.9174805 0.005371093 0.9902344 0.2509766 0.9174805 0.2509766 0.9174805 0.04638671 0.9174805 0.04638671 0.9174805 0.2509766 0.847168 0.04638671 0.9174805 0.04638671 0.847168 0.04638671 0.9174805 0.005371093 0.9902344 0.2509766 0.9174805 0.04638671 0.9902344 0.04638671 0.9174805 0.04638671 0.9174805 0.005371093 0.9902344 0.005371093 0.9174805 0.04638671 0.9902344 0.005371093 0.9902344 0.04638671 -0.8066406 -0.015625 -0.7651367 -0.046875 -0.7670898 -0.015625 -0.8066406 -0.015625 -0.7670898 -0.015625 -0.7514648 0.07128906 -0.7651367 -0.046875 -0.8066406 -0.015625 -0.8051758 -0.09667968 -0.8066406 -0.015625 -0.7514648 0.07128906 -0.7954102 0.07128906 -0.8051758 -0.09667968 -0.8066406 -0.015625 -0.8540039 -0.01660156 -0.8540039 -0.01660156 -0.8066406 -0.015625 -0.7954102 0.07128906 -0.8051758 -0.09667968 -0.8540039 -0.01660156 -0.831543 -0.1181641 -0.7954102 0.07128906 -0.7514648 0.07128906 -0.7529297 0.1513672 -0.831543 -0.1181641 -0.8540039 -0.01660156 -0.8710938 -0.1289063 -0.7954102 0.07128906 -0.7529297 0.1513672 -0.800293 0.1645508 -0.8710938 -0.1289063 -0.8540039 -0.01660156 -0.8911133 -0.01660156 -0.8710938 -0.1289063 -0.8911133 -0.01660156 -0.9116211 -0.1201172 -0.9116211 -0.1201172 -0.8911133 -0.01660156 -0.9384766 -0.1005859 -0.8540039 -0.01660156 -0.7954102 0.07128906 -0.8510742 0.07128906 -0.8540039 -0.01660156 -0.8510742 0.07128906 -0.8911133 -0.01660156 -0.7954102 0.07128906 -0.800293 0.1645508 -0.8447266 0.1157227 -0.7954102 0.07128906 -0.8447266 0.1157227 -0.8510742 0.07128906 -0.9384766 -0.1005859 -0.8911133 -0.01660156 -0.9389648 -0.01660156 -0.9384766 -0.1005859 -0.9389648 -0.01660156 -0.9799805 -0.05371093 -0.9799805 -0.05371093 -0.9389648 -0.01660156 -0.9790039 -0.015625 -0.9790039 -0.015625 -0.9389648 -0.01660156 -0.9970703 0.07128906 -0.9970703 0.07128906 -0.9389648 -0.01660156 -0.9526367 0.07128906 -0.9526367 0.07128906 -0.9389648 -0.01660156 -0.8911133 -0.01660156 -0.9970703 0.07128906 -0.9526367 0.07128906 -0.996582 0.1445313 -0.8974609 0.07128906 -0.8911133 -0.01660156 -0.8510742 0.07128906 -0.8911133 -0.01660156 -0.8974609 0.07128906 -0.9526367 0.07128906 -0.8974609 0.07128906 -0.8510742 0.07128906 -0.9042969 0.1157227 -0.8974609 0.07128906 -0.9042969 0.1157227 -0.9526367 0.07128906 -0.9042969 0.1157227 -0.8510742 0.07128906 -0.8447266 0.1157227 -0.996582 0.1445313 -0.9526367 0.07128906 -0.9492188 0.1586914 -0.9492188 0.1586914 -0.9526367 0.07128906 -0.9042969 0.1157227 -0.9042969 0.1157227 -0.8447266 0.1157227 -0.8525391 0.1743164 -0.8525391 0.1743164 -0.8447266 0.1157227 -0.800293 0.1645508 -0.9492188 0.1586914 -0.9042969 0.1157227 -0.8969727 0.1767578 -0.8969727 0.1767578 -0.9042969 0.1157227 -0.8525391 0.1743164 -0.996582 0.1445313 -0.9492188 0.1586914 -0.9345703 0.2373047 -0.9345703 0.2373047 -0.9492188 0.1586914 -0.8969727 0.1767578 -0.996582 0.1445313 -0.9345703 0.2373047 -0.9824219 0.2124023 -0.9824219 0.2124023 -0.9345703 0.2373047 -0.9951172 0.265625 -0.9951172 0.265625 -0.9345703 0.2373047 -0.9428711 0.3100586 -0.9428711 0.3100586 -0.9345703 0.2373047 -0.9208984 0.3188477 -0.9208984 0.3188477 -0.9345703 0.2373047 -0.8964844 0.2563477 -0.8964844 0.2563477 -0.9345703 0.2373047 -0.8969727 0.1767578 -0.9208984 0.3188477 -0.8964844 0.2563477 -0.8989258 0.3271484 -0.8964844 0.2563477 -0.8969727 0.1767578 -0.8569336 0.2573242 -0.8964844 0.2563477 -0.8569336 0.2573242 -0.8989258 0.3271484 -0.8569336 0.2573242 -0.8969727 0.1767578 -0.8525391 0.1743164 -0.8989258 0.3271484 -0.8569336 0.2573242 -0.8579102 0.3300781 -0.8579102 0.3300781 -0.8569336 0.2573242 -0.8369141 0.3193359 -0.8569336 0.2573242 -0.8525391 0.1743164 -0.8168945 0.2421875 -0.8569336 0.2573242 -0.8168945 0.2421875 -0.8369141 0.3193359 -0.8168945 0.2421875 -0.8525391 0.1743164 -0.800293 0.1645508 -0.8369141 0.3193359 -0.8168945 0.2421875 -0.8154297 0.3085938 -0.8168945 0.2421875 -0.800293 0.1645508 -0.7529297 0.1513672 -0.8154297 0.3085938 -0.8168945 0.2421875 -0.7578125 0.2729492 -0.8168945 0.2421875 -0.7529297 0.1513672 -0.7685547 0.21875 -0.8168945 0.2421875 -0.7685547 0.21875 -0.7578125 0.2729492 -0.8066406 -0.015625 -0.7651367 -0.046875 -0.7670898 -0.015625 -0.8066406 -0.015625 -0.7670898 -0.015625 -0.7514648 0.07128906 -0.7651367 -0.046875 -0.8066406 -0.015625 -0.8051758 -0.09667968 -0.8066406 -0.015625 -0.7514648 0.07128906 -0.7954102 0.07128906 -0.8051758 -0.09667968 -0.8066406 -0.015625 -0.8540039 -0.01660156 -0.8540039 -0.01660156 -0.8066406 -0.015625 -0.7954102 0.07128906 -0.8051758 -0.09667968 -0.8540039 -0.01660156 -0.831543 -0.1181641 -0.7954102 0.07128906 -0.7514648 0.07128906 -0.7529297 0.1513672 -0.831543 -0.1181641 -0.8540039 -0.01660156 -0.8710938 -0.1289063 -0.7954102 0.07128906 -0.7529297 0.1513672 -0.800293 0.1645508 -0.8710938 -0.1289063 -0.8540039 -0.01660156 -0.8911133 -0.01660156 -0.8710938 -0.1289063 -0.8911133 -0.01660156 -0.9116211 -0.1201172 -0.9116211 -0.1201172 -0.8911133 -0.01660156 -0.9384766 -0.1005859 -0.8540039 -0.01660156 -0.7954102 0.07128906 -0.8510742 0.07128906 -0.8540039 -0.01660156 -0.8510742 0.07128906 -0.8911133 -0.01660156 -0.7954102 0.07128906 -0.800293 0.1645508 -0.8447266 0.1157227 -0.7954102 0.07128906 -0.8447266 0.1157227 -0.8510742 0.07128906 -0.9384766 -0.1005859 -0.8911133 -0.01660156 -0.9389648 -0.01660156 -0.9384766 -0.1005859 -0.9389648 -0.01660156 -0.9799805 -0.05371093 -0.9799805 -0.05371093 -0.9389648 -0.01660156 -0.9790039 -0.015625 -0.9790039 -0.015625 -0.9389648 -0.01660156 -0.9970703 0.07128906 -0.9970703 0.07128906 -0.9389648 -0.01660156 -0.9526367 0.07128906 -0.9526367 0.07128906 -0.9389648 -0.01660156 -0.8911133 -0.01660156 -0.9970703 0.07128906 -0.9526367 0.07128906 -0.996582 0.1445313 -0.8974609 0.07128906 -0.8911133 -0.01660156 -0.8510742 0.07128906 -0.8911133 -0.01660156 -0.8974609 0.07128906 -0.9526367 0.07128906 -0.8974609 0.07128906 -0.8510742 0.07128906 -0.9042969 0.1157227 -0.8974609 0.07128906 -0.9042969 0.1157227 -0.9526367 0.07128906 -0.9042969 0.1157227 -0.8510742 0.07128906 -0.8447266 0.1157227 -0.996582 0.1445313 -0.9526367 0.07128906 -0.9492188 0.1586914 -0.9492188 0.1586914 -0.9526367 0.07128906 -0.9042969 0.1157227 -0.9042969 0.1157227 -0.8447266 0.1157227 -0.8525391 0.1743164 -0.8525391 0.1743164 -0.8447266 0.1157227 -0.800293 0.1645508 -0.9492188 0.1586914 -0.9042969 0.1157227 -0.8969727 0.1767578 -0.8969727 0.1767578 -0.9042969 0.1157227 -0.8525391 0.1743164 -0.996582 0.1445313 -0.9492188 0.1586914 -0.9345703 0.2373047 -0.9345703 0.2373047 -0.9492188 0.1586914 -0.8969727 0.1767578 -0.996582 0.1445313 -0.9345703 0.2373047 -0.9824219 0.2124023 -0.9824219 0.2124023 -0.9345703 0.2373047 -0.9951172 0.265625 -0.9951172 0.265625 -0.9345703 0.2373047 -0.9428711 0.3100586 -0.9428711 0.3100586 -0.9345703 0.2373047 -0.9208984 0.3188477 -0.9208984 0.3188477 -0.9345703 0.2373047 -0.8964844 0.2563477 -0.8964844 0.2563477 -0.9345703 0.2373047 -0.8969727 0.1767578 -0.9208984 0.3188477 -0.8964844 0.2563477 -0.8989258 0.3271484 -0.8964844 0.2563477 -0.8969727 0.1767578 -0.8569336 0.2573242 -0.8964844 0.2563477 -0.8569336 0.2573242 -0.8989258 0.3271484 -0.8569336 0.2573242 -0.8969727 0.1767578 -0.8525391 0.1743164 -0.8989258 0.3271484 -0.8569336 0.2573242 -0.8579102 0.3300781 -0.8579102 0.3300781 -0.8569336 0.2573242 -0.8369141 0.3193359 -0.8569336 0.2573242 -0.8525391 0.1743164 -0.8168945 0.2421875 -0.8569336 0.2573242 -0.8168945 0.2421875 -0.8369141 0.3193359 -0.8168945 0.2421875 -0.8525391 0.1743164 -0.800293 0.1645508 -0.8369141 0.3193359 -0.8168945 0.2421875 -0.8154297 0.3085938 -0.8168945 0.2421875 -0.800293 0.1645508 -0.7529297 0.1513672 -0.8154297 0.3085938 -0.8168945 0.2421875 -0.7578125 0.2729492 -0.8168945 0.2421875 -0.7529297 0.1513672 -0.7685547 0.21875 -0.8168945 0.2421875 -0.7685547 0.21875 -0.7578125 0.2729492</float_array>
          <technique_common>
            <accessor source="#Root__Mt_CmnTex_Etc_GerudoArticles_Vase_I-mesh-map-array" count="1080" stride="2">
              <param name="S" type="float"/>
              <param name="T" type="float"/>
            </accessor>
          </technique_common>
        </source>
        <vertices id="Root__Mt_CmnTex_Etc_GerudoArticles_Vase_I-mesh-vertices">
          <input semantic="POSITION" source="#Root__Mt_CmnTex_Etc_GerudoArticles_Vase_I-mesh-positions"/>
        </vertices>
        <triangles material="Mt_CmnTex_Etc_GerudoArticles_Vase_I-material" count="360">
          <input semantic="VERTEX" source="#Root__Mt_CmnTex_Etc_GerudoArticles_Vase_I-mesh-vertices" offset="0"/>
          <input semantic="NORMAL" source="#Root__Mt_CmnTex_Etc_GerudoArticles_Vase_I-mesh-normals" offset="1"/>
          <input semantic="TEXCOORD" source="#Root__Mt_CmnTex_Etc_GerudoArticles_Vase_I-mesh-map" offset="2" set="0"/>
          <p>0 0 0 1 1 1 2 2 2 3 3 3 4 3 4 1 1 5 5 4 6 6 5 7 1 1 8 7 6 9 8 7 10 1 1 11 9 8 12 10 8 13 1 1 14 11 9 15 12 10 16 1 1 17 13 11 18 14 12 19 15 13 20 16 14 21 17 15 22 14 12 23 18 16 24 19 16 25 14 12 26 20 17 27 21 18 28 14 12 29 22 19 30 23 20 31 14 12 32 24 21 33 25 21 34 14 12 35 26 22 36 27 22 37 28 22 38 27 22 39 26 22 40 29 22 41 29 22 42 26 22 43 30 22 44 30 22 45 26 22 46 31 22 47 30 22 48 31 22 49 32 22 50 30 22 51 32 22 52 33 22 53 33 22 54 32 22 55 34 22 56 33 22 57 34 22 58 35 22 59 33 22 60 35 22 61 36 22 62 33 22 63 36 22 64 37 22 65 38 23 66 39 12 67 40 24 68 38 23 69 40 24 70 41 25 71 38 23 72 41 25 73 42 26 74 41 25 75 40 24 76 43 27 77 42 26 78 41 25 79 44 28 80 42 26 81 44 28 82 45 29 83 41 25 84 43 27 85 46 30 86 41 25 87 46 30 88 44 28 89 46 30 90 43 27 91 47 31 92 46 30 93 47 31 94 48 32 95 46 30 96 48 32 97 49 33 98 46 30 99 49 33 100 44 28 101 49 33 102 48 32 103 50 34 104 49 33 105 50 34 106 51 35 107 44 28 108 49 33 109 52 36 110 52 36 111 49 33 112 51 35 113 44 28 114 52 36 115 45 29 116 52 36 117 51 35 118 53 37 119 52 36 120 53 37 121 45 29 122 53 37 123 51 35 124 54 38 125 45 29 126 53 37 127 55 39 128 53 37 129 54 38 130 56 40 131 56 40 132 54 38 133 57 41 134 56 40 135 57 41 136 58 42 137 55 39 138 53 37 139 59 43 140 59 43 141 53 37 142 56 40 143 55 39 144 59 43 145 60 44 146 60 44 147 59 43 148 61 45 149 56 40 150 58 42 151 62 46 152 56 40 153 62 46 154 59 43 155 62 46 156 58 42 157 63 47 158 61 45 159 59 43 160 64 48 161 64 48 162 59 43 163 62 46 164 61 45 165 64 48 166 65 49 167 62 46 168 63 47 169 66 50 170 62 46 171 66 50 172 64 48 173 66 50 174 63 47 175 67 51 176 65 49 177 64 48 178 68 52 179 68 52 180 64 48 181 66 50 182 65 49 183 68 52 184 69 53 185 66 50 186 67 51 187 70 54 188 66 50 189 70 54 190 68 52 191 69 53 192 68 52 193 71 55 194 71 55 195 68 52 196 70 54 197 70 54 198 67 51 199 72 56 200 70 54 201 72 56 202 71 55 203 72 56 204 67 51 205 73 57 206 69 53 207 71 55 208 74 58 209 74 58 210 71 55 211 72 56 212 69 53 213 74 58 214 75 59 215 75 59 216 74 58 217 76 60 218 76 60 219 74 58 220 77 61 221 77 61 222 74 58 223 72 56 224 77 61 225 72 56 226 78 62 227 78 62 228 72 56 229 73 57 230 78 62 231 73 57 232 79 63 233 80 64 234 81 65 235 82 66 236 80 64 237 82 66 238 83 67 239 80 64 240 83 67 241 84 68 242 83 67 243 82 66 244 85 69 245 84 68 246 83 67 247 86 70 248 84 68 249 86 70 250 87 71 251 83 67 252 85 69 253 88 72 254 83 67 255 88 72 256 86 70 257 88 72 258 85 69 259 89 12 260 88 72 261 89 12 262 90 73 263 88 72 264 90 73 265 91 74 266 88 72 267 91 74 268 86 70 269 91 74 270 90 73 271 92 75 272 91 74 273 92 75 274 93 76 275 86 70 276 91 74 277 94 77 278 94 77 279 91 74 280 93 76 281 86 70 282 94 77 283 87 71 284 94 77 285 93 76 286 95 78 287 94 77 288 95 78 289 87 71 290 95 78 291 93 76 292 96 79 293 87 71 294 95 78 295 97 80 296 95 78 297 96 79 298 98 81 299 98 81 300 96 79 301 99 82 302 98 81 303 99 82 304 100 83 305 97 80 306 95 78 307 101 84 308 101 84 309 95 78 310 98 81 311 97 80 312 101 84 313 102 85 314 98 81 315 100 83 316 103 86 317 98 81 318 103 86 319 101 84 320 103 86 321 100 83 322 104 87 323 102 85 324 101 84 325 105 88 326 105 88 327 101 84 328 103 86 329 102 85 330 105 88 331 106 89 332 103 86 333 104 87 334 107 90 335 103 86 336 107 90 337 105 88 338 107 90 339 104 87 340 108 91 341 106 89 342 105 88 343 109 92 344 109 92 345 105 88 346 107 90 347 106 89 348 109 92 349 110 93 350 107 90 351 108 91 352 111 94 353 107 90 354 111 94 355 109 92 356 111 94 357 108 91 358 112 95 359 110 93 360 109 92 361 113 96 362 113 96 363 109 92 364 111 94 365 110 93 366 113 96 367 114 97 368 111 94 369 112 95 370 115 98 371 111 94 372 115 98 373 113 96 374 116 99 375 117 100 376 112 95 377 112 95 378 117 100 379 115 98 380 115 98 381 117 100 382 118 101 383 114 97 384 113 96 385 119 102 386 119 102 387 113 96 388 115 98 389 119 102 390 115 98 391 118 101 392 114 97 393 119 102 394 120 103 395 119 102 396 118 101 397 121 104 398 119 102 399 121 104 400 120 103 401 122 105 402 123 12 403 124 106 404 122 105 405 124 106 406 125 107 407 122 105 408 125 107 409 126 108 410 125 107 411 124 106 412 127 109 413 126 108 414 125 107 415 128 110 416 126 108 417 128 110 418 129 111 419 125 107 420 127 109 421 130 112 422 125 107 423 130 112 424 128 110 425 130 112 426 127 109 427 131 113 428 130 112 429 131 113 430 132 114 431 130 112 432 132 114 433 133 115 434 130 112 435 133 115 436 128 110 437 133 115 438 132 114 439 134 116 440 133 115 441 134 116 442 135 117 443 128 110 444 133 115 445 136 118 446 136 118 447 133 115 448 135 117 449 128 110 450 136 118 451 129 111 452 136 118 453 135 117 454 137 119 455 136 118 456 137 119 457 129 111 458 137 119 459 135 117 460 138 120 461 129 111 462 137 119 463 139 121 464 137 119 465 138 120 466 140 122 467 140 122 468 138 120 469 141 123 470 140 122 471 141 123 472 142 124 473 139 121 474 137 119 475 143 125 476 143 125 477 137 119 478 140 122 479 139 121 480 143 125 481 144 126 482 140 122 483 142 124 484 145 127 485 140 122 486 145 127 487 143 125 488 145 127 489 142 124 490 146 128 491 144 126 492 143 125 493 147 129 494 147 129 495 143 125 496 145 127 497 144 126 498 147 129 499 148 130 500 145 127 501 146 128 502 149 131 503 145 127 504 149 131 505 147 129 506 149 131 507 146 128 508 150 132 509 148 130 510 147 129 511 151 133 512 151 133 513 147 129 514 149 131 515 148 130 516 151 133 517 152 134 518 149 131 519 150 132 520 153 135 521 149 131 522 153 135 523 151 133 524 153 135 525 150 132 526 154 136 527 152 134 528 151 133 529 155 137 530 155 137 531 151 133 532 153 135 533 152 134 534 155 137 535 156 138 536 153 135 537 154 136 538 157 139 539 153 135 540 157 139 541 155 137 542 158 140 543 159 141 544 154 136 545 154 136 546 159 141 547 157 139 548 157 139 549 159 141 550 160 142 551 156 138 552 155 137 553 161 143 554 161 143 555 155 137 556 157 139 557 161 143 558 157 139 559 160 142 560 156 138 561 161 143 562 162 144 563 161 143 564 160 142 565 163 145 566 161 143 567 163 145 568 162 144 569 164 146 570 165 147 571 166 148 572 164 146 573 166 148 574 167 149 575 164 146 576 167 149 577 168 150 578 167 149 579 166 148 580 169 151 581 168 150 582 167 149 583 170 152 584 168 150 585 170 152 586 171 153 587 167 149 588 169 151 589 172 154 590 167 149 591 172 154 592 170 152 593 172 154 594 169 151 595 173 12 596 172 154 597 173 12 598 174 155 599 172 154 600 174 155 601 175 156 602 172 154 603 175 156 604 170 152 605 175 156 606 174 155 607 176 157 608 175 156 609 176 157 610 177 158 611 170 152 612 175 156 613 178 159 614 178 159 615 175 156 616 177 158 617 170 152 618 178 159 619 171 153 620 178 159 621 177 158 622 179 160 623 178 159 624 179 160 625 171 153 626 179 160 627 177 158 628 180 161 629 171 153 630 179 160 631 181 162 632 179 160 633 180 161 634 182 163 635 182 163 636 180 161 637 183 164 638 182 163 639 183 164 640 184 165 641 181 162 642 179 160 643 185 166 644 185 166 645 179 160 646 182 163 647 181 162 648 185 166 649 186 167 650 182 163 651 184 165 652 187 168 653 182 163 654 187 168 655 185 166 656 187 168 657 184 165 658 188 169 659 186 167 660 185 166 661 189 170 662 189 170 663 185 166 664 187 168 665 186 167 666 189 170 667 190 171 668 187 168 669 188 169 670 191 172 671 187 168 672 191 172 673 189 170 674 191 172 675 188 169 676 192 173 677 190 171 678 189 170 679 193 174 680 193 174 681 189 170 682 191 172 683 190 171 684 193 174 685 194 175 686 191 172 687 192 173 688 195 176 689 191 172 690 195 176 691 193 174 692 195 176 693 192 173 694 196 177 695 194 175 696 193 174 697 197 178 698 197 178 699 193 174 700 195 176 701 194 175 702 197 178 703 198 179 704 195 176 705 196 177 706 199 180 707 195 176 708 199 180 709 197 178 710 200 181 711 201 182 712 196 177 713 196 177 714 201 182 715 199 180 716 199 180 717 201 182 718 202 183 719 198 179 720 197 178 721 203 184 722 203 184 723 197 178 724 199 180 725 203 184 726 199 180 727 202 183 728 198 179 729 203 184 730 204 185 731 203 184 732 202 183 733 205 186 734 203 184 735 205 186 736 204 185 737 206 187 738 207 188 739 208 189 740 206 187 741 208 189 742 209 190 743 207 188 744 206 187 745 210 191 746 206 187 747 209 190 748 211 192 749 210 191 750 206 187 751 212 193 752 212 193 753 206 187 754 211 192 755 210 191 756 212 193 757 213 194 758 211 192 759 209 190 760 214 195 761 213 194 762 212 193 763 215 196 764 211 192 765 214 195 766 216 197 767 215 196 768 212 193 769 217 198 770 215 196 771 217 198 772 218 199 773 218 199 774 217 198 775 219 200 776 212 193 777 211 192 778 220 201 779 212 193 780 220 201 781 217 198 782 211 192 783 216 197 784 221 202 785 211 192 786 221 202 787 220 201 788 219 200 789 217 198 790 222 203 791 219 200 792 222 203 793 223 204 794 223 204 795 222 203 796 224 205 797 224 205 798 222 203 799 225 206 800 225 206 801 222 203 802 226 207 803 226 207 804 222 203 805 217 198 806 225 206 807 226 207 808 227 208 809 228 209 810 217 198 811 220 201 812 217 198 813 228 209 814 226 207 815 228 209 816 220 201 817 229 210 818 228 209 819 229 210 820 226 207 821 229 210 822 220 201 823 221 202 824 227 208 825 226 207 826 230 211 827 230 211 828 226 207 829 229 210 830 229 210 831 221 202 832 231 212 833 231 212 834 221 202 835 216 197 836 230 211 837 229 210 838 232 213 839 232 213 840 229 210 841 231 212 842 227 208 843 230 211 844 233 214 845 233 214 846 230 211 847 232 213 848 227 208 849 233 214 850 234 215 851 234 215 852 233 214 853 235 216 854 235 216 855 233 214 856 236 217 857 236 217 858 233 214 859 237 218 860 237 218 861 233 214 862 238 219 863 238 219 864 233 214 865 232 213 866 237 218 867 238 219 868 239 220 869 238 219 870 232 213 871 240 221 872 238 219 873 240 221 874 239 220 875 240 221 876 232 213 877 231 212 878 239 220 879 240 221 880 241 222 881 241 222 882 240 221 883 242 223 884 240 221 885 231 212 886 243 224 887 240 221 888 243 224 889 242 223 890 243 224 891 231 212 892 216 197 893 242 223 894 243 224 895 244 225 896 243 224 897 216 197 898 214 195 899 244 225 900 243 224 901 245 226 902 243 224 903 214 195 904 246 227 905 243 224 906 246 227 907 245 226 908 247 228 909 248 229 910 249 230 911 247 228 912 249 230 913 250 231 914 248 229 915 247 228 916 251 232 917 247 228 918 250 231 919 252 233 920 251 232 921 247 228 922 253 234 923 253 234 924 247 228 925 252 233 926 251 232 927 253 234 928 254 235 929 252 233 930 250 231 931 255 236 932 254 235 933 253 234 934 256 237 935 252 233 936 255 236 937 257 238 938 256 237 939 253 234 940 258 239 941 256 237 942 258 239 943 259 240 944 259 240 945 258 239 946 260 241 947 253 234 948 252 233 949 261 242 950 253 234 951 261 242 952 258 239 953 252 233 954 257 238 955 262 243 956 252 233 957 262 243 958 261 242 959 260 241 960 258 239 961 263 244 962 260 241 963 263 244 964 264 245 965 264 245 966 263 244 967 265 246 968 265 246 969 263 244 970 266 247 971 266 247 972 263 244 973 267 248 974 267 248 975 263 244 976 258 239 977 266 247 978 267 248 979 268 249 980 269 250 981 258 239 982 261 242 983 258 239 984 269 250 985 267 248 986 269 250 987 261 242 988 270 251 989 269 250 990 270 251 991 267 248 992 270 251 993 261 242 994 262 243 995 268 249 996 267 248 997 271 252 998 271 252 999 267 248 1000 270 251 1001 270 251 1002 262 243 1003 272 253 1004 272 253 1005 262 243 1006 257 238 1007 271 252 1008 270 251 1009 273 254 1010 273 254 1011 270 251 1012 272 253 1013 268 249 1014 271 252 1015 274 255 1016 274 255 1017 271 252 1018 273 254 1019 268 249 1020 274 255 1021 275 256 1022 275 256 1023 274 255 1024 276 257 1025 276 257 1026 274 255 1027 277 258 1028 277 258 1029 274 255 1030 278 259 1031 278 259 1032 274 255 1033 279 260 1034 279 260 1035 274 255 1036 273 254 1037 278 259 1038 279 260 1039 280 261 1040 279 260 1041 273 254 1042 281 262 1043 279 260 1044 281 262 1045 280 261 1046 281 262 1047 273 254 1048 272 253 1049 280 261 1050 281 262 1051 282 263 1052 282 263 1053 281 262 1054 283 264 1055 281 262 1056 272 253 1057 284 265 1058 281 262 1059 284 265 1060 283 264 1061 284 265 1062 272 253 1063 257 238 1064 283 264 1065 284 265 1066 285 266 1067 284 265 1068 257 238 1069 255 236 1070 285 266 1071 284 265 1072 286 267 1073 284 265 1074 255 236 1075 287 268 1076 284 265 1077 287 268 1078 286 267 1079</p>
        </triangles>
      </mesh>
    </geometry>
  </library_geometries>
  <library_controllers>
    <controller id="Armature_Root__Mt_CmnTex_Etc_GerudoArticles_Vase_I-skin" name="Armature">
      <skin source="#Root__Mt_CmnTex_Etc_GerudoArticles_Vase_I-mesh">
        <bind_shape_matrix>1 0 0 0 0 1 0 0 0 0 1 0 0 0 0 1</bind_shape_matrix>
        <source id="Armature_Root__Mt_CmnTex_Etc_GerudoArticles_Vase_I-skin-joints">
          <Name_array id="Armature_Root__Mt_CmnTex_Etc_GerudoArticles_Vase_I-skin-joints-array" count="1">Root</Name_array>
          <technique_common>
            <accessor source="#Armature_Root__Mt_CmnTex_Etc_GerudoArticles_Vase_I-skin-joints-array" count="1" stride="1">
              <param name="JOINT" type="name"/>
            </accessor>
          </technique_common>
        </source>
        <source id="Armature_Root__Mt_CmnTex_Etc_GerudoArticles_Vase_I-skin-bind_poses">
          <float_array id="Armature_Root__Mt_CmnTex_Etc_GerudoArticles_Vase_I-skin-bind_poses-array" count="16">1 0 0 0 0 -1.62921e-7 1 0 0 -1 -1.62921e-7 0 0 0 0 1</float_array>
          <technique_common>
            <accessor source="#Armature_Root__Mt_CmnTex_Etc_GerudoArticles_Vase_I-skin-bind_poses-array" count="1" stride="16">
              <param name="TRANSFORM" type="float4x4"/>
            </accessor>
          </technique_common>
        </source>
        <source id="Armature_Root__Mt_CmnTex_Etc_GerudoArticles_Vase_I-skin-weights">
          <float_array id="Armature_Root__Mt_CmnTex_Etc_GerudoArticles_Vase_I-skin-weights-array" count="480">1 1 1 1 1 1 1 1 1 1 1 1 1 1 1 1 1 1 1 1 1 1 1 1 1 1 1 1 1 1 1 1 1 1 1 1 1 1 1 1 1 1 1 1 1 1 1 1 1 1 1 1 1 1 1 1 1 1 1 1 1 1 1 1 1 1 1 1 1 1 1 1 1 1 1 1 1 1 1 1 1 1 1 1 1 1 1 1 1 1 1 1 1 1 1 1 1 1 1 1 1 1 1 1 1 1 1 1 1 1 1 1 1 1 1 1 1 1 1 1 1 1 1 1 1 1 1 1 1 1 1 1 1 1 1 1 1 1 1 1 1 1 1 1 1 1 1 1 1 1 1 1 1 1 1 1 1 1 1 1 1 1 1 1 1 1 1 1 1 1 1 1 1 1 1 1 1 1 1 1 1 1 1 1 1 1 1 1 1 1 1 1 1 1 1 1 1 1 1 1 1 1 1 1 1 1 1 1 1 1 1 1 1 1 1 1 1 1 1 1 1 1 1 1 1 1 1 1 1 1 1 1 1 1 1 1 1 1 1 1 1 1 1 1 1 1 1 1 1 1 1 1 1 1 1 1 1 1 1 1 1 1 1 1 1 1 1 1 1 1 1 1 1 1 1 1 1 1 1 1 1 1 1 1 1 1 1 1 1 1 1 1 1 1 1 1 1 1 1 1 1 1 1 1 1 1 1 1 1 1 1 1 1 1 1 1 1 1 1 1 1 1 1 1 1 1 1 1 1 1 1 1 1 1 1 1 1 1 1 1 1 1 1 1 1 1 1 1 1 1 1 1 1 1 1 1 1 1 1 1 1 1 1 1 1 1 1 1 1 1 1 1 1 1 1 1 1 1 1 1 1 1 1 1 1 1 1 1 1 1 1 1 1 1 1 1 1 1 1 1 1 1 1 1 1 1 1 1 1 1 1 1 1 1 1 1 1 1 1 1 1 1 1 1 1 1 1 1 1 1 1 1 1 1 1 1 1 1 1 1 1 1 1 1 1 1 1 1 1 1 1 1 1 1 1 1 1 1 1 1 1 1 1 1 1 1 1 1 1 1 1 1 1 1 1 1 1 1 1 1</float_array>
          <technique_common>
            <accessor source="#Armature_Root__Mt_CmnTex_Etc_GerudoArticles_Vase_I-skin-weights-array" count="480" stride="1">
              <param name="WEIGHT" type="float"/>
            </accessor>
          </technique_common>
        </source>
        <joints>
          <input semantic="JOINT" source="#Armature_Root__Mt_CmnTex_Etc_GerudoArticles_Vase_I-skin-joints"/>
          <input semantic="INV_BIND_MATRIX" source="#Armature_Root__Mt_CmnTex_Etc_GerudoArticles_Vase_I-skin-bind_poses"/>
        </joints>
        <vertex_weights count="480">
          <input semantic="JOINT" source="#Armature_Root__Mt_CmnTex_Etc_GerudoArticles_Vase_I-skin-joints" offset="0"/>
          <input semantic="WEIGHT" source="#Armature_Root__Mt_CmnTex_Etc_GerudoArticles_Vase_I-skin-weights" offset="1"/>
          <vcount>1 1 1 1 1 1 1 1 1 1 1 1 1 1 1 1 1 1 1 1 1 1 1 1 1 1 1 1 1 1 1 1 1 1 1 1 1 1 1 1 1 1 1 1 1 1 1 1 1 1 1 1 1 1 1 1 1 1 1 1 1 1 1 1 1 1 1 1 1 1 1 1 1 1 1 1 1 1 1 1 1 1 1 1 1 1 1 1 1 1 1 1 1 1 1 1 1 1 1 1 1 1 1 1 1 1 1 1 1 1 1 1 1 1 1 1 1 1 1 1 1 1 1 1 1 1 1 1 1 1 1 1 1 1 1 1 1 1 1 1 1 1 1 1 1 1 1 1 1 1 1 1 1 1 1 1 1 1 1 1 1 1 1 1 1 1 1 1 1 1 1 1 1 1 1 1 1 1 1 1 1 1 1 1 1 1 1 1 1 1 1 1 1 1 1 1 1 1 1 1 1 1 1 1 1 1 1 1 1 1 1 1 1 1 1 1 1 1 1 1 1 1 1 1 1 1 1 1 1 1 1 1 1 1 1 1 1 1 1 1 1 1 1 1 1 1 1 1 1 1 1 1 1 1 1 1 1 1 1 1 1 1 1 1 1 1 1 1 1 1 1 1 1 1 1 1 1 1 1 1 1 1 1 1 1 1 1 1 1 1 1 1 1 1 1 1 1 1 1 1 1 1 1 1 1 1 1 1 1 1 1 1 1 1 1 1 1 1 1 1 1 1 1 1 1 1 1 1 1 1 1 1 1 1 1 1 1 1 1 1 1 1 1 1 1 1 1 1 1 1 1 1 1 1 1 1 1 1 1 1 1 1 1 1 1 1 1 1 1 1 1 1 1 1 1 1 1 1 1 1 1 1 1 1 1 1 1 1 1 1 1 1 1 1 1 1 1 1 1 1 1 1 1 1 1 1 1 1 1 1 1 1 1 1 1 1 1 1 1 1 1 1 1 1 1 1 1 1 1 1 1 1 1 1 1 1 1 1 1 1 1 1 1 1 1 1 1 1 1 1 1 1 1 1 1 1 1 1 1 1 1 1 1 1 1 1 1 1 1 1 1 1 1 1 1 1 1 1 1 1 </vcount>
          <v>0 0 0 1 0 2 0 3 0 4 0 5 0 6 0 7 0 8 0 9 0 10 0 11 0 12 0 13 0 14 0 15 0 16 0 17 0 18 0 19 0 20 0 21 0 22 0 23 0 24 0 25 0 26 0 27 0 28 0 29 0 30 0 31 0 32 0 33 0 34 0 35 0 36 0 37 0 38 0 39 0 40 0 41 0 42 0 43 0 44 0 45 0 46 0 47 0 48 0 49 0 50 0 51 0 52 0 53 0 54 0 55 0 56 0 57 0 58 0 59 0 60 0 61 0 62 0 63 0 64 0 65 0 66 0 67 0 68 0 69 0 70 0 71 0 72 0 73 0 74 0 75 0 76 0 77 0 78 0 79 0 80 0 81 0 82 0 83 0 84 0 85 0 86 0 87 0 88 0 89 0 90 0 91 0 92 0 93 0 94 0 95 0 96 0 97 0 98 0 99 0 100 0 101 0 102 0 103 0 104 0 105 0 106 0 107 0 108 0 109 0 110 0 111 0 112 0 113 0 114 0 115 0 116 0 117 0 118 0 119 0 120 0 121 0 122 0 123 0 124 0 125 0 126 0 127 0 128 0 129 0 130 0 131 0 132 0 133 0 134 0 135 0 136 0 137 0 138 0 139 0 140 0 141 0 142 0 143 0 144 0 145 0 146 0 147 0 148 0 149 0 150 0 151 0 152 0 153 0 154 0 155 0 156 0 157 0 158 0 159 0 160 0 161 0 162 0 163 0 164 0 165 0 166 0 167 0 168 0 169 0 170 0 171 0 172 0 173 0 174 0 175 0 176 0 177 0 178 0 179 0 180 0 181 0 182 0 183 0 184 0 185 0 186 0 187 0 188 0 189 0 190 0 191 0 192 0 193 0 194 0 195 0 196 0 197 0 198 0 199 0 200 0 201 0 202 0 203 0 204 0 205 0 206 0 207 0 208 0 209 0 210 0 211 0 212 0 213 0 214 0 215 0 216 0 217 0 218 0 219 0 220 0 221 0 222 0 223 0 224 0 225 0 226 0 227 0 228 0 229 0 230 0 231 0 232 0 233 0 234 0 235 0 236 0 237 0 238 0 239 0 240 0 241 0 242 0 243 0 244 0 245 0 246 0 247 0 248 0 249 0 250 0 251 0 252 0 253 0 254 0 255 0 256 0 257 0 258 0 259 0 260 0 261 0 262 0 263 0 264 0 265 0 266 0 267 0 268 0 269 0 270 0 271 0 272 0 273 0 274 0 275 0 276 0 277 0 278 0 279 0 280 0 281 0 282 0 283 0 284 0 285 0 286 0 287 0 288 0 289 0 290 0 291 0 292 0 293 0 294 0 295 0 296 0 297 0 298 0 299 0 300 0 301 0 302 0 303 0 304 0 305 0 306 0 307 0 308 0 309 0 310 0 311 0 312 0 313 0 314 0 315 0 316 0 317 0 318 0 319 0 320 0 321 0 322 0 323 0 324 0 325 0 326 0 327 0 328 0 329 0 330 0 331 0 332 0 333 0 334 0 335 0 336 0 337 0 338 0 339 0 340 0 341 0 342 0 343 0 344 0 345 0 346 0 347 0 348 0 349 0 350 0 351 0 352 0 353 0 354 0 355 0 356 0 357 0 358 0 359 0 360 0 361 0 362 0 363 0 364 0 365 0 366 0 367 0 368 0 369 0 370 0 371 0 372 0 373 0 374 0 375 0 376 0 377 0 378 0 379 0 380 0 381 0 382 0 383 0 384 0 385 0 386 0 387 0 388 0 389 0 390 0 391 0 392 0 393 0 394 0 395 0 396 0 397 0 398 0 399 0 400 0 401 0 402 0 403 0 404 0 405 0 406 0 407 0 408 0 409 0 410 0 411 0 412 0 413 0 414 0 415 0 416 0 417 0 418 0 419 0 420 0 421 0 422 0 423 0 424 0 425 0 426 0 427 0 428 0 429 0 430 0 431 0 432 0 433 0 434 0 435 0 436 0 437 0 438 0 439 0 440 0 441 0 442 0 443 0 444 0 445 0 446 0 447 0 448 0 449 0 450 0 451 0 452 0 453 0 454 0 455 0 456 0 457 0 458 0 459 0 460 0 461 0 462 0 463 0 464 0 465 0 466 0 467 0 468 0 469 0 470 0 471 0 472 0 473 0 474 0 475 0 476 0 477 0 478 0 479</v>
        </vertex_weights>
      </skin>
    </controller>
  </library_controllers>
  <library_visual_scenes>
    <visual_scene id="Scene" name="Scene">
      <node id="Armature" name="Armature" type="NODE">
        <matrix sid="transform">1 0 0 0 0 -1.62921e-7 -1 0 0 1 -1.62921e-7 0 0 0 0 1</matrix>
        <node id="Armature_Root" name="Root" sid="Root" type="JOINT">
          <matrix sid="transform">1 0 0 0 0 1 0 0 0 0 1 0 0 0 0 1</matrix>
          <extra>
            <technique profile="blender">
              <layer sid="layer" type="string">0</layer>
              <tip_x sid="tip_x" type="float">0</tip_x>
              <tip_y sid="tip_y" type="float">1</tip_y>
              <tip_z sid="tip_z" type="float">0</tip_z>
            </technique>
          </extra>
        </node>
        <node id="Root__Mt_CmnTex_Etc_GerudoArticles_Vase_I" name="Root__Mt_CmnTex_Etc_GerudoArticles_Vase_I" type="NODE">
          <matrix sid="transform">1 0 0 0 0 1 0 0 0 0 1 0 0 0 0 1</matrix>
          <instance_controller url="#Armature_Root__Mt_CmnTex_Etc_GerudoArticles_Vase_I-skin">
            <skeleton>#Armature_Root</skeleton>
            <bind_material>
              <technique_common>
                <instance_material symbol="Mt_CmnTex_Etc_GerudoArticles_Vase_I-material" target="#Mt_CmnTex_Etc_GerudoArticles_Vase_I-material">
                  <bind_vertex_input semantic="Root__Mt_CmnTex_Etc_GerudoArticles_Vase_I-texcoord" input_semantic="TEXCOORD" input_set="0"/>
                </instance_material>
              </technique_common>
            </bind_material>
          </instance_controller>
        </node>
      </node>
    </visual_scene>
  </library_visual_scenes>
  <scene>
    <instance_visual_scene url="#Scene"/>
  </scene>
</COLLADA>