# Blender 3.5.0
# www.blender.org
mtllib pot_small.mtl
o pot
v 9.219067 59.602318 -9.219072
v -0.000001 59.602318 -13.037734
v 13.913050 59.602318 -13.913054
v -0.000001 59.602318 -19.676033
v 15.256249 53.119579 -15.256264
v -0.000001 53.119579 -21.575603
v 10.406010 50.854488 -10.406013
v 0.000000 50.854488 -14.716324
v 11.527080 46.785561 -11.527074
v 0.000000 46.785561 -16.301743
v 18.571180 38.210621 -18.571184
v 0.000000 38.210617 -26.263622
v 21.930670 26.551178 -21.930672
v 0.000000 26.551178 -31.014650
v 20.683809 13.361948 -20.683811
v 0.000000 13.361948 -29.251331
v 17.022259 5.008695 -17.022259
v 0.000000 5.008694 -24.073109
v 13.358080 -0.000001 -13.358080
v 0.000000 -0.000001 -18.891180
v 13.037729 59.602318 -0.000004
v 19.676029 59.602318 -0.000004
v 21.575609 53.119579 -0.000004
v 14.716330 50.854488 -0.000004
v 16.301750 46.785561 -0.000004
v 26.263618 38.210621 -0.000003
v 31.014660 26.551180 -0.000002
v 29.251329 13.361950 -0.000001
v 24.073120 5.008696 -0.000000
v 18.891180 0.000000 0.000000
v 9.219067 59.602318 9.219064
v 13.913050 59.602318 13.913045
v 15.256260 53.119579 15.256256
v 10.406010 50.854488 10.406006
v 11.527080 46.785561 11.527076
v 18.571180 38.210621 18.571186
v 21.930670 26.551182 21.930668
v 20.683809 13.361952 20.683807
v 17.022270 5.008698 17.022270
v 13.358080 0.000001 13.358080
v -0.000001 59.602318 13.037724
v -0.000001 59.602318 19.676025
v -0.000001 53.119579 21.575605
v 0.000000 50.854488 14.716326
v 0.000000 46.785561 16.301746
v 0.000000 38.210625 26.263615
v 0.000000 26.551182 31.014647
v 0.000000 13.361952 29.251328
v 0.000000 5.008698 24.073120
v 0.000000 0.000001 18.891180
v -9.219069 59.602318 9.219063
v -13.913050 59.602318 13.913045
v -15.256260 53.119579 15.256256
v -10.406010 50.854488 10.406006
v -11.527070 46.785561 11.527076
v -18.571180 38.210621 18.571177
v -21.930670 26.551182 21.930668
v -20.683809 13.361952 20.683807
v -17.022259 5.008698 17.022259
v -13.358080 0.000001 13.358080
v -13.037729 59.602318 -0.000004
v -19.676020 59.602318 -0.000004
v -21.575600 53.119579 -0.000004
v -14.716320 50.854488 -0.000004
v -16.301750 46.785561 -0.000004
v -26.263618 38.210621 -0.000003
v -31.014648 26.551180 -0.000002
v -29.251329 13.361950 -0.000001
v -24.073120 5.008696 -0.000000
v -18.891180 0.000000 0.000000
v -9.219069 59.602318 -9.219072
v -13.913050 59.602318 -13.913054
v -15.256260 53.119579 -15.256264
v -10.406010 50.854488 -10.406013
v -11.527070 46.785561 -11.527074
v -18.571180 38.210621 -18.571184
v -21.930670 26.551178 -21.930672
v -20.683809 13.361948 -20.683811
v -17.022259 5.008695 -17.022259
v -13.358080 -0.000001 -13.358080
v -0.000001 59.602318 -13.037734
v -0.000001 59.602318 -19.676033
v -0.000001 53.119579 -21.575603
v 0.000000 50.854488 -14.716324
v 0.000000 46.785561 -16.301743
v 0.000000 38.210617 -26.263622
v 0.000000 26.551178 -31.014650
v 0.000000 13.361948 -29.251331
v 0.000000 5.008694 -24.073109
v 0.000000 -0.000001 -18.891180
v 0.000000 0.000001 18.891180
v 13.358080 0.000001 13.358080
v -13.358080 0.000001 13.358080
v -18.891180 0.000000 0.000000
v -13.358080 -0.000001 -13.358080
v 18.891180 0.000000 0.000000
v 0.000000 -0.000001 -18.891180
v 13.358080 -0.000001 -13.358080
v -0.000001 2.507136 -0.000000
v -0.000001 59.602318 -13.037734
v 9.219067 59.602318 -9.219072
v -9.219069 59.602318 -9.219072
v -0.000001 59.602318 -13.037734
v -13.037729 59.602318 -0.000004
v -9.219069 59.602318 -9.219072
v -9.219069 59.602318 9.219063
v -13.037729 59.602318 -0.000004
v -0.000001 59.602318 13.037724
v -9.219069 59.602318 9.219063
v 9.219067 59.602318 9.219064
v -0.000001 59.602318 13.037724
v 13.037729 59.602318 -0.000004
v 9.219067 59.602318 9.219064
v 9.219067 59.602318 -9.219072
v 13.037729 59.602318 -0.000004
vn 0.4082 0.8165 -0.4082
vn -0.0000 0.8003 0.5996
vn -0.4240 0.8002 0.4240
vn -0.0000 0.8165 -0.5773
vn 0.6155 -0.4923 -0.6155
vn -0.0000 -0.4923 -0.8704
vn 0.6297 -0.4549 -0.6297
vn -0.0000 -0.4549 -0.8905
vn 0.5755 0.5811 -0.5755
vn -0.0000 0.5811 -0.8138
vn 0.5724 0.5871 -0.5724
vn -0.0000 0.5871 -0.8095
vn 0.7013 0.1279 -0.7013
vn -0.0000 0.1279 -0.9918
vn 0.6652 -0.3391 -0.6652
vn -0.0000 -0.3391 -0.9407
vn 0.5499 -0.6286 -0.5499
vn -0.0000 -0.6286 -0.7777
vn 0.4914 -0.7190 -0.4914
vn -0.0000 -0.7190 -0.6950
vn 0.5773 0.8165 -0.0000
vn -0.5996 0.8003 -0.0000
vn 0.8704 -0.4923 -0.0000
vn 0.8905 -0.4549 -0.0000
vn 0.8138 0.5811 -0.0000
vn 0.8095 0.5871 -0.0000
vn 0.9918 0.1279 -0.0000
vn 0.9407 -0.3391 -0.0000
vn 0.7777 -0.6286 -0.0000
vn 0.6950 -0.7190 -0.0000
vn 0.4082 0.8165 0.4082
vn -0.4240 0.8002 -0.4240
vn 0.6155 -0.4923 0.6155
vn 0.6297 -0.4549 0.6297
vn 0.5755 0.5811 0.5755
vn 0.5724 0.5871 0.5724
vn 0.7013 0.1279 0.7013
vn 0.6652 -0.3391 0.6652
vn 0.5499 -0.6286 0.5499
vn 0.4914 -0.7190 0.4914
vn -0.0000 0.8165 0.5773
vn -0.0000 0.8003 -0.5996
vn -0.0000 -0.4923 0.8704
vn -0.0000 -0.4549 0.8905
vn -0.0000 0.5811 0.8138
vn -0.0000 0.5871 0.8095
vn -0.0000 0.1279 0.9918
vn -0.0000 -0.3391 0.9407
vn -0.0000 -0.6286 0.7777
vn -0.0000 -0.7190 0.6950
vn -0.4082 0.8165 0.4082
vn 0.4240 0.8002 -0.4240
vn -0.6155 -0.4923 0.6155
vn -0.6297 -0.4549 0.6297
vn -0.5755 0.5811 0.5755
vn -0.5724 0.5871 0.5724
vn -0.7013 0.1279 0.7013
vn -0.6652 -0.3391 0.6652
vn -0.5499 -0.6286 0.5499
vn -0.4914 -0.7190 0.4914
vn -0.5773 0.8165 -0.0000
vn 0.5996 0.8003 -0.0000
vn -0.8704 -0.4923 -0.0000
vn -0.8905 -0.4549 -0.0000
vn -0.8138 0.5811 -0.0000
vn -0.8095 0.5871 -0.0000
vn -0.9918 0.1279 -0.0000
vn -0.9407 -0.3391 -0.0000
vn -0.7777 -0.6286 -0.0000
vn -0.6950 -0.7190 -0.0000
vn -0.4082 0.8165 -0.4082
vn 0.4240 0.8002 0.4240
vn -0.6155 -0.4923 -0.6155
vn -0.6297 -0.4549 -0.6297
vn -0.5755 0.5811 -0.5755
vn -0.5724 0.5871 -0.5724
vn -0.7013 0.1279 -0.7013
vn -0.6652 -0.3391 -0.6652
vn -0.5499 -0.6287 -0.5499
vn -0.4914 -0.7190 -0.4914
vn -0.0000 -1.0000 -0.0000
vn -0.4240 0.8003 0.4240
vn -0.0000 0.8003 0.5997
vn -0.0000 1.0000 -0.0000
vn 0.4240 0.8003 0.4240
vn 0.5997 0.8003 -0.0000
vn 0.4240 0.8003 -0.4240
vn -0.0000 0.8003 -0.5997
vn -0.4240 0.8003 -0.4240
vn -0.5997 0.8003 -0.0000
vt 2.750000 0.906250
vt 3.500000 0.906250
vt 2.750000 0.906250
vt 3.500000 0.906250
vt 2.750000 0.808594
vt 3.500000 0.808594
vt 2.750000 0.777344
vt 3.500000 0.777344
vt 2.750000 0.714844
vt 3.500000 0.714844
vt 2.750000 0.589844
vt 3.500000 0.589844
vt 2.750000 0.417969
vt 3.500000 0.417969
vt 2.750000 0.218750
vt 3.500000 0.218750
vt 2.750000 0.097656
vt 3.500000 0.097656
vt 2.750000 0.023438
vt 3.500000 0.023438
vt 2.000000 0.906250
vt 2.000000 0.906250
vt 2.000000 0.808594
vt 2.000000 0.777344
vt 2.000000 0.714844
vt 2.000000 0.589844
vt 2.000000 0.417969
vt 2.000000 0.218750
vt 2.000000 0.097656
vt 2.000000 0.023438
vt 1.250000 0.906250
vt 1.250000 0.906250
vt 1.250000 0.808594
vt 1.250000 0.777344
vt 1.250000 0.714844
vt 1.250000 0.589844
vt 1.250000 0.417969
vt 1.250000 0.218750
vt 1.250000 0.097656
vt 1.250000 0.023438
vt 0.500000 0.906250
vt 0.500000 0.906250
vt 0.500000 0.808594
vt 0.500000 0.777344
vt 0.500000 0.714844
vt 0.500000 0.589844
vt 0.500000 0.417969
vt 0.500000 0.218750
vt 0.500000 0.097656
vt 0.500000 0.023438
vt -0.246094 0.906250
vt -0.246094 0.906250
vt -0.246094 0.808594
vt -0.246094 0.777344
vt -0.246094 0.714844
vt -0.246094 0.589844
vt -0.246094 0.417969
vt -0.246094 0.218750
vt -0.246094 0.097656
vt -0.246094 0.023438
vt -0.996094 0.906250
vt -0.996094 0.906250
vt -0.996094 0.808594
vt -0.996094 0.777344
vt -0.996094 0.714844
vt -0.996094 0.589844
vt -0.996094 0.417969
vt -0.996094 0.218750
vt -0.996094 0.097656
vt -0.996094 0.023438
vt -1.746094 0.906250
vt -1.746094 0.906250
vt -1.746094 0.808594
vt -1.746094 0.777344
vt -1.746094 0.714844
vt -1.746094 0.589844
vt -1.746094 0.417969
vt -1.746094 0.218750
vt -1.746094 0.097656
vt -1.746094 0.023438
vt -2.496094 0.906250
vt -2.496094 0.906250
vt -2.496094 0.808594
vt -2.496094 0.777344
vt -2.496094 0.714844
vt -2.496094 0.589844
vt -2.496094 0.417969
vt -2.496094 0.218750
vt -2.496094 0.097656
vt -2.496094 0.023438
vt 0.500000 0.023438
vt 1.250000 0.023438
vt -0.246094 0.023438
vt -0.996094 0.023438
vt 4.250000 0.023438
vt 2.000000 0.023438
vt 3.500000 0.023438
vt 2.750000 0.023438
vt 0.992188 -0.039062
vt 0.031250 -0.054688
vt 0.031250 -0.019531
vt 0.031250 -0.054688
vt 0.031250 -0.019531
vt 0.031250 -0.054688
vt 0.031250 -0.019531
vt 0.031250 -0.054688
vt 0.031250 -0.019531
vt 0.031250 -0.054688
vt 0.031250 -0.019531
vt 0.031250 -0.054688
vt 0.031250 -0.019531
vt 0.031250 -0.054688
vt 0.031250 -0.019531
vt 0.031250 -0.054688
vt 0.031250 -0.019531
s 1
usemtl mkotubo1_v
f 3/3/1 2/2/2 1/1/3
f 3/3/1 4/4/4 2/2/2
f 5/5/5 4/4/4 3/3/1
f 5/5/5 6/6/6 4/4/4
f 7/7/7 6/6/6 5/5/5
f 7/7/7 8/8/8 6/6/6
f 9/9/9 8/8/8 7/7/7
f 9/9/9 10/10/10 8/8/8
f 11/11/11 10/10/10 9/9/9
f 11/11/11 12/12/12 10/10/10
f 13/13/13 12/12/12 11/11/11
f 13/13/13 14/14/14 12/12/12
f 15/15/15 14/14/14 13/13/13
f 15/15/15 16/16/16 14/14/14
f 17/17/17 16/16/16 15/15/15
f 17/17/17 18/18/18 16/16/16
f 19/19/19 18/18/18 17/17/17
f 19/19/19 20/20/20 18/18/18
f 22/22/21 1/1/3 21/21/22
f 22/22/21 3/3/1 1/1/3
f 23/23/23 3/3/1 22/22/21
f 23/23/23 5/5/5 3/3/1
f 24/24/24 5/5/5 23/23/23
f 24/24/24 7/7/7 5/5/5
f 25/25/25 7/7/7 24/24/24
f 25/25/25 9/9/9 7/7/7
f 26/26/26 9/9/9 25/25/25
f 26/26/26 11/11/11 9/9/9
f 27/27/27 11/11/11 26/26/26
f 27/27/27 13/13/13 11/11/11
f 28/28/28 13/13/13 27/27/27
f 28/28/28 15/15/15 13/13/13
f 29/29/29 15/15/15 28/28/28
f 29/29/29 17/17/17 15/15/15
f 30/30/30 17/17/17 29/29/29
f 30/30/30 19/19/19 17/17/17
f 32/32/31 21/21/22 31/31/32
f 32/32/31 22/22/21 21/21/22
f 33/33/33 22/22/21 32/32/31
f 33/33/33 23/23/23 22/22/21
f 34/34/34 23/23/23 33/33/33
f 34/34/34 24/24/24 23/23/23
f 35/35/35 24/24/24 34/34/34
f 35/35/35 25/25/25 24/24/24
f 36/36/36 25/25/25 35/35/35
f 36/36/36 26/26/26 25/25/25
f 37/37/37 26/26/26 36/36/36
f 37/37/37 27/27/27 26/26/26
f 38/38/38 27/27/27 37/37/37
f 38/38/38 28/28/28 27/27/27
f 39/39/39 28/28/28 38/38/38
f 39/39/39 29/29/29 28/28/28
f 40/40/40 29/29/29 39/39/39
f 40/40/40 30/30/30 29/29/29
f 42/42/41 31/31/32 41/41/42
f 42/42/41 32/32/31 31/31/32
f 43/43/43 32/32/31 42/42/41
f 43/43/43 33/33/33 32/32/31
f 44/44/44 33/33/33 43/43/43
f 44/44/44 34/34/34 33/33/33
f 45/45/45 34/34/34 44/44/44
f 45/45/45 35/35/35 34/34/34
f 46/46/46 35/35/35 45/45/45
f 46/46/46 36/36/36 35/35/35
f 47/47/47 36/36/36 46/46/46
f 47/47/47 37/37/37 36/36/36
f 48/48/48 37/37/37 47/47/47
f 48/48/48 38/38/38 37/37/37
f 49/49/49 38/38/38 48/48/48
f 49/49/49 39/39/39 38/38/38
f 50/50/50 39/39/39 49/49/49
f 50/50/50 40/40/40 39/39/39
f 52/52/51 41/41/42 51/51/52
f 52/52/51 42/42/41 41/41/42
f 53/53/53 42/42/41 52/52/51
f 53/53/53 43/43/43 42/42/41
f 54/54/54 43/43/43 53/53/53
f 54/54/54 44/44/44 43/43/43
f 55/55/55 44/44/44 54/54/54
f 55/55/55 45/45/45 44/44/44
f 56/56/56 45/45/45 55/55/55
f 56/56/56 46/46/46 45/45/45
f 57/57/57 46/46/46 56/56/56
f 57/57/57 47/47/47 46/46/46
f 58/58/58 47/47/47 57/57/57
f 58/58/58 48/48/48 47/47/47
f 59/59/59 48/48/48 58/58/58
f 59/59/59 49/49/49 48/48/48
f 60/60/60 49/49/49 59/59/59
f 60/60/60 50/50/50 49/49/49
f 62/62/61 51/51/52 61/61/62
f 62/62/61 52/52/51 51/51/52
f 63/63/63 52/52/51 62/62/61
f 63/63/63 53/53/53 52/52/51
f 64/64/64 53/53/53 63/63/63
f 64/64/64 54/54/54 53/53/53
f 65/65/65 54/54/54 64/64/64
f 65/65/65 55/55/55 54/54/54
f 66/66/66 55/55/55 65/65/65
f 66/66/66 56/56/56 55/55/55
f 67/67/67 56/56/56 66/66/66
f 67/67/67 57/57/57 56/56/56
f 68/68/68 57/57/57 67/67/67
f 68/68/68 58/58/58 57/57/57
f 69/69/69 58/58/58 68/68/68
f 69/69/69 59/59/59 58/58/58
f 70/70/70 59/59/59 69/69/69
f 70/70/70 60/60/60 59/59/59
f 72/72/71 61/61/62 71/71/72
f 72/72/71 62/62/61 61/61/62
f 73/73/73 62/62/61 72/72/71
f 73/73/73 63/63/63 62/62/61
f 74/74/74 63/63/63 73/73/73
f 74/74/74 64/64/64 63/63/63
f 75/75/75 64/64/64 74/74/74
f 75/75/75 65/65/65 64/64/64
f 76/76/76 65/65/65 75/75/75
f 76/76/76 66/66/66 65/65/65
f 77/77/77 66/66/66 76/76/76
f 77/77/77 67/67/67 66/66/66
f 78/78/78 67/67/67 77/77/77
f 78/78/78 68/68/68 67/67/67
f 79/79/79 68/68/68 78/78/78
f 79/79/79 69/69/69 68/68/68
f 80/80/80 69/69/69 79/79/79
f 80/80/80 70/70/70 69/69/69
f 82/82/4 71/71/72 81/81/2
f 82/82/4 72/72/71 71/71/72
f 83/83/6 72/72/71 82/82/4
f 83/83/6 73/73/73 72/72/71
f 84/84/8 73/73/73 83/83/6
f 84/84/8 74/74/74 73/73/73
f 85/85/10 74/74/74 84/84/8
f 85/85/10 75/75/75 74/74/74
f 86/86/12 75/75/75 85/85/10
f 86/86/12 76/76/76 75/75/75
f 87/87/14 76/76/76 86/86/12
f 87/87/14 77/77/77 76/76/76
f 88/88/16 77/77/77 87/87/14
f 88/88/16 78/78/78 77/77/77
f 89/89/18 78/78/78 88/88/16
f 89/89/18 79/79/79 78/78/78
f 90/90/20 79/79/79 89/89/18
f 90/90/20 80/80/80 79/79/79
s 0
f 93/93/81 92/92/81 91/91/81
f 93/93/81 94/94/81 92/92/81
f 96/96/81 94/94/81 95/95/81
f 96/96/81 92/92/81 94/94/81
f 98/98/81 95/95/81 97/97/81
f 98/98/81 96/96/81 95/95/81
s 1
f 101/101/82 100/100/83 99/99/84
f 103/103/83 102/102/85 99/99/84
f 105/105/85 104/104/86 99/99/84
f 107/107/86 106/106/87 99/99/84
f 109/109/87 108/108/88 99/99/84
f 111/111/88 110/110/89 99/99/84
f 113/113/89 112/112/90 99/99/84
f 115/115/90 114/114/82 99/99/84
