<?xml version="1.0" encoding="utf-8"?>
<COLLADA xmlns="http://www.collada.org/2005/11/COLLADASchema" version="1.4.1" xmlns:xsi="http://www.w3.org/2001/XMLSchema-instance">
  <asset>
    <contributor>
      <author>Blender User</author>
      <authoring_tool>Blender 3.1.2 commit date:2022-03-31, commit time:17:40, hash:cc66d1020c3b</authoring_tool>
    </contributor>
    <created>2023-06-01T15:30:26</created>
    <modified>2023-06-01T15:30:26</modified>
    <unit name="meter" meter="1"/>
    <up_axis>Z_UP</up_axis>
  </asset>
  <library_effects>
    <effect id="Mt_CmnTex_Etc_SheikerPot_A-effect">
      <profile_COMMON>
        <newparam sid="CmnTex_Etc_SheikerPot_A_Alb_png-surface">
          <surface type="2D">
            <init_from>CmnTex_Etc_SheikerPot_A_Alb_png</init_from>
          </surface>
        </newparam>
        <newparam sid="CmnTex_Etc_SheikerPot_A_Alb_png-sampler">
          <sampler2D>
            <source>CmnTex_Etc_SheikerPot_A_Alb_png-surface</source>
          </sampler2D>
        </newparam>
        <technique sid="common">
          <lambert>
            <emission>
              <color sid="emission">0 0 0 1</color>
            </emission>
            <diffuse>
              <texture texture="CmnTex_Etc_SheikerPot_A_Alb_png-sampler" texcoord="polySurface3082__Mt_CmnTex_Etc_SheikerPot_A-texcoord"/>
            </diffuse>
            <index_of_refraction>
              <float sid="ior">1.45</float>
            </index_of_refraction>
          </lambert>
        </technique>
      </profile_COMMON>
    </effect>
    <effect id="Mt_CmnTex_Cloth_VillageSheikerBanner_A-effect">
      <profile_COMMON>
        <newparam sid="CmnTex_Cloth_VillageSheikerBanner_A_Alb_png-surface">
          <surface type="2D">
            <init_from>CmnTex_Cloth_VillageSheikerBanner_A_Alb_png</init_from>
          </surface>
        </newparam>
        <newparam sid="CmnTex_Cloth_VillageSheikerBanner_A_Alb_png-sampler">
          <sampler2D>
            <source>CmnTex_Cloth_VillageSheikerBanner_A_Alb_png-surface</source>
          </sampler2D>
        </newparam>
        <technique sid="common">
          <lambert>
            <emission>
              <color sid="emission">0 0 0 1</color>
            </emission>
            <diffuse>
              <texture texture="CmnTex_Cloth_VillageSheikerBanner_A_Alb_png-sampler" texcoord="polySurface3082__Mt_CmnTex_Cloth_VillageSheikerBanner_A-texcoor"/>
            </diffuse>
            <index_of_refraction>
              <float sid="ior">1.45</float>
            </index_of_refraction>
          </lambert>
        </technique>
      </profile_COMMON>
    </effect>
  </library_effects>
  <library_images>
    <image id="CmnTex_Cloth_VillageSheikerBanner_A_Alb_png" name="CmnTex_Cloth_VillageSheikerBanner_A_Alb_png">
      <init_from>CmnTex_Cloth_VillageSheikerBanner_A_Alb.png</init_from>
    </image>
    <image id="CmnTex_Etc_SheikerPot_A_Alb_png" name="CmnTex_Etc_SheikerPot_A_Alb_png">
      <init_from>CmnTex_Etc_SheikerPot_A_Alb.png</init_from>
    </image>
  </library_images>
  <library_materials>
    <material id="Mt_CmnTex_Etc_SheikerPot_A-material" name="Mt_CmnTex_Etc_SheikerPot_A">
      <instance_effect url="#Mt_CmnTex_Etc_SheikerPot_A-effect"/>
    </material>
    <material id="Mt_CmnTex_Cloth_VillageSheikerBanner_A-material" name="Mt_CmnTex_Cloth_VillageSheikerBanner_A">
      <instance_effect url="#Mt_CmnTex_Cloth_VillageSheikerBanner_A-effect"/>
    </material>
  </library_materials>
  <library_geometries>
    <geometry id="polySurface3082__Mt_CmnTex_Etc_SheikerPot_A-mesh" name="polySurface3082__Mt_CmnTex_Etc_SheikerPot_A">
      <mesh>
        <source id="polySurface3082__Mt_CmnTex_Etc_SheikerPot_A-mesh-positions">
          <float_array id="polySurface3082__Mt_CmnTex_Etc_SheikerPot_A-mesh-positions-array" count="1137">0.2973633 1.306641 -0.1719971 0.2973633 1.25293 -0.1719971 0.1711426 1.306641 -0.2980957 0.1711426 1.25293 -0.2980957 -0.001185417 1.306641 -0.3442383 -0.001184463 1.25293 -0.3442383 -0.173584 1.306641 -0.2980957 -0.173584 1.25293 -0.2980957 -0.2998047 1.306641 -0.1719971 -0.2998047 1.25293 -0.1719971 -0.2998047 1.306641 -0.1719971 -0.2998047 1.25293 -0.1719971 -0.3459473 1.306641 4.2367e-4 -0.3459473 1.25293 4.2367e-4 -0.2998047 1.306641 0.1728516 -0.2998047 1.25293 0.1728516 -0.173584 1.306641 0.2990723 -0.173584 1.25293 0.2990723 -0.001184463 1.306641 0.3452148 -0.001184463 1.25293 0.3452148 -0.001184463 1.306641 0.3452148 -0.001184463 1.25293 0.3452148 0.1711426 1.306641 0.2990723 0.1711426 1.25293 0.2990723 0.2973633 1.306641 0.1728516 0.2973633 1.25293 0.1728516 0.3435059 1.306641 4.24147e-4 0.3435059 1.25293 4.24147e-4 0.2973633 1.306641 -0.1719971 0.2973633 1.25293 -0.1719971 -0.2814941 1.271484 -0.1639404 -0.3662109 1.250977 -0.001368522 -0.3249512 1.271484 -0.001367568 -0.3171387 1.250977 -0.1844482 -0.3779297 1.208984 -0.001367568 -0.1624756 1.271484 -0.282959 -0.3271484 1.208984 -0.1903076 -0.1831055 1.250977 -0.3186035 0 1.271484 -0.326416 -0.347168 1.154297 -0.001368522 0 1.250977 -0.3676758 0.1624756 1.271484 -0.282959 -0.1889648 1.208984 -0.3286133 -0.3005371 1.154297 -0.1749268 0.1831055 1.250977 -0.3186035 0.2814941 1.271484 -0.1639404 0 1.208984 -0.3791504 0.3171387 1.250977 -0.1844482 0.3249512 1.271484 -0.001368522 0.3662109 1.250977 -0.001367568 0.1889648 1.208984 -0.3286133 0.3271484 1.208984 -0.1903076 0.3779297 1.208984 -0.001368522 0 1.154297 -0.3483887 0.3005371 1.154297 -0.1749268 0.347168 1.154297 -0.001368522 0.173584 1.154297 -0.302002 0.3566895 0.9931641 -0.001367568 0.309082 0.9931641 -0.1798096 0.1783447 0.9931641 -0.3103027 -0.173584 1.154297 -0.302002 0 0.9931641 -0.3581543 -0.1783447 0.9931641 -0.3103027 -0.309082 0.9931641 -0.1798096 -0.3566895 0.9931641 -0.001368522 -0.4133301 0.84375 -0.001368522 -0.3579102 0.84375 -0.2080078 -0.4631348 0.7958984 -0.001368522 -0.206665 0.84375 -0.359375 -0.4008789 0.7958984 -0.2329102 -0.4956055 0.7138672 -0.001367568 0 0.84375 -0.4147949 -0.2315674 0.7958984 -0.4023438 -0.4291992 0.7138672 -0.2491455 -0.4960938 0.5722656 -0.001368522 0.206665 0.84375 -0.359375 0 0.7958984 -0.4643555 -0.2478027 0.7138672 -0.4306641 -0.4296875 0.5722656 -0.2493896 -0.3793945 0.3068848 -0.2203369 -0.4379883 0.3068848 -0.001368522 -0.3237305 0 0 -0.2802734 -4.4632e-4 -0.163208 -0.2189941 0.3068848 -0.3806152 -0.1531982 0 -0.2668457 0 0 -0.3078613 -0.2480469 0.5722656 -0.4309082 0 0.3068848 -0.4394531 0.1531982 0 -0.2668457 0 0.7138672 -0.4970703 0 0.5722656 -0.4973145 0.2189941 0.3068848 -0.3806152 0.2653809 0 -0.154541 0.2315674 0.7958984 -0.4023438 0.3793945 0.3068848 -0.2203369 0.3237305 0 -0.001368522 0.4379883 0.3068848 -0.001368522 0.2480469 0.5722656 -0.4309082 0.4296875 0.5722656 -0.2493896 0.4960938 0.5722656 -0.001368522 0.4956055 0.7138672 -0.001367568 0.4291992 0.7138672 -0.2491455 0.4631348 0.7958984 -0.001368522 0.2478027 0.7138672 -0.4306641 0.4008789 0.7958984 -0.2329102 0.4133301 0.84375 -0.001368522 0.3579102 0.84375 -0.2080078 0.2814941 1.271484 0.1611328 0.3662109 1.250977 -0.001367568 0.3249512 1.271484 -0.001368522 0.3171387 1.250977 0.1817626 0.3779297 1.208984 -0.001368522 0.1624756 1.271484 0.2800293 0.3271484 1.208984 0.1875 0.1831055 1.250977 0.3156738 0 1.271484 0.3237305 0.347168 1.154297 -0.001368522 0 1.250977 0.3647461 -0.1624756 1.271484 0.2800293 0.1889648 1.208984 0.3259277 0.3005371 1.154297 0.1722412 -0.1831055 1.250977 0.3156738 -0.2814941 1.271484 0.1611328 0 1.208984 0.3764648 -0.3171387 1.250977 0.1817626 -0.3249512 1.271484 -0.001367568 -0.3662109 1.250977 -0.001368522 -0.1889648 1.208984 0.3259277 -0.3271484 1.208984 0.1875 -0.3779297 1.208984 -0.001367568 0 1.154297 0.3457031 -0.3005371 1.154297 0.1722412 -0.347168 1.154297 -0.001368522 -0.173584 1.154297 0.2993164 -0.3566895 0.9931641 -0.001368522 -0.309082 0.9931641 0.177002 -0.1783447 0.9931641 0.3076172 0.173584 1.154297 0.2993164 0 0.9931641 0.3554688 0.1784667 0.9931641 0.3076172 0.309082 0.9931641 0.177002 0.3566895 0.9931641 -0.001367568 0.4133301 0.84375 -0.001368522 0.3579102 0.84375 0.2053223 0.4631348 0.7958984 -0.001368522 0.206665 0.84375 0.3564453 0.4008789 0.7958984 0.2301025 0.4956055 0.7138672 -0.001367568 0 0.84375 0.4118652 0.2315674 0.7958984 0.3996582 0.4291992 0.7138672 0.24646 0.4960938 0.5722656 -0.001368522 -0.206665 0.84375 0.3564453 0 0.7958984 0.4616699 0.2478027 0.7138672 0.4277344 0.4296875 0.5722656 0.2467041 0.3793945 0.3068848 0.2176514 0.4379883 0.3068848 -0.001368522 0.2802734 0 0.1605225 0.3237305 0 -0.001368522 0.1618652 0 0.2790527 0.2189941 0.3068848 0.3779297 0 0 0.3222656 0.2480469 0.5722656 0.4282227 0 0.3068848 0.4367676 -0.1618652 0 0.2790527 0 0.5722656 0.4946289 -0.2189941 0.3068848 0.3779297 -0.2802734 0 0.1618652 0 0.7138672 0.4941406 -0.3793945 0.3068848 0.2176514 -0.3237305 0 0 -0.4379883 0.3068848 -0.001368522 -0.2480469 0.5722656 0.4282227 -0.4296875 0.5722656 0.2467041 -0.4960938 0.5722656 -0.001368522 -0.4956055 0.7138672 -0.001367568 -0.4291992 0.7138672 0.24646 -0.4631348 0.7958984 -0.001368522 -0.2478027 0.7138672 0.4277344 -0.4008789 0.7958984 0.2301025 -0.4133301 0.84375 -0.001368522 -0.2315674 0.7958984 0.3996582 -0.3579102 0.84375 0.2053223 0.1711426 1.306641 -0.2980957 0 1.306641 0 0.2973633 1.306641 -0.1719971 -0.001185417 1.306641 -0.3442383 0.3435059 1.306641 4.24147e-4 -0.173584 1.306641 -0.2980957 0.2973633 1.306641 0.1728516 -0.2998047 1.306641 -0.1719971 0.1711426 1.306641 0.2990723 -0.3459473 1.306641 4.2367e-4 -0.001184463 1.306641 0.3452148 -0.2998047 1.306641 0.1728516 -0.173584 1.306641 0.2990723 0.1531982 0 -0.2668457 0 0 -0.2585449 0 0 -0.3078613 -0.1531982 0 -0.2668457 0.1287842 0 -0.2242432 0.2653809 0 -0.154541 -0.1287842 0 -0.2242432 0.2230225 0 -0.1298828 -0.2355957 -3.3474e-4 -0.137207 -0.2802734 -4.4632e-4 -0.163208 -0.3237305 0 0 0 0.08880615 0 -0.2719727 0 0 -0.2355957 0 0.1359863 -0.2802734 0 0.1618652 -0.1618652 0 0.2790527 -0.1359863 0 0.2344971 0 0 0.3222656 0 0 0.2709961 0.1359863 0 0.2344971 0.1618652 0 0.2790527 0.2355957 0 0.1348876 0.2802734 0 0.1605225 0.2719727 0 -0.001150131 0.3237305 0 -0.001368522 0.5322266 0.5703125 0.005207061 0.4660645 0.7158203 -0.2814941 0.4208984 0.8505859 -0.001646995 0.177002 1.210938 0.3166504 0.4208984 0.8505859 -0.001646995 0.3183594 1.294922 0.1846924 0.4208984 0.8505859 -0.001646995 0.3085938 1.303711 -0.1915283 0.3183594 1.294922 0.1846924 0.3183594 1.294922 0.1846924 0.3085938 1.303711 -0.1915283 0.3249512 1.271484 -0.001368522 -0.317627 1.22168 -0.1853027 -0.3457031 1.28125 -0.00266838 -0.1755371 1.28125 -0.3034668 3.40939e-4 1.276367 -0.3410645 -0.00166893 1.209961 -0.3442383 -0.1755371 1.28125 -0.3034668 -6.93798e-4 1.28418 0.3432617 0.177002 1.210938 0.3166504 0.3183594 1.294922 0.1846924 -0.1842041 1.222656 0.326416 -6.93798e-4 1.28418 0.3432617 -0.2944336 1.280273 0.1716309 0.005302429 0.7119141 -0.519043 -0.2817383 0.7080078 -0.4785156 -0.3764648 0.8535156 -0.2202148 0.3535156 1.313477 7.12872e-4 0.3234863 1.260742 -0.1896973 0.178833 1.30957 -0.3061523 0.178833 1.30957 -0.3061523 0.3234863 1.260742 -0.1896973 0 1.260742 -0.3764648 0.178833 1.30957 -0.3061523 0 1.260742 -0.3764648 -0.1790771 1.313477 -0.3068848 -0.1790771 1.313477 -0.3068848 0 1.260742 -0.3764648 -0.324707 1.256836 -0.1864014 -0.1790771 1.313477 -0.3068848 -0.324707 1.256836 -0.1864014 -0.3562012 1.313477 1.67847e-4 -0.3562012 1.313477 1.67847e-4 -0.324707 1.256836 -0.1864014 -0.3273926 1.260742 0.1906738 -0.3562012 1.313477 1.67847e-4 -0.3273926 1.260742 0.1906738 -0.1749268 1.30957 0.3066406 -0.1749268 1.30957 0.3066406 -0.3273926 1.260742 0.1906738 -0.0038414 1.260742 0.3774414 -0.1749268 1.30957 0.3066406 -0.0038414 1.260742 0.3774414 0.1762695 1.313477 0.3076172 0.1762695 1.313477 0.3076172 -0.0038414 1.260742 0.3774414 0.3225098 1.256836 0.1872559 0.1762695 1.313477 0.3076172 0.3225098 1.256836 0.1872559 0.3535156 1.313477 7.12872e-4 0.3535156 1.313477 7.12872e-4 0.3225098 1.256836 0.1872559 0.3234863 1.260742 -0.1896973 0.5322266 0.5703125 0.005207061 0.3134766 -0.01417541 0.1790771 0.2824707 -0.01589965 -0.1619873 0.2824707 -0.01589965 -0.1619873 8.07762e-4 -0.01003265 0.3347168 1.49369e-4 0.08856201 0.002044677 8.07762e-4 -0.01003265 0.3347168 0.2824707 -0.01589965 -0.1619873 0.3134766 -0.01417541 0.1790771 -0.317627 1.22168 -0.1853027 -0.3085938 1.208984 0.1693115 -0.3457031 1.28125 -0.00266838 -0.317627 1.22168 -0.1853027 -0.3793945 0.855957 0.2137451 -0.3764648 0.8535156 -0.2202148 -0.5541992 0.5712891 0.005233764 -0.00166893 1.209961 -0.3442383 -0.317627 1.22168 -0.1853027 -0.1755371 1.28125 -0.3034668 -0.3764648 0.8535156 -0.2202148 -0.00166893 1.209961 -0.3442383 0.005302429 0.7119141 -0.519043 -0.2705078 0.7133789 0.4609375 2.84195e-4 0.5732422 0.5078125 -0.003728866 0.8530273 0.4274902 0.2878418 0.7084961 0.4694824 -0.003728866 0.8530273 0.4274902 -0.3793945 0.855957 0.2137451 -0.2705078 0.7133789 0.4609375 -0.3085938 1.208984 0.1693115 0.3747559 0.8520508 0.2167969 -0.003728866 0.8530273 0.4274902 0.2878418 0.7084961 0.4694824 0.177002 1.210938 0.3166504 0.2108154 0.8525391 -0.362793 0.4208984 0.8505859 -0.001646995 0.4660645 0.7158203 -0.2814941 0.3085938 1.303711 -0.1915283 -0.003728866 0.8530273 0.4274902 0.177002 1.210938 0.3166504 -0.1842041 1.222656 0.326416 -6.93798e-4 1.28418 0.3432617 8.07762e-4 -0.01003265 0.3347168 -0.1894531 -0.0173645 0.3051758 -0.3205566 -0.004364013 -0.001759529 -0.2973633 -0.009681701 -0.1789551 8.07762e-4 -0.01003265 0.3347168 1.49369e-4 0.08856201 0.002044677 0.2824707 -0.01589965 -0.1619873 -0.001788139 -0.01582336 -0.3349609 -0.2973633 -0.009681701 -0.1789551 -0.3205566 -0.004364013 -0.001759529 -0.1894531 -0.0173645 0.3051758 -0.5541992 0.5712891 0.005233764 -0.2705078 0.7133789 0.4609375 -0.3793945 0.855957 0.2137451 0.2878418 0.7084961 0.4694824 0.3134766 -0.01417541 0.1790771 0.5322266 0.5703125 0.005207061 0.3747559 0.8520508 0.2167969 0.4208984 0.8505859 -0.001646995 0.177002 1.210938 0.3166504 -0.1894531 -0.0173645 0.3051758 2.84195e-4 0.5732422 0.5078125 -0.2705078 0.7133789 0.4609375 8.07762e-4 -0.01003265 0.3347168 0.2878418 0.7084961 0.4694824 0.3134766 -0.01417541 0.1790771 -0.3085938 1.208984 0.1693115 -0.003728866 0.8530273 0.4274902 -0.1842041 1.222656 0.326416 -0.2944336 1.280273 0.1716309 -0.3457031 1.28125 -0.00266838 0.3085938 1.303711 -0.1915283 -0.00166893 1.209961 -0.3442383 3.40939e-4 1.276367 -0.3410645 0.2108154 0.8525391 -0.362793 0.005302429 0.7119141 -0.519043 0.4660645 0.7158203 -0.2814941 0.2824707 -0.01589965 -0.1619873 0.5322266 0.5703125 0.005207061 0.2243652 0.3083496 -0.3916016 -0.001788139 -0.01582336 -0.3349609 -0.2817383 0.7080078 -0.4785156 -0.2973633 -0.009681701 -0.1789551 -0.5541992 0.5712891 0.005233764 -0.3205566 -0.004364013 -0.001759529 -0.3764648 0.8535156 -0.2202148 -0.3562012 1.313477 1.67847e-4 -0.1749268 1.30957 0.3066406 -0.1790771 1.313477 -0.3068848 0.178833 1.30957 -0.3061523 0.3535156 1.313477 7.12872e-4 0.1762695 1.313477 0.3076172</float_array>
          <technique_common>
            <accessor source="#polySurface3082__Mt_CmnTex_Etc_SheikerPot_A-mesh-positions-array" count="379" stride="3">
              <param name="X" type="float"/>
              <param name="Y" type="float"/>
              <param name="Z" type="float"/>
            </accessor>
          </technique_common>
        </source>
        <source id="polySurface3082__Mt_CmnTex_Etc_SheikerPot_A-mesh-normals">
          <float_array id="polySurface3082__Mt_CmnTex_Etc_SheikerPot_A-mesh-normals-array" count="642">0.7067638 0 -0.7074497 0.7067641 0 -0.7074494 0.4997142 0 -0.8661905 0.4997146 4.40222e-7 -0.8661903 4.94949e-5 -4.39335e-7 -1 5.55394e-5 4.40862e-7 -1 -0.4996691 -4.39894e-7 -0.8662164 -0.4996693 0 -0.8662163 -0.706765 0 -0.7074484 -0.7067653 0 -0.7074481 -0.9660062 0 -0.2585191 -0.9660062 0 -0.2585189 -1 0 -4.86099e-6 -1 0 -4.88554e-6 -0.8661054 0 0.4998614 -0.8661056 0 0.499861 -0.4998787 0 0.8660956 -0.4998789 0 0.8660954 -0.2585486 0 0.9659983 -0.2585488 0 0.9659982 0.2586491 0 0.9659714 0.2586492 0 0.9659714 0.4999238 0 0.8660695 0.499924 0 0.8660693 0.8661056 0 0.4998611 0.8661058 0 0.4998609 1 0 -4.80207e-6 1 0 -4.77507e-6 0.9660066 0 -0.2585178 0.9660066 0 -0.2585176 -0.3863442 0.8949403 -0.2232039 -0.7780436 0.5926305 -0.2084165 -0.4419595 0.8892215 -0.1181402 -0.6898841 0.6045978 -0.3981476 -0.9600191 -0.1093238 -0.2577045 -0.2228055 0.8951395 -0.3861128 -0.8602291 -0.1141002 -0.496978 -0.3982582 0.6046766 -0.6897513 -1.16103e-4 0.8954629 -0.4451361 -0.9405286 -0.2275574 -0.2522376 9.73478e-5 0.6038259 -0.7971162 0.2227589 0.8951938 -0.3860138 -0.4969493 -0.1141406 -0.8602403 -0.841694 -0.2346435 -0.4863063 0.3981875 0.604566 -0.6898889 0.3864992 0.8949277 -0.2229862 1.44337e-4 -0.1154519 -0.9933131 0.6900607 0.6045302 -0.3979443 0.4421028 0.8891082 -0.1184557 0.7780241 0.5924875 -0.2088948 0.4968242 -0.1140845 -0.86032 0.8603088 -0.1139852 -0.4968665 0.9599711 -0.1090993 -0.2579786 1.81283e-4 -0.2349756 -0.9720013 0.841894 -0.2347086 -0.4859285 0.9403089 -0.2280209 -0.2526377 0.4857141 -0.2351444 -0.8418961 0.9449563 0.2075091 -0.2529777 0.8460921 0.2146096 -0.4879252 0.4879419 0.2147038 -0.8460586 -0.4860376 -0.2352235 -0.8416872 1.50837e-4 0.2150306 -0.9766073 -0.4884266 0.2145908 -0.8458075 -0.8456878 0.2145606 -0.4886471 -0.9451828 0.2074583 -0.2521719 -0.8034974 0.5550616 -0.215171 -0.7129742 0.5675612 -0.4117549 -0.8200616 0.5281631 -0.2203246 -0.411661 0.5679977 -0.7126808 -0.7277868 0.5418364 -0.4204042 -0.9504594 0.1777318 -0.2550266 8.07327e-5 0.5675424 -0.8233442 -0.4204785 0.5418636 -0.7277237 -0.8512629 0.1845973 -0.4911981 -0.9610803 -0.1004002 -0.2573802 0.4115268 0.5678389 -0.7128849 -1.74642e-7 0.5418663 -0.8404647 -0.4913687 0.1840164 -0.85129 -0.8613697 -0.1038669 -0.4972463 -0.8316388 -0.2789549 -0.4801681 -0.9300838 -0.270478 -0.2485678 -0.9091449 -0.3395637 -0.2411478 -0.7895122 -0.3690563 -0.4903754 -0.472904 -0.2931838 -0.8309062 -0.4160354 -0.393175 -0.8199561 -1.71287e-4 -0.3939322 -0.9191395 -0.4971958 -0.1044433 -0.8613292 6.7672e-5 -0.3005171 -0.9537765 0.4598407 -0.3938378 -0.7958885 1.47289e-5 0.1839465 -0.9829363 1.33125e-4 -0.1045047 -0.9945245 0.4769466 -0.3006349 -0.8259181 0.7702192 -0.3935501 -0.5018773 0.4204708 0.5419152 -0.7276897 0.8248844 -0.2933406 -0.4832361 0.8798616 -0.3712646 -0.2966586 0.9300728 -0.2701959 -0.2489153 0.4971799 -0.1044027 -0.8613433 0.8613044 -0.1038149 -0.4973704 0.9610844 -0.1005028 -0.2573251 0.9505784 0.1776042 -0.2546715 0.8511399 0.1844289 -0.4914743 0.819911 0.528488 -0.2201056 0.4914775 0.1838635 -0.8512603 0.7276419 0.5419896 -0.4204575 0.8033164 0.5551334 -0.2156614 0.7132163 0.5674912 -0.4114322 0.3859495 0.8951942 0.2228685 0.7780289 0.5926595 0.2083888 0.4419571 0.8892158 0.1181915 0.6898208 0.6041903 0.3988753 0.9600091 -0.1093692 0.2577228 0.2229061 0.8951625 0.3860015 0.8603268 -0.1141892 0.4967885 0.3979267 0.606419 0.6884115 -2.12683e-4 0.8944863 0.4470953 0.9405199 -0.2275496 0.2522767 -2.06076e-4 0.6053005 0.7959971 -0.2227599 0.8951129 0.3862006 0.4969962 -0.1118577 0.8605131 0.8417907 -0.2343184 0.4862956 -0.3973888 0.6065558 0.6886017 -0.3860593 0.8951688 0.2227807 -1.4424e-4 -0.1128807 0.9936086 -0.690077 0.6042695 0.3983117 -0.4420633 0.8891322 0.1184238 -0.7780406 0.5924546 0.2089269 -0.4966687 -0.1120476 0.8606774 -0.8604993 -0.114276 0.4964696 -0.9599667 -0.1090589 0.2580119 -1.81356e-4 -0.2349755 0.9720014 -0.8418362 -0.2344467 0.4861549 -0.9403273 -0.2280226 0.2525678 -0.4858512 -0.2351429 0.8418174 -0.9449547 0.20751 0.2529826 -0.8461304 0.2144922 0.4879103 -0.4881565 0.2140668 0.846096 0.4859895 -0.2350615 0.8417603 -1.87476e-4 0.2142866 0.9767709 0.488508 0.2140759 0.8458909 0.8459777 0.214554 0.4881481 0.9451583 0.2074548 0.2522665 0.8034818 0.5550912 0.2151533 0.712982 0.5672816 0.4121267 0.8200708 0.5281351 0.2203572 0.4115768 0.5682443 0.7125328 0.7278013 0.5419877 0.4201841 0.9504542 0.1777678 0.2550205 -8.0639e-5 0.5681329 0.822937 0.4202544 0.5417854 0.7279114 0.8511328 0.1847474 0.4913672 0.9610936 -0.1004019 0.2573295 -0.4113001 0.5684485 0.7125297 3.1886e-7 0.5416443 0.8406077 0.4913428 0.1835922 0.8513966 0.861333 -0.1037675 0.4973307 0.8316432 -0.2791013 0.4800751 0.9300227 -0.2703574 0.248927 0.8116017 -0.3491488 0.4683993 0.9088374 -0.3383738 0.243963 0.4682329 -0.3489208 0.8117958 0.4801889 -0.2790071 0.8316091 3.15804e-4 -0.3492617 0.9370252 0.4971367 -0.103665 0.8614574 -1.82303e-5 -0.2788664 0.9603299 -0.4661789 -0.3490545 0.8129197 -9.05197e-5 -0.1036116 0.9946179 -0.4799985 -0.2784073 0.83192 -0.8104898 -0.3484399 0.4708459 2.90771e-5 0.1835666 0.9830073 -0.831944 -0.2782181 0.4800667 -0.9091187 -0.3377724 0.243748 -0.9302373 -0.2696409 0.2489025 -0.4970492 -0.1037598 0.8614963 -0.8613172 -0.1038158 0.4973479 -0.9610973 -0.1005064 0.2572752 -0.9505905 0.1776093 0.2546231 -0.8509384 0.1847993 0.4916839 -0.8198908 0.5285163 0.220113 -0.4915073 0.1837122 0.8512758 -0.7277116 0.5419433 0.4203968 -0.8033381 0.5551022 0.2156606 -0.4204049 0.5416117 0.7279536 -0.7130889 0.5674719 0.4116795 0 1 0 0 1 0 0 1 5.03077e-7 0 1 2.51527e-7 0 1 0 0 1 0 0 1 -5.01805e-7 0 1 0 0 1 0 0 1 0 0 1 0 0 1 2.49567e-7 0 1 5.00472e-7 0 -1 0 0 -0.9904443 0.1379137 0.001197814 -0.9999992 -5.7481e-4 -0.06873363 -0.9904845 0.1192318 0.06678044 -0.9897207 0.1264654 -0.1207951 -0.9896656 0.0772708 0.1077605 -0.9918176 0.06845116 0.001812815 -0.9999977 0.001176297 9.30671e-5 -0.9999992 0.001280546 -0.002283334 -0.999968 0.007669091 0.1315848 -0.9913044 0.001088201 0.1133912 -0.991369 -0.06580263 0.06583297 -0.9912334 -0.1145535 0 -0.9912738 -0.1318194 -0.06597238 -0.9912701 -0.1141546 -0.1140298 -0.9913005 -0.06573128 -0.1263849 -0.9919656 0.005587816</float_array>
          <technique_common>
            <accessor source="#polySurface3082__Mt_CmnTex_Etc_SheikerPot_A-mesh-normals-array" count="214" stride="3">
              <param name="X" type="float"/>
              <param name="Y" type="float"/>
              <param name="Z" type="float"/>
            </accessor>
          </technique_common>
        </source>
        <source id="polySurface3082__Mt_CmnTex_Etc_SheikerPot_A-mesh-map">
          <float_array id="polySurface3082__Mt_CmnTex_Etc_SheikerPot_A-mesh-map-array" count="1872">0.75 0.7216797 0.7641602 0.7216797 0.75 0.8878174 0.75 0.8878174 0.7641602 0.7216797 0.7641602 0.8878174 0.75 0.8878174 0.7641602 0.8878174 0.75 1.018738 0.75 1.018738 0.7641602 0.8878174 0.7641602 1.018738 0.75 1.018738 0.7641602 1.018738 0.75 1.181885 0.75 1.181885 0.7641602 1.018738 0.7641602 1.181885 0.75 1.181885 0.7641602 1.181885 0.75 1.304199 0.75 1.304199 0.7641602 1.181885 0.7641602 1.304199 0.75 0.7216797 0.7641602 0.7216797 0.75 0.8878174 0.75 0.8878174 0.7641602 0.7216797 0.7641602 0.8878174 0.75 0.8878174 0.7641602 0.8878174 0.75 1.018738 0.75 1.018738 0.7641602 0.8878174 0.7641602 1.018738 0.75 1.018738 0.7641602 1.018738 0.75 1.181885 0.75 1.181885 0.7641602 1.018738 0.7641602 1.181885 0.75 1.181885 0.7641602 1.181885 0.75 1.304199 0.75 1.304199 0.7641602 1.181885 0.7641602 1.304199 0.75 0.7216797 0.7641602 0.7216797 0.75 0.8878174 0.75 0.8878174 0.7641602 0.7216797 0.7641602 0.8878174 0.75 0.8878174 0.7641602 0.8878174 0.75 1.018738 0.75 1.018738 0.7641602 0.8878174 0.7641602 1.018738 0.75 1.018738 0.7641602 1.018738 0.75 1.181885 0.75 1.181885 0.7641602 1.018738 0.7641602 1.181885 0.75 1.181885 0.7641602 1.181885 0.75 1.304199 0.75 1.304199 0.7641602 1.181885 0.7641602 1.304199 0.1674805 0.9982262 0.2486572 0.9616089 0.2486572 0.9982262 0.2486572 0.9616089 0.1674805 0.9982262 0.1674805 0.9616089 0.2486572 0.9616089 0.1674805 0.9616089 0.2486572 0.9321289 0.1674805 0.9616089 0.1674805 0.9982262 0.08447265 0.9982262 0.2486572 0.9321289 0.1674805 0.9616089 0.1674805 0.9321289 0.1674805 0.9616089 0.08447265 0.9982262 0.08447265 0.9616089 0.1674805 0.9616089 0.08447265 0.9616089 0.1674805 0.9321289 0.08447265 0.9616089 0.08447265 0.9982262 -5.22137e-4 0.9982262 0.2486572 0.9321289 0.1674805 0.9321289 0.2486572 0.8865356 0.08447265 0.9616089 -5.22137e-4 0.9982262 -5.22137e-4 0.9616089 -5.22137e-4 0.9616089 -5.22137e-4 0.9982262 -0.085083 0.9982262 0.1674805 0.9321289 0.08447265 0.9616089 0.08447265 0.9321289 0.08447265 0.9321289 0.08447265 0.9616089 -5.22137e-4 0.9616089 0.2486572 0.8865356 0.1674805 0.9321289 0.1674805 0.8865356 0.1674805 0.8865356 0.1674805 0.9321289 0.08447265 0.9321289 -5.22137e-4 0.9616089 -0.085083 0.9982262 -0.085083 0.9616089 -0.085083 0.9616089 -0.085083 0.9982262 -0.163208 0.9982262 0.08447265 0.9321289 -5.22137e-4 0.9616089 -5.22137e-4 0.9321289 -5.22137e-4 0.9321289 -5.22137e-4 0.9616089 -0.085083 0.9616089 -0.085083 0.9616089 -0.163208 0.9982262 -0.163208 0.9616089 -0.163208 0.9616089 -0.163208 0.9982262 -0.2468262 0.9982262 -0.163208 0.9616089 -0.2468262 0.9982262 -0.2468262 0.9616089 -0.085083 0.9616089 -0.163208 0.9616089 -0.085083 0.9321289 -0.085083 0.9616089 -0.085083 0.9321289 -5.22137e-4 0.9321289 -0.163208 0.9616089 -0.2468262 0.9616089 -0.163208 0.9321289 -0.163208 0.9616089 -0.163208 0.9321289 -0.085083 0.9321289 -0.163208 0.9321289 -0.2468262 0.9616089 -0.2468262 0.9321289 -5.22137e-4 0.9321289 -0.085083 0.9321289 -5.22137e-4 0.8865356 -0.163208 0.9321289 -0.2468262 0.9321289 -0.163208 0.8865356 -0.163208 0.8865356 -0.2468262 0.9321289 -0.2468262 0.8865356 -0.085083 0.9321289 -0.163208 0.9321289 -0.085083 0.8865356 -0.085083 0.8865356 -0.163208 0.9321289 -0.163208 0.8865356 -0.085083 0.9321289 -0.085083 0.8865356 -5.22137e-4 0.8865356 -0.163208 0.8865356 -0.2468262 0.8865356 -0.2468262 0.8010254 -0.085083 0.8865356 -0.163208 0.8865356 -0.163208 0.8010254 -0.163208 0.8010254 -0.163208 0.8865356 -0.2468262 0.8010254 -5.22137e-4 0.8865356 -0.085083 0.8865356 -0.085083 0.8010254 -0.085083 0.8010254 -0.085083 0.8865356 -0.163208 0.8010254 0.08447265 0.8865356 -5.22137e-4 0.9321289 -5.22137e-4 0.8865356 -5.22137e-4 0.9321289 0.08447265 0.8865356 0.08447265 0.9321289 0.08447265 0.9321289 0.08447265 0.8865356 0.1674805 0.8865356 0.08447265 0.8865356 -5.22137e-4 0.8865356 -5.22137e-4 0.8010254 -5.22137e-4 0.8010254 -5.22137e-4 0.8865356 -0.085083 0.8010254 0.1674805 0.8865356 0.08447265 0.8865356 0.08447265 0.8010254 0.08447265 0.8010254 0.08447265 0.8865356 -5.22137e-4 0.8010254 0.1674805 0.8865356 0.08447265 0.8010254 0.1674805 0.8010254 0.1674805 0.8865356 0.1674805 0.8010254 0.2486572 0.8865356 0.2486572 0.8865356 0.1674805 0.8010254 0.2486572 0.8010254 0.2486572 0.8010254 0.1674805 0.8010254 0.2486572 0.7019043 0.2486572 0.7019043 0.1674805 0.8010254 0.1674805 0.7019043 0.1674805 0.7019043 0.1674805 0.8010254 0.08447265 0.8010254 0.2486572 0.7019043 0.1674805 0.7019043 0.2486572 0.6638184 0.1674805 0.7019043 0.08447265 0.8010254 0.08447265 0.7019043 0.08447265 0.7019043 0.08447265 0.8010254 -5.22137e-4 0.8010254 0.2486572 0.6638184 0.1674805 0.7019043 0.1674805 0.6638184 0.1674805 0.6638184 0.1674805 0.7019043 0.08447265 0.7019043 0.2486572 0.6638184 0.1674805 0.6638184 0.2486572 0.6044922 0.08447265 0.7019043 -5.22137e-4 0.8010254 -5.22137e-4 0.7019043 -5.22137e-4 0.7019043 -5.22137e-4 0.8010254 -0.085083 0.8010254 0.1674805 0.6638184 0.08447265 0.7019043 0.08447265 0.6638184 0.08447265 0.6638184 0.08447265 0.7019043 -5.22137e-4 0.7019043 0.2486572 0.6044922 0.1674805 0.6638184 0.1674805 0.6044922 0.1674805 0.6044922 0.1674805 0.6638184 0.08447265 0.6638184 0.2486572 0.6044922 0.1674805 0.6044922 0.2486572 0.487793 -5.22137e-4 0.7019043 -0.085083 0.8010254 -0.085083 0.7019043 -0.085083 0.7019043 -0.085083 0.8010254 -0.163208 0.8010254 0.08447265 0.6638184 -5.22137e-4 0.7019043 -5.22137e-4 0.6638184 -5.22137e-4 0.6638184 -5.22137e-4 0.7019043 -0.085083 0.7019043 0.1674805 0.6044922 0.08447265 0.6638184 0.08447265 0.6044922 0.08447265 0.6044922 0.08447265 0.6638184 -5.22137e-4 0.6638184 0.2486572 0.487793 0.1674805 0.6044922 0.1674805 0.487793 0.1674805 0.487793 0.1674805 0.6044922 0.08447265 0.6044922 0.2486572 0.487793 0.1674805 0.487793 0.1674805 0.2773438 0.2486572 0.487793 0.1674805 0.2773438 0.2486572 0.2773438 0.2486572 0.002929687 0.2486572 0.2773438 0.1674805 0.002929687 0.1674805 0.002929687 0.2486572 0.2773438 0.1674805 0.2773438 0.1674805 0.002929687 0.1674805 0.2773438 0.08447265 0.2773438 0.08447265 0.2773438 0.1674805 0.2773438 0.1674805 0.487793 0.1674805 0.002929687 0.08447265 0.2773438 0.08447265 0.002929687 0.08447265 0.002929687 0.08447265 0.2773438 -5.22137e-4 0.002929687 0.08447265 0.2773438 0.1674805 0.487793 0.08447265 0.487793 0.08447265 0.487793 0.1674805 0.487793 0.08447265 0.6044922 -5.22137e-4 0.002929687 0.08447265 0.2773438 -5.22137e-4 0.2773438 -5.22137e-4 0.2773438 0.08447265 0.2773438 0.08447265 0.487793 -5.22137e-4 0.002929687 -5.22137e-4 0.2773438 -0.085083 0.002929687 0.08447265 0.487793 0.08447265 0.6044922 -5.22137e-4 0.6044922 -5.22137e-4 0.6044922 0.08447265 0.6044922 -5.22137e-4 0.6638184 -5.22137e-4 0.2773438 0.08447265 0.487793 -5.22137e-4 0.487793 -5.22137e-4 0.487793 0.08447265 0.487793 -5.22137e-4 0.6044922 -0.085083 0.002929687 -5.22137e-4 0.2773438 -0.085083 0.2773438 -0.085083 0.2773438 -5.22137e-4 0.2773438 -5.22137e-4 0.487793 -0.085083 0.002929687 -0.085083 0.2773438 -0.163208 0.002929687 -5.22137e-4 0.6044922 -5.22137e-4 0.6638184 -0.085083 0.6638184 -0.085083 0.6638184 -5.22137e-4 0.6638184 -0.085083 0.7019043 -0.163208 0.002929687 -0.085083 0.2773438 -0.163208 0.2773438 -0.163208 0.002929687 -0.163208 0.2773438 -0.2468262 0.002929687 -0.2468262 0.002929687 -0.163208 0.2773438 -0.2468262 0.2773438 -0.163208 0.2773438 -0.085083 0.2773438 -0.085083 0.487793 -0.085083 0.487793 -0.085083 0.2773438 -5.22137e-4 0.487793 -0.2468262 0.2773438 -0.163208 0.2773438 -0.163208 0.487793 -0.163208 0.487793 -0.163208 0.2773438 -0.085083 0.487793 -0.2468262 0.2773438 -0.163208 0.487793 -0.2468262 0.487793 -0.2468262 0.487793 -0.163208 0.487793 -0.2468262 0.6044922 -0.2468262 0.6044922 -0.163208 0.487793 -0.163208 0.6044922 -0.163208 0.6044922 -0.163208 0.487793 -0.085083 0.487793 -0.2468262 0.6044922 -0.163208 0.6044922 -0.2468262 0.6638184 -0.085083 0.487793 -5.22137e-4 0.487793 -0.085083 0.6044922 -0.085083 0.487793 -0.085083 0.6044922 -0.163208 0.6044922 -0.085083 0.6044922 -5.22137e-4 0.487793 -5.22137e-4 0.6044922 -0.085083 0.6044922 -5.22137e-4 0.6044922 -0.085083 0.6638184 -0.2468262 0.6638184 -0.163208 0.6044922 -0.163208 0.6638184 -0.163208 0.6638184 -0.163208 0.6044922 -0.085083 0.6044922 -0.163208 0.6638184 -0.085083 0.6044922 -0.085083 0.6638184 -0.2468262 0.6638184 -0.163208 0.6638184 -0.2468262 0.7019043 -0.163208 0.6638184 -0.085083 0.6638184 -0.163208 0.7019043 -0.163208 0.6638184 -0.163208 0.7019043 -0.2468262 0.7019043 -0.163208 0.7019043 -0.085083 0.6638184 -0.085083 0.7019043 -0.2468262 0.7019043 -0.163208 0.7019043 -0.2468262 0.8010254 -0.163208 0.7019043 -0.085083 0.7019043 -0.163208 0.8010254 -0.163208 0.7019043 -0.163208 0.8010254 -0.2468262 0.8010254 0.1674805 0.9977474 0.2486572 0.9616089 0.2486572 0.9977474 0.2486572 0.9616089 0.1674805 0.9977474 0.1674805 0.9616089 0.2486572 0.9616089 0.1674805 0.9616089 0.2486572 0.9321289 0.1674805 0.9616089 0.1674805 0.9977474 0.08447265 0.9977474 0.2486572 0.9321289 0.1674805 0.9616089 0.1674805 0.9321289 0.1674805 0.9616089 0.08447265 0.9977474 0.08447265 0.9616089 0.1674805 0.9616089 0.08447265 0.9616089 0.1674805 0.9321289 0.08447265 0.9616089 0.08447265 0.9977474 -5.22137e-4 0.9977474 0.2486572 0.9321289 0.1674805 0.9321289 0.2486572 0.8865356 0.08447265 0.9616089 -5.22137e-4 0.9977474 -5.22137e-4 0.9616089 -5.22137e-4 0.9616089 -5.22137e-4 0.9977474 -0.085083 0.9977474 0.1674805 0.9321289 0.08447265 0.9616089 0.08447265 0.9321289 0.08447265 0.9321289 0.08447265 0.9616089 -5.22137e-4 0.9616089 0.2486572 0.8865356 0.1674805 0.9321289 0.1674805 0.8865356 0.1674805 0.8865356 0.1674805 0.9321289 0.08447265 0.9321289 -5.22137e-4 0.9616089 -0.085083 0.9977474 -0.085083 0.9616089 -0.085083 0.9616089 -0.085083 0.9977474 -0.163208 0.9977474 0.08447265 0.9321289 -5.22137e-4 0.9616089 -5.22137e-4 0.9321289 -5.22137e-4 0.9321289 -5.22137e-4 0.9616089 -0.085083 0.9616089 -0.085083 0.9616089 -0.163208 0.9977474 -0.163208 0.9616089 -0.163208 0.9616089 -0.163208 0.9977474 -0.2468262 0.9977474 -0.163208 0.9616089 -0.2468262 0.9977474 -0.2468262 0.9616089 -0.085083 0.9616089 -0.163208 0.9616089 -0.085083 0.9321289 -0.085083 0.9616089 -0.085083 0.9321289 -5.22137e-4 0.9321289 -0.163208 0.9616089 -0.2468262 0.9616089 -0.163208 0.9321289 -0.163208 0.9616089 -0.163208 0.9321289 -0.085083 0.9321289 -0.163208 0.9321289 -0.2468262 0.9616089 -0.2468262 0.9321289 -5.22137e-4 0.9321289 -0.085083 0.9321289 -5.22137e-4 0.8865356 -0.163208 0.9321289 -0.2468262 0.9321289 -0.163208 0.8865356 -0.163208 0.8865356 -0.2468262 0.9321289 -0.2468262 0.8865356 -0.085083 0.9321289 -0.163208 0.9321289 -0.085083 0.8865356 -0.085083 0.8865356 -0.163208 0.9321289 -0.163208 0.8865356 -0.085083 0.9321289 -0.085083 0.8865356 -5.22137e-4 0.8865356 -0.163208 0.8865356 -0.2468262 0.8865356 -0.2468262 0.8010254 -0.085083 0.8865356 -0.163208 0.8865356 -0.163208 0.8010254 -0.163208 0.8010254 -0.163208 0.8865356 -0.2468262 0.8010254 -5.22137e-4 0.8865356 -0.085083 0.8865356 -0.085083 0.8010254 -0.085083 0.8010254 -0.085083 0.8865356 -0.163208 0.8010254 0.08447265 0.8865356 -5.22137e-4 0.9321289 -5.22137e-4 0.8865356 -5.22137e-4 0.9321289 0.08447265 0.8865356 0.08447265 0.9321289 0.08447265 0.9321289 0.08447265 0.8865356 0.1674805 0.8865356 0.08447265 0.8865356 -5.22137e-4 0.8865356 -5.22137e-4 0.8010254 -5.22137e-4 0.8010254 -5.22137e-4 0.8865356 -0.085083 0.8010254 0.1674805 0.8865356 0.08447265 0.8865356 0.08447265 0.8010254 0.08447265 0.8010254 0.08447265 0.8865356 -5.22137e-4 0.8010254 0.1674805 0.8865356 0.08447265 0.8010254 0.1674805 0.8010254 0.1674805 0.8865356 0.1674805 0.8010254 0.2486572 0.8865356 0.2486572 0.8865356 0.1674805 0.8010254 0.2486572 0.8010254 0.2486572 0.8010254 0.1674805 0.8010254 0.2486572 0.7019043 0.2486572 0.7019043 0.1674805 0.8010254 0.1674805 0.7019043 0.1674805 0.7019043 0.1674805 0.8010254 0.08447265 0.8010254 0.2486572 0.7019043 0.1674805 0.7019043 0.2486572 0.6633301 0.1674805 0.7019043 0.08447265 0.8010254 0.08447265 0.7019043 0.08447265 0.7019043 0.08447265 0.8010254 -5.22137e-4 0.8010254 0.2486572 0.6633301 0.1674805 0.7019043 0.1674805 0.6633301 0.1674805 0.6633301 0.1674805 0.7019043 0.08447265 0.7019043 0.2486572 0.6633301 0.1674805 0.6633301 0.2486572 0.604248 0.08447265 0.7019043 -5.22137e-4 0.8010254 -5.22137e-4 0.7019043 -5.22137e-4 0.7019043 -5.22137e-4 0.8010254 -0.085083 0.8010254 0.1674805 0.6633301 0.08447265 0.7019043 0.08447265 0.6633301 0.08447265 0.6633301 0.08447265 0.7019043 -5.22137e-4 0.7019043 0.2486572 0.604248 0.1674805 0.6633301 0.1674805 0.604248 0.1674805 0.604248 0.1674805 0.6633301 0.08447265 0.6633301 0.2486572 0.604248 0.1674805 0.604248 0.2486572 0.4873047 -5.22137e-4 0.7019043 -0.085083 0.8010254 -0.085083 0.7019043 -0.085083 0.7019043 -0.085083 0.8010254 -0.163208 0.8010254 0.08447265 0.6633301 -5.22137e-4 0.7019043 -5.22137e-4 0.6633301 -5.22137e-4 0.6633301 -5.22137e-4 0.7019043 -0.085083 0.7019043 0.1674805 0.604248 0.08447265 0.6633301 0.08447265 0.604248 0.08447265 0.604248 0.08447265 0.6633301 -5.22137e-4 0.6633301 0.2486572 0.4873047 0.1674805 0.604248 0.1674805 0.4873047 0.1674805 0.4873047 0.1674805 0.604248 0.08447265 0.604248 0.2486572 0.4873047 0.1674805 0.4873047 0.1674805 0.2773438 0.2486572 0.4873047 0.1674805 0.2773438 0.2486572 0.2773438 0.1674805 0.002441406 0.2486572 0.002441406 0.2486572 0.2773438 0.1674805 0.002441406 0.2486572 0.2773438 0.1674805 0.2773438 0.1674805 0.002441406 0.1674805 0.2773438 0.08447265 0.002441406 0.08447265 0.002441406 0.1674805 0.2773438 0.08447265 0.2773438 0.08447265 0.2773438 0.1674805 0.2773438 0.1674805 0.4873047 0.08447265 0.002441406 0.08447265 0.2773438 -5.22137e-4 0.002441406 0.08447265 0.2773438 0.1674805 0.4873047 0.08447265 0.4873047 0.08447265 0.4873047 0.1674805 0.4873047 0.08447265 0.604248 -5.22137e-4 0.002441406 0.08447265 0.2773438 -5.22137e-4 0.2773438 -5.22137e-4 0.2773438 0.08447265 0.2773438 0.08447265 0.4873047 -5.22137e-4 0.002441406 -5.22137e-4 0.2773438 -0.085083 0.002441406 0.08447265 0.4873047 0.08447265 0.604248 -5.22137e-4 0.4873047 0.08447265 0.4873047 -5.22137e-4 0.4873047 -5.22137e-4 0.2773438 -0.085083 0.002441406 -5.22137e-4 0.2773438 -0.085083 0.2773438 -0.085083 0.2773438 -5.22137e-4 0.2773438 -5.22137e-4 0.4873047 -0.085083 0.002441406 -0.085083 0.2773438 -0.163208 0.002441406 -5.22137e-4 0.4873047 0.08447265 0.604248 -5.22137e-4 0.604248 -5.22137e-4 0.604248 0.08447265 0.604248 -5.22137e-4 0.6633301 -0.163208 0.002441406 -0.085083 0.2773438 -0.163208 0.2773438 -0.163208 0.002441406 -0.163208 0.2773438 -0.2468262 0.002441406 -0.2468262 0.002441406 -0.163208 0.2773438 -0.2468262 0.2773438 -0.085083 0.2773438 -5.22137e-4 0.4873047 -0.085083 0.4873047 -0.085083 0.2773438 -0.085083 0.4873047 -0.163208 0.2773438 -0.2468262 0.2773438 -0.163208 0.2773438 -0.163208 0.4873047 -0.163208 0.4873047 -0.163208 0.2773438 -0.085083 0.4873047 -0.2468262 0.2773438 -0.163208 0.4873047 -0.2468262 0.4873047 -0.2468262 0.4873047 -0.163208 0.4873047 -0.2468262 0.604248 -0.2468262 0.604248 -0.163208 0.4873047 -0.163208 0.604248 -0.163208 0.604248 -0.163208 0.4873047 -0.085083 0.4873047 -0.2468262 0.604248 -0.163208 0.604248 -0.2468262 0.6633301 -0.085083 0.604248 -0.085083 0.4873047 -5.22137e-4 0.4873047 -0.085083 0.4873047 -0.085083 0.604248 -0.163208 0.604248 -0.085083 0.604248 -5.22137e-4 0.4873047 -5.22137e-4 0.604248 -0.2468262 0.6633301 -0.163208 0.604248 -0.163208 0.6633301 -0.163208 0.6633301 -0.163208 0.604248 -0.085083 0.604248 -0.2468262 0.6633301 -0.163208 0.6633301 -0.2468262 0.7019043 -0.085083 0.604248 -5.22137e-4 0.604248 -0.085083 0.6633301 -0.085083 0.604248 -0.085083 0.6633301 -0.163208 0.6633301 -0.085083 0.6633301 -5.22137e-4 0.604248 -5.22137e-4 0.6633301 -0.085083 0.6633301 -5.22137e-4 0.6633301 -0.085083 0.7019043 -0.2468262 0.7019043 -0.163208 0.6633301 -0.163208 0.7019043 -0.163208 0.7019043 -0.163208 0.6633301 -0.085083 0.6633301 -0.163208 0.7019043 -0.085083 0.6633301 -0.085083 0.7019043 -0.2468262 0.7019043 -0.163208 0.7019043 -0.2468262 0.8010254 -0.163208 0.7019043 -0.085083 0.7019043 -0.163208 0.8010254 -0.163208 0.7019043 -0.163208 0.8010254 -0.2468262 0.8010254 0.9316406 0.7299805 0.855957 0.8137207 0.8999023 0.6696777 0.855957 0.8137207 0.9316406 0.7299805 0.9428711 0.8123779 0.8999023 0.6696777 0.855957 0.8137207 0.8564453 0.6396484 0.855957 0.8137207 0.9428711 0.8123779 0.9316406 0.8947144 0.8564453 0.6396484 0.855957 0.8137207 0.8110352 0.6630859 0.855957 0.8137207 0.9316406 0.8947144 0.9023438 0.964447 0.8110352 0.6630859 0.855957 0.8137207 0.7773438 0.7268066 0.855957 0.8137207 0.9023438 0.964447 0.855957 0.9877701 0.7773438 0.7268066 0.855957 0.8137207 0.7651367 0.8137207 0.855957 0.8137207 0.855957 0.9877701 0.8105469 0.964447 0.7651367 0.8137207 0.855957 0.8137207 0.7773438 0.9007568 0.7773438 0.9007568 0.855957 0.8137207 0.8105469 0.964447 1.041992 1.135498 1.063477 1.069214 1.072266 1.078918 1.072266 1.078918 1.063477 1.069214 1.083008 1 1.063477 1.069214 1.041992 1.135498 1.037109 1.118835 1.037109 1.118835 1.041992 1.135498 1 1.15625 1.083008 1 1.063477 1.069214 1.073242 1 1.037109 1.118835 1 1.15625 1 1.136963 1.083008 1 1.073242 1 1.063477 0.9338379 1.083008 1 1.063477 0.9338379 1.072266 0.9241333 1.072266 0.9241333 1.063477 0.9338379 1.041992 0.8675537 1.073242 1 1.063477 1.069214 1 1 1 1 1.063477 1.069214 1.037109 1.118835 1.073242 1 1 1 1.063477 0.9338379 1 1 1.037109 1.118835 1 1.136963 1.041992 0.8675537 1.063477 0.9338379 1.037109 0.8842163 1.037109 0.8842163 1.063477 0.9338379 1 1 1.041992 0.8675537 1.037109 0.8842163 1 0.8660889 1 0.8660889 1.037109 0.8842163 1 1 1.041992 0.8675537 1 0.8660889 1 0.8468018 1 0.8468018 1 0.8660889 0.9594727 0.8675537 0.9594727 0.8675537 1 0.8660889 0.9643555 0.8842163 0.9643555 0.8842163 1 0.8660889 1 1 0.9594727 0.8675537 0.9643555 0.8842163 0.9287109 0.9241333 0.9287109 0.9241333 0.9643555 0.8842163 0.9379883 0.9338379 0.9379883 0.9338379 0.9643555 0.8842163 1 1 0.9287109 0.9241333 0.9379883 0.9338379 0.9282227 1 0.9282227 1 0.9379883 0.9338379 1 1 0.9287109 0.9241333 0.9282227 1 0.9179688 1 0.9179688 1 0.9282227 1 0.9379883 1.069214 0.9379883 1.069214 0.9282227 1 1 1 0.9179688 1 0.9379883 1.069214 0.9287109 1.078918 0.9379883 1.069214 1 1 0.9643555 1.118835 0.9379883 1.069214 0.9643555 1.118835 0.9287109 1.078918 0.9643555 1.118835 1 1 1 1.136963 0.9643555 1.118835 1 1.136963 1 1.15625 0.9287109 1.078918 0.9643555 1.118835 0.9594727 1.135498 0.9594727 1.135498 0.9643555 1.118835 1 1.15625</float_array>
          <technique_common>
            <accessor source="#polySurface3082__Mt_CmnTex_Etc_SheikerPot_A-mesh-map-array" count="936" stride="2">
              <param name="S" type="float"/>
              <param name="T" type="float"/>
            </accessor>
          </technique_common>
        </source>
        <vertices id="polySurface3082__Mt_CmnTex_Etc_SheikerPot_A-mesh-vertices">
          <input semantic="POSITION" source="#polySurface3082__Mt_CmnTex_Etc_SheikerPot_A-mesh-positions"/>
        </vertices>
        <triangles material="Mt_CmnTex_Etc_SheikerPot_A-material" count="312">
          <input semantic="VERTEX" source="#polySurface3082__Mt_CmnTex_Etc_SheikerPot_A-mesh-vertices" offset="0"/>
          <input semantic="NORMAL" source="#polySurface3082__Mt_CmnTex_Etc_SheikerPot_A-mesh-normals" offset="1"/>
          <input semantic="TEXCOORD" source="#polySurface3082__Mt_CmnTex_Etc_SheikerPot_A-mesh-map" offset="2" set="0"/>
          <p>0 0 0 1 1 1 2 2 2 2 2 3 1 1 4 3 3 5 2 2 6 3 3 7 4 4 8 4 4 9 3 3 10 5 5 11 4 4 12 5 5 13 6 6 14 6 6 15 5 5 16 7 7 17 6 6 18 7 7 19 8 8 20 8 8 21 7 7 22 9 9 23 10 10 24 11 11 25 12 12 26 12 12 27 11 11 28 13 13 29 12 12 30 13 13 31 14 14 32 14 14 33 13 13 34 15 15 35 14 14 36 15 15 37 16 16 38 16 16 39 15 15 40 17 17 41 16 16 42 17 17 43 18 18 44 18 18 45 17 17 46 19 19 47 20 20 48 21 21 49 22 22 50 22 22 51 21 21 52 23 23 53 22 22 54 23 23 55 24 24 56 24 24 57 23 23 58 25 25 59 24 24 60 25 25 61 26 26 62 26 26 63 25 25 64 27 27 65 26 26 66 27 27 67 28 28 68 28 28 69 27 27 70 29 29 71 30 30 72 31 31 73 32 32 74 31 31 75 30 30 76 33 33 77 31 31 78 33 33 79 34 34 80 33 33 81 30 30 82 35 35 83 34 34 84 33 33 85 36 36 86 33 33 87 35 35 88 37 37 89 33 33 90 37 37 91 36 36 92 37 37 93 35 35 94 38 38 95 34 34 96 36 36 97 39 39 98 37 37 99 38 38 100 40 40 101 40 40 102 38 38 103 41 41 104 36 36 105 37 37 106 42 42 107 42 42 108 37 37 109 40 40 110 39 39 111 36 36 112 43 43 113 43 43 114 36 36 115 42 42 116 40 40 117 41 41 118 44 44 119 44 44 120 41 41 121 45 45 122 42 42 123 40 40 124 46 46 125 46 46 126 40 40 127 44 44 128 44 44 129 45 45 130 47 47 131 47 47 132 45 45 133 48 48 134 47 47 135 48 48 136 49 49 137 44 44 138 47 47 139 50 50 140 44 44 141 50 50 142 46 46 143 47 47 144 49 49 145 51 51 146 47 47 147 51 51 148 50 50 149 51 51 150 49 49 151 52 52 152 46 46 153 50 50 154 53 53 155 51 51 156 52 52 157 54 54 158 54 54 159 52 52 160 55 55 161 50 50 162 51 51 163 56 56 164 56 56 165 51 51 166 54 54 167 50 50 168 56 56 169 53 53 170 54 54 171 55 55 172 57 57 173 56 56 174 54 54 175 58 58 176 58 58 177 54 54 178 57 57 179 53 53 180 56 56 181 59 59 182 59 59 183 56 56 184 58 58 185 60 60 186 46 46 187 53 53 188 46 46 189 60 60 190 42 42 191 42 42 192 60 60 193 43 43 194 60 60 195 53 53 196 61 61 197 61 61 198 53 53 199 59 59 200 43 43 201 60 60 202 62 62 203 62 62 204 60 60 205 61 61 206 43 43 207 62 62 208 63 63 209 43 43 210 63 63 211 39 39 212 39 39 213 63 63 214 64 64 215 64 64 216 63 63 217 65 65 218 65 65 219 63 63 220 66 66 221 66 66 222 63 63 223 62 62 224 65 65 225 66 66 226 67 67 227 66 66 228 62 62 229 68 68 230 68 68 231 62 62 232 61 61 233 67 67 234 66 66 235 69 69 236 69 69 237 66 66 238 68 68 239 67 67 240 69 69 241 70 70 242 68 68 243 61 61 244 71 71 245 71 71 246 61 61 247 59 59 248 69 69 249 68 68 250 72 72 251 72 72 252 68 68 253 71 71 254 70 70 255 69 69 256 73 73 257 73 73 258 69 69 259 72 72 260 70 70 261 73 73 262 74 74 263 71 71 264 59 59 265 75 75 266 75 75 267 59 59 268 58 58 269 72 72 270 71 71 271 76 76 272 76 76 273 71 71 274 75 75 275 73 73 276 72 72 277 77 77 278 77 77 279 72 72 280 76 76 281 74 74 282 73 73 283 78 78 284 78 78 285 73 73 286 77 77 287 74 74 288 78 78 289 79 79 290 74 74 291 79 79 292 80 80 293 81 81 294 80 80 295 82 82 296 82 82 297 80 80 298 79 79 299 82 82 300 79 79 301 83 83 302 83 83 303 79 79 304 78 78 305 82 82 306 83 83 307 84 84 308 84 84 309 83 83 310 85 85 311 83 83 312 78 78 313 86 86 314 86 86 315 78 78 316 77 77 317 85 85 318 83 83 319 87 87 320 87 87 321 83 83 322 86 86 323 85 85 324 87 87 325 88 88 326 86 86 327 77 77 328 89 89 329 89 89 330 77 77 331 76 76 332 87 87 333 86 86 334 90 90 335 90 90 336 86 86 337 89 89 338 88 88 339 87 87 340 91 91 341 91 91 342 87 87 343 90 90 344 88 88 345 91 91 346 92 92 347 89 89 348 76 76 349 93 93 350 93 93 351 76 76 352 75 75 353 92 92 354 91 91 355 94 94 356 92 92 357 94 94 358 95 95 359 95 95 360 94 94 361 96 96 362 94 94 363 91 91 364 97 97 365 97 97 366 91 91 367 90 90 368 96 96 369 94 94 370 98 98 371 98 98 372 94 94 373 97 97 374 96 96 375 98 98 376 99 99 377 99 99 378 98 98 379 100 100 380 100 100 381 98 98 382 101 101 383 101 101 384 98 98 385 97 97 386 100 100 387 101 101 388 102 102 389 97 97 390 90 90 391 103 103 392 97 97 393 103 103 394 101 101 395 103 103 396 90 90 397 89 89 398 103 103 399 89 89 400 93 93 401 102 102 402 101 101 403 104 104 404 104 104 405 101 101 406 103 103 407 104 104 408 103 103 409 93 93 410 102 102 411 104 104 412 105 105 413 104 104 414 93 93 415 106 106 416 104 104 417 106 106 418 105 105 419 106 106 420 93 93 421 75 75 422 105 105 423 106 106 424 57 57 425 106 106 426 75 75 427 58 58 428 106 106 429 58 58 430 57 57 431 107 107 432 108 108 433 109 109 434 108 108 435 107 107 436 110 110 437 108 108 438 110 110 439 111 111 440 110 110 441 107 107 442 112 112 443 111 111 444 110 110 445 113 113 446 110 110 447 112 112 448 114 114 449 110 110 450 114 114 451 113 113 452 114 114 453 112 112 454 115 115 455 111 111 456 113 113 457 116 116 458 114 114 459 115 115 460 117 117 461 117 117 462 115 115 463 118 118 464 113 113 465 114 114 466 119 119 467 119 119 468 114 114 469 117 117 470 116 116 471 113 113 472 120 120 473 120 120 474 113 113 475 119 119 476 117 117 477 118 118 478 121 121 479 121 121 480 118 118 481 122 122 482 119 119 483 117 117 484 123 123 485 123 123 486 117 117 487 121 121 488 121 121 489 122 122 490 124 124 491 124 124 492 122 122 493 125 125 494 124 124 495 125 125 496 126 126 497 121 121 498 124 124 499 127 127 500 121 121 501 127 127 502 123 123 503 124 124 504 126 126 505 128 128 506 124 124 507 128 128 508 127 127 509 128 128 510 126 126 511 129 129 512 123 123 513 127 127 514 130 130 515 128 128 516 129 129 517 131 131 518 131 131 519 129 129 520 132 132 521 127 127 522 128 128 523 133 133 524 133 133 525 128 128 526 131 131 527 127 127 528 133 133 529 130 130 530 131 131 531 132 132 532 134 134 533 133 133 534 131 131 535 135 135 536 135 135 537 131 131 538 134 134 539 130 130 540 133 133 541 136 136 542 136 136 543 133 133 544 135 135 545 137 137 546 123 123 547 130 130 548 123 123 549 137 137 550 119 119 551 119 119 552 137 137 553 120 120 554 137 137 555 130 130 556 138 138 557 138 138 558 130 130 559 136 136 560 120 120 561 137 137 562 139 139 563 139 139 564 137 137 565 138 138 566 120 120 567 139 139 568 140 140 569 120 120 570 140 140 571 116 116 572 116 116 573 140 140 574 141 141 575 141 141 576 140 140 577 142 142 578 142 142 579 140 140 580 143 143 581 143 143 582 140 140 583 139 139 584 142 142 585 143 143 586 144 144 587 143 143 588 139 139 589 145 145 590 145 145 591 139 139 592 138 138 593 144 144 594 143 143 595 146 146 596 146 146 597 143 143 598 145 145 599 144 144 600 146 146 601 147 147 602 145 145 603 138 138 604 148 148 605 148 148 606 138 138 607 136 136 608 146 146 609 145 145 610 149 149 611 149 149 612 145 145 613 148 148 614 147 147 615 146 146 616 150 150 617 150 150 618 146 146 619 149 149 620 147 147 621 150 150 622 151 151 623 148 148 624 136 136 625 152 152 626 152 152 627 136 136 628 135 135 629 149 149 630 148 148 631 153 153 632 153 153 633 148 148 634 152 152 635 150 150 636 149 149 637 154 154 638 154 154 639 149 149 640 153 153 641 151 151 642 150 150 643 155 155 644 155 155 645 150 150 646 154 154 647 151 151 648 155 155 649 156 156 650 151 151 651 156 156 652 157 157 653 158 158 654 159 159 655 157 157 656 158 158 657 157 157 658 156 156 659 158 158 660 156 156 661 160 160 662 160 160 663 156 156 664 161 161 665 161 161 666 156 156 667 155 155 668 160 160 669 161 161 670 162 162 671 161 161 672 155 155 673 163 163 674 163 163 675 155 155 676 154 154 677 162 162 678 161 161 679 164 164 680 164 164 681 161 161 682 163 163 683 162 162 684 164 164 685 165 165 686 163 163 687 154 154 688 166 166 689 163 163 690 166 166 691 164 164 692 165 165 693 164 164 694 167 167 695 167 167 696 164 164 697 166 166 698 165 165 699 167 167 700 168 168 701 166 166 702 154 154 703 169 169 704 169 169 705 154 154 706 153 153 707 168 168 708 167 167 709 170 170 710 168 168 711 170 170 712 171 171 713 171 171 714 170 170 715 172 172 716 167 167 717 166 166 718 173 173 719 167 167 720 173 173 721 170 170 722 172 172 723 170 170 724 174 174 725 174 174 726 170 170 727 173 173 728 172 172 729 174 174 730 175 175 731 175 175 732 174 174 733 176 176 734 176 176 735 174 174 736 177 177 737 177 177 738 174 174 739 173 173 740 176 176 741 177 177 742 178 178 743 179 179 744 173 173 745 166 166 746 173 173 747 179 179 748 177 177 749 179 179 750 166 166 751 169 169 752 178 178 753 177 177 754 180 180 755 180 180 756 177 177 757 179 179 758 178 178 759 180 180 760 181 181 761 179 179 762 169 169 763 182 182 764 179 179 765 182 182 766 180 180 767 182 182 768 169 169 769 153 153 770 182 182 771 153 153 772 152 152 773 181 181 774 180 180 775 183 183 776 183 183 777 180 180 778 182 182 779 183 183 780 182 182 781 152 152 782 181 181 783 183 183 784 134 134 785 183 183 786 152 152 787 135 135 788 183 183 789 135 135 790 134 134 791 184 184 792 185 185 793 186 186 794 185 185 795 184 184 796 187 187 797 186 186 798 185 185 799 188 188 800 185 185 801 187 187 802 189 189 803 188 188 804 185 185 805 190 190 806 185 185 807 189 189 808 191 191 809 190 190 810 185 185 811 192 192 812 185 185 813 191 191 814 193 193 815 192 192 816 185 185 817 194 194 818 185 185 819 193 193 820 195 195 821 194 194 822 185 185 823 196 196 824 196 196 825 185 185 826 195 195 827 197 197 828 198 198 829 199 197 830 199 197 831 198 198 832 200 199 833 198 198 834 197 197 835 201 200 836 201 200 837 197 197 838 202 197 839 200 199 840 198 198 841 203 201 842 201 200 843 202 197 844 204 202 845 200 199 846 203 201 847 205 203 848 200 199 849 205 203 850 206 204 851 206 204 852 205 203 853 207 205 854 203 201 855 198 198 856 208 206 857 208 206 858 198 198 859 201 200 860 203 201 861 208 206 862 205 203 863 208 206 864 201 200 865 204 202 866 207 205 867 205 203 868 209 207 869 209 207 870 205 203 871 208 206 872 207 205 873 209 207 874 210 208 875 210 208 876 209 207 877 208 206 878 207 205 879 210 208 880 211 197 881 211 197 882 210 208 883 212 197 884 212 197 885 210 208 886 213 209 887 213 209 888 210 208 889 208 206 890 212 197 891 213 209 892 214 197 893 214 197 894 213 209 895 215 210 896 215 210 897 213 209 898 208 206 899 214 197 900 215 210 901 216 211 902 216 211 903 215 210 904 208 206 905 214 197 906 216 211 907 217 197 908 217 197 909 216 211 910 218 212 911 218 212 912 216 211 913 208 206 914 217 197 915 218 212 916 219 197 917 218 212 918 208 206 919 220 213 920 218 212 921 220 213 922 219 197 923 220 213 924 208 206 925 204 202 926 220 213 927 204 202 928 202 197 929 219 197 930 220 213 931 221 197 932 221 197 933 220 213 934 202 197 935</p>
        </triangles>
      </mesh>
    </geometry>
    <geometry id="polySurface3082__Mt_CmnTex_Cloth_VillageSheikerBanner_A-mesh" name="polySurface3082__Mt_CmnTex_Cloth_VillageSheikerBanner_A">
      <mesh>
        <source id="polySurface3082__Mt_CmnTex_Cloth_VillageSheikerBanner_A-mesh-positions">
          <float_array id="polySurface3082__Mt_CmnTex_Cloth_VillageSheikerBanner_A-mesh-positions-array" count="153">0.2486572 0.9868164 0.2780762 0.1893311 1.255859 0.3352051 0.1893311 0.9868164 0.3352051 0.2486572 1.255859 0.2780762 0.1018677 0.9868164 0.3708496 0.1801758 1.310547 0.3010254 0.239502 1.310547 0.2440186 0.1602783 1.310547 -0.05166625 0.1018677 1.255859 0.3708496 0.0927124 1.310547 0.3366699 0.008270263 1.255859 0.3837891 0.008270263 0.9868164 0.3837891 -0.07147216 0.9868164 0.3640137 -0.07147216 1.255859 0.3640137 -8.96454e-4 1.310547 0.3493652 -0.08068847 1.310547 0.329834 -0.1599121 1.310547 0.03411865 1.71304e-4 1.310547 -0.008773803 -0.1798096 1.310547 -0.3183594 -0.2391357 1.310547 -0.2614746 -0.2463379 1.255859 -0.2885742 0.001238822 1.310547 -0.3669434 0.08099365 1.310547 -0.3474121 0.0737915 1.255859 -0.3742676 -0.09234619 1.310547 -0.3540039 -0.1871338 1.255859 -0.345459 -0.2463379 1.060547 -0.2885742 -0.1871338 1.060547 -0.345459 -0.09960937 1.255859 -0.3811035 -0.09960937 1.060547 -0.3811035 -0.00598526 1.255859 -0.394043 -0.00598526 1.060547 -0.394043 0.0737915 1.060547 -0.3742676 0.08258056 1.317383 -0.3574219 0.0725708 1.044922 -0.4023438 -0.01383209 1.270508 -0.4128418 -0.01383209 1.270508 -0.4128418 -0.2489014 1.316406 -0.277832 0.08258056 1.317383 -0.3574219 -0.2489014 1.316406 -0.277832 0.2429199 1.31543 0.2565918 -0.07684326 1.3125 0.3398438 -0.06530761 1.282227 0.4033203 0.2609863 1.264648 0.3059082 0.2607422 0.9868164 0.3117676 -0.06530761 1.282227 0.4033203 -0.06646728 0.9868164 0.3964844 -0.2614746 1.053711 -0.322998 -0.2489014 1.316406 -0.277832 -0.01383209 1.270508 -0.4128418 0.0725708 1.044922 -0.4023438</float_array>
          <technique_common>
            <accessor source="#polySurface3082__Mt_CmnTex_Cloth_VillageSheikerBanner_A-mesh-positions-array" count="51" stride="3">
              <param name="X" type="float"/>
              <param name="Y" type="float"/>
              <param name="Z" type="float"/>
            </accessor>
          </technique_common>
        </source>
        <source id="polySurface3082__Mt_CmnTex_Cloth_VillageSheikerBanner_A-mesh-normals">
          <float_array id="polySurface3082__Mt_CmnTex_Cloth_VillageSheikerBanner_A-mesh-normals-array" count="99">0.6936422 0 0.7203197 0.5190713 0.2652807 0.8125215 0.5453107 0 0.8382341 0.6668277 0.2742567 0.6929099 0.2591875 0 0.9658271 0.2997417 0.8469157 0.4391911 0.2675592 0.9224318 0.2784453 0 1 0 0.2490154 0.2772958 0.9279538 0.1309558 0.8624426 0.4889207 -0.04330551 0.2663947 0.9628908 -0.05283105 0 0.9986035 -0.2407001 0 0.9705996 -0.2305523 0.2755505 0.9332296 -0.04012215 0.847905 0.5286278 -0.09170579 0.9226202 0.3746495 0 1 0 0 1 0 -0.3211136 0.8191725 -0.4752289 -0.2936474 0.9055286 -0.3062504 -0.6751026 0.2234457 -0.7030708 0.04047083 0.8188808 -0.572535 0.1012587 0.9048649 -0.4134807 0.233762 0.2223569 -0.9465267 -0.1425565 0.8350493 -0.5313853 -0.5254652 0.2204242 -0.8217661 -0.6928415 0 -0.72109 -0.5447428 0 -0.8386032 -0.252063 0.2306561 -0.9398202 -0.2590513 0 -0.9658637 0.04442411 0.2202125 -0.9744399 0.05279999 0 -0.9986052 0.2406024 0 -0.9706239</float_array>
          <technique_common>
            <accessor source="#polySurface3082__Mt_CmnTex_Cloth_VillageSheikerBanner_A-mesh-normals-array" count="33" stride="3">
              <param name="X" type="float"/>
              <param name="Y" type="float"/>
              <param name="Z" type="float"/>
            </accessor>
          </technique_common>
        </source>
        <source id="polySurface3082__Mt_CmnTex_Cloth_VillageSheikerBanner_A-mesh-map">
          <float_array id="polySurface3082__Mt_CmnTex_Cloth_VillageSheikerBanner_A-mesh-map-array" count="264">0 0 0 0 0 0 0 0 0 0 0 0 0 0 0 0 0 0 0 0 0 0 0 0 0 0 0 0 0 0 0 0 0 0 0 0 0 0 0 0 0 0 0 0 0 0 0 0 0 0 0 0 0 0 0 0 0 0 0 0 0 0 0 0 0 0 0 0 0 0 0 0 0 0 0 0 0 0 0 0 0 0 0 0 0 0 0 0 0 0 0 0 0 0 0 0 0 0 0 0 0 0 0 0 0 0 0 0 0 0 0 0 0 0 0 0 0 0 0 0 0 0 0 0 0 0 0 0 0 0 0 0 0 0 0 0 0 0 0 0 0 0 0 0 0 0 0 0 0 0 0 0 0 0 0 0 0 0 0 0 0 0 0 0 0 0 0 0 0 0 0 0 0 0 0 0 0 0 0 0 0 0 0 0 0 0 0 0 0 0 0 0 0 0 0 0 0 0 0 0 0 0 0 0 0 0 0 0 0 0 0 0 0 0 0 0 0 0 0 0 0 0 0 0 0 0 0 0 0 0 0 0 0 0 0 0 0 0 0 0 0 0 0 0 0 0 0 0 0 0 0 0 0 0 0 0 0 0 0 0 0 0 0 0</float_array>
          <technique_common>
            <accessor source="#polySurface3082__Mt_CmnTex_Cloth_VillageSheikerBanner_A-mesh-map-array" count="132" stride="2">
              <param name="S" type="float"/>
              <param name="T" type="float"/>
            </accessor>
          </technique_common>
        </source>
        <vertices id="polySurface3082__Mt_CmnTex_Cloth_VillageSheikerBanner_A-mesh-vertices">
          <input semantic="POSITION" source="#polySurface3082__Mt_CmnTex_Cloth_VillageSheikerBanner_A-mesh-positions"/>
        </vertices>
        <triangles material="Mt_CmnTex_Cloth_VillageSheikerBanner_A-material" count="44">
          <input semantic="VERTEX" source="#polySurface3082__Mt_CmnTex_Cloth_VillageSheikerBanner_A-mesh-vertices" offset="0"/>
          <input semantic="NORMAL" source="#polySurface3082__Mt_CmnTex_Cloth_VillageSheikerBanner_A-mesh-normals" offset="1"/>
          <input semantic="TEXCOORD" source="#polySurface3082__Mt_CmnTex_Cloth_VillageSheikerBanner_A-mesh-map" offset="2" set="0"/>
          <p>0 0 0 1 1 1 2 2 2 1 1 3 0 0 4 3 3 5 2 2 6 1 1 7 4 4 8 1 1 9 3 3 10 5 5 11 5 5 12 3 3 13 6 6 14 5 5 15 6 6 16 7 7 17 4 4 18 1 1 19 8 8 20 1 1 21 5 5 22 9 9 23 1 1 24 9 9 25 8 8 26 4 4 27 8 8 28 10 10 29 10 10 30 8 8 31 9 9 32 4 4 33 10 10 34 11 11 35 11 11 36 10 10 37 12 12 38 12 12 39 10 10 40 13 13 41 13 13 42 10 10 43 14 14 44 14 14 45 10 10 46 9 9 47 13 13 48 14 14 49 15 15 50 15 15 51 14 14 52 16 16 53 14 14 54 9 9 55 17 17 56 14 14 57 17 17 58 16 16 59 17 17 60 9 9 61 5 5 62 17 17 63 5 5 64 7 7 65 16 16 66 17 17 67 18 18 68 16 16 69 18 18 70 19 19 71 19 19 72 18 18 73 20 20 74 17 17 75 7 7 76 21 21 77 21 21 78 7 7 79 22 22 80 21 21 81 22 22 82 23 23 83 18 18 84 17 17 85 24 24 86 24 24 87 17 17 88 21 21 89 20 20 90 18 18 91 25 25 92 25 25 93 18 18 94 24 24 95 20 20 96 25 25 97 26 26 98 26 26 99 25 25 100 27 27 101 27 27 102 25 25 103 28 28 104 28 28 105 25 25 106 24 24 107 27 27 108 28 28 109 29 29 110 28 28 111 24 24 112 30 30 113 28 28 114 30 30 115 29 29 116 30 30 117 24 24 118 21 21 119 30 30 120 21 21 121 23 23 122 29 29 123 30 30 124 31 31 125 30 30 126 23 23 127 32 32 128 30 30 129 32 32 130 31 31 131</p>
        </triangles>
      </mesh>
    </geometry>
  </library_geometries>
  <library_controllers>
    <controller id="Armature_polySurface3082__Mt_CmnTex_Etc_SheikerPot_A-skin" name="Armature">
      <skin source="#polySurface3082__Mt_CmnTex_Etc_SheikerPot_A-mesh">
        <bind_shape_matrix>1 0 0 0 0 1 0 0 0 0 1 0 0 0 0 1</bind_shape_matrix>
        <source id="Armature_polySurface3082__Mt_CmnTex_Etc_SheikerPot_A-skin-joints">
          <Name_array id="Armature_polySurface3082__Mt_CmnTex_Etc_SheikerPot_A-skin-joints-array" count="1">Root</Name_array>
          <technique_common>
            <accessor source="#Armature_polySurface3082__Mt_CmnTex_Etc_SheikerPot_A-skin-joints-array" count="1" stride="1">
              <param name="JOINT" type="name"/>
            </accessor>
          </technique_common>
        </source>
        <source id="Armature_polySurface3082__Mt_CmnTex_Etc_SheikerPot_A-skin-bind_poses">
          <float_array id="Armature_polySurface3082__Mt_CmnTex_Etc_SheikerPot_A-skin-bind_poses-array" count="16">1 0 0 0 0 -1.62921e-7 1 0 0 -1 -1.62921e-7 0 0 0 0 1</float_array>
          <technique_common>
            <accessor source="#Armature_polySurface3082__Mt_CmnTex_Etc_SheikerPot_A-skin-bind_poses-array" count="1" stride="16">
              <param name="TRANSFORM" type="float4x4"/>
            </accessor>
          </technique_common>
        </source>
        <source id="Armature_polySurface3082__Mt_CmnTex_Etc_SheikerPot_A-skin-weights">
          <float_array id="Armature_polySurface3082__Mt_CmnTex_Etc_SheikerPot_A-skin-weights-array" count="379">1 1 1 1 1 1 1 1 1 1 1 1 1 1 1 1 1 1 1 1 1 1 1 1 1 1 1 1 1 1 1 1 1 1 1 1 1 1 1 1 1 1 1 1 1 1 1 1 1 1 1 1 1 1 1 1 1 1 1 1 1 1 1 1 1 1 1 1 1 1 1 1 1 1 1 1 1 1 1 1 1 1 1 1 1 1 1 1 1 1 1 1 1 1 1 1 1 1 1 1 1 1 1 1 1 1 1 1 1 1 1 1 1 1 1 1 1 1 1 1 1 1 1 1 1 1 1 1 1 1 1 1 1 1 1 1 1 1 1 1 1 1 1 1 1 1 1 1 1 1 1 1 1 1 1 1 1 1 1 1 1 1 1 1 1 1 1 1 1 1 1 1 1 1 1 1 1 1 1 1 1 1 1 1 1 1 1 1 1 1 1 1 1 1 1 1 1 1 1 1 1 1 1 1 1 1 1 1 1 1 1 1 1 1 1 1 1 1 1 1 1 1 1 1 1 1 1 1 1 1 1 1 1 1 1 1 1 1 1 1 1 1 1 1 1 1 1 1 1 1 1 1 1 1 1 1 1 1 1 1 1 1 1 1 1 1 1 1 1 1 1 1 1 1 1 1 1 1 1 1 1 1 1 1 1 1 1 1 1 1 1 1 1 1 1 1 1 1 1 1 1 1 1 1 1 1 1 1 1 1 1 1 1 1 1 1 1 1 1 1 1 1 1 1 1 1 1 1 1 1 1 1 1 1 1 1 1 1 1 1 1 1 1 1 1 1 1 1 1 1 1 1 1 1 1 1 1 1 1 1 1 1 1 1 1 1 1 1 1 1 1 1 1 1 1 1 1 1 1</float_array>
          <technique_common>
            <accessor source="#Armature_polySurface3082__Mt_CmnTex_Etc_SheikerPot_A-skin-weights-array" count="379" stride="1">
              <param name="WEIGHT" type="float"/>
            </accessor>
          </technique_common>
        </source>
        <joints>
          <input semantic="JOINT" source="#Armature_polySurface3082__Mt_CmnTex_Etc_SheikerPot_A-skin-joints"/>
          <input semantic="INV_BIND_MATRIX" source="#Armature_polySurface3082__Mt_CmnTex_Etc_SheikerPot_A-skin-bind_poses"/>
        </joints>
        <vertex_weights count="379">
          <input semantic="JOINT" source="#Armature_polySurface3082__Mt_CmnTex_Etc_SheikerPot_A-skin-joints" offset="0"/>
          <input semantic="WEIGHT" source="#Armature_polySurface3082__Mt_CmnTex_Etc_SheikerPot_A-skin-weights" offset="1"/>
          <vcount>1 1 1 1 1 1 1 1 1 1 1 1 1 1 1 1 1 1 1 1 1 1 1 1 1 1 1 1 1 1 1 1 1 1 1 1 1 1 1 1 1 1 1 1 1 1 1 1 1 1 1 1 1 1 1 1 1 1 1 1 1 1 1 1 1 1 1 1 1 1 1 1 1 1 1 1 1 1 1 1 1 1 1 1 1 1 1 1 1 1 1 1 1 1 1 1 1 1 1 1 1 1 1 1 1 1 1 1 1 1 1 1 1 1 1 1 1 1 1 1 1 1 1 1 1 1 1 1 1 1 1 1 1 1 1 1 1 1 1 1 1 1 1 1 1 1 1 1 1 1 1 1 1 1 1 1 1 1 1 1 1 1 1 1 1 1 1 1 1 1 1 1 1 1 1 1 1 1 1 1 1 1 1 1 1 1 1 1 1 1 1 1 1 1 1 1 1 1 1 1 1 1 1 1 1 1 1 1 1 1 1 1 1 1 1 1 1 1 1 1 1 1 1 1 1 1 1 1 1 1 1 1 1 1 1 1 1 1 1 1 1 1 1 1 1 1 1 1 1 1 1 1 1 1 1 1 1 1 1 1 1 1 1 1 1 1 1 1 1 1 1 1 1 1 1 1 1 1 1 1 1 1 1 1 1 1 1 1 1 1 1 1 1 1 1 1 1 1 1 1 1 1 1 1 1 1 1 1 1 1 1 1 1 1 1 1 1 1 1 1 1 1 1 1 1 1 1 1 1 1 1 1 1 1 1 1 1 1 1 1 1 1 1 1 1 1 1 1 1 1 1 1 1 1 1 1 1 1 1 1 1 1 1 1 1 1 1 1 1 1 1 1 1 1 1 1 1 1 1 </vcount>
          <v>0 0 0 1 0 2 0 3 0 4 0 5 0 6 0 7 0 8 0 9 0 10 0 11 0 12 0 13 0 14 0 15 0 16 0 17 0 18 0 19 0 20 0 21 0 22 0 23 0 24 0 25 0 26 0 27 0 28 0 29 0 30 0 31 0 32 0 33 0 34 0 35 0 36 0 37 0 38 0 39 0 40 0 41 0 42 0 43 0 44 0 45 0 46 0 47 0 48 0 49 0 50 0 51 0 52 0 53 0 54 0 55 0 56 0 57 0 58 0 59 0 60 0 61 0 62 0 63 0 64 0 65 0 66 0 67 0 68 0 69 0 70 0 71 0 72 0 73 0 74 0 75 0 76 0 77 0 78 0 79 0 80 0 81 0 82 0 83 0 84 0 85 0 86 0 87 0 88 0 89 0 90 0 91 0 92 0 93 0 94 0 95 0 96 0 97 0 98 0 99 0 100 0 101 0 102 0 103 0 104 0 105 0 106 0 107 0 108 0 109 0 110 0 111 0 112 0 113 0 114 0 115 0 116 0 117 0 118 0 119 0 120 0 121 0 122 0 123 0 124 0 125 0 126 0 127 0 128 0 129 0 130 0 131 0 132 0 133 0 134 0 135 0 136 0 137 0 138 0 139 0 140 0 141 0 142 0 143 0 144 0 145 0 146 0 147 0 148 0 149 0 150 0 151 0 152 0 153 0 154 0 155 0 156 0 157 0 158 0 159 0 160 0 161 0 162 0 163 0 164 0 165 0 166 0 167 0 168 0 169 0 170 0 171 0 172 0 173 0 174 0 175 0 176 0 177 0 178 0 179 0 180 0 181 0 182 0 183 0 184 0 185 0 186 0 187 0 188 0 189 0 190 0 191 0 192 0 193 0 194 0 195 0 196 0 197 0 198 0 199 0 200 0 201 0 202 0 203 0 204 0 205 0 206 0 207 0 208 0 209 0 210 0 211 0 212 0 213 0 214 0 215 0 216 0 217 0 218 0 219 0 220 0 221 0 222 0 223 0 224 0 225 0 226 0 227 0 228 0 229 0 230 0 231 0 232 0 233 0 234 0 235 0 236 0 237 0 238 0 239 0 240 0 241 0 242 0 243 0 244 0 245 0 246 0 247 0 248 0 249 0 250 0 251 0 252 0 253 0 254 0 255 0 256 0 257 0 258 0 259 0 260 0 261 0 262 0 263 0 264 0 265 0 266 0 267 0 268 0 269 0 270 0 271 0 272 0 273 0 274 0 275 0 276 0 277 0 278 0 279 0 280 0 281 0 282 0 283 0 284 0 285 0 286 0 287 0 288 0 289 0 290 0 291 0 292 0 293 0 294 0 295 0 296 0 297 0 298 0 299 0 300 0 301 0 302 0 303 0 304 0 305 0 306 0 307 0 308 0 309 0 310 0 311 0 312 0 313 0 314 0 315 0 316 0 317 0 318 0 319 0 320 0 321 0 322 0 323 0 324 0 325 0 326 0 327 0 328 0 329 0 330 0 331 0 332 0 333 0 334 0 335 0 336 0 337 0 338 0 339 0 340 0 341 0 342 0 343 0 344 0 345 0 346 0 347 0 348 0 349 0 350 0 351 0 352 0 353 0 354 0 355 0 356 0 357 0 358 0 359 0 360 0 361 0 362 0 363 0 364 0 365 0 366 0 367 0 368 0 369 0 370 0 371 0 372 0 373 0 374 0 375 0 376 0 377 0 378</v>
        </vertex_weights>
      </skin>
    </controller>
    <controller id="Armature_polySurface3082__Mt_CmnTex_Cloth_VillageSheikerBanner_A-skin" name="Armature">
      <skin source="#polySurface3082__Mt_CmnTex_Cloth_VillageSheikerBanner_A-mesh">
        <bind_shape_matrix>1 0 0 0 0 1 0 0 0 0 1 0 0 0 0 1</bind_shape_matrix>
        <source id="Armature_polySurface3082__Mt_CmnTex_Cloth_VillageSheikerBanner_A-skin-joints">
          <Name_array id="Armature_polySurface3082__Mt_CmnTex_Cloth_VillageSheikerBanner_A-skin-joints-array" count="1">Root</Name_array>
          <technique_common>
            <accessor source="#Armature_polySurface3082__Mt_CmnTex_Cloth_VillageSheikerBanner_A-skin-joints-array" count="1" stride="1">
              <param name="JOINT" type="name"/>
            </accessor>
          </technique_common>
        </source>
        <source id="Armature_polySurface3082__Mt_CmnTex_Cloth_VillageSheikerBanner_A-skin-bind_poses">
          <float_array id="Armature_polySurface3082__Mt_CmnTex_Cloth_VillageSheikerBanner_A-skin-bind_poses-array" count="16">1 0 0 0 0 -1.62921e-7 1 0 0 -1 -1.62921e-7 0 0 0 0 1</float_array>
          <technique_common>
            <accessor source="#Armature_polySurface3082__Mt_CmnTex_Cloth_VillageSheikerBanner_A-skin-bind_poses-array" count="1" stride="16">
              <param name="TRANSFORM" type="float4x4"/>
            </accessor>
          </technique_common>
        </source>
        <source id="Armature_polySurface3082__Mt_CmnTex_Cloth_VillageSheikerBanner_A-skin-weights">
          <float_array id="Armature_polySurface3082__Mt_CmnTex_Cloth_VillageSheikerBanner_A-skin-weights-array" count="51">1 1 1 1 1 1 1 1 1 1 1 1 1 1 1 1 1 1 1 1 1 1 1 1 1 1 1 1 1 1 1 1 1 1 1 1 1 1 1 1 1 1 1 1 1 1 1 1 1 1 1</float_array>
          <technique_common>
            <accessor source="#Armature_polySurface3082__Mt_CmnTex_Cloth_VillageSheikerBanner_A-skin-weights-array" count="51" stride="1">
              <param name="WEIGHT" type="float"/>
            </accessor>
          </technique_common>
        </source>
        <joints>
          <input semantic="JOINT" source="#Armature_polySurface3082__Mt_CmnTex_Cloth_VillageSheikerBanner_A-skin-joints"/>
          <input semantic="INV_BIND_MATRIX" source="#Armature_polySurface3082__Mt_CmnTex_Cloth_VillageSheikerBanner_A-skin-bind_poses"/>
        </joints>
        <vertex_weights count="51">
          <input semantic="JOINT" source="#Armature_polySurface3082__Mt_CmnTex_Cloth_VillageSheikerBanner_A-skin-joints" offset="0"/>
          <input semantic="WEIGHT" source="#Armature_polySurface3082__Mt_CmnTex_Cloth_VillageSheikerBanner_A-skin-weights" offset="1"/>
          <vcount>1 1 1 1 1 1 1 1 1 1 1 1 1 1 1 1 1 1 1 1 1 1 1 1 1 1 1 1 1 1 1 1 1 1 1 1 1 1 1 1 1 1 1 1 1 1 1 1 1 1 1 </vcount>
          <v>0 0 0 1 0 2 0 3 0 4 0 5 0 6 0 7 0 8 0 9 0 10 0 11 0 12 0 13 0 14 0 15 0 16 0 17 0 18 0 19 0 20 0 21 0 22 0 23 0 24 0 25 0 26 0 27 0 28 0 29 0 30 0 31 0 32 0 33 0 34 0 35 0 36 0 37 0 38 0 39 0 40 0 41 0 42 0 43 0 44 0 45 0 46 0 47 0 48 0 49 0 50</v>
        </vertex_weights>
      </skin>
    </controller>
  </library_controllers>
  <library_visual_scenes>
    <visual_scene id="Scene" name="Scene">
      <node id="Armature" name="Armature" type="NODE">
        <matrix sid="transform">1 0 0 0 0 -1.62921e-7 -1 0 0 1 -1.62921e-7 0 0 0 0 1</matrix>
        <node id="Armature_Root" name="Root" sid="Root" type="JOINT">
          <matrix sid="transform">1 0 0 0 0 1 0 0 0 0 1 0 0 0 0 1</matrix>
          <extra>
            <technique profile="blender">
              <layer sid="layer" type="string">0</layer>
              <tip_x sid="tip_x" type="float">0</tip_x>
              <tip_y sid="tip_y" type="float">1</tip_y>
              <tip_z sid="tip_z" type="float">0</tip_z>
            </technique>
          </extra>
        </node>
        <node id="polySurface3082__Mt_CmnTex_Cloth_VillageSheikerBanner_A" name="polySurface3082__Mt_CmnTex_Cloth_VillageSheikerBanner_A" type="NODE">
          <matrix sid="transform">1 0 0 0 0 1 0 0 0 0 1 0 0 0 0 1</matrix>
          <instance_controller url="#Armature_polySurface3082__Mt_CmnTex_Cloth_VillageSheikerBanner_A-skin">
            <skeleton>#Armature_Root</skeleton>
            <bind_material>
              <technique_common>
                <instance_material symbol="Mt_CmnTex_Cloth_VillageSheikerBanner_A-material" target="#Mt_CmnTex_Cloth_VillageSheikerBanner_A-material">
                  <bind_vertex_input semantic="polySurface3082__Mt_CmnTex_Cloth_VillageSheikerBanner_A-texcoor" input_semantic="TEXCOORD" input_set="0"/>
                </instance_material>
              </technique_common>
            </bind_material>
          </instance_controller>
        </node>
        <node id="polySurface3082__Mt_CmnTex_Etc_SheikerPot_A" name="polySurface3082__Mt_CmnTex_Etc_SheikerPot_A" type="NODE">
          <matrix sid="transform">1 0 0 0 0 1 0 0 0 0 1 0 0 0 0 1</matrix>
          <instance_controller url="#Armature_polySurface3082__Mt_CmnTex_Etc_SheikerPot_A-skin">
            <skeleton>#Armature_Root</skeleton>
            <bind_material>
              <technique_common>
                <instance_material symbol="Mt_CmnTex_Etc_SheikerPot_A-material" target="#Mt_CmnTex_Etc_SheikerPot_A-material">
                  <bind_vertex_input semantic="polySurface3082__Mt_CmnTex_Etc_SheikerPot_A-texcoord" input_semantic="TEXCOORD" input_set="0"/>
                </instance_material>
              </technique_common>
            </bind_material>
          </instance_controller>
        </node>
      </node>
    </visual_scene>
  </library_visual_scenes>
  <scene>
    <instance_visual_scene url="#Scene"/>
  </scene>
</COLLADA>