<?xml version="1.0" encoding="utf-8"?>
<COLLADA xmlns="http://www.collada.org/2005/11/COLLADASchema" version="1.4.1" xmlns:xsi="http://www.w3.org/2001/XMLSchema-instance">
  <asset>
    <contributor>
      <author>Blender User</author>
      <authoring_tool>Blender 3.1.2 commit date:2022-03-31, commit time:17:40, hash:cc66d1020c3b</authoring_tool>
    </contributor>
    <created>2023-06-01T15:32:25</created>
    <modified>2023-06-01T15:32:25</modified>
    <unit name="meter" meter="1"/>
    <up_axis>Z_UP</up_axis>
  </asset>
  <library_effects>
    <effect id="Mt_CmnTex_Etc_SheikerPot_A-effect">
      <profile_COMMON>
        <newparam sid="CmnTex_Etc_SheikerPot_A_Alb_png-surface">
          <surface type="2D">
            <init_from>CmnTex_Etc_SheikerPot_A_Alb_png</init_from>
          </surface>
        </newparam>
        <newparam sid="CmnTex_Etc_SheikerPot_A_Alb_png-sampler">
          <sampler2D>
            <source>CmnTex_Etc_SheikerPot_A_Alb_png-surface</source>
          </sampler2D>
        </newparam>
        <technique sid="common">
          <lambert>
            <emission>
              <color sid="emission">0 0 0 1</color>
            </emission>
            <diffuse>
              <texture texture="CmnTex_Etc_SheikerPot_A_Alb_png-sampler" texcoord="pot24__Mt_CmnTex_Etc_SheikerPot_A-texcoord"/>
            </diffuse>
            <index_of_refraction>
              <float sid="ior">1.45</float>
            </index_of_refraction>
          </lambert>
        </technique>
      </profile_COMMON>
    </effect>
  </library_effects>
  <library_images>
    <image id="CmnTex_Etc_SheikerPot_A_Alb_png" name="CmnTex_Etc_SheikerPot_A_Alb_png">
      <init_from>CmnTex_Etc_SheikerPot_A_Alb.png</init_from>
    </image>
  </library_images>
  <library_materials>
    <material id="Mt_CmnTex_Etc_SheikerPot_A-material" name="Mt_CmnTex_Etc_SheikerPot_A">
      <instance_effect url="#Mt_CmnTex_Etc_SheikerPot_A-effect"/>
    </material>
  </library_materials>
  <library_geometries>
    <geometry id="pot24__Mt_CmnTex_Etc_SheikerPot_A-mesh" name="pot24__Mt_CmnTex_Etc_SheikerPot_A">
      <mesh>
        <source id="pot24__Mt_CmnTex_Etc_SheikerPot_A-mesh-positions">
          <float_array id="pot24__Mt_CmnTex_Etc_SheikerPot_A-mesh-positions-array" count="1116">-0.1955566 0.9912109 -0.1130371 -0.2258301 0.9912109 0 -0.1636963 0.9868164 -0.09466552 -0.1890869 0.9868164 0 -0.112915 0.9912109 -0.1956787 -0.1955566 0.9912109 -0.1130371 -0.09454345 0.9868164 -0.1638184 -0.1636963 0.9868164 -0.09466552 -8.66055e-5 0.9912109 -0.2258301 -0.112915 0.9912109 -0.1956787 -8.66055e-5 0.9868164 -0.1890869 -0.09454345 0.9868164 -0.1638184 0.112793 0.9912109 -0.1956787 -8.66055e-5 0.9912109 -0.2258301 0.09436035 0.9868164 -0.1638184 -8.66055e-5 0.9868164 -0.1890869 0.1953125 0.9912109 -0.1130371 0.112793 0.9912109 -0.1956787 0.1635742 0.9868164 -0.09466552 0.09436035 0.9868164 -0.1638184 0.2255859 0.9912109 0 0.1953125 0.9912109 -0.1130371 0.1888428 0.9868164 0 0.1635742 0.9868164 -0.09466552 -0.118042 0 -0.2054443 -0.2159424 -4.20809e-4 -0.1257324 -0.1721191 0.6171875 -0.2980957 -0.2980957 0.6171875 -0.1722412 -0.1607666 0.6860352 -0.2785645 -0.2785645 0.6860352 -0.1608887 -0.1383057 0.7255859 -0.239502 -0.239502 0.7255859 -0.1383057 -0.1239624 0.8286133 -0.2147217 -0.2145996 0.8286133 -0.1240234 -0.2088623 0.9228516 -0.1206665 -0.1206055 0.9228516 -0.2088623 -0.1312256 0.9545898 -0.2272949 -0.2272949 0.9545898 -0.1313477 -0.1271973 0.9794922 -0.2203369 -0.2203369 0.9794922 -0.1273193 -0.112915 0.9912109 -0.1956787 -0.1955566 0.9912109 -0.1130371 -0.2159424 -4.20809e-4 -0.1257324 -0.2493896 0 0 -0.2980957 0.6171875 -0.1722412 -0.3442383 0.6171875 0 -0.2785645 0.6860352 -0.1608887 -0.3215332 0.6860352 0 -0.239502 0.7255859 -0.1383057 -0.2763672 0.7255859 0 -0.2145996 0.8286133 -0.1240234 -0.2478027 0.8286133 0 -0.2410889 0.9228516 0 -0.2088623 0.9228516 -0.1206665 -0.2272949 0.9545898 -0.1313477 -0.2624512 0.9545898 0 -0.2203369 0.9794922 -0.1273193 -0.2543945 0.9794922 0 -0.1955566 0.9912109 -0.1130371 -0.2258301 0.9912109 0 -8.66055e-5 0.9912109 -0.2258301 -0.1271973 0.9794922 -0.2203369 -0.112915 0.9912109 -0.1956787 -8.66055e-5 0.9794922 -0.2543945 -0.1312256 0.9545898 -0.2272949 -8.66055e-5 0.9545898 -0.2624512 -0.1206055 0.9228516 -0.2088623 -8.66055e-5 0.9228516 -0.2412109 -8.66055e-5 0.8286133 -0.2479248 -0.1239624 0.8286133 -0.2147217 -0.1383057 0.7255859 -0.239502 -8.66055e-5 0.7255859 -0.2766113 -0.1607666 0.6860352 -0.2785645 -8.66055e-5 0.6860352 -0.3215332 -0.1721191 0.6171875 -0.2980957 -8.66055e-5 0.6171875 -0.3442383 -0.118042 0 -0.2054443 0 0 -0.2370605 0.112793 0.9912109 -0.1956787 -8.66055e-5 0.9794922 -0.2543945 -8.66055e-5 0.9912109 -0.2258301 0.1270751 0.9794922 -0.2203369 -8.66055e-5 0.9545898 -0.2624512 0.1311035 0.9545898 -0.2272949 -8.66055e-5 0.9228516 -0.2412109 0.1204224 0.9228516 -0.2088623 0.1237793 0.8286133 -0.2147217 -8.66055e-5 0.8286133 -0.2479248 -8.66055e-5 0.7255859 -0.2766113 0.1380615 0.7255859 -0.239502 -8.66055e-5 0.6860352 -0.3215332 0.1606445 0.6860352 -0.2785645 -8.66055e-5 0.6171875 -0.3442383 0.1719971 0.6171875 -0.2980957 0 0 -0.2370605 0.118042 0 -0.2054443 0.1953125 0.9912109 -0.1130371 0.1270751 0.9794922 -0.2203369 0.112793 0.9912109 -0.1956787 0.2200928 0.9794922 -0.1273193 0.1311035 0.9545898 -0.2272949 0.2270508 0.9545898 -0.1313477 0.1204224 0.9228516 -0.2088623 0.2086182 0.9228516 -0.1206665 0.2144775 0.8286133 -0.1240234 0.1237793 0.8286133 -0.2147217 0.1380615 0.7255859 -0.239502 0.2392578 0.7255859 -0.1383057 0.1606445 0.6860352 -0.2785645 0.2783203 0.6860352 -0.1608887 0.1719971 0.6171875 -0.2980957 0.2978516 0.6171875 -0.1722412 0.118042 0 -0.2054443 0.2044678 0 -0.1190796 0.2255859 0.9912109 0 0.2200928 0.9794922 -0.1273193 0.1953125 0.9912109 -0.1130371 0.2541504 0.9794922 0 0.2270508 0.9545898 -0.1313477 0.262207 0.9545898 0 0.2086182 0.9228516 -0.1206665 0.2409667 0.9228516 0 0.2476807 0.8286133 0 0.2144775 0.8286133 -0.1240234 0.2392578 0.7255859 -0.1383057 0.2763672 0.7255859 0 0.2783203 0.6860352 -0.1608887 0.3212891 0.6860352 0 0.2978516 0.6171875 -0.1722412 0.3439941 0.6171875 0 0.2487792 0 0 0.2044678 0 -0.1190796 0.1635742 0.9868164 0.09429931 0.2255859 0.9912109 0 0.1888428 0.9868164 0 0.1953125 0.9912109 0.1126708 0.09436035 0.9868164 0.1634521 0.112793 0.9912109 0.1953125 -8.66055e-5 0.9868164 0.1888428 -8.66055e-5 0.9912109 0.2255859 -0.09454345 0.9868164 0.1634521 -0.112915 0.9912109 0.1953125 -0.1636963 0.9868164 0.09429931 -0.1955566 0.9912109 0.1126708 -0.1890869 0.9868164 0 -0.2258301 0.9912109 0 0.1953125 0.9912109 0.1126708 0.2541504 0.9794922 0 0.2255859 0.9912109 0 0.2200928 0.9794922 0.1269531 0.262207 0.9545898 0 0.112793 0.9912109 0.1953125 0.2270508 0.9545898 0.1309814 0.1270751 0.9794922 0.2200928 -8.66055e-5 0.9912109 0.2255859 0.2409667 0.9228516 0 -8.66055e-5 0.9794922 0.2541504 -0.112915 0.9912109 0.1953125 0.1311035 0.9545898 0.2270508 0.2086182 0.9228516 0.1203613 -0.1271973 0.9794922 0.2200928 -0.1955566 0.9912109 0.1126708 -8.66055e-5 0.9545898 0.262207 -0.2203369 0.9794922 0.1269531 -0.2258301 0.9912109 0 -0.2543945 0.9794922 0 -0.1312256 0.9545898 0.2270508 -0.2272949 0.9545898 0.1309814 -0.2624512 0.9545898 0 -8.66055e-5 0.9228516 0.2408447 -0.2088623 0.9228516 0.1203613 -0.2410889 0.9228516 0 -0.1206055 0.9228516 0.2086182 -0.2478027 0.8286133 0 -0.2145996 0.8286133 0.1237183 -0.1239624 0.8286133 0.2143555 0.1204224 0.9228516 0.2086182 -8.66055e-5 0.8286133 0.2475586 0.1237793 0.8286133 0.2143555 0.2144775 0.8286133 0.1237183 0.2476807 0.8286133 0 0.2763672 0.7255859 0 0.2392578 0.7255859 0.1380615 0.3212891 0.6860352 0 0.1380615 0.7255859 0.2392578 0.2783203 0.6860352 0.1605225 0.3439941 0.6171875 0 -8.66055e-5 0.7255859 0.276123 0.1606445 0.6860352 0.2783203 0.2978516 0.6171875 0.171875 0.2487792 0 0 0.2154541 0 0.1236572 0.1719971 0.6171875 0.2978516 0.1243896 0 0.2147217 -8.66055e-5 0.6860352 0.3212891 -8.66055e-5 0.6171875 0.3439941 -8.66055e-5 0 0.2480469 -0.1246948 0 0.2148438 -0.1383057 0.7255859 0.2392578 -0.1607666 0.6860352 0.2783203 -0.239502 0.7255859 0.1380615 -0.2763672 0.7255859 0 -0.1721191 0.6171875 0.2978516 -0.2785645 0.6860352 0.1605225 -0.3215332 0.6860352 0 -0.2980957 0.6171875 0.171875 -0.2159424 0 0.1246948 -0.3442383 0.6171875 0 -0.2493896 0 0 0.09436035 0.9868164 -0.1638184 0 0.1773682 0 0.1635742 0.9868164 -0.09466552 -8.66055e-5 0.9868164 -0.1890869 0.1888428 0.9868164 0 -0.09454345 0.9868164 -0.1638184 0.1635742 0.9868164 0.09429931 -0.1636963 0.9868164 -0.09466552 0.09436035 0.9868164 0.1634521 -0.1890869 0.9868164 0 -8.66055e-5 0.9868164 0.1888428 -0.1636963 0.9868164 0.09429931 -0.09454345 0.9868164 0.1634521 0.118042 0 -0.2054443 0 0 -0.192627 0 0 -0.2370605 -0.118042 0 -0.2054443 0.09588623 0 -0.1668701 0.2044678 0 -0.1190796 -0.09588623 0 -0.1668701 0.1660156 0 -0.09674072 -0.175415 -3.15666e-4 -0.1021118 -0.2159424 -4.20809e-4 -0.1257324 -0.2493896 0 0 0 0.1215209 0 -0.2025146 0 0 -0.175415 0 0.1012573 -0.2159424 0 0.1246948 -0.1246948 0 0.2148438 -0.1012573 0 0.1745605 -8.66055e-5 0 0.2480469 -7.03335e-5 0 0.2015381 0.1010132 0 0.1744385 0.1243896 0 0.2147217 0.1750488 0 0.1004639 0.2154541 0 0.1236572 0.2021484 0 0 0.2487792 0 0 0 0.1773682 0 -0.1947021 0.9887695 0.003444671 -0.002084732 0.9887695 0.1965332 0 0.1773682 0 -0.002084732 0.9887695 0.1965332 0.1934814 0.9863281 0.001103401 0 0.1773682 0 0.1934814 0.9863281 0.001103401 0.0961914 0.9887695 -0.168335 0.1934814 0.9863281 0.001103401 0.2132568 0.987793 -0.1194458 0.0961914 0.9887695 -0.168335 -0.002084732 0.9887695 0.1965332 0.124939 0.9970703 0.2041016 0.1934814 0.9863281 0.001103401 -0.2304688 -0.0145111 -0.1456299 -0.2252197 -0.01055908 0.1333008 -0.3571777 0.6196289 -0.00377655 -0.2304688 -0.0145111 -0.1456299 0.1297607 -0.01907348 -0.2277832 -3.77893e-4 0.1196289 1.69873e-4 0.2403564 -0.0172882 0.1245117 -0.003662109 -0.009941101 0.262207 -3.77893e-4 0.1196289 1.69873e-4 -3.77893e-4 0.1196289 1.69873e-4 0.1297607 -0.01907348 -0.2277832 0.2403564 -0.0172882 0.1245117 0.1451416 0.7333984 -0.2636719 0.1737061 0.6191406 -0.3151855 -0.182251 0.6235352 -0.3210449 0.1737061 0.6191406 -0.3151855 -0.2304688 -0.0145111 -0.1456299 0.1297607 -0.01907348 -0.2277832 -0.003345489 0.7338867 0.2910156 -0.1407471 0.9760742 0.2303467 -0.2430419 0.7304688 0.1405029 -0.003345489 0.7338867 0.2910156 -0.3088379 0.6220703 0.1843262 -0.001111984 0.6220703 0.3649902 -0.003662109 -0.009941101 0.262207 -0.3088379 0.6220703 0.1843262 -0.2252197 -0.01055908 0.1333008 0.251709 0.9570313 0.002962112 0.2132568 0.987793 -0.1194458 0.1934814 0.9863281 0.001103401 0.1166992 0.9775391 -0.2020264 0.0961914 0.9887695 -0.168335 -0.00502777 0.9614259 -0.2719727 -0.09973144 0.9921875 -0.1711426 0.1427001 0.7319336 0.2404785 0.3239746 0.6235352 0.1873779 0.2875977 0.7319336 0.002653121 0.251709 0.9570313 0.002962112 0.1427001 0.7319336 0.2404785 0.2264404 0.9633789 0.130127 -0.3088379 0.6220703 0.1843262 -0.3571777 0.6196289 -0.00377655 -0.2252197 -0.01055908 0.1333008 -0.2568359 0.7338867 -0.15625 -0.3571777 0.6196289 -0.00377655 -0.2430419 0.7304688 0.1405029 -0.2568359 0.7338867 -0.15625 0.1451416 0.7333984 -0.2636719 -0.182251 0.6235352 -0.3210449 -0.00502777 0.9614259 -0.2719727 -0.3571777 0.6196289 -0.00377655 -0.2568359 0.7338867 -0.15625 -0.182251 0.6235352 -0.3210449 -0.2304688 -0.0145111 -0.1456299 -0.1407471 0.9760742 0.2303467 -0.2617188 0.9697266 5.35965e-4 -0.2430419 0.7304688 0.1405029 -0.2568359 0.7338867 -0.15625 0.251709 0.9570313 0.002962112 0.1451416 0.7333984 -0.2636719 0.2132568 0.987793 -0.1194458 0.2875977 0.7319336 0.002653121 0.3173828 0.6191406 -0.1767578 0.1451416 0.7333984 -0.2636719 0.1737061 0.6191406 -0.3151855 0.3173828 0.6191406 -0.1767578 0.1297607 -0.01907348 -0.2277832 0.2403564 -0.0172882 0.1245117 0.3239746 0.6235352 0.1873779 0.2875977 0.7319336 0.002653121 0 0.1773682 0 0.0961914 0.9887695 -0.168335 -0.09973144 0.9921875 -0.1711426 -0.1947021 0.9887695 0.003444671 -0.2617188 0.9697266 5.35965e-4 -0.1407471 0.9760742 0.2303467 -0.1947021 0.9887695 0.003444671 -0.002084732 0.9887695 0.1965332 0.1451416 0.7333984 -0.2636719 -0.00502777 0.9614259 -0.2719727 0.1166992 0.9775391 -0.2020264 0.2132568 0.987793 -0.1194458 0.2264404 0.9633789 0.130127 0.251709 0.9570313 0.002962112 0.1934814 0.9863281 0.001103401 0.124939 0.9970703 0.2041016 0.2403564 -0.0172882 0.1245117 0.3239746 0.6235352 0.1873779 -0.003662109 -0.009941101 0.262207 -0.001111984 0.6220703 0.3649902 0.3239746 0.6235352 0.1873779 -0.003345489 0.7338867 0.2910156 0.1427001 0.7319336 0.2404785 0.124939 0.9970703 0.2041016 0.2264404 0.9633789 0.130127 0.001308441 0.9272461 0.244751 -0.1407471 0.9760742 0.2303467 -0.002084732 0.9887695 0.1965332 0.124939 0.9970703 0.2041016 -0.2252197 -0.01055908 0.1333008 -0.2304688 -0.0145111 -0.1456299 -3.77893e-4 0.1196289 1.69873e-4 -0.003662109 -0.009941101 0.262207 -0.09973144 0.9921875 -0.1711426 -0.2617188 0.9697266 5.35965e-4 -0.1947021 0.9887695 0.003444671 -0.2166748 0.9262695 -0.1287842 -0.00502777 0.9614259 -0.2719727 -0.2568359 0.7338867 -0.15625 -0.2617188 0.9697266 5.35965e-4</float_array>
          <technique_common>
            <accessor source="#pot24__Mt_CmnTex_Etc_SheikerPot_A-mesh-positions-array" count="372" stride="3">
              <param name="X" type="float"/>
              <param name="Y" type="float"/>
              <param name="Z" type="float"/>
            </accessor>
          </technique_common>
        </source>
        <source id="pot24__Mt_CmnTex_Etc_SheikerPot_A-mesh-normals">
          <float_array id="pot24__Mt_CmnTex_Etc_SheikerPot_A-mesh-normals-array" count="717">0.1185761 0.992437 0.03175687 0.1186655 0.9924244 0.03181624 0.1185969 0.9924342 0.0317707 0.1186945 0.9924204 0.03183549 0.08682298 0.9924332 0.08682298 0.08682292 0.9924332 0.08682286 0.08682298 0.9924331 0.08682298 0.08682292 0.9924332 0.08682286 0.03171914 0.9924242 0.1186935 0.03172397 0.9924328 0.1186202 0.03172028 0.9924262 0.1186764 0.03172552 0.9924357 0.1185964 -0.03167027 0.9924408 0.1185675 -0.03173482 0.9924275 0.1186619 -0.03168529 0.9924377 0.1185895 -0.03175586 0.9924231 0.1186926 -0.08707851 0.9923996 0.08694988 -0.08677071 0.99244 0.08679693 -0.08700674 0.9924091 0.08691424 -0.08667081 0.992453 0.08674728 -0.1186951 0.9924218 0.03178894 -0.1189386 0.9923931 0.03177368 -0.1187516 0.9924151 0.03178542 -0.1190177 0.9923838 0.03176873 -0.6218444 -0.1692702 -0.7646288 -0.6356971 -0.1653282 -0.7540265 -0.6999239 0.07602131 -0.7101601 -0.7046381 0.07734799 -0.7053386 -0.6041774 0.5188509 -0.6047839 -0.6041315 0.5191327 -0.6045879 -0.5945717 0.5410239 -0.5947921 -0.5945574 0.5414312 -0.5944358 -0.6971468 0.1674696 -0.6970943 -0.6973714 0.167338 -0.6969012 -0.6820526 -0.2629598 -0.6823903 -0.6821036 -0.2623463 -0.6825754 -0.7011684 -0.125226 -0.7019127 -0.7010427 -0.1257355 -0.7019472 -0.5467783 0.6334795 -0.5474827 -0.5469745 0.633256 -0.5475451 -0.2766161 0.9202132 -0.2769317 -0.2761724 0.9205746 -0.2761724 -0.9561145 -0.1462973 -0.2538549 -0.9560024 -0.1463911 -0.2542226 -0.963164 0.07628089 -0.2578692 -0.9631397 0.07702469 -0.2577388 -0.8258019 0.5189085 -0.2208741 -0.8252859 0.5199756 -0.2202924 -0.8122381 0.5416003 -0.216653 -0.8122981 0.5414485 -0.2168073 -0.9525058 0.1672363 -0.2544893 -0.9524066 0.1670616 -0.2549749 -0.931882 -0.2635394 -0.2492846 -0.9320724 -0.263202 -0.2489298 -0.9583955 -0.1256174 -0.256317 -0.9583168 -0.1259908 -0.2564281 -0.7474684 0.6334671 -0.2000263 -0.7473058 0.6336829 -0.1999504 -0.3772615 0.9205903 -0.1009324 -0.3776111 0.9204251 -0.1011313 -0.1011761 0.9203665 -0.377742 -0.2003005 0.6327956 -0.7479636 -0.1011807 0.9200034 -0.3786244 -0.2003108 0.6335334 -0.747336 -0.25683 -0.1255587 -0.9582658 -0.2570213 -0.1248237 -0.9583106 -0.2499397 -0.2623544 -0.932041 -0.2501676 -0.2621684 -0.9320322 -0.2554518 0.1675708 -0.9521893 -0.2552371 0.1675481 -0.9522508 -0.2179704 0.5410131 -0.8122769 -0.2178517 0.5406144 -0.8125741 -0.2211044 0.5186252 -0.8259182 -0.2211555 0.5187632 -0.8258179 -0.2582153 0.06751495 -0.9637254 -0.2584401 0.06808441 -0.9636251 -0.2552126 -0.1654518 -0.9526239 -0.2551531 -0.1654662 -0.9526374 0.1013118 0.9200802 -0.3784024 0.2000625 0.6335526 -0.7473862 0.100867 0.9204502 -0.3776208 0.2003998 0.6327704 -0.7479583 0.2567591 -0.1248013 -0.9583838 0.2569508 -0.1254259 -0.9582509 0.2499251 -0.262205 -0.9320869 0.2501509 -0.2626721 -0.9318948 0.2555042 0.1675209 -0.952184 0.255254 0.1676 -0.9522372 0.2181688 0.5402895 -0.8127052 0.2178553 0.5408602 -0.8124097 0.2210035 0.5191503 -0.8256153 0.2210636 0.518946 -0.8257275 0.2581349 0.06791794 -0.9637186 0.2583869 0.06730556 -0.9636941 0.2552053 -0.1653299 -0.952647 0.2551591 -0.1653186 -0.9526613 0.2763007 0.9205137 -0.2762473 0.5472664 0.6333886 -0.5471 0.2771567 0.920106 -0.2767474 0.5471514 0.6334421 -0.5471531 0.7014914 -0.1257815 -0.7014905 0.7014904 -0.125781 -0.7014915 0.6822694 -0.262712 -0.682269 0.6822692 -0.2627128 -0.6822689 0.6971323 0.1673724 -0.6971321 0.6971327 0.1673725 -0.6971316 0.5946344 0.5411284 -0.5946345 0.5946343 0.541129 -0.5946339 0.6042926 0.5192875 -0.6042938 0.6042934 0.5192881 -0.6042926 0.7054975 0.06742572 -0.7054979 0.7054752 0.06756693 -0.7055066 0.6971426 -0.1655771 -0.6975503 0.6971015 -0.1655627 -0.6975948 0.3775543 0.9204616 -0.1010107 0.7475258 0.6334045 -0.2000099 0.377153 0.9206264 -0.1010086 0.7473471 0.6336206 -0.199993 0.9583821 -0.1254573 -0.2564452 0.9583986 -0.1248671 -0.2566719 0.9320513 -0.2626386 -0.2496024 0.9321084 -0.2621702 -0.2498818 0.9522604 0.1675379 -0.2552084 0.9523428 0.1674493 -0.2549585 0.8121846 0.5412314 -0.2177724 0.8125963 0.5406545 -0.2176694 0.8260328 0.5185347 -0.220889 0.825859 0.5188115 -0.2208883 0.9616368 0.07507067 -0.2638546 0.9630749 0.07695162 -0.2580026 0.9297686 -0.1656737 -0.3287592 0.9236754 -0.169363 -0.3437149 -0.1029988 0.9928992 -0.05951923 -0.1187487 0.9924137 -0.03184127 -0.1186951 0.9924212 -0.03180569 -0.1029714 0.992902 -0.05951905 -0.05936086 0.9929437 -0.1026603 -0.05936038 0.9929456 -0.1026423 3.49945e-5 0.9929259 -0.1187365 2.30387e-5 0.9929256 -0.1187384 0.05936789 0.992935 -0.102741 0.05933034 0.9929369 -0.1027444 0.1026991 0.9929368 -0.05941069 0.1027445 0.9929342 -0.05937361 0.1186587 0.9924228 -0.03189408 0.1186944 0.9924187 -0.03189188 0.3283925 0.9253249 0.1895579 0.7472792 0.6335297 0.2005342 0.3775975 0.920395 0.1014563 0.6606796 0.6466434 0.3812542 0.9582836 -0.1247746 0.257146 0.1897875 0.9253445 0.3282046 0.8587369 -0.129685 0.4957346 0.3815965 0.6465198 0.6606031 -9.41802e-5 0.9251829 0.3795218 0.9320102 -0.2621725 0.2502452 -2.42539e-5 0.6466753 0.7627654 -0.1896389 0.9253268 0.3283405 0.4960358 -0.1299445 0.8585237 0.833451 -0.2710399 0.4815569 -0.3813985 0.646591 0.6606477 -0.3282353 0.925341 0.1897519 -1.00055e-4 -0.1302559 0.9914804 -0.6606025 0.6465783 0.3814983 -0.3775256 0.9204418 0.1012992 -0.7473257 0.6334689 0.2005528 -0.4957284 -0.1297844 0.8587255 -0.8586273 -0.1296944 0.4959219 -0.9582036 -0.1257716 0.2569578 -2.18227e-4 -0.272126 0.9622617 -0.8334327 -0.2714837 0.4813383 -0.9318245 -0.2635435 0.2494953 -0.4810019 -0.2714903 0.8336247 -0.9523581 0.1672542 0.2550296 -0.8528035 0.1732336 0.4926624 -0.4922912 0.1731436 0.8530362 0.4811851 -0.27184 0.8334051 -2.51047e-4 0.1728517 0.9849479 0.4925616 0.1731383 0.8528811 0.8527051 0.1732918 0.4928123 0.9521625 0.1675901 0.2555391 0.8126463 0.5403134 0.2183285 0.7207565 0.5541113 0.4164983 0.8255984 0.5190737 0.2212463 0.4157699 0.5546677 0.7207491 0.7333596 0.5321314 0.4231077 0.9630198 0.07674539 0.2582696 -1.25713e-5 0.5545154 0.8321735 0.4231711 0.532245 0.7332404 0.8632514 0.07878589 0.4985879 0.9550246 -0.1475601 0.2572044 0.8555711 -0.1529212 0.494584 0.4986272 0.07861435 0.8632443 0.4940971 -0.153424 0.8557624 1.95189e-4 0.532984 0.8461254 1.28791e-4 0.07906877 0.9968693 5.97854e-4 -0.1536136 0.9881309 -0.4915832 -0.152545 0.8573658 -0.4157626 0.5546974 0.7207305 -0.4231855 0.5320662 0.7333618 -0.7207728 0.5544864 0.4159706 -0.8124425 0.5411026 0.21713 -0.4985656 0.07864332 0.8632773 -0.7334412 0.5320311 0.4230923 -0.8251999 0.5197268 0.2211998 -0.8631377 0.07914131 0.4987284 -0.8543494 -0.1517448 0.497052 -0.9629205 0.07722675 0.2584961 -0.9553902 -0.1468233 0.2562668 -0.4865325 0.2274348 0.8435399 -1.05752e-4 1 -1.99493e-4 -0.8434463 0.2273675 0.4867262 3.5849e-6 0.2274756 0.9737838 -0.9738488 0.2271971 -4.54373e-4 0.4867141 0.2275392 0.843407 -0.8432904 0.2271586 -0.4870939 0.8432487 0.2274882 0.487012 -0.4870945 0.2270728 -0.8433131 0.9737837 0.2274756 -4.5615e-4 3.57629e-6 0.2271972 -0.9738488 0.8430916 0.2272792 -0.4873815 0.4872761 0.2271774 -0.8431801 0 -1 0 0 -0.9722639 0.2338865 0.001484811 -0.9999987 -7.57861e-4 -0.1171136 -0.9721857 0.2028285 0.1130852 -0.9700083 0.2151643 -0.2047453 -0.970089 0.1304098 0.1834669 -0.976067 0.1167621 0.001880943 -0.9999976 0.001223981 7.80669e-5 -0.9999988 0.001603424 -0.003712356 -0.9999325 0.01101225 0.2250195 -0.9743534 0.001322627 0.1939093 -0.9745385 -0.1125787 0.1123203 -0.9741817 -0.1958427 -1.28439e-4 -0.9741919 -0.2257216 -0.112826 -0.9742106 -0.1954078 -0.1951929 -0.9742501 -0.1128562 -0.2170101 -0.9761294 0.008834421</float_array>
          <technique_common>
            <accessor source="#pot24__Mt_CmnTex_Etc_SheikerPot_A-mesh-normals-array" count="239" stride="3">
              <param name="X" type="float"/>
              <param name="Y" type="float"/>
              <param name="Z" type="float"/>
            </accessor>
          </technique_common>
        </source>
        <source id="pot24__Mt_CmnTex_Etc_SheikerPot_A-mesh-map">
          <float_array id="pot24__Mt_CmnTex_Etc_SheikerPot_A-mesh-map-array" count="1584">0.1525879 0.9982262 0.2264404 0.9982262 0.1525879 0.9616089 0.1525879 0.9616089 0.2264404 0.9982262 0.2264404 0.9616089 0.07702636 0.9982262 0.1525879 0.9982262 0.07702636 0.9616089 0.07702636 0.9616089 0.1525879 0.9982262 0.1525879 0.9616089 -3.95298e-4 0.9982262 0.07702636 0.9982262 -3.95298e-4 0.9616089 -3.95298e-4 0.9616089 0.07702636 0.9982262 0.07702636 0.9616089 -0.07739257 0.9982262 -3.95298e-4 0.9982262 -0.07739257 0.9616089 -0.07739257 0.9616089 -3.95298e-4 0.9982262 -3.95298e-4 0.9616089 -0.1484375 0.9982262 -0.07739257 0.9982262 -0.1484375 0.9616089 -0.1484375 0.9616089 -0.07739257 0.9982262 -0.07739257 0.9616089 -0.2246094 0.9982262 -0.1484375 0.9982262 -0.2246094 0.9616089 -0.2246094 0.9616089 -0.1484375 0.9982262 -0.1484375 0.9616089 0.06573486 0.002929687 0.130127 0.002929687 0.07702636 0.6044922 0.07702636 0.6044922 0.130127 0.002929687 0.1525879 0.6044922 0.07702636 0.6044922 0.1525879 0.6044922 0.07702636 0.6638184 0.07702636 0.6638184 0.1525879 0.6044922 0.1525879 0.6638184 0.07702636 0.6638184 0.1525879 0.6638184 0.07702636 0.7019043 0.07702636 0.7019043 0.1525879 0.6638184 0.1525879 0.7019043 0.07702636 0.7019043 0.1525879 0.7019043 0.07702636 0.8010254 0.07702636 0.8010254 0.1525879 0.7019043 0.1525879 0.8010254 0.07702636 0.8010254 0.1525879 0.8010254 0.1525879 0.8865356 0.07702636 0.8010254 0.1525879 0.8865356 0.07702636 0.8865356 0.07702636 0.8865356 0.1525879 0.8865356 0.07702636 0.9321289 0.07702636 0.9321289 0.1525879 0.8865356 0.1525879 0.9321289 0.07702636 0.9321289 0.1525879 0.9321289 0.07702636 0.9616089 0.07702636 0.9616089 0.1525879 0.9321289 0.1525879 0.9616089 0.07702636 0.9616089 0.1525879 0.9616089 0.07702636 0.9982262 0.07702636 0.9982262 0.1525879 0.9616089 0.1525879 0.9982262 0.130127 0.002929687 0.1929932 0.002929687 0.1525879 0.6044922 0.1525879 0.6044922 0.1929932 0.002929687 0.2264404 0.6044922 0.1525879 0.6044922 0.2264404 0.6044922 0.1525879 0.6638184 0.1525879 0.6638184 0.2264404 0.6044922 0.2264404 0.6638184 0.1525879 0.6638184 0.2264404 0.6638184 0.1525879 0.7019043 0.1525879 0.7019043 0.2264404 0.6638184 0.2264404 0.7019043 0.1525879 0.7019043 0.2264404 0.7019043 0.1525879 0.8010254 0.1525879 0.8010254 0.2264404 0.7019043 0.2264404 0.8010254 0.1525879 0.8010254 0.2264404 0.8010254 0.2264404 0.8865356 0.1525879 0.8010254 0.2264404 0.8865356 0.1525879 0.8865356 0.1525879 0.8865356 0.2264404 0.8865356 0.1525879 0.9321289 0.1525879 0.9321289 0.2264404 0.8865356 0.2264404 0.9321289 0.1525879 0.9321289 0.2264404 0.9321289 0.1525879 0.9616089 0.1525879 0.9616089 0.2264404 0.9321289 0.2264404 0.9616089 0.1525879 0.9616089 0.2264404 0.9616089 0.1525879 0.9982262 0.1525879 0.9982262 0.2264404 0.9616089 0.2264404 0.9982262 -3.95298e-4 0.9982262 0.07702636 0.9616089 0.07702636 0.9982262 0.07702636 0.9616089 -3.95298e-4 0.9982262 -3.95298e-4 0.9616089 0.07702636 0.9616089 -3.95298e-4 0.9616089 0.07702636 0.9321289 0.07702636 0.9321289 -3.95298e-4 0.9616089 -3.95298e-4 0.9321289 0.07702636 0.9321289 -3.95298e-4 0.9321289 0.07702636 0.8865356 0.07702636 0.8865356 -3.95298e-4 0.9321289 -3.95298e-4 0.8865356 0.07702636 0.8865356 -3.95298e-4 0.8865356 -3.95298e-4 0.8010254 0.07702636 0.8865356 -3.95298e-4 0.8010254 0.07702636 0.8010254 0.07702636 0.8010254 -3.95298e-4 0.8010254 0.07702636 0.7019043 0.07702636 0.7019043 -3.95298e-4 0.8010254 -3.95298e-4 0.7019043 0.07702636 0.7019043 -3.95298e-4 0.7019043 0.07702636 0.6638184 0.07702636 0.6638184 -3.95298e-4 0.7019043 -3.95298e-4 0.6638184 0.07702636 0.6638184 -3.95298e-4 0.6638184 0.07702636 0.6044922 0.07702636 0.6044922 -3.95298e-4 0.6638184 -3.95298e-4 0.6044922 0.07702636 0.6044922 -3.95298e-4 0.6044922 0.06573486 0.002929687 0.06573486 0.002929687 -3.95298e-4 0.6044922 -2.04086e-4 0.002929687 -0.07739257 0.9982262 -3.95298e-4 0.9616089 -3.95298e-4 0.9982262 -3.95298e-4 0.9616089 -0.07739257 0.9982262 -0.07739257 0.9616089 -3.95298e-4 0.9616089 -0.07739257 0.9616089 -3.95298e-4 0.9321289 -3.95298e-4 0.9321289 -0.07739257 0.9616089 -0.07739257 0.9321289 -3.95298e-4 0.9321289 -0.07739257 0.9321289 -3.95298e-4 0.8865356 -3.95298e-4 0.8865356 -0.07739257 0.9321289 -0.07739257 0.8865356 -3.95298e-4 0.8865356 -0.07739257 0.8865356 -0.07739257 0.8010254 -3.95298e-4 0.8865356 -0.07739257 0.8010254 -3.95298e-4 0.8010254 -3.95298e-4 0.8010254 -0.07739257 0.8010254 -3.95298e-4 0.7019043 -3.95298e-4 0.7019043 -0.07739257 0.8010254 -0.07739257 0.7019043 -3.95298e-4 0.7019043 -0.07739257 0.7019043 -3.95298e-4 0.6638184 -3.95298e-4 0.6638184 -0.07739257 0.7019043 -0.07739257 0.6638184 -3.95298e-4 0.6638184 -0.07739257 0.6638184 -3.95298e-4 0.6044922 -3.95298e-4 0.6044922 -0.07739257 0.6638184 -0.07739257 0.6044922 -3.95298e-4 0.6044922 -0.07739257 0.6044922 -2.04086e-4 0.002929687 -2.04086e-4 0.002929687 -0.07739257 0.6044922 -0.06573486 0.002929687 -0.1484375 0.9982262 -0.07739257 0.9616089 -0.07739257 0.9982262 -0.07739257 0.9616089 -0.1484375 0.9982262 -0.1484375 0.9616089 -0.07739257 0.9616089 -0.1484375 0.9616089 -0.07739257 0.9321289 -0.07739257 0.9321289 -0.1484375 0.9616089 -0.1484375 0.9321289 -0.07739257 0.9321289 -0.1484375 0.9321289 -0.07739257 0.8865356 -0.07739257 0.8865356 -0.1484375 0.9321289 -0.1484375 0.8865356 -0.07739257 0.8865356 -0.1484375 0.8865356 -0.1484375 0.8010254 -0.07739257 0.8865356 -0.1484375 0.8010254 -0.07739257 0.8010254 -0.07739257 0.8010254 -0.1484375 0.8010254 -0.07739257 0.7019043 -0.07739257 0.7019043 -0.1484375 0.8010254 -0.1484375 0.7019043 -0.07739257 0.7019043 -0.1484375 0.7019043 -0.07739257 0.6638184 -0.07739257 0.6638184 -0.1484375 0.7019043 -0.1484375 0.6638184 -0.07739257 0.6638184 -0.1484375 0.6638184 -0.07739257 0.6044922 -0.07739257 0.6044922 -0.1484375 0.6638184 -0.1484375 0.6044922 -0.07739257 0.6044922 -0.1484375 0.6044922 -0.06573486 0.002929687 -0.06573486 0.002929687 -0.1484375 0.6044922 -0.1263428 0.002929687 -0.2246094 0.9982262 -0.1484375 0.9616089 -0.1484375 0.9982262 -0.1484375 0.9616089 -0.2246094 0.9982262 -0.2246094 0.9616089 -0.1484375 0.9616089 -0.2246094 0.9616089 -0.1484375 0.9321289 -0.1484375 0.9321289 -0.2246094 0.9616089 -0.2246094 0.9321289 -0.1484375 0.9321289 -0.2246094 0.9321289 -0.1484375 0.8865356 -0.1484375 0.8865356 -0.2246094 0.9321289 -0.2246094 0.8865356 -0.1484375 0.8865356 -0.2246094 0.8865356 -0.2246094 0.8010254 -0.1484375 0.8865356 -0.2246094 0.8010254 -0.1484375 0.8010254 -0.1484375 0.8010254 -0.2246094 0.8010254 -0.1484375 0.7019043 -0.1484375 0.7019043 -0.2246094 0.8010254 -0.2246094 0.7019043 -0.1484375 0.7019043 -0.2246094 0.7019043 -0.1484375 0.6638184 -0.1484375 0.6638184 -0.2246094 0.7019043 -0.2246094 0.6638184 -0.1484375 0.6638184 -0.2246094 0.6638184 -0.1484375 0.6044922 -0.1484375 0.6044922 -0.2246094 0.6638184 -0.2246094 0.6044922 -0.1484375 0.6044922 -0.2246094 0.6044922 -0.1911621 0.002929687 -0.1484375 0.6044922 -0.1911621 0.002929687 -0.1263428 0.002929687 0.1525879 0.9616089 0.2264404 0.9977474 0.2264404 0.9616089 0.2264404 0.9977474 0.1525879 0.9616089 0.1525879 0.9977474 0.1525879 0.9977474 0.1525879 0.9616089 0.07702636 0.9616089 0.1525879 0.9977474 0.07702636 0.9616089 0.07702636 0.9977474 0.07702636 0.9977474 0.07702636 0.9616089 -3.95298e-4 0.9616089 0.07702636 0.9977474 -3.95298e-4 0.9616089 -3.95298e-4 0.9977474 -3.95298e-4 0.9977474 -3.95298e-4 0.9616089 -0.07739257 0.9616089 -3.95298e-4 0.9977474 -0.07739257 0.9616089 -0.07739257 0.9977474 -0.07739257 0.9977474 -0.07739257 0.9616089 -0.1484375 0.9616089 -0.07739257 0.9977474 -0.1484375 0.9616089 -0.1484375 0.9977474 -0.1484375 0.9977474 -0.1484375 0.9616089 -0.2246094 0.9616089 -0.1484375 0.9977474 -0.2246094 0.9616089 -0.2246094 0.9977474 0.1525879 0.9977474 0.2264404 0.9616089 0.2264404 0.9977474 0.2264404 0.9616089 0.1525879 0.9977474 0.1525879 0.9616089 0.2264404 0.9616089 0.1525879 0.9616089 0.2264404 0.9321289 0.1525879 0.9616089 0.1525879 0.9977474 0.07702636 0.9977474 0.2264404 0.9321289 0.1525879 0.9616089 0.1525879 0.9321289 0.1525879 0.9616089 0.07702636 0.9977474 0.07702636 0.9616089 0.1525879 0.9616089 0.07702636 0.9616089 0.1525879 0.9321289 0.07702636 0.9616089 0.07702636 0.9977474 -3.95298e-4 0.9977474 0.2264404 0.9321289 0.1525879 0.9321289 0.2264404 0.8865356 0.07702636 0.9616089 -3.95298e-4 0.9977474 -3.95298e-4 0.9616089 -3.95298e-4 0.9616089 -3.95298e-4 0.9977474 -0.07739257 0.9977474 0.1525879 0.9321289 0.07702636 0.9616089 0.07702636 0.9321289 0.07702636 0.9321289 0.07702636 0.9616089 -3.95298e-4 0.9616089 0.2264404 0.8865356 0.1525879 0.9321289 0.1525879 0.8865356 0.1525879 0.8865356 0.1525879 0.9321289 0.07702636 0.9321289 -3.95298e-4 0.9616089 -0.07739257 0.9977474 -0.07739257 0.9616089 -0.07739257 0.9616089 -0.07739257 0.9977474 -0.1484375 0.9977474 0.07702636 0.9321289 -3.95298e-4 0.9616089 -3.95298e-4 0.9321289 -3.95298e-4 0.9321289 -3.95298e-4 0.9616089 -0.07739257 0.9616089 -0.07739257 0.9616089 -0.1484375 0.9977474 -0.1484375 0.9616089 -0.1484375 0.9616089 -0.1484375 0.9977474 -0.2246094 0.9977474 -0.1484375 0.9616089 -0.2246094 0.9977474 -0.2246094 0.9616089 -0.07739257 0.9616089 -0.1484375 0.9616089 -0.07739257 0.9321289 -0.07739257 0.9616089 -0.07739257 0.9321289 -3.95298e-4 0.9321289 -0.1484375 0.9616089 -0.2246094 0.9616089 -0.1484375 0.9321289 -0.1484375 0.9616089 -0.1484375 0.9321289 -0.07739257 0.9321289 -0.1484375 0.9321289 -0.2246094 0.9616089 -0.2246094 0.9321289 -3.95298e-4 0.9321289 -0.07739257 0.9321289 -3.95298e-4 0.8865356 -0.1484375 0.9321289 -0.2246094 0.9321289 -0.1484375 0.8865356 -0.1484375 0.8865356 -0.2246094 0.9321289 -0.2246094 0.8865356 -0.07739257 0.9321289 -0.1484375 0.9321289 -0.07739257 0.8865356 -0.07739257 0.8865356 -0.1484375 0.9321289 -0.1484375 0.8865356 -0.07739257 0.9321289 -0.07739257 0.8865356 -3.95298e-4 0.8865356 -0.1484375 0.8865356 -0.2246094 0.8865356 -0.2246094 0.8010254 -0.07739257 0.8865356 -0.1484375 0.8865356 -0.1484375 0.8010254 -0.1484375 0.8010254 -0.1484375 0.8865356 -0.2246094 0.8010254 -3.95298e-4 0.8865356 -0.07739257 0.8865356 -0.07739257 0.8010254 -0.07739257 0.8010254 -0.07739257 0.8865356 -0.1484375 0.8010254 0.07702636 0.8865356 -3.95298e-4 0.9321289 -3.95298e-4 0.8865356 -3.95298e-4 0.9321289 0.07702636 0.8865356 0.07702636 0.9321289 0.07702636 0.9321289 0.07702636 0.8865356 0.1525879 0.8865356 0.07702636 0.8865356 -3.95298e-4 0.8865356 -3.95298e-4 0.8010254 -3.95298e-4 0.8010254 -3.95298e-4 0.8865356 -0.07739257 0.8010254 0.1525879 0.8865356 0.07702636 0.8865356 0.07702636 0.8010254 0.07702636 0.8010254 0.07702636 0.8865356 -3.95298e-4 0.8010254 0.1525879 0.8865356 0.07702636 0.8010254 0.1525879 0.8010254 0.1525879 0.8865356 0.1525879 0.8010254 0.2264404 0.8865356 0.2264404 0.8865356 0.1525879 0.8010254 0.2264404 0.8010254 0.2264404 0.8010254 0.1525879 0.8010254 0.2264404 0.7019043 0.2264404 0.7019043 0.1525879 0.8010254 0.1525879 0.7019043 0.1525879 0.7019043 0.1525879 0.8010254 0.07702636 0.8010254 0.2264404 0.7019043 0.1525879 0.7019043 0.2264404 0.6633301 0.1525879 0.7019043 0.07702636 0.8010254 0.07702636 0.7019043 0.07702636 0.7019043 0.07702636 0.8010254 -3.95298e-4 0.8010254 0.2264404 0.6633301 0.1525879 0.7019043 0.1525879 0.6633301 0.1525879 0.6633301 0.1525879 0.7019043 0.07702636 0.7019043 0.2264404 0.6633301 0.1525879 0.6633301 0.2264404 0.604248 0.07702636 0.7019043 -3.95298e-4 0.8010254 -3.95298e-4 0.7019043 -3.95298e-4 0.7019043 -3.95298e-4 0.8010254 -0.07739257 0.8010254 0.1525879 0.6633301 0.07702636 0.7019043 0.07702636 0.6633301 0.07702636 0.6633301 0.07702636 0.7019043 -3.95298e-4 0.7019043 0.2264404 0.604248 0.1525879 0.6633301 0.1525879 0.604248 0.1525879 0.604248 0.1525879 0.6633301 0.07702636 0.6633301 0.2264404 0.604248 0.1525879 0.604248 0.1929932 0.002441406 0.1929932 0.002441406 0.1525879 0.604248 0.130127 0.002441406 0.130127 0.002441406 0.1525879 0.604248 0.07702636 0.604248 0.07702636 0.604248 0.1525879 0.604248 0.07702636 0.6633301 0.130127 0.002441406 0.07702636 0.604248 0.06573486 0.002441406 0.07702636 0.6633301 -3.95298e-4 0.7019043 -3.95298e-4 0.6633301 0.07702636 0.6633301 -3.95298e-4 0.6633301 0.07702636 0.604248 0.06573486 0.002441406 0.07702636 0.604248 -3.95298e-4 0.604248 -3.95298e-4 0.604248 0.07702636 0.604248 -3.95298e-4 0.6633301 0.06573486 0.002441406 -3.95298e-4 0.604248 -2.04086e-4 0.002441406 -2.04086e-4 0.002441406 -3.95298e-4 0.604248 -0.06573486 0.002441406 -3.95298e-4 0.6633301 -3.95298e-4 0.7019043 -0.07739257 0.7019043 -0.07739257 0.7019043 -3.95298e-4 0.7019043 -0.07739257 0.8010254 -0.07739257 0.7019043 -0.07739257 0.8010254 -0.1484375 0.8010254 -3.95298e-4 0.604248 -3.95298e-4 0.6633301 -0.07739257 0.6633301 -0.07739257 0.6633301 -3.95298e-4 0.6633301 -0.07739257 0.7019043 -0.07739257 0.7019043 -0.1484375 0.8010254 -0.1484375 0.7019043 -0.07739257 0.7019043 -0.1484375 0.7019043 -0.07739257 0.6633301 -0.1484375 0.7019043 -0.1484375 0.8010254 -0.2246094 0.8010254 -0.1484375 0.7019043 -0.2246094 0.8010254 -0.2246094 0.7019043 -3.95298e-4 0.604248 -0.07739257 0.6633301 -0.07739257 0.604248 -3.95298e-4 0.604248 -0.07739257 0.604248 -0.06573486 0.002441406 -0.07739257 0.6633301 -0.1484375 0.7019043 -0.1484375 0.6633301 -0.1484375 0.6633301 -0.1484375 0.7019043 -0.2246094 0.7019043 -0.07739257 0.6633301 -0.1484375 0.6633301 -0.07739257 0.604248 -0.1484375 0.6633301 -0.2246094 0.7019043 -0.2246094 0.6633301 -0.06573486 0.002441406 -0.07739257 0.604248 -0.1484375 0.604248 -0.1484375 0.604248 -0.07739257 0.604248 -0.1484375 0.6633301 -0.1484375 0.604248 -0.1484375 0.6633301 -0.2246094 0.6633301 -0.06573486 0.002441406 -0.1484375 0.604248 -0.1263428 0.002441406 -0.1484375 0.604248 -0.2246094 0.6633301 -0.2246094 0.604248 -0.1484375 0.604248 -0.2246094 0.604248 -0.1263428 0.002441406 -0.1263428 0.002441406 -0.2246094 0.604248 -0.1911621 0.002441406 1.03418 -1.117188 0.9980469 -1 0.9980469 -1.136719 0.9980469 -1 1.03418 -1.117188 1.061523 -1.068359 0.9980469 -1.136719 0.9980469 -1 0.9614259 -1.117188 0.9980469 -1 1.061523 -1.068359 1.071289 -1 0.9614259 -1.117188 0.9980469 -1 0.9345703 -1.068359 0.9980469 -1 1.071289 -1 1.061523 -0.9306641 0.9345703 -1.068359 0.9980469 -1 0.9243164 -1 0.9980469 -1 1.061523 -0.9306641 1.03418 -0.8808594 0.9243164 -1 0.9980469 -1 0.9345703 -0.9306641 0.9980469 -1 1.03418 -0.8808594 0.9980469 -0.8623047 0.9345703 -0.9306641 0.9980469 -1 0.9614259 -0.8808594 0.9614259 -0.8808594 0.9980469 -1 0.9980469 -0.8623047 1.041992 1.135498 1.063477 1.069214 1.072266 1.078918 1.072266 1.078918 1.063477 1.069214 1.083008 1 1.063477 1.069214 1.041992 1.135498 1.037109 1.118835 1.037109 1.118835 1.041992 1.135498 1 1.15625 1.083008 1 1.063477 1.069214 1.073242 1 1.037109 1.118835 1 1.15625 1 1.136963 1.083008 1 1.073242 1 1.063477 0.9338379 1.083008 1 1.063477 0.9338379 1.072266 0.9241333 1.072266 0.9241333 1.063477 0.9338379 1.041992 0.8675537 1.073242 1 1.063477 1.069214 1 1 1 1 1.063477 1.069214 1.037109 1.118835 1.073242 1 1 1 1.063477 0.9338379 1 1 1.037109 1.118835 1 1.136963 1.041992 0.8675537 1.063477 0.9338379 1.037109 0.8842163 1.037109 0.8842163 1.063477 0.9338379 1 1 1.041992 0.8675537 1.037109 0.8842163 1 0.8660889 1 0.8660889 1.037109 0.8842163 1 1 1.041992 0.8675537 1 0.8660889 1 0.8468018 1 0.8468018 1 0.8660889 0.9594727 0.8675537 0.9594727 0.8675537 1 0.8660889 0.9643555 0.8842163 0.9643555 0.8842163 1 0.8660889 1 1 0.9594727 0.8675537 0.9643555 0.8842163 0.9287109 0.9241333 0.9287109 0.9241333 0.9643555 0.8842163 0.9379883 0.9338379 0.9379883 0.9338379 0.9643555 0.8842163 1 1 0.9287109 0.9241333 0.9379883 0.9338379 0.9282227 1 0.9282227 1 0.9379883 0.9338379 1 1 0.9287109 0.9241333 0.9282227 1 0.9179688 1 0.9179688 1 0.9282227 1 0.9379883 1.069214 0.9379883 1.069214 0.9282227 1 1 1 0.9179688 1 0.9379883 1.069214 0.9287109 1.078918 0.9379883 1.069214 1 1 0.9643555 1.118835 0.9379883 1.069214 0.9643555 1.118835 0.9287109 1.078918 0.9643555 1.118835 1 1 1 1.136963 0.9643555 1.118835 1 1.136963 1 1.15625 0.9287109 1.078918 0.9643555 1.118835 0.9594727 1.135498 0.9594727 1.135498 0.9643555 1.118835 1 1.15625</float_array>
          <technique_common>
            <accessor source="#pot24__Mt_CmnTex_Etc_SheikerPot_A-mesh-map-array" count="792" stride="2">
              <param name="S" type="float"/>
              <param name="T" type="float"/>
            </accessor>
          </technique_common>
        </source>
        <vertices id="pot24__Mt_CmnTex_Etc_SheikerPot_A-mesh-vertices">
          <input semantic="POSITION" source="#pot24__Mt_CmnTex_Etc_SheikerPot_A-mesh-positions"/>
        </vertices>
        <triangles material="Mt_CmnTex_Etc_SheikerPot_A-material" count="264">
          <input semantic="VERTEX" source="#pot24__Mt_CmnTex_Etc_SheikerPot_A-mesh-vertices" offset="0"/>
          <input semantic="NORMAL" source="#pot24__Mt_CmnTex_Etc_SheikerPot_A-mesh-normals" offset="1"/>
          <input semantic="TEXCOORD" source="#pot24__Mt_CmnTex_Etc_SheikerPot_A-mesh-map" offset="2" set="0"/>
          <p>0 0 0 1 1 1 2 2 2 2 2 3 1 1 4 3 3 5 4 4 6 5 5 7 6 6 8 6 6 9 5 5 10 7 7 11 8 8 12 9 9 13 10 10 14 10 10 15 9 9 16 11 11 17 12 12 18 13 13 19 14 14 20 14 14 21 13 13 22 15 15 23 16 16 24 17 17 25 18 18 26 18 18 27 17 17 28 19 19 29 20 20 30 21 21 31 22 22 32 22 22 33 21 21 34 23 23 35 24 24 36 25 25 37 26 26 38 26 26 39 25 25 40 27 27 41 26 26 42 27 27 43 28 28 44 28 28 45 27 27 46 29 29 47 28 28 48 29 29 49 30 30 50 30 30 51 29 29 52 31 31 53 30 30 54 31 31 55 32 32 56 32 32 57 31 31 58 33 33 59 32 32 60 33 33 61 34 34 62 32 32 63 34 34 64 35 35 65 35 35 66 34 34 67 36 36 68 36 36 69 34 34 70 37 37 71 36 36 72 37 37 73 38 38 74 38 38 75 37 37 76 39 39 77 38 38 78 39 39 79 40 40 80 40 40 81 39 39 82 41 41 83 42 42 84 43 43 85 44 44 86 44 44 87 43 43 88 45 45 89 44 44 90 45 45 91 46 46 92 46 46 93 45 45 94 47 47 95 46 46 96 47 47 97 48 48 98 48 48 99 47 47 100 49 49 101 48 48 102 49 49 103 50 50 104 50 50 105 49 49 106 51 51 107 50 50 108 51 51 109 52 52 110 50 50 111 52 52 112 53 53 113 53 53 114 52 52 115 54 54 116 54 54 117 52 52 118 55 55 119 54 54 120 55 55 121 56 56 122 56 56 123 55 55 124 57 57 125 56 56 126 57 57 127 58 58 128 58 58 129 57 57 130 59 59 131 60 60 132 61 61 133 62 62 134 61 61 135 60 60 136 63 63 137 61 61 138 63 63 139 64 64 140 64 64 141 63 63 142 65 65 143 64 64 144 65 65 145 66 66 146 66 66 147 65 65 148 67 67 149 66 66 150 67 67 151 68 68 152 66 66 153 68 68 154 69 69 155 69 69 156 68 68 157 70 70 158 70 70 159 68 68 160 71 71 161 70 70 162 71 71 163 72 72 164 72 72 165 71 71 166 73 73 167 72 72 168 73 73 169 74 74 170 74 74 171 73 73 172 75 75 173 74 74 174 75 75 175 76 76 176 76 76 177 75 75 178 77 77 179 78 78 180 79 79 181 80 80 182 79 79 183 78 78 184 81 81 185 79 79 186 81 81 187 82 82 188 82 82 189 81 81 190 83 83 191 82 82 192 83 83 193 84 84 194 84 84 195 83 83 196 85 85 197 84 84 198 85 85 199 86 86 200 84 84 201 86 86 202 87 87 203 87 87 204 86 86 205 88 88 206 88 88 207 86 86 208 89 89 209 88 88 210 89 89 211 90 90 212 90 90 213 89 89 214 91 91 215 90 90 216 91 91 217 92 92 218 92 92 219 91 91 220 93 93 221 92 92 222 93 93 223 94 94 224 94 94 225 93 93 226 95 95 227 96 96 228 97 97 229 98 98 230 97 97 231 96 96 232 99 99 233 97 97 234 99 99 235 100 100 236 100 100 237 99 99 238 101 101 239 100 100 240 101 101 241 102 102 242 102 102 243 101 101 244 103 103 245 102 102 246 103 103 247 104 104 248 102 102 249 104 104 250 105 105 251 105 105 252 104 104 253 106 106 254 106 106 255 104 104 256 107 107 257 106 106 258 107 107 259 108 108 260 108 108 261 107 107 262 109 109 263 108 108 264 109 109 265 110 110 266 110 110 267 109 109 268 111 111 269 110 110 270 111 111 271 112 112 272 112 112 273 111 111 274 113 113 275 114 114 276 115 115 277 116 116 278 115 115 279 114 114 280 117 117 281 115 115 282 117 117 283 118 118 284 118 118 285 117 117 286 119 119 287 118 118 288 119 119 289 120 120 290 120 120 291 119 119 292 121 121 293 120 120 294 121 121 295 122 122 296 120 120 297 122 122 298 123 123 299 123 123 300 122 122 301 124 124 302 124 124 303 122 122 304 125 125 305 124 124 306 125 125 307 126 126 308 126 126 309 125 125 310 127 127 311 126 126 312 127 127 313 128 128 314 128 128 315 127 127 316 129 129 317 128 128 318 129 129 319 130 130 320 128 128 321 130 130 322 131 131 323 132 132 324 133 133 325 134 134 326 133 133 327 132 132 328 135 135 329 135 135 330 132 132 331 136 136 332 135 135 333 136 136 334 137 137 335 137 137 336 136 136 337 138 138 338 137 137 339 138 138 340 139 139 341 139 139 342 138 138 343 140 140 344 139 139 345 140 140 346 141 141 347 141 141 348 140 140 349 142 142 350 141 141 351 142 142 352 143 143 353 143 143 354 142 142 355 144 144 356 143 143 357 144 144 358 145 145 359 146 146 360 147 147 361 148 148 362 147 147 363 146 146 364 149 149 365 147 147 366 149 149 367 150 150 368 149 149 369 146 146 370 151 151 371 150 150 372 149 149 373 152 152 374 149 149 375 151 151 376 153 153 377 149 149 378 153 153 379 152 152 380 153 153 381 151 151 382 154 154 383 150 150 384 152 152 385 155 155 386 153 153 387 154 154 388 156 156 389 156 156 390 154 154 391 157 157 392 152 152 393 153 153 394 158 158 395 158 158 396 153 153 397 156 156 398 155 155 399 152 152 400 159 159 401 159 159 402 152 152 403 158 158 404 156 156 405 157 157 406 160 160 407 160 160 408 157 157 409 161 161 410 158 158 411 156 156 412 162 162 413 162 162 414 156 156 415 160 160 416 160 160 417 161 161 418 163 163 419 163 163 420 161 161 421 164 164 422 163 163 423 164 164 424 165 165 425 160 160 426 163 163 427 166 166 428 160 160 429 166 166 430 162 162 431 163 163 432 165 165 433 167 167 434 163 163 435 167 167 436 166 166 437 167 167 438 165 165 439 168 168 440 162 162 441 166 166 442 169 169 443 167 167 444 168 168 445 170 170 446 170 170 447 168 168 448 171 171 449 166 166 450 167 167 451 172 172 452 172 172 453 167 167 454 170 170 455 166 166 456 172 172 457 169 169 458 170 170 459 171 171 460 173 173 461 172 172 462 170 170 463 174 174 464 174 174 465 170 170 466 173 173 467 169 169 468 172 172 469 175 175 470 175 175 471 172 172 472 174 174 473 176 176 474 162 162 475 169 169 476 162 162 477 176 176 478 158 158 479 158 158 480 176 176 481 159 159 482 176 176 483 169 169 484 177 177 485 177 177 486 169 169 487 175 175 488 159 159 489 176 176 490 178 178 491 178 178 492 176 176 493 177 177 494 159 159 495 178 178 496 179 179 497 159 159 498 179 179 499 155 155 500 155 155 501 179 179 502 180 180 503 180 180 504 179 179 505 181 181 506 181 181 507 179 179 508 182 182 509 182 182 510 179 179 511 178 178 512 181 181 513 182 182 514 183 183 515 182 182 516 178 178 517 184 184 518 184 184 519 178 178 520 177 177 521 183 183 522 182 182 523 185 185 524 185 185 525 182 182 526 184 184 527 183 183 528 185 185 529 186 186 530 184 184 531 177 177 532 187 187 533 187 187 534 177 177 535 175 175 536 185 185 537 184 184 538 188 188 539 188 188 540 184 184 541 187 187 542 186 186 543 185 185 544 189 189 545 189 189 546 185 185 547 188 188 548 186 186 549 189 189 550 190 190 551 190 190 552 189 189 553 191 191 554 191 191 555 189 189 556 192 192 557 192 192 558 189 189 559 188 188 560 191 191 561 192 192 562 193 193 563 188 188 564 187 187 565 194 194 566 188 188 567 194 194 568 192 192 569 193 193 570 192 192 571 195 195 572 195 195 573 192 192 574 194 194 575 193 193 576 195 195 577 196 196 578 196 196 579 195 195 580 197 197 581 194 194 582 187 187 583 198 198 584 198 198 585 187 187 586 175 175 587 198 198 588 175 175 589 174 174 590 195 195 591 194 194 592 199 199 593 199 199 594 194 194 595 198 198 596 198 198 597 174 174 598 200 200 599 198 198 600 200 200 601 199 199 602 200 200 603 174 174 604 173 173 605 200 200 606 173 173 607 201 201 608 195 195 609 199 199 610 202 202 611 195 195 612 202 202 613 197 197 614 199 199 615 200 200 616 203 203 617 203 203 618 200 200 619 201 201 620 199 199 621 203 203 622 202 202 623 203 203 624 201 201 625 204 204 626 197 197 627 202 202 628 205 205 629 205 205 630 202 202 631 203 203 632 205 205 633 203 203 634 204 204 635 197 197 636 205 205 637 206 206 638 205 205 639 204 204 640 207 207 641 205 205 642 207 207 643 206 206 644 206 206 645 207 207 646 208 208 647 209 209 648 210 210 649 211 211 650 210 210 651 209 209 652 212 212 653 211 211 654 210 210 655 213 213 656 210 210 657 212 212 658 214 214 659 213 213 660 210 210 661 215 215 662 210 210 663 214 214 664 216 216 665 215 215 666 210 210 667 217 217 668 210 210 669 216 216 670 218 218 671 217 217 672 210 210 673 219 219 674 210 210 675 218 218 676 220 220 677 219 219 678 210 210 679 221 221 680 221 221 681 210 210 682 220 220 683 222 222 684 223 223 685 224 222 686 224 222 687 223 223 688 225 224 689 223 223 690 222 222 691 226 225 692 226 225 693 222 222 694 227 222 695 225 224 696 223 223 697 228 226 698 226 225 699 227 222 700 229 227 701 225 224 702 228 226 703 230 228 704 225 224 705 230 228 706 231 229 707 231 229 708 230 228 709 232 230 710 228 226 711 223 223 712 233 231 713 233 231 714 223 223 715 226 225 716 228 226 717 233 231 718 230 228 719 233 231 720 226 225 721 229 227 722 232 230 723 230 228 724 234 232 725 234 232 726 230 228 727 233 231 728 232 230 729 234 232 730 235 233 731 235 233 732 234 232 733 233 231 734 232 230 735 235 233 736 236 222 737 236 222 738 235 233 739 237 222 740 237 222 741 235 233 742 238 234 743 238 234 744 235 233 745 233 231 746 237 222 747 238 234 748 239 222 749 239 222 750 238 234 751 240 235 752 240 235 753 238 234 754 233 231 755 239 222 756 240 235 757 241 236 758 241 236 759 240 235 760 233 231 761 239 222 762 241 236 763 242 222 764 242 222 765 241 236 766 243 237 767 243 237 768 241 236 769 233 231 770 242 222 771 243 237 772 244 222 773 243 237 774 233 231 775 245 238 776 243 237 777 245 238 778 244 222 779 245 238 780 233 231 781 229 227 782 245 238 783 229 227 784 227 222 785 244 222 786 245 238 787 246 222 788 246 222 789 245 238 790 227 222 791</p>
        </triangles>
      </mesh>
    </geometry>
  </library_geometries>
  <library_controllers>
    <controller id="Armature_pot24__Mt_CmnTex_Etc_SheikerPot_A-skin" name="Armature">
      <skin source="#pot24__Mt_CmnTex_Etc_SheikerPot_A-mesh">
        <bind_shape_matrix>1 0 0 0 0 1 0 0 0 0 1 0 0 0 0 1</bind_shape_matrix>
        <source id="Armature_pot24__Mt_CmnTex_Etc_SheikerPot_A-skin-joints">
          <Name_array id="Armature_pot24__Mt_CmnTex_Etc_SheikerPot_A-skin-joints-array" count="1">Root</Name_array>
          <technique_common>
            <accessor source="#Armature_pot24__Mt_CmnTex_Etc_SheikerPot_A-skin-joints-array" count="1" stride="1">
              <param name="JOINT" type="name"/>
            </accessor>
          </technique_common>
        </source>
        <source id="Armature_pot24__Mt_CmnTex_Etc_SheikerPot_A-skin-bind_poses">
          <float_array id="Armature_pot24__Mt_CmnTex_Etc_SheikerPot_A-skin-bind_poses-array" count="16">1 0 0 0 0 -1.62921e-7 1 0 0 -1 -1.62921e-7 0 0 0 0 1</float_array>
          <technique_common>
            <accessor source="#Armature_pot24__Mt_CmnTex_Etc_SheikerPot_A-skin-bind_poses-array" count="1" stride="16">
              <param name="TRANSFORM" type="float4x4"/>
            </accessor>
          </technique_common>
        </source>
        <source id="Armature_pot24__Mt_CmnTex_Etc_SheikerPot_A-skin-weights">
          <float_array id="Armature_pot24__Mt_CmnTex_Etc_SheikerPot_A-skin-weights-array" count="372">1 1 1 1 1 1 1 1 1 1 1 1 1 1 1 1 1 1 1 1 1 1 1 1 1 1 1 1 1 1 1 1 1 1 1 1 1 1 1 1 1 1 1 1 1 1 1 1 1 1 1 1 1 1 1 1 1 1 1 1 1 1 1 1 1 1 1 1 1 1 1 1 1 1 1 1 1 1 1 1 1 1 1 1 1 1 1 1 1 1 1 1 1 1 1 1 1 1 1 1 1 1 1 1 1 1 1 1 1 1 1 1 1 1 1 1 1 1 1 1 1 1 1 1 1 1 1 1 1 1 1 1 1 1 1 1 1 1 1 1 1 1 1 1 1 1 1 1 1 1 1 1 1 1 1 1 1 1 1 1 1 1 1 1 1 1 1 1 1 1 1 1 1 1 1 1 1 1 1 1 1 1 1 1 1 1 1 1 1 1 1 1 1 1 1 1 1 1 1 1 1 1 1 1 1 1 1 1 1 1 1 1 1 1 1 1 1 1 1 1 1 1 1 1 1 1 1 1 1 1 1 1 1 1 1 1 1 1 1 1 1 1 1 1 1 1 1 1 1 1 1 1 1 1 1 1 1 1 1 1 1 1 1 1 1 1 1 1 1 1 1 1 1 1 1 1 1 1 1 1 1 1 1 1 1 1 1 1 1 1 1 1 1 1 1 1 1 1 1 1 1 1 1 1 1 1 1 1 1 1 1 1 1 1 1 1 1 1 1 1 1 1 1 1 1 1 1 1 1 1 1 1 1 1 1 1 1 1 1 1 1 1 1 1 1 1 1 1 1 1 1 1 1 1 1 1 1 1 1 1 1 1 1 1 1 1 1 1 1 1 1 1</float_array>
          <technique_common>
            <accessor source="#Armature_pot24__Mt_CmnTex_Etc_SheikerPot_A-skin-weights-array" count="372" stride="1">
              <param name="WEIGHT" type="float"/>
            </accessor>
          </technique_common>
        </source>
        <joints>
          <input semantic="JOINT" source="#Armature_pot24__Mt_CmnTex_Etc_SheikerPot_A-skin-joints"/>
          <input semantic="INV_BIND_MATRIX" source="#Armature_pot24__Mt_CmnTex_Etc_SheikerPot_A-skin-bind_poses"/>
        </joints>
        <vertex_weights count="372">
          <input semantic="JOINT" source="#Armature_pot24__Mt_CmnTex_Etc_SheikerPot_A-skin-joints" offset="0"/>
          <input semantic="WEIGHT" source="#Armature_pot24__Mt_CmnTex_Etc_SheikerPot_A-skin-weights" offset="1"/>
          <vcount>1 1 1 1 1 1 1 1 1 1 1 1 1 1 1 1 1 1 1 1 1 1 1 1 1 1 1 1 1 1 1 1 1 1 1 1 1 1 1 1 1 1 1 1 1 1 1 1 1 1 1 1 1 1 1 1 1 1 1 1 1 1 1 1 1 1 1 1 1 1 1 1 1 1 1 1 1 1 1 1 1 1 1 1 1 1 1 1 1 1 1 1 1 1 1 1 1 1 1 1 1 1 1 1 1 1 1 1 1 1 1 1 1 1 1 1 1 1 1 1 1 1 1 1 1 1 1 1 1 1 1 1 1 1 1 1 1 1 1 1 1 1 1 1 1 1 1 1 1 1 1 1 1 1 1 1 1 1 1 1 1 1 1 1 1 1 1 1 1 1 1 1 1 1 1 1 1 1 1 1 1 1 1 1 1 1 1 1 1 1 1 1 1 1 1 1 1 1 1 1 1 1 1 1 1 1 1 1 1 1 1 1 1 1 1 1 1 1 1 1 1 1 1 1 1 1 1 1 1 1 1 1 1 1 1 1 1 1 1 1 1 1 1 1 1 1 1 1 1 1 1 1 1 1 1 1 1 1 1 1 1 1 1 1 1 1 1 1 1 1 1 1 1 1 1 1 1 1 1 1 1 1 1 1 1 1 1 1 1 1 1 1 1 1 1 1 1 1 1 1 1 1 1 1 1 1 1 1 1 1 1 1 1 1 1 1 1 1 1 1 1 1 1 1 1 1 1 1 1 1 1 1 1 1 1 1 1 1 1 1 1 1 1 1 1 1 1 1 1 1 1 1 1 1 1 1 1 1 1 1 1 1 1 1 1 1 1 1 1 1 1 1 </vcount>
          <v>0 0 0 1 0 2 0 3 0 4 0 5 0 6 0 7 0 8 0 9 0 10 0 11 0 12 0 13 0 14 0 15 0 16 0 17 0 18 0 19 0 20 0 21 0 22 0 23 0 24 0 25 0 26 0 27 0 28 0 29 0 30 0 31 0 32 0 33 0 34 0 35 0 36 0 37 0 38 0 39 0 40 0 41 0 42 0 43 0 44 0 45 0 46 0 47 0 48 0 49 0 50 0 51 0 52 0 53 0 54 0 55 0 56 0 57 0 58 0 59 0 60 0 61 0 62 0 63 0 64 0 65 0 66 0 67 0 68 0 69 0 70 0 71 0 72 0 73 0 74 0 75 0 76 0 77 0 78 0 79 0 80 0 81 0 82 0 83 0 84 0 85 0 86 0 87 0 88 0 89 0 90 0 91 0 92 0 93 0 94 0 95 0 96 0 97 0 98 0 99 0 100 0 101 0 102 0 103 0 104 0 105 0 106 0 107 0 108 0 109 0 110 0 111 0 112 0 113 0 114 0 115 0 116 0 117 0 118 0 119 0 120 0 121 0 122 0 123 0 124 0 125 0 126 0 127 0 128 0 129 0 130 0 131 0 132 0 133 0 134 0 135 0 136 0 137 0 138 0 139 0 140 0 141 0 142 0 143 0 144 0 145 0 146 0 147 0 148 0 149 0 150 0 151 0 152 0 153 0 154 0 155 0 156 0 157 0 158 0 159 0 160 0 161 0 162 0 163 0 164 0 165 0 166 0 167 0 168 0 169 0 170 0 171 0 172 0 173 0 174 0 175 0 176 0 177 0 178 0 179 0 180 0 181 0 182 0 183 0 184 0 185 0 186 0 187 0 188 0 189 0 190 0 191 0 192 0 193 0 194 0 195 0 196 0 197 0 198 0 199 0 200 0 201 0 202 0 203 0 204 0 205 0 206 0 207 0 208 0 209 0 210 0 211 0 212 0 213 0 214 0 215 0 216 0 217 0 218 0 219 0 220 0 221 0 222 0 223 0 224 0 225 0 226 0 227 0 228 0 229 0 230 0 231 0 232 0 233 0 234 0 235 0 236 0 237 0 238 0 239 0 240 0 241 0 242 0 243 0 244 0 245 0 246 0 247 0 248 0 249 0 250 0 251 0 252 0 253 0 254 0 255 0 256 0 257 0 258 0 259 0 260 0 261 0 262 0 263 0 264 0 265 0 266 0 267 0 268 0 269 0 270 0 271 0 272 0 273 0 274 0 275 0 276 0 277 0 278 0 279 0 280 0 281 0 282 0 283 0 284 0 285 0 286 0 287 0 288 0 289 0 290 0 291 0 292 0 293 0 294 0 295 0 296 0 297 0 298 0 299 0 300 0 301 0 302 0 303 0 304 0 305 0 306 0 307 0 308 0 309 0 310 0 311 0 312 0 313 0 314 0 315 0 316 0 317 0 318 0 319 0 320 0 321 0 322 0 323 0 324 0 325 0 326 0 327 0 328 0 329 0 330 0 331 0 332 0 333 0 334 0 335 0 336 0 337 0 338 0 339 0 340 0 341 0 342 0 343 0 344 0 345 0 346 0 347 0 348 0 349 0 350 0 351 0 352 0 353 0 354 0 355 0 356 0 357 0 358 0 359 0 360 0 361 0 362 0 363 0 364 0 365 0 366 0 367 0 368 0 369 0 370 0 371</v>
        </vertex_weights>
      </skin>
    </controller>
  </library_controllers>
  <library_visual_scenes>
    <visual_scene id="Scene" name="Scene">
      <node id="Armature" name="Armature" type="NODE">
        <matrix sid="transform">1 0 0 0 0 -1.62921e-7 -1 0 0 1 -1.62921e-7 0 0 0 0 1</matrix>
        <node id="Armature_Root" name="Root" sid="Root" type="JOINT">
          <matrix sid="transform">1 0 0 0 0 1 0 0 0 0 1 0 0 0 0 1</matrix>
          <extra>
            <technique profile="blender">
              <layer sid="layer" type="string">0</layer>
              <tip_x sid="tip_x" type="float">0</tip_x>
              <tip_y sid="tip_y" type="float">1</tip_y>
              <tip_z sid="tip_z" type="float">0</tip_z>
            </technique>
          </extra>
        </node>
        <node id="pot24__Mt_CmnTex_Etc_SheikerPot_A" name="pot24__Mt_CmnTex_Etc_SheikerPot_A" type="NODE">
          <matrix sid="transform">1 0 0 0 0 1 0 0 0 0 1 0 0 0 0 1</matrix>
          <instance_controller url="#Armature_pot24__Mt_CmnTex_Etc_SheikerPot_A-skin">
            <skeleton>#Armature_Root</skeleton>
            <bind_material>
              <technique_common>
                <instance_material symbol="Mt_CmnTex_Etc_SheikerPot_A-material" target="#Mt_CmnTex_Etc_SheikerPot_A-material">
                  <bind_vertex_input semantic="pot24__Mt_CmnTex_Etc_SheikerPot_A-texcoord" input_semantic="TEXCOORD" input_set="0"/>
                </instance_material>
              </technique_common>
            </bind_material>
          </instance_controller>
        </node>
      </node>
    </visual_scene>
  </library_visual_scenes>
  <scene>
    <instance_visual_scene url="#Scene"/>
  </scene>
</COLLADA>