<?xml version="1.0" encoding="utf-8"?>
<COLLADA xmlns="http://www.collada.org/2005/11/COLLADASchema" version="1.4.1" xmlns:xsi="http://www.w3.org/2001/XMLSchema-instance">
  <asset>
    <contributor>
      <author>Blender User</author>
      <authoring_tool>Blender 3.1.2 commit date:2022-03-31, commit time:17:40, hash:cc66d1020c3b</authoring_tool>
    </contributor>
    <created>2023-06-01T15:33:31</created>
    <modified>2023-06-01T15:33:31</modified>
    <unit name="meter" meter="1"/>
    <up_axis>Z_UP</up_axis>
  </asset>
  <library_effects>
    <effect id="Mt_CmnTex_Etc_SheikerPot_A-effect">
      <profile_COMMON>
        <newparam sid="CmnTex_Etc_SheikerPot_A_Alb_png-surface">
          <surface type="2D">
            <init_from>CmnTex_Etc_SheikerPot_A_Alb_png</init_from>
          </surface>
        </newparam>
        <newparam sid="CmnTex_Etc_SheikerPot_A_Alb_png-sampler">
          <sampler2D>
            <source>CmnTex_Etc_SheikerPot_A_Alb_png-surface</source>
          </sampler2D>
        </newparam>
        <technique sid="common">
          <lambert>
            <emission>
              <color sid="emission">0 0 0 1</color>
            </emission>
            <diffuse>
              <texture texture="CmnTex_Etc_SheikerPot_A_Alb_png-sampler" texcoord="pot__Mt_CmnTex_Etc_SheikerPot_A-texcoord"/>
            </diffuse>
            <index_of_refraction>
              <float sid="ior">1.45</float>
            </index_of_refraction>
          </lambert>
        </technique>
      </profile_COMMON>
    </effect>
  </library_effects>
  <library_images>
    <image id="CmnTex_Etc_SheikerPot_A_Alb_png" name="CmnTex_Etc_SheikerPot_A_Alb_png">
      <init_from>CmnTex_Etc_SheikerPot_A_Alb.png</init_from>
    </image>
  </library_images>
  <library_materials>
    <material id="Mt_CmnTex_Etc_SheikerPot_A-material" name="Mt_CmnTex_Etc_SheikerPot_A">
      <instance_effect url="#Mt_CmnTex_Etc_SheikerPot_A-effect"/>
    </material>
  </library_materials>
  <library_geometries>
    <geometry id="pot__Mt_CmnTex_Etc_SheikerPot_A-mesh" name="pot__Mt_CmnTex_Etc_SheikerPot_A">
      <mesh>
        <source id="pot__Mt_CmnTex_Etc_SheikerPot_A-mesh-positions">
          <float_array id="pot__Mt_CmnTex_Etc_SheikerPot_A-mesh-positions-array" count="1272">-0.0906372 0.6025391 -0.1580811 -0.1569824 0.6025391 -0.09112548 -0.07568359 0.5986328 -0.1324463 -0.1312256 0.5986328 -0.07641601 0 0.6025391 -0.1828613 -0.0906372 0.6025391 -0.1580811 0 0.5986328 -0.1531982 -0.07568359 0.5986328 -0.1324463 0.09155273 0.6025391 -0.1588135 0 0.6025391 -0.1828613 0.07684326 0.5986328 -0.1330566 0 0.5986328 -0.1531982 0.1584473 0.6025391 -0.09240722 0.09155273 0.6025391 -0.1588135 0.1328125 0.5986328 -0.07745361 0.07684326 0.5986328 -0.1330566 0.1584473 0.6025391 -0.09240722 0.1328125 0.5986328 -0.07745361 0.1832275 0.6025391 0 0.1535645 0.5986328 0 0.1832275 0.6025391 0 0.1535645 0.5986328 0 0.1591797 0.6025391 0.08978271 0.1334229 0.5986328 0.07507324 -0.09027099 -2.21729e-4 -0.1574707 0 0.1094971 -0.2462158 0 1.80721e-4 -0.1724854 -0.1224976 0.1094971 -0.2127686 -0.1387939 0.2186279 -0.2408447 0 0.1094971 -0.2462158 0 0.2186279 -0.2785645 0 0.300293 -0.2783203 -0.1386719 0.300293 -0.2406006 0 0.364502 -0.2600098 -0.1295166 0.364502 -0.2248535 0 0.3937988 -0.2322998 -0.1155396 0.3937988 -0.2008057 0 0.4655762 -0.2006836 -0.09954833 0.4655762 -0.1734619 -0.09686279 0.5444336 -0.1688232 0 0.5444336 -0.1951904 -0.1055298 0.5717773 -0.1835938 0 0.5717773 -0.2124023 0 0.5927734 -0.2059326 -0.1022339 0.5927734 -0.1779785 0 0.6025391 -0.1828613 -0.0906372 0.6025391 -0.1580811 -0.1567383 1.80721e-4 -0.09008789 -0.2120361 0.1094971 -0.1225586 -0.09027099 -2.21729e-4 -0.1574707 -0.1224976 0.1094971 -0.2127686 -0.2120361 0.1094971 -0.1225586 -0.2402344 0.2186279 -0.1386719 -0.1387939 0.2186279 -0.2408447 -0.1386719 0.300293 -0.2406006 -0.2399902 0.300293 -0.1385498 -0.1295166 0.364502 -0.2248535 -0.2241211 0.364502 -0.1295166 -0.1155396 0.3937988 -0.2008057 -0.1999512 0.3937988 -0.1157227 -0.09954833 0.4655762 -0.1734619 -0.1724854 0.4655762 -0.09997558 -0.1677246 0.5444336 -0.09729003 -0.09686279 0.5444336 -0.1688232 -0.1055298 0.5717773 -0.1835938 -0.1827393 0.5717773 -0.105835 -0.1022339 0.5927734 -0.1779785 -0.177002 0.5927734 -0.1026 -0.0906372 0.6025391 -0.1580811 -0.1569824 0.6025391 -0.09112548 0.1728516 1.80721e-4 0 0.246582 0.1094971 0 0.1585693 1.80721e-4 0.0894165 0.2142333 0.1094971 0.1212769 0.246582 0.1094971 0 0.2790527 0.2186279 0 0.2424316 0.2186279 0.1373291 0.2421875 0.300293 0.137207 0.2788086 0.300293 0 0.2263184 0.364502 0.1281738 0.260498 0.364502 0 0.2327881 0.3937988 0 0.2021484 0.3937988 0.1143799 0.2010498 0.4655762 0 0.1746826 0.4655762 0.09863281 0.1956787 0.5444336 0 0.1699219 0.5444336 0.09594726 0.1849365 0.5717773 0.1044922 0.2128906 0.5717773 0 0.1791992 0.5927734 0.1012573 0.2062988 0.5927734 0 0.1832275 0.6025391 0 0.1591797 0.6025391 0.08978271 0.09155273 0.6025391 -0.1588135 0 0.5927734 -0.2059326 0 0.6025391 -0.1828613 0.1030273 0.5927734 -0.178833 0 0.5717773 -0.2124023 0.1062622 0.5717773 -0.1844482 0.09771728 0.5444336 -0.1695557 0 0.5444336 -0.1951904 0.1004028 0.4655762 -0.1741943 0 0.4655762 -0.2006836 0 0.3937988 -0.2322998 0.1161499 0.3937988 -0.2017822 0 0.364502 -0.2600098 0.1298828 0.364502 -0.2259521 0 0.300293 -0.2783203 0.1390381 0.300293 -0.2416992 0 0.2186279 -0.2785645 0.1391602 0.2186279 -0.2419434 0.1229858 0.1094971 -0.2137451 0 0.1094971 -0.2462158 0.08636474 1.80721e-4 -0.1497803 0 1.80721e-4 -0.1724854 0.1584473 0.6025391 -0.09240722 0.1030273 0.5927734 -0.178833 0.09155273 0.6025391 -0.1588135 0.1784667 0.5927734 -0.1040039 0.1062622 0.5717773 -0.1844482 0.184082 0.5717773 -0.1072388 0.09771728 0.5444336 -0.1695557 0.1691895 0.5444336 -0.09863281 0.1738281 0.4655762 -0.1013184 0.1004028 0.4655762 -0.1741943 0.1161499 0.3937988 -0.2017822 0.2012939 0.3937988 -0.1173096 0.1298828 0.364502 -0.2259521 0.2253417 0.364502 -0.1312256 0.1390381 0.300293 -0.2416992 0.2410889 0.300293 -0.1405029 0.1391602 0.2186279 -0.2419434 0.241333 0.2186279 -0.140625 0.2132568 0.1094971 -0.1242676 0.1229858 0.1094971 -0.2137451 0.1495361 1.80721e-4 -0.0871582 0.08636474 1.80721e-4 -0.1497803 -0.1569824 0.6025391 -0.09112548 -0.1810303 0.6025391 0 -0.1312256 0.5986328 -0.07641601 -0.1513672 0.5986328 0 -0.15625 0.6025391 0.09106445 -0.1306152 0.5986328 0.07611083 -0.08935546 0.6025391 0.1574707 -0.07464599 0.5986328 0.1317139 0 0.5986328 0.1518555 0 0.6025391 0.1815186 0.07788085 0.5986328 0.1311035 0.09283447 0.6025391 0.1567383 0.1591797 0.6025391 0.08978271 0.1334229 0.5986328 0.07507324 0.2062988 0.5927734 0 0.1584473 0.6025391 -0.09240722 0.1832275 0.6025391 0 0.1784667 0.5927734 -0.1040039 0.184082 0.5717773 -0.1072388 0.2128906 0.5717773 0 0.1691895 0.5444336 -0.09863281 0.1956787 0.5444336 0 0.2010498 0.4655762 0 0.1738281 0.4655762 -0.1013184 0.2327881 0.3937988 0 0.2012939 0.3937988 -0.1173096 0.260498 0.364502 0 0.2253417 0.364502 -0.1312256 0.2410889 0.300293 -0.1405029 0.2788086 0.300293 0 0.241333 0.2186279 -0.140625 0.2790527 0.2186279 0 0.246582 0.1094971 0 0.2132568 0.1094971 -0.1242676 0.1495361 1.80721e-4 -0.0871582 0.1728516 1.80721e-4 0 0.09283447 0.6025391 0.1567383 0.1791992 0.5927734 0.1012573 0.1591797 0.6025391 0.08978271 0.1044312 0.5927734 0.1766357 0.1849365 0.5717773 0.1044922 0 0.5927734 0.2045898 0 0.6025391 0.1815186 0.1077271 0.5717773 0.182251 0.1699219 0.5444336 0.09594726 -0.1008301 0.5927734 0.1774902 -0.08935546 0.6025391 0.1574707 -0.15625 0.6025391 0.09106445 0 0.5717773 0.2110596 0.09906005 0.5444336 0.1674805 -0.1762695 0.5927734 0.1026611 -0.1810303 0.6025391 0 -0.1040649 0.5717773 0.1831055 -0.2041016 0.5927734 0 -0.1569824 0.6025391 -0.09112548 -0.177002 0.5927734 -0.1026 -0.1818848 0.5717773 0.105957 -0.2106934 0.5717773 0 -0.1827393 0.5717773 -0.105835 -0.09552001 0.5444336 0.1682129 -0.1934814 0.5444336 0 -0.1677246 0.5444336 -0.09729003 -0.1669922 0.5444336 0.09729003 -0.1724854 0.4655762 -0.09997558 -0.1988525 0.4655762 0 -0.1716309 0.4655762 0.1000366 0 0.5444336 0.1938477 -0.09820556 0.4655762 0.1728516 0 0.4655762 0.1993408 -0.1139526 0.3937988 0.2004395 -0.1990967 0.3937988 0.1159668 -0.2305908 0.3937988 0 -0.1999512 0.3937988 -0.1157227 -0.1276855 0.364502 0.2246094 -0.2583008 0.364502 0 -0.2241211 0.364502 -0.1295166 -0.2231445 0.364502 0.1300049 -0.2766113 0.300293 0 -0.2399902 0.300293 -0.1385498 -0.2388916 0.300293 0.1391602 -0.1368408 0.300293 0.2404785 -0.2768555 0.2186279 0 -0.2402344 0.2186279 -0.1386719 -0.2120361 0.1094971 -0.1225586 -0.2391357 0.2186279 0.1392822 -0.2443848 0.1094971 0 -0.1567383 1.80721e-4 -0.09008789 -0.1807861 1.80721e-4 0 -0.2110596 0.1094971 0.1229248 -0.1556396 1.80721e-4 0.09069824 -0.1369629 0.2186279 0.2406006 -0.1208496 0.1094971 0.2124023 -0.08898925 1.80721e-4 0.1568604 0 1.80721e-4 0.1807861 0 0.1094971 0.244873 0.09246826 1.80721e-4 0.1561279 0.2142333 0.1094971 0.1212769 0.1585693 1.80721e-4 0.0894165 0.1246948 0.1094971 0.2114258 0.2424316 0.2186279 0.1373291 0 0.2186279 0.2773438 0.1409912 0.2186279 0.239502 0 0.300293 0.2770996 0.1408691 0.300293 0.2393799 0.2421875 0.300293 0.137207 0 0.364502 0.2587891 0.1317139 0.364502 0.2235107 0.2263184 0.364502 0.1281738 0 0.3937988 0.230957 0.1177368 0.3937988 0.1994629 0.2021484 0.3937988 0.1143799 0.1017456 0.4655762 0.1721191 0.1746826 0.4655762 0.09863281 0.1328125 0.5986328 -0.07745361 0 0.1092529 0 0.1535645 0.5986328 0 0.07684326 0.5986328 -0.1330566 0.1334229 0.5986328 0.07507324 0 0.5986328 -0.1531982 0.07788085 0.5986328 0.1311035 -0.07568359 0.5986328 -0.1324463 0 0.5986328 0.1518555 -0.1312256 0.5986328 -0.07641601 -0.07464599 0.5986328 0.1317139 -0.1513672 0.5986328 0 -0.1306152 0.5986328 0.07611083 0.1495361 1.80721e-4 -0.0871582 0.06958007 1.80721e-4 -0.1202393 0.08636474 1.80721e-4 -0.1497803 0 1.80721e-4 -0.1724854 0.1202393 1.80721e-4 -0.06994628 0.1728516 1.80721e-4 0 0 1.80721e-4 -0.1384277 0.1390381 1.80721e-4 0 -0.07226562 -1.21057e-4 -0.1264648 -0.09027099 -2.21729e-4 -0.1574707 -0.1567383 1.80721e-4 -0.09008789 0 0.08294677 0 -0.1257324 1.80721e-4 -0.07232666 -0.1448975 1.80721e-4 0 -0.1807861 1.80721e-4 0 -0.1556396 1.80721e-4 0.09069824 -0.1248169 1.80721e-4 0.07281494 -0.08898925 1.80721e-4 0.1568604 -0.07128906 1.80721e-4 0.1259766 0 1.80721e-4 0.1451416 0 1.80721e-4 0.1807861 0.07440185 1.80721e-4 0.1253662 0.09246826 1.80721e-4 0.1561279 0.1275635 1.80721e-4 0.07183837 0.1585693 1.80721e-4 0.0894165 7.33852e-4 0.46875 -0.2105713 -0.1911621 0.4707031 -0.1046753 -0.1071777 0.574707 -0.1848145 0 0.1095581 3.46899e-4 -0.1325684 0.5986328 -0.07788085 -0.1516113 0.5991211 1.53661e-4 0 0.1095581 3.46899e-4 -0.1516113 0.5991211 1.53661e-4 -0.07568359 0.5996094 0.1335449 0 0.1095581 3.46899e-4 -0.07568359 0.5996094 0.1335449 0.07806396 0.5991211 0.1324463 0 0.1095581 3.46899e-4 0.07806396 0.5991211 0.1324463 0.1345215 0.5986328 0.07513427 0 0.1095581 3.46899e-4 0.1345215 0.5986328 0.07513427 0.135498 0.5986328 -0.07922363 -0.1071777 0.574707 -0.1848145 -0.1911621 0.4707031 -0.1046753 -0.2077637 0.5947266 -6.72817e-4 -0.1071777 0.574707 -0.1848145 -0.1325684 0.5986328 -0.07788085 3.62873e-4 0.6142578 -0.1776123 0 0.6020508 0.1824951 0.07806396 0.5991211 0.1324463 -0.07568359 0.5996094 0.1335449 -0.1021118 -0.01235961 -0.1665039 0 0.08142089 0 -0.1668701 -0.01122283 0.09533691 0 0.08142089 0 0.09576416 -0.01056671 -0.1593018 0.1733398 -0.01310729 0.09442138 -0.1021118 -0.01235961 -0.1665039 0.09576416 -0.01056671 -0.1593018 0 0.08142089 0 0.1807861 0.59375 0.1010742 0.1842041 0.6025391 0 0.1345215 0.5986328 0.07513427 0.1866455 0.574707 -0.1079712 0.135498 0.5986328 -0.07922363 0.09277343 0.6030273 -0.1616211 0.135498 0.5986328 -0.07922363 0.09277343 0.6030273 -0.1616211 3.62873e-4 0.6142578 -0.1776123 0.1842041 0.6025391 0 0.1345215 0.5986328 0.07513427 0.1733398 -0.01310729 0.09442138 0.2644043 0.2202148 0.1552734 9.39846e-4 0.21521 0.3054199 8.75592e-5 -0.005336761 0.18396 0.2644043 0.2202148 0.1552734 0.006343841 0.4719238 0.2166748 9.39846e-4 0.21521 0.3054199 0.1821289 0.4682617 0.1033936 0.006343841 0.4719238 0.2166748 0.1821289 0.4682617 0.1033936 0.1075439 0.5742188 0.1837158 0.1807861 0.59375 0.1010742 0 0.1095581 3.46899e-4 0.135498 0.5986328 -0.07922363 3.62873e-4 0.6142578 -0.1776123 -0.1325684 0.5986328 -0.07788085 -0.1812744 0.5732422 0.1053467 -0.1790771 0.4675293 0.1033325 -0.1013794 0.5942383 0.1799316 0.006343841 0.4719238 0.2166748 -0.1013794 0.5942383 0.1799316 0.006343841 0.4719238 0.2166748 0.1075439 0.5742188 0.1837158 0 0.6020508 0.1824951 0 0.08142089 0 8.75592e-5 -0.005336761 0.18396 -0.1668701 -0.01122283 0.09533691 0.1733398 -0.01310729 0.09442138 0.1821289 0.4682617 0.1033936 0.1795654 0.4680176 -0.1046753 0.1866455 0.574707 -0.1079712 0.1807861 0.59375 0.1010742 0.1842041 0.6025391 0 -0.1668701 -0.01122283 0.09533691 -0.2563477 0.2198486 0.1494141 -0.2905273 0.213623 -0.00177288 -0.1021118 -0.01235961 -0.1665039 -0.251709 0.2171631 -0.1496582 0.1075439 0.5742188 0.1837158 0.1807861 0.59375 0.1010742 0.1345215 0.5986328 0.07513427 0.07806396 0.5991211 0.1324463 0 0.6020508 0.1824951 -0.1013794 0.5942383 0.1799316 -0.07568359 0.5996094 0.1335449 -0.1812744 0.5732422 0.1053467 -0.2077637 0.5947266 -6.72817e-4 -0.1516113 0.5991211 1.53661e-4 -0.1325684 0.5986328 -0.07788085 -0.1071777 0.574707 -0.1848145 -0.1021118 -0.01235961 -0.1665039 -0.251709 0.2171631 -0.1496582 8.4579e-5 0.2154541 -0.3027344 -0.1315917 0.3637695 -0.2282715 -0.1911621 0.4707031 -0.1046753 7.33852e-4 0.46875 -0.2105713 8.4579e-5 0.2154541 -0.3027344 -0.1021118 -0.01235961 -0.1665039 0.09576416 -0.01056671 -0.1593018 0.2661133 0.2119141 -0.1539307 0.131958 0.3640137 -0.2294922 0.1795654 0.4680176 -0.1046753 0.2661133 0.2119141 -0.1539307 0.2648926 0.3637695 0 0.1821289 0.4682617 0.1033936 0.2644043 0.2202148 0.1552734 0.2661133 0.2119141 -0.1539307 0.1733398 -0.01310729 0.09442138 0.09576416 -0.01056671 -0.1593018 7.33852e-4 0.46875 -0.2105713 -0.1071777 0.574707 -0.1848145 3.62873e-4 0.6142578 -0.1776123 0.09277343 0.6030273 -0.1616211 0.1866455 0.574707 -0.1079712 0.1795654 0.4680176 -0.1046753 -0.1668701 -0.01122283 0.09533691 8.75592e-5 -0.005336761 0.18396 9.39846e-4 0.21521 0.3054199 -0.2563477 0.2198486 0.1494141 -0.1298828 0.3637695 0.2280273 0.006343841 0.4719238 0.2166748 -0.1790771 0.4675293 0.1033325 -0.251709 0.2171631 -0.1496582 -0.2905273 0.213623 -0.00177288 -0.1911621 0.4707031 -0.1046753 -0.2563477 0.2198486 0.1494141 -0.1790771 0.4675293 0.1033325 -0.1812744 0.5732422 0.1053467 -0.2077637 0.5947266 -6.72817e-4</float_array>
          <technique_common>
            <accessor source="#pot__Mt_CmnTex_Etc_SheikerPot_A-mesh-positions-array" count="424" stride="3">
              <param name="X" type="float"/>
              <param name="Y" type="float"/>
              <param name="Z" type="float"/>
            </accessor>
          </technique_common>
        </source>
        <source id="pot__Mt_CmnTex_Etc_SheikerPot_A-mesh-normals">
          <float_array id="pot__Mt_CmnTex_Etc_SheikerPot_A-mesh-normals-array" count="861">0.09591287 0.9908422 0.09503978 0.0959419 0.9908341 0.09509491 0.09591966 0.9908403 0.09505265 0.09595137 0.9908314 0.09511291 0.0356729 0.9908091 0.1304796 0.03568673 0.9908396 0.1302433 0.03567618 0.9908163 0.1304242 0.03569126 0.9908497 0.1301659 -0.03432232 0.9908317 0.1306698 -0.03423124 0.9908534 0.130529 -0.03430122 0.9908367 0.1306371 -0.03420192 0.9908605 0.1304836 -0.09510338 0.9908466 0.09580391 -0.09521192 0.9908312 0.09585559 -0.09512877 0.9908431 0.09581595 -0.09524732 0.9908262 0.09587246 -0.1305611 0.9908219 0.03501254 -0.1305475 0.9908241 0.03500318 -0.1305016 0.9908311 0.03497159 -0.1304826 0.9908341 0.03495854 -0.1304825 0.9908344 -0.03494971 -0.1304514 0.9908385 -0.03495162 -0.1303519 0.9908514 -0.0349577 -0.1303088 0.990857 -0.03496032 -0.18077 -0.5243189 -0.8321129 -0.1913522 -0.5172666 -0.8341581 -0.1341781 -0.5541135 -0.8215562 -0.2437376 -0.3791226 -0.892669 -0.260244 -0.1343081 -0.956156 -0.2525689 -0.2755709 -0.9275072 -0.2598894 -0.1340447 -0.9562895 -0.2600917 0.1322145 -0.9564893 -0.2600023 0.1320618 -0.9565347 -0.2320715 0.4653298 -0.8541727 -0.2320612 0.46599 -0.8538155 -0.2187137 0.5533263 -0.8037378 -0.2190809 0.5543096 -0.8029598 -0.255599 0.2385855 -0.9368811 -0.2561635 0.2383923 -0.9367761 -0.2547928 -0.247765 -0.9347156 -0.2547035 -0.2482111 -0.9346216 -0.2614702 -0.1171425 -0.9580767 -0.261496 -0.1185399 -0.9578978 -0.2060513 0.6232669 -0.7543747 -0.2059252 0.6248135 -0.7531289 -0.1059847 0.9157096 -0.3876122 -0.1059848 0.9156914 -0.387655 -0.6202285 -0.4945918 -0.6088477 -0.6191129 -0.4924395 -0.611721 -0.6192796 -0.4927605 -0.6112937 -0.6567748 -0.3789666 -0.6519442 -0.6821298 -0.276223 -0.6770524 -0.7032229 -0.1345042 -0.6981305 -0.7032008 -0.134463 -0.6981607 -0.7034574 0.131796 -0.6984108 -0.7035045 0.1319442 -0.6983354 -0.6279616 0.4660367 -0.6232769 -0.6279733 0.4662458 -0.6231088 -0.5907717 0.5544425 -0.5861591 -0.5907389 0.5544856 -0.5861513 -0.6894899 0.2386062 -0.6838647 -0.6892025 0.2389014 -0.6840512 -0.6874696 -0.2493879 -0.6820493 -0.6882115 -0.248147 -0.6817537 -0.7049981 -0.1174382 -0.6994183 -0.7048586 -0.1175538 -0.6995396 -0.5539605 0.6251339 -0.5498503 -0.5536878 0.6260435 -0.5490897 -0.2853336 0.9156988 -0.2829849 -0.2849789 0.9159953 -0.2823823 0.8218782 -0.5543308 0.1312768 0.8342899 -0.5185646 0.1872196 0.8321517 -0.5257792 0.1762947 0.8936138 -0.3803284 0.2383376 0.9286063 -0.2762967 0.2476903 0.9574071 -0.1346874 0.2554039 0.9574395 -0.1346213 0.2553173 0.9576981 0.1323508 0.2555345 0.9577028 0.1323094 0.2555382 0.854283 0.4670314 0.2282152 0.8548194 0.4661781 0.2279511 0.8041902 0.5541117 0.2150309 0.8037027 0.5547679 0.215162 0.9381124 0.2386871 0.2509452 0.9380587 0.2387678 0.2510696 0.9355013 -0.2491992 0.2504739 0.9352442 -0.2495703 0.251064 0.9593073 -0.1170535 0.2569596 0.9594523 -0.1163794 0.2567237 0.7522648 0.6273535 0.2013087 0.7529476 0.6264685 0.201512 0.3876579 0.9159449 0.1037605 0.3873919 0.9160575 0.1037606 0.1020864 0.9159104 -0.3881838 0.1984692 0.6252582 -0.7547597 0.1018555 0.9161096 -0.3877743 0.198789 0.6240294 -0.755692 0.2523503 -0.1189337 -0.960299 0.2526301 -0.1181442 -0.9603229 0.2460189 -0.248894 -0.936764 0.2461636 -0.2488954 -0.9367254 0.2470277 0.2389692 -0.9390799 0.2477119 0.238944 -0.938906 0.2118523 0.5537065 -0.8053122 0.2112902 0.5546376 -0.8048191 0.2244299 0.4668938 -0.8553605 0.224826 0.4660596 -0.8557112 0.2521123 0.1322327 -0.9586209 0.2524181 0.1314978 -0.9586415 0.2524495 -0.1345369 -0.9582114 0.2521795 -0.1345473 -0.958281 0.2330871 -0.4057011 -0.8837857 0.233165 -0.4057197 -0.8837566 0.2134206 -0.546046 -0.8101145 0.2129566 -0.5463435 -0.810036 0.2822338 0.916188 -0.2845061 0.5498699 0.6248484 -0.5542632 0.2827008 0.9159591 -0.2847793 0.5502893 0.6241018 -0.5546878 0.6993489 -0.1180819 -0.7049595 0.6993872 -0.1183493 -0.7048767 0.6822309 -0.2487652 -0.6875151 0.6821743 -0.2490757 -0.6874588 0.683974 0.2389575 -0.6892597 0.6840488 0.2388996 -0.6892056 0.5860943 0.5546069 -0.5906817 0.5861069 0.5545591 -0.5907139 0.623204 0.4659955 -0.6280645 0.6230766 0.4661315 -0.62809 0.6980279 0.1322367 -0.7037546 0.6979269 0.1324338 -0.7038177 0.6976735 -0.1347095 -0.7036371 0.6977212 -0.13463 -0.703605 0.6433997 -0.4059782 -0.6490135 0.6433194 -0.4061047 -0.6490141 0.589877 -0.5458264 -0.5950789 0.5898971 -0.5458128 -0.5950713 0.1305904 0.9908372 0.0344634 0.1305749 0.9914385 -4.47083e-4 0.1305718 0.9908401 0.03445088 0.1305432 0.9914425 -6.38266e-4 0.1127714 0.9914456 -0.06571513 0.1127735 0.9914466 -0.06569612 0.06513243 0.9914375 -0.1131789 0.06529444 0.9914391 -0.1130721 2.0537e-4 0.9914435 -0.1305367 1.34345e-4 0.9914377 -0.1305809 -0.06537854 0.9914494 -0.1129328 -0.06549489 0.9914483 -0.1128756 -0.09594184 0.9908341 -0.09509491 -0.09595125 0.9908315 -0.09511286 0.7529849 0.6262336 -0.2021022 0.3870669 0.9162122 -0.1036081 0.3876907 0.915908 -0.1039641 0.7544308 0.6245598 -0.2018893 0.9591166 -0.1181007 -0.2571919 0.9592083 -0.1163329 -0.2576551 0.9353145 -0.2491182 -0.251251 0.9353082 -0.2492028 -0.2511904 0.9378256 0.238767 -0.2519399 0.9378111 0.2388601 -0.2519052 0.8041365 0.5538374 -0.2159366 0.8038107 0.5544351 -0.2156155 0.8545936 0.4659256 -0.2293106 0.8547803 0.4657353 -0.2290011 0.9573887 0.1320554 -0.2568429 0.9573236 0.1323638 -0.2569267 0.9570698 -0.1344704 -0.2567786 0.9570597 -0.1346704 -0.2567112 0.8828078 -0.4057595 -0.2366635 0.8828812 -0.4055407 -0.2367647 0.8094338 -0.5457263 -0.2167944 0.8093869 -0.5459058 -0.2165173 0.1956279 0.9207016 0.3376957 0.5536888 0.6260444 0.5490875 0.2849799 0.9159958 0.2823793 0.3861799 0.6377491 0.6664392 0.7048593 -0.1175525 0.699539 -5.05518e-4 0.637408 0.7705264 -4.07886e-4 0.9209126 0.389769 0.4981299 -0.1211749 0.8585938 0.68747 -0.2493872 0.6820492 -0.3839165 0.6379154 0.6675868 -0.1945648 0.9209197 0.3377152 -0.3359506 0.9212699 0.195957 -7.43756e-4 -0.1227786 0.9924339 0.4847202 -0.2564433 0.8362315 -0.6652772 0.6383541 0.3871826 -0.3897045 0.9209386 0.001591205 -0.4946668 -0.1222769 0.8604379 -0.7687852 0.6395013 0.002733528 -0.3880103 0.9159407 -0.102473 -0.7534354 0.6266835 -0.1990042 -0.857638 -0.122151 0.4995362 -0.9927104 -0.120475 0.0034343 -0.9601567 -0.1169364 -0.2538208 -0.4816735 -0.2568244 0.8378734 -0.9662964 -0.2574036 0.003840804 -0.9361157 -0.2495357 -0.2478296 -0.8349598 -0.2575368 0.4863302 -0.9387812 0.2389597 -0.2481697 -0.969053 0.2468226 0.003842055 -0.837235 0.2469228 0.4879209 -0.001283109 -0.2567893 0.9664666 -0.483437 0.2469255 0.8398313 -8.94358e-4 0.2468245 0.9690599 -0.4104724 0.5677114 0.7135939 -0.7110734 0.5682465 0.4140901 -0.8235903 0.5671792 0.002608895 -0.8046385 0.5543374 -0.2127608 -0.4368307 0.4795611 0.7610521 -0.8779443 0.4787554 0.002672314 -0.8550214 0.4668551 -0.2257984 -0.7587158 0.4789937 0.4414924 -0.9905824 0.1368839 0.003073215 -0.9583261 0.1322442 -0.2532243 -0.8563044 0.1364136 0.4981307 -0.4935145 0.1363969 0.8589758 -0.9902457 -0.1393001 0.003021955 -0.9580621 -0.1345486 -0.2530094 -0.8946094 -0.3793402 -0.2361676 -0.8558502 -0.1392539 0.4981255 -0.92075 -0.390143 0.00281465 -0.8420415 -0.4909265 -0.2235114 -0.8637098 -0.50398 0.003115653 -0.7952771 -0.3909361 0.4633609 -0.7442283 -0.5057967 0.436227 -0.4934737 -0.1396579 0.8584751 -0.4588641 -0.3912284 0.7977368 -0.4304779 -0.50542 0.7478231 -9.26967e-4 -0.505779 0.8626626 -2.41143e-4 -0.3911973 0.9203068 0.4324937 -0.50577 0.7464221 0.6565303 -0.3796333 0.6518026 0.617971 -0.4931325 0.6123172 0.4617585 -0.3909625 0.7961957 0.7033033 -0.1345611 0.6980386 3.89177e-5 -0.1393198 0.9902474 0.4967765 -0.1396749 0.8565653 5.4214e-5 0.1367403 0.990607 0.4968807 0.1365579 0.8570075 0.7037641 0.1321247 0.6980395 9.28191e-6 0.4795654 0.8775061 0.4403759 0.4793607 0.7591327 0.6279731 0.4662462 0.6231086 -9.7275e-5 0.5676286 0.8232848 0.4128738 0.5679078 0.7120506 0.5907386 0.5544863 0.586151 0.4860095 0.2464432 0.838487 0.6892027 0.2389008 0.6840512 -0.8253712 0.2997231 0.4784649 0.002022683 0.9999972 -0.00123912 -0.9541278 0.2993996 -1.5479e-4 -0.4735984 0.2995525 0.8282348 -0.8276903 0.2985534 -0.4751786 0.00513029 0.2987453 0.9543191 -0.4790148 0.297478 -0.8258642 0.4811968 0.2975775 0.8245589 0.001432955 0.2963615 -0.9550749 0.8289634 0.2963509 0.4743375 0.4767631 0.2955361 -0.827862 0.9553381 0.2954899 -0.00386095 0.8256047 0.2951456 -0.4809013 0 -1 0 -0.1108101 -0.9747638 0.1937956 0 -1 0 0.002215266 -0.9999976 8.87353e-5 -0.1928342 -0.9748265 0.1119301 0 -1 0 -0.00756818 -0.9725389 0.2326173 -0.2315942 -0.9727516 0.01088863 0.09720784 -0.9779469 0.1848528 0.001290142 -0.9999961 0.002497613 -9.75973e-4 -0.9999979 0.001883089 -0.005926489 -0.9999517 0.007847309 0.186495 -0.9763925 0.1089832 0.2154879 -0.9765061 -9.54756e-4 0 -1 0 0 -1 0 0.1870417 -0.9762521 -0.1093043 0 -1 0 0.1077791 -0.9763115 -0.1876159 2.70041e-4 -0.976473 -0.2156396 0 -1 0 -0.1075528 -0.9767588 -0.185404 0 -1 0 -0.1833203 -0.9784998 -0.09450823</float_array>
          <technique_common>
            <accessor source="#pot__Mt_CmnTex_Etc_SheikerPot_A-mesh-normals-array" count="287" stride="3">
              <param name="X" type="float"/>
              <param name="Y" type="float"/>
              <param name="Z" type="float"/>
            </accessor>
          </technique_common>
        </source>
        <source id="pot__Mt_CmnTex_Etc_SheikerPot_A-mesh-map">
          <float_array id="pot__Mt_CmnTex_Etc_SheikerPot_A-mesh-map-array" count="1872">1.047852 0.6047363 1.091797 0.6047363 1.047852 0.5649414 1.047852 0.5649414 1.091797 0.6047363 1.091797 0.5649414 1.00293 0.6047363 1.047852 0.6047363 1.00293 0.5649414 1.00293 0.5649414 1.047852 0.6047363 1.047852 0.5649414 0.9570313 0.6047363 1.00293 0.6047363 0.9570313 0.5649414 0.9570313 0.5649414 1.00293 0.6047363 1.00293 0.5649414 0.9111328 0.6047363 0.9570313 0.6047363 0.9111328 0.5649414 0.9111328 0.5649414 0.9570313 0.6047363 0.9570313 0.5649414 0.9111328 0.6047363 0.9111328 0.5649414 0.8686523 0.6047363 0.8686523 0.6047363 0.9111328 0.5649414 0.8686523 0.5649414 0.8686523 0.6047363 0.8686523 0.5649414 0.8232422 0.6047363 0.8232422 0.6047363 0.8686523 0.5649414 0.8232422 0.5649414 1.047852 0.00390625 1.00293 0.07519531 1.00293 0.00390625 1.00293 0.07519531 1.047852 0.00390625 1.047852 0.07519531 1.047852 0.1391602 1.00293 0.07519531 1.047852 0.07519531 1.00293 0.07519531 1.047852 0.1391602 1.00293 0.1391602 1.00293 0.1391602 1.047852 0.1391602 1.00293 0.1928711 1.00293 0.1928711 1.047852 0.1391602 1.047852 0.1928711 1.00293 0.1928711 1.047852 0.1928711 1.00293 0.2387695 1.00293 0.2387695 1.047852 0.1928711 1.047852 0.2387695 1.00293 0.2387695 1.047852 0.2387695 1.00293 0.2734375 1.00293 0.2734375 1.047852 0.2387695 1.047852 0.2734375 1.00293 0.2734375 1.047852 0.2734375 1.00293 0.3759766 1.00293 0.3759766 1.047852 0.2734375 1.047852 0.3759766 1.00293 0.3759766 1.047852 0.3759766 1.047852 0.4838867 1.00293 0.3759766 1.047852 0.4838867 1.00293 0.4838867 1.00293 0.4838867 1.047852 0.4838867 1.047852 0.532959 1.00293 0.4838867 1.047852 0.532959 1.00293 0.532959 1.00293 0.532959 1.047852 0.532959 1.00293 0.5649414 1.00293 0.5649414 1.047852 0.532959 1.047852 0.5649414 1.00293 0.5649414 1.047852 0.5649414 1.00293 0.6047363 1.00293 0.6047363 1.047852 0.5649414 1.047852 0.6047363 1.091797 0.00390625 1.091797 0.07519531 1.047852 0.00390625 1.047852 0.00390625 1.091797 0.07519531 1.047852 0.07519531 1.091797 0.07519531 1.091797 0.1391602 1.047852 0.07519531 1.047852 0.07519531 1.091797 0.1391602 1.047852 0.1391602 1.047852 0.1391602 1.091797 0.1391602 1.047852 0.1928711 1.047852 0.1928711 1.091797 0.1391602 1.091797 0.1928711 1.047852 0.1928711 1.091797 0.1928711 1.047852 0.2387695 1.047852 0.2387695 1.091797 0.1928711 1.091797 0.2387695 1.047852 0.2387695 1.091797 0.2387695 1.047852 0.2734375 1.047852 0.2734375 1.091797 0.2387695 1.091797 0.2734375 1.047852 0.2734375 1.091797 0.2734375 1.047852 0.3759766 1.047852 0.3759766 1.091797 0.2734375 1.091797 0.3759766 1.047852 0.3759766 1.091797 0.3759766 1.091797 0.4838867 1.047852 0.3759766 1.091797 0.4838867 1.047852 0.4838867 1.047852 0.4838867 1.091797 0.4838867 1.047852 0.532959 1.047852 0.532959 1.091797 0.4838867 1.091797 0.532959 1.047852 0.532959 1.091797 0.532959 1.047852 0.5649414 1.047852 0.5649414 1.091797 0.532959 1.091797 0.5649414 1.047852 0.5649414 1.091797 0.5649414 1.047852 0.6047363 1.047852 0.6047363 1.091797 0.5649414 1.091797 0.6047363 0.8686523 0.00390625 0.8686523 0.07519531 0.8232422 0.00390625 0.8232422 0.00390625 0.8686523 0.07519531 0.8232422 0.07519531 0.8686523 0.07519531 0.8686523 0.1391602 0.8232422 0.07519531 0.8232422 0.07519531 0.8686523 0.1391602 0.8232422 0.1391602 0.8232422 0.1391602 0.8686523 0.1391602 0.8232422 0.1928711 0.8232422 0.1928711 0.8686523 0.1391602 0.8686523 0.1928711 0.8232422 0.1928711 0.8686523 0.1928711 0.8232422 0.2387695 0.8232422 0.2387695 0.8686523 0.1928711 0.8686523 0.2387695 0.8232422 0.2387695 0.8686523 0.2387695 0.8686523 0.2734375 0.8232422 0.2387695 0.8686523 0.2734375 0.8232422 0.2734375 0.8232422 0.2734375 0.8686523 0.2734375 0.8686523 0.3759766 0.8232422 0.2734375 0.8686523 0.3759766 0.8232422 0.3759766 0.8232422 0.3759766 0.8686523 0.3759766 0.8686523 0.4838867 0.8232422 0.3759766 0.8686523 0.4838867 0.8232422 0.4838867 0.8232422 0.4838867 0.8686523 0.4838867 0.8232422 0.532959 0.8232422 0.532959 0.8686523 0.4838867 0.8686523 0.532959 0.8232422 0.532959 0.8686523 0.532959 0.8232422 0.5649414 0.8232422 0.5649414 0.8686523 0.532959 0.8686523 0.5649414 0.8232422 0.5649414 0.8686523 0.5649414 0.8686523 0.6047363 0.8232422 0.5649414 0.8686523 0.6047363 0.8232422 0.6047363 0.9570313 0.6047363 1.00293 0.5649414 1.00293 0.6047363 1.00293 0.5649414 0.9570313 0.6047363 0.9570313 0.5649414 1.00293 0.5649414 0.9570313 0.5649414 1.00293 0.532959 1.00293 0.532959 0.9570313 0.5649414 0.9570313 0.532959 1.00293 0.532959 0.9570313 0.532959 0.9570313 0.4838867 1.00293 0.532959 0.9570313 0.4838867 1.00293 0.4838867 1.00293 0.4838867 0.9570313 0.4838867 0.9570313 0.3759766 1.00293 0.4838867 0.9570313 0.3759766 1.00293 0.3759766 1.00293 0.3759766 0.9570313 0.3759766 1.00293 0.2734375 1.00293 0.2734375 0.9570313 0.3759766 0.9570313 0.2734375 1.00293 0.2734375 0.9570313 0.2734375 1.00293 0.2387695 1.00293 0.2387695 0.9570313 0.2734375 0.9570313 0.2387695 1.00293 0.2387695 0.9570313 0.2387695 1.00293 0.1928711 1.00293 0.1928711 0.9570313 0.2387695 0.9570313 0.1928711 1.00293 0.1928711 0.9570313 0.1928711 1.00293 0.1391602 1.00293 0.1391602 0.9570313 0.1928711 0.9570313 0.1391602 1.00293 0.1391602 0.9570313 0.1391602 0.9570313 0.07519531 1.00293 0.1391602 0.9570313 0.07519531 1.00293 0.07519531 1.00293 0.07519531 0.9570313 0.07519531 0.9570313 0.00390625 1.00293 0.07519531 0.9570313 0.00390625 1.00293 0.00390625 0.9111328 0.6047363 0.9570313 0.5649414 0.9570313 0.6047363 0.9570313 0.5649414 0.9111328 0.6047363 0.9111328 0.5649414 0.9570313 0.5649414 0.9111328 0.5649414 0.9570313 0.532959 0.9570313 0.532959 0.9111328 0.5649414 0.9111328 0.532959 0.9570313 0.532959 0.9111328 0.532959 0.9570313 0.4838867 0.9570313 0.4838867 0.9111328 0.532959 0.9111328 0.4838867 0.9570313 0.4838867 0.9111328 0.4838867 0.9111328 0.3759766 0.9570313 0.4838867 0.9111328 0.3759766 0.9570313 0.3759766 0.9570313 0.3759766 0.9111328 0.3759766 0.9570313 0.2734375 0.9570313 0.2734375 0.9111328 0.3759766 0.9111328 0.2734375 0.9570313 0.2734375 0.9111328 0.2734375 0.9570313 0.2387695 0.9570313 0.2387695 0.9111328 0.2734375 0.9111328 0.2387695 0.9570313 0.2387695 0.9111328 0.2387695 0.9570313 0.1928711 0.9570313 0.1928711 0.9111328 0.2387695 0.9111328 0.1928711 0.9570313 0.1928711 0.9111328 0.1928711 0.9570313 0.1391602 0.9570313 0.1391602 0.9111328 0.1928711 0.9111328 0.1391602 0.9570313 0.1391602 0.9111328 0.1391602 0.9111328 0.07519531 0.9570313 0.1391602 0.9111328 0.07519531 0.9570313 0.07519531 0.9570313 0.07519531 0.9111328 0.07519531 0.9111328 0.00390625 0.9570313 0.07519531 0.9111328 0.00390625 0.9570313 0.00390625 0.8232422 0.604248 0.8686523 0.604248 0.8232422 0.5649414 0.8232422 0.5649414 0.8686523 0.604248 0.8686523 0.5649414 0.8686523 0.5649414 0.8686523 0.604248 0.9111328 0.604248 0.8686523 0.5649414 0.9111328 0.604248 0.9111328 0.5649414 0.9111328 0.5649414 0.9111328 0.604248 0.9570313 0.604248 0.9111328 0.5649414 0.9570313 0.604248 0.9570313 0.5649414 0.9570313 0.5649414 0.9570313 0.604248 1.00293 0.5649414 1.00293 0.5649414 0.9570313 0.604248 1.00293 0.604248 1.00293 0.5649414 1.00293 0.604248 1.047852 0.5649414 1.047852 0.5649414 1.00293 0.604248 1.047852 0.604248 1.047852 0.5649414 1.047852 0.604248 1.091797 0.604248 1.047852 0.5649414 1.091797 0.604248 1.091797 0.5649414 0.8686523 0.5649414 0.9111328 0.6047363 0.8686523 0.6047363 0.9111328 0.6047363 0.8686523 0.5649414 0.9111328 0.5649414 0.9111328 0.5649414 0.8686523 0.5649414 0.9111328 0.532959 0.9111328 0.532959 0.8686523 0.5649414 0.8686523 0.532959 0.9111328 0.532959 0.8686523 0.532959 0.9111328 0.4838867 0.9111328 0.4838867 0.8686523 0.532959 0.8686523 0.4838867 0.9111328 0.4838867 0.8686523 0.4838867 0.8686523 0.3759766 0.9111328 0.4838867 0.8686523 0.3759766 0.9111328 0.3759766 0.9111328 0.3759766 0.8686523 0.3759766 0.8686523 0.2734375 0.9111328 0.3759766 0.8686523 0.2734375 0.9111328 0.2734375 0.9111328 0.2734375 0.8686523 0.2734375 0.8686523 0.2387695 0.9111328 0.2734375 0.8686523 0.2387695 0.9111328 0.2387695 0.9111328 0.2387695 0.8686523 0.2387695 0.9111328 0.1928711 0.9111328 0.1928711 0.8686523 0.2387695 0.8686523 0.1928711 0.9111328 0.1928711 0.8686523 0.1928711 0.9111328 0.1391602 0.9111328 0.1391602 0.8686523 0.1928711 0.8686523 0.1391602 0.9111328 0.1391602 0.8686523 0.1391602 0.8686523 0.07519531 0.9111328 0.1391602 0.8686523 0.07519531 0.9111328 0.07519531 0.9111328 0.07519531 0.8686523 0.07519531 0.9111328 0.00390625 0.9111328 0.00390625 0.8686523 0.07519531 0.8686523 0.00390625 1.047852 0.604248 1.091797 0.5649414 1.091797 0.604248 1.091797 0.5649414 1.047852 0.604248 1.047852 0.5649414 1.091797 0.5649414 1.047852 0.5649414 1.091797 0.532959 1.047852 0.5649414 1.047852 0.604248 1.00293 0.5649414 1.00293 0.5649414 1.047852 0.604248 1.00293 0.604248 1.091797 0.532959 1.047852 0.5649414 1.047852 0.532959 1.047852 0.532959 1.047852 0.5649414 1.00293 0.5649414 1.091797 0.532959 1.047852 0.532959 1.091797 0.4838867 1.00293 0.5649414 1.00293 0.604248 0.9570313 0.5649414 0.9570313 0.5649414 1.00293 0.604248 0.9570313 0.604248 0.9570313 0.5649414 0.9570313 0.604248 0.9111328 0.604248 1.047852 0.532959 1.00293 0.5649414 1.00293 0.532959 1.00293 0.532959 1.00293 0.5649414 0.9570313 0.5649414 1.091797 0.4838867 1.047852 0.532959 1.047852 0.4838867 1.047852 0.4838867 1.047852 0.532959 1.00293 0.532959 0.9570313 0.5649414 0.9111328 0.604248 0.9111328 0.5649414 0.9111328 0.5649414 0.9111328 0.604248 0.8686523 0.604248 1.00293 0.532959 0.9570313 0.5649414 0.9570313 0.532959 0.9570313 0.532959 0.9570313 0.5649414 0.9111328 0.5649414 0.9111328 0.5649414 0.8686523 0.604248 0.8686523 0.5649414 0.8686523 0.5649414 0.8686523 0.604248 0.8232422 0.604248 0.8686523 0.5649414 0.8232422 0.604248 0.8232422 0.5649414 0.9111328 0.5649414 0.8686523 0.5649414 0.9111328 0.532959 0.9111328 0.5649414 0.9111328 0.532959 0.9570313 0.532959 0.8686523 0.5649414 0.8232422 0.5649414 0.8686523 0.532959 0.8686523 0.5649414 0.8686523 0.532959 0.9111328 0.532959 0.8686523 0.532959 0.8232422 0.5649414 0.8232422 0.532959 0.9570313 0.532959 0.9111328 0.532959 0.9570313 0.4838867 0.8686523 0.532959 0.8232422 0.532959 0.8686523 0.4838867 0.8686523 0.4838867 0.8232422 0.532959 0.8232422 0.4838867 0.9111328 0.532959 0.8686523 0.532959 0.9111328 0.4838867 0.9111328 0.4838867 0.8686523 0.532959 0.8686523 0.4838867 0.9111328 0.532959 0.9111328 0.4838867 0.9570313 0.4838867 0.8686523 0.4838867 0.8232422 0.4838867 0.8232422 0.3759766 0.9111328 0.4838867 0.8686523 0.4838867 0.8686523 0.3759766 0.8686523 0.3759766 0.8686523 0.4838867 0.8232422 0.3759766 0.9570313 0.4838867 0.9111328 0.4838867 0.9111328 0.3759766 0.9111328 0.3759766 0.9111328 0.4838867 0.8686523 0.3759766 1.00293 0.4838867 0.9570313 0.532959 0.9570313 0.4838867 0.9570313 0.532959 1.00293 0.4838867 1.00293 0.532959 1.00293 0.532959 1.00293 0.4838867 1.047852 0.4838867 1.00293 0.4838867 0.9570313 0.4838867 0.9570313 0.3759766 0.9570313 0.3759766 0.9570313 0.4838867 0.9111328 0.3759766 1.047852 0.4838867 1.00293 0.4838867 1.00293 0.3759766 1.00293 0.3759766 1.00293 0.4838867 0.9570313 0.3759766 0.9570313 0.3759766 0.9111328 0.3759766 0.9570313 0.2734375 0.9570313 0.3759766 0.9570313 0.2734375 1.00293 0.3759766 0.9111328 0.2734375 0.9111328 0.3759766 0.8686523 0.3759766 0.9111328 0.3759766 0.9111328 0.2734375 0.9570313 0.2734375 0.8686523 0.2734375 0.8686523 0.3759766 0.8232422 0.3759766 0.8686523 0.3759766 0.8686523 0.2734375 0.9111328 0.2734375 0.8686523 0.2734375 0.8232422 0.3759766 0.8232422 0.2734375 0.9570313 0.2734375 0.9111328 0.2734375 0.9570313 0.2382813 0.8686523 0.2734375 0.8232422 0.2734375 0.8686523 0.2382813 0.8686523 0.2382813 0.8232422 0.2734375 0.8232422 0.2382813 0.9111328 0.2734375 0.8686523 0.2734375 0.9111328 0.2382813 0.9111328 0.2382813 0.8686523 0.2734375 0.8686523 0.2382813 0.9111328 0.2734375 0.9111328 0.2382813 0.9570313 0.2382813 0.8686523 0.2382813 0.8232422 0.2382813 0.8686523 0.1928711 0.8686523 0.1928711 0.8232422 0.2382813 0.8232422 0.1928711 0.9111328 0.2382813 0.8686523 0.2382813 0.9111328 0.1928711 0.9111328 0.1928711 0.8686523 0.2382813 0.8686523 0.1928711 0.9111328 0.2382813 0.9111328 0.1928711 0.9570313 0.1928711 0.9111328 0.2382813 0.9570313 0.1928711 0.9570313 0.2382813 0.8686523 0.1928711 0.8232422 0.1928711 0.8686523 0.1391602 0.8686523 0.1391602 0.8232422 0.1928711 0.8232422 0.1391602 0.8686523 0.1391602 0.8232422 0.1391602 0.8232422 0.07519531 0.9111328 0.1928711 0.8686523 0.1928711 0.9111328 0.1391602 0.9111328 0.1391602 0.8686523 0.1928711 0.8686523 0.1391602 0.8686523 0.1391602 0.8232422 0.07519531 0.8686523 0.07519531 0.8686523 0.1391602 0.8686523 0.07519531 0.9111328 0.1391602 0.8686523 0.07519531 0.8232422 0.07519531 0.8232422 0.003417968 0.8686523 0.07519531 0.8232422 0.003417968 0.8686523 0.003417968 0.8686523 0.07519531 0.8686523 0.003417968 0.9111328 0.07519531 0.8686523 0.07519531 0.9111328 0.07519531 0.9111328 0.1391602 0.9111328 0.07519531 0.8686523 0.003417968 0.9111328 0.003417968 0.9570313 0.1391602 0.9111328 0.1928711 0.9111328 0.1391602 0.9570313 0.1391602 0.9111328 0.1391602 0.9111328 0.07519531 0.9111328 0.1928711 0.9570313 0.1391602 0.9570313 0.1928711 0.9111328 0.07519531 0.9111328 0.003417968 0.9570313 0.07519531 0.9111328 0.07519531 0.9570313 0.07519531 0.9570313 0.1391602 0.9570313 0.07519531 0.9111328 0.003417968 0.9570313 0.003417968 0.9570313 0.07519531 0.9570313 0.003417968 1.00293 0.003417968 0.9570313 0.07519531 1.00293 0.003417968 1.00293 0.07519531 0.9570313 0.07519531 1.00293 0.07519531 0.9570313 0.1391602 1.00293 0.07519531 1.00293 0.003417968 1.047852 0.003417968 1.091797 0.07519531 1.047852 0.003417968 1.091797 0.003417968 1.047852 0.003417968 1.091797 0.07519531 1.047852 0.07519531 1.047852 0.003417968 1.047852 0.07519531 1.00293 0.07519531 1.047852 0.07519531 1.091797 0.07519531 1.091797 0.1391602 0.9570313 0.1391602 1.00293 0.07519531 1.00293 0.1391602 1.00293 0.1391602 1.00293 0.07519531 1.047852 0.07519531 1.047852 0.07519531 1.091797 0.1391602 1.047852 0.1391602 1.047852 0.07519531 1.047852 0.1391602 1.00293 0.1391602 0.9570313 0.1391602 1.00293 0.1391602 1.00293 0.1928711 1.00293 0.1928711 1.00293 0.1391602 1.047852 0.1391602 0.9570313 0.1391602 1.00293 0.1928711 0.9570313 0.1928711 0.9570313 0.1928711 1.00293 0.1928711 0.9570313 0.2382813 1.047852 0.1391602 1.091797 0.1391602 1.047852 0.1928711 1.047852 0.1391602 1.047852 0.1928711 1.00293 0.1928711 1.047852 0.1928711 1.091797 0.1391602 1.091797 0.1928711 0.9570313 0.2382813 1.00293 0.1928711 1.00293 0.2382813 1.00293 0.2382813 1.00293 0.1928711 1.047852 0.1928711 1.047852 0.1928711 1.091797 0.1928711 1.047852 0.2382813 1.047852 0.1928711 1.047852 0.2382813 1.00293 0.2382813 1.047852 0.2382813 1.091797 0.1928711 1.091797 0.2382813 0.9570313 0.2382813 1.00293 0.2382813 1.00293 0.2734375 0.9570313 0.2382813 1.00293 0.2734375 0.9570313 0.2734375 0.9570313 0.2734375 1.00293 0.2734375 1.00293 0.3759766 1.00293 0.2382813 1.047852 0.2382813 1.047852 0.2734375 1.047852 0.2734375 1.047852 0.2382813 1.091797 0.2382813 1.00293 0.2382813 1.047852 0.2734375 1.00293 0.2734375 1.047852 0.2734375 1.091797 0.2382813 1.091797 0.2734375 1.00293 0.3759766 1.00293 0.2734375 1.047852 0.3759766 1.047852 0.3759766 1.00293 0.2734375 1.047852 0.2734375 1.047852 0.3759766 1.047852 0.2734375 1.091797 0.2734375 1.00293 0.3759766 1.047852 0.3759766 1.047852 0.4838867 1.047852 0.3759766 1.091797 0.2734375 1.091797 0.3759766 1.047852 0.4838867 1.047852 0.3759766 1.091797 0.4838867 1.091797 0.4838867 1.047852 0.3759766 1.091797 0.3759766 1.036133 -1.119141 0.9995117 -1 0.9995117 -1.136719 0.9995117 -1 1.036133 -1.119141 1.063477 -1.068359 0.9995117 -1.136719 0.9995117 -1 0.9628906 -1.119141 0.9995117 -1 1.063477 -1.068359 1.073242 -1 0.9628906 -1.119141 0.9995117 -1 0.9360352 -1.068359 0.9995117 -1 1.073242 -1 1.063477 -0.9316406 0.9360352 -1.068359 0.9995117 -1 0.9262695 -1 0.9995117 -1 1.063477 -0.9316406 1.036133 -0.8808594 0.9262695 -1 0.9995117 -1 0.9360352 -0.9316406 0.9995117 -1 1.036133 -0.8808594 0.9995117 -0.8632813 0.9360352 -0.9316406 0.9995117 -1 0.9628906 -0.8808594 0.9628906 -0.8808594 0.9995117 -1 0.9995117 -0.8632813 1.041992 1.135498 1.063477 1.069214 1.072266 1.078918 1.072266 1.078918 1.063477 1.069214 1.083008 1 1.063477 1.069214 1.041992 1.135498 1.037109 1.118835 1.037109 1.118835 1.041992 1.135498 1 1.15625 1.083008 1 1.063477 1.069214 1.073242 1 1.037109 1.118835 1 1.15625 1 1.136963 1.083008 1 1.073242 1 1.063477 0.9338379 1.083008 1 1.063477 0.9338379 1.072266 0.9241333 1.072266 0.9241333 1.063477 0.9338379 1.041992 0.8675537 1.073242 1 1.063477 1.069214 1 1 1 1 1.063477 1.069214 1.037109 1.118835 1.073242 1 1 1 1.063477 0.9338379 1 1 1.037109 1.118835 1 1.136963 1.041992 0.8675537 1.063477 0.9338379 1.037109 0.8842163 1.037109 0.8842163 1.063477 0.9338379 1 1 1.041992 0.8675537 1.037109 0.8842163 1 0.8660889 1 0.8660889 1.037109 0.8842163 1 1 1.041992 0.8675537 1 0.8660889 1 0.8468018 1 0.8468018 1 0.8660889 0.9594727 0.8675537 0.9594727 0.8675537 1 0.8660889 0.9643555 0.8842163 0.9643555 0.8842163 1 0.8660889 1 1 0.9594727 0.8675537 0.9643555 0.8842163 0.9287109 0.9241333 0.9287109 0.9241333 0.9643555 0.8842163 0.9379883 0.9338379 0.9379883 0.9338379 0.9643555 0.8842163 1 1 0.9287109 0.9241333 0.9379883 0.9338379 0.9282227 1 0.9282227 1 0.9379883 0.9338379 1 1 0.9287109 0.9241333 0.9282227 1 0.9179688 1 0.9179688 1 0.9282227 1 0.9379883 1.069214 0.9379883 1.069214 0.9282227 1 1 1 0.9179688 1 0.9379883 1.069214 0.9287109 1.078918 0.9379883 1.069214 1 1 0.9643555 1.118835 0.9379883 1.069214 0.9643555 1.118835 0.9287109 1.078918 0.9643555 1.118835 1 1 1 1.136963 0.9643555 1.118835 1 1.136963 1 1.15625 0.9287109 1.078918 0.9643555 1.118835 0.9594727 1.135498 0.9594727 1.135498 0.9643555 1.118835 1 1.15625</float_array>
          <technique_common>
            <accessor source="#pot__Mt_CmnTex_Etc_SheikerPot_A-mesh-map-array" count="936" stride="2">
              <param name="S" type="float"/>
              <param name="T" type="float"/>
            </accessor>
          </technique_common>
        </source>
        <vertices id="pot__Mt_CmnTex_Etc_SheikerPot_A-mesh-vertices">
          <input semantic="POSITION" source="#pot__Mt_CmnTex_Etc_SheikerPot_A-mesh-positions"/>
        </vertices>
        <triangles material="Mt_CmnTex_Etc_SheikerPot_A-material" count="312">
          <input semantic="VERTEX" source="#pot__Mt_CmnTex_Etc_SheikerPot_A-mesh-vertices" offset="0"/>
          <input semantic="NORMAL" source="#pot__Mt_CmnTex_Etc_SheikerPot_A-mesh-normals" offset="1"/>
          <input semantic="TEXCOORD" source="#pot__Mt_CmnTex_Etc_SheikerPot_A-mesh-map" offset="2" set="0"/>
          <p>0 0 0 1 1 1 2 2 2 2 2 3 1 1 4 3 3 5 4 4 6 5 5 7 6 6 8 6 6 9 5 5 10 7 7 11 8 8 12 9 9 13 10 10 14 10 10 15 9 9 16 11 11 17 12 12 18 13 13 19 14 14 20 14 14 21 13 13 22 15 15 23 16 16 24 17 17 25 18 18 26 18 18 27 17 17 28 19 19 29 20 20 30 21 21 31 22 22 32 22 22 33 21 21 34 23 23 35 24 24 36 25 25 37 26 26 38 25 25 39 24 24 40 27 27 41 28 28 42 29 29 43 27 27 44 29 29 45 28 28 46 30 30 47 30 30 48 28 28 49 31 31 50 31 31 51 28 28 52 32 32 53 31 31 54 32 32 55 33 33 56 33 33 57 32 32 58 34 34 59 33 33 60 34 34 61 35 35 62 35 35 63 34 34 64 36 36 65 35 35 66 36 36 67 37 37 68 37 37 69 36 36 70 38 38 71 37 37 72 38 38 73 39 39 74 37 37 75 39 39 76 40 40 77 40 40 78 39 39 79 41 41 80 40 40 81 41 41 82 42 42 83 42 42 84 41 41 85 43 43 86 43 43 87 41 41 88 44 44 89 43 43 90 44 44 91 45 45 92 45 45 93 44 44 94 46 46 95 47 47 96 48 48 97 49 49 98 49 49 99 48 48 100 50 50 101 51 51 102 52 52 103 50 50 104 50 50 105 52 52 106 53 53 107 53 53 108 52 52 109 54 54 110 54 54 111 52 52 112 55 55 113 54 54 114 55 55 115 56 56 116 56 56 117 55 55 118 57 57 119 56 56 120 57 57 121 58 58 122 58 58 123 57 57 124 59 59 125 58 58 126 59 59 127 60 60 128 60 60 129 59 59 130 61 61 131 60 60 132 61 61 133 62 62 134 60 60 135 62 62 136 63 63 137 63 63 138 62 62 139 64 64 140 64 64 141 62 62 142 65 65 143 64 64 144 65 65 145 66 66 146 66 66 147 65 65 148 67 67 149 66 66 150 67 67 151 68 68 152 68 68 153 67 67 154 69 69 155 70 70 156 71 71 157 72 72 158 72 72 159 71 71 160 73 73 161 74 74 162 75 75 163 73 73 164 73 73 165 75 75 166 76 76 167 76 76 168 75 75 169 77 77 170 77 77 171 75 75 172 78 78 173 77 77 174 78 78 175 79 79 176 79 79 177 78 78 178 80 80 179 79 79 180 80 80 181 81 81 182 79 79 183 81 81 184 82 82 185 82 82 186 81 81 187 83 83 188 82 82 189 83 83 190 84 84 191 84 84 192 83 83 193 85 85 194 84 84 195 85 85 196 86 86 197 86 86 198 85 85 199 87 87 200 87 87 201 85 85 202 88 88 203 87 87 204 88 88 205 89 89 206 89 89 207 88 88 208 90 90 209 89 89 210 90 90 211 91 91 212 89 89 213 91 91 214 92 92 215 93 93 216 94 94 217 95 95 218 94 94 219 93 93 220 96 96 221 94 94 222 96 96 223 97 97 224 97 97 225 96 96 226 98 98 227 97 97 228 98 98 229 99 99 230 97 97 231 99 99 232 100 100 233 100 100 234 99 99 235 101 101 236 100 100 237 101 101 238 102 102 239 102 102 240 101 101 241 103 103 242 103 103 243 101 101 244 104 104 245 103 103 246 104 104 247 105 105 248 105 105 249 104 104 250 106 106 251 105 105 252 106 106 253 107 107 254 107 107 255 106 106 256 108 108 257 107 107 258 108 108 259 109 109 260 109 109 261 108 108 262 110 110 263 109 109 264 110 110 265 111 111 266 109 109 267 111 111 268 112 112 269 112 112 270 111 111 271 113 113 272 112 112 273 113 113 274 114 114 275 115 115 276 116 116 277 117 117 278 116 116 279 115 115 280 118 118 281 116 116 282 118 118 283 119 119 284 119 119 285 118 118 286 120 120 287 119 119 288 120 120 289 121 121 290 121 121 291 120 120 292 122 122 293 121 121 294 122 122 295 123 123 296 121 121 297 123 123 298 124 124 299 124 124 300 123 123 301 125 125 302 125 125 303 123 123 304 126 126 305 125 125 306 126 126 307 127 127 308 127 127 309 126 126 310 128 128 311 127 127 312 128 128 313 129 129 314 129 129 315 128 128 316 130 130 317 129 129 318 130 130 319 131 131 320 131 131 321 130 130 322 132 132 323 131 131 324 132 132 325 133 133 326 131 131 327 133 133 328 134 134 329 134 134 330 133 133 331 135 135 332 134 134 333 135 135 334 136 136 335 137 137 336 138 138 337 139 139 338 139 139 339 138 138 340 140 140 341 140 140 342 138 138 343 141 141 344 140 140 345 141 141 346 142 142 347 142 142 348 141 141 349 143 143 350 142 142 351 143 143 352 144 144 353 144 144 354 143 143 355 145 145 356 145 145 357 143 143 358 146 146 359 145 145 360 146 146 361 147 147 362 147 147 363 146 146 364 148 148 365 147 147 366 148 148 367 149 149 368 147 147 369 149 149 370 150 150 371 151 151 372 152 152 373 153 153 374 152 152 375 151 151 376 154 154 377 154 154 378 151 151 379 155 155 380 155 155 381 151 151 382 156 156 383 155 155 384 156 156 385 157 157 386 157 157 387 156 156 388 158 158 389 157 157 390 158 158 391 159 159 392 157 157 393 159 159 394 160 160 395 160 160 396 159 159 397 161 161 398 160 160 399 161 161 400 162 162 401 162 162 402 161 161 403 163 163 404 162 162 405 163 163 406 164 164 407 164 164 408 163 163 409 165 165 410 165 165 411 163 163 412 166 166 413 165 165 414 166 166 415 167 167 416 167 167 417 166 166 418 168 168 419 167 167 420 168 168 421 169 169 422 167 167 423 169 169 424 170 170 425 170 170 426 169 169 427 171 171 428 171 171 429 169 169 430 172 172 431 173 173 432 174 174 433 175 175 434 174 174 435 173 173 436 176 176 437 174 174 438 176 176 439 177 177 440 176 176 441 173 173 442 178 178 443 178 178 444 173 173 445 179 179 446 177 177 447 176 176 448 180 180 449 180 180 450 176 176 451 178 178 452 177 177 453 180 180 454 181 181 455 178 178 456 179 179 457 182 182 458 182 182 459 179 179 460 183 183 461 182 182 462 183 183 463 184 184 464 180 180 465 178 178 466 185 185 467 185 185 468 178 178 469 182 182 470 181 181 471 180 180 472 186 186 473 186 186 474 180 180 475 185 185 476 182 182 477 184 184 478 187 187 479 187 187 480 184 184 481 188 188 482 185 185 483 182 182 484 189 189 485 189 189 486 182 182 487 187 187 488 187 187 489 188 188 490 190 190 491 190 190 492 188 188 493 191 191 494 190 190 495 191 191 496 192 192 497 187 187 498 190 190 499 193 193 500 187 187 501 193 193 502 189 189 503 190 190 504 192 192 505 194 194 506 190 190 507 194 194 508 193 193 509 194 194 510 192 192 511 195 195 512 189 189 513 193 193 514 196 196 515 194 194 516 195 195 517 197 197 518 197 197 519 195 195 520 198 198 521 193 193 522 194 194 523 199 199 524 199 199 525 194 194 526 197 197 527 193 193 528 199 199 529 196 196 530 197 197 531 198 198 532 200 200 533 199 199 534 197 197 535 201 201 536 201 201 537 197 197 538 200 200 539 196 196 540 199 199 541 202 202 542 202 202 543 199 199 544 201 201 545 203 203 546 189 189 547 196 196 548 189 189 549 203 203 550 185 185 551 185 185 552 203 203 553 186 186 554 203 203 555 196 196 556 204 204 557 204 204 558 196 196 559 202 202 560 186 186 561 203 203 562 205 205 563 205 205 564 203 203 565 204 204 566 204 204 567 202 202 568 206 206 569 204 204 570 206 206 571 205 205 572 207 207 573 202 202 574 201 201 575 202 202 576 207 207 577 206 206 578 208 208 579 201 201 580 200 200 581 201 201 582 208 208 583 207 207 584 208 208 585 200 200 586 209 209 587 206 206 588 207 207 589 210 210 590 208 208 591 209 209 592 211 211 593 211 211 594 209 209 595 212 212 596 207 207 597 208 208 598 213 213 599 213 213 600 208 208 601 211 211 602 207 207 603 213 213 604 210 210 605 211 211 606 212 212 607 214 214 608 214 214 609 212 212 610 215 215 611 213 213 612 211 211 613 216 216 614 216 216 615 211 211 616 214 214 617 213 213 618 216 216 619 217 217 620 213 213 621 217 217 622 210 210 623 214 214 624 215 215 625 218 218 626 218 218 627 215 215 628 219 219 629 218 218 630 219 219 631 220 220 632 216 216 633 214 214 634 221 221 635 221 221 636 214 214 637 218 218 638 218 218 639 220 220 640 222 222 641 218 218 642 222 222 643 221 221 644 222 222 645 220 220 646 223 223 647 222 222 648 223 223 649 224 224 650 222 222 651 224 224 652 225 225 653 222 222 654 225 225 655 221 221 656 225 225 657 224 224 658 226 226 659 227 227 660 216 216 661 221 221 662 227 227 663 221 221 664 225 225 665 216 216 666 227 227 667 217 217 668 225 225 669 226 226 670 228 228 671 225 225 672 228 228 673 227 227 674 228 228 675 226 226 676 229 229 677 228 228 678 229 229 679 230 230 680 228 228 681 230 230 682 231 231 683 228 228 684 231 231 685 227 227 686 231 231 687 230 230 688 232 232 689 233 233 690 232 232 691 234 234 692 232 232 693 233 233 694 235 235 695 232 232 696 235 235 697 231 231 698 235 235 699 233 233 700 236 236 701 227 227 702 231 231 703 237 237 704 237 237 705 231 231 706 235 235 707 235 235 708 236 236 709 238 238 710 235 235 711 238 238 712 237 237 713 227 227 714 237 237 715 239 239 716 239 239 717 237 237 718 238 238 719 227 227 720 239 239 721 217 217 722 217 217 723 239 239 724 210 210 725 238 238 726 236 236 727 240 240 728 238 238 729 240 240 730 239 239 731 240 240 732 236 236 733 241 241 734 210 210 735 239 239 736 242 242 737 242 242 738 239 239 739 240 240 740 240 240 741 241 241 742 243 243 743 240 240 744 243 243 745 242 242 746 243 243 747 241 241 748 244 244 749 210 210 750 242 242 751 245 245 752 210 210 753 245 245 754 206 206 755 206 206 756 245 245 757 205 205 758 242 242 759 243 243 760 246 246 761 246 246 762 243 243 763 244 244 764 242 242 765 246 246 766 245 245 767 246 246 768 244 244 769 247 247 770 205 205 771 245 245 772 248 248 773 248 248 774 245 245 775 246 246 776 248 248 777 246 246 778 247 247 779 205 205 780 248 248 781 186 186 782 248 248 783 247 247 784 249 249 785 186 186 786 248 248 787 181 181 788 181 181 789 248 248 790 249 249 791 250 250 792 251 251 793 252 252 794 251 251 795 250 250 796 253 253 797 252 252 798 251 251 799 254 254 800 251 251 801 253 253 802 255 255 803 254 254 804 251 251 805 256 256 806 251 251 807 255 255 808 257 257 809 256 256 810 251 251 811 258 258 812 251 251 813 257 257 814 259 259 815 258 258 816 251 251 817 260 260 818 251 251 819 259 259 820 261 261 821 260 260 822 251 251 823 262 262 824 262 262 825 251 251 826 261 261 827 263 263 828 264 264 829 265 265 830 265 265 831 264 264 832 266 266 833 264 264 834 263 263 835 267 267 836 267 267 837 263 263 838 268 268 839 266 266 840 264 264 841 269 269 842 267 267 843 268 268 844 270 270 845 266 266 846 269 269 847 271 271 848 266 266 849 271 271 850 272 272 851 272 272 852 271 271 853 273 273 854 269 269 855 264 264 856 274 274 857 274 274 858 264 264 859 267 267 860 269 269 861 274 274 862 271 271 863 274 274 864 267 267 865 270 270 866 273 273 867 271 271 868 275 275 869 275 275 870 271 271 871 274 274 872 273 273 873 275 275 874 276 276 875 276 276 876 275 275 877 274 274 878 273 273 879 276 276 880 277 277 881 277 277 882 276 276 883 278 278 884 278 278 885 276 276 886 279 279 887 279 279 888 276 276 889 274 274 890 278 278 891 279 279 892 280 280 893 280 280 894 279 279 895 281 281 896 281 281 897 279 279 898 274 274 899 280 280 900 281 281 901 282 282 902 282 282 903 281 281 904 274 274 905 280 280 906 282 282 907 283 283 908 283 283 909 282 282 910 284 284 911 284 284 912 282 282 913 274 274 914 283 283 915 284 284 916 285 285 917 284 284 918 274 274 919 286 286 920 284 284 921 286 286 922 285 285 923 286 286 924 274 274 925 270 270 926 286 286 927 270 270 928 268 268 929 285 285 930 286 286 931 287 277 932 287 277 933 286 286 934 268 268 935</p>
        </triangles>
      </mesh>
    </geometry>
  </library_geometries>
  <library_controllers>
    <controller id="Armature_pot__Mt_CmnTex_Etc_SheikerPot_A-skin" name="Armature">
      <skin source="#pot__Mt_CmnTex_Etc_SheikerPot_A-mesh">
        <bind_shape_matrix>1 0 0 0 0 1 0 0 0 0 1 0 0 0 0 1</bind_shape_matrix>
        <source id="Armature_pot__Mt_CmnTex_Etc_SheikerPot_A-skin-joints">
          <Name_array id="Armature_pot__Mt_CmnTex_Etc_SheikerPot_A-skin-joints-array" count="1">Root</Name_array>
          <technique_common>
            <accessor source="#Armature_pot__Mt_CmnTex_Etc_SheikerPot_A-skin-joints-array" count="1" stride="1">
              <param name="JOINT" type="name"/>
            </accessor>
          </technique_common>
        </source>
        <source id="Armature_pot__Mt_CmnTex_Etc_SheikerPot_A-skin-bind_poses">
          <float_array id="Armature_pot__Mt_CmnTex_Etc_SheikerPot_A-skin-bind_poses-array" count="16">1 0 0 0 0 -1.62921e-7 1 0 0 -1 -1.62921e-7 0 0 0 0 1</float_array>
          <technique_common>
            <accessor source="#Armature_pot__Mt_CmnTex_Etc_SheikerPot_A-skin-bind_poses-array" count="1" stride="16">
              <param name="TRANSFORM" type="float4x4"/>
            </accessor>
          </technique_common>
        </source>
        <source id="Armature_pot__Mt_CmnTex_Etc_SheikerPot_A-skin-weights">
          <float_array id="Armature_pot__Mt_CmnTex_Etc_SheikerPot_A-skin-weights-array" count="424">1 1 1 1 1 1 1 1 1 1 1 1 1 1 1 1 1 1 1 1 1 1 1 1 1 1 1 1 1 1 1 1 1 1 1 1 1 1 1 1 1 1 1 1 1 1 1 1 1 1 1 1 1 1 1 1 1 1 1 1 1 1 1 1 1 1 1 1 1 1 1 1 1 1 1 1 1 1 1 1 1 1 1 1 1 1 1 1 1 1 1 1 1 1 1 1 1 1 1 1 1 1 1 1 1 1 1 1 1 1 1 1 1 1 1 1 1 1 1 1 1 1 1 1 1 1 1 1 1 1 1 1 1 1 1 1 1 1 1 1 1 1 1 1 1 1 1 1 1 1 1 1 1 1 1 1 1 1 1 1 1 1 1 1 1 1 1 1 1 1 1 1 1 1 1 1 1 1 1 1 1 1 1 1 1 1 1 1 1 1 1 1 1 1 1 1 1 1 1 1 1 1 1 1 1 1 1 1 1 1 1 1 1 1 1 1 1 1 1 1 1 1 1 1 1 1 1 1 1 1 1 1 1 1 1 1 1 1 1 1 1 1 1 1 1 1 1 1 1 1 1 1 1 1 1 1 1 1 1 1 1 1 1 1 1 1 1 1 1 1 1 1 1 1 1 1 1 1 1 1 1 1 1 1 1 1 1 1 1 1 1 1 1 1 1 1 1 1 1 1 1 1 1 1 1 1 1 1 1 1 1 1 1 1 1 1 1 1 1 1 1 1 1 1 1 1 1 1 1 1 1 1 1 1 1 1 1 1 1 1 1 1 1 1 1 1 1 1 1 1 1 1 1 1 1 1 1 1 1 1 1 1 1 1 1 1 1 1 1 1 1 1 1 1 1 1 1 1 1 1 1 1 1 1 1 1 1 1 1 1 1 1 1 1 1 1 1 1 1 1 1 1 1 1 1 1 1 1 1 1 1 1 1 1 1 1 1 1 1 1 1 1 1 1</float_array>
          <technique_common>
            <accessor source="#Armature_pot__Mt_CmnTex_Etc_SheikerPot_A-skin-weights-array" count="424" stride="1">
              <param name="WEIGHT" type="float"/>
            </accessor>
          </technique_common>
        </source>
        <joints>
          <input semantic="JOINT" source="#Armature_pot__Mt_CmnTex_Etc_SheikerPot_A-skin-joints"/>
          <input semantic="INV_BIND_MATRIX" source="#Armature_pot__Mt_CmnTex_Etc_SheikerPot_A-skin-bind_poses"/>
        </joints>
        <vertex_weights count="424">
          <input semantic="JOINT" source="#Armature_pot__Mt_CmnTex_Etc_SheikerPot_A-skin-joints" offset="0"/>
          <input semantic="WEIGHT" source="#Armature_pot__Mt_CmnTex_Etc_SheikerPot_A-skin-weights" offset="1"/>
          <vcount>1 1 1 1 1 1 1 1 1 1 1 1 1 1 1 1 1 1 1 1 1 1 1 1 1 1 1 1 1 1 1 1 1 1 1 1 1 1 1 1 1 1 1 1 1 1 1 1 1 1 1 1 1 1 1 1 1 1 1 1 1 1 1 1 1 1 1 1 1 1 1 1 1 1 1 1 1 1 1 1 1 1 1 1 1 1 1 1 1 1 1 1 1 1 1 1 1 1 1 1 1 1 1 1 1 1 1 1 1 1 1 1 1 1 1 1 1 1 1 1 1 1 1 1 1 1 1 1 1 1 1 1 1 1 1 1 1 1 1 1 1 1 1 1 1 1 1 1 1 1 1 1 1 1 1 1 1 1 1 1 1 1 1 1 1 1 1 1 1 1 1 1 1 1 1 1 1 1 1 1 1 1 1 1 1 1 1 1 1 1 1 1 1 1 1 1 1 1 1 1 1 1 1 1 1 1 1 1 1 1 1 1 1 1 1 1 1 1 1 1 1 1 1 1 1 1 1 1 1 1 1 1 1 1 1 1 1 1 1 1 1 1 1 1 1 1 1 1 1 1 1 1 1 1 1 1 1 1 1 1 1 1 1 1 1 1 1 1 1 1 1 1 1 1 1 1 1 1 1 1 1 1 1 1 1 1 1 1 1 1 1 1 1 1 1 1 1 1 1 1 1 1 1 1 1 1 1 1 1 1 1 1 1 1 1 1 1 1 1 1 1 1 1 1 1 1 1 1 1 1 1 1 1 1 1 1 1 1 1 1 1 1 1 1 1 1 1 1 1 1 1 1 1 1 1 1 1 1 1 1 1 1 1 1 1 1 1 1 1 1 1 1 1 1 1 1 1 1 1 1 1 1 1 1 1 1 1 1 1 1 1 1 1 1 1 1 1 1 1 1 1 1 1 1 1 1 1 1 1 1 1 1 1 1 1 1 1 1 1 1 1 1 1 1 </vcount>
          <v>0 0 0 1 0 2 0 3 0 4 0 5 0 6 0 7 0 8 0 9 0 10 0 11 0 12 0 13 0 14 0 15 0 16 0 17 0 18 0 19 0 20 0 21 0 22 0 23 0 24 0 25 0 26 0 27 0 28 0 29 0 30 0 31 0 32 0 33 0 34 0 35 0 36 0 37 0 38 0 39 0 40 0 41 0 42 0 43 0 44 0 45 0 46 0 47 0 48 0 49 0 50 0 51 0 52 0 53 0 54 0 55 0 56 0 57 0 58 0 59 0 60 0 61 0 62 0 63 0 64 0 65 0 66 0 67 0 68 0 69 0 70 0 71 0 72 0 73 0 74 0 75 0 76 0 77 0 78 0 79 0 80 0 81 0 82 0 83 0 84 0 85 0 86 0 87 0 88 0 89 0 90 0 91 0 92 0 93 0 94 0 95 0 96 0 97 0 98 0 99 0 100 0 101 0 102 0 103 0 104 0 105 0 106 0 107 0 108 0 109 0 110 0 111 0 112 0 113 0 114 0 115 0 116 0 117 0 118 0 119 0 120 0 121 0 122 0 123 0 124 0 125 0 126 0 127 0 128 0 129 0 130 0 131 0 132 0 133 0 134 0 135 0 136 0 137 0 138 0 139 0 140 0 141 0 142 0 143 0 144 0 145 0 146 0 147 0 148 0 149 0 150 0 151 0 152 0 153 0 154 0 155 0 156 0 157 0 158 0 159 0 160 0 161 0 162 0 163 0 164 0 165 0 166 0 167 0 168 0 169 0 170 0 171 0 172 0 173 0 174 0 175 0 176 0 177 0 178 0 179 0 180 0 181 0 182 0 183 0 184 0 185 0 186 0 187 0 188 0 189 0 190 0 191 0 192 0 193 0 194 0 195 0 196 0 197 0 198 0 199 0 200 0 201 0 202 0 203 0 204 0 205 0 206 0 207 0 208 0 209 0 210 0 211 0 212 0 213 0 214 0 215 0 216 0 217 0 218 0 219 0 220 0 221 0 222 0 223 0 224 0 225 0 226 0 227 0 228 0 229 0 230 0 231 0 232 0 233 0 234 0 235 0 236 0 237 0 238 0 239 0 240 0 241 0 242 0 243 0 244 0 245 0 246 0 247 0 248 0 249 0 250 0 251 0 252 0 253 0 254 0 255 0 256 0 257 0 258 0 259 0 260 0 261 0 262 0 263 0 264 0 265 0 266 0 267 0 268 0 269 0 270 0 271 0 272 0 273 0 274 0 275 0 276 0 277 0 278 0 279 0 280 0 281 0 282 0 283 0 284 0 285 0 286 0 287 0 288 0 289 0 290 0 291 0 292 0 293 0 294 0 295 0 296 0 297 0 298 0 299 0 300 0 301 0 302 0 303 0 304 0 305 0 306 0 307 0 308 0 309 0 310 0 311 0 312 0 313 0 314 0 315 0 316 0 317 0 318 0 319 0 320 0 321 0 322 0 323 0 324 0 325 0 326 0 327 0 328 0 329 0 330 0 331 0 332 0 333 0 334 0 335 0 336 0 337 0 338 0 339 0 340 0 341 0 342 0 343 0 344 0 345 0 346 0 347 0 348 0 349 0 350 0 351 0 352 0 353 0 354 0 355 0 356 0 357 0 358 0 359 0 360 0 361 0 362 0 363 0 364 0 365 0 366 0 367 0 368 0 369 0 370 0 371 0 372 0 373 0 374 0 375 0 376 0 377 0 378 0 379 0 380 0 381 0 382 0 383 0 384 0 385 0 386 0 387 0 388 0 389 0 390 0 391 0 392 0 393 0 394 0 395 0 396 0 397 0 398 0 399 0 400 0 401 0 402 0 403 0 404 0 405 0 406 0 407 0 408 0 409 0 410 0 411 0 412 0 413 0 414 0 415 0 416 0 417 0 418 0 419 0 420 0 421 0 422 0 423</v>
        </vertex_weights>
      </skin>
    </controller>
  </library_controllers>
  <library_visual_scenes>
    <visual_scene id="Scene" name="Scene">
      <node id="Armature" name="Armature" type="NODE">
        <matrix sid="transform">1 0 0 0 0 -1.62921e-7 -1 0 0 1 -1.62921e-7 0 0 0 0 1</matrix>
        <node id="Armature_Root" name="Root" sid="Root" type="JOINT">
          <matrix sid="transform">1 0 0 0 0 1 0 0 0 0 1 0 0 0 0 1</matrix>
          <extra>
            <technique profile="blender">
              <layer sid="layer" type="string">0</layer>
              <tip_x sid="tip_x" type="float">0</tip_x>
              <tip_y sid="tip_y" type="float">1</tip_y>
              <tip_z sid="tip_z" type="float">0</tip_z>
            </technique>
          </extra>
        </node>
        <node id="pot__Mt_CmnTex_Etc_SheikerPot_A" name="pot__Mt_CmnTex_Etc_SheikerPot_A" type="NODE">
          <matrix sid="transform">1 0 0 0 0 1 0 0 0 0 1 0 0 0 0 1</matrix>
          <instance_controller url="#Armature_pot__Mt_CmnTex_Etc_SheikerPot_A-skin">
            <skeleton>#Armature_Root</skeleton>
            <bind_material>
              <technique_common>
                <instance_material symbol="Mt_CmnTex_Etc_SheikerPot_A-material" target="#Mt_CmnTex_Etc_SheikerPot_A-material">
                  <bind_vertex_input semantic="pot__Mt_CmnTex_Etc_SheikerPot_A-texcoord" input_semantic="TEXCOORD" input_set="0"/>
                </instance_material>
              </technique_common>
            </bind_material>
          </instance_controller>
        </node>
      </node>
    </visual_scene>
  </library_visual_scenes>
  <scene>
    <instance_visual_scene url="#Scene"/>
  </scene>
</COLLADA>