<?xml version="1.0" encoding="utf-8"?>
<COLLADA xmlns="http://www.collada.org/2005/11/COLLADASchema" version="1.4.1" xmlns:xsi="http://www.w3.org/2001/XMLSchema-instance">
  <asset>
    <contributor>
      <author>Blender User</author>
      <authoring_tool>Blender 3.1.2 commit date:2022-03-31, commit time:17:40, hash:cc66d1020c3b</authoring_tool>
    </contributor>
    <created>2023-06-01T15:27:00</created>
    <modified>2023-06-01T15:27:00</modified>
    <unit name="meter" meter="1"/>
    <up_axis>Z_UP</up_axis>
  </asset>
  <library_effects>
    <effect id="Mt_CmnTex_Etc_SheikerPot_A-effect">
      <profile_COMMON>
        <newparam sid="CmnTex_Etc_SheikerPot_A_Alb_png-surface">
          <surface type="2D">
            <init_from>CmnTex_Etc_SheikerPot_A_Alb_png</init_from>
          </surface>
        </newparam>
        <newparam sid="CmnTex_Etc_SheikerPot_A_Alb_png-sampler">
          <sampler2D>
            <source>CmnTex_Etc_SheikerPot_A_Alb_png-surface</source>
          </sampler2D>
        </newparam>
        <technique sid="common">
          <lambert>
            <emission>
              <color sid="emission">0 0 0 1</color>
            </emission>
            <diffuse>
              <texture texture="CmnTex_Etc_SheikerPot_A_Alb_png-sampler" texcoord="A1__Mt_CmnTex_Etc_SheikerPot_A-texcoord"/>
            </diffuse>
            <index_of_refraction>
              <float sid="ior">1.45</float>
            </index_of_refraction>
          </lambert>
        </technique>
      </profile_COMMON>
    </effect>
  </library_effects>
  <library_images>
    <image id="CmnTex_Etc_SheikerPot_A_Alb_png" name="CmnTex_Etc_SheikerPot_A_Alb_png">
      <init_from>CmnTex_Etc_SheikerPot_A_Alb.png</init_from>
    </image>
  </library_images>
  <library_materials>
    <material id="Mt_CmnTex_Etc_SheikerPot_A-material" name="Mt_CmnTex_Etc_SheikerPot_A">
      <instance_effect url="#Mt_CmnTex_Etc_SheikerPot_A-effect"/>
    </material>
  </library_materials>
  <library_geometries>
    <geometry id="A1__Mt_CmnTex_Etc_SheikerPot_A-mesh" name="A1__Mt_CmnTex_Etc_SheikerPot_A">
      <mesh>
        <source id="A1__Mt_CmnTex_Etc_SheikerPot_A-mesh-positions">
          <float_array id="A1__Mt_CmnTex_Etc_SheikerPot_A-mesh-positions-array" count="447">-0.1258545 -0.06762695 -0.07568359 -0.1812744 -0.05236816 -0.08276367 -0.1628417 -0.07458496 -0.1706542 0.1196289 0.005401611 -0.1414795 0.07086181 -0.1000366 -0.1187134 0.06414794 -0.0670166 -0.1678467 0.1104736 -0.05825805 -0.08905029 0.1254883 0.003784179 -0.128418 0.1541748 -0.004043579 -0.06518554 0.1466064 -0.04791259 -0.03140258 0.1657715 -0.003025054 -0.04421997 0.1989746 -9.5129e-5 0.01603698 0.2067871 -0.004760742 0.03607177 0.1624756 -0.05023193 0.001499176 0.184082 -0.03494262 0.02807617 0.1658936 -0.03692626 0.03814697 0.145752 -0.007316589 0.05355834 0.1791992 0.03396606 0.05657958 0.1229858 0.004177093 0.06402587 0.1256104 0.05822753 0.08032226 0.0437622 0.0440979 0.1004639 0.03417968 0.08996582 0.1177979 0.01250457 0.04330444 0.1095581 -0.001364707 0.08721923 0.1275635 -0.04852294 0.03582763 0.1254883 -0.06225585 0.08013916 0.1436768 -0.08337402 0.03155517 0.1346436 -0.1524658 0.04052734 0.1582031 -0.1087036 0.01417541 0.1367188 -0.1582031 -0.01506042 0.08831787 -0.1809082 0.02294921 0.1356201 -0.1705322 -0.0256958 0.07092285 -0.1853027 0.02212524 0.1039429 -0.1929932 0.009811401 0.01965332 -0.1928711 0.003278732 0.003131866 -0.1812744 -0.05236816 -0.08276367 -0.1696777 -0.02662658 0.07061767 -0.1582031 -0.01506042 0.08831787 -0.1669922 -0.03323364 0.04006958 -0.1479492 -0.05291748 -0.03320312 -0.1258545 -0.06762695 -0.07568359 -0.1628417 -0.07458496 -0.1706542 -0.1159058 -0.07427978 -0.09484863 -0.1304932 -0.08184814 -0.1733398 -0.01217651 -0.1081543 -0.1340332 0.008377075 -0.07122802 -0.1694336 0.06414794 -0.0670166 -0.1678467 0.0413208 -0.1078491 -0.1287842 0.2067871 -0.004760742 0.03607177 0.1791992 0.03396606 0.05657958 0.145752 -0.007316589 0.05355834 0.1256104 0.05822753 0.08032226 0.1229858 0.004177093 0.06402587 0.05233764 0.09136962 0.112793 0.0437622 0.0440979 0.1004639 0.03417968 0.08996582 0.1177979 -0.001364707 0.08721923 0.1275635 0.01250457 0.04330444 0.1095581 -0.06225585 0.08013916 0.1436768 -0.04852294 0.03582763 0.1254883 -0.1008301 0.07562255 0.1538086 -0.08337402 0.03155517 0.1346436 -0.1524658 0.04052734 0.1582031 -0.1809082 0.02294921 0.1356201 -0.1582031 -0.01506042 0.08831787 0.1624756 -0.05023193 0.001499176 0.1466064 -0.04791259 -0.03140258 0.1989746 -9.5129e-5 0.01603698 0.1104736 -0.05825805 -0.08905029 0.1541748 -0.004043579 -0.06518554 0.07086181 -0.1000366 -0.1187134 0.1196289 0.005401611 -0.1414795 0.0413208 -0.1078491 -0.1287842 0.06414794 -0.0670166 -0.1678467 0.07086181 -0.1000366 -0.1187134 0.008377075 -0.07122802 -0.1694336 0.01423645 -0.1060791 -0.1334229 -0.01217651 -0.1081543 -0.1340332 -0.1628417 -0.07458496 -0.1706542 -0.1268311 -0.002033233 -0.144165 -0.1304932 -0.08184814 -0.1733398 0.008377075 -0.07122802 -0.1694336 -0.0553894 0.04498291 -0.1270751 0.03152465 0.05215454 -0.1245117 0.1105957 0.01748657 -0.137085 0.06414794 -0.0670166 -0.1678467 0.1196289 0.005401611 -0.1414795 0.1105957 0.01748657 -0.137085 0.1254883 0.003784179 -0.128418 0.1196289 0.005401611 -0.1414795 0.1359863 0.02029418 -0.05633544 0.1541748 -0.004043579 -0.06518554 0.1657715 -0.003025054 -0.04421997 0.03152465 0.05215454 -0.1245117 0.1989746 -9.5129e-5 0.01603698 0.03839111 0.06304931 -0.04074096 -0.0553894 0.04498291 -0.1270751 0.1724854 0.03546142 0.02899169 0.2067871 -0.004760742 0.03607177 0.1791992 0.03396606 0.05657958 0.1256104 0.05822753 0.08032226 0.04824829 0.08990478 0.0487976 0.05233764 0.09136962 0.112793 0.03417968 0.08996582 0.1177979 -0.001364707 0.08721923 0.1275635 -0.06890869 0.05426025 -0.04397583 -0.1268311 -0.002033233 -0.144165 -0.08831787 0.07867431 0.04470825 -0.1628417 -0.07458496 -0.1706542 -0.1812744 -0.05236816 -0.08276367 -0.1571045 -0.003801345 -0.06506347 -0.1928711 0.003278732 0.003131866 -0.1929932 0.009811401 0.01965332 -0.1853027 0.02212524 0.1039429 -0.0984497 0.07922363 0.1246948 -0.1809082 0.02294921 0.1356201 -0.06225585 0.08013916 0.1436768 -0.1524658 0.04052734 0.1582031 -0.1008301 0.07562255 0.1538086 0.0413208 -0.1078491 -0.1287842 0.07086181 -0.1000366 -0.1187134 0.08966064 -0.03031921 -0.07885742 0.01423645 -0.1060791 -0.1334229 0.1104736 -0.05825805 -0.08905029 0.02586364 -0.002368927 -0.06866455 -0.01217651 -0.1081543 -0.1340332 0.1206055 -0.01298522 -0.01867675 0.1466064 -0.04791259 -0.03140258 0.1624756 -0.05023193 0.001499176 0.1658936 -0.03692626 0.03814697 0.145752 -0.007316589 0.05355834 0.1229858 0.004177093 0.06402587 0.0342102 0.02485656 -0.004909515 0.0437622 0.0440979 0.1004639 0.01250457 0.04330444 0.1095581 -0.06069946 0.01704406 -0.007751464 -0.04421997 -0.008132934 -0.07080078 -0.1018677 -0.04605102 -0.08459472 -0.1159058 -0.07427978 -0.09484863 -0.1258545 -0.06762695 -0.07568359 -0.1386719 -0.03430175 -0.02644348 -0.1479492 -0.05291748 -0.03320312 -0.1669922 -0.03323364 0.04006958 -0.1696777 -0.02662658 0.07061767 -0.1582031 -0.01506042 0.08831787 -0.08129882 0.03558349 0.1067505 -0.1087036 0.01417541 0.1367188 -0.04852294 0.03582763 0.1254883 -0.08337402 0.03155517 0.1346436</float_array>
          <technique_common>
            <accessor source="#A1__Mt_CmnTex_Etc_SheikerPot_A-mesh-positions-array" count="149" stride="3">
              <param name="X" type="float"/>
              <param name="Y" type="float"/>
              <param name="Z" type="float"/>
            </accessor>
          </technique_common>
        </source>
        <source id="A1__Mt_CmnTex_Etc_SheikerPot_A-mesh-normals">
          <float_array id="A1__Mt_CmnTex_Etc_SheikerPot_A-mesh-normals-array" count="444">-0.2823573 -0.9424584 0.1790158 -0.2823573 -0.9424584 0.1790158 -0.2823573 -0.9424584 0.1790158 0.7906588 -0.4530594 -0.4118202 0.7892808 -0.454261 -0.4131379 0.7892808 -0.454261 -0.4131379 0.7893781 -0.4535566 -0.4137253 0.7906403 -0.4528334 -0.4121042 0.7887574 -0.4543101 -0.4140823 0.7889493 -0.4548217 -0.4131543 0.7888217 -0.4548333 -0.413385 0.7890277 -0.4545539 -0.413299 0.7983822 -0.5726841 0.1860618 0.6229439 -0.7793149 -0.06789135 0.6596678 -0.7232514 0.2043182 0.3367869 -0.6093537 0.717818 0.2749719 -0.2900402 0.9166609 0.2750785 -0.2899535 0.9166564 0.275341 -0.2898363 0.9166146 0.2755735 -0.2897325 0.9165776 0.2746273 -0.2894487 0.9169511 0.2741765 -0.2893134 0.9171288 0.2745005 -0.289246 0.9170531 0.274793 -0.2891851 0.9169846 0.2757345 -0.2899751 0.9164524 0.276274 -0.2904278 0.9161465 0.2756427 -0.2906395 0.9162695 -0.0357452 -0.6664775 0.7446678 0.09674358 -0.5274753 0.8440442 -0.1357795 -0.7944703 0.5919299 -0.7931587 -0.5410408 0.2795968 -0.7072417 -0.6115396 0.3547232 -0.9156634 -0.3777195 0.1374355 -0.91585 -0.3760191 0.140814 -0.9117568 -0.3880531 0.13459 -0.4622638 -0.8682764 0.1800234 -0.6344022 -0.6940146 0.3404082 -0.4228149 -0.6083821 0.6716389 -0.3484873 -0.9193612 0.1825694 -0.2825983 -0.9422791 0.1795789 -0.2830368 -0.942163 0.1794969 -0.2183094 -0.9659214 0.1390575 -0.267498 -0.9500352 0.1608665 -0.1986165 -0.9796413 0.02922761 -0.02721959 -0.8666905 -0.4981034 0.07382375 -0.7109533 -0.6993537 0.07356852 -0.7105672 -0.6997727 0.2747986 -0.2897377 0.9168085 0.2748759 -0.2897449 0.9167831 0.2747986 -0.2897377 0.9168085 0.2751675 -0.2895285 0.9167639 0.2749854 -0.2897552 0.916747 0.2752888 -0.2890717 0.9168717 0.2754189 -0.2890841 0.9168287 0.2747367 -0.2891961 0.916998 0.2750291 -0.289776 0.9167274 0.2743189 -0.2893691 0.9170686 0.2755331 -0.2901884 0.9164454 0.2762098 -0.2904523 0.9161581 0.2748622 -0.289823 0.9167625 0.2748689 -0.2898199 0.9167615 0.1428066 -0.5594759 0.8164515 -0.01131755 -0.7821134 0.6230334 -0.01131755 -0.7821133 0.6230335 0.7891752 -0.4548435 -0.4126985 0.7892146 -0.4545189 -0.4129808 0.7891752 -0.4548435 -0.4126985 0.7890388 -0.4542705 -0.4135892 0.7892381 -0.4543232 -0.4131507 0.7889521 -0.4542476 -0.4137801 0.7889521 -0.4542475 -0.41378 0.2615334 -0.739591 -0.6201657 0.3837627 -0.7413034 -0.5506319 0.3837628 -0.7413034 -0.5506319 0.07265096 -0.7107499 -0.6996831 0.07277977 -0.7107326 -0.6996873 0.07201468 -0.7108352 -0.6996622 -8.79903e-4 0.3433496 -0.9392073 -2.56202e-4 0.342859 -0.9393869 -3.45267e-4 0.3433281 -0.9392156 1.46654e-4 0.3422512 -0.9396086 -4.87183e-4 0.3422202 -0.9396197 6.66959e-6 0.3421154 -0.9396581 4.87485e-4 0.3419318 -0.9397248 9.03772e-4 0.3416309 -0.9398338 2.87896e-4 0.3419305 -0.9397252 0.568889 0.7962158 -0.2059264 0.7302566 0.6353736 -0.2510493 0.7302294 0.6362939 -0.2487872 0.539445 0.7905569 -0.2898601 0.6961999 0.6391372 -0.3268169 0.6605279 0.638248 -0.3954018 0.1534556 0.9782009 -0.1399087 0.7212105 0.6368444 -0.2725521 0.1459194 0.9628812 -0.2270846 -0.302509 0.9406172 -0.1540377 0.5636128 0.7955684 -0.2222869 0.7650772 0.6256144 -0.1525238 0.5747137 0.8127267 -0.09580993 0.3947007 0.9176353 -0.04644316 0.1522301 0.9758471 -0.1566797 0.1171873 0.9926503 -0.03021001 -0.08184683 0.9964901 -0.01756924 -0.08193302 0.9966241 -0.005246162 -0.2872042 0.9272677 -0.2401838 -0.6774157 0.6939653 -0.2439674 -0.2998844 0.9387207 -0.16992 -0.807205 0.509482 -0.2980744 -0.7867975 0.5151628 -0.3399368 -0.6430569 0.6932381 -0.325421 -0.5188672 0.7785019 -0.3531455 -0.4952318 0.8370102 -0.2327217 -0.5454564 0.8378254 -0.02293699 -0.3262296 0.9449761 0.02438437 -0.5576942 0.8281299 0.05637538 -0.08504992 0.989784 0.1144303 -0.5576021 0.8281171 0.05746495 -0.3770688 0.9224348 0.08326584 -0.1790546 -0.451324 0.8742118 -0.1785236 -0.451609 0.8741732 -0.3373591 -0.669238 0.6620494 -0.05327987 -0.5099728 0.8585389 -0.3876907 -0.5567396 0.734668 -0.08989071 -0.7760418 0.6242426 0.0631386 -0.5138124 0.8555762 -0.5166874 -0.7820116 0.3485571 -0.6610381 -0.6367362 0.3969833 -0.7105865 -0.6375026 0.2977539 -0.7104384 -0.637785 0.2975022 -0.5302507 -0.8106948 0.2482101 -0.3666573 -0.9087912 0.1991508 -0.1394653 -0.947246 0.2885733 -0.1056439 -0.976493 0.1878854 0.07666993 -0.9864944 0.144744 0.2750189 -0.9131224 0.3009523 0.177963 -0.7538787 0.6324526 0.4022552 -0.6082471 0.6842707 0.4260327 -0.4884762 0.7615033 0.6677355 -0.5241528 0.5285766 0.6153861 -0.6892494 0.3824074 0.7160745 -0.5242211 0.4609009 0.5284261 -0.8149759 0.2378661 0.4974903 -0.8377976 0.2249413 0.5116493 -0.8410752 0.1755209 0.3191391 -0.9469285 0.03842949 0.5606713 -0.8245167 -0.07628911 0.0852946 -0.9869839 -0.1363365 0.3778429 -0.9199258 -0.1047449</float_array>
          <technique_common>
            <accessor source="#A1__Mt_CmnTex_Etc_SheikerPot_A-mesh-normals-array" count="148" stride="3">
              <param name="X" type="float"/>
              <param name="Y" type="float"/>
              <param name="Z" type="float"/>
            </accessor>
          </technique_common>
        </source>
        <source id="A1__Mt_CmnTex_Etc_SheikerPot_A-mesh-map">
          <float_array id="A1__Mt_CmnTex_Etc_SheikerPot_A-mesh-map-array" count="780">-0.2125244 0.1533203 -0.1982422 0.1513672 -0.1633301 0.1699219 -0.1242676 0.3251953 -0.07318115 0.3330078 -0.09185791 0.3510742 -0.09082031 0.3110352 -0.1242676 0.3251953 -0.1226807 0.3193359 -0.09082031 0.3110352 -0.1226807 0.3193359 -0.1149902 0.2900391 -0.09228515 0.2802734 -0.1149902 0.2900391 -0.114502 0.2792969 -0.09228515 0.2802734 -0.114502 0.2792969 -0.1135864 0.25 -0.1105957 0.2407227 -0.08972167 0.2646484 -0.1135864 0.25 -0.08972167 0.2646484 -0.1105957 0.2407227 -0.09606933 0.25 -0.08972167 0.2646484 -0.09606933 0.25 -0.08758544 0.2460938 -0.08758544 0.2460938 -0.09606933 0.25 -0.1105957 0.2407227 -0.08758544 0.2460938 -0.1105957 0.2407227 -0.08483886 0.2294922 -0.1063843 0.2197266 -0.07720947 0.2202148 -0.08483886 0.2294922 -0.09082031 0.2001953 -0.05422973 0.1831055 -0.07720947 0.2202148 -0.07104492 0.1665039 -0.04278564 0.1689453 -0.05422973 0.1831055 -0.05944824 0.1572266 -0.05407714 0.1337891 -0.04278564 0.1689453 -0.0626831 0.1508789 -0.07598876 0.1342773 -0.05407714 0.1337891 -0.09460449 0.168457 -0.09082031 0.1391602 -0.07598876 0.1342773 -0.09082031 0.1391602 -0.09460449 0.168457 -0.1253662 0.1425781 -0.1109619 0.1733398 -0.1365967 0.1416016 -0.1253662 0.1425781 -0.1365967 0.1416016 -0.1109619 0.1733398 -0.125 0.1708984 -0.1365967 0.1416016 -0.125 0.1708984 -0.1563721 0.1704102 -0.1365967 0.1416016 -0.1563721 0.1704102 -0.1650391 0.1689453 -0.1365967 0.1416016 -0.1650391 0.1689453 -0.1982422 0.1513672 -0.1365967 0.140625 -0.1242676 0.137207 -0.1365967 0.1416016 -0.1365967 0.140625 -0.1365967 0.1416016 -0.1503906 0.1396484 -0.1503906 0.1396484 -0.1365967 0.1416016 -0.1982422 0.1513672 -0.1503906 0.1396484 -0.1982422 0.1513672 -0.1883545 0.1337891 -0.1883545 0.1337891 -0.1982422 0.1513672 -0.2125244 0.1533203 -0.1633301 0.1699219 -0.2075195 0.1645508 -0.2125244 0.1533203 -0.2075195 0.1645508 -0.1633301 0.1699219 -0.1712646 0.1826172 -0.2075195 0.1645508 -0.1712646 0.1826172 -0.2113037 0.2114258 -0.2113037 0.2114258 -0.1712646 0.1826172 -0.1942139 0.2280273 -0.2005615 0.2504883 -0.2200928 0.2329102 -0.1942139 0.2280273 -0.1105957 0.2407227 -0.1063843 0.2197266 -0.08483886 0.2294922 -0.09082031 0.2001953 -0.07720947 0.2202148 -0.1063843 0.2197266 -0.07855224 0.1723633 -0.05422973 0.1831055 -0.09082031 0.2001953 -0.05422973 0.1831055 -0.07855224 0.1723633 -0.07104492 0.1665039 -0.05944824 0.1572266 -0.04278564 0.1689453 -0.07104492 0.1665039 -0.0626831 0.1508789 -0.05407714 0.1337891 -0.05944824 0.1572266 -0.07354736 0.1621094 -0.07598876 0.1342773 -0.0626831 0.1508789 -0.07598876 0.1342773 -0.07354736 0.1621094 -0.09460449 0.168457 -0.1109619 0.1733398 -0.1253662 0.1425781 -0.09460449 0.168457 -0.08972167 0.2646484 -0.09228515 0.2802734 -0.1135864 0.25 -0.09082031 0.3110352 -0.1149902 0.2900391 -0.09228515 0.2802734 -0.07318115 0.3330078 -0.1242676 0.3251953 -0.09082031 0.3110352 -0.2200928 0.2329102 -0.2005615 0.2504883 -0.2255859 0.2456055 -0.1942139 0.2280273 -0.2200928 0.2329102 -0.2147217 0.222168 -0.1942139 0.2280273 -0.2147217 0.222168 -0.2113037 0.2114258 0.9584961 3.123047 0.9355469 3.091797 0.9619141 3.099609 0.9619141 3.099609 0.9355469 3.091797 0.9614259 2.992188 0.9614259 2.992188 0.9355469 3.091797 0.921875 3.035156 0.9614259 2.992188 0.921875 3.035156 0.9213867 2.967773 0.9614259 2.992188 0.9213867 2.967773 0.934082 2.90918 0.9614259 2.992188 0.934082 2.90918 0.9609375 2.950195 0.9609375 2.950195 0.934082 2.90918 0.9384766 2.90332 1.959961 0.07080078 1.945313 0.07568359 1.949219 0.06640625 1.945313 0.07568359 1.959961 0.07080078 1.942383 0.1274414 1.945313 0.07568359 1.942383 0.1274414 1.922852 0.1181641 1.922852 0.1181641 1.942383 0.1274414 1.915039 0.1328125 1.942383 0.1274414 1.959961 0.07080078 2.017578 0.08105468 1.915039 0.1328125 1.942383 0.1274414 1.893555 0.175293 1.942383 0.1274414 2.017578 0.08105468 2.015625 0.1401367 2.015625 0.1401367 2.017578 0.08105468 2.078125 0.07519531 1.893555 0.175293 1.942383 0.1274414 1.921875 0.1894531 1.921875 0.1894531 1.942383 0.1274414 2.015625 0.1401367 1.893555 0.175293 1.921875 0.1894531 1.884766 0.1884766 1.884766 0.1884766 1.921875 0.1894531 1.916016 0.2080078 1.916016 0.2080078 1.921875 0.1894531 1.957031 0.2260742 1.957031 0.2260742 1.921875 0.1894531 2.013672 0.2050781 2.013672 0.2050781 1.921875 0.1894531 2.015625 0.1401367 1.957031 0.2260742 2.013672 0.2050781 2.013672 0.2495117 2.013672 0.2495117 2.013672 0.2050781 2.025391 0.2524414 2.025391 0.2524414 2.013672 0.2050781 2.050781 0.2573242 2.091797 0.1328125 2.015625 0.1401367 2.078125 0.07519531 2.015625 0.1401367 2.091797 0.1328125 2.013672 0.2050781 2.091797 0.1328125 2.078125 0.07519531 2.134766 0.05419921 2.050781 0.2573242 2.013672 0.2050781 2.107422 0.1958008 2.107422 0.1958008 2.013672 0.2050781 2.091797 0.1328125 2.183594 0.02001953 2.195313 0.08300781 2.134766 0.05419921 2.134766 0.05419921 2.195313 0.08300781 2.162109 0.1064453 2.134766 0.05419921 2.162109 0.1064453 2.091797 0.1328125 2.162109 0.1064453 2.195313 0.08300781 2.189453 0.1538086 2.162109 0.1064453 2.189453 0.1538086 2.091797 0.1328125 2.091797 0.1328125 2.189453 0.1538086 2.189453 0.1660156 2.091797 0.1328125 2.189453 0.1660156 2.107422 0.1958008 2.107422 0.1958008 2.189453 0.1660156 2.1875 0.2255859 2.107422 0.1958008 2.1875 0.2255859 2.119141 0.2495117 2.107422 0.1958008 2.119141 0.2495117 2.050781 0.2573242 2.119141 0.2495117 2.1875 0.2255859 2.1875 0.2480469 2.050781 0.2573242 2.119141 0.2495117 2.095703 0.2651367 2.119141 0.2495117 2.1875 0.2480469 2.167969 0.2666016 2.095703 0.2651367 2.119141 0.2495117 2.123047 0.2695313 2.123047 0.2695313 2.119141 0.2495117 2.167969 0.2666016 2.232422 -0.140625 2.226563 -0.125 2.1875 -0.1142578 2.232422 -0.140625 2.1875 -0.1142578 2.232422 -0.1552734 2.1875 -0.1142578 2.226563 -0.125 2.201172 -0.1025391 2.232422 -0.1552734 2.1875 -0.1142578 2.173828 -0.1455078 2.232422 -0.1552734 2.173828 -0.1455078 2.232422 -0.1689453 2.1875 -0.1142578 2.201172 -0.1025391 2.158203 -0.09570312 2.1875 -0.1142578 2.158203 -0.09570312 2.173828 -0.1455078 2.158203 -0.09570312 2.201172 -0.1025391 2.173828 -0.07910156 2.158203 -0.09570312 2.173828 -0.07910156 2.158203 -0.06640625 2.158203 -0.09570312 2.158203 -0.06640625 2.138672 -0.0625 2.158203 -0.09570312 2.138672 -0.0625 2.123047 -0.07714843 2.158203 -0.09570312 2.123047 -0.07714843 2.115234 -0.08789062 2.158203 -0.09570312 2.115234 -0.08789062 2.140625 -0.1386719 2.158203 -0.09570312 2.140625 -0.1386719 2.173828 -0.1455078 2.140625 -0.1386719 2.115234 -0.08789062 2.087891 -0.1298828 2.140625 -0.1386719 2.087891 -0.1298828 2.082031 -0.1464844 2.173828 -0.1455078 2.140625 -0.1386719 2.140625 -0.1845703 2.140625 -0.1845703 2.140625 -0.1386719 2.082031 -0.1464844 2.171875 -0.1787109 2.232422 -0.1689453 2.173828 -0.1455078 2.171875 -0.1787109 2.173828 -0.1455078 2.140625 -0.1845703 2.232422 -0.1689453 2.171875 -0.1787109 2.1875 -0.2099609 2.232422 -0.1689453 2.1875 -0.2099609 2.199219 -0.2197266 2.199219 -0.2197266 2.1875 -0.2099609 2.189453 -0.2255859 2.1875 -0.2099609 2.171875 -0.1787109 2.158203 -0.2285156 2.1875 -0.2099609 2.158203 -0.2285156 2.189453 -0.2255859 2.158203 -0.2285156 2.171875 -0.1787109 2.140625 -0.1845703 2.189453 -0.2255859 2.158203 -0.2285156 2.164063 -0.2373047 2.164063 -0.2373047 2.158203 -0.2285156 2.125 -0.2451172 2.125 -0.2451172 2.158203 -0.2285156 2.140625 -0.1845703 2.125 -0.2451172 2.140625 -0.1845703 2.107422 -0.2460938 2.107422 -0.2460938 2.140625 -0.1845703 2.097656 -0.2392578 2.097656 -0.2392578 2.140625 -0.1845703 2.083984 -0.1943359 2.083984 -0.1943359 2.140625 -0.1845703 2.082031 -0.1464844 2.097656 -0.2392578 2.083984 -0.1943359 2.070313 -0.2128906 2.083984 -0.1943359 2.082031 -0.1464844 2.074219 -0.1777344 2.070313 -0.2128906 2.083984 -0.1943359 2.070313 -0.1962891 2.070313 -0.1962891 2.083984 -0.1943359 2.074219 -0.1777344</float_array>
          <technique_common>
            <accessor source="#A1__Mt_CmnTex_Etc_SheikerPot_A-mesh-map-array" count="390" stride="2">
              <param name="S" type="float"/>
              <param name="T" type="float"/>
            </accessor>
          </technique_common>
        </source>
        <vertices id="A1__Mt_CmnTex_Etc_SheikerPot_A-mesh-vertices">
          <input semantic="POSITION" source="#A1__Mt_CmnTex_Etc_SheikerPot_A-mesh-positions"/>
        </vertices>
        <triangles material="Mt_CmnTex_Etc_SheikerPot_A-material" count="130">
          <input semantic="VERTEX" source="#A1__Mt_CmnTex_Etc_SheikerPot_A-mesh-vertices" offset="0"/>
          <input semantic="NORMAL" source="#A1__Mt_CmnTex_Etc_SheikerPot_A-mesh-normals" offset="1"/>
          <input semantic="TEXCOORD" source="#A1__Mt_CmnTex_Etc_SheikerPot_A-mesh-map" offset="2" set="0"/>
          <p>0 0 0 1 1 1 2 2 2 3 3 3 4 4 4 5 5 5 6 6 6 3 3 7 7 7 8 6 6 9 7 7 10 8 8 11 9 9 12 8 8 13 10 10 14 9 9 15 10 10 16 11 11 17 12 12 18 13 13 19 11 11 20 13 13 21 12 12 22 14 14 23 13 13 24 14 14 25 15 15 26 15 15 27 14 14 28 12 12 29 15 15 30 12 12 31 16 16 32 17 17 33 18 18 34 16 16 35 19 19 36 20 20 37 18 18 38 21 21 39 22 22 40 20 20 41 23 23 42 24 24 43 22 22 44 25 25 45 26 26 46 24 24 47 27 27 48 28 28 49 26 26 50 28 28 51 27 27 52 29 29 53 30 30 54 31 31 55 29 29 56 31 31 57 30 30 58 32 32 59 31 31 60 32 32 61 33 33 62 31 31 63 33 33 64 34 34 65 31 31 66 34 34 67 35 35 68 36 36 69 37 37 70 31 31 71 36 36 72 31 31 73 38 38 74 38 38 75 31 31 76 35 35 77 38 38 78 35 35 79 39 39 80 39 39 81 35 35 82 40 40 83 41 41 84 42 42 85 40 40 86 42 42 87 41 41 88 43 43 89 42 42 90 43 43 91 44 44 92 44 44 93 43 43 94 45 45 95 46 46 96 47 46 97 45 45 98 48 47 99 49 48 100 50 49 101 51 50 102 52 51 103 49 48 104 53 52 105 54 53 106 51 50 107 54 53 108 53 52 109 55 54 110 56 55 111 57 56 112 55 54 113 58 57 114 59 58 115 56 55 116 60 59 117 61 60 118 58 57 119 61 60 120 60 59 121 62 61 122 63 62 123 64 63 124 62 61 125 65 64 126 66 65 127 67 66 128 68 67 129 69 68 130 66 65 131 70 69 132 71 70 133 68 67 134 72 71 135 73 72 136 74 73 137 75 74 138 72 71 139 76 75 140 75 74 141 76 75 142 77 76 143 78 77 144 79 78 145 80 79 146 80 79 147 79 78 148 81 80 149 81 80 150 79 78 151 82 81 152 81 80 153 82 81 154 83 82 155 81 80 156 83 82 157 84 83 158 81 80 159 84 83 160 85 84 161 85 84 162 84 83 163 86 85 164 87 86 165 88 87 166 89 88 167 88 87 168 87 86 169 90 89 170 88 87 171 90 89 172 91 90 173 91 90 174 90 89 175 92 91 176 90 89 177 87 86 178 93 92 179 92 91 180 90 89 181 94 93 182 90 89 183 93 92 184 95 94 185 95 94 186 93 92 187 96 95 188 94 93 189 90 89 190 97 96 191 97 96 192 90 89 193 95 94 194 94 93 195 97 96 196 98 97 197 98 97 198 97 96 199 99 98 200 99 98 201 97 96 202 100 99 203 100 99 204 97 96 205 101 100 206 101 100 207 97 96 208 95 94 209 100 99 210 101 100 211 102 101 212 102 101 213 101 100 214 103 102 215 103 102 216 101 100 217 104 103 218 105 104 219 95 94 220 96 95 221 95 94 222 105 104 223 101 100 224 105 104 225 96 95 226 106 105 227 104 103 228 101 100 229 107 106 230 107 106 231 101 100 232 105 104 233 108 107 234 109 108 235 106 105 236 106 105 237 109 108 238 110 109 239 106 105 240 110 109 241 105 104 242 110 109 243 109 108 244 111 110 245 110 109 246 111 110 247 105 104 248 105 104 249 111 110 250 112 111 251 105 104 252 112 111 253 107 106 254 107 106 255 112 111 256 113 112 257 107 106 258 113 112 259 114 113 260 107 106 261 114 113 262 104 103 263 114 113 264 113 112 265 115 114 266 104 103 267 114 113 268 116 115 269 114 113 270 115 114 271 117 116 272 116 115 273 114 113 274 118 117 275 118 117 276 114 113 277 117 116 278 119 118 279 120 119 280 121 120 281 119 118 282 121 120 283 122 121 284 121 120 285 120 119 286 123 122 287 122 121 288 121 120 289 124 123 290 122 121 291 124 123 292 125 124 293 121 120 294 123 122 295 126 125 296 121 120 297 126 125 298 124 123 299 126 125 300 123 122 301 127 126 302 126 125 303 127 126 304 128 127 305 126 125 306 128 127 307 129 128 308 126 125 309 129 128 310 130 129 311 126 125 312 130 129 313 131 130 314 126 125 315 131 130 316 132 131 317 126 125 318 132 131 319 124 123 320 132 131 321 131 130 322 133 132 323 132 131 324 133 132 325 134 133 326 124 123 327 132 131 328 135 134 329 135 134 330 132 131 331 134 133 332 136 135 333 125 124 334 124 123 335 136 135 336 124 123 337 135 134 338 125 124 339 136 135 340 137 136 341 125 124 342 137 136 343 138 137 344 138 137 345 137 136 346 139 138 347 137 136 348 136 135 349 140 139 350 137 136 351 140 139 352 139 138 353 140 139 354 136 135 355 135 134 356 139 138 357 140 139 358 141 140 359 141 140 360 140 139 361 142 141 362 142 141 363 140 139 364 135 134 365 142 141 366 135 134 367 143 142 368 143 142 369 135 134 370 144 143 371 144 143 372 135 134 373 145 144 374 145 144 375 135 134 376 134 133 377 144 143 378 145 144 379 146 145 380 145 144 381 134 133 382 147 146 383 146 145 384 145 144 385 148 147 386 148 147 387 145 144 388 147 146 389</p>
        </triangles>
      </mesh>
    </geometry>
  </library_geometries>
  <library_controllers>
    <controller id="Armature_A1__Mt_CmnTex_Etc_SheikerPot_A-skin" name="Armature">
      <skin source="#A1__Mt_CmnTex_Etc_SheikerPot_A-mesh">
        <bind_shape_matrix>1 0 0 0 0 1 0 0 0 0 1 0 0 0 0 1</bind_shape_matrix>
        <source id="Armature_A1__Mt_CmnTex_Etc_SheikerPot_A-skin-joints">
          <Name_array id="Armature_A1__Mt_CmnTex_Etc_SheikerPot_A-skin-joints-array" count="1">Root</Name_array>
          <technique_common>
            <accessor source="#Armature_A1__Mt_CmnTex_Etc_SheikerPot_A-skin-joints-array" count="1" stride="1">
              <param name="JOINT" type="name"/>
            </accessor>
          </technique_common>
        </source>
        <source id="Armature_A1__Mt_CmnTex_Etc_SheikerPot_A-skin-bind_poses">
          <float_array id="Armature_A1__Mt_CmnTex_Etc_SheikerPot_A-skin-bind_poses-array" count="16">1 0 0 0 0 -1.62921e-7 1 0 0 -1 -1.62921e-7 0 0 0 0 1</float_array>
          <technique_common>
            <accessor source="#Armature_A1__Mt_CmnTex_Etc_SheikerPot_A-skin-bind_poses-array" count="1" stride="16">
              <param name="TRANSFORM" type="float4x4"/>
            </accessor>
          </technique_common>
        </source>
        <source id="Armature_A1__Mt_CmnTex_Etc_SheikerPot_A-skin-weights">
          <float_array id="Armature_A1__Mt_CmnTex_Etc_SheikerPot_A-skin-weights-array" count="149">1 1 1 1 1 1 1 1 1 1 1 1 1 1 1 1 1 1 1 1 1 1 1 1 1 1 1 1 1 1 1 1 1 1 1 1 1 1 1 1 1 1 1 1 1 1 1 1 1 1 1 1 1 1 1 1 1 1 1 1 1 1 1 1 1 1 1 1 1 1 1 1 1 1 1 1 1 1 1 1 1 1 1 1 1 1 1 1 1 1 1 1 1 1 1 1 1 1 1 1 1 1 1 1 1 1 1 1 1 1 1 1 1 1 1 1 1 1 1 1 1 1 1 1 1 1 1 1 1 1 1 1 1 1 1 1 1 1 1 1 1 1 1 1 1 1 1 1 1</float_array>
          <technique_common>
            <accessor source="#Armature_A1__Mt_CmnTex_Etc_SheikerPot_A-skin-weights-array" count="149" stride="1">
              <param name="WEIGHT" type="float"/>
            </accessor>
          </technique_common>
        </source>
        <joints>
          <input semantic="JOINT" source="#Armature_A1__Mt_CmnTex_Etc_SheikerPot_A-skin-joints"/>
          <input semantic="INV_BIND_MATRIX" source="#Armature_A1__Mt_CmnTex_Etc_SheikerPot_A-skin-bind_poses"/>
        </joints>
        <vertex_weights count="149">
          <input semantic="JOINT" source="#Armature_A1__Mt_CmnTex_Etc_SheikerPot_A-skin-joints" offset="0"/>
          <input semantic="WEIGHT" source="#Armature_A1__Mt_CmnTex_Etc_SheikerPot_A-skin-weights" offset="1"/>
          <vcount>1 1 1 1 1 1 1 1 1 1 1 1 1 1 1 1 1 1 1 1 1 1 1 1 1 1 1 1 1 1 1 1 1 1 1 1 1 1 1 1 1 1 1 1 1 1 1 1 1 1 1 1 1 1 1 1 1 1 1 1 1 1 1 1 1 1 1 1 1 1 1 1 1 1 1 1 1 1 1 1 1 1 1 1 1 1 1 1 1 1 1 1 1 1 1 1 1 1 1 1 1 1 1 1 1 1 1 1 1 1 1 1 1 1 1 1 1 1 1 1 1 1 1 1 1 1 1 1 1 1 1 1 1 1 1 1 1 1 1 1 1 1 1 1 1 1 1 1 1 </vcount>
          <v>0 0 0 1 0 2 0 3 0 4 0 5 0 6 0 7 0 8 0 9 0 10 0 11 0 12 0 13 0 14 0 15 0 16 0 17 0 18 0 19 0 20 0 21 0 22 0 23 0 24 0 25 0 26 0 27 0 28 0 29 0 30 0 31 0 32 0 33 0 34 0 35 0 36 0 37 0 38 0 39 0 40 0 41 0 42 0 43 0 44 0 45 0 46 0 47 0 48 0 49 0 50 0 51 0 52 0 53 0 54 0 55 0 56 0 57 0 58 0 59 0 60 0 61 0 62 0 63 0 64 0 65 0 66 0 67 0 68 0 69 0 70 0 71 0 72 0 73 0 74 0 75 0 76 0 77 0 78 0 79 0 80 0 81 0 82 0 83 0 84 0 85 0 86 0 87 0 88 0 89 0 90 0 91 0 92 0 93 0 94 0 95 0 96 0 97 0 98 0 99 0 100 0 101 0 102 0 103 0 104 0 105 0 106 0 107 0 108 0 109 0 110 0 111 0 112 0 113 0 114 0 115 0 116 0 117 0 118 0 119 0 120 0 121 0 122 0 123 0 124 0 125 0 126 0 127 0 128 0 129 0 130 0 131 0 132 0 133 0 134 0 135 0 136 0 137 0 138 0 139 0 140 0 141 0 142 0 143 0 144 0 145 0 146 0 147 0 148</v>
        </vertex_weights>
      </skin>
    </controller>
  </library_controllers>
  <library_visual_scenes>
    <visual_scene id="Scene" name="Scene">
      <node id="Armature" name="Armature" type="NODE">
        <matrix sid="transform">1 0 0 0 0 -1.62921e-7 -1 0 0 1 -1.62921e-7 0 0 0 0 1</matrix>
        <node id="Armature_Root" name="Root" sid="Root" type="JOINT">
          <matrix sid="transform">1 0 0 0 0 1 0 0 0 0 1 0 0 0 0 1</matrix>
          <extra>
            <technique profile="blender">
              <layer sid="layer" type="string">0</layer>
              <tip_x sid="tip_x" type="float">0</tip_x>
              <tip_y sid="tip_y" type="float">1</tip_y>
              <tip_z sid="tip_z" type="float">0</tip_z>
            </technique>
          </extra>
        </node>
        <node id="A1__Mt_CmnTex_Etc_SheikerPot_A" name="A1__Mt_CmnTex_Etc_SheikerPot_A" type="NODE">
          <matrix sid="transform">1 0 0 0 0 1 0 0 0 0 1 0 0 0 0 1</matrix>
          <instance_controller url="#Armature_A1__Mt_CmnTex_Etc_SheikerPot_A-skin">
            <skeleton>#Armature_Root</skeleton>
            <bind_material>
              <technique_common>
                <instance_material symbol="Mt_CmnTex_Etc_SheikerPot_A-material" target="#Mt_CmnTex_Etc_SheikerPot_A-material">
                  <bind_vertex_input semantic="A1__Mt_CmnTex_Etc_SheikerPot_A-texcoord" input_semantic="TEXCOORD" input_set="0"/>
                </instance_material>
              </technique_common>
            </bind_material>
          </instance_controller>
        </node>
      </node>
    </visual_scene>
  </library_visual_scenes>
  <scene>
    <instance_visual_scene url="#Scene"/>
  </scene>
</COLLADA>