<?xml version="1.0" encoding="utf-8"?>
<COLLADA xmlns="http://www.collada.org/2005/11/COLLADASchema" version="1.4.1" xmlns:xsi="http://www.w3.org/2001/XMLSchema-instance">
  <asset>
    <contributor>
      <author>Blender User</author>
      <authoring_tool>Blender 3.1.2 commit date:2022-03-31, commit time:17:40, hash:cc66d1020c3b</authoring_tool>
    </contributor>
    <created>2023-06-01T15:31:26</created>
    <modified>2023-06-01T15:31:26</modified>
    <unit name="meter" meter="1"/>
    <up_axis>Z_UP</up_axis>
  </asset>
  <library_effects>
    <effect id="Mt_CmnTex_Etc_SheikerPot_A-effect">
      <profile_COMMON>
        <newparam sid="CmnTex_Etc_SheikerPot_A_Alb_png-surface">
          <surface type="2D">
            <init_from>CmnTex_Etc_SheikerPot_A_Alb_png</init_from>
          </surface>
        </newparam>
        <newparam sid="CmnTex_Etc_SheikerPot_A_Alb_png-sampler">
          <sampler2D>
            <source>CmnTex_Etc_SheikerPot_A_Alb_png-surface</source>
          </sampler2D>
        </newparam>
        <technique sid="common">
          <lambert>
            <emission>
              <color sid="emission">0 0 0 1</color>
            </emission>
            <diffuse>
              <texture texture="CmnTex_Etc_SheikerPot_A_Alb_png-sampler" texcoord="pot__Mt_CmnTex_Etc_SheikerPot_A-texcoord"/>
            </diffuse>
            <index_of_refraction>
              <float sid="ior">1.45</float>
            </index_of_refraction>
          </lambert>
        </technique>
      </profile_COMMON>
    </effect>
  </library_effects>
  <library_images>
    <image id="CmnTex_Etc_SheikerPot_A_Alb_png" name="CmnTex_Etc_SheikerPot_A_Alb_png">
      <init_from>CmnTex_Etc_SheikerPot_A_Alb.png</init_from>
    </image>
  </library_images>
  <library_materials>
    <material id="Mt_CmnTex_Etc_SheikerPot_A-material" name="Mt_CmnTex_Etc_SheikerPot_A">
      <instance_effect url="#Mt_CmnTex_Etc_SheikerPot_A-effect"/>
    </material>
  </library_materials>
  <library_geometries>
    <geometry id="pot__Mt_CmnTex_Etc_SheikerPot_A-mesh" name="pot__Mt_CmnTex_Etc_SheikerPot_A">
      <mesh>
        <source id="pot__Mt_CmnTex_Etc_SheikerPot_A-mesh-positions">
          <float_array id="pot__Mt_CmnTex_Etc_SheikerPot_A-mesh-positions-array" count="1554">-0.2185059 0.4611816 -0.378418 -0.2424316 0.8886719 -0.4199219 0 0.4611816 -0.4370117 0 0.8886719 -0.4848633 -0.2424316 0.8886719 -0.4199219 0 1.299805 -0.4899902 -0.2449951 1.299805 -0.4243164 0 1.397461 -0.4619141 -0.230957 1.397461 -0.3999023 -0.3999023 1.397461 -0.230957 -0.2061768 1.47168 -0.3569336 -0.3569336 1.47168 -0.2061768 -0.4123535 1.47168 0 -0.3081055 1.583984 -0.1779785 -0.355957 1.583984 0 -0.3461914 1.698242 0 -0.2998047 1.698242 -0.1730957 -0.3461914 1.698242 0 -0.326416 1.779297 -0.1884766 -0.3769531 1.779297 0 -0.378418 0.4611816 -0.2185059 -0.4199219 0.8886719 -0.2424316 -0.2185059 0.4611816 -0.378418 -0.2424316 0.8886719 -0.4199219 -0.4199219 0.8886719 -0.2424316 -0.2449951 1.299805 -0.4243164 -0.4243164 1.299805 -0.2449951 -0.230957 1.397461 -0.3999023 -0.3999023 1.397461 -0.230957 -0.4619141 1.397461 0 -0.3569336 1.47168 -0.2061768 -0.4123535 1.47168 0 -0.4370117 0.4611816 0 -0.4848633 0.8886719 0 -0.378418 0.4611816 -0.2185059 -0.4199219 0.8886719 -0.2424316 -0.4848633 0.8886719 0 -0.4243164 1.299805 -0.2449951 -0.4899902 1.299805 0 -0.3999023 1.397461 -0.230957 -0.4619141 1.397461 0 0.378418 0.4611816 -0.2185059 0.4199219 0.8886719 -0.2424316 0.4370117 0.4611816 0 0.4848633 0.8886719 0 0.4199219 0.8886719 -0.2424316 0.4899902 1.299805 0 0.4243164 1.299805 -0.2449951 0.4619141 1.397461 0 0.3999023 1.397461 -0.230957 0.230957 1.397461 -0.3999023 0.3569336 1.47168 -0.2061768 0.2061768 1.47168 -0.3569336 0 1.47168 -0.4123535 0.1779785 1.583984 -0.3081055 0 1.583984 -0.355957 0 1.698242 -0.3461914 0.1730957 1.698242 -0.2998047 0 1.698242 -0.3461914 0.1884766 1.779297 -0.326416 0 1.779297 -0.3769531 -0.1884766 1.779297 -0.326416 0 1.841797 -0.3652344 -0.1826172 1.841797 -0.3164063 -0.3164063 1.841797 -0.1826172 -0.1621094 1.871094 -0.2807617 -0.2807617 1.871094 -0.1621094 -0.3164063 1.841797 -0.1826172 -0.3769531 1.779297 0 -0.3652344 1.841797 0 -0.326416 1.779297 -0.1884766 -0.1884766 1.779297 -0.326416 -0.2998047 1.698242 -0.1730957 -0.1730957 1.698242 -0.2998047 -0.1779785 1.583984 -0.3081055 -0.2998047 1.698242 -0.1730957 -0.3081055 1.583984 -0.1779785 -0.3569336 1.47168 -0.2061768 -0.2061768 1.47168 -0.3569336 0 1.47168 -0.4123535 -0.230957 1.397461 -0.3999023 0 1.397461 -0.4619141 0.230957 1.397461 -0.3999023 0 1.299805 -0.4899902 0.2449951 1.299805 -0.4243164 0 0.8886719 -0.4848633 0.2424316 0.8886719 -0.4199219 0.2185059 0.4611816 -0.378418 0 0.8886719 -0.4848633 0 0.4611816 -0.4370117 0 0.07800292 -0.3500977 -0.2185059 0.4611816 -0.378418 -0.1748047 0.07800292 -0.3032227 0 0 -0.322998 -0.1616211 0 -0.2790527 -0.279541 -6.55651e-4 -0.161499 -0.1748047 0.07800292 -0.3032227 -0.315918 0.07745361 -0.1829833 -0.2185059 0.4611816 -0.378418 -0.378418 0.4611816 -0.2185059 0.3769531 1.779297 0 0.326416 1.779297 -0.1884766 0.3652344 1.841797 0 0.3164063 1.841797 -0.1826172 0.1826172 1.841797 -0.3164063 0.2807617 1.871094 -0.1621094 0.1621094 1.871094 -0.2807617 -0.2807617 1.871094 -0.1621094 -0.3652344 1.841797 0 -0.3242188 1.871094 0 -0.3164063 1.841797 -0.1826172 -0.1826172 1.841797 -0.3164063 -0.326416 1.779297 -0.1884766 -0.1884766 1.779297 -0.326416 0 1.779297 -0.3769531 -0.1730957 1.698242 -0.2998047 0 1.698242 -0.3461914 0 1.583984 -0.355957 -0.1730957 1.698242 -0.2998047 -0.1779785 1.583984 -0.3081055 -0.2061768 1.47168 -0.3569336 0 1.47168 -0.4123535 0.2061768 1.47168 -0.3569336 0 1.397461 -0.4619141 0.230957 1.397461 -0.3999023 0.3999023 1.397461 -0.230957 0.2449951 1.299805 -0.4243164 0.4243164 1.299805 -0.2449951 0.2424316 0.8886719 -0.4199219 0.4199219 0.8886719 -0.2424316 0.378418 0.4611816 -0.2185059 0.2424316 0.8886719 -0.4199219 0.2185059 0.4611816 -0.378418 0.1748047 0.07800292 -0.3032227 0 0.4611816 -0.4370117 0 0.07800292 -0.3500977 0 0 -0.322998 0.1616211 0 -0.279541 0 1.871094 -0.3242188 -0.1826172 1.841797 -0.3164063 -0.1621094 1.871094 -0.2807617 0 1.841797 -0.3652344 0.1826172 1.841797 -0.3164063 0 1.779297 -0.3769531 0.1884766 1.779297 -0.326416 0.326416 1.779297 -0.1884766 0.1730957 1.698242 -0.2998047 0.2998047 1.698242 -0.1730957 0.3081055 1.583984 -0.1779785 0.1730957 1.698242 -0.2998047 0.1779785 1.583984 -0.3081055 0.2061768 1.47168 -0.3569336 0.3569336 1.47168 -0.2061768 0.4123535 1.47168 0 0.3999023 1.397461 -0.230957 0.4619141 1.397461 0 0.1621094 1.871094 -0.2807617 0 1.841797 -0.3652344 0 1.871094 -0.3242188 0.1826172 1.841797 -0.3164063 0.3164063 1.841797 -0.1826172 0.1884766 1.779297 -0.326416 0.326416 1.779297 -0.1884766 0.3769531 1.779297 0 0.2998047 1.698242 -0.1730957 0.3461914 1.698242 0 0.355957 1.583984 0 0.2998047 1.698242 -0.1730957 0.3081055 1.583984 -0.1779785 0.3569336 1.47168 -0.2061768 0.4123535 1.47168 0 0.3652344 1.841797 0 0.3164063 1.841797 -0.1826172 0.3242188 1.871094 0 0.2807617 1.871094 -0.1621094 0.2937012 1.899414 -0.168457 0.2937012 1.855469 -0.168457 0.1695557 1.899414 -0.2927246 0.1695557 1.855469 -0.2927246 0 1.899414 -0.3381348 0 1.855469 -0.3381348 -0.1695557 1.899414 -0.2927246 -0.1695557 1.855469 -0.2927246 -0.2937012 1.899414 -0.168457 -0.2937012 1.855469 -0.168457 -0.2937012 1.899414 -0.168457 -0.2937012 1.855469 -0.168457 -0.3391113 1.899414 0.001094818 -0.3391113 1.855469 0.001094818 -0.2937012 1.899414 0.1706542 -0.2937012 1.855469 0.1706542 -0.1695557 1.899414 0.2946777 -0.1695557 1.855469 0.2946777 0 1.899414 0.340332 0 1.855469 0.340332 0 1.899414 0.340332 0 1.855469 0.340332 0.1695557 1.899414 0.2946777 0.1695557 1.855469 0.2946777 0.2937012 1.899414 0.1706542 0.2937012 1.855469 0.1706542 0.3391113 1.899414 0.001094818 0.3391113 1.855469 0.001094818 0.2937012 1.899414 -0.168457 0.2937012 1.855469 -0.168457 0.2807617 1.871094 0.1621094 0.3652344 1.841797 0 0.3242188 1.871094 0 0.3164063 1.841797 0.1826172 0.1621094 1.871094 0.2807617 0.3769531 1.779297 0 0.3652344 1.841797 0 0.326416 1.779297 0.1884766 0.1826172 1.841797 0.3164063 0 1.871094 0.3242188 0.3461914 1.698242 0 0.3769531 1.779297 0 0.2998047 1.698242 0.1730957 0 1.841797 0.3652344 -0.1621094 1.871094 0.2807617 0.1884766 1.779297 0.326416 -0.1826172 1.841797 0.3164063 -0.2807617 1.871094 0.1621094 0 1.779297 0.3769531 -0.3164063 1.841797 0.1826172 -0.3242188 1.871094 0 -0.3652344 1.841797 0 -0.1884766 1.779297 0.326416 -0.326416 1.779297 0.1884766 -0.3652344 1.841797 0 -0.3769531 1.779297 0 0 1.698242 0.3461914 -0.1730957 1.698242 0.2998047 0.1730957 1.698242 0.2998047 -0.2998047 1.698242 0.1730957 -0.3769531 1.779297 0 -0.3461914 1.698242 0 -0.355957 1.583984 0 -0.3081055 1.583984 0.1779785 -0.1779785 1.583984 0.3081055 -0.3569336 1.47168 0.2061768 -0.4123535 1.47168 0 0 1.583984 0.355957 -0.2061768 1.47168 0.3569336 0 1.47168 0.4123535 0.1779785 1.583984 0.3081055 0.2061768 1.47168 0.3569336 0.3081055 1.583984 0.1779785 0.3461914 1.698242 0 0.355957 1.583984 0 0.4123535 1.47168 0 0.3569336 1.47168 0.2061768 0.4619141 1.397461 0 0.4123535 1.47168 0 0.3999023 1.397461 0.230957 0.4619141 1.397461 0 0.4899902 1.299805 0 0.230957 1.397461 0.3999023 0.4243164 1.299805 0.2449951 0.4848633 0.8886719 0 0.4199219 0.8886719 0.2424316 0 1.397461 0.4619141 0.2449951 1.299805 0.4243164 -0.230957 1.397461 0.3999023 0 1.299805 0.4899902 -0.3999023 1.397461 0.230957 -0.4123535 1.47168 0 -0.4619141 1.397461 0 -0.2449951 1.299805 0.4243164 0 0.8886719 0.4848633 -0.4243164 1.299805 0.2449951 -0.4619141 1.397461 0 -0.4899902 1.299805 0 -0.2424316 0.8886719 0.4199219 -0.4199219 0.8886719 0.2424316 -0.4848633 0.8886719 0 -0.4370117 0.4611816 0 -0.378418 0.4611816 0.2185059 -0.3649902 0.07800292 7.34806e-4 -0.4370117 0.4611816 0 -0.2185059 0.4611816 0.378418 -0.315918 0.07800292 0.1832275 -0.322998 0 0.001365661 -0.279541 0 0.1628417 -0.1824951 0.07800292 0.3154297 -0.161499 0 0.279541 0 0.4611816 0.4370117 0 0.07800292 0.364502 0 0 0.322998 0.161499 0 0.279541 0.2424316 0.8886719 0.4199219 0.2185059 0.4611816 0.378418 0.1824951 0.07800292 0.3154297 0.279541 0 0.161499 0.378418 0.4611816 0.2185059 0.4848633 0.8886719 0 0.4370117 0.4611816 0 0.315918 0.07800292 0.1820068 0.322998 0 0 0.4370117 0.4611816 0 0.3649902 0.07800292 -4.75645e-4 0.3649902 0.07800292 -4.75645e-4 0.378418 0.4611816 -0.2185059 0.4370117 0.4611816 0 0.3027344 0.07800292 -0.175293 0.322998 0 0 0.2800293 0 -0.1610107 0.1616211 0 -0.279541 0.3027344 0.07800292 -0.175293 0.1748047 0.07800292 -0.3032227 0.2185059 0.4611816 -0.378418 0.378418 0.4611816 -0.2185059 -0.378418 0.4611816 -0.2185059 -0.3649902 0.07800292 7.34806e-4 -0.4370117 0.4611816 0 -0.315918 0.07745361 -0.1829833 -0.279541 -6.55651e-4 -0.161499 -0.322998 0 0.001365661 0.1695557 1.899414 -0.2927246 0 1.899414 0 0.2937012 1.899414 -0.168457 0 1.899414 -0.3381348 0.3391113 1.899414 0.001094818 -0.1695557 1.899414 -0.2927246 0.2937012 1.899414 0.1706542 -0.2937012 1.899414 -0.168457 0.1695557 1.899414 0.2946777 -0.3391113 1.899414 0.001094818 0 1.899414 0.340332 -0.2937012 1.899414 0.1706542 -0.1695557 1.899414 0.2946777 -0.1616211 0 -0.2790527 -0.2293701 -5.73635e-4 -0.1323242 -0.279541 -6.55651e-4 -0.161499 -0.322998 0 0.001365661 -0.1253662 0 -0.2171631 0 0 -0.322998 -0.2648926 0 0.001184463 0 0 -0.2507324 -0.2293701 0 0.133667 -0.279541 0 0.1628417 -0.161499 0 0.279541 0.1253662 0 -0.2171631 0.1616211 0 -0.279541 -0.1324463 0 0.2294922 0.2171631 0 -0.1252441 0.2800293 0 -0.1610107 0 0 0.2648926 0 0 0.322998 0.2648926 0 6.39558e-5 0.322998 0 0 0.279541 0 0.161499 0.1324463 0 0.2294922 0.161499 0 0.279541 0.2293701 0 0.1324463 0 0.1095581 0 -0.314209 1.587891 -0.1835938 -6.69003e-4 1.59082 -0.3762207 -0.2702637 1.306641 -0.4667969 -0.1657715 1.875977 -0.2871094 -0.3308105 1.785156 -0.1975098 -0.3444824 1.879883 0.004642486 0.3312988 1.875977 2.45094e-4 0.3369141 1.785156 -0.1968994 0.1658936 1.875977 -0.2871094 0.3254395 1.589844 -0.1846924 0.2709961 1.306641 -0.4577637 -6.69003e-4 1.59082 -0.3762207 0.3466797 1.90332 0.001105308 0.2993164 1.857422 -0.1717529 0.1761475 1.902344 -0.2993164 0.1761475 1.902344 -0.2993164 0.2993164 1.857422 -0.1717529 -9.75728e-5 1.857422 -0.3444824 0.1761475 1.902344 -0.2993164 -9.75728e-5 1.857422 -0.3444824 -0.1733398 1.90332 -0.2990723 -0.1733398 1.90332 -0.2990723 -9.75728e-5 1.857422 -0.3444824 -0.2993164 1.857422 -0.1717529 -0.1733398 1.90332 -0.2990723 -0.2993164 1.857422 -0.1717529 -0.3466797 1.90332 0.001105308 -0.3466797 1.90332 0.001105308 -0.2993164 1.857422 -0.1717529 -0.2995605 1.857422 0.1739501 -0.3466797 1.90332 0.001105308 -0.2995605 1.857422 0.1739501 -0.1704102 1.902344 0.3010254 -0.1704102 1.902344 0.3010254 -0.2995605 1.857422 0.1739501 -9.75132e-5 1.857422 0.3466797 -0.1704102 1.902344 0.3010254 -9.75132e-5 1.857422 0.3466797 0.1732178 1.90332 0.3012695 0.1732178 1.90332 0.3012695 -9.75132e-5 1.857422 0.3466797 0.2993164 1.857422 0.1739501 0.1732178 1.90332 0.3012695 0.2993164 1.857422 0.1739501 0.3466797 1.90332 0.001105308 0.3466797 1.90332 0.001105308 0.2993164 1.857422 0.1739501 0.2993164 1.857422 -0.1717529 -0.3623047 0.06365966 -0.2176514 0.1848145 0.06298828 -0.3395996 -9.38416e-4 -0.001900672 -0.3256836 0.2133789 0.06817626 0.3571777 -0.003967285 -0.01696777 0.3244629 0.2814941 -0.01100158 0.1589355 0.2814941 -0.01100158 0.1589355 -1.5521e-4 0.1085205 -1.74761e-4 0.1308594 -0.01171112 -0.2243652 -0.2369385 -0.01495361 -0.1333008 0.1308594 -0.01171112 -0.2243652 -1.5521e-4 0.1085205 -1.74761e-4 -0.003967285 -0.01696777 0.3244629 -0.2369385 -0.01495361 -0.1333008 -1.5521e-4 0.1085205 -1.74761e-4 0.2814941 -0.01100158 0.1589355 -0.003967285 -0.01696777 0.3244629 -1.5521e-4 0.1085205 -1.74761e-4 0.2814941 -0.01100158 0.1589355 0.1308594 -0.01171112 -0.2243652 0.3969727 0.06463623 0.002634048 -0.2369385 -0.01495361 -0.1333008 -9.38416e-4 -0.001900672 -0.3256836 -0.3623047 0.06365966 -0.2176514 -0.3449707 0.06158447 0.1968994 -0.003967285 -0.01696777 0.3244629 -0.2111816 0.07086181 0.3579102 0.1658936 1.875977 -0.2871094 0 1.78418 -0.387207 -0.1657715 1.875977 -0.2871094 -0.3308105 1.785156 -0.1975098 -0.1657715 1.875977 -0.2871094 -6.69003e-4 1.59082 -0.3762207 -0.314209 1.587891 -0.1835938 -0.3308105 1.785156 -0.1975098 -0.3615723 1.587891 0.001662254 -0.3444824 1.879883 0.004642486 0.3254395 1.589844 -0.1846924 0.3215332 1.589844 0.1870117 0.5200195 1.304688 -0.005252838 0.4589844 1.301758 0.2685547 0.1879883 1.785156 0.3374023 0.3215332 1.589844 0.1870117 0.3366699 1.785156 0.1875 6.51836e-4 1.588867 0.369873 0.1879883 1.785156 0.3374023 0.3366699 1.785156 0.1875 0.1647949 1.874023 0.2839355 0.3312988 1.875977 2.45094e-4 -0.001911163 1.305664 0.5410156 -0.2111816 0.07086181 0.3579102 0.2133789 0.06817626 0.3571777 -0.003967285 -0.01696777 0.3244629 -9.38416e-4 -0.001900672 -0.3256836 0.1848145 0.06298828 -0.3395996 0.1308594 -0.01171112 -0.2243652 0.3969727 0.06463623 0.002634048 0.3215332 1.589844 0.1870117 6.51836e-4 1.588867 0.369873 -0.001911163 1.305664 0.5410156 0.4589844 1.301758 0.2685547 0.2133789 0.06817626 0.3571777 0.3254395 1.589844 -0.1846924 -6.69003e-4 1.59082 -0.3762207 0.3369141 1.785156 -0.1968994 0 1.78418 -0.387207 0.1658936 1.875977 -0.2871094 0.3215332 1.589844 0.1870117 0.3254395 1.589844 -0.1846924 0.3366699 1.785156 0.1875 0.3369141 1.785156 -0.1968994 0.3312988 1.875977 2.45094e-4 -0.53125 1.302734 0.0016613 -0.4462891 1.304688 0.263916 -0.3615723 1.587891 0.001662254 -0.1804199 1.882813 0.3061523 -0.3444824 1.879883 0.004642486 -0.2702637 1.306641 -0.4667969 -0.3623047 0.06365966 -0.2176514 -0.53125 1.302734 0.0016613 -0.314209 1.587891 -0.1835938 -0.3615723 1.587891 0.001662254 0.4589844 1.301758 0.2685547 0.3969727 0.06463623 0.002634048 0.5200195 1.304688 -0.005252838 0.2133789 0.06817626 0.3571777 0.2814941 -0.01100158 0.1589355 -0.1804199 1.882813 0.3061523 0.1879883 1.785156 0.3374023 0.1647949 1.874023 0.2839355 6.51836e-4 1.588867 0.369873 -0.4462891 1.304688 0.263916 -0.001911163 1.305664 0.5410156 -0.2111816 0.07086181 0.3579102 -0.3449707 0.06158447 0.1968994 -0.53125 1.302734 0.0016613 -0.3623047 0.06365966 -0.2176514 -0.3466797 1.90332 0.001105308 -0.1704102 1.902344 0.3010254 -0.1733398 1.90332 -0.2990723 0.1761475 1.902344 -0.2993164 0.3466797 1.90332 0.001105308 0.1732178 1.90332 0.3012695 8.21114e-4 0.458252 -0.4584961 0.1848145 0.06298828 -0.3395996 -0.3623047 0.06365966 -0.2176514 -0.2702637 1.306641 -0.4667969 0.2709961 1.306641 -0.4577637 -6.69003e-4 1.59082 -0.3762207 0.1848145 0.06298828 -0.3395996 0.392334 0.4624023 -0.2253417 0.3969727 0.06463623 0.002634048 0.5200195 1.304688 -0.005252838 0.3254395 1.589844 -0.1846924</float_array>
          <technique_common>
            <accessor source="#pot__Mt_CmnTex_Etc_SheikerPot_A-mesh-positions-array" count="518" stride="3">
              <param name="X" type="float"/>
              <param name="Y" type="float"/>
              <param name="Z" type="float"/>
            </accessor>
          </technique_common>
        </source>
        <source id="pot__Mt_CmnTex_Etc_SheikerPot_A-mesh-normals">
          <float_array id="pot__Mt_CmnTex_Etc_SheikerPot_A-mesh-normals-array" count="1017">-0.2575008 -0.1076412 -0.9602639 -0.2573298 -0.107542 -0.9603209 -0.2574179 -0.1075931 -0.9602915 -0.2582963 -0.05934852 -0.9642412 -0.2587929 -0.01200705 -0.9658583 -0.2568287 0.1259382 -0.9582164 -0.2569852 0.1263165 -0.9581246 -0.249554 0.2677896 -0.9305974 -0.4264228 0.4117863 -0.8053545 -0.5940974 0.5423064 -0.5940976 -0.5940974 0.542307 -0.5940972 -0.7403955 0.5075653 -0.4406723 -0.8689108 0.4363801 -0.233595 -0.9296028 0.2711317 -0.2496525 -0.9294299 0.2715075 -0.2498874 -0.9625436 0.08180326 -0.2584919 -0.9565075 -0.1392475 -0.2563276 -0.906906 -0.3441019 -0.243137 -0.9069641 -0.3439812 -0.2430911 -0.9068723 -0.344172 -0.2431637 -0.7030018 -0.107598 -0.7030016 -0.7030016 -0.1075981 -0.7030017 -0.7030017 -0.107598 -0.7030017 -0.7058598 -0.05935841 -0.7058601 -0.7070561 -0.0119661 -0.7070563 -0.7014501 0.1262362 -0.7014501 -0.7014503 0.1262364 -0.7014499 -0.6811965 0.2682222 -0.6811963 -0.7717297 0.4117176 -0.4846877 -0.8115331 0.542086 -0.2180754 -0.8114005 0.5423495 -0.2179135 -0.8115994 0.5419543 -0.2181564 -0.9602797 -0.10749 -0.257505 -0.960316 -0.1075893 -0.2573285 -0.9602973 -0.1075381 -0.2574194 -0.9642403 -0.05936205 -0.258296 -0.9658587 -0.01197481 -0.2587929 -0.9581611 0.1263887 -0.256814 -0.9581623 0.1260102 -0.2569952 -0.9304747 0.2682461 -0.2495216 -0.9305858 0.2675438 -0.249861 0.960264 -0.1076413 -0.2575007 0.9603209 -0.107542 -0.2573298 0.9602916 -0.1075931 -0.2574178 0.964241 -0.05934852 -0.2582963 0.9658582 -0.01200705 -0.2587928 0.9582163 0.1259385 -0.2568287 0.9581246 0.1263165 -0.2569851 0.9305972 0.2677902 -0.2495542 0.8053545 0.411786 -0.426423 0.5940974 0.5423067 -0.5940973 0.5940974 0.5423067 -0.5940976 0.4406719 0.5075657 -0.7403954 0.2335954 0.4363803 -0.8689104 0.2496525 0.2711317 -0.9296028 0.2498878 0.2715076 -0.9294298 0.2584918 0.08180302 -0.9625437 0.2563275 -0.139247 -0.9565075 0.2431376 -0.344103 -0.9069054 0.2430913 -0.343981 -0.9069641 -0.01020073 -0.08487176 -0.9963397 -0.2543868 0.1765709 -0.950847 -0.2547276 0.1777957 -0.9505276 -0.3630046 0.50939 -0.780224 -0.4198281 0.8046684 -0.4198254 -0.4198278 0.8046675 -0.4198272 -0.4198282 0.8046685 -0.4198248 -0.9507393 0.1765783 -0.254784 -0.9506327 0.1778026 -0.2543299 -0.9505947 0.1782352 -0.2541694 -0.8678149 -0.08591574 -0.4894036 -0.6639577 -0.3439762 -0.6639583 -0.663958 -0.3439766 -0.6639578 -0.7002239 -0.1391863 -0.7002241 -0.6806457 0.271003 -0.680646 -0.7047651 0.08131885 -0.7047649 -0.6806455 0.271003 -0.680646 -0.6362301 0.4363733 -0.6362308 -0.4214961 0.507633 -0.7514318 -0.2179561 0.5420933 -0.8115602 -0.2180299 0.5423555 -0.8113652 0.03376793 0.4111768 -0.91093 0.2495212 0.2682457 -0.9304748 0.2569952 0.1260102 -0.9581623 0.2568139 0.1263885 -0.9581611 0.258793 -0.01197481 -0.9658586 0.258296 -0.05936205 -0.9642403 0.2574194 -0.1075381 -0.9602973 0.2573284 -0.1075892 -0.960316 0.009646952 -0.1649842 -0.986249 -0.2498117 -0.2640725 -0.93159 -0.2530049 -0.2140078 -0.9434984 -0.2507181 -0.2664477 -0.9306697 -0.2462481 -0.3198993 -0.9148916 -0.4732891 -0.3327305 -0.8156518 -0.6017757 -0.421264 -0.6785299 -0.6386293 -0.2893451 -0.7130442 -0.6234235 -0.3241641 -0.7115201 -0.6782898 -0.1894 -0.7099652 -0.6958461 -0.1777524 -0.6958464 0.950421 0.1782026 -0.2548408 0.950847 0.1765711 -0.2543871 0.9505276 0.1777955 -0.2547276 0.7802239 0.5093901 -0.3630048 0.419828 0.8046684 -0.4198254 0.4198278 0.8046675 -0.4198272 0.419828 0.8046687 -0.4198248 -0.5734773 0.8047315 -0.1533983 -0.574115 0.8041951 -0.1538254 -0.5743097 0.8040311 -0.1539558 -0.7044534 0.5102949 -0.4932997 -0.6959781 0.1767125 -0.6959793 -0.6959784 0.1767128 -0.695979 -0.507183 -0.08537763 -0.857599 -0.2430796 -0.3441052 -0.90692 -0.2431488 -0.3439844 -0.9069473 -0.2563447 -0.138783 -0.9565703 -0.2496392 0.271317 -0.9295524 -0.2584993 0.08144247 -0.9625723 -0.2499288 0.2709409 -0.9295842 -0.2335925 0.4364033 -0.8688997 0.01123249 0.5074676 -0.8615976 0.2179131 0.5423498 -0.8114005 0.2180752 0.5420862 -0.811533 0.4846881 0.4117176 -0.7717294 0.6811964 0.2682223 -0.6811962 0.7014501 0.1262363 -0.7014501 0.7014501 0.1262364 -0.7014501 0.7070561 -0.01196616 -0.7070562 0.70586 -0.05935841 -0.70586 0.7030016 -0.107598 -0.7030017 0.7030016 -0.107598 -0.7030017 0.5015955 -0.165017 -0.8492181 0.2499835 -0.2645922 -0.9313964 0.2530049 -0.2140078 -0.9434984 0.2498118 -0.2640724 -0.93159 0.2456851 -0.3184734 -0.91554 0.2460572 -0.3194155 -0.9151118 -0.1535809 0.8042059 -0.5741655 -0.1536341 0.8047423 -0.5733991 -0.1536504 0.8049056 -0.5731654 0.07486724 0.5102844 -0.8567408 0.2547838 0.1765781 -0.9507394 0.2543301 0.1778028 -0.9506327 0.4894037 -0.08591574 -0.8678149 0.6639577 -0.3439764 -0.6639583 0.663958 -0.3439765 -0.6639579 0.7002239 -0.1391865 -0.7002241 0.6806458 0.2710031 -0.6806458 0.704765 0.08131879 -0.7047649 0.6806456 0.2710028 -0.6806461 0.6362302 0.4363734 -0.6362307 0.751431 0.5076339 -0.4214966 0.8115607 0.5420925 -0.2179564 0.8113648 0.5423559 -0.2180302 0.8116421 0.541983 -0.2179257 0.1533965 0.8047322 -0.5734769 0.1538261 0.8041956 -0.5741141 0.1539573 0.8040316 -0.5743086 0.4932984 0.5102954 -0.704454 0.6959783 0.1767125 -0.6959792 0.6959782 0.1767128 -0.6959791 0.8575989 -0.08537697 -0.5071834 0.9069202 -0.344105 -0.2430793 0.9069478 -0.3439835 -0.2431482 0.9565704 -0.1387831 -0.2563445 0.9295524 0.2713168 -0.249639 0.9625722 0.08144265 -0.2584996 0.9295841 0.270941 -0.2499289 0.8688998 0.4364033 -0.2335921 0.8689302 0.4363563 -0.2335668 0.5743451 0.8040797 -0.1535695 0.5733994 0.804742 -0.1536347 0.5741665 0.8042049 -0.1535819 0.5731654 0.8049055 -0.1536509 0.7074534 0 -0.7067601 0.7074537 0 -0.7067598 0.5001605 0 -0.8659328 0.5001606 0 -0.8659327 0 0 -1 0 0 -1 -0.5001595 0 -0.8659333 -0.5001596 0 -0.8659332 -0.707455 0 -0.7067584 -0.7074553 0 -0.7067582 -0.9659559 0 -0.2587069 -0.9659559 0 -0.2587066 -1 0 -4.86124e-6 -1 0 -4.85388e-6 -0.8659343 0 0.5001578 -0.8659346 0 0.5001575 -0.5003161 0 0.8658428 -0.5003163 0 0.8658428 -0.2599984 0 0.9656091 -0.2599983 0 0.9656091 0.2599983 0 0.9656091 0.2599984 0 0.9656091 0.5003151 0 0.8658434 0.5003153 0 0.8658433 0.8659344 0 0.5001575 0.8659347 0 0.5001572 1 0 -6.41291e-6 1 0 -6.41046e-6 0.9659563 0 -0.2587054 0.9659564 0 -0.2587051 0.5025764 0.8143866 0.2901579 0.574115 0.8041951 0.1538254 0.5743097 0.8040311 0.1539558 0.7443269 0.5113855 0.4294909 0.2902776 0.8144509 0.502403 0.9506327 0.1778026 0.2543302 0.9505946 0.1782352 0.2541697 0.8627608 -0.08566957 0.4983018 0.4294417 0.5112501 0.7444483 -1.90472e-4 0.8137974 0.5811486 0.906906 -0.3441019 0.243137 0.9068723 -0.344172 0.2431637 0.857024 -0.1440274 0.4947382 1.02403e-4 0.5116787 0.8591769 -0.2901577 0.8143872 0.5025755 0.4982061 -0.0855481 0.8628281 -0.4294907 0.5113857 0.744327 -0.5024039 0.8144503 0.2902776 1.16551e-4 -0.0849604 0.9963843 -0.7444483 0.5112498 0.429442 -0.5741665 0.8042049 0.1535815 -0.5743452 0.8040798 0.1535692 -0.4983018 -0.08566963 0.8627608 -0.862828 -0.08554744 0.4982064 -0.9505277 0.1777956 0.2547273 -0.950421 0.1782026 0.2548405 -1.62588e-4 -0.1436831 0.9896239 -0.4947383 -0.1440272 0.8570241 0.4948869 -0.1439253 0.8569554 -0.8569556 -0.1439249 0.4948866 -0.9069203 -0.344105 0.2430793 -0.9565704 -0.1387831 0.2563445 -0.9295524 0.2713168 0.249639 -0.8312082 0.279765 0.4804421 -0.4803102 0.2798725 0.8312482 -0.7459576 0.5076246 0.4311202 -0.8689302 0.4363563 0.2335668 -1.34259e-4 0.2802957 0.9599137 -0.431074 0.5075977 0.7460026 -6.24638e-5 0.5075392 0.8616287 0.4804422 0.279765 0.8312082 0.4311199 0.507624 0.7459582 0.8312481 0.2798728 0.4803103 0.9625436 0.08180326 0.2584919 0.9294299 0.2715075 0.2498877 0.8689106 0.43638 0.2335953 0.7460026 0.5075973 0.4310745 0.8115331 0.542086 0.2180754 0.8115994 0.5419543 0.2181564 0.7890481 0.4119292 0.4557604 0.9305858 0.2675438 0.249861 0.9581623 0.1260103 0.2569952 0.45586 0.4119541 0.7889776 0.8585954 0.1306923 0.495715 0.9658587 -0.01197481 0.2587929 0.8644112 -0.06144702 0.4990165 -1.21797e-4 0.4114974 0.9114109 0.4957775 0.1306343 0.8585683 -0.4557604 0.4119293 0.789048 -6.78226e-5 0.1303319 0.9914704 -0.7889773 0.4119541 0.4558602 -0.8115607 0.5420925 0.2179564 -0.8116421 0.541983 0.2179257 -0.4957152 0.1306921 0.8585955 -1.93674e-5 -0.06142121 0.998112 -0.8585584 0.130652 0.4957901 -0.9305972 0.2677902 0.2495543 -0.9582163 0.1259385 0.2568287 -0.4990165 -0.06144702 0.8644113 -0.8643942 -0.06144106 0.4990469 -0.964241 -0.05934852 0.2582963 -0.9602916 -0.1075931 0.2574178 -0.8566254 -0.1468922 0.4945863 -0.9167921 -0.3142921 0.2463995 -0.9504248 -0.1781512 0.2548623 -0.494287 -0.1474951 0.8566946 -0.8182249 -0.3243727 0.4746479 -0.8575039 -0.4598857 0.2306342 -0.7617037 -0.4716603 0.4442343 -0.4714919 -0.3243453 0.8200584 -0.4388734 -0.4703366 0.7656196 -6.85553e-5 -0.1478693 0.9890069 -6.35311e-5 -0.324171 0.9459985 0 -0.4697285 0.8828109 0.4412437 -0.4703449 0.7642511 0.4990339 -0.06142312 0.8644029 0.4945807 -0.1478465 0.8564645 0.4735108 -0.3244824 0.8188399 0.7628577 -0.4719526 0.4419376 0.856458 -0.1476622 0.4946471 0.960316 -0.1075893 0.2573284 0.9602797 -0.10749 0.257505 0.8190292 -0.324959 0.4728561 0.8573341 -0.4602248 0.2305892 0.9501962 -0.1791571 0.2550101 0.916547 -0.314949 0.2464729 0.8959751 -0.3235557 -0.3042045 0.9422461 -0.1899694 -0.2758333 0.9503957 -0.1783179 -0.2548545 0.9108918 -0.2864201 -0.2970516 0.8622608 -0.4181551 -0.2857493 0.820449 -0.3249463 -0.470397 0.6706785 -0.3172188 -0.6704943 0.682099 -0.2641982 -0.6818653 0.6821009 -0.2635846 -0.6821008 0.6906777 -0.2143103 -0.6906775 0.6906777 -0.2143103 -0.6906775 -0.9504106 -0.1788703 -0.2544116 -0.9166908 -0.316496 -0.2439435 -0.950259 -0.1790973 -0.2548179 -0.9169304 -0.3157782 -0.2439732 -0.8571407 -0.4621814 -0.2273723 -0.8568122 -0.4630915 -0.226758 0 1 0 0 1 0 0 1 2.59797e-7 0 1 2.5905e-7 0.001785516 -0.9999979 -0.001138091 0.1340139 -0.9873229 0.08505249 0.001238763 -0.999999 6.8089e-4 -7.68846e-5 -0.9999979 0.002088129 0.08380329 -0.9840305 0.1570387 0 -1 0 0.163381 -0.9865613 0.001910567 0 -0.9851886 0.1714745 0.1405475 -0.9866955 -0.08172214 -0.0857256 -0.9852036 0.1484083 0.08135735 -0.9865425 -0.1418278 -0.1501173 -0.9839947 0.09601634 0 -0.9865742 -0.1633144 -0.1569678 -0.9875801 0.006841123 -0.08155727 -0.9866063 -0.1412672 -0.1414438 -0.9865741 -0.08164167 -0.002666473 -0.9999378 0.01083451</float_array>
          <technique_common>
            <accessor source="#pot__Mt_CmnTex_Etc_SheikerPot_A-mesh-normals-array" count="339" stride="3">
              <param name="X" type="float"/>
              <param name="Y" type="float"/>
              <param name="Z" type="float"/>
            </accessor>
          </technique_common>
        </source>
        <source id="pot__Mt_CmnTex_Etc_SheikerPot_A-mesh-map">
          <float_array id="pot__Mt_CmnTex_Etc_SheikerPot_A-mesh-map-array" count="2016">0.3583984 0.8809814 0.4519043 0.8809814 0.3583984 1.005604 0.3583984 1.005604 0.4519043 0.8809814 0.4519043 1.005604 0.4519043 0.8809814 0.5395508 1.005604 0.4519043 1.005604 0.5395508 1.005604 0.4519043 0.8809814 0.5395508 0.8809814 0.5395508 1.005604 0.5395508 0.8809814 0.5913086 1.005604 0.5913086 1.005604 0.5395508 0.8809814 0.5913086 0.8809814 0.5913086 0.7592773 0.6103516 0.8809814 0.5913086 0.8809814 0.6103516 0.8809814 0.5913086 0.7592773 0.6103516 0.7592773 0.6103516 0.6403809 0.6591797 0.7592773 0.6103516 0.7592773 0.6591797 0.7592773 0.6103516 0.6403809 0.6591797 0.6403809 0.6591797 0.7592773 0.6591797 0.6403809 0.690918 0.6403809 0.6591797 0.7592773 0.690918 0.6403809 0.690918 0.7592773 0.690918 0.6403809 0.7133789 0.7592773 0.690918 0.7592773 0.7133789 0.7592773 0.690918 0.6403809 0.7133789 0.6403809 0.3583984 0.7592773 0.4519043 0.7592773 0.3583984 0.8809814 0.3583984 0.8809814 0.4519043 0.7592773 0.4519043 0.8809814 0.4519043 0.7592773 0.5395508 0.8809814 0.4519043 0.8809814 0.5395508 0.8809814 0.4519043 0.7592773 0.5395508 0.7592773 0.5395508 0.8809814 0.5395508 0.7592773 0.5913086 0.8809814 0.5913086 0.8809814 0.5395508 0.7592773 0.5913086 0.7592773 0.5913086 0.6403809 0.6103516 0.7592773 0.5913086 0.7592773 0.6103516 0.7592773 0.5913086 0.6403809 0.6103516 0.6403809 0.3583984 0.6403809 0.4519043 0.6403809 0.3583984 0.7592773 0.3583984 0.7592773 0.4519043 0.6403809 0.4519043 0.7592773 0.4519043 0.6403809 0.5395508 0.7592773 0.4519043 0.7592773 0.5395508 0.7592773 0.4519043 0.6403809 0.5395508 0.6403809 0.5395508 0.7592773 0.5395508 0.6403809 0.5913086 0.7592773 0.5913086 0.7592773 0.5395508 0.6403809 0.5913086 0.6403809 0.3583984 1.244019 0.4519043 1.244019 0.3583984 1.366699 0.3583984 1.366699 0.4519043 1.244019 0.4519043 1.366699 0.4519043 1.244019 0.5395508 1.366699 0.4519043 1.366699 0.5395508 1.366699 0.4519043 1.244019 0.5395508 1.244019 0.5395508 1.366699 0.5395508 1.244019 0.5913086 1.366699 0.5913086 1.366699 0.5395508 1.244019 0.5913086 1.244019 0.5913086 1.129517 0.6103516 1.244019 0.5913086 1.244019 0.6103516 1.244019 0.5913086 1.129517 0.6103516 1.129517 0.6103516 1.005604 0.6591797 1.129517 0.6103516 1.129517 0.6591797 1.129517 0.6103516 1.005604 0.6591797 1.005604 0.6591797 1.129517 0.6591797 1.005604 0.690918 1.005604 0.6591797 1.129517 0.690918 1.005604 0.690918 1.129517 0.690918 1.005604 0.7133789 1.129517 0.690918 1.129517 0.7133789 1.129517 0.690918 1.005604 0.7133789 1.005604 0.7133789 0.8809814 0.7280273 1.005604 0.7133789 1.005604 0.7280273 1.005604 0.7133789 0.8809814 0.7280273 0.8809814 0.7280273 0.7592773 0.7460938 0.8809814 0.7280273 0.8809814 0.7460938 0.8809814 0.7280273 0.7592773 0.7460938 0.7592773 0.7280273 0.7592773 0.7133789 0.6403809 0.7280273 0.6403809 0.7133789 0.6403809 0.7280273 0.7592773 0.7133789 0.7592773 0.7133789 0.8809814 0.690918 0.7592773 0.7133789 0.7592773 0.690918 0.7592773 0.7133789 0.8809814 0.690918 0.8809814 0.6591797 0.8809814 0.690918 0.7592773 0.690918 0.8809814 0.690918 0.7592773 0.6591797 0.8809814 0.6591797 0.7592773 0.6591797 0.7592773 0.6591797 0.8809814 0.6103516 0.7592773 0.6103516 0.7592773 0.6591797 0.8809814 0.6103516 0.8809814 0.6103516 1.005604 0.5913086 0.8809814 0.6103516 0.8809814 0.5913086 0.8809814 0.6103516 1.005604 0.5913086 1.005604 0.5913086 1.129517 0.5395508 1.005604 0.5913086 1.005604 0.5395508 1.005604 0.5913086 1.129517 0.5395508 1.129517 0.5395508 1.005604 0.5395508 1.129517 0.4519043 1.005604 0.4519043 1.005604 0.5395508 1.129517 0.4519043 1.129517 0.3583984 1.129517 0.4519043 1.005604 0.4519043 1.129517 0.4519043 1.005604 0.3583984 1.129517 0.3583984 1.005604 0.2709961 1.005604 0.3583984 0.8809814 0.3583984 1.005604 0.3583984 0.8809814 0.2709961 1.005604 0.2709961 0.8809814 0.2709961 0.8809814 0.2709961 1.005604 0.253418 1.005604 0.2709961 0.8809814 0.253418 1.005604 0.253418 0.8809814 0.253418 0.7592773 0.2709961 0.8809814 0.253418 0.8809814 0.2709961 0.8809814 0.253418 0.7592773 0.2709961 0.7592773 0.2709961 0.8809814 0.2709961 0.7592773 0.3583984 0.8809814 0.3583984 0.8809814 0.2709961 0.7592773 0.3583984 0.7592773 0.7133789 1.366699 0.7133789 1.244019 0.7280273 1.366699 0.7280273 1.366699 0.7133789 1.244019 0.7280273 1.244019 0.7280273 1.129517 0.7460938 1.244019 0.7280273 1.244019 0.7460938 1.244019 0.7280273 1.129517 0.7460938 1.129517 0.7460938 0.7592773 0.7280273 0.6403809 0.7460938 0.6403809 0.7280273 0.6403809 0.7460938 0.7592773 0.7280273 0.7592773 0.7280273 0.8809814 0.7133789 0.7592773 0.7280273 0.7592773 0.7133789 0.7592773 0.7280273 0.8809814 0.7133789 0.8809814 0.7133789 1.005604 0.690918 0.8809814 0.7133789 0.8809814 0.690918 0.8809814 0.7133789 1.005604 0.690918 1.005604 0.6591797 1.005604 0.690918 0.8809814 0.690918 1.005604 0.690918 0.8809814 0.6591797 1.005604 0.6591797 0.8809814 0.6591797 0.8809814 0.6591797 1.005604 0.6103516 0.8809814 0.6103516 0.8809814 0.6591797 1.005604 0.6103516 1.005604 0.6103516 1.129517 0.5913086 1.005604 0.6103516 1.005604 0.5913086 1.005604 0.6103516 1.129517 0.5913086 1.129517 0.5913086 1.244019 0.5395508 1.129517 0.5913086 1.129517 0.5395508 1.129517 0.5913086 1.244019 0.5395508 1.244019 0.5395508 1.129517 0.5395508 1.244019 0.4519043 1.129517 0.4519043 1.129517 0.5395508 1.244019 0.4519043 1.244019 0.3583984 1.244019 0.4519043 1.129517 0.4519043 1.244019 0.4519043 1.129517 0.3583984 1.244019 0.3583984 1.129517 0.2709961 1.129517 0.3583984 1.005604 0.3583984 1.129517 0.3583984 1.005604 0.2709961 1.129517 0.2709961 1.005604 0.2709961 1.005604 0.2709961 1.129517 0.253418 1.005604 0.253418 1.005604 0.2709961 1.129517 0.253418 1.129517 0.7460938 1.005604 0.7280273 0.8809814 0.7460938 0.8809814 0.7280273 0.8809814 0.7460938 1.005604 0.7280273 1.005604 0.7280273 1.129517 0.7133789 1.005604 0.7280273 1.005604 0.7133789 1.005604 0.7280273 1.129517 0.7133789 1.129517 0.7133789 1.244019 0.690918 1.129517 0.7133789 1.129517 0.690918 1.129517 0.7133789 1.244019 0.690918 1.244019 0.6591797 1.244019 0.690918 1.129517 0.690918 1.244019 0.690918 1.129517 0.6591797 1.244019 0.6591797 1.129517 0.6591797 1.129517 0.6591797 1.244019 0.6103516 1.129517 0.6103516 1.129517 0.6591797 1.244019 0.6103516 1.244019 0.6103516 1.366699 0.5913086 1.244019 0.6103516 1.244019 0.5913086 1.244019 0.6103516 1.366699 0.5913086 1.366699 0.7460938 1.129517 0.7280273 1.005604 0.7460938 1.005604 0.7280273 1.005604 0.7460938 1.129517 0.7280273 1.129517 0.7280273 1.244019 0.7133789 1.129517 0.7280273 1.129517 0.7133789 1.129517 0.7280273 1.244019 0.7133789 1.244019 0.7133789 1.366699 0.690918 1.244019 0.7133789 1.244019 0.690918 1.244019 0.7133789 1.366699 0.690918 1.366699 0.6591797 1.366699 0.690918 1.244019 0.690918 1.366699 0.690918 1.244019 0.6591797 1.366699 0.6591797 1.244019 0.6591797 1.244019 0.6591797 1.366699 0.6103516 1.244019 0.6103516 1.244019 0.6591797 1.366699 0.6103516 1.366699 0.7280273 1.366699 0.7280273 1.244019 0.7460938 1.366699 0.7460938 1.366699 0.7280273 1.244019 0.7460938 1.244019 0.7509766 0.7216797 0.7641602 0.7216797 0.7509766 0.8878174 0.7509766 0.8878174 0.7641602 0.7216797 0.7641602 0.8878174 0.7509766 0.8878174 0.7641602 0.8878174 0.7509766 1.018738 0.7509766 1.018738 0.7641602 0.8878174 0.7641602 1.018738 0.7509766 1.018738 0.7641602 1.018738 0.7509766 1.181885 0.7509766 1.181885 0.7641602 1.018738 0.7641602 1.181885 0.7509766 1.181885 0.7641602 1.181885 0.7509766 1.304199 0.7509766 1.304199 0.7641602 1.181885 0.7641602 1.304199 0.7509766 0.7216797 0.7641602 0.7216797 0.7509766 0.8878174 0.7509766 0.8878174 0.7641602 0.7216797 0.7641602 0.8878174 0.7509766 0.8878174 0.7641602 0.8878174 0.7509766 1.018738 0.7509766 1.018738 0.7641602 0.8878174 0.7641602 1.018738 0.7509766 1.018738 0.7641602 1.018738 0.7509766 1.181885 0.7509766 1.181885 0.7641602 1.018738 0.7641602 1.181885 0.7509766 1.181885 0.7641602 1.181885 0.7509766 1.304199 0.7509766 1.304199 0.7641602 1.181885 0.7641602 1.304199 0.7509766 0.7216797 0.7641602 0.7216797 0.7509766 0.8878174 0.7509766 0.8878174 0.7641602 0.7216797 0.7641602 0.8878174 0.7509766 0.8878174 0.7641602 0.8878174 0.7509766 1.018738 0.7509766 1.018738 0.7641602 0.8878174 0.7641602 1.018738 0.7509766 1.018738 0.7641602 1.018738 0.7509766 1.181885 0.7509766 1.181885 0.7641602 1.018738 0.7641602 1.181885 0.7509766 1.181885 0.7641602 1.181885 0.7509766 1.304199 0.7509766 1.304199 0.7641602 1.181885 0.7641602 1.304199 0.7460938 0.7592773 0.7280273 0.6403809 0.7460938 0.6403809 0.7280273 0.6403809 0.7460938 0.7592773 0.7280273 0.7592773 0.7280273 0.7592773 0.7460938 0.7592773 0.7460938 0.8809814 0.7133789 0.6403809 0.7280273 0.6403809 0.7280273 0.7592773 0.7133789 0.6403809 0.7280273 0.7592773 0.7133789 0.7592773 0.7280273 0.7592773 0.7460938 0.8809814 0.7280273 0.8809814 0.7280273 0.7592773 0.7280273 0.8809814 0.7133789 0.7592773 0.7280273 0.8809814 0.7460938 0.8809814 0.7460938 1.005604 0.690918 0.6403809 0.7133789 0.6403809 0.7133789 0.7592773 0.690918 0.6403809 0.7133789 0.7592773 0.690918 0.7592773 0.7280273 0.8809814 0.7460938 1.005604 0.7280273 1.005604 0.7280273 1.005604 0.7460938 1.005604 0.7460938 1.129517 0.7133789 0.7592773 0.7280273 0.8809814 0.7133789 0.8809814 0.7133789 0.8809814 0.7280273 0.8809814 0.7280273 1.005604 0.7133789 0.7592773 0.7133789 0.8809814 0.690918 0.7592773 0.7280273 1.005604 0.7460938 1.129517 0.7280273 1.129517 0.7280273 1.129517 0.7460938 1.129517 0.7460938 1.244019 0.7133789 0.8809814 0.7280273 1.005604 0.7133789 1.005604 0.7133789 1.005604 0.7280273 1.005604 0.7280273 1.129517 0.7280273 1.129517 0.7460938 1.244019 0.7280273 1.244019 0.7280273 1.244019 0.7460938 1.244019 0.7460938 1.366699 0.7280273 1.244019 0.7460938 1.366699 0.7280273 1.366699 0.7280273 1.129517 0.7280273 1.244019 0.7133789 1.129517 0.7280273 1.129517 0.7133789 1.129517 0.7133789 1.005604 0.7133789 1.129517 0.7280273 1.244019 0.7133789 1.244019 0.7133789 1.244019 0.7280273 1.244019 0.7280273 1.366699 0.7133789 1.244019 0.7280273 1.366699 0.7133789 1.366699 0.7133789 1.005604 0.7133789 1.129517 0.690918 1.005604 0.7133789 1.129517 0.7133789 1.244019 0.690918 1.129517 0.7133789 1.129517 0.690918 1.129517 0.690918 1.005604 0.690918 0.8809814 0.7133789 0.8809814 0.7133789 1.005604 0.690918 0.8809814 0.7133789 1.005604 0.690918 1.005604 0.7133789 0.8809814 0.690918 0.8809814 0.690918 0.7592773 0.690918 1.129517 0.7133789 1.244019 0.690918 1.244019 0.690918 1.244019 0.7133789 1.244019 0.7133789 1.366699 0.690918 1.244019 0.7133789 1.366699 0.690918 1.366699 0.690918 1.244019 0.690918 1.366699 0.6591797 1.366699 0.690918 1.129517 0.690918 1.244019 0.6591797 1.244019 0.6591797 1.244019 0.690918 1.244019 0.6591797 1.366699 0.6591797 1.129517 0.690918 1.005604 0.690918 1.129517 0.6591797 1.129517 0.690918 1.129517 0.6591797 1.244019 0.6103516 1.244019 0.6591797 1.366699 0.6103516 1.366699 0.6591797 1.366699 0.6103516 1.244019 0.6591797 1.244019 0.690918 1.005604 0.6591797 1.129517 0.6591797 1.005604 0.690918 1.005604 0.6591797 1.005604 0.690918 0.8809814 0.6591797 1.129517 0.6591797 1.244019 0.6103516 1.129517 0.6103516 1.129517 0.6591797 1.244019 0.6103516 1.244019 0.6591797 1.005604 0.6591797 1.129517 0.6103516 1.005604 0.6103516 1.005604 0.6591797 1.129517 0.6103516 1.129517 0.690918 0.8809814 0.6591797 1.005604 0.6591797 0.8809814 0.690918 0.8809814 0.6591797 0.8809814 0.690918 0.7592773 0.6591797 1.005604 0.6103516 1.005604 0.6103516 0.8809814 0.6591797 1.005604 0.6103516 0.8809814 0.6591797 0.8809814 0.690918 0.7592773 0.6591797 0.8809814 0.6591797 0.7592773 0.690918 0.7592773 0.6591797 0.7592773 0.690918 0.6403809 0.690918 0.6403809 0.6591797 0.7592773 0.6591797 0.6403809 0.6591797 0.6403809 0.6591797 0.7592773 0.6103516 0.6403809 0.6103516 0.6403809 0.6591797 0.7592773 0.6103516 0.7592773 0.6103516 0.7592773 0.6591797 0.7592773 0.6591797 0.8809814 0.6103516 0.7592773 0.6591797 0.8809814 0.6103516 0.8809814 0.5908203 0.6403809 0.6103516 0.6403809 0.6103516 0.7592773 0.5908203 0.6403809 0.6103516 0.7592773 0.5908203 0.7592773 0.5908203 0.7592773 0.6103516 0.7592773 0.6103516 0.8809814 0.5908203 0.6403809 0.5908203 0.7592773 0.5395508 0.6403809 0.5908203 0.7592773 0.6103516 0.8809814 0.5908203 0.8809814 0.5908203 0.8809814 0.6103516 0.8809814 0.6103516 1.005604 0.5395508 0.6403809 0.5908203 0.7592773 0.5395508 0.7592773 0.5395508 0.7592773 0.5908203 0.7592773 0.5908203 0.8809814 0.5395508 0.6403809 0.5395508 0.7592773 0.4519043 0.6403809 0.4519043 0.6403809 0.5395508 0.7592773 0.4519043 0.7592773 0.5908203 0.8809814 0.6103516 1.005604 0.5908203 1.005604 0.5908203 1.005604 0.6103516 1.005604 0.6103516 1.129517 0.5395508 0.7592773 0.5908203 0.8809814 0.5395508 0.8809814 0.5395508 0.8809814 0.5908203 0.8809814 0.5908203 1.005604 0.5395508 0.7592773 0.5395508 0.8809814 0.4519043 0.7592773 0.5908203 1.005604 0.6103516 1.129517 0.5908203 1.129517 0.5908203 1.129517 0.6103516 1.129517 0.6103516 1.244019 0.5395508 0.8809814 0.5908203 1.005604 0.5395508 1.005604 0.5395508 1.005604 0.5908203 1.005604 0.5908203 1.129517 0.5908203 1.129517 0.6103516 1.244019 0.5908203 1.244019 0.5908203 1.244019 0.6103516 1.244019 0.6103516 1.366699 0.5908203 1.244019 0.6103516 1.366699 0.5908203 1.366699 0.5395508 1.005604 0.5908203 1.129517 0.5395508 1.129517 0.5395508 1.129517 0.5908203 1.129517 0.5908203 1.244019 0.5395508 0.8809814 0.5395508 1.005604 0.4519043 1.005604 0.4519043 1.005604 0.5395508 1.005604 0.5395508 1.129517 0.5395508 1.129517 0.5908203 1.244019 0.5395508 1.244019 0.5395508 1.244019 0.5908203 1.244019 0.5908203 1.366699 0.5395508 1.244019 0.5908203 1.366699 0.5395508 1.366699 0.5395508 1.129517 0.5395508 1.244019 0.4519043 1.129517 0.5395508 1.129517 0.4519043 1.129517 0.4519043 1.005604 0.5395508 1.244019 0.5395508 1.366699 0.4519043 1.244019 0.5395508 1.244019 0.4519043 1.244019 0.4519043 1.129517 0.4519043 1.244019 0.5395508 1.366699 0.4519043 1.366699 0.4519043 1.244019 0.4519043 1.366699 0.3583984 1.366699 0.4519043 1.244019 0.3583984 1.366699 0.3583984 1.244019 0.4519043 1.244019 0.3583984 1.244019 0.4519043 1.129517 0.2709961 1.366699 0.3583984 1.244019 0.3583984 1.366699 0.4519043 1.129517 0.3583984 1.244019 0.3583984 1.129517 0.4519043 1.129517 0.3583984 1.129517 0.4519043 1.005604 0.3583984 1.244019 0.2709961 1.366699 0.2709961 1.244019 0.3583984 1.244019 0.2709961 1.244019 0.3583984 1.129517 0.2709961 1.244019 0.2709961 1.366699 0.2531738 1.366699 0.2709961 1.244019 0.2531738 1.366699 0.2531738 1.244019 0.2709961 1.244019 0.2531738 1.244019 0.2709961 1.129517 0.2709961 1.244019 0.2709961 1.129517 0.3583984 1.129517 0.2709961 1.129517 0.2531738 1.244019 0.2531738 1.129517 0.3583984 1.005604 0.4519043 1.005604 0.3583984 1.129517 0.3583984 1.005604 0.3583984 1.129517 0.2709961 1.129517 0.2709961 1.129517 0.2531738 1.129517 0.2709961 1.005604 0.2709961 1.129517 0.2709961 1.005604 0.3583984 1.005604 0.2709961 1.005604 0.2531738 1.129517 0.2531738 1.005604 0.2709961 1.005604 0.2531738 1.005604 0.2531738 0.8809814 0.4519043 1.005604 0.3583984 1.005604 0.4519043 0.8809814 0.4519043 1.005604 0.4519043 0.8809814 0.5395508 0.8809814 0.5395508 0.8809814 0.4519043 0.8809814 0.4519043 0.7592773 0.4519043 0.8809814 0.3583984 1.005604 0.3583984 0.8809814 0.4519043 0.8809814 0.3583984 0.8809814 0.4519043 0.7592773 0.3583984 0.8809814 0.3583984 1.005604 0.2709961 1.005604 0.2709961 1.005604 0.2531738 0.8809814 0.2709961 0.8809814 0.2709961 1.005604 0.2709961 0.8809814 0.3583984 0.8809814 0.2709961 0.8809814 0.2531738 0.8809814 0.2531738 0.7592773 0.4519043 0.7592773 0.3583984 0.8809814 0.3583984 0.7592773 0.3583984 0.7592773 0.3583984 0.8809814 0.2709961 0.8809814 0.4519043 0.7592773 0.3583984 0.7592773 0.4519043 0.6403809 0.4519043 0.6403809 0.3583984 0.7592773 0.3583984 0.6403809 0.2709961 0.8809814 0.2531738 0.7592773 0.2709961 0.7592773 0.2709961 0.8809814 0.2709961 0.7592773 0.3583984 0.7592773 0.2709961 0.7592773 0.2531738 0.7592773 0.2531738 0.6403809 0.3583984 0.7592773 0.2709961 0.7592773 0.3583984 0.6403809 0.2709961 0.7592773 0.2531738 0.6403809 0.2709961 0.6403809 0.2709961 0.7592773 0.2709961 0.6403809 0.3583984 0.6403809 0.2709961 1.366699 0.3583984 1.244019 0.3583984 1.366699 0.3583984 1.244019 0.2709961 1.366699 0.2709961 1.244019 0.2709961 1.244019 0.2709961 1.366699 0.253418 1.366699 0.2709961 1.244019 0.253418 1.366699 0.253418 1.244019 0.253418 1.129517 0.2709961 1.244019 0.253418 1.244019 0.2709961 1.244019 0.253418 1.129517 0.2709961 1.129517 0.2709961 1.244019 0.2709961 1.129517 0.3583984 1.129517 0.2709961 1.244019 0.3583984 1.129517 0.3583984 1.244019 0.3583984 0.7592773 0.2709961 0.6403809 0.3583984 0.6403809 0.2709961 0.6403809 0.3583984 0.7592773 0.2709961 0.7592773 0.2709961 0.6403809 0.2709961 0.7592773 0.253418 0.7592773 0.2709961 0.6403809 0.253418 0.7592773 0.253418 0.6403809 0.9316406 0.7299805 0.855957 0.8137207 0.8999023 0.6696777 0.855957 0.8137207 0.9316406 0.7299805 0.9428711 0.8123779 0.8999023 0.6696777 0.855957 0.8137207 0.8564453 0.6396484 0.855957 0.8137207 0.9428711 0.8123779 0.9316406 0.8947144 0.8564453 0.6396484 0.855957 0.8137207 0.8110352 0.6630859 0.855957 0.8137207 0.9316406 0.8947144 0.9023438 0.964447 0.8110352 0.6630859 0.855957 0.8137207 0.7773438 0.7268066 0.855957 0.8137207 0.9023438 0.964447 0.855957 0.9877701 0.7773438 0.7268066 0.855957 0.8137207 0.7651367 0.8137207 0.855957 0.8137207 0.855957 0.9877701 0.8105469 0.964447 0.7651367 0.8137207 0.855957 0.8137207 0.7773438 0.9007568 0.7773438 0.9007568 0.855957 0.8137207 0.8105469 0.964447 1.083008 1 1.063477 0.9338379 1.072266 0.9241333 1.072266 0.9241333 1.063477 0.9338379 1.041992 0.8675537 1.063477 0.9338379 1.083008 1 1.073242 1 1.073242 1 1.083008 1 1.072266 1.078918 1.041992 0.8675537 1.063477 0.9338379 1.037109 0.8842163 1.073242 1 1.072266 1.078918 1.063477 1.069214 1.041992 0.8675537 1.037109 0.8842163 1 0.8660889 1.041992 0.8675537 1 0.8660889 1 0.8468018 1 0.8468018 1 0.8660889 0.9594727 0.8675537 1.063477 1.069214 1.072266 1.078918 1.037109 1.118835 1.037109 1.118835 1.072266 1.078918 1.041992 1.135498 0.9594727 0.8675537 1 0.8660889 0.9643555 0.8842163 1.037109 1.118835 1.041992 1.135498 1 1.136963 1 1.136963 1.041992 1.135498 1 1.15625 0.9594727 0.8675537 0.9643555 0.8842163 0.9379883 0.9338379 0.9594727 0.8675537 0.9379883 0.9338379 0.9287109 0.9241333 1 1.136963 1 1.15625 0.9643555 1.118835 0.9643555 1.118835 1 1.15625 0.9594727 1.135498 0.9643555 1.118835 0.9594727 1.135498 0.9287109 1.078918 0.9287109 0.9241333 0.9379883 0.9338379 0.9282227 1 0.9287109 0.9241333 0.9282227 1 0.9179688 1 0.9379883 1.069214 0.9287109 1.078918 0.9179688 1 0.9379883 1.069214 0.9179688 1 0.9282227 1 0.9287109 1.078918 0.9379883 1.069214 0.9643555 1.118835 0.9282227 1 0.9379883 0.9338379 1 1 0.9282227 1 1 1 0.9379883 1.069214 0.9379883 1.069214 1 1 0.9643555 1.118835 1 1 0.9379883 0.9338379 0.9643555 0.8842163 0.9643555 1.118835 1 1 1 1.136963 1 1 0.9643555 0.8842163 1 0.8660889 1 1.136963 1 1 1.037109 1.118835 1 1 1 0.8660889 1.037109 0.8842163 1.037109 1.118835 1 1 1.063477 1.069214 1 1 1.037109 0.8842163 1.063477 0.9338379 1.063477 1.069214 1 1 1.073242 1 1.073242 1 1 1 1.063477 0.9338379</float_array>
          <technique_common>
            <accessor source="#pot__Mt_CmnTex_Etc_SheikerPot_A-mesh-map-array" count="1008" stride="2">
              <param name="S" type="float"/>
              <param name="T" type="float"/>
            </accessor>
          </technique_common>
        </source>
        <vertices id="pot__Mt_CmnTex_Etc_SheikerPot_A-mesh-vertices">
          <input semantic="POSITION" source="#pot__Mt_CmnTex_Etc_SheikerPot_A-mesh-positions"/>
        </vertices>
        <triangles material="Mt_CmnTex_Etc_SheikerPot_A-material" count="336">
          <input semantic="VERTEX" source="#pot__Mt_CmnTex_Etc_SheikerPot_A-mesh-vertices" offset="0"/>
          <input semantic="NORMAL" source="#pot__Mt_CmnTex_Etc_SheikerPot_A-mesh-normals" offset="1"/>
          <input semantic="TEXCOORD" source="#pot__Mt_CmnTex_Etc_SheikerPot_A-mesh-map" offset="2" set="0"/>
          <p>0 0 0 1 1 1 2 2 2 2 2 3 1 1 4 3 3 5 4 4 6 5 5 7 3 3 8 5 5 9 4 4 10 6 6 11 5 5 12 6 6 13 7 7 14 7 7 15 6 6 16 8 8 17 9 9 18 10 10 19 8 8 20 10 10 21 9 9 22 11 11 23 12 12 24 13 13 25 11 11 26 13 13 27 12 12 28 14 14 29 13 13 30 14 14 31 15 15 32 13 13 33 15 15 34 16 16 35 17 17 36 18 18 37 16 16 38 18 18 39 17 17 40 19 19 41 20 20 42 21 21 43 22 22 44 22 22 45 21 21 46 23 23 47 24 24 48 25 25 49 23 23 50 25 25 51 24 24 52 26 26 53 25 25 54 26 26 55 27 27 56 27 27 57 26 26 58 28 28 59 29 29 60 30 30 61 28 28 62 30 30 63 29 29 64 31 31 65 32 32 66 33 33 67 34 34 68 34 34 69 33 33 70 35 35 71 36 36 72 37 37 73 35 35 74 37 37 75 36 36 76 38 38 77 37 37 78 38 38 79 39 39 80 39 39 81 38 38 82 40 40 83 41 41 84 42 42 85 43 43 86 43 43 87 42 42 88 44 44 89 45 45 90 46 46 91 44 44 92 46 46 93 45 45 94 47 47 95 46 46 96 47 47 97 48 48 98 48 48 99 47 47 100 49 49 101 50 50 102 51 51 103 49 49 104 51 51 105 50 50 106 52 52 107 53 53 108 54 54 109 52 52 110 54 54 111 53 53 112 55 55 113 54 54 114 55 55 115 56 56 116 54 54 117 56 56 118 57 57 119 58 58 120 59 59 121 57 57 122 59 59 123 58 58 124 60 60 125 61 61 126 62 62 127 60 60 128 62 62 129 61 61 130 63 63 131 64 64 132 65 65 133 63 63 134 65 65 135 64 64 136 66 66 137 67 67 138 68 68 139 69 69 140 68 68 141 67 67 142 70 70 143 71 71 144 72 72 145 70 70 146 72 72 147 71 71 148 73 73 149 74 74 150 75 75 151 73 73 152 75 75 153 74 74 154 76 76 155 76 76 156 74 74 157 77 77 158 77 77 159 74 74 160 78 78 161 79 79 162 80 80 163 78 78 164 80 80 165 79 79 166 81 81 167 82 82 168 83 83 169 81 81 170 83 83 171 82 82 172 84 84 173 83 83 174 84 84 175 85 85 176 85 85 177 84 84 178 86 86 179 87 87 180 88 88 181 86 86 182 88 88 183 87 87 184 89 89 185 90 90 186 91 91 187 89 89 188 91 91 189 90 90 190 92 92 191 92 92 192 90 90 193 93 93 194 92 92 195 93 93 196 94 94 197 95 95 198 96 96 199 94 94 200 96 96 201 95 95 202 97 97 203 96 96 204 97 97 205 98 98 206 98 98 207 97 97 208 99 99 209 100 100 210 101 101 211 102 102 212 102 102 213 101 101 214 103 103 215 104 104 216 105 105 217 103 103 218 105 105 219 104 104 220 106 106 221 107 107 222 108 108 223 109 109 224 108 108 225 107 107 226 110 110 227 111 111 228 112 112 229 110 110 230 112 112 231 111 111 232 113 113 233 114 114 234 115 115 235 113 113 236 115 115 237 114 114 238 116 116 239 117 117 240 118 118 241 116 116 242 118 118 243 117 117 244 119 119 245 119 119 246 117 117 247 120 120 248 120 120 249 117 117 250 121 121 251 122 122 252 123 123 253 121 121 254 123 123 255 122 122 256 124 124 257 125 125 258 126 126 259 124 124 260 126 126 261 125 125 262 127 127 263 126 126 264 127 127 265 128 128 266 128 128 267 127 127 268 129 129 269 130 130 270 131 131 271 129 129 272 131 131 273 130 130 274 132 132 275 133 133 276 134 134 277 132 132 278 134 134 279 133 133 280 135 135 281 135 135 282 133 133 283 136 136 284 136 136 285 133 133 286 137 137 287 138 138 288 139 139 289 140 140 290 139 139 291 138 138 292 141 141 293 142 142 294 143 143 295 141 141 296 143 143 297 142 142 298 144 144 299 145 145 300 146 146 301 144 144 302 146 146 303 145 145 304 147 147 305 148 148 306 149 149 307 147 147 308 149 149 309 148 148 310 150 150 311 150 150 312 148 148 313 151 151 314 151 151 315 148 148 316 152 152 317 153 153 318 154 154 319 152 152 320 154 154 321 153 153 322 155 155 323 156 156 324 157 157 325 158 158 326 157 157 327 156 156 328 159 159 329 160 160 330 161 161 331 159 159 332 161 161 333 160 160 334 162 162 335 163 163 336 164 164 337 162 162 338 164 164 339 163 163 340 165 165 341 166 166 342 167 167 343 165 165 344 167 167 345 166 166 346 168 168 347 168 168 348 166 166 349 169 169 350 169 169 351 166 166 352 170 170 353 171 171 354 172 172 355 173 173 356 173 173 357 172 172 358 174 174 359 175 175 360 176 176 361 177 177 362 177 177 363 176 176 364 178 178 365 177 177 366 178 178 367 179 179 368 179 179 369 178 178 370 180 180 371 179 179 372 180 180 373 181 181 374 181 181 375 180 180 376 182 182 377 181 181 378 182 182 379 183 183 380 183 183 381 182 182 382 184 184 383 185 185 384 186 186 385 187 187 386 187 187 387 186 186 388 188 188 389 187 187 390 188 188 391 189 189 392 189 189 393 188 188 394 190 190 395 189 189 396 190 190 397 191 191 398 191 191 399 190 190 400 192 192 401 191 191 402 192 192 403 193 193 404 193 193 405 192 192 406 194 194 407 195 195 408 196 196 409 197 197 410 197 197 411 196 196 412 198 198 413 197 197 414 198 198 415 199 199 416 199 199 417 198 198 418 200 200 419 199 199 420 200 200 421 201 201 422 201 201 423 200 200 424 202 202 425 201 201 426 202 202 427 203 203 428 203 203 429 202 202 430 204 204 431 205 205 432 206 206 433 207 207 434 206 206 435 205 205 436 208 208 437 208 208 438 205 205 439 209 209 440 210 210 441 211 211 442 208 208 443 210 210 444 208 208 445 212 212 446 208 208 447 209 209 448 213 213 449 208 208 450 213 213 451 212 212 452 213 213 453 209 209 454 214 214 455 215 215 456 216 216 457 212 212 458 215 215 459 212 212 460 217 217 461 213 213 462 214 214 463 218 218 464 218 218 465 214 214 466 219 219 467 212 212 468 213 213 469 220 220 470 220 220 471 213 213 472 218 218 473 212 212 474 220 220 475 217 217 476 218 218 477 219 219 478 221 221 479 221 221 480 219 219 481 222 222 482 220 220 483 218 218 484 223 223 485 223 223 486 218 218 487 221 221 488 221 221 489 222 222 490 224 224 491 224 224 492 222 222 493 225 225 494 224 224 495 225 225 496 226 226 497 221 221 498 224 224 499 227 227 500 221 221 501 227 227 502 223 223 503 227 227 504 224 224 505 228 228 506 228 228 507 224 224 508 229 229 509 228 228 510 229 229 511 230 230 512 223 223 513 227 227 514 231 231 515 227 227 516 228 228 517 232 232 518 227 227 519 232 232 520 231 231 521 233 233 522 220 220 523 223 223 524 233 233 525 223 223 526 231 231 527 220 220 528 233 233 529 217 217 530 232 232 531 228 228 532 234 234 533 234 234 534 228 228 535 235 235 536 234 234 537 235 235 538 236 236 539 234 234 540 236 236 541 237 237 542 232 232 543 234 234 544 238 238 545 238 238 546 234 234 547 237 237 548 239 239 549 231 231 550 232 232 551 239 239 552 232 232 553 238 238 554 240 240 555 237 237 556 241 241 557 237 237 558 240 240 559 238 238 560 231 231 561 239 239 562 242 242 563 231 231 564 242 242 565 233 233 566 239 239 567 238 238 568 243 243 569 243 243 570 238 238 571 240 240 572 242 242 573 239 239 574 244 244 575 244 244 576 239 239 577 243 243 578 233 233 579 242 242 580 245 245 581 233 233 582 245 245 583 217 217 584 242 242 585 244 244 586 246 246 587 242 242 588 246 246 589 245 245 590 217 217 591 245 245 592 247 247 593 217 217 594 247 247 595 248 248 596 248 248 597 247 247 598 249 249 599 249 249 600 247 247 601 250 250 602 250 250 603 247 247 604 251 251 605 251 251 606 247 247 607 245 245 608 251 251 609 245 245 610 246 246 611 252 252 612 253 253 613 251 251 614 252 252 615 251 251 616 254 254 617 254 254 618 251 251 619 246 246 620 255 255 621 254 254 622 256 256 623 254 254 624 246 246 625 257 257 626 257 257 627 246 246 628 244 244 629 256 256 630 254 254 631 258 258 632 258 258 633 254 254 634 257 257 635 256 256 636 258 258 637 259 259 638 259 259 639 258 258 640 260 260 641 257 257 642 244 244 643 261 261 644 261 261 645 244 244 646 243 243 647 258 258 648 257 257 649 262 262 650 262 262 651 257 257 652 261 261 653 258 258 654 262 262 655 260 260 656 261 261 657 243 243 658 263 263 659 263 263 660 243 243 661 240 240 662 262 262 663 261 261 664 264 264 665 264 264 666 261 261 667 263 263 668 263 263 669 240 240 670 265 265 671 265 265 672 240 240 673 266 266 674 265 265 675 266 266 676 267 267 677 264 264 678 263 263 679 268 268 680 268 268 681 263 263 682 265 265 683 262 262 684 264 264 685 269 269 686 269 269 687 264 264 688 268 268 689 268 268 690 265 265 691 270 270 692 270 270 693 265 265 694 271 271 695 270 270 696 271 271 697 272 272 698 268 268 699 270 270 700 273 273 701 268 268 702 273 273 703 269 269 704 270 270 705 272 272 706 274 274 707 270 270 708 274 274 709 273 273 710 274 274 711 272 272 712 275 275 713 274 274 714 275 275 715 276 276 716 274 274 717 276 276 718 277 277 719 274 274 720 277 277 721 273 273 722 278 278 723 277 277 724 279 279 725 273 273 726 277 277 727 280 280 728 273 273 729 280 280 730 269 269 731 277 277 732 278 278 733 281 281 734 277 277 735 281 281 736 280 280 737 281 281 738 278 278 739 282 282 740 281 281 741 282 282 742 283 283 743 281 281 744 283 283 745 284 284 746 281 281 747 284 284 748 280 280 749 284 284 750 283 283 751 285 285 752 286 286 753 269 269 754 280 280 755 286 286 756 280 280 757 284 284 758 284 284 759 285 285 760 287 287 761 284 284 762 287 287 763 286 286 764 287 287 765 285 285 766 288 288 767 287 287 768 288 288 769 289 289 770 269 269 771 286 286 772 290 290 773 269 269 774 290 290 775 262 262 776 262 262 777 290 290 778 260 260 779 290 290 780 286 286 781 291 291 782 290 290 783 291 291 784 260 260 785 291 291 786 286 286 787 287 287 788 287 287 789 289 289 790 292 292 791 287 287 792 292 292 793 291 291 794 292 292 795 289 289 796 293 293 797 260 260 798 291 291 799 294 294 800 294 294 801 291 291 802 292 292 803 260 260 804 294 294 805 295 295 806 295 295 807 294 294 808 296 296 809 292 292 810 293 293 811 297 297 812 292 292 813 297 297 814 294 294 815 297 297 816 293 293 817 298 298 818 294 294 819 297 297 820 299 299 821 297 297 822 298 298 823 300 300 824 297 297 825 300 300 826 299 299 827 301 301 828 302 302 829 303 303 830 302 302 831 301 301 832 304 304 833 304 304 834 301 301 835 305 305 836 304 304 837 305 305 838 306 306 839 307 307 840 308 308 841 306 306 842 308 308 843 307 307 844 309 309 845 308 308 846 309 309 847 310 310 848 308 308 849 310 310 850 311 311 851 312 312 852 313 313 853 314 314 854 313 313 855 312 312 856 315 315 857 313 313 858 315 315 859 316 316 860 313 313 861 316 316 862 317 317 863 318 318 864 319 319 865 320 318 866 319 319 867 318 318 868 321 318 869 320 318 870 319 319 871 322 318 872 319 319 873 321 318 874 323 320 875 322 318 876 319 319 877 324 318 878 319 319 879 323 320 880 325 321 881 324 318 882 319 319 883 326 318 884 319 319 885 325 321 886 327 318 887 326 318 888 319 319 889 328 318 890 319 319 891 327 318 892 329 318 893 328 318 894 319 319 895 330 318 896 330 318 897 319 319 898 329 318 899 331 322 900 332 323 901 333 324 902 333 324 903 332 323 904 334 325 905 332 323 906 331 322 907 335 326 908 335 326 909 331 322 910 336 327 911 334 325 912 332 323 913 337 328 914 335 326 915 336 327 916 338 329 917 334 325 918 337 328 919 339 330 920 334 325 921 339 330 922 340 327 923 340 327 924 339 330 925 341 327 926 338 329 927 336 327 928 342 331 929 342 331 930 336 327 931 343 327 932 341 327 933 339 330 934 344 332 935 342 331 936 343 327 937 345 333 938 345 333 939 343 327 940 346 327 941 341 327 942 344 332 943 347 334 944 341 327 945 347 334 946 348 327 947 345 333 948 346 327 949 349 335 950 349 335 951 346 327 952 350 327 953 349 335 954 350 327 955 351 327 956 348 327 957 347 334 958 352 336 959 348 327 960 352 336 961 353 327 962 354 337 963 351 327 964 353 327 965 354 337 966 353 327 967 352 336 968 351 327 969 354 337 970 349 335 971 352 336 972 347 334 973 355 338 974 352 336 975 355 338 976 354 337 977 354 337 978 355 338 979 349 335 980 355 338 981 347 334 982 344 332 983 349 335 984 355 338 985 345 333 986 355 338 987 344 332 988 339 330 989 345 333 990 355 338 991 342 331 992 355 338 993 339 330 994 337 328 995 342 331 996 355 338 997 338 329 998 355 338 999 337 328 1000 332 323 1001 338 329 1002 355 338 1003 335 326 1004 335 326 1005 355 338 1006 332 323 1007</p>
        </triangles>
      </mesh>
    </geometry>
  </library_geometries>
  <library_controllers>
    <controller id="Armature_pot__Mt_CmnTex_Etc_SheikerPot_A-skin" name="Armature">
      <skin source="#pot__Mt_CmnTex_Etc_SheikerPot_A-mesh">
        <bind_shape_matrix>1 0 0 0 0 1 0 0 0 0 1 0 0 0 0 1</bind_shape_matrix>
        <source id="Armature_pot__Mt_CmnTex_Etc_SheikerPot_A-skin-joints">
          <Name_array id="Armature_pot__Mt_CmnTex_Etc_SheikerPot_A-skin-joints-array" count="1">Root</Name_array>
          <technique_common>
            <accessor source="#Armature_pot__Mt_CmnTex_Etc_SheikerPot_A-skin-joints-array" count="1" stride="1">
              <param name="JOINT" type="name"/>
            </accessor>
          </technique_common>
        </source>
        <source id="Armature_pot__Mt_CmnTex_Etc_SheikerPot_A-skin-bind_poses">
          <float_array id="Armature_pot__Mt_CmnTex_Etc_SheikerPot_A-skin-bind_poses-array" count="16">1 0 0 0 0 -1.62921e-7 1 0 0 -1 -1.62921e-7 0 0 0 0 1</float_array>
          <technique_common>
            <accessor source="#Armature_pot__Mt_CmnTex_Etc_SheikerPot_A-skin-bind_poses-array" count="1" stride="16">
              <param name="TRANSFORM" type="float4x4"/>
            </accessor>
          </technique_common>
        </source>
        <source id="Armature_pot__Mt_CmnTex_Etc_SheikerPot_A-skin-weights">
          <float_array id="Armature_pot__Mt_CmnTex_Etc_SheikerPot_A-skin-weights-array" count="518">1 1 1 1 1 1 1 1 1 1 1 1 1 1 1 1 1 1 1 1 1 1 1 1 1 1 1 1 1 1 1 1 1 1 1 1 1 1 1 1 1 1 1 1 1 1 1 1 1 1 1 1 1 1 1 1 1 1 1 1 1 1 1 1 1 1 1 1 1 1 1 1 1 1 1 1 1 1 1 1 1 1 1 1 1 1 1 1 1 1 1 1 1 1 1 1 1 1 1 1 1 1 1 1 1 1 1 1 1 1 1 1 1 1 1 1 1 1 1 1 1 1 1 1 1 1 1 1 1 1 1 1 1 1 1 1 1 1 1 1 1 1 1 1 1 1 1 1 1 1 1 1 1 1 1 1 1 1 1 1 1 1 1 1 1 1 1 1 1 1 1 1 1 1 1 1 1 1 1 1 1 1 1 1 1 1 1 1 1 1 1 1 1 1 1 1 1 1 1 1 1 1 1 1 1 1 1 1 1 1 1 1 1 1 1 1 1 1 1 1 1 1 1 1 1 1 1 1 1 1 1 1 1 1 1 1 1 1 1 1 1 1 1 1 1 1 1 1 1 1 1 1 1 1 1 1 1 1 1 1 1 1 1 1 1 1 1 1 1 1 1 1 1 1 1 1 1 1 1 1 1 1 1 1 1 1 1 1 1 1 1 1 1 1 1 1 1 1 1 1 1 1 1 1 1 1 1 1 1 1 1 1 1 1 1 1 1 1 1 1 1 1 1 1 1 1 1 1 1 1 1 1 1 1 1 1 1 1 1 1 1 1 1 1 1 1 1 1 1 1 1 1 1 1 1 1 1 1 1 1 1 1 1 1 1 1 1 1 1 1 1 1 1 1 1 1 1 1 1 1 1 1 1 1 1 1 1 1 1 1 1 1 1 1 1 1 1 1 1 1 1 1 1 1 1 1 1 1 1 1 1 1 1 1 1 1 1 1 1 1 1 1 1 1 1 1 1 1 1 1 1 1 1 1 1 1 1 1 1 1 1 1 1 1 1 1 1 1 1 1 1 1 1 1 1 1 1 1 1 1 1 1 1 1 1 1 1 1 1 1 1 1 1 1 1 1 1 1 1 1 1 1 1 1 1 1 1 1 1 1 1 1 1 1 1 1 1 1 1 1 1 1 1 1 1 1 1 1 1 1 1 1 1 1 1 1 1 1</float_array>
          <technique_common>
            <accessor source="#Armature_pot__Mt_CmnTex_Etc_SheikerPot_A-skin-weights-array" count="518" stride="1">
              <param name="WEIGHT" type="float"/>
            </accessor>
          </technique_common>
        </source>
        <joints>
          <input semantic="JOINT" source="#Armature_pot__Mt_CmnTex_Etc_SheikerPot_A-skin-joints"/>
          <input semantic="INV_BIND_MATRIX" source="#Armature_pot__Mt_CmnTex_Etc_SheikerPot_A-skin-bind_poses"/>
        </joints>
        <vertex_weights count="518">
          <input semantic="JOINT" source="#Armature_pot__Mt_CmnTex_Etc_SheikerPot_A-skin-joints" offset="0"/>
          <input semantic="WEIGHT" source="#Armature_pot__Mt_CmnTex_Etc_SheikerPot_A-skin-weights" offset="1"/>
          <vcount>1 1 1 1 1 1 1 1 1 1 1 1 1 1 1 1 1 1 1 1 1 1 1 1 1 1 1 1 1 1 1 1 1 1 1 1 1 1 1 1 1 1 1 1 1 1 1 1 1 1 1 1 1 1 1 1 1 1 1 1 1 1 1 1 1 1 1 1 1 1 1 1 1 1 1 1 1 1 1 1 1 1 1 1 1 1 1 1 1 1 1 1 1 1 1 1 1 1 1 1 1 1 1 1 1 1 1 1 1 1 1 1 1 1 1 1 1 1 1 1 1 1 1 1 1 1 1 1 1 1 1 1 1 1 1 1 1 1 1 1 1 1 1 1 1 1 1 1 1 1 1 1 1 1 1 1 1 1 1 1 1 1 1 1 1 1 1 1 1 1 1 1 1 1 1 1 1 1 1 1 1 1 1 1 1 1 1 1 1 1 1 1 1 1 1 1 1 1 1 1 1 1 1 1 1 1 1 1 1 1 1 1 1 1 1 1 1 1 1 1 1 1 1 1 1 1 1 1 1 1 1 1 1 1 1 1 1 1 1 1 1 1 1 1 1 1 1 1 1 1 1 1 1 1 1 1 1 1 1 1 1 1 1 1 1 1 1 1 1 1 1 1 1 1 1 1 1 1 1 1 1 1 1 1 1 1 1 1 1 1 1 1 1 1 1 1 1 1 1 1 1 1 1 1 1 1 1 1 1 1 1 1 1 1 1 1 1 1 1 1 1 1 1 1 1 1 1 1 1 1 1 1 1 1 1 1 1 1 1 1 1 1 1 1 1 1 1 1 1 1 1 1 1 1 1 1 1 1 1 1 1 1 1 1 1 1 1 1 1 1 1 1 1 1 1 1 1 1 1 1 1 1 1 1 1 1 1 1 1 1 1 1 1 1 1 1 1 1 1 1 1 1 1 1 1 1 1 1 1 1 1 1 1 1 1 1 1 1 1 1 1 1 1 1 1 1 1 1 1 1 1 1 1 1 1 1 1 1 1 1 1 1 1 1 1 1 1 1 1 1 1 1 1 1 1 1 1 1 1 1 1 1 1 1 1 1 1 1 1 1 1 1 1 1 1 1 1 1 1 1 1 1 1 1 1 1 1 1 1 1 1 1 1 1 1 1 1 1 1 1 1 1 1 1 1 1 1 1 1 1 1 1 1 1 1 1 1 1 </vcount>
          <v>0 0 0 1 0 2 0 3 0 4 0 5 0 6 0 7 0 8 0 9 0 10 0 11 0 12 0 13 0 14 0 15 0 16 0 17 0 18 0 19 0 20 0 21 0 22 0 23 0 24 0 25 0 26 0 27 0 28 0 29 0 30 0 31 0 32 0 33 0 34 0 35 0 36 0 37 0 38 0 39 0 40 0 41 0 42 0 43 0 44 0 45 0 46 0 47 0 48 0 49 0 50 0 51 0 52 0 53 0 54 0 55 0 56 0 57 0 58 0 59 0 60 0 61 0 62 0 63 0 64 0 65 0 66 0 67 0 68 0 69 0 70 0 71 0 72 0 73 0 74 0 75 0 76 0 77 0 78 0 79 0 80 0 81 0 82 0 83 0 84 0 85 0 86 0 87 0 88 0 89 0 90 0 91 0 92 0 93 0 94 0 95 0 96 0 97 0 98 0 99 0 100 0 101 0 102 0 103 0 104 0 105 0 106 0 107 0 108 0 109 0 110 0 111 0 112 0 113 0 114 0 115 0 116 0 117 0 118 0 119 0 120 0 121 0 122 0 123 0 124 0 125 0 126 0 127 0 128 0 129 0 130 0 131 0 132 0 133 0 134 0 135 0 136 0 137 0 138 0 139 0 140 0 141 0 142 0 143 0 144 0 145 0 146 0 147 0 148 0 149 0 150 0 151 0 152 0 153 0 154 0 155 0 156 0 157 0 158 0 159 0 160 0 161 0 162 0 163 0 164 0 165 0 166 0 167 0 168 0 169 0 170 0 171 0 172 0 173 0 174 0 175 0 176 0 177 0 178 0 179 0 180 0 181 0 182 0 183 0 184 0 185 0 186 0 187 0 188 0 189 0 190 0 191 0 192 0 193 0 194 0 195 0 196 0 197 0 198 0 199 0 200 0 201 0 202 0 203 0 204 0 205 0 206 0 207 0 208 0 209 0 210 0 211 0 212 0 213 0 214 0 215 0 216 0 217 0 218 0 219 0 220 0 221 0 222 0 223 0 224 0 225 0 226 0 227 0 228 0 229 0 230 0 231 0 232 0 233 0 234 0 235 0 236 0 237 0 238 0 239 0 240 0 241 0 242 0 243 0 244 0 245 0 246 0 247 0 248 0 249 0 250 0 251 0 252 0 253 0 254 0 255 0 256 0 257 0 258 0 259 0 260 0 261 0 262 0 263 0 264 0 265 0 266 0 267 0 268 0 269 0 270 0 271 0 272 0 273 0 274 0 275 0 276 0 277 0 278 0 279 0 280 0 281 0 282 0 283 0 284 0 285 0 286 0 287 0 288 0 289 0 290 0 291 0 292 0 293 0 294 0 295 0 296 0 297 0 298 0 299 0 300 0 301 0 302 0 303 0 304 0 305 0 306 0 307 0 308 0 309 0 310 0 311 0 312 0 313 0 314 0 315 0 316 0 317 0 318 0 319 0 320 0 321 0 322 0 323 0 324 0 325 0 326 0 327 0 328 0 329 0 330 0 331 0 332 0 333 0 334 0 335 0 336 0 337 0 338 0 339 0 340 0 341 0 342 0 343 0 344 0 345 0 346 0 347 0 348 0 349 0 350 0 351 0 352 0 353 0 354 0 355 0 356 0 357 0 358 0 359 0 360 0 361 0 362 0 363 0 364 0 365 0 366 0 367 0 368 0 369 0 370 0 371 0 372 0 373 0 374 0 375 0 376 0 377 0 378 0 379 0 380 0 381 0 382 0 383 0 384 0 385 0 386 0 387 0 388 0 389 0 390 0 391 0 392 0 393 0 394 0 395 0 396 0 397 0 398 0 399 0 400 0 401 0 402 0 403 0 404 0 405 0 406 0 407 0 408 0 409 0 410 0 411 0 412 0 413 0 414 0 415 0 416 0 417 0 418 0 419 0 420 0 421 0 422 0 423 0 424 0 425 0 426 0 427 0 428 0 429 0 430 0 431 0 432 0 433 0 434 0 435 0 436 0 437 0 438 0 439 0 440 0 441 0 442 0 443 0 444 0 445 0 446 0 447 0 448 0 449 0 450 0 451 0 452 0 453 0 454 0 455 0 456 0 457 0 458 0 459 0 460 0 461 0 462 0 463 0 464 0 465 0 466 0 467 0 468 0 469 0 470 0 471 0 472 0 473 0 474 0 475 0 476 0 477 0 478 0 479 0 480 0 481 0 482 0 483 0 484 0 485 0 486 0 487 0 488 0 489 0 490 0 491 0 492 0 493 0 494 0 495 0 496 0 497 0 498 0 499 0 500 0 501 0 502 0 503 0 504 0 505 0 506 0 507 0 508 0 509 0 510 0 511 0 512 0 513 0 514 0 515 0 516 0 517</v>
        </vertex_weights>
      </skin>
    </controller>
  </library_controllers>
  <library_visual_scenes>
    <visual_scene id="Scene" name="Scene">
      <node id="Armature" name="Armature" type="NODE">
        <matrix sid="transform">1 0 0 0 0 -1.62921e-7 -1 0 0 1 -1.62921e-7 0 0 0 0 1</matrix>
        <node id="Armature_Root" name="Root" sid="Root" type="JOINT">
          <matrix sid="transform">1 0 0 0 0 1 0 0 0 0 1 0 0 0 0 1</matrix>
          <extra>
            <technique profile="blender">
              <layer sid="layer" type="string">0</layer>
              <tip_x sid="tip_x" type="float">0</tip_x>
              <tip_y sid="tip_y" type="float">1</tip_y>
              <tip_z sid="tip_z" type="float">0</tip_z>
            </technique>
          </extra>
        </node>
        <node id="pot__Mt_CmnTex_Etc_SheikerPot_A" name="pot__Mt_CmnTex_Etc_SheikerPot_A" type="NODE">
          <matrix sid="transform">1 0 0 0 0 1 0 0 0 0 1 0 0 0 0 1</matrix>
          <instance_controller url="#Armature_pot__Mt_CmnTex_Etc_SheikerPot_A-skin">
            <skeleton>#Armature_Root</skeleton>
            <bind_material>
              <technique_common>
                <instance_material symbol="Mt_CmnTex_Etc_SheikerPot_A-material" target="#Mt_CmnTex_Etc_SheikerPot_A-material">
                  <bind_vertex_input semantic="pot__Mt_CmnTex_Etc_SheikerPot_A-texcoord" input_semantic="TEXCOORD" input_set="0"/>
                </instance_material>
              </technique_common>
            </bind_material>
          </instance_controller>
        </node>
      </node>
    </visual_scene>
  </library_visual_scenes>
  <scene>
    <instance_visual_scene url="#Scene"/>
  </scene>
</COLLADA>