<?xml version="1.0"?>
<COLLADA xmlns="http://www.collada.org/2005/11/COLLADASchema" version="1.4.1">
    <asset>
        <contributor>
            <authoring_tool>J3D Ripoff Exporter</authoring_tool>
        </contributor>
        <created>2023-02-03T20:01:11.945Z</created>
        <modified>2023-02-03T20:01:11.945Z</modified>
		<unit meter="0.01" name="centimeter" ></unit>
        <up_axis>Y_UP</up_axis>
    </asset>
    <library_images>
        <image id="tex0">
            <init_from>KeySwitch.png</init_from>
        </image>
        <image id="tex1">
            <init_from>EnvMetal02.png</init_from>
        </image>
        <image id="tex_vc">
            <init_from>vertexColors.png</init_from>
        </image>
    </library_images>
    <library_effects>
        <effect id="effect0">
            <profile_COMMON>
                <newparam sid="surface0">
                    <surface type="2D">
                        <init_from>tex0</init_from>
                    </surface>
                </newparam>
                <newparam sid="sampler0">
                    <sampler2D>
                        <source>surface0</source>
                    </sampler2D>
                </newparam>
                <technique sid="COMMON">
                    <blinn>
                        <diffuse>
                            <texture texture="sampler0" texcoord="UVSET0"></texture>
                        </diffuse>
                    </blinn>
                </technique>
            </profile_COMMON>
        </effect>
        <effect id="effect_vc">
            <profile_COMMON>
                <newparam sid="surface_vc">
                    <surface type="2D">
                        <init_from>tex_vc</init_from>
                    </surface>
                </newparam>
                <newparam sid="sampler_vc">
                    <sampler2D>
                        <source>surface_vc</source>
                    </sampler2D>
                </newparam>
                <technique sid="COMMON">
                    <blinn>
                        <diffuse>
                            <texture texture="sampler_vc" texcoord="UVSET0"></texture>
                        </diffuse>
                    </blinn>
                </technique>
            </profile_COMMON>
        </effect>
    </library_effects>
    <library_materials>
        <material id="mat0" name="KeySwitchMat_v">
            <instance_effect url="#effect0"></instance_effect>
        </material>
        <material id="mat_vc" name="vertexColors">
            <instance_effect url="#effect_vc"></instance_effect>
        </material>
    </library_materials>
    <library_geometries>
        <geometry id="mesh0">
            <mesh>
                <source id="points0">
                    <float_array id="pointarray0" count="816">37.2265625 153.5625 -17.3828125 35.40625 146.4140625 17.3828125 35.40625 146.4140625 -17.3828125 30.1171875 139.9609375 17.3828125 30.1171875 139.9609375 -17.3828125 21.8828125 134.84375 17.3828125 21.8828125 134.84375 -17.3828125 11.5 131.5546875 17.3828125 11.5 131.5546875 -17.3828125 0 130.421875 17.3828125 0 130.421875 -17.3828125 -11.5 131.5546875 17.3828125 -11.5 131.5546875 -17.3828125 -21.8828125 134.84375 17.3828125 -21.8828125 134.84375 -17.3828125 -30.1171875 139.9609375 17.3828125 -30.1171875 139.9609375 -17.3828125 -35.40625 146.4140625 17.3828125 -35.40625 146.4140625 -17.3828125 -37.2265625 153.5625 17.3828125 -37.2265625 153.5625 -17.3828125 -35.40625 160.7109375 17.3828125 -35.40625 160.7109375 -17.3828125 -30.1171875 167.15625 17.3828125 -30.1171875 167.15625 -17.3828125 -21.8828125 172.2734375 17.3828125 -21.8828125 172.2734375 -17.3828125 -11.5 175.5625 17.3828125 -11.5 175.5625 -17.3828125 0 176.6953125 17.3828125 0 176.6953125 -17.3828125 11.5 175.5625 17.3828125 11.5 175.5625 -17.3828125 21.8828125 172.2734375 17.3828125 21.8828125 172.2734375 -17.3828125 30.1171875 167.15625 17.3828125 30.1171875 167.15625 -17.3828125 35.40625 160.7109375 17.3828125 35.40625 160.7109375 -17.3828125 37.2265625 153.5625 17.3828125 -29.171875 181.1328125 -17.3828125 -15.3359375 185.9765625 -17.3828125 -19.796875 197.4609375 -16.765625 0 199.71875 -16.765625 0 208.1796875 -17.3828125 19.796875 197.4609375 -16.765625 23.0078125 205.5078125 -17.3828125 37.6640625 190.90625 -16.765625 43.765625 197.75 -17.3828125 51.8359375 180.6953125 -16.765625 60.2421875 185.6640625 -17.3828125 60.9375 167.828125 -16.765625 70.8125 170.4375 -17.3828125 64.078125 153.5625 -16.765625 74.4609375 153.5625 -17.3828125 60.9375 139.296875 -16.765625 70.8125 136.6796875 -17.3828125 51.8359375 126.4296875 -16.765625 60.2421875 121.453125 -17.3828125 37.6640625 116.2109375 -16.765625 43.765625 109.375 -17.3828125 19.796875 109.65625 -16.765625 23.0078125 101.6171875 -17.3828125 0 107.3984375 -16.765625 0 98.9375 -17.3828125 -23.0078125 101.6171875 -17.3828125 -43.765625 197.75 17.3828125 -23.0078125 205.5078125 17.3828125 -19.796875 197.4609375 16.765625 0 199.71875 16.765625 0 187.640625 17.3828125 19.796875 197.4609375 16.765625 15.3359375 185.9765625 17.3828125 37.6640625 190.90625 16.765625 29.171875 181.1328125 17.3828125 51.8359375 180.6953125 16.765625 40.15625 173.59375 17.3828125 60.9375 167.828125 16.765625 47.2109375 164.09375 17.3828125 64.078125 153.5625 16.765625 49.640625 153.5625 17.3828125 60.9375 139.296875 16.765625 47.2109375 143.03125 17.3828125 51.8359375 126.4296875 16.765625 40.15625 133.5234375 17.3828125 37.6640625 116.2109375 16.765625 29.171875 125.984375 17.3828125 19.796875 109.65625 16.765625 15.3359375 121.1484375 17.3828125 0 107.3984375 16.765625 0 119.4765625 17.3828125 -15.3359375 121.1484375 17.3828125 -60.2421875 185.6640625 17.3828125 -37.6640625 190.90625 16.765625 -15.3359375 185.9765625 17.3828125 0 187.640625 -17.3828125 15.3359375 185.9765625 -17.3828125 29.171875 181.1328125 -17.3828125 40.15625 173.59375 -17.3828125 47.2109375 164.09375 -17.3828125 49.640625 153.5625 -17.3828125 47.2109375 143.03125 -17.3828125 40.15625 133.5234375 -17.3828125 29.171875 125.984375 -17.3828125 15.3359375 121.1484375 -17.3828125 0 119.4765625 -17.3828125 -19.796875 109.65625 -16.765625 -43.765625 109.375 -17.3828125 -15.3359375 121.1484375 -17.3828125 -37.6640625 116.2109375 -16.765625 -60.2421875 121.453125 -17.3828125 70.8125 136.6796875 17.3828125 60.2421875 121.453125 17.3828125 43.765625 109.375 17.3828125 23.0078125 101.6171875 17.3828125 0 98.9375 17.3828125 -19.796875 109.65625 16.765625 -29.171875 125.984375 17.3828125 74.4609375 153.5625 17.3828125 70.8125 170.4375 17.3828125 60.2421875 185.6640625 17.3828125 43.765625 197.75 17.3828125 23.0078125 205.5078125 17.3828125 0 208.1796875 17.3828125 4.078125 93.9921875 -12.5703125 -4.078125 93.9921875 -12.5703125 4.078125 81.90625 -12.5703125 -4.078125 81.90625 -12.5703125 4.078125 58.5546875 -12.5703125 -4.078125 58.5546875 -12.5703125 4.078125 36.6796875 -12.5703125 -4.078125 36.6796875 -12.5703125 4.078125 13 -12.5703125 -4.078125 13 -12.5703125 4.078125 0 -12.5703125 -4.078125 0 -12.5703125 -4.078125 93.9921875 12.5703125 4.078125 93.9921875 12.5703125 -4.078125 81.90625 12.5703125 4.078125 81.90625 12.5703125 -4.078125 58.5546875 12.5703125 4.078125 58.5546875 12.5703125 -4.078125 36.6796875 12.5703125 4.078125 36.6796875 12.5703125 -4.078125 13 12.5703125 4.078125 13 12.5703125 -4.078125 0 12.5703125 4.078125 0 12.5703125 -10.6953125 93.9921875 7.765625 -10.6953125 81.90625 7.765625 -10.6953125 58.5546875 7.765625 -10.6953125 36.6796875 7.765625 -10.6953125 13 7.765625 -10.6953125 0 7.765625 -13.21875 93.9921875 0 -13.21875 81.90625 0 -13.21875 58.5546875 0 -13.21875 36.6796875 0 -13.21875 13 0 -13.21875 0 0 -10.6953125 93.9921875 -7.765625 -10.6953125 81.90625 -7.765625 -10.6953125 58.5546875 -7.765625 -10.6953125 36.6796875 -7.765625 -10.6953125 13 -7.765625 -10.6953125 0 -7.765625 10.6953125 93.9921875 -7.765625 10.6953125 81.90625 -7.765625 10.6953125 58.5546875 -7.765625 10.6953125 36.6796875 -7.765625 10.6953125 13 -7.765625 10.6953125 0 -7.765625 0 212.9609375 -6.296875 -23.0078125 205.5078125 -17.3828125 -25.0234375 210.0546875 -6.296875 -43.765625 197.75 -17.3828125 -47.6015625 201.6171875 -6.296875 -60.2421875 185.6640625 -17.3828125 -65.515625 188.4765625 -6.296875 -70.8125 170.4375 -17.3828125 -77.015625 171.9140625 -6.296875 -74.4609375 153.5625 -17.3828125 -25.0234375 97.0625 -6.296875 -47.6015625 105.5 -6.296875 -47.6015625 105.5 6.296875 -65.515625 118.640625 6.296875 -60.2421875 121.453125 17.3828125 -70.8125 136.6796875 17.3828125 0 212.9609375 6.296875 -25.0234375 210.0546875 6.296875 -47.6015625 201.6171875 6.296875 -65.515625 188.4765625 6.296875 77.015625 171.9140625 6.296875 65.515625 188.4765625 6.296875 77.015625 171.9140625 -6.296875 65.515625 188.4765625 -6.296875 -43.765625 109.375 17.3828125 -51.8359375 126.4296875 16.765625 -60.9375 139.296875 16.765625 -47.2109375 143.03125 17.3828125 -49.640625 153.5625 17.3828125 -64.078125 153.5625 16.765625 -47.2109375 164.09375 17.3828125 -74.4609375 153.5625 17.3828125 -60.9375 167.828125 16.765625 -40.15625 173.59375 17.3828125 -70.8125 170.4375 17.3828125 -51.8359375 180.6953125 16.765625 -29.171875 181.1328125 17.3828125 77.015625 135.203125 6.296875 80.984375 153.5625 6.296875 77.015625 135.203125 -6.296875 80.984375 153.5625 -6.296875 -70.8125 136.6796875 -17.3828125 -80.984375 153.5625 -6.296875 -77.015625 171.9140625 6.296875 -23.0078125 101.6171875 17.3828125 -37.6640625 116.2109375 16.765625 -40.15625 133.5234375 17.3828125 10.6953125 36.6796875 7.765625 10.6953125 58.5546875 7.765625 10.6953125 81.90625 7.765625 10.6953125 93.9921875 7.765625 25.0234375 97.0625 6.296875 47.6015625 105.5 6.296875 25.0234375 97.0625 -6.296875 47.6015625 105.5 -6.296875 25.0234375 210.0546875 6.296875 25.0234375 210.0546875 -6.296875 -77.015625 135.203125 -6.296875 -80.984375 153.5625 6.296875 -65.515625 118.640625 -6.296875 -77.015625 135.203125 6.296875 47.6015625 201.6171875 6.296875 47.6015625 201.6171875 -6.296875 -29.171875 125.984375 -17.3828125 -51.8359375 126.4296875 -16.765625 -40.15625 133.5234375 -17.3828125 -60.9375 139.296875 -16.765625 -47.2109375 143.03125 -17.3828125 -64.078125 153.5625 -16.765625 -49.640625 153.5625 -17.3828125 -60.9375 167.828125 -16.765625 -47.2109375 164.09375 -17.3828125 -51.8359375 180.6953125 -16.765625 -40.15625 173.59375 -17.3828125 -37.6640625 190.90625 -16.765625 65.515625 118.640625 6.296875 65.515625 118.640625 -6.296875 13.21875 13 0 31.1328125 13 -7.765625 31.1328125 13 7.765625 48.4375 13 -7.765625 48.4375 13 7.765625 13.21875 93.9921875 0 10.6953125 13 7.765625 10.6953125 0 7.765625 -25.0234375 97.0625 6.296875 13.21875 0 0 31.1328125 81.90625 -7.765625 13.21875 81.90625 0 31.1328125 81.90625 7.765625 31.1328125 36.6796875 7.765625 48.4375 36.6796875 7.765625 31.1328125 58.5546875 -7.765625 52.46875 81.90625 -7.765625 52.46875 58.5546875 -7.765625 31.1328125 58.5546875 7.765625 52.46875 58.5546875 7.765625 52.46875 81.90625 7.765625 31.1328125 36.6796875 -7.765625 48.4375 36.6796875 -7.765625</float_array>
                    <technique_common>
                        <accessor count="272" source="#pointarray0" stride="3">
                            <param name="X" type="float"/>
                            <param name="Y" type="float"/>
                            <param name="Z" type="float"/>
                        </accessor>
                    </technique_common>
                </source>
                <source id="uvs0">
                    <float_array id="uvarray0" count="476">1.046875 0.9932861328125 1.0860595703125 0.0081787109375 1.0860595703125 0.9932861328125 1.121337890625 0.0081787109375 1.121337890625 0.9932861328125 1.1494140625 0.0081787109375 1.1494140625 0.9932861328125 1.1673583984375 0.0081787109375 1.1673583984375 0.9932861328125 1.173583984375 0.0081787109375 1.173583984375 0.9932861328125 1.046875 0.0081787109375 1.0076904296875 0.0081787109375 1.0076904296875 0.9932861328125 0.9722900390625 0.0081787109375 0.9722900390625 0.9932861328125 0.9443359375 0.0081787109375 0.9443359375 0.9932861328125 0.92626953125 0.0081787109375 0.92626953125 0.9932861328125 0.9200439453125 0.0081787109375 0.9200439453125 0.9932861328125 0.3194580078125 0.6712646484375 0.392578125 0.6998291015625 0.3638916015625 0.7886962890625 0.476806640625 0.8046875 0.4757080078125 0.910888671875 0.6246337890625 0.8939208984375 0.6474609375 0.966064453125 0.7613525390625 0.83837890625 0.80615234375 0.901123046875 0.8724365234375 0.749755859375 0.9349365234375 0.796875 0.9471435546875 0.6365966796875 1.0211181640625 0.66357421875 0.97802734375 0.5101318359375 1.056396484375 0.514404296875 0.962158203125 0.3826904296875 1.0369873046875 0.3636474609375 0.9010009765625 0.2667236328125 0.9652099609375 0.226318359375 0.800537109375 0.173583984375 0.8477783203125 0.1158447265625 0.6707763671875 0.1124267578125 0.6962890625 0.0428466796875 0.524169921875 0.0892333984375 0.525634765625 0.0147705078125 0.375244140625 0.106201171875 0.3524169921875 0.0340576171875 0.1937255859375 0.0989990234375 0.3035888671875 0.957275390625 0.4742431640625 0.9853515625 0.592041015625 0.7908935546875 0.6981201171875 0.74853515625 0.784912109375 0.681884765625 0.84375 0.597412109375 0.868896484375 0.50341796875 0.8580322265625 0.4091796875 0.81201171875 0.32373046875 0.7354736328125 0.255615234375 0.635986328125 0.21142578125 0.5230712890625 0.1954345703125 0.4078369140625 0.209228515625 0.3017578125 0.2515869140625 0.3575439453125 0.3333740234375 0.29150390625 0.3804931640625 0.152099609375 0.88427734375 0.3291015625 0.8876953125 0.5623779296875 0.6973876953125 0.642333984375 0.666748046875 0.7083740234375 0.61962890625 0.75390625 0.5609130859375 0.774658203125 0.4962158203125 0.7684326171875 0.431884765625 0.736083984375 0.374267578125 0.680419921875 0.328857421875 0.6072998046875 0.30029296875 0.5235595703125 0.291259765625 0.4375 0.302734375 0.476318359375 0.7088623046875 0.238525390625 0.1617431640625 0.06494140625 0.2032470703125 0.12744140625 0.2503662109375 -0.0211181640625 0.3365478515625 0.2149658203125 0.3182373046875 0.2459716796875 0.439208984375 0.788330078125 -0.004150390625 0.455322265625 -0.004150390625 0.788330078125 -0.1324462890625 0.455322265625 -0.1324462890625 0.788330078125 -0.380126953125 0.455322265625 -0.380126953125 0.788330078125 -0.6121826171875 0.455322265625 -0.6121826171875 0.788330078125 -0.8634033203125 0.455322265625 -0.8634033203125 0.788330078125 -1.0013427734375 0.455322265625 -1.0013427734375 0.2010498046875 -0.004150390625 0.2010498046875 -0.1324462890625 0.2010498046875 -0.380126953125 0.2010498046875 -0.6121826171875 0.2010498046875 -0.8634033203125 0.2010498046875 -1.0013427734375 0.0791015625 -0.004150390625 0.0791015625 -0.1324462890625 0.0791015625 -0.380126953125 0.0791015625 -0.6121826171875 0.0791015625 -0.8634033203125 0.0791015625 -1.0013427734375 1.0328369140625 -0.004150390625 1.0328369140625 -0.1324462890625 1.0328369140625 -0.380126953125 1.0328369140625 -0.6121826171875 1.0328369140625 -0.8634033203125 1.0328369140625 -1.0013427734375 0.721923828125 1.0321044921875 0.6392822265625 0.728515625 0.734130859375 1.0296630859375 0.6524658203125 0.7259521484375 0.7691650390625 1.022705078125 0.6905517578125 0.7183837890625 0.8238525390625 1.011962890625 0.7501220703125 0.70654296875 0.892822265625 0.9984130859375 0.8250732421875 0.691650390625 0.96923828125 0.983154296875 1.2122802734375 0.7958984375 1.2164306640625 0.9342041015625 1.204345703125 0.9366455078125 1.1639404296875 0.62451171875 1.125732421875 0.632080078125 1.0562744140625 0.28173828125 0.9967041015625 0.2935791015625 0.9229736328125 -0.011962890625 0.85400390625 0.001708984375 0.56982421875 0.378173828125 0.5830078125 0.3756103515625 0.62109375 0.3680419921875 0.6806640625 0.356201171875 0.701171875 0.031982421875 0.63232421875 0.045654296875 0.755615234375 0.34130859375 0.052734375 0.363525390625 0.0218505859375 0.489990234375 0.1309814453125 0.4967041015625 0.141845703125 0.5909423828125 0.2314453125 0.5682373046875 0.2637939453125 0.6258544921875 -0.056396484375 0.4857177734375 0.0377197265625 0.617431640625 0.1878662109375 0.6763916015625 -0.0369873046875 0.636474609375 0.098876953125 0.7333984375 0.264404296875 0.7445068359375 0.03466796875 0.7738037109375 0.1993408203125 0.8265380859375 0.777587890625 0.016845703125 0.9217529296875 0.3084716796875 0.8387451171875 0.324951171875 0.9912109375 0.65869140625 0.908203125 0.6751708984375 1.045654296875 0.968017578125 0.57763671875 0.0565185546875 0.1561279296875 0.4027099609375 0.2252197265625 0.50390625 1.0128173828125 -0.02978515625 0.9776611328125 -0.0228271484375 1.094482421875 0.274169921875 1.169189453125 0.943603515625 0.54248046875 0.0634765625 0.5303955078125 0.06591796875 1.114501953125 0.954345703125 1.066162109375 0.6439208984375 0 0.95166015625 0.0604248046875 0.5 0.4891357421875 0.95166015625 0.4891357421875 0.0484619140625 0.9034423828125 0.95166015625 0.9034423828125 0.0484619140625 1.14306640625 0.446533203125 1.1002197265625 0.230712890625 1.07373046875 0.0972900390625 1.02490234375 -0.0321044921875 0.9044189453125 0.7939453125 0.095458984375 0.7939453125 1 0.5 0 0.5 0.095458984375 0.2061767578125 0 0.0484619140625 1.1859130859375 0.6624755859375 1.1549072265625 -1.0013427734375 1.1549072265625 -0.8634033203125 1.1549072265625 -0.004150390625 1.1549072265625 -0.1324462890625 -0.508056640625 0 -0.508056640625 0.34375 -0.2486572265625 0 -0.2486572265625 0.34375 -0.508056640625 1 -0.508056640625 0.6612548828125 -0.1900634765625 1 -0.1900634765625 0.6612548828125 0 0.8642578125 0 0.1358642578125 1 0.8642578125 1 0.1358642578125 0.5384521484375 0 0.5384521484375 0.34375 0.258544921875 0 0.258544921875 0.34375 0.258544921875 1 0.258544921875 0.6612548828125 0.5384521484375 1 0.5384521484375 0.6612548828125 0.75 0.1719970703125 0.2498779296875 0.1719970703125 0.75 0.828125 0.2498779296875 0.828125 0.75 0.167236328125 0.2498779296875 0.167236328125 0.75 0.8328857421875 0.2498779296875 0.8328857421875 0.75 0.144775390625 0.2498779296875 0.144775390625 0.75 0.8553466796875 0.2498779296875 0.8553466796875 1 0.0484619140625 1 0.95166015625 0.345458984375 0.9755859375 0.6544189453125 0.9755859375 0.9044189453125 0.2061767578125 0.6544189453125 0.0245361328125 0 0.051025390625 0 0.9490966796875 1 0.051025390625 1 0.9490966796875 0.345458984375 0.0245361328125</float_array>
                    <technique_common>
                        <accessor count="1" source="#uvarray0" stride="2">
                            <param name="S" type="float"/>
                            <param name="T" type="float"/>
                        </accessor>
                    </technique_common>
                </source>
                <vertices id="vertices0">
                    <input semantic="POSITION" source="#points0"/>
                </vertices>
                <polylist count="544" material="Material1">
                    <input offset="0" semantic="VERTEX" source="#vertices0"/>
                    <input offset="1" semantic="TEXCOORD" source="#uvs0" set="0"/>
                    <vcount>3 3 3 3 3 3 3 3 3 3 3 3 3 3 3 3 3 3 3 3 3 3 3 3 3 3 3 3 3 3 3 3 3 3 3 3 3 3 3 3 3 3 3 3 3 3 3 3 3 3 3 3 3 3 3 3 3 3 3 3 3 3 3 3 3 3 3 3 3 3 3 3 3 3 3 3 3 3 3 3 3 3 3 3 3 3 3 3 3 3 3 3 3 3 3 3 3 3 3 3 3 3 3 3 3 3 3 3 3 3 3 3 3 3 3 3 3 3 3 3 3 3 3 3 3 3 3 3 3 3 3 3 3 3 3 3 3 3 3 3 3 3 3 3 3 3 3 3 3 3 3 3 3 3 3 3 3 3 3 3 3 3 3 3 3 3 3 3 3 3 3 3 3 3 3 3 3 3 3 3 3 3 3 3 3 3 3 3 3 3 3 3 3 3 3 3 3 3 3 3 3 3 3 3 3 3 3 3 3 3 3 3 3 3 3 3 3 3 3 3 3 3 3 3 3 3 3 3 3 3 3 3 3 3 3 3 3 3 3 3 3 3 3 3 3 3 3 3 3 3 3 3 3 3 3 3 3 3 3 3 3 3 3 3 3 3 3 3 3 3 3 3 3 3 3 3 3 3 3 3 3 3 3 3 3 3 3 3 3 3 3 3 3 3 3 3 3 3 3 3 3 3 3 3 3 3 3 3 3 3 3 3 3 3 3 3 3 3 3 3 3 3 3 3 3 3 3 3 3 3 3 3 3 3 3 3 3 3 3 3 3 3 3 3 3 3 3 3 3 3 3 3 3 3 3 3 3 3 3 3 3 3 3 3 3 3 3 3 3 3 3 3 3 3 3 3 3 3 3 3 3 3 3 3 3 3 3 3 3 3 3 3 3 3 3 3 3 3 3 3 3 3 3 3 3 3 3 3 3 3 3 3 3 3 3 3 3 3 3 3 3 3 3 3 3 3 3 3 3 3 3 3 3 3 3 3 3 3 3 3 3 3 3 3 3 3 3 3 3 3 3 3 3 3 3 3 3 3 3 3 3 3 3 3 3 3 3 3 3 3 3 3 3 3 3 3 3 3 3 3 3 3 3 3 3 3 3 3 3 3 3 3 3 3 3 3 3 3 3 3 3 3 3 3 3 3 3 3 3 3 3 3 3 3 3 3 3 3 3 3 3 3 3 3 3 3 3 3 3 3 3 3 3 3 3 3 3 3 3 3 3 3 3 3</vcount>
                    <p>2 2 1 1 0 0 3 3 1 1 2 2 4 4 3 3 2 2 5 5 3 3 4 4 6 6 5 5 4 4 7 7 5 5 6 6 8 8 7 7 6 6 9 9 7 7 8 8 10 10 9 9 8 8 11 7 9 9 10 10 12 8 11 7 10 10 13 5 11 7 12 8 14 6 13 5 12 8 15 3 13 5 14 6 16 4 15 3 14 6 17 1 15 3 16 4 18 2 17 1 16 4 19 11 17 1 18 2 20 0 19 11 18 2 21 12 19 11 20 0 22 13 21 12 20 0 23 14 21 12 22 13 24 15 23 14 22 13 25 16 23 14 24 15 26 17 25 16 24 15 27 18 25 16 26 17 28 19 27 18 26 17 29 20 27 18 28 19 30 21 29 20 28 19 31 18 29 20 30 21 32 19 31 18 30 21 33 16 31 18 32 19 34 17 33 16 32 19 35 14 33 16 34 17 36 15 35 14 34 17 37 12 35 14 36 15 38 13 37 12 36 15 39 11 37 12 38 13 0 0 39 11 38 13 1 1 39 11 0 0 40 24 26 23 24 22 41 25 26 23 40 24 42 26 41 25 40 24 43 27 41 25 42 26 44 28 43 27 42 26 45 29 43 27 44 28 46 30 45 29 44 28 47 31 45 29 46 30 48 32 47 31 46 30 49 33 47 31 48 32 50 34 49 33 48 32 51 35 49 33 50 34 52 36 51 35 50 34 53 37 51 35 52 36 54 38 53 37 52 36 55 39 53 37 54 38 56 40 55 39 54 38 57 41 55 39 56 40 58 42 57 41 56 40 59 43 57 41 58 42 60 44 59 43 58 42 61 45 59 43 60 44 62 46 61 45 60 44 63 47 61 45 62 46 64 48 63 47 62 46 65 49 63 47 64 48 68 26 67 51 66 50 69 27 67 51 68 26 70 52 69 27 68 26 71 29 69 27 70 52 72 53 71 29 70 52 73 31 71 29 72 53 74 54 73 31 72 53 75 33 73 31 74 54 76 55 75 33 74 54 77 35 75 33 76 55 78 56 77 35 76 55 79 37 77 35 78 56 80 57 79 37 78 56 81 39 79 37 80 57 82 58 81 39 80 57 83 41 81 39 82 58 84 59 83 41 82 58 85 43 83 41 84 59 86 60 85 43 84 59 87 45 85 43 86 60 88 61 87 45 86 60 89 47 87 45 88 61 90 62 89 47 88 61 91 63 89 47 90 62 11 64 91 63 90 62 13 65 91 63 11 64 93 67 66 50 92 66 68 26 66 50 93 67 94 25 68 26 93 67 70 52 68 26 94 25 29 68 70 52 94 25 72 53 70 52 29 68 31 69 72 53 29 68 74 54 72 53 31 69 33 70 74 54 31 69 76 55 74 54 33 70 35 71 76 55 33 70 78 56 76 55 35 71 37 72 78 56 35 71 80 57 78 56 37 72 39 73 80 57 37 72 82 58 80 57 39 73 1 74 82 58 39 73 84 59 82 58 1 74 3 75 84 59 1 74 86 60 84 59 3 75 5 76 86 60 3 75 88 61 86 60 5 76 7 77 88 61 5 76 90 62 88 61 7 77 9 78 90 62 7 77 11 64 90 62 9 78 41 25 28 79 26 23 95 52 28 79 41 25 43 27 95 52 41 25 96 53 95 52 43 27 45 29 96 53 43 27 97 54 96 53 45 29 47 31 97 54 45 29 98 55 97 54 47 31 49 33 98 55 47 31 99 56 98 55 49 33 51 35 99 56 49 33 100 57 99 56 51 35 53 37 100 57 51 35 101 58 100 57 53 37 55 39 101 58 53 37 102 59 101 58 55 39 57 41 102 59 55 39 103 60 102 59 57 41 59 43 103 60 57 41 104 61 103 60 59 43 61 45 104 61 59 43 105 62 104 61 61 45 63 47 105 62 61 45 106 80 105 62 63 47 65 49 106 80 63 47 107 81 106 80 65 49 101 58 2 74 100 57 4 75 2 74 101 58 102 59 4 75 101 58 6 76 4 75 102 59 103 60 6 76 102 59 8 77 6 76 103 60 104 61 8 77 103 60 10 78 8 77 104 61 105 62 10 78 104 61 108 63 10 78 105 62 106 80 108 63 105 62 109 82 108 63 106 80 107 81 109 82 106 80 110 83 109 82 107 81 81 39 111 40 79 37 112 42 111 40 81 39 83 41 112 42 81 39 113 44 112 42 83 41 85 43 113 44 83 41 114 46 113 44 85 43 87 45 114 46 85 43 115 48 114 46 87 45 89 47 115 48 87 45 116 80 115 48 89 47 91 63 116 80 89 47 117 84 116 80 91 63 13 65 117 84 91 63 15 85 117 84 13 65 0 73 100 57 2 74 99 56 100 57 0 73 38 72 99 56 0 73 98 55 99 56 38 72 36 71 98 55 38 72 97 54 98 55 36 71 34 70 97 54 36 71 96 53 97 54 34 70 32 69 96 53 34 70 95 52 96 53 32 69 30 68 95 52 32 69 28 79 95 52 30 68 118 38 79 37 111 40 77 35 79 37 118 38 119 36 77 35 118 38 75 33 77 35 119 36 120 34 75 33 119 36 73 31 75 33 120 34 121 32 73 31 120 34 71 29 73 31 121 32 122 30 71 29 121 32 69 27 71 29 122 30 123 28 69 27 122 30 67 51 69 27 123 28 126 88 125 87 124 86 127 89 125 87 126 88 128 90 127 89 126 88 129 91 127 89 128 90 130 92 129 91 128 90 131 93 129 91 130 92 132 94 131 93 130 92 133 95 131 93 132 94 134 96 133 95 132 94 135 97 133 95 134 96 138 89 137 86 136 87 139 88 137 86 138 89 140 91 139 88 138 89 141 90 139 88 140 91 142 93 141 90 140 91 143 92 141 90 142 93 144 95 143 92 142 93 145 94 143 92 144 95 146 97 145 94 144 95 147 96 145 94 146 97 149 99 136 87 148 98 138 89 136 87 149 99 150 100 138 89 149 99 140 91 138 89 150 100 151 101 140 91 150 100 142 93 140 91 151 101 152 102 142 93 151 101 144 95 142 93 152 102 153 103 144 95 152 102 146 97 144 95 153 103 155 105 148 98 154 104 149 99 148 98 155 105 156 106 149 99 155 105 150 100 149 99 156 106 157 107 150 100 156 106 151 101 150 100 157 107 158 108 151 101 157 107 152 102 151 101 158 108 159 109 152 102 158 108 153 103 152 102 159 109 161 99 154 104 160 98 155 105 154 104 161 99 162 100 155 105 161 99 156 106 155 105 162 100 163 101 156 106 162 100 157 107 156 106 163 101 164 102 157 107 163 101 158 108 157 107 164 102 165 103 158 108 164 102 159 109 158 108 165 103 127 89 160 98 125 87 161 99 160 98 127 89 129 91 161 99 127 89 162 100 161 99 129 91 131 93 162 100 129 91 163 101 162 100 131 93 133 95 163 101 131 93 164 102 163 101 133 95 135 97 164 102 133 95 165 103 164 102 135 97 167 111 124 86 166 110 126 88 124 86 167 111 168 112 126 88 167 111 128 90 126 88 168 112 169 113 128 90 168 112 130 92 128 90 169 113 170 114 130 92 169 113 132 94 130 92 170 114 171 115 132 94 170 114 134 96 132 94 171 115 173 118 172 117 44 116 174 119 172 117 173 118 175 120 174 119 173 118 176 121 174 119 175 120 177 122 176 121 175 120 178 123 176 121 177 122 179 124 178 123 177 122 180 125 178 123 179 124 181 126 180 125 179 124 125 127 64 128 124 127 65 129 64 128 125 127 182 130 65 129 125 127 183 131 65 129 182 130 184 132 183 131 182 130 185 133 183 131 184 132 186 134 185 133 184 132 187 135 185 133 186 134 174 119 188 136 172 117 189 137 188 136 174 119 176 121 189 137 174 119 190 138 189 137 176 121 178 123 190 138 176 121 191 139 190 138 178 123 180 125 191 139 178 123 192 142 120 141 119 140 193 139 120 141 192 142 194 125 193 139 192 142 195 123 193 139 194 125 52 124 195 123 194 125 50 122 195 123 52 124 197 143 186 83 196 81 198 144 186 83 197 143 199 145 198 144 197 143 200 146 198 144 199 145 19 147 200 146 199 145 21 148 200 146 19 147 198 144 187 149 186 83 201 150 187 149 198 144 200 146 201 150 198 144 202 151 201 150 200 146 21 148 202 151 200 146 23 22 202 151 21 148 201 150 203 152 187 149 204 153 203 152 201 150 202 151 204 153 201 150 205 154 204 153 202 151 23 22 205 154 202 151 25 23 205 154 23 22 204 153 206 155 203 152 207 156 206 155 204 153 205 154 207 156 204 153 208 24 207 156 205 154 25 23 208 24 205 154 27 79 208 24 25 23 209 158 118 157 111 135 210 159 118 157 209 158 211 160 210 159 209 158 212 161 210 159 211 160 56 162 212 161 211 160 54 126 212 161 56 162 214 161 181 126 213 162 180 125 181 126 214 161 215 142 180 125 214 161 191 139 180 125 215 142 92 141 191 139 215 142 66 163 191 139 92 141 207 156 92 66 206 155 93 67 92 66 207 156 208 24 93 67 207 156 94 25 93 67 208 24 27 79 94 25 208 24 29 68 94 25 27 79 217 82 196 81 216 49 197 143 196 81 217 82 218 164 197 143 217 82 199 145 197 143 218 164 17 165 199 145 218 164 19 147 199 145 17 165 220 112 143 92 219 113 141 90 143 92 220 112 221 111 141 90 220 112 139 88 141 90 221 111 222 110 139 88 221 111 137 86 139 88 222 110 223 168 113 167 114 166 224 132 113 167 223 168 225 130 224 132 223 168 226 131 224 132 225 130 62 129 226 131 225 130 60 169 226 131 62 129 227 137 123 171 122 170 188 136 123 171 227 137 228 119 188 136 227 137 172 117 188 136 228 119 46 118 172 117 228 119 44 116 172 117 46 118 229 160 213 162 110 172 214 161 213 162 229 160 230 159 214 161 229 160 215 142 214 161 230 159 206 140 215 142 230 159 92 141 215 142 206 140 231 173 110 172 107 169 229 160 110 172 231 173 232 158 229 160 231 173 230 159 229 160 232 158 203 157 230 159 232 158 206 140 230 159 203 157 183 131 107 169 65 129 231 173 107 169 183 131 185 133 231 173 183 131 232 158 231 173 185 133 187 135 232 158 185 133 203 157 232 158 187 135 233 138 122 170 121 163 227 137 122 170 233 138 234 121 227 137 233 138 228 119 227 137 234 121 48 120 228 119 234 121 46 118 228 119 48 120 193 139 121 163 120 141 233 138 121 163 193 139 195 123 233 138 193 139 234 121 233 138 195 123 50 122 234 121 195 123 48 120 234 121 50 122 108 63 12 64 10 78 235 84 12 64 108 63 109 82 235 84 108 63 236 143 235 84 109 82 110 83 236 143 109 82 213 149 236 143 110 83 210 159 119 140 118 157 192 142 119 140 210 159 212 161 192 142 210 159 194 125 192 142 212 161 54 126 194 125 212 161 52 124 194 125 54 126 235 84 14 65 12 64 237 164 14 65 235 84 236 143 237 164 235 84 238 144 237 164 236 143 213 149 238 144 236 143 181 152 238 144 213 149 237 164 16 85 14 65 239 145 16 85 237 164 238 144 239 145 237 164 240 150 239 145 238 144 181 152 240 150 238 144 179 155 240 150 181 152 239 145 18 165 16 85 241 146 18 165 239 145 240 150 241 146 239 145 242 153 241 146 240 150 179 155 242 153 240 150 177 66 242 153 179 155 241 146 20 147 18 165 243 151 20 147 241 146 242 153 243 151 241 146 244 156 243 151 242 153 177 66 244 156 242 153 175 50 244 156 177 66 243 151 22 148 20 147 245 154 22 148 243 151 244 156 245 154 243 151 246 67 245 154 244 156 175 50 246 67 244 156 173 51 246 67 175 50 245 154 24 22 22 148 40 24 24 22 245 154 246 67 40 24 245 154 42 26 40 24 246 67 173 51 42 26 246 67 44 28 42 26 173 51 247 133 111 135 112 134 209 158 111 135 247 133 248 173 209 158 247 133 211 160 209 158 248 173 58 172 211 160 248 173 56 162 211 160 58 172 224 132 112 134 113 167 247 133 112 134 224 132 226 131 247 133 224 132 248 173 247 133 226 131 60 169 248 173 226 131 58 172 248 173 60 169 116 80 216 49 115 48 217 82 216 49 116 80 117 84 217 82 116 80 218 164 217 82 117 84 15 85 218 164 117 84 17 165 218 164 15 85 189 137 123 171 188 136 67 170 123 171 189 137 190 138 67 170 189 137 66 163 67 170 190 138 191 139 66 163 190 138 250 176 249 175 170 174 251 177 249 175 250 176 252 178 251 177 250 176 253 179 251 177 252 178 223 168 222 181 254 180 137 182 222 181 223 168 114 166 137 182 223 168 115 183 137 182 114 166 145 94 219 113 143 92 255 114 219 113 145 94 147 96 255 114 145 94 256 115 255 114 147 96 184 132 196 167 186 134 257 168 196 167 184 132 182 130 257 168 184 132 154 180 257 168 182 130 258 186 165 185 171 184 159 187 165 185 258 186 153 188 159 187 258 186 260 175 259 176 167 174 261 177 259 176 260 175 221 189 261 177 260 175 124 127 225 130 166 190 62 129 225 130 124 127 64 128 62 129 124 127 249 192 256 115 258 191 255 114 256 115 249 192 260 194 166 110 254 193 167 111 166 110 260 194 253 197 262 196 251 195 263 198 262 196 253 197 265 201 264 200 259 199 266 202 264 200 265 201 266 205 267 204 264 203 268 206 267 204 266 205 268 202 261 199 267 200 269 201 261 199 268 202 170 209 270 208 250 207 169 210 270 208 170 209 251 207 219 210 255 209 262 208 219 210 251 207 259 213 168 212 167 211 264 214 168 212 259 213 221 211 267 214 261 213 220 212 267 214 221 211 264 214 169 210 168 212 270 208 169 210 264 214 262 208 220 212 219 210 267 214 220 212 262 208 252 217 263 216 253 215 271 218 263 216 252 217 266 221 269 220 268 219 265 222 269 220 266 221 270 225 267 224 262 223 264 226 267 224 270 225 160 190 182 130 125 127 154 180 182 130 160 190 269 227 259 176 261 177 265 228 259 176 269 227 115 183 136 182 137 182 216 166 136 182 115 183 254 180 225 130 223 168 166 190 225 130 254 180 148 181 257 168 154 180 136 182 257 168 148 181 216 166 257 168 136 182 196 167 257 168 216 166 221 111 254 193 222 110 260 194 254 193 221 111 271 198 250 195 270 196 252 197 250 195 271 198 134 230 165 185 135 229 171 184 165 185 134 230 256 231 153 188 258 186 147 232 153 188 256 231 263 235 270 234 262 233 271 236 270 234 263 235 170 114 258 191 171 115 249 192 258 191 170 114 251 177 255 189 249 175 153 188 147 232 146 237</p>
                </polylist>
            </mesh>
        </geometry>
        <geometry id="mesh0_VC">
            <mesh>
                <source id="points0_VC">
                    <float_array id="pointarray0_VC" count="816">37.2265625 153.5625 -17.3828125 35.40625 146.4140625 17.3828125 35.40625 146.4140625 -17.3828125 30.1171875 139.9609375 17.3828125 30.1171875 139.9609375 -17.3828125 21.8828125 134.84375 17.3828125 21.8828125 134.84375 -17.3828125 11.5 131.5546875 17.3828125 11.5 131.5546875 -17.3828125 0 130.421875 17.3828125 0 130.421875 -17.3828125 -11.5 131.5546875 17.3828125 -11.5 131.5546875 -17.3828125 -21.8828125 134.84375 17.3828125 -21.8828125 134.84375 -17.3828125 -30.1171875 139.9609375 17.3828125 -30.1171875 139.9609375 -17.3828125 -35.40625 146.4140625 17.3828125 -35.40625 146.4140625 -17.3828125 -37.2265625 153.5625 17.3828125 -37.2265625 153.5625 -17.3828125 -35.40625 160.7109375 17.3828125 -35.40625 160.7109375 -17.3828125 -30.1171875 167.15625 17.3828125 -30.1171875 167.15625 -17.3828125 -21.8828125 172.2734375 17.3828125 -21.8828125 172.2734375 -17.3828125 -11.5 175.5625 17.3828125 -11.5 175.5625 -17.3828125 0 176.6953125 17.3828125 0 176.6953125 -17.3828125 11.5 175.5625 17.3828125 11.5 175.5625 -17.3828125 21.8828125 172.2734375 17.3828125 21.8828125 172.2734375 -17.3828125 30.1171875 167.15625 17.3828125 30.1171875 167.15625 -17.3828125 35.40625 160.7109375 17.3828125 35.40625 160.7109375 -17.3828125 37.2265625 153.5625 17.3828125 -29.171875 181.1328125 -17.3828125 -15.3359375 185.9765625 -17.3828125 -19.796875 197.4609375 -16.765625 0 199.71875 -16.765625 0 208.1796875 -17.3828125 19.796875 197.4609375 -16.765625 23.0078125 205.5078125 -17.3828125 37.6640625 190.90625 -16.765625 43.765625 197.75 -17.3828125 51.8359375 180.6953125 -16.765625 60.2421875 185.6640625 -17.3828125 60.9375 167.828125 -16.765625 70.8125 170.4375 -17.3828125 64.078125 153.5625 -16.765625 74.4609375 153.5625 -17.3828125 60.9375 139.296875 -16.765625 70.8125 136.6796875 -17.3828125 51.8359375 126.4296875 -16.765625 60.2421875 121.453125 -17.3828125 37.6640625 116.2109375 -16.765625 43.765625 109.375 -17.3828125 19.796875 109.65625 -16.765625 23.0078125 101.6171875 -17.3828125 0 107.3984375 -16.765625 0 98.9375 -17.3828125 -23.0078125 101.6171875 -17.3828125 -43.765625 197.75 17.3828125 -23.0078125 205.5078125 17.3828125 -19.796875 197.4609375 16.765625 0 199.71875 16.765625 0 187.640625 17.3828125 19.796875 197.4609375 16.765625 15.3359375 185.9765625 17.3828125 37.6640625 190.90625 16.765625 29.171875 181.1328125 17.3828125 51.8359375 180.6953125 16.765625 40.15625 173.59375 17.3828125 60.9375 167.828125 16.765625 47.2109375 164.09375 17.3828125 64.078125 153.5625 16.765625 49.640625 153.5625 17.3828125 60.9375 139.296875 16.765625 47.2109375 143.03125 17.3828125 51.8359375 126.4296875 16.765625 40.15625 133.5234375 17.3828125 37.6640625 116.2109375 16.765625 29.171875 125.984375 17.3828125 19.796875 109.65625 16.765625 15.3359375 121.1484375 17.3828125 0 107.3984375 16.765625 0 119.4765625 17.3828125 -15.3359375 121.1484375 17.3828125 -60.2421875 185.6640625 17.3828125 -37.6640625 190.90625 16.765625 -15.3359375 185.9765625 17.3828125 0 187.640625 -17.3828125 15.3359375 185.9765625 -17.3828125 29.171875 181.1328125 -17.3828125 40.15625 173.59375 -17.3828125 47.2109375 164.09375 -17.3828125 49.640625 153.5625 -17.3828125 47.2109375 143.03125 -17.3828125 40.15625 133.5234375 -17.3828125 29.171875 125.984375 -17.3828125 15.3359375 121.1484375 -17.3828125 0 119.4765625 -17.3828125 -19.796875 109.65625 -16.765625 -43.765625 109.375 -17.3828125 -15.3359375 121.1484375 -17.3828125 -37.6640625 116.2109375 -16.765625 -60.2421875 121.453125 -17.3828125 70.8125 136.6796875 17.3828125 60.2421875 121.453125 17.3828125 43.765625 109.375 17.3828125 23.0078125 101.6171875 17.3828125 0 98.9375 17.3828125 -19.796875 109.65625 16.765625 -29.171875 125.984375 17.3828125 74.4609375 153.5625 17.3828125 70.8125 170.4375 17.3828125 60.2421875 185.6640625 17.3828125 43.765625 197.75 17.3828125 23.0078125 205.5078125 17.3828125 0 208.1796875 17.3828125 4.078125 93.9921875 -12.5703125 -4.078125 93.9921875 -12.5703125 4.078125 81.90625 -12.5703125 -4.078125 81.90625 -12.5703125 4.078125 58.5546875 -12.5703125 -4.078125 58.5546875 -12.5703125 4.078125 36.6796875 -12.5703125 -4.078125 36.6796875 -12.5703125 4.078125 13 -12.5703125 -4.078125 13 -12.5703125 4.078125 0 -12.5703125 -4.078125 0 -12.5703125 -4.078125 93.9921875 12.5703125 4.078125 93.9921875 12.5703125 -4.078125 81.90625 12.5703125 4.078125 81.90625 12.5703125 -4.078125 58.5546875 12.5703125 4.078125 58.5546875 12.5703125 -4.078125 36.6796875 12.5703125 4.078125 36.6796875 12.5703125 -4.078125 13 12.5703125 4.078125 13 12.5703125 -4.078125 0 12.5703125 4.078125 0 12.5703125 -10.6953125 93.9921875 7.765625 -10.6953125 81.90625 7.765625 -10.6953125 58.5546875 7.765625 -10.6953125 36.6796875 7.765625 -10.6953125 13 7.765625 -10.6953125 0 7.765625 -13.21875 93.9921875 0 -13.21875 81.90625 0 -13.21875 58.5546875 0 -13.21875 36.6796875 0 -13.21875 13 0 -13.21875 0 0 -10.6953125 93.9921875 -7.765625 -10.6953125 81.90625 -7.765625 -10.6953125 58.5546875 -7.765625 -10.6953125 36.6796875 -7.765625 -10.6953125 13 -7.765625 -10.6953125 0 -7.765625 10.6953125 93.9921875 -7.765625 10.6953125 81.90625 -7.765625 10.6953125 58.5546875 -7.765625 10.6953125 36.6796875 -7.765625 10.6953125 13 -7.765625 10.6953125 0 -7.765625 0 212.9609375 -6.296875 -23.0078125 205.5078125 -17.3828125 -25.0234375 210.0546875 -6.296875 -43.765625 197.75 -17.3828125 -47.6015625 201.6171875 -6.296875 -60.2421875 185.6640625 -17.3828125 -65.515625 188.4765625 -6.296875 -70.8125 170.4375 -17.3828125 -77.015625 171.9140625 -6.296875 -74.4609375 153.5625 -17.3828125 -25.0234375 97.0625 -6.296875 -47.6015625 105.5 -6.296875 -47.6015625 105.5 6.296875 -65.515625 118.640625 6.296875 -60.2421875 121.453125 17.3828125 -70.8125 136.6796875 17.3828125 0 212.9609375 6.296875 -25.0234375 210.0546875 6.296875 -47.6015625 201.6171875 6.296875 -65.515625 188.4765625 6.296875 77.015625 171.9140625 6.296875 65.515625 188.4765625 6.296875 77.015625 171.9140625 -6.296875 65.515625 188.4765625 -6.296875 -43.765625 109.375 17.3828125 -51.8359375 126.4296875 16.765625 -60.9375 139.296875 16.765625 -47.2109375 143.03125 17.3828125 -49.640625 153.5625 17.3828125 -64.078125 153.5625 16.765625 -47.2109375 164.09375 17.3828125 -74.4609375 153.5625 17.3828125 -60.9375 167.828125 16.765625 -40.15625 173.59375 17.3828125 -70.8125 170.4375 17.3828125 -51.8359375 180.6953125 16.765625 -29.171875 181.1328125 17.3828125 77.015625 135.203125 6.296875 80.984375 153.5625 6.296875 77.015625 135.203125 -6.296875 80.984375 153.5625 -6.296875 -70.8125 136.6796875 -17.3828125 -80.984375 153.5625 -6.296875 -77.015625 171.9140625 6.296875 -23.0078125 101.6171875 17.3828125 -37.6640625 116.2109375 16.765625 -40.15625 133.5234375 17.3828125 10.6953125 36.6796875 7.765625 10.6953125 58.5546875 7.765625 10.6953125 81.90625 7.765625 10.6953125 93.9921875 7.765625 25.0234375 97.0625 6.296875 47.6015625 105.5 6.296875 25.0234375 97.0625 -6.296875 47.6015625 105.5 -6.296875 25.0234375 210.0546875 6.296875 25.0234375 210.0546875 -6.296875 -77.015625 135.203125 -6.296875 -80.984375 153.5625 6.296875 -65.515625 118.640625 -6.296875 -77.015625 135.203125 6.296875 47.6015625 201.6171875 6.296875 47.6015625 201.6171875 -6.296875 -29.171875 125.984375 -17.3828125 -51.8359375 126.4296875 -16.765625 -40.15625 133.5234375 -17.3828125 -60.9375 139.296875 -16.765625 -47.2109375 143.03125 -17.3828125 -64.078125 153.5625 -16.765625 -49.640625 153.5625 -17.3828125 -60.9375 167.828125 -16.765625 -47.2109375 164.09375 -17.3828125 -51.8359375 180.6953125 -16.765625 -40.15625 173.59375 -17.3828125 -37.6640625 190.90625 -16.765625 65.515625 118.640625 6.296875 65.515625 118.640625 -6.296875 13.21875 13 0 31.1328125 13 -7.765625 31.1328125 13 7.765625 48.4375 13 -7.765625 48.4375 13 7.765625 13.21875 93.9921875 0 10.6953125 13 7.765625 10.6953125 0 7.765625 -25.0234375 97.0625 6.296875 13.21875 0 0 31.1328125 81.90625 -7.765625 13.21875 81.90625 0 31.1328125 81.90625 7.765625 31.1328125 36.6796875 7.765625 48.4375 36.6796875 7.765625 31.1328125 58.5546875 -7.765625 52.46875 81.90625 -7.765625 52.46875 58.5546875 -7.765625 31.1328125 58.5546875 7.765625 52.46875 58.5546875 7.765625 52.46875 81.90625 7.765625 31.1328125 36.6796875 -7.765625 48.4375 36.6796875 -7.765625</float_array>
                    <technique_common>
                        <accessor count="272" source="#pointarray0_VC" stride="3">
                            <param name="X" type="float"/>
                            <param name="Y" type="float"/>
                            <param name="Z" type="float"/>
                        </accessor>
                    </technique_common>
                </source>
                <source id="uvs0_VC">
                    <float_array id="uvarray0_VC" count="44">0.50390625 0.00390625 0.50390625 0.49609375 0.00390625 0.99609375 0.24609375 0.00390625 0.00390625 0.00390625 0.00390625 0.50390625 0.50390625 0.50390625 0.50390625 0.99609375 0.49609375 0.50390625 0.99609375 0.50390625 0.00390625 0.49609375 0.25390625 0.49609375 0.49609375 0.00390625 0.25390625 0.00390625 0.51953125 0.49609375 0.51953125 0.25390625 0.75390625 0.49609375 0.75390625 0.37890625 0.87109375 0.37890625 0.62890625 0.25390625 0.62890625 0.49609375 0.74609375 0.25390625</float_array>
                    <technique_common>
                        <accessor count="1" source="#uvarray0_VC" stride="2">
                            <param name="S" type="float"/>
                            <param name="T" type="float"/>
                        </accessor>
                    </technique_common>
                </source>
                <vertices id="vertices0_VC">
                    <input semantic="POSITION" source="#points0_VC"/>
                </vertices>
                <polylist count="544" material="Material1">
                    <input offset="0" semantic="VERTEX" source="#vertices0_VC"/>
                    <input offset="1" semantic="TEXCOORD" source="#uvs0_VC" set="0"/>
                    <vcount>3 3 3 3 3 3 3 3 3 3 3 3 3 3 3 3 3 3 3 3 3 3 3 3 3 3 3 3 3 3 3 3 3 3 3 3 3 3 3 3 3 3 3 3 3 3 3 3 3 3 3 3 3 3 3 3 3 3 3 3 3 3 3 3 3 3 3 3 3 3 3 3 3 3 3 3 3 3 3 3 3 3 3 3 3 3 3 3 3 3 3 3 3 3 3 3 3 3 3 3 3 3 3 3 3 3 3 3 3 3 3 3 3 3 3 3 3 3 3 3 3 3 3 3 3 3 3 3 3 3 3 3 3 3 3 3 3 3 3 3 3 3 3 3 3 3 3 3 3 3 3 3 3 3 3 3 3 3 3 3 3 3 3 3 3 3 3 3 3 3 3 3 3 3 3 3 3 3 3 3 3 3 3 3 3 3 3 3 3 3 3 3 3 3 3 3 3 3 3 3 3 3 3 3 3 3 3 3 3 3 3 3 3 3 3 3 3 3 3 3 3 3 3 3 3 3 3 3 3 3 3 3 3 3 3 3 3 3 3 3 3 3 3 3 3 3 3 3 3 3 3 3 3 3 3 3 3 3 3 3 3 3 3 3 3 3 3 3 3 3 3 3 3 3 3 3 3 3 3 3 3 3 3 3 3 3 3 3 3 3 3 3 3 3 3 3 3 3 3 3 3 3 3 3 3 3 3 3 3 3 3 3 3 3 3 3 3 3 3 3 3 3 3 3 3 3 3 3 3 3 3 3 3 3 3 3 3 3 3 3 3 3 3 3 3 3 3 3 3 3 3 3 3 3 3 3 3 3 3 3 3 3 3 3 3 3 3 3 3 3 3 3 3 3 3 3 3 3 3 3 3 3 3 3 3 3 3 3 3 3 3 3 3 3 3 3 3 3 3 3 3 3 3 3 3 3 3 3 3 3 3 3 3 3 3 3 3 3 3 3 3 3 3 3 3 3 3 3 3 3 3 3 3 3 3 3 3 3 3 3 3 3 3 3 3 3 3 3 3 3 3 3 3 3 3 3 3 3 3 3 3 3 3 3 3 3 3 3 3 3 3 3 3 3 3 3 3 3 3 3 3 3 3 3 3 3 3 3 3 3 3 3 3 3 3 3 3 3 3 3 3 3 3 3 3 3 3 3 3 3 3 3 3 3 3 3 3 3 3 3 3 3 3 3 3 3 3 3 3 3 3 3 3 3 3 3 3 3 3 3 3 3 3 3</vcount>
                    <p>2 0 1 0 0 0 3 0 1 0 2 0 4 0 3 0 2 0 5 0 3 0 4 0 6 0 5 0 4 0 7 0 5 0 6 0 8 0 7 0 6 0 9 0 7 0 8 0 10 0 9 0 8 0 11 0 9 0 10 0 12 0 11 0 10 0 13 0 11 0 12 0 14 0 13 0 12 0 15 0 13 0 14 0 16 0 15 0 14 0 17 0 15 0 16 0 18 0 17 0 16 0 19 0 17 0 18 0 20 0 19 0 18 0 21 0 19 0 20 0 22 0 21 0 20 0 23 0 21 0 22 0 24 0 23 0 22 0 25 0 23 0 24 0 26 0 25 0 24 0 27 0 25 0 26 0 28 0 27 0 26 0 29 0 27 0 28 0 30 0 29 0 28 0 31 0 29 0 30 0 32 0 31 0 30 0 33 0 31 0 32 0 34 0 33 0 32 0 35 0 33 0 34 0 36 0 35 0 34 0 37 0 35 0 36 0 38 0 37 0 36 0 39 0 37 0 38 0 0 0 39 0 38 0 1 0 39 0 0 0 40 1 26 0 24 0 41 1 26 0 40 1 42 2 41 2 40 2 43 2 41 2 42 2 44 3 43 4 42 4 45 4 43 4 44 3 46 3 45 4 44 3 47 4 45 4 46 3 48 3 47 4 46 3 49 4 47 4 48 3 50 3 49 4 48 3 51 4 49 4 50 3 52 3 51 4 50 3 53 4 51 4 52 3 54 3 53 4 52 3 55 4 53 4 54 3 56 3 55 4 54 3 57 4 55 4 56 3 58 3 57 4 56 3 59 4 57 4 58 3 60 3 59 4 58 3 61 4 59 4 60 3 62 3 61 4 60 3 63 4 61 4 62 3 64 3 63 4 62 3 65 3 63 4 64 3 68 4 67 3 66 3 69 4 67 3 68 4 70 2 69 2 68 2 71 2 69 2 70 2 72 2 71 2 70 2 73 2 71 2 72 2 74 2 73 2 72 2 75 2 73 2 74 2 76 2 75 2 74 2 77 2 75 2 76 2 78 2 77 2 76 2 79 2 77 2 78 2 80 2 79 2 78 2 81 2 79 2 80 2 82 2 81 2 80 2 83 2 81 2 82 2 84 2 83 2 82 2 85 2 83 2 84 2 86 2 85 2 84 2 87 2 85 2 86 2 88 2 87 2 86 2 89 2 87 2 88 2 90 2 89 2 88 2 91 2 89 2 90 2 11 0 91 1 90 1 13 0 91 1 11 0 93 4 66 3 92 3 68 4 66 3 93 4 94 2 68 2 93 2 70 2 68 2 94 2 29 0 70 1 94 1 72 1 70 1 29 0 31 0 72 1 29 0 74 1 72 1 31 0 33 0 74 1 31 0 76 1 74 1 33 0 35 0 76 1 33 0 78 1 76 1 35 0 37 0 78 1 35 0 80 1 78 1 37 0 39 0 80 1 37 0 82 1 80 1 39 0 1 0 82 1 39 0 84 1 82 1 1 0 3 0 84 1 1 0 86 1 84 1 3 0 5 0 86 1 3 0 88 1 86 1 5 0 7 0 88 1 5 0 90 1 88 1 7 0 9 0 90 1 7 0 11 0 90 1 9 0 41 1 28 0 26 0 95 1 28 0 41 1 43 2 95 2 41 2 96 2 95 2 43 2 45 2 96 2 43 2 97 2 96 2 45 2 47 2 97 2 45 2 98 2 97 2 47 2 49 2 98 2 47 2 99 2 98 2 49 2 51 2 99 2 49 2 100 2 99 2 51 2 53 2 100 2 51 2 101 2 100 2 53 2 55 2 101 2 53 2 102 2 101 2 55 2 57 2 102 2 55 2 103 2 102 2 57 2 59 2 103 2 57 2 104 2 103 2 59 2 61 2 104 2 59 2 105 2 104 2 61 2 63 2 105 2 61 2 106 2 105 2 63 2 65 3 106 4 63 4 107 3 106 4 65 3 101 1 2 0 100 1 4 0 2 0 101 1 102 1 4 0 101 1 6 0 4 0 102 1 103 1 6 0 102 1 8 0 6 0 103 1 104 1 8 0 103 1 10 0 8 0 104 1 105 1 10 0 104 1 108 1 10 0 105 1 106 2 108 2 105 2 109 2 108 2 106 2 107 3 109 4 106 4 110 3 109 4 107 3 81 4 111 3 79 4 112 3 111 3 81 4 83 4 112 3 81 4 113 3 112 3 83 4 85 4 113 3 83 4 114 3 113 3 85 4 87 4 114 3 85 4 115 3 114 3 87 4 89 4 115 3 87 4 116 4 115 3 89 4 91 2 116 2 89 2 117 2 116 2 91 2 13 0 117 1 91 1 15 0 117 1 13 0 0 0 100 1 2 0 99 1 100 1 0 0 38 0 99 1 0 0 98 1 99 1 38 0 36 0 98 1 38 0 97 1 98 1 36 0 34 0 97 1 36 0 96 1 97 1 34 0 32 0 96 1 34 0 95 1 96 1 32 0 30 0 95 1 32 0 28 0 95 1 30 0 118 3 79 4 111 3 77 4 79 4 118 3 119 3 77 4 118 3 75 4 77 4 119 3 120 3 75 4 119 3 73 4 75 4 120 3 121 3 73 4 120 3 71 4 73 4 121 3 122 3 71 4 121 3 69 4 71 4 122 3 123 3 69 4 122 3 67 3 69 4 123 3 126 2 125 5 124 5 127 2 125 5 126 2 128 2 127 2 126 2 129 2 127 2 128 2 130 2 129 2 128 2 131 2 129 2 130 2 132 2 131 2 130 2 133 2 131 2 132 2 134 6 133 7 132 7 135 6 133 7 134 6 138 2 137 5 136 5 139 2 137 5 138 2 140 2 139 2 138 2 141 2 139 2 140 2 142 2 141 2 140 2 143 2 141 2 142 2 144 2 143 2 142 2 145 2 143 2 144 2 146 6 145 7 144 7 147 6 145 7 146 6 149 2 136 5 148 5 138 2 136 5 149 2 150 2 138 2 149 2 140 2 138 2 150 2 151 2 140 2 150 2 142 2 140 2 151 2 152 2 142 2 151 2 144 2 142 2 152 2 153 6 144 7 152 7 146 6 144 7 153 6 155 2 148 5 154 5 149 2 148 5 155 2 156 2 149 2 155 2 150 2 149 2 156 2 157 2 150 2 156 2 151 2 150 2 157 2 158 2 151 2 157 2 152 2 151 2 158 2 159 6 152 7 158 7 153 6 152 7 159 6 161 2 154 5 160 5 155 2 154 5 161 2 162 2 155 2 161 2 156 2 155 2 162 2 163 2 156 2 162 2 157 2 156 2 163 2 164 2 157 2 163 2 158 2 157 2 164 2 165 6 158 7 164 7 159 6 158 7 165 6 127 2 160 5 125 5 161 2 160 5 127 2 129 2 161 2 127 2 162 2 161 2 129 2 131 2 162 2 129 2 163 2 162 2 131 2 133 2 163 2 131 2 164 2 163 2 133 2 135 6 164 7 133 7 165 6 164 7 135 6 167 8 124 5 166 5 126 2 124 5 167 8 168 8 126 2 167 8 128 2 126 2 168 8 169 8 128 2 168 8 130 2 128 2 169 8 170 8 130 2 169 8 132 2 130 2 170 8 171 6 132 7 170 9 134 6 132 7 171 6 173 3 172 4 44 3 174 4 172 4 173 3 175 3 174 4 173 3 176 4 174 4 175 3 177 3 176 4 175 3 178 4 176 4 177 3 179 3 178 4 177 3 180 4 178 4 179 3 181 3 180 4 179 3 125 10 64 3 124 10 65 3 64 3 125 10 182 4 65 3 125 10 183 4 65 3 182 4 184 2 183 2 182 2 185 2 183 2 184 2 186 3 185 4 184 4 187 3 185 4 186 3 174 2 188 2 172 2 189 2 188 2 174 2 176 2 189 2 174 2 190 2 189 2 176 2 178 2 190 2 176 2 191 2 190 2 178 2 180 2 191 2 178 2 192 4 120 3 119 3 193 4 120 3 192 4 194 2 193 2 192 2 195 2 193 2 194 2 52 3 195 4 194 4 50 3 195 4 52 3 197 4 186 3 196 3 198 4 186 3 197 4 199 2 198 2 197 2 200 2 198 2 199 2 19 0 200 1 199 1 21 0 200 1 19 0 198 4 187 3 186 3 201 4 187 3 198 4 200 2 201 2 198 2 202 2 201 2 200 2 21 0 202 1 200 1 23 0 202 1 21 0 201 4 203 3 187 3 204 4 203 3 201 4 202 2 204 2 201 2 205 2 204 2 202 2 23 0 205 1 202 1 25 0 205 1 23 0 204 4 206 3 203 3 207 4 206 3 204 4 205 2 207 2 204 2 208 2 207 2 205 2 25 0 208 1 205 1 27 0 208 1 25 0 209 4 118 3 111 3 210 4 118 3 209 4 211 2 210 2 209 2 212 2 210 2 211 2 56 3 212 4 211 4 54 3 212 4 56 3 214 4 181 3 213 3 180 4 181 3 214 4 215 2 180 2 214 2 191 2 180 2 215 2 92 3 191 4 215 4 66 3 191 4 92 3 207 4 92 3 206 3 93 4 92 3 207 4 208 2 93 2 207 2 94 2 93 2 208 2 27 0 94 1 208 1 29 0 94 1 27 0 217 4 196 3 216 3 197 4 196 3 217 4 218 2 197 2 217 2 199 2 197 2 218 2 17 0 199 1 218 1 19 0 199 1 17 0 220 8 143 2 219 8 141 2 143 2 220 8 221 8 141 2 220 8 139 2 141 2 221 8 222 5 139 2 221 8 137 5 139 2 222 5 223 4 113 3 114 3 224 4 113 3 223 4 225 2 224 2 223 2 226 2 224 2 225 2 62 3 226 4 225 4 60 3 226 4 62 3 227 4 123 3 122 3 188 4 123 3 227 4 228 2 188 2 227 2 172 2 188 2 228 2 46 3 172 4 228 4 44 3 172 4 46 3 229 4 213 3 110 3 214 4 213 3 229 4 230 2 214 2 229 2 215 2 214 2 230 2 206 3 215 4 230 4 92 3 215 4 206 3 231 4 110 3 107 3 229 4 110 3 231 4 232 2 229 2 231 2 230 2 229 2 232 2 203 3 230 4 232 4 206 3 230 4 203 3 183 4 107 3 65 3 231 4 107 3 183 4 185 2 231 2 183 2 232 2 231 2 185 2 187 3 232 4 185 4 203 3 232 4 187 3 233 4 122 3 121 3 227 4 122 3 233 4 234 2 227 2 233 2 228 2 227 2 234 2 48 3 228 4 234 4 46 3 228 4 48 3 193 4 121 3 120 3 233 4 121 3 193 4 195 2 233 2 193 2 234 2 233 2 195 2 50 3 234 4 195 4 48 3 234 4 50 3 108 1 12 0 10 0 235 1 12 0 108 1 109 2 235 2 108 2 236 2 235 2 109 2 110 3 236 4 109 4 213 3 236 4 110 3 210 4 119 3 118 3 192 4 119 3 210 4 212 2 192 2 210 2 194 2 192 2 212 2 54 3 194 4 212 4 52 3 194 4 54 3 235 1 14 0 12 0 237 1 14 0 235 1 236 2 237 2 235 2 238 2 237 2 236 2 213 3 238 4 236 4 181 3 238 4 213 3 237 1 16 0 14 0 239 1 16 0 237 1 238 2 239 2 237 2 240 2 239 2 238 2 181 3 240 4 238 4 179 3 240 4 181 3 239 1 18 0 16 0 241 1 18 0 239 1 240 2 241 2 239 2 242 2 241 2 240 2 179 3 242 4 240 4 177 3 242 4 179 3 241 1 20 0 18 0 243 1 20 0 241 1 242 2 243 2 241 2 244 2 243 2 242 2 177 3 244 4 242 4 175 3 244 4 177 3 243 1 22 0 20 0 245 1 22 0 243 1 244 2 245 2 243 2 246 2 245 2 244 2 175 3 246 4 244 4 173 3 246 4 175 3 245 1 24 0 22 0 40 1 24 0 245 1 246 2 40 2 245 2 42 2 40 2 246 2 173 3 42 4 246 4 44 3 42 4 173 3 247 4 111 3 112 3 209 4 111 3 247 4 248 2 209 2 247 2 211 2 209 2 248 2 58 3 211 4 248 4 56 3 211 4 58 3 224 4 112 3 113 3 247 4 112 3 224 4 226 2 247 2 224 2 248 2 247 2 226 2 60 3 248 4 226 4 58 3 248 4 60 3 116 4 216 3 115 3 217 4 216 3 116 4 117 2 217 2 116 2 218 2 217 2 117 2 15 0 218 1 117 1 17 0 218 1 15 0 189 4 123 3 188 4 67 3 123 3 189 4 190 4 67 3 189 4 66 3 67 3 190 4 191 4 66 3 190 4 250 11 249 12 170 13 251 11 249 12 250 11 252 14 251 15 250 15 253 14 251 15 252 14 223 2 222 5 254 5 137 5 222 5 223 2 114 3 137 10 223 4 115 3 137 10 114 3 145 2 219 8 143 2 255 8 219 8 145 2 147 6 255 9 145 7 256 6 255 9 147 6 184 4 196 3 186 3 257 4 196 3 184 4 182 2 257 2 184 2 154 5 257 2 182 2 258 6 165 6 171 6 159 6 165 6 258 6 153 6 159 6 258 6 260 12 259 11 167 13 261 11 259 11 260 12 221 13 261 11 260 12 124 5 225 2 166 5 62 3 225 4 124 10 64 3 62 3 124 10 249 16 256 17 258 17 255 18 256 17 249 16 260 19 166 20 254 20 167 21 166 20 260 19 253 14 262 15 251 15 263 14 262 15 253 14 265 14 264 15 259 15 266 14 264 15 265 14 266 14 267 15 264 15 268 14 267 15 266 14 268 14 261 15 267 15 269 14 261 15 268 14 170 8 270 2 250 2 169 8 270 2 170 8 251 2 219 8 255 8 262 2 219 8 251 2 259 2 168 8 167 8 264 2 168 8 259 2 221 8 267 2 261 2 220 8 267 2 221 8 264 2 169 8 168 8 270 2 169 8 264 2 262 2 220 8 219 8 267 2 220 8 262 2 252 14 263 14 253 14 271 14 263 14 252 14 266 14 269 14 268 14 265 14 269 14 266 14 270 2 267 2 262 2 264 2 267 2 270 2 160 5 182 2 125 5 154 5 182 2 160 5 269 14 259 15 261 15 265 14 259 15 269 14 115 3 136 10 137 10 216 3 136 10 115 3 254 5 225 2 223 2 166 5 225 2 254 5 148 5 257 2 154 5 136 5 257 2 148 5 216 3 257 4 136 10 196 3 257 4 216 3 221 8 254 5 222 5 260 19 254 20 221 21 271 14 250 15 270 15 252 14 250 15 271 14 134 6 165 6 135 6 171 6 165 6 134 6 256 6 153 6 258 6 147 6 153 6 256 6 263 14 270 15 262 15 271 14 270 15 263 14 170 9 258 6 171 6 249 16 258 17 170 18 251 11 255 13 249 12 153 6 147 6 146 6</p>
                </polylist>
            </mesh>
        </geometry>
    </library_geometries>
    <library_visual_scenes>
        <visual_scene id="VisualSceneNode">
            <node id="node0" name="m0" type="NODE">
                <instance_geometry url="#mesh0">
                    <bind_material>
                        <technique_common>
                            <instance_material symbol="Material1" target="#mat0">
                                <bind_vertex_input semantic="UVSET0" input_semantic="TEXCOORD" input_set="0"></bind_vertex_input>
                            </instance_material>
                        </technique_common>
                    </bind_material>
                </instance_geometry>
            </node>
            <node id="node0_VC" name="m0_VC" type="NODE">
                <instance_geometry url="#mesh0_VC">
                    <bind_material>
                        <technique_common>
                            <instance_material symbol="Material1" target="#mat_vc">
                                <bind_vertex_input semantic="UVSET0" input_semantic="TEXCOORD" input_set="0"></bind_vertex_input>
                            </instance_material>
                        </technique_common>
                    </bind_material>
                </instance_geometry>
            </node>
        </visual_scene>
    </library_visual_scenes>
    <scene>
        <instance_visual_scene url="#VisualSceneNode"></instance_visual_scene>
    </scene>
</COLLADA>
