# 3ds Max Wavefront OBJ Exporter v0.97b - (c)2007 guruware
# File Created: 06.12.2014 18:44:42

mtllib model.mtl

#
# object keyswitch001
#

#
# object KeySwitchMat_v001
#

v  -10.6953 0.0000 7.7656
v  4.0781 0.0000 12.5703
v  -4.0781 0.0000 12.5703
v  31.1328 13.0000 7.7656
v  10.6953 13.0000 7.7656
v  13.2188 13.0000 -0.0000
v  13.2188 0.0000 -0.0000
v  10.6953 13.0000 -7.7656
v  10.6953 0.0000 -7.7656
v  31.1328 36.6797 -7.7656
v  48.4375 36.6797 7.7656
v  48.4375 36.6797 -7.7656
v  31.1328 36.6797 7.7656
v  10.6953 0.0000 7.7656
v  -10.6953 0.0000 -7.7656
v  4.0781 0.0000 -12.5703
v  -4.0781 0.0000 -12.5703
v  31.1328 13.0000 -7.7656
v  48.4375 13.0000 -7.7656
v  13.2188 93.9922 -0.0000
v  10.6953 81.9063 7.7656
v  13.2188 81.9063 -0.0000
v  10.6953 93.9922 7.7656
v  -25.0234 97.0625 6.2969
v  -23.0078 101.6172 17.3828
v  -43.7656 109.3750 17.3828
v  -4.0781 93.9922 12.5703
v  -10.6953 93.9922 7.7656
v  -13.2188 93.9922 -0.0000
v  25.0234 97.0625 -6.2969
v  10.6953 93.9922 -7.7656
v  25.0234 97.0625 6.2969
v  0.0000 98.9375 17.3828
v  4.0781 93.9922 12.5703
v  31.1328 81.9063 -7.7656
v  52.4688 81.9063 7.7656
v  52.4688 81.9063 -7.7656
v  31.1328 81.9063 7.7656
v  -25.0234 97.0625 -6.2969
v  -10.6953 93.9922 -7.7656
v  -4.0781 93.9922 -12.5703
v  31.1328 58.5547 7.7656
v  31.1328 58.5547 -7.7656
v  52.4688 58.5547 -7.7656
v  52.4688 58.5547 7.7656
v  48.4375 13.0000 7.7656
v  10.6953 58.5547 7.7656
v  10.6953 36.6797 7.7656
v  10.6953 36.6797 -7.7656
v  10.6953 58.5547 -7.7656
v  10.6953 81.9063 -7.7656
v  0.0000 98.9375 -17.3828
v  23.0078 101.6172 -17.3828
v  4.0781 93.9922 -12.5703
v  -13.2188 0.0000 -0.0000
v  -47.6016 105.5000 6.2969
v  -60.2422 121.4531 17.3828
v  4.0781 13.0000 12.5703
v  4.0781 36.6797 12.5703
v  23.0078 101.6172 17.3828
v  -65.5156 188.4766 6.2969
v  -43.7656 197.7500 17.3828
v  -47.6016 201.6172 6.2969
v  -23.0078 205.5078 17.3828
v  -25.0234 210.0547 6.2969
v  0.0000 208.1797 17.3828
v  0.0000 212.9609 6.2969
v  -40.1563 133.5234 17.3828
v  -30.1172 139.9609 17.3828
v  -35.4063 146.4141 17.3828
v  -29.1719 125.9844 17.3828
v  -37.6641 116.2109 16.7656
v  -19.7969 109.6563 16.7656
v  65.5156 118.6406 -6.2969
v  43.7656 109.3750 -17.3828
v  60.2422 121.4531 -17.3828
v  47.6016 105.5000 -6.2969
v  65.5156 118.6406 6.2969
v  47.6016 105.5000 6.2969
v  60.2422 121.4531 17.3828
v  43.7656 109.3750 17.3828
v  77.0156 135.2031 -6.2969
v  70.8125 136.6797 -17.3828
v  77.0156 135.2031 6.2969
v  70.8125 136.6797 17.3828
v  -19.7969 197.4609 -16.7656
v  -23.0078 205.5078 -17.3828
v  0.0000 208.1797 -17.3828
v  -37.6641 190.9063 -16.7656
v  -29.1719 181.1328 -17.3828
v  -40.1563 173.5938 -17.3828
v  -30.1172 167.1563 -17.3828
v  -35.4063 160.7109 -17.3828
v  -43.7656 197.7500 -17.3828
v  -51.8359 180.6953 -16.7656
v  -47.2109 164.0938 -17.3828
v  -37.2266 153.5625 -17.3828
v  -60.2422 185.6641 -17.3828
v  -60.9375 167.8281 -16.7656
v  -49.6406 153.5625 -17.3828
v  -35.4063 146.4141 -17.3828
v  -70.8125 170.4375 -17.3828
v  -64.0781 153.5625 -16.7656
v  -47.2109 143.0313 -17.3828
v  -30.1172 139.9609 -17.3828
v  -74.4609 153.5625 -17.3828
v  -60.9375 139.2969 -16.7656
v  -40.1563 133.5234 -17.3828
v  -21.8828 134.8438 -17.3828
v  -70.8125 136.6797 -17.3828
v  -51.8359 126.4297 -16.7656
v  -29.1719 125.9844 -17.3828
v  -11.5000 131.5547 -17.3828
v  77.0156 171.9141 -6.2969
v  74.4609 153.5625 -17.3828
v  70.8125 170.4375 -17.3828
v  80.9844 153.5625 -6.2969
v  77.0156 171.9141 6.2969
v  80.9844 153.5625 6.2969
v  70.8125 170.4375 17.3828
v  74.4609 153.5625 17.3828
v  -60.2422 121.4531 -17.3828
v  -37.6641 116.2109 -16.7656
v  -15.3359 121.1484 -17.3828
v  0.0000 130.4219 -17.3828
v  47.6016 201.6172 -6.2969
v  60.2422 185.6641 -17.3828
v  43.7656 197.7500 -17.3828
v  65.5156 188.4766 -6.2969
v  47.6016 201.6172 6.2969
v  65.5156 188.4766 6.2969
v  43.7656 197.7500 17.3828
v  60.2422 185.6641 17.3828
v  25.0234 210.0547 -6.2969
v  23.0078 205.5078 -17.3828
v  25.0234 210.0547 6.2969
v  23.0078 205.5078 17.3828
v  -77.0156 135.2031 6.2969
v  -70.8125 136.6797 17.3828
v  -74.4609 153.5625 17.3828
v  -65.5156 118.6406 6.2969
v  -65.5156 118.6406 -6.2969
v  -47.6016 105.5000 -6.2969
v  -43.7656 109.3750 -17.3828
v  -23.0078 101.6172 -17.3828
v  -80.9844 153.5625 6.2969
v  -70.8125 170.4375 17.3828
v  -77.0156 135.2031 -6.2969
v  -77.0156 171.9141 6.2969
v  -60.2422 185.6641 17.3828
v  -80.9844 153.5625 -6.2969
v  0.0000 212.9609 -6.2969
v  4.0781 81.9063 12.5703
v  4.0781 58.5547 12.5703
v  -47.2109 143.0313 17.3828
v  -37.2266 153.5625 17.3828
v  -51.8359 126.4297 16.7656
v  -15.3359 185.9766 17.3828
v  -11.5000 175.5625 17.3828
v  0.0000 176.6953 17.3828
v  -29.1719 181.1328 17.3828
v  -37.6641 190.9063 16.7656
v  -51.8359 180.6953 16.7656
v  -77.0156 171.9141 -6.2969
v  -21.8828 172.2734 17.3828
v  -40.1563 173.5938 17.3828
v  -60.9375 167.8281 16.7656
v  -30.1172 167.1563 17.3828
v  -47.2109 164.0938 17.3828
v  -64.0781 153.5625 16.7656
v  -35.4063 160.7109 17.3828
v  -49.6406 153.5625 17.3828
v  -60.9375 139.2969 16.7656
v  -65.5156 188.4766 -6.2969
v  -47.6016 201.6172 -6.2969
v  -25.0234 210.0547 -6.2969
v  4.0781 13.0000 -12.5703
v  4.0781 36.6797 -12.5703
v  4.0781 58.5547 -12.5703
v  4.0781 81.9063 -12.5703
v  -10.6953 13.0000 -7.7656
v  -4.0781 13.0000 -12.5703
v  -10.6953 36.6797 -7.7656
v  -4.0781 36.6797 -12.5703
v  -10.6953 58.5547 -7.7656
v  -4.0781 58.5547 -12.5703
v  -10.6953 81.9063 -7.7656
v  -4.0781 81.9063 -12.5703
v  -13.2188 13.0000 -0.0000
v  -13.2188 36.6797 -0.0000
v  -13.2188 58.5547 -0.0000
v  -13.2188 81.9063 -0.0000
v  -10.6953 13.0000 7.7656
v  -10.6953 36.6797 7.7656
v  -10.6953 58.5547 7.7656
v  -10.6953 81.9063 7.7656
v  -4.0781 13.0000 12.5703
v  -4.0781 36.6797 12.5703
v  -4.0781 58.5547 12.5703
v  -4.0781 81.9063 12.5703
v  0.0000 199.7188 16.7656
v  19.7969 197.4609 16.7656
v  37.6641 190.9063 16.7656
v  51.8359 180.6953 16.7656
v  60.9375 167.8281 16.7656
v  64.0781 153.5625 16.7656
v  0.0000 187.6406 -17.3828
v  0.0000 176.6953 -17.3828
v  -11.5000 175.5625 -17.3828
v  11.5000 175.5625 -17.3828
v  15.3359 185.9766 -17.3828
v  21.8828 172.2734 -17.3828
v  29.1719 181.1328 -17.3828
v  30.1172 167.1563 -17.3828
v  40.1563 173.5938 -17.3828
v  35.4063 160.7109 -17.3828
v  47.2109 164.0938 -17.3828
v  37.2266 153.5625 -17.3828
v  49.6406 153.5625 -17.3828
v  35.4063 146.4141 -17.3828
v  -21.8828 134.8438 17.3828
v  -15.3359 121.1484 17.3828
v  0.0000 107.3984 16.7656
v  19.7969 109.6563 16.7656
v  37.6641 116.2109 16.7656
v  51.8359 126.4297 16.7656
v  60.9375 139.2969 16.7656
v  -19.7969 109.6563 -16.7656
v  0.0000 119.4766 -17.3828
v  15.3359 121.1484 -17.3828
v  11.5000 131.5547 -17.3828
v  29.1719 125.9844 -17.3828
v  21.8828 134.8438 -17.3828
v  40.1563 133.5234 -17.3828
v  30.1172 139.9609 -17.3828
v  47.2109 143.0313 -17.3828
v  0.0000 107.3984 -16.7656
v  19.7969 109.6563 -16.7656
v  37.6641 116.2109 -16.7656
v  51.8359 126.4297 -16.7656
v  60.9375 139.2969 -16.7656
v  64.0781 153.5625 -16.7656
v  60.9375 167.8281 -16.7656
v  51.8359 180.6953 -16.7656
v  37.6641 190.9063 -16.7656
v  19.7969 197.4609 -16.7656
v  0.0000 199.7188 -16.7656
v  -15.3359 185.9766 -17.3828
v  -21.8828 172.2734 -17.3828
v  0.0000 119.4766 17.3828
v  0.0000 130.4219 17.3828
v  -11.5000 131.5547 17.3828
v  11.5000 131.5547 17.3828
v  15.3359 121.1484 17.3828
v  21.8828 134.8438 17.3828
v  29.1719 125.9844 17.3828
v  30.1172 139.9609 17.3828
v  40.1563 133.5234 17.3828
v  35.4063 146.4141 17.3828
v  47.2109 143.0313 17.3828
v  37.2266 153.5625 17.3828
v  49.6406 153.5625 17.3828
v  35.4063 160.7109 17.3828
v  47.2109 164.0938 17.3828
v  30.1172 167.1563 17.3828
v  40.1563 173.5938 17.3828
v  21.8828 172.2734 17.3828
v  29.1719 181.1328 17.3828
v  11.5000 175.5625 17.3828
v  15.3359 185.9766 17.3828
v  0.0000 187.6406 17.3828
v  -19.7969 197.4609 16.7656
# 272 vertices

vn -0.6191 -0.6437 0.4499
vn 0.2364 -0.6437 0.7278
vn -0.2364 -0.6437 0.7278
vn 0.0000 -0.7071 0.7071
vn 0.5738 -0.2159 0.7900
vn 0.6211 -0.7837 0.0000
vn 0.7653 -0.6437 -0.0000
vn 0.5738 -0.2159 -0.7900
vn 0.6191 -0.6437 -0.4499
vn 0.3015 0.3015 -0.9045
vn 0.5774 0.5774 0.5774
vn 0.5774 0.5774 -0.5774
vn 0.3015 0.3015 0.9045
vn 0.6191 -0.6437 0.4499
vn -0.6191 -0.6437 -0.4499
vn 0.2364 -0.6437 -0.7278
vn -0.2364 -0.6437 -0.7278
vn 0.0000 -0.7071 -0.7071
vn 0.2528 -0.6841 -0.6841
vn 0.7243 -0.6895 -0.0000
vn 0.5738 0.2159 0.7900
vn 0.6211 0.7837 0.0000
vn 0.5955 -0.6406 0.4847
vn -0.2960 -0.9332 0.2038
vn -0.1595 -0.5009 0.8507
vn -0.2508 -0.4798 0.8408
vn -0.2144 -0.4469 0.8685
vn -0.5955 -0.6406 0.4847
vn -0.7243 -0.6895 0.0000
vn 0.2960 -0.9332 -0.2038
vn 0.5955 -0.6406 -0.4847
vn 0.2960 -0.9332 0.2038
vn -0.0000 -0.3534 0.9355
vn 0.2144 -0.4469 0.8685
vn 0.0000 0.7071 -0.7071
vn 0.0000 0.7071 0.7071
vn -0.2960 -0.9332 -0.2038
vn -0.5955 -0.6406 -0.4847
vn -0.2144 -0.4469 -0.8685
vn 0.3015 -0.3015 0.9045
vn 0.3015 -0.3015 -0.9045
vn 0.5774 -0.5774 -0.5774
vn 0.5774 -0.5774 0.5774
vn 1.0000 0.0000 -0.0000
vn 0.3089 0.0000 0.9511
vn 0.3089 0.0000 -0.9511
vn 0.5738 0.2159 -0.7900
vn 0.0000 -0.3535 -0.9354
vn 0.1594 -0.5010 -0.8506
vn 0.2144 -0.4469 -0.8685
vn -0.9218 -0.3877 0.0000
vn 0.0000 -1.0000 -0.0000
vn -0.4682 -0.8570 0.2152
vn -0.3759 -0.3791 0.8456
vn 0.1595 -0.5009 0.8507
vn -0.7257 0.6142 0.3099
vn -0.2510 0.4801 0.8405
vn -0.4683 0.8570 0.2150
vn -0.1244 0.5325 0.8372
vn -0.2319 0.9512 0.2034
vn -0.0000 0.5486 0.8361
vn 0.0000 0.9799 0.1993
vn -0.0175 -0.0189 0.9997
vn 0.4393 0.5008 0.7458
vn 0.5807 0.2935 0.7593
vn -0.0116 -0.0239 0.9996
vn 0.0063 0.0140 0.9999
vn 0.0030 0.0150 0.9999
vn 0.7007 -0.6747 -0.2318
vn 0.2509 -0.4799 -0.8407
vn 0.3759 -0.3793 -0.8455
vn 0.4682 -0.8570 -0.2153
vn 0.7008 -0.6747 0.2318
vn 0.4682 -0.8570 0.2152
vn 0.3759 -0.3791 0.8456
vn 0.2508 -0.4798 0.8408
vn 0.8903 -0.3821 -0.2476
vn 0.4792 -0.2160 -0.8507
vn 0.8903 -0.3821 0.2476
vn 0.4791 -0.2160 0.8508
vn 0.0030 -0.0150 -0.9999
vn -0.1245 0.5325 -0.8373
vn 0.0000 0.5485 -0.8361
vn 0.0063 -0.0140 -0.9999
vn -0.0116 0.0239 -0.9996
vn -0.0174 0.0189 -0.9997
vn 0.4392 -0.5010 -0.7457
vn 0.5806 -0.2936 -0.7594
vn -0.2510 0.4800 -0.8406
vn 0.0100 -0.0117 -0.9999
vn -0.0223 0.0108 -0.9997
vn 0.6415 0.0000 -0.7671
vn -0.3759 0.3791 -0.8456
vn 0.0136 -0.0071 -0.9999
vn -0.0244 -0.0001 -0.9997
vn 0.7912 0.3999 -0.4627
vn -0.4791 0.2160 -0.8508
vn 0.0154 0.0000 -0.9999
vn -0.0225 -0.0110 -0.9997
vn 0.0000 0.0000 -1.0000
vn 0.4393 0.5008 -0.7458
vn -0.5219 0.0001 -0.8530
vn 0.0138 0.0072 -0.9999
vn -0.0176 -0.0193 -0.9997
vn 0.2830 0.6148 -0.7362
vn -0.4792 -0.2160 -0.8507
vn 0.0102 0.0120 -0.9999
vn -0.0117 -0.0242 -0.9996
vn 0.1372 0.6681 -0.7313
vn 0.8903 0.3821 -0.2476
vn 0.5219 0.0001 -0.8530
vn 0.4791 0.2160 -0.8508
vn 0.9671 0.0000 -0.2543
vn 0.8903 0.3821 0.2476
vn 0.9671 0.0000 0.2543
vn 0.4792 0.2160 0.8507
vn 0.5219 -0.0000 0.8530
vn -0.3759 -0.3793 -0.8455
vn 0.0064 0.0144 -0.9999
vn -0.0058 -0.0266 -0.9996
vn 0.0000 0.6836 -0.7299
vn 0.4683 0.8570 -0.2150
vn 0.3759 0.3791 -0.8456
vn 0.2510 0.4800 -0.8406
vn 0.7008 0.6747 -0.2318
vn 0.4683 0.8570 0.2150
vn 0.7008 0.6747 0.2318
vn 0.2510 0.4801 0.8405
vn 0.3760 0.3792 0.8455
vn 0.2320 0.9512 -0.2034
vn 0.1245 0.5325 -0.8373
vn 0.2319 0.9512 0.2034
vn 0.1244 0.5325 0.8372
vn -0.8903 -0.3821 0.2476
vn -0.4791 -0.2160 0.8508
vn -0.5219 -0.0000 0.8530
vn -0.7008 -0.6747 0.2318
vn -0.7007 -0.6747 -0.2318
vn -0.4682 -0.8570 -0.2153
vn -0.2509 -0.4799 -0.8407
vn -0.1594 -0.5010 -0.8506
vn -0.9671 0.0000 0.2543
vn -0.4792 0.2160 0.8507
vn -0.8903 -0.3821 -0.2476
vn -0.8903 0.3821 0.2476
vn -0.3760 0.3792 0.8455
vn -0.9671 0.0000 -0.2543
vn 0.0000 0.9799 -0.1993
vn -0.0223 -0.0108 0.9997
vn 0.6415 0.0000 0.7671
vn 0.0099 0.0117 0.9999
vn -0.0058 0.0266 0.9996
vn 0.1372 -0.6681 0.7313
vn 0.0000 -0.6836 0.7299
vn -0.0117 0.0242 0.9996
vn 0.0064 -0.0144 0.9999
vn 0.0102 -0.0120 0.9999
vn -0.8903 0.3821 -0.2476
vn 0.2830 -0.6148 0.7362
vn -0.0176 0.0193 0.9997
vn 0.0138 -0.0072 0.9999
vn 0.4392 -0.5010 0.7457
vn -0.0225 0.0110 0.9997
vn 0.0154 -0.0000 0.9999
vn 0.5806 -0.2936 0.7594
vn -0.0244 0.0001 0.9997
vn 0.0136 0.0071 0.9999
vn -0.7008 0.6747 -0.2318
vn -0.5915 0.8063 -0.0000
vn -0.4683 0.8570 -0.2150
vn -0.2320 0.9512 -0.2034
vn -0.8089 0.0000 -0.5879
vn -0.3089 0.0000 -0.9511
vn -1.0000 0.0000 -0.0000
vn -1.0000 0.0000 0.0000
vn -0.8089 0.0000 0.5879
vn -0.3089 0.0000 0.9511
vn 0.0000 -0.0154 0.9999
vn -0.0030 -0.0152 0.9999
vn -0.0064 -0.0144 0.9999
vn -0.0102 -0.0120 0.9999
vn -0.0138 -0.0072 0.9999
vn -0.0154 -0.0000 0.9999
vn 0.0000 0.0273 -0.9996
vn 0.0000 -0.6836 -0.7299
vn 0.1372 -0.6681 -0.7313
vn -0.1372 -0.6681 -0.7313
vn 0.0057 0.0265 -0.9996
vn -0.2219 -0.3570 -0.9074
vn 0.0116 0.0239 -0.9996
vn -0.4392 -0.5010 -0.7457
vn 0.0174 0.0189 -0.9997
vn -0.5806 -0.2936 -0.7594
vn 0.0223 0.0108 -0.9997
vn -0.6415 0.0000 -0.7671
vn 0.0244 -0.0001 -0.9997
vn -0.5807 0.2935 -0.7593
vn 0.2830 0.6148 0.7362
vn -0.0057 -0.0265 0.9996
vn 0.0000 0.0153 0.9999
vn -0.0030 0.0150 0.9999
vn -0.0063 0.0140 0.9999
vn -0.0099 0.0117 0.9999
vn -0.0136 0.0071 0.9999
vn 0.0030 0.0153 -0.9999
vn 0.0000 -0.0274 -0.9996
vn 0.0058 -0.0266 -0.9996
vn -0.1372 0.6681 -0.7313
vn 0.0117 -0.0242 -0.9996
vn -0.2830 0.6148 -0.7362
vn 0.0176 -0.0193 -0.9997
vn -0.4393 0.5008 -0.7458
vn 0.0225 -0.0110 -0.9997
vn 0.0000 0.0154 -0.9999
vn -0.0030 0.0153 -0.9999
vn -0.0064 0.0144 -0.9999
vn -0.0102 0.0120 -0.9999
vn -0.0138 0.0072 -0.9999
vn -0.0154 0.0000 -0.9999
vn -0.0136 -0.0071 -0.9999
vn -0.0100 -0.0117 -0.9999
vn -0.0063 -0.0140 -0.9999
vn -0.0030 -0.0150 -0.9999
vn 0.0000 -0.0153 -0.9999
vn -0.0057 0.0265 -0.9996
vn 0.2830 -0.6148 -0.7362
vn 0.0000 -0.0273 0.9996
vn -0.0000 0.6836 0.7299
vn 0.1372 0.6681 0.7313
vn -0.1372 0.6681 0.7313
vn 0.0057 -0.0265 0.9996
vn -0.2830 0.6148 0.7362
vn 0.0116 -0.0239 0.9996
vn -0.4393 0.5008 0.7458
vn 0.0175 -0.0189 0.9997
vn -0.5807 0.2935 0.7593
vn 0.0223 -0.0108 0.9997
vn -0.6415 0.0000 0.7671
vn 0.0244 0.0001 0.9997
vn -0.5806 -0.2936 0.7594
vn 0.0225 0.0110 0.9997
vn -0.4392 -0.5010 0.7457
vn 0.0176 0.0193 0.9997
vn -0.2830 -0.6148 0.7362
vn 0.0117 0.0242 0.9996
vn -0.1372 -0.6681 0.7313
vn 0.0058 0.0266 0.9996
vn 0.0000 0.0274 0.9996
vn 0.0030 -0.0152 0.9999
vn -0.3020 -0.9533 -0.0000
# 250 vertex normals

vt 0.0955 -0.7938 0.0000
vt 0.6544 -0.9755 0.0000
vt 0.3455 -0.9755 0.0000
vt 0.4891 -0.9515 0.0000
vt 0.0000 -0.9515 0.0000
vt 0.0604 -0.5000 0.0000
vt 1.1549 -2.0013 0.0000
vt 1.0328 -1.8634 0.0000
vt 1.1549 -1.8634 0.0000
vt 1.0328 -2.0013 0.0000
vt 0.0000 -0.0509 0.0000
vt 1.0000 -0.9490 0.0000
vt 1.0000 -0.0509 0.0000
vt 0.0000 -0.9490 0.0000
vt 0.9044 -0.7938 0.0000
vt 1.0000 -0.5000 0.0000
vt 0.0955 -0.2061 0.0000
vt 0.6544 -0.0244 0.0000
vt 0.9044 -0.2061 0.0000
vt 0.3455 -0.0244 0.0000
vt -0.5081 -1.0000 0.0000
vt -0.2487 -0.6563 0.0000
vt -0.2487 -1.0000 0.0000
vt -0.5081 -0.6563 0.0000
vt 1.1549 -1.0042 0.0000
vt 1.0328 -1.1324 0.0000
vt 1.1549 -1.1324 0.0000
vt 1.0328 -1.0042 0.0000
vt 1.0945 -0.7258 0.0000
vt 1.0128 -1.0298 0.0000
vt 0.9777 -1.0228 0.0000
vt 1.0737 -0.9027 0.0000
vt 1.1002 -0.7693 0.0000
vt 1.1431 -0.5535 0.0000
vt 1.1639 -0.3755 0.0000
vt 1.1859 -0.3375 0.0000
vt 1.0249 -1.0321 0.0000
vt 0.4891 -0.0483 0.0000
vt 1.0000 -0.9515 0.0000
vt 1.0000 -0.0483 0.0000
vt 1.2123 -0.2041 0.0000
vt 0.2499 -0.8552 0.0000
vt 0.7500 -0.1447 0.0000
vt 0.2499 -0.1447 0.0000
vt 0.7500 -0.8552 0.0000
vt 0.2499 -0.8328 0.0000
vt 0.7500 -0.1671 0.0000
vt 0.2499 -0.1671 0.0000
vt 0.7500 -0.8328 0.0000
vt 0.2499 -0.8280 0.0000
vt 0.7500 -0.1719 0.0000
vt 0.2499 -0.1719 0.0000
vt 0.7500 -0.8280 0.0000
vt 0.2585 -0.3387 0.0000
vt 0.5385 -0.6563 0.0000
vt 0.5385 -0.3387 0.0000
vt 0.2585 -0.6563 0.0000
vt 0.2585 -0.0000 0.0000
vt 0.5385 -0.0000 0.0000
vt 0.5385 -1.0000 0.0000
vt 0.2585 -1.0000 0.0000
vt -0.5081 -0.0000 0.0000
vt -0.1901 -0.3387 0.0000
vt -0.1901 -0.0000 0.0000
vt -0.5081 -0.3387 0.0000
vt 0.0000 -0.8641 0.0000
vt 1.0000 -0.1357 0.0000
vt 1.0000 -0.8641 0.0000
vt 0.0000 -0.1357 0.0000
vt 1.2164 -0.0658 0.0000
vt 1.2043 -0.0634 0.0000
vt 0.0000 -0.0483 0.0000
vt 0.0000 -0.5000 0.0000
vt 1.0563 -0.7183 0.0000
vt 0.9230 -1.0120 0.0000
vt 0.7883 -2.0013 0.0000
vt 0.7883 -1.8634 0.0000
vt 1.0328 -1.6122 0.0000
vt 0.7883 -1.6122 0.0000
vt 0.9034 -0.0483 0.0000
vt 0.9034 -0.9515 0.0000
vt 0.6807 -0.6438 0.0000
vt 0.5776 -0.9435 0.0000
vt 0.6211 -0.6320 0.0000
vt 0.5425 -0.9365 0.0000
vt 0.5830 -0.6244 0.0000
vt 0.5304 -0.9341 0.0000
vt 0.5698 -0.6218 0.0000
vt 0.1561 -0.5973 0.0000
vt 0.2460 -0.5608 0.0000
vt 0.2252 -0.4961 0.0000
vt 0.2150 -0.6818 0.0000
vt 0.1274 -0.7496 0.0000
vt 0.2385 -0.8383 0.0000
vt 0.1937 -0.9010 0.0000
vt 0.3524 -0.9659 0.0000
vt 1.0662 -0.3561 0.0000
vt 1.1692 -0.0564 0.0000
vt 1.1145 -0.0457 0.0000
vt 1.1257 -0.3679 0.0000
vt 0.9967 -0.7064 0.0000
vt 0.9912 -0.3413 0.0000
vt 1.0457 -0.0320 0.0000
vt 0.9218 -0.6915 0.0000
vt 0.8540 -0.9983 0.0000
vt 0.4757 -0.0891 0.0000
vt 0.4742 -0.0146 0.0000
vt 0.6475 -0.0339 0.0000
vt 0.3291 -0.1123 0.0000
vt 0.3639 -0.2113 0.0000
vt 0.2644 -0.2555 0.0000
vt 0.3195 -0.3287 0.0000
vt 0.2638 -0.3741 0.0000
vt 0.3036 -0.0427 0.0000
vt 0.1993 -0.1735 0.0000
vt 0.1879 -0.3236 0.0000
vt 0.2314 -0.4318 0.0000
vt 0.1521 -0.1157 0.0000
vt 0.0989 -0.2666 0.0000
vt 0.1418 -0.4091 0.0000
vt 0.0347 -0.2262 0.0000
vt 0.0377 -0.3826 0.0000
vt 0.1310 -0.5033 0.0000
vt -0.0370 -0.3635 0.0000
vt 0.0219 -0.5100 0.0000
vt 0.2915 -0.6195 0.0000
vt -0.0564 -0.5143 0.0000
vt 0.0527 -0.6365 0.0000
vt 0.3575 -0.6666 0.0000
vt 0.8251 -0.3083 0.0000
vt 0.9692 -0.0168 0.0000
vt 0.8928 -0.0016 0.0000
vt 0.9082 -0.3248 0.0000
vt 0.7556 -0.6587 0.0000
vt 0.8387 -0.6750 0.0000
vt 0.7012 -0.9680 0.0000
vt 0.7776 -0.9832 0.0000
vt -0.0211 -0.6635 0.0000
vt 0.3018 -0.7484 0.0000
vt 0.4375 -0.6973 0.0000
vt 0.6906 -0.2816 0.0000
vt 0.8239 0.0120 0.0000
vt 0.7692 0.0227 0.0000
vt 0.7501 -0.2935 0.0000
vt 0.6323 -0.9543 0.0000
vt 0.6525 -0.2740 0.0000
vt 0.7341 0.0297 0.0000
vt 0.6393 -0.2715 0.0000
vt 0.7219 0.0321 0.0000
vt 0.7883 -1.1324 0.0000
vt 0.7883 -1.0042 0.0000
vt 0.7883 -1.3801 0.0000
vt 1.0328 -1.3801 0.0000
vt 0.0649 -0.7968 0.0000
vt 0.4768 -0.1953 0.0000
vt 0.4763 -0.2911 0.0000
vt 0.5624 -0.3026 0.0000
vt 0.3926 -0.3002 0.0000
vt 0.2010 -1.8634 0.0000
vt 0.4553 -2.0013 0.0000
vt 0.2010 -2.0013 0.0000
vt 0.4553 -1.8634 0.0000
vt 0.2010 -1.6122 0.0000
vt 0.4553 -1.6122 0.0000
vt 0.2010 -1.3801 0.0000
vt 0.4553 -1.3801 0.0000
vt 0.2010 -1.1324 0.0000
vt 0.4553 -1.1324 0.0000
vt 0.2010 -1.0042 0.0000
vt 0.4553 -1.0042 0.0000
vt 0.0791 -1.8634 0.0000
vt 0.0791 -2.0013 0.0000
vt 0.0791 -1.6122 0.0000
vt 0.0791 -1.3801 0.0000
vt 0.0791 -1.1324 0.0000
vt 0.0791 -1.0042 0.0000
vt 0.6246 -0.1061 0.0000
vt 0.8062 -0.0989 0.0000
vt 0.7614 -0.1616 0.0000
vt 0.9349 -0.2031 0.0000
vt 0.8724 -0.2502 0.0000
vt 1.0211 -0.3364 0.0000
vt 0.9471 -0.3634 0.0000
vt 1.0564 -0.4856 0.0000
vt 0.9780 -0.4899 0.0000
vt 1.0370 -0.6364 0.0000
vt 0.9622 -0.6173 0.0000
vt 0.9652 -0.7737 0.0000
vt 0.5920 -0.2091 0.0000
vt 0.6423 -0.3333 0.0000
vt 0.6981 -0.2515 0.0000
vt 0.7084 -0.3804 0.0000
vt 0.7849 -0.3181 0.0000
vt 0.7539 -0.4391 0.0000
vt 0.8438 -0.4026 0.0000
vt 0.7747 -0.5038 0.0000
vt 0.8689 -0.4966 0.0000
vt 0.7684 -0.5681 0.0000
vt 0.8580 -0.5908 0.0000
vt 0.7361 -0.6257 0.0000
vt 0.3752 -0.8938 0.0000
vt 0.5242 -0.9108 0.0000
vt 0.5256 -0.9852 0.0000
vt 0.6708 -0.8876 0.0000
vt 0.6963 -0.9572 0.0000
vt 0.8005 -0.8264 0.0000
vt 0.8478 -0.8842 0.0000
vt 0.9010 -0.7333 0.0000
vt 0.4078 -0.7908 0.0000
vt 0.5231 -0.8046 0.0000
vt 0.5236 -0.7087 0.0000
vt 0.6360 -0.7886 0.0000
vt 0.6073 -0.6997 0.0000
vt 0.7355 -0.7444 0.0000
vt 0.6804 -0.6711 0.0000
vt 0.8120 -0.6763 0.0000
vt 1.0469 -0.9918 0.0000
vt 1.0469 -0.0067 0.0000
vt 1.0861 -0.9918 0.0000
vt 1.0077 -0.0067 0.0000
vt 1.0077 -0.9918 0.0000
vt 0.9723 -0.0067 0.0000
vt 0.9723 -0.9918 0.0000
vt 0.9443 -0.0067 0.0000
vt 0.9443 -0.9918 0.0000
vt 0.9263 -0.0067 0.0000
vt 0.9263 -0.9918 0.0000
vt 0.9200 -0.0067 0.0000
vt 0.9200 -0.9918 0.0000
vt 1.0861 -0.0067 0.0000
vt 1.1213 -0.0067 0.0000
vt 1.1213 -0.9918 0.0000
vt 1.1494 -0.0067 0.0000
vt 1.1494 -0.9918 0.0000
vt 1.1674 -0.0067 0.0000
vt 1.1674 -0.9918 0.0000
vt 1.1736 -0.0067 0.0000
vt 1.1736 -0.9918 0.0000
# 238 texture coords

g KeySwitchMat_v001
usemtl KeySwitchMat_v
s 1
f 1/1/1 2/2/2 3/3/3 
s 2
f 4/4/4 5/5/5 6/6/6 
s 3
f 7/7/7 8/8/8 6/9/6 
s 4
f 8/8/8 7/7/7 9/10/9 
s 5
f 10/11/10 11/12/11 12/13/12 
s 6
f 11/12/11 10/11/10 13/14/13 
s 7
f 1/1/1 14/15/14 2/2/2 
s 8
f 14/15/14 1/1/1 7/16/7 
s 9
f 15/17/15 16/18/16 9/19/9 
s 10
f 16/18/16 15/17/15 17/20/17 
s 11
f 18/21/18 12/22/12 19/23/19 
s 12
f 12/22/12 18/21/18 10/24/10 
s 13
f 20/25/20 21/26/21 22/27/22 
s 14
f 21/26/21 20/25/20 23/28/23 
s 15
f 24/29/24 25/30/25 26/31/26 
s 16
f 25/30/25 24/29/24 27/32/27 
s 17
f 24/29/24 28/33/28 27/32/27 
s 18
f 28/33/28 24/29/24 29/34/29 
s 19
f 30/35/30 20/34/20 31/36/31 
s 20
f 20/34/20 30/35/30 32/29/32 
s 21
f 27/32/27 33/37/33 25/30/25 
s 22
f 33/37/33 27/32/27 34/32/34 
s 23
f 35/38/35 36/39/11 37/40/12 
s 24
f 36/39/11 35/38/35 38/4/36 
s 25
f 39/35/37 40/36/38 29/34/29 
s 26
f 40/36/38 39/35/37 41/41/39 
s 27
f 42/42/40 10/43/10 43/44/41 
s 28
f 10/43/10 42/42/40 13/45/13 
s 29
f 36/46/11 44/47/42 37/48/12 
s 30
f 44/47/42 36/46/11 45/49/43 
s 31
f 11/50/11 19/51/19 12/52/12 
s 32
f 19/51/44 11/50/11 46/53/43 
s 33
f 47/54/45 13/55/13 42/56/40 
s 34
f 13/55/13 47/54/45 48/57/45 
s 35
f 49/57/46 43/56/41 10/55/10 
s 36
f 43/56/41 49/57/46 50/54/46 
s 37
f 42/56/40 21/58/21 47/54/45 
s 38
f 21/58/21 42/56/40 38/59/36 
s 39
f 50/54/46 35/59/35 43/56/41 
s 40
f 35/59/35 50/54/46 51/58/47 
s 41
f 48/57/45 4/60/4 13/55/13 
s 42
f 4/60/4 48/57/45 5/61/5 
s 43
f 10/55/10 8/61/8 49/57/46 
s 44
f 8/61/8 10/55/10 18/60/18 
s 45
f 38/62/36 45/63/43 36/64/11 
s 46
f 45/63/43 38/62/36 42/65/40 
s 47
f 42/66/40 44/67/42 45/68/43 
s 48
f 44/67/42 42/66/40 43/69/41 
s 49
f 43/65/41 37/64/12 44/63/42 
s 50
f 37/64/12 43/65/41 35/62/35 
s 51
f 13/24/13 46/23/43 11/22/11 
s 52
f 46/23/43 13/24/13 4/21/4 
s 53
f 31/28/31 22/27/22 51/26/47 
s 54
f 22/27/22 31/28/31 20/25/20 
s 55
f 14/10/14 6/9/6 5/8/5 
s 56
f 6/9/6 14/10/14 7/7/7 
s 57
f 52/70/48 53/71/49 54/41/50 
s 58
f 30/35/30 54/41/50 53/71/49 
s 59
f 54/41/50 30/35/30 31/36/31 
s 60
f 21/5/21 38/4/36 22/6/22 
s 61
f 35/38/35 22/6/22 38/4/36 
s 62
f 22/6/22 35/38/35 51/72/47 
s 63
f 1/1/1 55/73/51 7/16/7 
s 64
f 15/17/15 7/16/7 55/73/52 
s 65
f 7/16/7 15/17/15 9/19/9 
s 66
f 24/29/24 39/35/37 29/34/29 
s 67
f 39/35/37 24/29/24 56/74/53 
s 68
f 26/31/26 56/74/53 24/29/24 
s 69
f 56/74/53 26/31/26 57/75/54 
s 70
f 5/8/5 2/76/2 14/10/14 
s 71
f 2/76/2 5/8/5 58/77/45 
s 72
f 48/78/45 58/77/45 5/8/5 
s 73
f 58/77/45 48/78/45 59/79/45 
s 74
f 34/32/34 60/30/55 33/37/33 
s 75
f 60/30/55 34/32/34 32/29/32 
s 76
f 23/33/23 32/29/32 34/32/34 
s 77
f 32/29/32 23/33/23 20/34/20 
s 78
f 4/4/4 19/80/19 46/81/43 
s 79
f 19/80/19 4/4/4 18/38/18 
s 80
f 6/6/6 18/38/18 4/4/4 
s 81
f 18/38/18 6/6/6 8/72/8 
s 82
f 61/82/56 62/83/57 63/84/58 
s 83
f 64/85/59 63/84/58 62/83/57 
s 84
f 63/84/58 64/85/59 65/86/60 
s 85
f 66/87/61 65/86/60 64/85/59 
s 86
f 65/86/60 66/87/61 67/88/62 
s 87
f 68/89/63 69/90/64 70/91/65 
s 88
f 69/90/64 68/89/63 71/92/66 
s 89
f 72/93/67 71/92/66 68/89/63 
s 90
f 71/92/66 72/93/67 73/94/68 
s 91
f 25/95/25 73/94/68 72/93/67 
s 92
f 73/94/68 25/95/25 33/96/33 
s 93
f 74/97/69 75/98/70 76/99/71 
s 94
f 75/98/70 74/97/69 77/100/72 
s 95
f 78/101/73 77/100/72 74/97/69 
s 96
f 77/100/72 78/101/73 79/74/74 
s 97
f 80/75/75 79/74/74 78/101/73 
s 98
f 79/74/74 80/75/75 81/31/76 
s 99
f 82/102/77 76/99/71 83/103/78 
s 100
f 76/99/71 82/102/77 74/97/69 
s 101
f 84/104/79 74/97/69 82/102/77 
s 102
f 74/97/69 84/104/79 78/101/73 
s 103
f 85/105/80 78/101/73 84/104/79 
s 104
f 78/101/73 85/105/80 80/75/75 
s 105
f 86/106/81 87/107/82 88/108/83 
s 106
f 87/107/82 86/106/81 89/109/84 
s 107
f 90/110/85 89/109/84 86/106/81 
s 108
f 89/109/84 90/110/85 91/111/86 
s 109
f 92/112/87 91/111/86 90/110/85 
s 110
f 91/111/86 92/112/87 93/113/88 
s 111
f 89/109/84 94/114/89 87/107/82 
s 112
f 94/114/89 89/109/84 95/115/90 
s 113
f 91/111/86 95/115/90 89/109/84 
s 114
f 95/115/90 91/111/86 96/116/91 
s 115
f 93/113/88 96/116/91 91/111/86 
s 116
f 96/116/91 93/113/88 97/117/92 
s 117
f 95/115/90 98/118/93 94/114/89 
s 118
f 98/118/93 95/115/90 99/119/94 
s 119
f 96/116/91 99/119/94 95/115/90 
s 120
f 99/119/94 96/116/91 100/120/95 
s 121
f 97/117/92 100/120/95 96/116/91 
s 122
f 100/120/95 97/117/92 101/91/96 
s 123
f 99/119/94 102/121/97 98/118/93 
s 124
f 102/121/97 99/119/94 103/122/98 
s 125
f 100/120/95 103/122/98 99/119/94 
s 126
f 103/122/98 100/120/95 104/123/99 
s 127
f 101/91/96 104/123/99 100/120/95 
s 128
f 104/123/99 101/91/100 105/90/101 
s 129
f 103/122/98 106/124/102 102/121/97 
s 130
f 106/124/102 103/122/98 107/125/103 
s 131
f 104/123/99 107/125/103 103/122/98 
s 132
f 107/125/103 104/123/99 108/89/104 
s 133
f 105/90/101 108/89/104 104/123/99 
s 134
f 108/89/104 105/90/101 109/126/105 
s 135
f 107/125/103 110/127/106 106/124/102 
s 136
f 110/127/106 107/125/103 111/128/107 
s 137
f 108/89/104 111/128/107 107/125/103 
s 138
f 111/128/107 108/89/104 112/92/108 
s 139
f 109/126/105 112/92/108 108/89/104 
s 140
f 112/92/108 109/126/105 113/129/109 
s 141
f 114/130/110 115/131/111 116/132/112 
s 142
f 115/131/111 114/130/110 117/133/113 
s 143
f 118/134/114 117/133/113 114/130/110 
s 144
f 117/133/113 118/134/114 119/135/115 
s 145
f 120/136/116 119/135/115 118/134/114 
s 146
f 119/135/115 120/136/116 121/137/117 
s 147
f 111/128/107 122/138/118 110/127/106 
s 148
f 122/138/118 111/128/107 123/93/119 
s 149
f 112/92/108 123/93/119 111/128/107 
s 150
f 123/93/119 112/92/108 124/139/120 
s 151
f 113/129/109 124/139/120 112/92/108 
s 152
f 124/139/120 113/129/109 125/140/121 
s 153
f 126/141/122 127/142/123 128/143/124 
s 154
f 127/142/123 126/141/122 129/144/125 
s 155
f 130/84/126 129/144/125 126/141/122 
s 156
f 129/144/125 130/84/126 131/82/127 
s 157
f 132/83/128 131/82/127 130/84/126 
s 158
f 131/82/127 132/83/128 133/145/129 
s 159
f 134/146/130 128/143/124 135/147/131 
s 160
f 128/143/124 134/146/130 126/141/122 
s 161
f 136/86/132 126/141/122 134/146/130 
s 162
f 126/141/122 136/86/132 130/84/126 
s 163
f 137/85/133 130/84/126 136/86/132 
s 164
f 130/84/126 137/85/133 132/83/128 
s 165
f 138/104/134 139/105/135 140/137/136 
s 166
f 139/105/135 138/104/134 141/101/137 
s 167
f 142/97/138 141/101/137 138/104/134 
s 168
f 141/101/137 142/97/138 143/100/139 
s 169
f 144/98/140 143/100/139 142/97/138 
s 170
f 143/100/139 144/98/140 145/71/141 
s 171
f 146/135/142 140/137/136 147/136/143 
s 172
f 140/137/136 146/135/142 138/104/134 
s 173
f 148/102/144 138/104/134 146/135/142 
s 174
f 138/104/134 148/102/144 142/97/138 
s 175
f 122/99/118 142/97/138 148/102/144 
s 176
f 142/97/138 122/99/118 144/98/140 
s 177
f 149/134/145 147/136/143 150/145/146 
s 178
f 147/136/143 149/134/145 146/135/142 
s 179
f 151/133/147 146/135/142 149/134/145 
s 180
f 146/135/142 151/133/147 148/102/144 
s 181
f 110/103/106 148/102/144 151/133/147 
s 182
f 148/102/144 110/103/106 122/99/118 
s 183
f 152/148/148 135/147/131 88/149/83 
s 184
f 135/147/131 152/148/148 134/146/130 
s 185
f 67/88/62 134/146/130 152/148/148 
s 186
f 134/146/130 67/88/62 136/86/132 
s 187
f 66/87/61 136/86/132 67/88/62 
s 188
f 136/86/132 66/87/61 137/85/133 
s 189
f 77/100/72 53/71/49 75/98/70 
s 190
f 53/71/49 77/100/72 30/35/30 
s 191
f 79/74/74 30/35/30 77/100/72 
s 192
f 30/35/30 79/74/74 32/29/32 
s 193
f 81/31/76 32/29/32 79/74/74 
s 194
f 32/29/32 81/31/76 60/30/55 
s 195
f 153/150/45 23/28/23 34/151/34 
s 196
f 23/28/23 153/150/45 21/26/21 
s 197
f 154/152/45 21/26/21 153/150/45 
s 198
f 21/26/21 154/152/45 47/153/45 
s 199
f 59/79/45 47/153/45 154/152/45 
s 200
f 47/153/45 59/79/45 48/78/45 
s 201
f 155/123/149 70/91/65 156/117/150 
s 202
f 70/91/65 155/123/149 68/89/63 
s 203
f 157/128/151 68/89/63 155/123/149 
s 204
f 68/89/63 157/128/151 72/93/67 
s 205
f 26/154/26 72/93/67 157/128/151 
s 206
f 72/93/67 26/154/26 25/95/25 
s 207
f 158/155/152 159/156/153 160/157/154 
s 208
f 159/156/153 158/155/152 161/110/155 
s 209
f 162/109/156 161/110/155 158/155/152 
s 210
f 161/110/155 162/109/156 163/115/157 
s 211
f 150/118/146 163/115/157 162/109/156 
s 212
f 163/115/157 150/118/146 147/121/143 
s 213
f 61/82/56 150/145/146 62/83/57 
s 214
f 150/145/146 61/82/56 149/134/145 
s 215
f 164/130/158 149/134/145 61/82/56 
s 216
f 149/134/145 164/130/158 151/133/147 
s 217
f 106/131/102 151/133/147 164/130/158 
s 218
f 151/133/147 106/131/102 110/103/106 
s 219
f 117/133/113 83/103/78 115/131/111 
s 220
f 83/103/78 117/133/113 82/102/77 
s 221
f 119/135/115 82/102/77 117/133/113 
s 222
f 82/102/77 119/135/115 84/104/79 
s 223
f 121/137/117 84/104/79 119/135/115 
s 224
f 84/104/79 121/137/117 85/105/80 
s 225
f 161/110/155 165/158/159 159/156/153 
s 226
f 165/158/159 161/110/155 166/111/160 
s 227
f 163/115/157 166/111/160 161/110/155 
s 228
f 166/111/160 163/115/157 167/119/161 
s 229
f 147/121/143 167/119/161 163/115/157 
s 230
f 167/119/161 147/121/143 140/124/136 
s 231
f 166/111/160 168/112/162 165/158/159 
s 232
f 168/112/162 166/111/160 169/116/163 
s 233
f 167/119/161 169/116/163 166/111/160 
s 234
f 169/116/163 167/119/161 170/122/164 
s 235
f 140/124/136 170/122/164 167/119/161 
s 236
f 170/122/164 140/124/136 139/127/135 
s 237
f 169/116/163 171/113/165 168/112/162 
s 238
f 171/113/165 169/116/163 172/120/166 
s 239
f 170/122/164 172/120/166 169/116/163 
s 240
f 172/120/166 170/122/164 173/125/167 
s 241
f 139/127/135 173/125/167 170/122/164 
s 242
f 173/125/167 139/127/135 57/138/54 
s 243
f 172/120/166 156/117/150 171/113/165 
s 244
f 156/117/150 172/120/166 155/123/149 
s 245
f 173/125/167 155/123/149 172/120/166 
s 246
f 155/123/149 173/125/167 157/128/151 
s 247
f 57/138/54 157/128/151 173/125/167 
s 248
f 157/128/151 57/138/54 26/154/26 
s 249
f 129/144/125 116/132/112 127/142/123 
s 250
f 116/132/112 129/144/125 114/130/110 
s 251
f 131/82/127 114/130/110 129/144/125 
s 252
f 114/130/110 131/82/127 118/134/114 
s 253
f 133/145/129 118/134/114 131/82/127 
s 254
f 118/134/114 133/145/129 120/136/116 
s 255
f 164/130/158 61/82/56 174/144/168 
s 256
f 63/84/58 174/144/168 61/82/169 
s 257
f 174/144/168 63/84/58 175/141/170 
s 258
f 65/86/60 175/141/170 63/84/58 
s 259
f 175/141/170 65/86/60 176/146/171 
s 260
f 67/88/62 176/146/171 65/86/60 
s 261
f 176/146/171 67/88/62 152/148/148 
s 262
f 141/101/137 57/75/54 139/105/135 
s 263
f 57/75/54 141/101/137 56/74/53 
s 264
f 143/100/139 56/74/53 141/101/137 
s 265
f 56/74/53 143/100/139 39/35/37 
s 266
f 145/71/141 39/35/37 143/100/139 
s 267
f 39/35/37 145/71/141 41/41/39 
s 268
f 52/70/48 41/41/39 145/71/141 
s 269
f 41/41/39 52/70/48 54/41/50 
s 270
f 106/131/102 164/130/158 102/132/97 
s 271
f 174/144/168 102/132/97 164/130/158 
s 272
f 102/132/97 174/144/168 98/142/93 
s 273
f 175/141/170 98/142/93 174/144/168 
s 274
f 98/142/93 175/141/170 94/143/89 
s 275
f 176/146/171 94/143/89 175/141/170 
s 276
f 94/143/89 176/146/171 87/147/82 
s 277
f 152/148/148 87/147/82 176/146/171 
s 278
f 87/147/82 152/148/148 88/149/83 
s 279
f 177/77/46 9/10/9 16/76/16 
s 280
f 9/10/9 177/77/46 8/8/8 
s 281
f 178/79/46 8/8/8 177/77/46 
s 282
f 8/8/8 178/79/46 49/78/46 
s 283
f 179/152/46 49/78/46 178/79/46 
s 284
f 49/78/46 179/152/46 50/153/46 
s 285
f 180/150/46 50/153/46 179/152/46 
s 286
f 50/153/46 180/150/46 51/26/47 
s 287
f 54/151/50 51/26/47 180/150/46 
s 288
f 51/26/47 54/151/50 31/28/31 
s 289
f 181/159/172 17/160/17 15/161/15 
s 290
f 17/160/17 181/159/172 182/162/173 
s 291
f 183/163/172 182/162/173 181/159/172 
s 292
f 182/162/173 183/163/172 184/164/173 
s 293
f 185/165/172 184/164/173 183/163/172 
s 294
f 184/164/173 185/165/172 186/166/173 
s 295
f 187/167/172 186/166/173 185/165/172 
s 296
f 186/166/173 187/167/172 188/168/173 
s 297
f 40/169/38 188/168/173 187/167/172 
s 298
f 188/168/173 40/169/38 41/170/39 
s 299
f 189/171/174 15/161/15 55/172/51 
s 300
f 15/161/15 189/171/174 181/159/172 
s 301
f 190/173/174 181/159/172 189/171/174 
s 302
f 181/159/172 190/173/174 183/163/172 
s 303
f 191/174/175 183/163/172 190/173/174 
s 304
f 183/163/172 191/174/175 185/165/172 
s 305
f 192/175/174 185/165/172 191/174/175 
s 306
f 185/165/172 192/175/174 187/167/172 
s 307
f 29/176/29 187/167/172 192/175/174 
s 308
f 187/167/172 29/176/29 40/169/38 
s 309
f 193/159/176 55/172/51 1/161/1 
s 310
f 55/172/51 193/159/176 189/171/174 
s 311
f 194/163/176 189/171/174 193/159/176 
s 312
f 189/171/174 194/163/176 190/173/174 
s 313
f 195/165/176 190/173/174 194/163/176 
s 314
f 190/173/174 195/165/176 191/174/175 
s 315
f 196/167/176 191/174/175 195/165/176 
s 316
f 191/174/175 196/167/176 192/175/174 
s 317
f 28/169/28 192/175/174 196/167/176 
s 318
f 192/175/174 28/169/28 29/176/29 
s 319
f 197/162/177 1/161/1 3/160/3 
s 320
f 1/161/1 197/162/177 193/159/176 
s 321
f 198/164/177 193/159/176 197/162/177 
s 322
f 193/159/176 198/164/177 194/163/176 
s 323
f 199/166/177 194/163/176 198/164/177 
s 324
f 194/163/176 199/166/177 195/165/176 
s 325
f 200/168/177 195/165/176 199/166/177 
s 326
f 195/165/176 200/168/177 196/167/176 
s 327
f 27/170/27 196/167/176 200/168/177 
s 328
f 196/167/176 27/170/27 28/169/28 
s 329
f 58/77/45 3/160/3 2/76/2 
s 330
f 3/160/3 58/77/45 197/162/177 
s 331
f 59/79/45 197/162/177 58/77/45 
s 332
f 197/162/177 59/79/45 198/164/177 
s 333
f 154/152/45 198/164/177 59/79/45 
s 334
f 198/164/177 154/152/45 199/166/177 
s 335
f 153/150/45 199/166/177 154/152/45 
s 336
f 199/166/177 153/150/45 200/168/177 
s 337
f 34/151/34 200/168/177 153/150/45 
s 338
f 200/168/177 34/151/34 27/170/27 
s 339
f 182/162/173 16/76/16 17/160/17 
s 340
f 16/76/16 182/162/173 177/77/46 
s 341
f 184/164/173 177/77/46 182/162/173 
s 342
f 177/77/46 184/164/173 178/79/46 
s 343
f 186/166/173 178/79/46 184/164/173 
s 344
f 178/79/46 186/166/173 179/152/46 
s 345
f 188/168/173 179/152/46 186/166/173 
s 346
f 179/152/46 188/168/173 180/150/46 
s 347
f 41/170/39 180/150/46 188/168/173 
s 348
f 180/150/46 41/170/39 54/151/50 
s 349
f 201/177/178 66/108/61 64/107/59 
s 350
f 66/108/61 201/177/178 137/178/133 
s 351
f 202/179/179 137/178/133 201/177/178 
s 352
f 137/178/133 202/179/179 132/180/128 
s 353
f 203/181/180 132/180/128 202/179/179 
s 354
f 132/180/128 203/181/180 133/182/129 
s 355
f 204/183/181 133/182/129 203/181/180 
s 356
f 133/182/129 204/183/181 120/184/116 
s 357
f 205/185/182 120/184/116 204/183/181 
s 358
f 120/184/116 205/185/182 121/186/117 
s 359
f 206/187/183 121/186/117 205/185/182 
s 360
f 121/186/117 206/187/183 85/188/80 
s 361
f 207/189/184 208/157/185 209/156/186 
s 362
f 208/157/185 207/189/184 210/190/187 
s 363
f 211/191/188 210/190/187 207/189/184 
s 364
f 210/190/187 211/191/188 212/192/189 
s 365
f 213/193/190 212/192/189 211/191/188 
s 366
f 212/192/189 213/193/190 214/194/191 
s 367
f 215/195/192 214/194/191 213/193/190 
s 368
f 214/194/191 215/195/192 216/196/193 
s 369
f 217/197/194 216/196/193 215/195/192 
s 370
f 216/196/193 217/197/194 218/198/195 
s 371
f 219/199/196 218/198/195 217/197/194 
s 372
f 218/198/195 219/199/196 220/200/197 
s 373
f 71/92/66 221/126/198 69/90/64 
s 374
f 221/126/198 71/92/66 222/139/199 
s 375
f 73/94/68 222/139/199 71/92/66 
s 376
f 222/139/199 73/94/68 223/201/200 
s 377
f 33/96/33 223/201/200 73/94/68 
s 378
f 223/201/200 33/96/33 224/202/201 
s 379
f 60/203/55 224/202/201 33/96/33 
s 380
f 224/202/201 60/203/55 225/204/202 
s 381
f 81/205/76 225/204/202 60/203/55 
s 382
f 225/204/202 81/205/76 226/206/203 
s 383
f 80/207/75 226/206/203 81/205/76 
s 384
f 226/206/203 80/207/75 227/208/204 
s 385
f 85/188/80 227/208/204 80/207/75 
s 386
f 227/208/204 85/188/80 206/187/183 
s 387
f 123/93/119 144/154/140 122/138/118 
s 388
f 144/154/140 123/93/119 228/94/205 
s 389
f 124/139/120 228/94/205 123/93/119 
s 390
f 228/94/205 124/139/120 229/209/206 
s 391
f 125/140/121 229/209/206 124/139/120 
s 392
f 229/209/206 125/140/121 230/210/207 
s 393
f 231/211/208 230/210/207 125/140/121 
s 394
f 230/210/207 231/211/208 232/212/209 
s 395
f 233/213/210 232/212/209 231/211/208 
s 396
f 232/212/209 233/213/210 234/214/211 
s 397
f 235/215/212 234/214/211 233/213/210 
s 398
f 234/214/211 235/215/212 236/216/213 
s 399
f 220/200/197 236/216/213 235/215/212 
s 400
f 236/216/213 220/200/197 219/199/196 
s 401
f 228/94/205 145/95/141 144/154/140 
s 402
f 145/95/141 228/94/205 237/201/214 
s 403
f 229/209/206 237/201/214 228/94/205 
s 404
f 237/201/214 229/209/206 238/202/215 
s 405
f 230/210/207 238/202/215 229/209/206 
s 406
f 238/202/215 230/210/207 239/204/216 
s 407
f 232/212/209 239/204/216 230/210/207 
s 408
f 239/204/216 232/212/209 240/206/217 
s 409
f 234/214/211 240/206/217 232/212/209 
s 410
f 240/206/217 234/214/211 241/208/218 
s 411
f 236/216/213 241/208/218 234/214/211 
s 412
f 241/208/218 236/216/213 242/187/219 
s 413
f 219/199/196 242/187/219 236/216/213 
s 414
f 242/187/219 219/199/196 243/185/220 
s 415
f 217/197/194 243/185/220 219/199/196 
s 416
f 243/185/220 217/197/194 244/183/221 
s 417
f 215/195/192 244/183/221 217/197/194 
s 418
f 244/183/221 215/195/192 245/181/222 
s 419
f 213/193/190 245/181/222 215/195/192 
s 420
f 245/181/222 213/193/190 246/179/223 
s 421
f 211/191/188 246/179/223 213/193/190 
s 422
f 246/179/223 211/191/188 247/177/224 
s 423
f 207/189/184 247/177/224 211/191/188 
s 424
f 247/177/224 207/189/184 248/155/225 
s 425
f 209/156/186 248/155/225 207/189/184 
s 426
f 248/155/225 209/156/186 249/158/226 
s 427
f 250/209/227 251/140/228 252/129/229 
s 428
f 251/140/228 250/209/227 253/211/230 
s 429
f 254/210/231 253/211/230 250/209/227 
s 430
f 253/211/230 254/210/231 255/213/232 
s 431
f 256/212/233 255/213/232 254/210/231 
s 432
f 255/213/232 256/212/233 257/215/234 
s 433
f 258/214/235 257/215/234 256/212/233 
s 434
f 257/215/234 258/214/235 259/200/236 
s 435
f 260/216/237 259/200/236 258/214/235 
s 436
f 259/200/236 260/216/237 261/198/238 
s 437
f 262/199/239 261/198/238 260/216/237 
s 438
f 261/198/238 262/199/239 263/196/240 
s 439
f 264/197/241 263/196/240 262/199/239 
s 440
f 263/196/240 264/197/241 265/194/242 
s 441
f 266/195/243 265/194/242 264/197/241 
s 442
f 265/194/242 266/195/243 267/192/244 
s 443
f 268/193/245 267/192/244 266/195/243 
s 444
f 267/192/244 268/193/245 269/190/246 
s 445
f 270/191/247 269/190/246 268/193/245 
s 446
f 269/190/246 270/191/247 160/157/154 
s 447
f 271/189/248 160/157/154 270/191/247 
s 448
f 160/157/154 271/189/248 158/155/152 
s 449
f 272/106/249 158/155/152 271/189/248 
s 450
f 158/155/152 272/106/249 162/109/156 
s 451
f 62/114/57 162/109/156 272/106/249 
s 452
f 162/109/156 62/114/57 150/118/146 
s 453
f 222/139/199 252/129/229 221/126/198 
s 454
f 252/129/229 222/139/199 250/209/227 
s 455
f 223/201/200 250/209/227 222/139/199 
s 456
f 250/209/227 223/201/200 254/210/231 
s 457
f 224/202/201 254/210/231 223/201/200 
s 458
f 254/210/231 224/202/201 256/212/233 
s 459
f 225/204/202 256/212/233 224/202/201 
s 460
f 256/212/233 225/204/202 258/214/235 
s 461
f 226/206/203 258/214/235 225/204/202 
s 462
f 258/214/235 226/206/203 260/216/237 
s 463
f 227/208/204 260/216/237 226/206/203 
s 464
f 260/216/237 227/208/204 262/199/239 
s 465
f 206/187/183 262/199/239 227/208/204 
s 466
f 262/199/239 206/187/183 264/197/241 
s 467
f 205/185/182 264/197/241 206/187/183 
s 468
f 264/197/241 205/185/182 266/195/243 
s 469
f 204/183/181 266/195/243 205/185/182 
s 470
f 266/195/243 204/183/181 268/193/245 
s 471
f 203/181/180 268/193/245 204/183/181 
s 472
f 268/193/245 203/181/180 270/191/247 
s 473
f 202/179/179 270/191/247 203/181/180 
s 474
f 270/191/247 202/179/179 271/189/248 
s 475
f 201/177/178 271/189/248 202/179/179 
s 476
f 271/189/248 201/177/178 272/106/249 
s 477
f 64/107/59 272/106/249 201/177/178 
s 478
f 272/106/249 64/107/59 62/114/57 
s 479
f 237/201/214 52/96/48 145/95/141 
s 480
f 52/96/48 237/201/214 53/203/49 
s 481
f 238/202/215 53/203/49 237/201/214 
s 482
f 53/203/49 238/202/215 75/205/70 
s 483
f 239/204/216 75/205/70 238/202/215 
s 484
f 75/205/70 239/204/216 76/207/71 
s 485
f 240/206/217 76/207/71 239/204/216 
s 486
f 76/207/71 240/206/217 83/188/78 
s 487
f 241/208/218 83/188/78 240/206/217 
s 488
f 83/188/78 241/208/218 115/186/111 
s 489
f 242/187/219 115/186/111 241/208/218 
s 490
f 115/186/111 242/187/219 116/184/112 
s 491
f 243/185/220 116/184/112 242/187/219 
s 492
f 116/184/112 243/185/220 127/182/123 
s 493
f 244/183/221 127/182/123 243/185/220 
s 494
f 127/182/123 244/183/221 128/180/124 
s 495
f 245/181/222 128/180/124 244/183/221 
s 496
f 128/180/124 245/181/222 135/178/131 
s 497
f 246/179/223 135/178/131 245/181/222 
s 498
f 135/178/131 246/179/223 88/108/83 
s 499
f 247/177/224 88/108/83 246/179/223 
s 500
f 88/108/83 247/177/224 86/106/81 
s 501
f 248/155/225 86/106/81 247/177/224 
s 502
f 86/106/81 248/155/225 90/110/85 
s 503
f 249/158/226 90/110/85 248/155/225 
s 504
f 90/110/85 249/158/226 92/112/87 
s 505
f 261/217/238 218/218/195 259/219/236 
s 506
f 218/218/195 261/217/238 216/220/193 
s 507
f 263/221/240 216/220/193 261/217/238 
s 508
f 216/220/193 263/221/240 214/222/191 
s 509
f 265/223/242 214/222/191 263/221/240 
s 510
f 214/222/191 265/223/242 212/224/189 
s 511
f 267/225/244 212/224/189 265/223/242 
s 512
f 212/224/250 267/225/244 210/226/187 
s 513
f 269/227/246 210/226/187 267/225/244 
s 514
f 210/226/187 269/227/246 208/228/185 
s 515
f 160/229/154 208/228/185 269/227/246 
s 516
f 208/228/185 160/229/154 209/226/186 
s 517
f 159/227/153 209/226/186 160/229/154 
s 518
f 209/226/186 159/227/153 249/224/226 
s 519
f 165/225/159 249/224/226 159/227/153 
s 520
f 249/224/226 165/225/159 92/222/87 
s 521
f 168/223/162 92/222/87 165/225/159 
s 522
f 92/222/87 168/223/162 93/220/88 
s 523
f 171/221/165 93/220/88 168/223/162 
s 524
f 93/220/88 171/221/165 97/218/92 
s 525
f 156/217/150 97/218/92 171/221/165 
s 526
f 97/218/92 156/217/150 101/230/96 
s 527
f 70/219/65 101/230/96 156/217/150 
s 528
f 101/230/96 70/219/65 105/231/101 
s 529
f 69/232/64 105/231/101 70/219/65 
s 530
f 105/231/101 69/232/64 109/233/105 
s 531
f 221/234/198 109/233/105 69/232/64 
s 532
f 109/233/105 221/234/198 113/235/109 
s 533
f 252/236/229 113/235/109 221/234/198 
s 534
f 113/235/109 252/236/229 125/237/121 
s 535
f 251/238/228 125/237/121 252/236/229 
s 536
f 125/237/121 251/238/228 231/235/208 
s 537
f 253/236/230 231/235/208 251/238/228 
s 538
f 231/235/208 253/236/230 233/233/210 
s 539
f 255/234/232 233/233/210 253/236/230 
s 540
f 233/233/210 255/234/232 235/231/212 
s 541
f 257/232/234 235/231/212 255/234/232 
s 542
f 235/231/212 257/232/234 220/230/197 
s 543
f 259/219/236 220/230/197 257/232/234 
s 544
f 220/230/197 259/219/236 218/218/195 
# 0 polygons - 544 triangles

